<svg width="8" height="10" viewBox="0 0 8 10" fill="none" xmlns="http://www.w3.org/2000/svg">
<path d="M6.88979 9.87003H0.83979C0.66979 9.87003 0.529785 9.73003 0.529785 9.56003V0.840029C0.529785 0.670029 0.66979 0.530029 0.83979 0.530029H6.88979C7.05979 0.530029 7.19979 0.670029 7.19979 0.840029V9.56003C7.19979 9.73003 7.05979 9.87003 6.88979 9.87003ZM0.83979 0.540029C0.67979 0.540029 0.549789 0.670029 0.549789 0.830029V9.55003C0.549789 9.71003 0.67979 9.84003 0.83979 9.84003H6.88979C7.04979 9.84003 7.17979 9.71003 7.17979 9.55003V0.840029C7.17979 0.680029 7.04979 0.550029 6.88979 0.550029H0.83979V0.540029Z" fill="#3D3D3D"/>
<path d="M6.89 9.89H0.840004C0.650004 9.89 0.5 9.74 0.5 9.55V0.84C0.5 0.65 0.650004 0.5 0.840004 0.5H6.89C7.08 0.5 7.23 0.65 7.23 0.84V9.56C7.23 9.75 7.08 9.9 6.89 9.9V9.89ZM0.840004 0.57C0.690004 0.57 0.580002 0.69 0.580002 0.83V9.55C0.580002 9.7 0.700004 9.81 0.840004 9.81H6.89C7.04 9.81 7.15 9.69 7.15 9.55V0.84C7.15 0.69 7.03 0.58 6.89 0.58H0.840004V0.57Z" fill="#3D3D3D"/>
<path d="M6.71001 9.65H1.01002C0.870017 9.65 0.77002 9.54 0.77002 9.41V0.99C0.77002 0.86 0.880017 0.75 1.01002 0.75H6.71001C6.84001 0.75 6.95002 0.86 6.95002 0.99V9.41C6.95002 9.54 6.84001 9.65 6.71001 9.65ZM1.01002 0.8C0.900017 0.8 0.820015 0.89 0.820015 0.99V9.41C0.820015 9.52 0.910017 9.6 1.01002 9.6H6.71001C6.82001 9.6 6.90002 9.51 6.90002 9.41V0.99C6.90002 0.88 6.81001 0.8 6.71001 0.8H1.01002Z" fill="#3D3D3D"/>
<path d="M7.19 4.15996C7.19 4.15996 7.12001 4.14996 7.10001 4.15996C7.09001 4.15996 7.08 4.16996 7.07 4.17996C7.05 4.18996 7.03 4.19996 7 4.19996C7.02 4.19996 7.04 4.19996 7.05 4.19996C7.07 4.19996 7.08001 4.17996 7.10001 4.17996C7.12001 4.17996 7.14 4.17996 7.15 4.18996C7.15 4.18996 7.15001 4.20996 7.17001 4.18996C7.17001 4.18996 7.17001 4.16996 7.17001 4.15996H7.19Z" fill="#3D3D3D"/>
<path d="M5.81982 0.52002C5.81982 0.52002 5.87983 0.57002 5.87983 0.62002C5.87983 0.67002 5.85983 0.71002 5.85983 0.76002C5.88983 0.69002 5.91983 0.63002 5.91983 0.55002C5.93983 0.55002 5.95983 0.54002 5.98983 0.54002C5.93983 0.54002 5.89982 0.52002 5.81982 0.52002Z" fill="#3D3D3D"/>
<path d="M6.12012 0.540039C6.12012 0.540039 6.12012 0.620039 6.12012 0.650039C6.13012 0.640039 6.15012 0.580039 6.15012 0.560039C6.15012 0.550039 6.14012 0.540039 6.12012 0.540039Z" fill="#3D3D3D"/>
<path d="M2.87988 0.530029C2.87988 0.530029 2.93988 0.560029 2.94988 0.580029C2.95988 0.600029 2.94988 0.630029 2.96988 0.650029C2.97988 0.680029 3.01988 0.670029 3.04988 0.680029C3.07988 0.680029 3.09988 0.700029 3.12988 0.710029C3.12988 0.690029 3.10988 0.680029 3.08988 0.670029C3.07988 0.670029 3.06988 0.670029 3.05988 0.670029H3.01988C3.01988 0.670029 2.99988 0.610029 2.99988 0.600029C2.99988 0.580029 3.01988 0.570029 3.03988 0.560029C3.02988 0.540029 2.92988 0.560029 2.89988 0.560029L2.87988 0.530029Z" fill="#3D3D3D"/>
<path d="M3.24023 0.540039C3.24023 0.540039 3.25023 0.580039 3.26023 0.600039C3.26023 0.620039 3.26023 0.630039 3.28023 0.640039C3.28023 0.620039 3.28023 0.590039 3.28023 0.560039C3.28023 0.540039 3.28023 0.540039 3.25023 0.540039H3.24023Z" fill="#3D3D3D"/>
<path d="M0.540089 0.989961C0.540089 0.989961 0.600087 0.989961 0.640087 0.999961C0.660087 0.999961 0.640094 0.999961 0.670094 0.999961C0.690094 0.999961 0.700089 0.999961 0.720089 0.999961C0.700089 0.999961 0.68009 0.999961 0.65009 0.999961C0.61009 0.999961 0.620094 0.999961 0.600094 0.979961C0.590094 0.979961 0.570091 0.979961 0.550091 0.979961C0.540091 0.979961 0.550089 0.969961 0.540089 0.959961C0.530089 0.959961 0.540089 0.989961 0.540089 0.999961V0.989961Z" fill="#3D3D3D"/>
<path d="M0.540089 9.15988C0.540089 9.15988 0.600087 9.15988 0.640087 9.16988C0.660087 9.16988 0.640094 9.16988 0.670094 9.16988C0.690094 9.16988 0.700089 9.16988 0.720089 9.16988C0.700089 9.16988 0.68009 9.16988 0.65009 9.16988C0.61009 9.16988 0.620094 9.16988 0.600094 9.14988C0.590094 9.14988 0.570091 9.14988 0.550091 9.14988C0.540091 9.14988 0.550089 9.13988 0.540089 9.12988C0.530089 9.12988 0.540089 9.15988 0.540089 9.16988V9.15988Z" fill="#3D3D3D"/>
<path d="M0.550189 0.750051H0.630191C0.640191 0.730051 0.580188 0.740051 0.580188 0.720051C0.580188 0.710051 0.60019 0.690051 0.59019 0.680051C0.59019 0.650051 0.530187 0.710051 0.540187 0.740051L0.550189 0.750051Z" fill="#3D3D3D"/>
<path d="M4.41991 0.530029C4.41991 0.530029 4.4199 0.530029 4.4299 0.550029C4.4299 0.550029 4.4299 0.570029 4.4299 0.580029C4.4299 0.600029 4.4299 0.620029 4.4299 0.640029C4.4299 0.630029 4.4299 0.620029 4.4299 0.600029C4.4299 0.590029 4.4299 0.580029 4.4399 0.570029C4.4399 0.560029 4.4399 0.560029 4.4399 0.540029C4.4399 0.540029 4.43991 0.540029 4.41991 0.540029C4.41991 0.540029 4.4099 0.540029 4.3999 0.540029L4.41991 0.530029Z" fill="#3D3D3D"/>
<path d="M4.66992 9.86988C4.66992 9.86988 4.72992 9.81988 4.72992 9.76988C4.72992 9.71988 4.70992 9.67988 4.70992 9.62988C4.73992 9.69988 4.76992 9.75988 4.76992 9.83988C4.78992 9.83988 4.80992 9.84988 4.83992 9.84988C4.78992 9.84988 4.74992 9.86988 4.66992 9.86988Z" fill="#3D3D3D"/>
<path d="M0.52002 8.62988C0.52002 8.62988 0.57002 8.68988 0.63002 8.68988C0.68002 8.68988 0.72002 8.66988 0.77002 8.66988C0.70002 8.69988 0.63002 8.72988 0.56002 8.72988C0.56002 8.74988 0.550018 8.76988 0.550018 8.79988C0.550018 8.74988 0.530014 8.70988 0.530014 8.62988H0.52002Z" fill="#3D3D3D"/>
<path d="M4.97998 9.84999C4.97998 9.84999 4.97998 9.76999 4.97998 9.73999C4.98998 9.74999 5.00998 9.80999 5.00998 9.82999C5.00998 9.83999 4.99998 9.84999 4.97998 9.84999Z" fill="#3D3D3D"/>
<path d="M1.72998 9.84992C1.72998 9.84992 1.78998 9.81992 1.79998 9.79992C1.80998 9.77992 1.79998 9.74992 1.81998 9.72992C1.82998 9.69992 1.86998 9.70992 1.89998 9.69992C1.92998 9.69992 1.94998 9.67992 1.97998 9.66992C1.97998 9.68992 1.95998 9.69992 1.93998 9.70992C1.92998 9.70992 1.91998 9.70992 1.90998 9.70992H1.86998C1.86998 9.70992 1.84998 9.76992 1.84998 9.77992C1.84998 9.79992 1.86998 9.80992 1.88998 9.81992C1.87998 9.83992 1.77998 9.81992 1.74998 9.81992L1.72998 9.84992Z" fill="#3D3D3D"/>
<path d="M2.08984 9.85C2.08984 9.85 2.09984 9.81 2.10984 9.79C2.10984 9.77 2.10984 9.76 2.12984 9.75C2.12984 9.77 2.12984 9.8 2.12984 9.83C2.12984 9.85 2.12985 9.85 2.09985 9.85H2.08984Z" fill="#3D3D3D"/>
<path d="M3.27 9.84999C3.27 9.84999 3.27 9.84999 3.28 9.82999C3.28 9.82999 3.28 9.80999 3.28 9.79999C3.28 9.77999 3.28 9.75999 3.28 9.73999C3.28 9.74999 3.28 9.75999 3.28 9.77999C3.28 9.78999 3.28 9.79999 3.29 9.80999C3.29 9.81999 3.29 9.81999 3.29 9.83999C3.29 9.83999 3.29 9.83999 3.27 9.83999C3.27 9.83999 3.26 9.83999 3.25 9.83999L3.27 9.84999Z" fill="#3D3D3D"/>
<path d="M7.19012 2.12988C7.12012 2.12988 7.04012 2.12988 6.97012 2.12988C6.93012 2.12988 6.93012 2.12988 6.91012 2.15988C6.87012 2.20988 6.80012 2.20988 6.74012 2.21988C6.70012 2.22988 6.66012 2.23988 6.62012 2.23988C6.65012 2.26988 6.75012 2.23988 6.79012 2.22988C6.82012 2.22988 6.86011 2.20988 6.89011 2.19988C6.93011 2.16988 6.94012 2.15988 6.99012 2.15988C7.03012 2.15988 7.06012 2.15988 7.11012 2.15988C7.12012 2.15988 7.14012 2.15988 7.16012 2.15988C7.18012 2.15988 7.18012 2.16988 7.20012 2.17988C7.20012 2.16988 7.20012 2.15988 7.20012 2.13988L7.19012 2.12988Z" fill="#3D3D3D"/>
<path d="M7.17976 7.33008C7.10976 7.33008 7.02976 7.33008 6.95976 7.33008C6.91976 7.33008 6.90977 7.36008 6.87977 7.38008C6.84977 7.40008 6.79977 7.41008 6.75977 7.41008C6.79977 7.41008 6.83977 7.41008 6.87977 7.40008C6.91977 7.37008 6.92977 7.36008 6.97977 7.36008C7.04977 7.35008 7.09976 7.36008 7.13976 7.43008C7.15976 7.47008 7.16977 7.48008 7.16977 7.52008C7.16977 7.49008 7.17977 7.46008 7.18977 7.43008C7.18977 7.40008 7.18977 7.37008 7.18977 7.34008L7.17976 7.33008Z" fill="#3D3D3D"/>
<path d="M7.17979 2.37988C7.17979 2.37988 7.06979 2.37988 7.02979 2.38988C7.05979 2.38988 7.07979 2.38988 7.10979 2.38988C7.11979 2.38988 7.12979 2.39988 7.14979 2.40988C7.17979 2.40988 7.19979 2.40988 7.18979 2.37988H7.17979Z" fill="#3D3D3D"/>
<path d="M7.18002 1.93993C7.18002 1.93993 7.05002 2.01993 7.02002 2.00993C7.05002 1.97993 7.09002 1.97993 7.12002 1.95993C7.14002 1.94993 7.16002 1.92993 7.19002 1.92993H7.18002V1.93993Z" fill="#3D3D3D"/>
<path d="M0.52002 3.14989C0.52002 3.14989 0.560017 3.17989 0.580017 3.18989C0.600017 3.19989 0.650021 3.19989 0.670021 3.19989C0.760021 3.19989 0.820017 3.17989 0.900017 3.15989C0.840017 3.20989 0.780014 3.21989 0.710014 3.21989C0.650014 3.21989 0.55002 3.21989 0.52002 3.13989V3.14989Z" fill="#3D3D3D"/>
<path d="M0.539842 3.01998C0.539842 2.93998 0.669845 2.94998 0.729845 2.92998C0.689845 2.91998 0.619843 2.92998 0.579843 2.92998C0.499843 2.92998 0.529844 2.95998 0.549844 3.00998L0.539842 3.01998Z" fill="#3D3D3D"/>
<path d="M0.549805 6.60997C0.549805 6.53997 0.659806 6.56997 0.699806 6.56997C0.739806 6.56997 0.739804 6.54997 0.759804 6.51997C0.769804 6.49997 0.789805 6.47997 0.799805 6.46997C0.759805 6.49997 0.769805 6.56997 0.729805 6.58997C0.679805 6.61997 0.599807 6.56997 0.559807 6.61997C0.559807 6.61997 0.559807 6.59997 0.559807 6.60997H0.549805Z" fill="#3D3D3D"/>
<path d="M0.539887 5.07006C0.539887 5.07006 0.539887 5.11006 0.539887 5.12006C0.539887 5.12006 0.569886 5.15006 0.569886 5.16006C0.569886 5.19006 0.529885 5.20006 0.529885 5.23006C0.529885 5.19006 0.509885 5.10006 0.529885 5.06006L0.539887 5.07006Z" fill="#3D3D3D"/>
<path d="M0.549789 5.25C0.549789 5.25 0.589787 5.27 0.609787 5.27C0.639787 5.27 0.63979 5.27 0.65979 5.29C0.69979 5.32 0.709786 5.27 0.749786 5.27C0.729786 5.29 0.709789 5.29 0.689789 5.3C0.659789 5.31 0.659786 5.3 0.639786 5.29C0.629786 5.29 0.589786 5.29 0.569786 5.29C0.549786 5.29 0.549789 5.34 0.549789 5.36C0.549789 5.39 0.579792 5.39 0.599792 5.4C0.589792 5.4 0.559792 5.4 0.559792 5.4C0.559792 5.4 0.559787 5.4 0.539787 5.4C0.539787 5.4 0.529785 5.37 0.529785 5.36C0.529785 5.32 0.529789 5.29 0.549789 5.26V5.25Z" fill="#3D3D3D"/>
<path d="M0.540016 6.46991C0.540016 6.46991 0.620015 6.46991 0.640015 6.42991C0.630015 6.42991 0.610019 6.42991 0.590019 6.42991C0.560019 6.42991 0.54002 6.41991 0.52002 6.40991C0.52002 6.42991 0.52002 6.44991 0.52002 6.45991H0.530014C0.530014 6.45991 0.530014 6.46991 0.530014 6.47991L0.540016 6.46991Z" fill="#3D3D3D"/>
<path d="M1.33008 2.68994C1.33008 2.68994 1.33008 2.68994 1.33008 2.69994C1.33008 2.69994 1.33008 2.69994 1.34008 2.68994H1.33008Z" fill="white"/>
<path d="M1.27998 1.10009H1.67998V1.17009C1.67998 1.17009 1.65998 1.19009 1.63998 1.20009C1.61998 1.21009 1.58998 1.22009 1.56998 1.22009C1.53998 1.22009 1.49998 1.22009 1.43998 1.20009V1.36009C1.45998 1.36009 1.47998 1.36009 1.49998 1.36009C1.56998 1.36009 1.61998 1.38009 1.65998 1.42009C1.66998 1.43009 1.67998 1.45009 1.69998 1.47009C1.70998 1.49009 1.71998 1.52009 1.72998 1.56009C1.73998 1.60009 1.74998 1.65009 1.74998 1.69009V1.71009C1.74998 1.71009 1.73998 1.80009 1.70998 1.86009C1.69998 1.88009 1.67998 1.90009 1.65998 1.92009C1.60998 1.96009 1.55998 1.99009 1.49998 1.99009C1.41998 1.99009 1.36998 1.98009 1.32998 1.96009C1.30998 1.96009 1.29998 1.94009 1.28998 1.93009C1.27998 1.92009 1.26998 1.90009 1.25998 1.89009C1.23998 1.85009 1.22998 1.80009 1.22998 1.74009H1.40998C1.40998 1.78009 1.40998 1.82009 1.42998 1.84009C1.43998 1.86009 1.44998 1.86009 1.46998 1.86009C1.49998 1.86009 1.50998 1.84009 1.51998 1.80009C1.51998 1.77009 1.52998 1.74009 1.52998 1.71009C1.52998 1.63009 1.52998 1.59009 1.49998 1.56009C1.47998 1.54009 1.43998 1.53009 1.38998 1.53009C1.34998 1.53009 1.30998 1.53009 1.26998 1.54009C1.26998 1.51009 1.26998 1.36009 1.28998 1.09009L1.27998 1.10009Z" fill="#3D3D3D"/>
<path d="M6.4202 9.26988H6.0202V9.19988C6.0202 9.19988 6.0402 9.17988 6.0602 9.16988C6.0802 9.15988 6.1102 9.14988 6.1302 9.14988C6.1602 9.14988 6.20019 9.14988 6.26019 9.16988V9.00988C6.24019 9.00988 6.2202 9.00988 6.2002 9.00988C6.1302 9.00988 6.08019 8.98988 6.04019 8.94988C6.03019 8.93988 6.02019 8.91988 6.00019 8.89988C5.99019 8.87988 5.98019 8.84988 5.97019 8.80988C5.96019 8.76988 5.9502 8.71988 5.9502 8.67988V8.65988C5.9502 8.65988 5.9602 8.56988 5.9902 8.50988C6.0002 8.48988 6.02019 8.46988 6.04019 8.44988C6.09019 8.40988 6.1402 8.37988 6.2002 8.37988C6.2802 8.37988 6.33019 8.38988 6.37019 8.40988C6.39019 8.40988 6.40019 8.42988 6.41019 8.43988C6.42019 8.44988 6.43019 8.46988 6.44019 8.47988C6.46019 8.51988 6.47019 8.56988 6.47019 8.62988H6.29019C6.29019 8.58988 6.2902 8.54988 6.2702 8.52988C6.2602 8.50988 6.25019 8.50988 6.23019 8.50988C6.20019 8.50988 6.19019 8.52988 6.18019 8.56988C6.18019 8.59988 6.1702 8.62988 6.1702 8.65988C6.1702 8.73988 6.1702 8.77988 6.2002 8.80988C6.2202 8.82988 6.2602 8.83988 6.3102 8.83988C6.3502 8.83988 6.39019 8.83988 6.43019 8.82988C6.43019 8.85988 6.43019 9.00988 6.41019 9.27988L6.4202 9.26988Z" fill="#3D3D3D"/>
<path d="M4.15 5.09992C4.23 4.89992 4.07001 4.66992 3.85001 4.66992C3.64001 4.66992 3.47 4.88992 3.55 5.09992C3.38 5.09992 3.25 5.24992 3.25 5.41992C3.25 5.54992 3.33 5.66992 3.46 5.71992C3.59 5.76992 3.75 5.71992 3.83 5.60992C3.79 5.73992 3.72 5.87992 3.62 5.96992C3.69 5.93992 3.78 5.92992 3.86 5.92992C3.94 5.92992 4.03001 5.93992 4.10001 5.96992C3.99001 5.87992 3.93 5.73992 3.89 5.60992C3.97 5.72992 4.13 5.76992 4.26 5.71992C4.38 5.66992 4.47 5.54992 4.47 5.41992C4.47 5.24992 4.33001 5.10992 4.17001 5.09992H4.15Z" fill="#3D3D3D"/>
<path d="M3.08994 1.81989C3.16994 1.61989 3.00994 1.38989 2.78994 1.38989C2.57994 1.38989 2.40994 1.60989 2.48994 1.81989C2.31994 1.81989 2.18994 1.96989 2.18994 2.13989C2.18994 2.26989 2.26994 2.38989 2.39994 2.43989C2.52994 2.48989 2.68994 2.43989 2.76994 2.32989C2.72994 2.45989 2.65994 2.59989 2.55994 2.68989C2.62994 2.65989 2.71994 2.64989 2.79994 2.64989C2.87994 2.64989 2.96994 2.65989 3.03994 2.68989C2.92994 2.59989 2.86994 2.45989 2.82994 2.32989C2.90994 2.44989 3.06994 2.48989 3.19994 2.43989C3.31994 2.38989 3.40994 2.26989 3.40994 2.13989C3.40994 1.96989 3.26994 1.82989 3.10994 1.81989H3.08994Z" fill="#3D3D3D"/>
<path d="M3.08994 8.62C3.16994 8.82 3.00994 9.05 2.78994 9.05C2.57994 9.05 2.40994 8.83 2.48994 8.62C2.31994 8.62 2.18994 8.47 2.18994 8.3C2.18994 8.17 2.26994 8.05 2.39994 8C2.52994 7.95 2.68994 8 2.76994 8.11C2.72994 7.98 2.65994 7.84 2.55994 7.75C2.62994 7.78 2.71994 7.79 2.79994 7.79C2.87994 7.79 2.96994 7.78 3.03994 7.75C2.92994 7.84 2.86994 7.98 2.82994 8.11C2.90994 7.99 3.06994 7.95 3.19994 8C3.31994 8.05 3.40994 8.17 3.40994 8.3C3.40994 8.47 3.26994 8.61 3.10994 8.62H3.08994Z" fill="#3D3D3D"/>
<path d="M5.23008 1.81989C5.31008 1.61989 5.15008 1.38989 4.93008 1.38989C4.72008 1.38989 4.55008 1.60989 4.63008 1.81989C4.46008 1.81989 4.33008 1.96989 4.33008 2.13989C4.33008 2.26989 4.41008 2.38989 4.54008 2.43989C4.67008 2.48989 4.83008 2.43989 4.91008 2.32989C4.87008 2.45989 4.80008 2.59989 4.70008 2.68989C4.77008 2.65989 4.86008 2.64989 4.94008 2.64989C5.02008 2.64989 5.11008 2.65989 5.18008 2.68989C5.07008 2.59989 5.01008 2.45989 4.97008 2.32989C5.05008 2.44989 5.21008 2.48989 5.34008 2.43989C5.46008 2.38989 5.55008 2.26989 5.55008 2.13989C5.55008 1.96989 5.41008 1.82989 5.25008 1.81989H5.23008Z" fill="#3D3D3D"/>
<path d="M5.23008 8.62C5.31008 8.82 5.15008 9.05 4.93008 9.05C4.72008 9.05 4.55008 8.83 4.63008 8.62C4.46008 8.62 4.33008 8.47 4.33008 8.3C4.33008 8.17 4.41008 8.05 4.54008 8C4.67008 7.95 4.83008 8 4.91008 8.11C4.87008 7.98 4.80008 7.84 4.70008 7.75C4.77008 7.78 4.86008 7.79 4.94008 7.79C5.02008 7.79 5.11008 7.78 5.18008 7.75C5.07008 7.84 5.01008 7.98 4.97008 8.11C5.05008 7.99 5.21008 7.95 5.34008 8C5.46008 8.05 5.55008 8.17 5.55008 8.3C5.55008 8.47 5.41008 8.61 5.25008 8.62H5.23008Z" fill="#3D3D3D"/>
<path d="M1.6899 2.43994C1.7399 2.31994 1.6399 2.18994 1.5099 2.18994C1.3799 2.18994 1.2899 2.31994 1.3299 2.43994C1.2299 2.43994 1.1499 2.52994 1.1499 2.62994C1.1499 2.70994 1.19991 2.77994 1.26991 2.80994C1.34991 2.83994 1.43991 2.80994 1.48991 2.73994C1.45991 2.81994 1.4299 2.89994 1.3599 2.95994C1.3999 2.93994 1.4499 2.93994 1.4999 2.93994C1.5499 2.93994 1.5999 2.93994 1.6399 2.95994C1.5799 2.90994 1.5399 2.81994 1.5099 2.73994C1.5599 2.80994 1.6499 2.83994 1.7299 2.80994C1.7999 2.77994 1.84991 2.70994 1.84991 2.62994C1.84991 2.52994 1.76991 2.44994 1.66991 2.43994H1.6899Z" fill="#3D3D3D"/>
<path d="M6.03988 7.99998C5.98988 8.11998 6.08988 8.24998 6.21988 8.24998C6.34988 8.24998 6.43988 8.11998 6.39988 7.99998C6.49988 7.99998 6.57988 7.90998 6.57988 7.80998C6.57988 7.72998 6.52988 7.65998 6.45988 7.62998C6.37988 7.59998 6.28988 7.62998 6.23988 7.69998C6.26988 7.61998 6.29988 7.53998 6.36988 7.47998C6.32988 7.49998 6.27988 7.49998 6.22988 7.49998C6.17988 7.49998 6.12988 7.49998 6.08988 7.47998C6.14988 7.52998 6.18988 7.61998 6.21988 7.69998C6.16988 7.62998 6.07988 7.59998 5.99988 7.62998C5.92988 7.65998 5.87988 7.72998 5.87988 7.80998C5.87988 7.90998 5.95988 7.98998 6.05988 7.99998H6.03988Z" fill="#3D3D3D"/>
</svg>
