<svg width="8" height="10" viewBox="0 0 8 10" fill="none" xmlns="http://www.w3.org/2000/svg">
<path d="M7.15981 9.87003H1.10981C0.939806 9.87003 0.799805 9.73003 0.799805 9.56003V0.840029C0.799805 0.670029 0.939806 0.530029 1.10981 0.530029H7.15981C7.32981 0.530029 7.4698 0.670029 7.4698 0.840029V9.56003C7.4698 9.73003 7.32981 9.87003 7.15981 9.87003ZM1.10981 0.540029C0.949806 0.540029 0.819805 0.670029 0.819805 0.830029V9.55003C0.819805 9.71003 0.949806 9.84003 1.10981 9.84003H7.15981C7.31981 9.84003 7.44981 9.71003 7.44981 9.55003V0.840029C7.44981 0.680029 7.31981 0.550029 7.15981 0.550029H1.10981V0.540029Z" fill="#3D3D3D"/>
<path d="M7.16002 9.89H1.11002C0.92002 9.89 0.77002 9.74 0.77002 9.55V0.84C0.77002 0.65 0.92002 0.5 1.11002 0.5H7.16002C7.35002 0.5 7.50002 0.65 7.50002 0.84V9.56C7.50002 9.75 7.35002 9.9 7.16002 9.9V9.89ZM1.11002 0.57C0.96002 0.57 0.850018 0.69 0.850018 0.83V9.55C0.850018 9.7 0.97002 9.81 1.11002 9.81H7.16002C7.31002 9.81 7.42002 9.69 7.42002 9.55V0.84C7.42002 0.69 7.30002 0.58 7.16002 0.58H1.11002V0.57Z" fill="#3D3D3D"/>
<path d="M6.98004 9.65H1.28004C1.15004 9.65 1.04004 9.54 1.04004 9.41V0.99C1.04004 0.86 1.15004 0.75 1.28004 0.75H6.98004C7.11004 0.75 7.22004 0.86 7.22004 0.99V9.41C7.22004 9.54 7.11004 9.65 6.98004 9.65ZM1.28004 0.8C1.17004 0.8 1.09004 0.89 1.09004 0.99V9.41C1.09004 9.52 1.18004 9.6 1.28004 9.6H6.98004C7.09004 9.6 7.17004 9.51 7.17004 9.41V0.99C7.17004 0.88 7.08004 0.8 6.98004 0.8H1.28004Z" fill="#3D3D3D"/>
<path d="M7.46002 4.15996C7.46002 4.15996 7.39002 4.14996 7.37002 4.15996C7.36002 4.15996 7.35002 4.16996 7.34002 4.17996C7.32002 4.18996 7.30002 4.19996 7.27002 4.19996C7.29002 4.19996 7.31001 4.19996 7.32001 4.19996C7.34001 4.19996 7.35002 4.17996 7.37002 4.17996C7.39002 4.17996 7.41002 4.17996 7.42002 4.18996C7.42002 4.18996 7.42002 4.20996 7.44002 4.18996C7.44002 4.18996 7.44002 4.16996 7.44002 4.15996H7.46002Z" fill="#3D3D3D"/>
<path d="M6.08984 0.52002C6.08984 0.52002 6.14984 0.57002 6.14984 0.62002C6.14984 0.67002 6.12984 0.71002 6.12984 0.76002C6.15984 0.69002 6.18984 0.63002 6.18984 0.55002C6.20984 0.55002 6.22984 0.54002 6.25984 0.54002C6.20984 0.54002 6.16984 0.52002 6.08984 0.52002Z" fill="#3D3D3D"/>
<path d="M6.3999 0.540039C6.3999 0.540039 6.3999 0.620039 6.3999 0.650039C6.4099 0.640039 6.4299 0.580039 6.4299 0.560039C6.4299 0.550039 6.4199 0.540039 6.3999 0.540039Z" fill="#3D3D3D"/>
<path d="M3.1499 0.530029C3.1499 0.530029 3.2099 0.560029 3.2199 0.580029C3.2299 0.600029 3.21991 0.630029 3.23991 0.650029C3.24991 0.680029 3.2899 0.670029 3.3199 0.680029C3.3499 0.680029 3.3699 0.700029 3.3999 0.710029C3.3999 0.690029 3.3799 0.680029 3.3599 0.670029C3.3499 0.670029 3.3399 0.670029 3.3299 0.670029H3.2899C3.2899 0.670029 3.26991 0.610029 3.26991 0.600029C3.26991 0.580029 3.28991 0.570029 3.30991 0.560029C3.29991 0.540029 3.19991 0.560029 3.16991 0.560029L3.1499 0.530029Z" fill="#3D3D3D"/>
<path d="M3.51025 0.540039C3.51025 0.540039 3.52026 0.580039 3.53026 0.600039C3.53026 0.620039 3.53025 0.630039 3.55025 0.640039C3.55025 0.620039 3.55025 0.590039 3.55025 0.560039C3.55025 0.540039 3.55026 0.540039 3.52026 0.540039H3.51025Z" fill="#3D3D3D"/>
<path d="M0.810109 0.989961C0.810109 0.989961 0.870111 0.989961 0.910111 0.999961C0.930111 0.999961 0.91011 0.999961 0.94011 0.999961C0.96011 0.999961 0.970109 0.999961 0.990109 0.999961C0.970109 0.999961 0.950109 0.999961 0.920109 0.999961C0.880109 0.999961 0.89011 0.999961 0.87011 0.979961C0.86011 0.979961 0.840111 0.979961 0.820111 0.979961C0.810111 0.979961 0.820109 0.969961 0.810109 0.959961C0.800109 0.959961 0.810109 0.989961 0.810109 0.999961V0.989961Z" fill="#3D3D3D"/>
<path d="M0.810109 9.15988C0.810109 9.15988 0.870111 9.15988 0.910111 9.16988C0.930111 9.16988 0.91011 9.16988 0.94011 9.16988C0.96011 9.16988 0.970109 9.16988 0.990109 9.16988C0.970109 9.16988 0.950109 9.16988 0.920109 9.16988C0.880109 9.16988 0.89011 9.16988 0.87011 9.14988C0.86011 9.14988 0.840111 9.14988 0.820111 9.14988C0.810111 9.14988 0.820109 9.13988 0.810109 9.12988C0.800109 9.12988 0.810109 9.15988 0.810109 9.16988V9.15988Z" fill="#3D3D3D"/>
<path d="M0.820208 0.750051H0.900206C0.910206 0.730051 0.850207 0.740051 0.850207 0.720051C0.850207 0.710051 0.870209 0.690051 0.860209 0.680051C0.860209 0.650051 0.800206 0.710051 0.810206 0.740051L0.820208 0.750051Z" fill="#3D3D3D"/>
<path d="M4.68992 0.530029C4.68992 0.530029 4.68992 0.530029 4.69992 0.550029C4.69992 0.550029 4.69992 0.570029 4.69992 0.580029C4.69992 0.600029 4.69992 0.620029 4.69992 0.640029C4.69992 0.630029 4.69992 0.620029 4.69992 0.600029C4.69992 0.590029 4.69992 0.580029 4.70992 0.570029C4.70992 0.560029 4.70992 0.560029 4.70992 0.540029C4.70992 0.540029 4.70992 0.540029 4.68992 0.540029C4.68992 0.540029 4.67992 0.540029 4.66992 0.540029L4.68992 0.530029Z" fill="#3D3D3D"/>
<path d="M4.93994 9.86988C4.93994 9.86988 4.99994 9.81988 4.99994 9.76988C4.99994 9.71988 4.97994 9.67988 4.97994 9.62988C5.00994 9.69988 5.03994 9.75988 5.03994 9.83988C5.05994 9.83988 5.07994 9.84988 5.10994 9.84988C5.05994 9.84988 5.01994 9.86988 4.93994 9.86988Z" fill="#3D3D3D"/>
<path d="M0.790039 8.62988C0.790039 8.62988 0.840038 8.68988 0.890038 8.68988C0.940038 8.68988 0.980037 8.66988 1.03004 8.66988C0.960037 8.69988 0.890038 8.72988 0.820038 8.72988C0.820038 8.74988 0.810036 8.76988 0.810036 8.79988C0.810036 8.74988 0.790039 8.70988 0.790039 8.62988Z" fill="#3D3D3D"/>
<path d="M5.25 9.84999C5.25 9.84999 5.25 9.76999 5.25 9.73999C5.26 9.74999 5.28001 9.80999 5.28001 9.82999C5.28001 9.83999 5.27 9.84999 5.25 9.84999Z" fill="#3D3D3D"/>
<path d="M2 9.84992C2 9.84992 2.06 9.81992 2.07 9.79992C2.08 9.77992 2.07 9.74992 2.09 9.72992C2.1 9.69992 2.14 9.70992 2.17 9.69992C2.2 9.69992 2.22 9.67992 2.25 9.66992C2.25 9.68992 2.23 9.69992 2.21 9.70992C2.2 9.70992 2.19 9.70992 2.18 9.70992H2.14C2.14 9.70992 2.12 9.76992 2.12 9.77992C2.12 9.79992 2.14 9.80992 2.16 9.81992C2.15 9.83992 2.05 9.81992 2.02 9.81992L2 9.84992Z" fill="#3D3D3D"/>
<path d="M2.35986 9.85C2.35986 9.85 2.36987 9.81 2.37987 9.79C2.37987 9.77 2.37986 9.76 2.39986 9.75C2.39986 9.77 2.39986 9.8 2.39986 9.83C2.39986 9.85 2.39987 9.85 2.36987 9.85H2.35986Z" fill="#3D3D3D"/>
<path d="M3.54002 9.84999C3.54002 9.84999 3.54002 9.84999 3.55002 9.82999C3.55002 9.82999 3.55002 9.80999 3.55002 9.79999C3.55002 9.77999 3.55002 9.75999 3.55002 9.73999C3.55002 9.74999 3.55002 9.75999 3.55002 9.77999C3.55002 9.78999 3.55002 9.79999 3.56002 9.80999C3.56002 9.81999 3.56002 9.81999 3.56002 9.83999C3.56002 9.83999 3.56002 9.83999 3.54002 9.83999C3.54002 9.83999 3.53002 9.83999 3.52002 9.83999L3.54002 9.84999Z" fill="#3D3D3D"/>
<path d="M7.46014 2.12988C7.39014 2.12988 7.31014 2.12988 7.24014 2.12988C7.20014 2.12988 7.20014 2.12988 7.18014 2.15988C7.14014 2.20988 7.07014 2.20988 7.01014 2.21988C6.97014 2.22988 6.93014 2.23988 6.89014 2.23988C6.92014 2.26988 7.02014 2.23988 7.06014 2.22988C7.09014 2.22988 7.13014 2.20988 7.16014 2.19988C7.20014 2.16988 7.21014 2.15988 7.26014 2.15988C7.30014 2.15988 7.33014 2.15988 7.38014 2.15988C7.39014 2.15988 7.41014 2.15988 7.43014 2.15988C7.45014 2.15988 7.45014 2.16988 7.47014 2.17988C7.47014 2.16988 7.47014 2.15988 7.47014 2.13988L7.46014 2.12988Z" fill="#3D3D3D"/>
<path d="M7.44978 7.33008C7.37978 7.33008 7.29978 7.33008 7.22978 7.33008C7.18978 7.33008 7.17978 7.36008 7.14978 7.38008C7.11978 7.40008 7.06979 7.41008 7.02979 7.41008C7.06979 7.41008 7.10978 7.41008 7.14978 7.40008C7.18978 7.37008 7.19978 7.36008 7.24978 7.36008C7.31978 7.35008 7.36978 7.36008 7.40978 7.43008C7.42978 7.47008 7.43978 7.48008 7.43978 7.52008C7.43978 7.49008 7.44979 7.46008 7.45979 7.43008C7.45979 7.40008 7.45979 7.37008 7.45979 7.34008L7.44978 7.33008Z" fill="#3D3D3D"/>
<path d="M7.44981 2.37988C7.44981 2.37988 7.3398 2.37988 7.2998 2.38988C7.3298 2.38988 7.34981 2.38988 7.37981 2.38988C7.38981 2.38988 7.39981 2.39988 7.41981 2.40988C7.44981 2.40988 7.46981 2.40988 7.45981 2.37988H7.44981Z" fill="#3D3D3D"/>
<path d="M7.45004 1.93993C7.45004 1.93993 7.32004 2.01993 7.29004 2.00993C7.32004 1.97993 7.36004 1.97993 7.39004 1.95993C7.41004 1.94993 7.43004 1.92993 7.46004 1.92993H7.45004V1.93993Z" fill="#3D3D3D"/>
<path d="M0.790039 3.14989C0.790039 3.14989 0.830037 3.17989 0.850037 3.18989C0.870037 3.19989 0.920037 3.19989 0.940037 3.19989C1.03004 3.19989 1.09004 3.17989 1.17004 3.15989C1.11004 3.20989 1.05004 3.21989 0.980038 3.21989C0.920038 3.21989 0.820039 3.21989 0.790039 3.13989V3.14989Z" fill="#3D3D3D"/>
<path d="M0.809862 3.01998C0.809862 2.93998 0.939864 2.94998 0.999864 2.92998C0.959864 2.91998 0.889863 2.92998 0.849863 2.92998C0.769863 2.92998 0.799864 2.95998 0.819864 3.00998L0.809862 3.01998Z" fill="#3D3D3D"/>
<path d="M0.819824 6.60997C0.819824 6.53997 0.929822 6.56997 0.969822 6.56997C1.00982 6.56997 1.00982 6.54997 1.02982 6.51997C1.03982 6.49997 1.05982 6.47997 1.06982 6.46997C1.02982 6.49997 1.03982 6.56997 0.999825 6.58997C0.949825 6.61997 0.869823 6.56997 0.829823 6.61997C0.829823 6.61997 0.829823 6.59997 0.829823 6.60997H0.819824Z" fill="#3D3D3D"/>
<path d="M0.809903 5.07006C0.809903 5.07006 0.809903 5.11006 0.809903 5.12006C0.809903 5.12006 0.839905 5.15006 0.839905 5.16006C0.839905 5.19006 0.799905 5.20006 0.799905 5.23006C0.799905 5.19006 0.779905 5.10006 0.799905 5.06006L0.809903 5.07006Z" fill="#3D3D3D"/>
<path d="M0.819805 5.25C0.819805 5.25 0.859807 5.27 0.879807 5.27C0.909807 5.27 0.909806 5.27 0.929806 5.29C0.969806 5.32 0.979806 5.27 1.01981 5.27C0.999806 5.29 0.979805 5.29 0.959805 5.3C0.929805 5.31 0.929805 5.3 0.909805 5.29C0.899805 5.29 0.859806 5.29 0.839806 5.29C0.819806 5.29 0.819805 5.34 0.819805 5.36C0.819805 5.39 0.849804 5.39 0.869804 5.4C0.859804 5.4 0.829803 5.4 0.829803 5.4C0.829803 5.4 0.829803 5.4 0.809803 5.4C0.809803 5.4 0.799805 5.37 0.799805 5.36C0.799805 5.32 0.799805 5.29 0.819805 5.26V5.25Z" fill="#3D3D3D"/>
<path d="M0.809803 6.46991C0.809803 6.46991 0.889804 6.46991 0.919804 6.42991C0.909804 6.42991 0.889804 6.42991 0.869804 6.42991C0.839804 6.42991 0.819805 6.41991 0.799805 6.40991C0.799805 6.42991 0.799805 6.44991 0.799805 6.45991H0.809803C0.809803 6.45991 0.809803 6.46991 0.809803 6.47991V6.46991Z" fill="#3D3D3D"/>
<path d="M1.6001 2.68994C1.6001 2.68994 1.6001 2.68994 1.6001 2.69994C1.6001 2.69994 1.6001 2.69994 1.6101 2.68994H1.6001Z" fill="white"/>
<path d="M1.76017 1.08008H1.78017C1.78017 1.08008 1.85017 1.08008 1.89017 1.11008C1.91017 1.12008 1.93017 1.14008 1.94017 1.15008C1.96017 1.17008 1.97018 1.18008 1.98018 1.20008C1.99018 1.22008 2.00017 1.24008 2.01017 1.26008C2.01017 1.28008 2.01017 1.30008 2.01017 1.31008H1.83017C1.83017 1.31008 1.83017 1.31008 1.83017 1.29008C1.83017 1.24008 1.80017 1.22008 1.78017 1.22008C1.78017 1.22008 1.74018 1.24008 1.73018 1.28008C1.72018 1.32008 1.71017 1.37008 1.71017 1.44008C1.71017 1.44008 1.78017 1.40008 1.83017 1.40008C1.89017 1.40008 1.94018 1.43008 1.98018 1.50008C1.99018 1.52008 2.00017 1.54008 2.01017 1.58008C2.02017 1.63008 2.03017 1.67008 2.03017 1.71008V1.74008C2.03017 1.81008 2.01018 1.87008 1.98018 1.91008C1.94018 1.96008 1.87017 1.98008 1.78017 1.98008C1.64017 1.98008 1.56018 1.91008 1.52018 1.78008C1.51018 1.74008 1.50018 1.67008 1.50018 1.59008C1.50018 1.59008 1.50018 1.56008 1.48018 1.54008C1.48018 1.54008 1.46018 1.52008 1.45018 1.52008C1.45018 1.52008 1.44018 1.52008 1.43018 1.52008C1.43018 1.52008 1.47018 1.50008 1.48018 1.49008C1.50018 1.47008 1.50018 1.45008 1.50018 1.41008C1.50018 1.33008 1.52018 1.27008 1.52018 1.25008C1.52018 1.22008 1.54017 1.20008 1.55017 1.18008C1.56017 1.16008 1.58017 1.14008 1.60017 1.13008C1.63017 1.11008 1.66017 1.09008 1.71017 1.08008C1.73017 1.08008 1.75017 1.08008 1.76017 1.08008ZM1.71017 1.69008C1.71017 1.78008 1.71017 1.82008 1.71017 1.83008C1.71017 1.87008 1.74017 1.88008 1.76017 1.88008C1.78017 1.88008 1.80017 1.87008 1.81017 1.84008C1.81017 1.81008 1.82018 1.76008 1.82018 1.69008C1.82018 1.63008 1.82017 1.59008 1.80017 1.57008C1.80017 1.57008 1.78018 1.56008 1.77018 1.56008C1.77018 1.56008 1.73017 1.57008 1.72017 1.60008C1.72017 1.62008 1.72017 1.65008 1.72017 1.69008H1.71017Z" fill="#3D3D3D"/>
<path d="M6.45995 9.28988H6.43994C6.43994 9.28988 6.36994 9.28988 6.32994 9.25988C6.30994 9.24988 6.28995 9.22988 6.27995 9.21988C6.25995 9.19988 6.24994 9.18988 6.23994 9.16988C6.22994 9.14988 6.21995 9.12988 6.20995 9.10988C6.20995 9.08988 6.20995 9.06988 6.20995 9.05988H6.38994C6.38994 9.05988 6.38994 9.05988 6.38994 9.07988C6.38994 9.12988 6.41994 9.14988 6.43994 9.14988C6.43994 9.14988 6.47994 9.12988 6.48994 9.08988C6.49994 9.04988 6.50994 8.99988 6.50994 8.91988C6.50994 8.91988 6.43994 8.95988 6.38994 8.95988C6.32994 8.95988 6.27994 8.92988 6.23994 8.85988C6.22994 8.83988 6.21995 8.81988 6.20995 8.77988C6.19995 8.72988 6.18994 8.68988 6.18994 8.64988V8.61988C6.18994 8.54988 6.20994 8.48988 6.23994 8.44988C6.27994 8.39988 6.34994 8.37988 6.43994 8.37988C6.57994 8.37988 6.65994 8.44988 6.69994 8.57988C6.70994 8.61988 6.71994 8.68988 6.71994 8.76988C6.71994 8.76988 6.71994 8.79988 6.73994 8.81988C6.73994 8.81988 6.75994 8.83988 6.76994 8.83988C6.76994 8.83988 6.77994 8.83988 6.78994 8.83988C6.78994 8.83988 6.74994 8.85988 6.73994 8.86988C6.71994 8.88988 6.71994 8.90988 6.71994 8.94988C6.71994 9.02988 6.69994 9.08988 6.69994 9.10988C6.69994 9.13988 6.67994 9.15988 6.66994 9.17988C6.65994 9.19988 6.63994 9.21988 6.61994 9.22988C6.58994 9.24988 6.55994 9.26988 6.50994 9.27988C6.48994 9.27988 6.46995 9.27988 6.45995 9.27988V9.28988ZM6.50994 8.67988C6.50994 8.58988 6.50994 8.54988 6.50994 8.53988C6.50994 8.49988 6.47995 8.48988 6.45995 8.48988C6.43995 8.48988 6.41994 8.49988 6.40994 8.52988C6.40994 8.55988 6.39994 8.60988 6.39994 8.67988C6.39994 8.73988 6.39994 8.77988 6.41994 8.79988C6.41994 8.79988 6.43994 8.80988 6.44994 8.80988C6.44994 8.80988 6.48994 8.79988 6.49994 8.76988C6.49994 8.74988 6.49994 8.71988 6.49994 8.67988H6.50994Z" fill="#3D3D3D"/>
<path d="M3.35995 1.81989C3.43995 1.61989 3.27996 1.38989 3.05996 1.38989C2.84996 1.38989 2.67996 1.60989 2.75996 1.81989C2.58996 1.81989 2.45996 1.96989 2.45996 2.13989C2.45996 2.26989 2.53996 2.38989 2.66996 2.43989C2.79996 2.48989 2.95996 2.43989 3.03996 2.32989C2.99996 2.45989 2.92996 2.59989 2.82996 2.68989C2.89996 2.65989 2.98995 2.64989 3.06995 2.64989C3.14995 2.64989 3.23996 2.65989 3.30996 2.68989C3.19996 2.59989 3.13996 2.45989 3.09996 2.32989C3.17996 2.44989 3.33996 2.48989 3.46996 2.43989C3.58996 2.38989 3.67995 2.26989 3.67995 2.13989C3.67995 1.96989 3.53996 1.82989 3.37996 1.81989H3.35995Z" fill="#3D3D3D"/>
<path d="M3.35995 8.62C3.43995 8.82 3.27996 9.05 3.05996 9.05C2.84996 9.05 2.67996 8.83 2.75996 8.62C2.58996 8.62 2.45996 8.47 2.45996 8.3C2.45996 8.17 2.53996 8.05 2.66996 8C2.79996 7.95 2.95996 8 3.03996 8.11C2.99996 7.98 2.92996 7.84 2.82996 7.75C2.89996 7.78 2.98995 7.79 3.06995 7.79C3.14995 7.79 3.23996 7.78 3.30996 7.75C3.19996 7.84 3.13996 7.98 3.09996 8.11C3.17996 7.99 3.33996 7.95 3.46996 8C3.58996 8.05 3.67995 8.17 3.67995 8.3C3.67995 8.47 3.53996 8.61 3.37996 8.62H3.35995Z" fill="#3D3D3D"/>
<path d="M5.50009 1.81989C5.58009 1.61989 5.4201 1.38989 5.2001 1.38989C4.9901 1.38989 4.82009 1.60989 4.90009 1.81989C4.73009 1.81989 4.6001 1.96989 4.6001 2.13989C4.6001 2.26989 4.6801 2.38989 4.8101 2.43989C4.9401 2.48989 5.10009 2.43989 5.18009 2.32989C5.14009 2.45989 5.07009 2.59989 4.97009 2.68989C5.04009 2.65989 5.1301 2.64989 5.2101 2.64989C5.2901 2.64989 5.3801 2.65989 5.4501 2.68989C5.3401 2.59989 5.2801 2.45989 5.2401 2.32989C5.3201 2.44989 5.48009 2.48989 5.61009 2.43989C5.73009 2.38989 5.82009 2.26989 5.82009 2.13989C5.82009 1.96989 5.6801 1.82989 5.5201 1.81989H5.50009Z" fill="#3D3D3D"/>
<path d="M3.35995 5.00007C3.43995 4.80007 3.27996 4.57007 3.05996 4.57007C2.84996 4.57007 2.67996 4.79007 2.75996 5.00007C2.58996 5.00007 2.45996 5.15007 2.45996 5.32007C2.45996 5.45007 2.53996 5.57007 2.66996 5.62007C2.79996 5.67007 2.95996 5.62007 3.03996 5.51007C2.99996 5.64007 2.92996 5.78007 2.82996 5.87007C2.89996 5.84007 2.98995 5.83007 3.06995 5.83007C3.14995 5.83007 3.23996 5.84007 3.30996 5.87007C3.19996 5.78007 3.13996 5.64007 3.09996 5.51007C3.17996 5.63007 3.33996 5.67007 3.46996 5.62007C3.58996 5.57007 3.67995 5.45007 3.67995 5.32007C3.67995 5.15007 3.53996 5.01007 3.37996 5.00007H3.35995Z" fill="#3D3D3D"/>
<path d="M5.50009 5.00007C5.58009 4.80007 5.4201 4.57007 5.2001 4.57007C4.9901 4.57007 4.82009 4.79007 4.90009 5.00007C4.73009 5.00007 4.6001 5.15007 4.6001 5.32007C4.6001 5.45007 4.6801 5.57007 4.8101 5.62007C4.9401 5.67007 5.10009 5.62007 5.18009 5.51007C5.14009 5.64007 5.07009 5.78007 4.97009 5.87007C5.04009 5.84007 5.1301 5.83007 5.2101 5.83007C5.2901 5.83007 5.3801 5.84007 5.4501 5.87007C5.3401 5.78007 5.2801 5.64007 5.2401 5.51007C5.3201 5.63007 5.48009 5.67007 5.61009 5.62007C5.73009 5.57007 5.82009 5.45007 5.82009 5.32007C5.82009 5.15007 5.6801 5.01007 5.5201 5.00007H5.50009Z" fill="#3D3D3D"/>
<path d="M5.50009 8.62C5.58009 8.82 5.4201 9.05 5.2001 9.05C4.9901 9.05 4.82009 8.83 4.90009 8.62C4.73009 8.62 4.6001 8.47 4.6001 8.3C4.6001 8.17 4.6801 8.05 4.8101 8C4.9401 7.95 5.10009 8 5.18009 8.11C5.14009 7.98 5.07009 7.84 4.97009 7.75C5.04009 7.78 5.1301 7.79 5.2101 7.79C5.2901 7.79 5.3801 7.78 5.4501 7.75C5.3401 7.84 5.2801 7.98 5.2401 8.11C5.3201 7.99 5.48009 7.95 5.61009 8C5.73009 8.05 5.82009 8.17 5.82009 8.3C5.82009 8.47 5.6801 8.61 5.5201 8.62H5.50009Z" fill="#3D3D3D"/>
<path d="M1.95992 2.43994C2.00992 2.31994 1.90992 2.18994 1.77992 2.18994C1.64992 2.18994 1.55992 2.31994 1.59992 2.43994C1.49992 2.43994 1.41992 2.52994 1.41992 2.62994C1.41992 2.70994 1.46992 2.77994 1.53992 2.80994C1.61992 2.83994 1.70992 2.80994 1.75992 2.73994C1.72992 2.81994 1.69992 2.89994 1.62992 2.95994C1.66992 2.93994 1.71992 2.93994 1.76992 2.93994C1.81992 2.93994 1.86992 2.93994 1.90992 2.95994C1.84992 2.90994 1.80992 2.81994 1.77992 2.73994C1.82992 2.80994 1.91992 2.83994 1.99992 2.80994C2.06992 2.77994 2.11992 2.70994 2.11992 2.62994C2.11992 2.52994 2.03992 2.44994 1.93992 2.43994H1.95992Z" fill="#3D3D3D"/>
<path d="M6.30991 7.99998C6.25991 8.11998 6.35991 8.24998 6.48991 8.24998C6.61991 8.24998 6.70991 8.11998 6.66991 7.99998C6.76991 7.99998 6.84991 7.90998 6.84991 7.80998C6.84991 7.72998 6.7999 7.65998 6.7299 7.62998C6.6499 7.59998 6.5599 7.62998 6.5099 7.69998C6.5399 7.61998 6.5699 7.53998 6.6399 7.47998C6.5999 7.49998 6.5499 7.49998 6.4999 7.49998C6.4499 7.49998 6.3999 7.49998 6.3599 7.47998C6.4199 7.52998 6.45991 7.61998 6.48991 7.69998C6.43991 7.62998 6.34991 7.59998 6.26991 7.62998C6.19991 7.65998 6.1499 7.72998 6.1499 7.80998C6.1499 7.90998 6.2299 7.98998 6.3299 7.99998H6.30991Z" fill="#3D3D3D"/>
</svg>
