<svg width="8" height="10" viewBox="0 0 8 10" fill="none" xmlns="http://www.w3.org/2000/svg">
<path d="M6.69984 9.87003H0.649845C0.479845 9.87003 0.339844 9.73003 0.339844 9.56003V0.840029C0.339844 0.670029 0.479845 0.530029 0.649845 0.530029H6.69984C6.86984 0.530029 7.00985 0.670029 7.00985 0.840029V9.56003C7.00985 9.73003 6.86984 9.87003 6.69984 9.87003ZM0.649845 0.540029C0.489845 0.540029 0.359844 0.670029 0.359844 0.830029V9.55003C0.359844 9.71003 0.489845 9.84003 0.649845 9.84003H6.69984C6.85984 9.84003 6.98985 9.71003 6.98985 9.55003V0.840029C6.98985 0.680029 6.85984 0.550029 6.69984 0.550029H0.649845V0.540029Z" fill="#3D3D3D"/>
<path d="M6.70006 9.89H0.650059C0.460059 9.89 0.310059 9.74 0.310059 9.55V0.84C0.310059 0.65 0.460059 0.5 0.650059 0.5H6.70006C6.89006 0.5 7.04006 0.65 7.04006 0.84V9.56C7.04006 9.75 6.89006 9.9 6.70006 9.9V9.89ZM0.650059 0.57C0.500059 0.57 0.390057 0.69 0.390057 0.83V9.55C0.390057 9.7 0.510059 9.81 0.650059 9.81H6.70006C6.85006 9.81 6.96006 9.69 6.96006 9.55V0.84C6.96006 0.69 6.84006 0.58 6.70006 0.58H0.650059V0.57Z" fill="#3D3D3D"/>
<path d="M6.52008 9.65H0.820076C0.690076 9.65 0.580078 9.54 0.580078 9.41V0.99C0.580078 0.86 0.690076 0.75 0.820076 0.75H6.52008C6.65008 0.75 6.76008 0.86 6.76008 0.99V9.41C6.76008 9.54 6.65008 9.65 6.52008 9.65ZM0.820076 0.8C0.710076 0.8 0.630077 0.89 0.630077 0.99V9.41C0.630077 9.52 0.720076 9.6 0.820076 9.6H6.52008C6.63008 9.6 6.71008 9.51 6.71008 9.41V0.99C6.71008 0.88 6.62008 0.8 6.52008 0.8H0.820076Z" fill="#3D3D3D"/>
<path d="M7.00006 4.15996C7.00006 4.15996 6.93006 4.14996 6.91006 4.15996C6.90006 4.15996 6.89006 4.16996 6.88006 4.17996C6.86006 4.18996 6.84006 4.19996 6.81006 4.19996C6.83006 4.19996 6.85006 4.19996 6.86006 4.19996C6.88006 4.19996 6.89006 4.17996 6.91006 4.17996C6.93006 4.17996 6.95006 4.17996 6.96006 4.18996C6.96006 4.18996 6.96006 4.20996 6.98006 4.18996C6.98006 4.18996 6.98006 4.16996 6.98006 4.15996H7.00006Z" fill="#3D3D3D"/>
<path d="M5.62988 0.52002C5.62988 0.52002 5.68988 0.57002 5.68988 0.62002C5.68988 0.67002 5.66988 0.71002 5.66988 0.76002C5.69988 0.69002 5.72988 0.63002 5.72988 0.55002C5.74988 0.55002 5.76988 0.54002 5.79988 0.54002C5.74988 0.54002 5.70988 0.52002 5.62988 0.52002Z" fill="#3D3D3D"/>
<path d="M5.93994 0.540039C5.93994 0.540039 5.93994 0.620039 5.93994 0.650039C5.94994 0.640039 5.96994 0.580039 5.96994 0.560039C5.96994 0.550039 5.95994 0.540039 5.93994 0.540039Z" fill="#3D3D3D"/>
<path d="M2.68994 0.530029C2.68994 0.530029 2.74994 0.560029 2.75994 0.580029C2.76994 0.600029 2.75994 0.630029 2.77994 0.650029C2.78994 0.680029 2.82994 0.670029 2.85994 0.680029C2.88994 0.680029 2.90994 0.700029 2.93994 0.710029C2.93994 0.690029 2.91994 0.680029 2.89994 0.670029C2.88994 0.670029 2.87994 0.670029 2.86994 0.670029H2.82994C2.82994 0.670029 2.80994 0.610029 2.80994 0.600029C2.80994 0.580029 2.82995 0.570029 2.84995 0.560029C2.83995 0.540029 2.73994 0.560029 2.70994 0.560029L2.68994 0.530029Z" fill="#3D3D3D"/>
<path d="M3.05029 0.540039C3.05029 0.540039 3.06029 0.580039 3.07029 0.600039C3.07029 0.620039 3.07029 0.630039 3.09029 0.640039C3.09029 0.620039 3.09029 0.590039 3.09029 0.560039C3.09029 0.540039 3.0903 0.540039 3.0603 0.540039H3.05029Z" fill="#3D3D3D"/>
<path d="M0.350148 0.989961C0.350148 0.989961 0.410146 0.989961 0.450146 0.999961C0.470146 0.999961 0.450145 0.999961 0.480145 0.999961C0.500145 0.999961 0.510144 0.999961 0.530144 0.999961C0.510144 0.999961 0.490144 0.999961 0.460144 0.999961C0.420144 0.999961 0.430145 0.999961 0.410145 0.979961C0.400145 0.979961 0.380146 0.979961 0.360146 0.979961C0.350146 0.979961 0.360148 0.969961 0.350148 0.959961C0.340148 0.959961 0.350148 0.989961 0.350148 0.999961V0.989961Z" fill="#3D3D3D"/>
<path d="M0.350148 9.15988C0.350148 9.15988 0.410146 9.15988 0.450146 9.16988C0.470146 9.16988 0.450145 9.16988 0.480145 9.16988C0.500145 9.16988 0.510144 9.16988 0.530144 9.16988C0.510144 9.16988 0.490144 9.16988 0.460144 9.16988C0.420144 9.16988 0.430145 9.16988 0.410145 9.14988C0.400145 9.14988 0.380146 9.14988 0.360146 9.14988C0.350146 9.14988 0.360148 9.13988 0.350148 9.12988C0.340148 9.12988 0.350148 9.15988 0.350148 9.16988V9.15988Z" fill="#3D3D3D"/>
<path d="M0.360244 0.750051H0.440242C0.450242 0.730051 0.390242 0.740051 0.390242 0.720051C0.390242 0.710051 0.410245 0.690051 0.400245 0.680051C0.400245 0.650051 0.340245 0.710051 0.350245 0.740051L0.360244 0.750051Z" fill="#3D3D3D"/>
<path d="M4.22996 0.530029C4.22996 0.530029 4.22996 0.530029 4.23996 0.550029C4.23996 0.550029 4.23996 0.570029 4.23996 0.580029C4.23996 0.600029 4.23996 0.620029 4.23996 0.640029C4.23996 0.630029 4.23996 0.620029 4.23996 0.600029C4.23996 0.590029 4.23996 0.580029 4.24996 0.570029C4.24996 0.560029 4.24996 0.560029 4.24996 0.540029C4.24996 0.540029 4.24996 0.540029 4.22996 0.540029C4.22996 0.540029 4.21996 0.540029 4.20996 0.540029L4.22996 0.530029Z" fill="#3D3D3D"/>
<path d="M4.47998 9.86988C4.47998 9.86988 4.53998 9.81988 4.53998 9.76988C4.53998 9.71988 4.51998 9.67988 4.51998 9.62988C4.54998 9.69988 4.57998 9.75988 4.57998 9.83988C4.59998 9.83988 4.61998 9.84988 4.64998 9.84988C4.59998 9.84988 4.55998 9.86988 4.47998 9.86988Z" fill="#3D3D3D"/>
<path d="M0.330078 8.62988C0.330078 8.62988 0.380075 8.68988 0.440075 8.68988C0.490075 8.68988 0.530078 8.66988 0.580078 8.66988C0.510078 8.69988 0.440075 8.72988 0.370075 8.72988C0.370075 8.74988 0.360077 8.76988 0.360077 8.79988C0.360077 8.74988 0.340076 8.70988 0.340076 8.62988H0.330078Z" fill="#3D3D3D"/>
<path d="M4.79004 9.84999C4.79004 9.84999 4.79004 9.76999 4.79004 9.73999C4.80004 9.74999 4.82004 9.80999 4.82004 9.82999C4.82004 9.83999 4.81004 9.84999 4.79004 9.84999Z" fill="#3D3D3D"/>
<path d="M1.54004 9.84992C1.54004 9.84992 1.60004 9.81992 1.61004 9.79992C1.62004 9.77992 1.61004 9.74992 1.63004 9.72992C1.64004 9.69992 1.68004 9.70992 1.71004 9.69992C1.74004 9.69992 1.76004 9.67992 1.79004 9.66992C1.79004 9.68992 1.77004 9.69992 1.75004 9.70992C1.74004 9.70992 1.73004 9.70992 1.72004 9.70992H1.68004C1.68004 9.70992 1.66004 9.76992 1.66004 9.77992C1.66004 9.79992 1.68004 9.80992 1.70004 9.81992C1.69004 9.83992 1.59004 9.81992 1.56004 9.81992L1.54004 9.84992Z" fill="#3D3D3D"/>
<path d="M1.8999 9.85C1.8999 9.85 1.9099 9.81 1.9199 9.79C1.9199 9.77 1.9199 9.76 1.9399 9.75C1.9399 9.77 1.9399 9.8 1.9399 9.83C1.9399 9.85 1.9399 9.85 1.9099 9.85H1.8999Z" fill="#3D3D3D"/>
<path d="M3.08006 9.84999C3.08006 9.84999 3.08006 9.84999 3.09006 9.82999C3.09006 9.82999 3.09006 9.80999 3.09006 9.79999C3.09006 9.77999 3.09006 9.75999 3.09006 9.73999C3.09006 9.74999 3.09006 9.75999 3.09006 9.77999C3.09006 9.78999 3.09006 9.79999 3.10006 9.80999C3.10006 9.81999 3.10006 9.81999 3.10006 9.83999C3.10006 9.83999 3.10006 9.83999 3.08006 9.83999C3.08006 9.83999 3.07006 9.83999 3.06006 9.83999L3.08006 9.84999Z" fill="#3D3D3D"/>
<path d="M7.00018 2.12988C6.93018 2.12988 6.85017 2.12988 6.78017 2.12988C6.74017 2.12988 6.74018 2.12988 6.72018 2.15988C6.68018 2.20988 6.61017 2.20988 6.55017 2.21988C6.51017 2.22988 6.47018 2.23988 6.43018 2.23988C6.46018 2.26988 6.56018 2.23988 6.60018 2.22988C6.63018 2.22988 6.67018 2.20988 6.70018 2.19988C6.74018 2.16988 6.75017 2.15988 6.80017 2.15988C6.84017 2.15988 6.87018 2.15988 6.92018 2.15988C6.93018 2.15988 6.95018 2.15988 6.97018 2.15988C6.99018 2.15988 6.99018 2.16988 7.01018 2.17988C7.01018 2.16988 7.01018 2.15988 7.01018 2.13988L7.00018 2.12988Z" fill="#3D3D3D"/>
<path d="M6.98983 7.33008C6.91983 7.33008 6.83982 7.33008 6.76982 7.33008C6.72982 7.33008 6.71982 7.36008 6.68982 7.38008C6.65982 7.40008 6.60982 7.41008 6.56982 7.41008C6.60982 7.41008 6.64982 7.41008 6.68982 7.40008C6.72982 7.37008 6.73983 7.36008 6.78983 7.36008C6.85983 7.35008 6.90983 7.36008 6.94983 7.43008C6.96983 7.47008 6.97982 7.48008 6.97982 7.52008C6.97982 7.49008 6.98982 7.46008 6.99982 7.43008C6.99982 7.40008 6.99982 7.37008 6.99982 7.34008L6.98983 7.33008Z" fill="#3D3D3D"/>
<path d="M6.98985 2.37988C6.98985 2.37988 6.87984 2.37988 6.83984 2.38988C6.86984 2.38988 6.88985 2.38988 6.91985 2.38988C6.92985 2.38988 6.93984 2.39988 6.95984 2.40988C6.98984 2.40988 7.00984 2.40988 6.99984 2.37988H6.98985Z" fill="#3D3D3D"/>
<path d="M6.99008 1.93993C6.99008 1.93993 6.86008 2.01993 6.83008 2.00993C6.86008 1.97993 6.90008 1.97993 6.93008 1.95993C6.95008 1.94993 6.97008 1.92993 7.00008 1.92993H6.99008V1.93993Z" fill="#3D3D3D"/>
<path d="M0.330078 3.14989C0.330078 3.14989 0.370076 3.17989 0.390076 3.18989C0.410076 3.19989 0.460076 3.19989 0.480076 3.19989C0.570076 3.19989 0.630075 3.17989 0.710075 3.15989C0.650075 3.20989 0.590077 3.21989 0.520077 3.21989C0.460077 3.21989 0.360078 3.21989 0.330078 3.13989V3.14989Z" fill="#3D3D3D"/>
<path d="M0.349905 3.01998C0.349905 2.93998 0.479903 2.94998 0.539903 2.92998C0.499903 2.91998 0.429902 2.92998 0.389902 2.92998C0.309902 2.92998 0.339903 2.95998 0.359903 3.00998L0.349905 3.01998Z" fill="#3D3D3D"/>
<path d="M0.359863 6.60997C0.359863 6.53997 0.469865 6.56997 0.509865 6.56997C0.549865 6.56997 0.549862 6.54997 0.569862 6.51997C0.579862 6.49997 0.599863 6.47997 0.609863 6.46997C0.569863 6.49997 0.579864 6.56997 0.539864 6.58997C0.489864 6.61997 0.409862 6.56997 0.369862 6.61997C0.369862 6.61997 0.369862 6.59997 0.369862 6.60997H0.359863Z" fill="#3D3D3D"/>
<path d="M0.349946 5.07006C0.349946 5.07006 0.349946 5.11006 0.349946 5.12006C0.349946 5.12006 0.379944 5.15006 0.379944 5.16006C0.379944 5.19006 0.339944 5.20006 0.339944 5.23006C0.339944 5.19006 0.319944 5.10006 0.339944 5.06006L0.349946 5.07006Z" fill="#3D3D3D"/>
<path d="M0.359844 5.25C0.359844 5.25 0.399846 5.27 0.419846 5.27C0.449846 5.27 0.449845 5.27 0.469845 5.29C0.509845 5.32 0.519845 5.27 0.559845 5.27C0.539845 5.29 0.519844 5.29 0.499844 5.3C0.469844 5.31 0.469844 5.3 0.449844 5.29C0.439844 5.29 0.399845 5.29 0.379845 5.29C0.359845 5.29 0.359844 5.34 0.359844 5.36C0.359844 5.39 0.389843 5.39 0.409843 5.4C0.399843 5.4 0.369843 5.4 0.369843 5.4C0.369843 5.4 0.369846 5.4 0.349846 5.4C0.349846 5.4 0.339844 5.37 0.339844 5.36C0.339844 5.32 0.339844 5.29 0.359844 5.26V5.25Z" fill="#3D3D3D"/>
<path d="M0.350098 6.46991C0.350098 6.46991 0.430094 6.46991 0.460094 6.42991C0.450094 6.42991 0.430097 6.42991 0.420097 6.42991C0.390097 6.42991 0.370098 6.41991 0.350098 6.40991C0.350098 6.42991 0.350098 6.44991 0.350098 6.45991H0.360096C0.360096 6.45991 0.360096 6.46991 0.360096 6.47991L0.350098 6.46991Z" fill="#3D3D3D"/>
<path d="M1.14014 2.68994C1.14014 2.68994 1.14014 2.68994 1.14014 2.69994C1.14014 2.69994 1.14014 2.69994 1.15014 2.68994H1.14014Z" fill="white"/>
<path d="M1.28025 1.09009H1.30025C1.30025 1.09009 1.40025 1.10009 1.44025 1.12009C1.46025 1.13009 1.48025 1.14009 1.48025 1.15009C1.50025 1.16009 1.51025 1.18009 1.52025 1.19009C1.54025 1.23009 1.55025 1.26009 1.55025 1.30009C1.55025 1.36009 1.53025 1.41009 1.49025 1.46009C1.49025 1.47009 1.47025 1.48009 1.45025 1.49009C1.45025 1.49009 1.43025 1.50009 1.42025 1.51009C1.42025 1.51009 1.45025 1.53009 1.46025 1.53009C1.50025 1.55009 1.53025 1.59009 1.55025 1.64009C1.56025 1.67009 1.57025 1.69009 1.57025 1.71009V1.73009C1.57025 1.73009 1.56025 1.82009 1.53025 1.86009C1.48025 1.94009 1.39025 1.98009 1.29025 1.98009C1.19025 1.98009 1.11025 1.95009 1.06025 1.88009C1.03025 1.83009 1.01025 1.78009 1.01025 1.72009C1.01025 1.64009 1.04025 1.58009 1.10025 1.53009C1.12025 1.52009 1.13025 1.51009 1.14025 1.51009C1.14025 1.51009 1.10025 1.49009 1.08025 1.47009C1.03025 1.43009 1.01025 1.38009 1.01025 1.32009C1.01025 1.25009 1.03025 1.20009 1.08025 1.15009C1.08025 1.15009 1.10025 1.13009 1.12025 1.12009C1.15025 1.11009 1.17025 1.10009 1.20025 1.09009C1.22025 1.09009 1.24025 1.09009 1.26025 1.09009H1.28025ZM1.22025 1.71009C1.22025 1.76009 1.22025 1.81009 1.23025 1.85009C1.23025 1.88009 1.26025 1.89009 1.28025 1.89009C1.31025 1.89009 1.32025 1.88009 1.33025 1.86009C1.33025 1.86009 1.33025 1.82009 1.34025 1.75009V1.72009C1.34025 1.65009 1.33025 1.61009 1.30025 1.59009H1.28025C1.28025 1.59009 1.23025 1.62009 1.22025 1.68009C1.22025 1.68009 1.22025 1.70009 1.22025 1.73009V1.71009ZM1.22025 1.28009V1.33009C1.22025 1.38009 1.23025 1.42009 1.26025 1.43009H1.28025C1.32025 1.43009 1.34025 1.39009 1.34025 1.32009C1.34025 1.29009 1.34025 1.25009 1.32025 1.21009C1.32025 1.19009 1.29025 1.18009 1.27025 1.18009C1.25025 1.18009 1.23025 1.19009 1.22025 1.21009C1.22025 1.22009 1.22025 1.24009 1.22025 1.27009V1.28009Z" fill="#3D3D3D"/>
<path d="M6.06002 9.27989H6.04002C6.04002 9.27989 5.94002 9.26989 5.90002 9.24989C5.88002 9.23989 5.86002 9.22989 5.86002 9.21989C5.84002 9.20989 5.83002 9.18989 5.82002 9.17989C5.80002 9.13989 5.79002 9.10989 5.79002 9.06989C5.79002 9.00989 5.81002 8.95989 5.85002 8.90989C5.85002 8.89989 5.87002 8.88989 5.89002 8.87989C5.89002 8.87989 5.91002 8.86989 5.92002 8.85989C5.92002 8.85989 5.89002 8.83989 5.88002 8.83989C5.84002 8.81989 5.81002 8.77989 5.79002 8.72989C5.78002 8.69989 5.77002 8.67989 5.77002 8.65989V8.63989C5.77002 8.63989 5.78002 8.54989 5.81002 8.50989C5.86002 8.42989 5.95002 8.38989 6.05002 8.38989C6.15002 8.38989 6.23002 8.41989 6.28002 8.48989C6.31002 8.53989 6.33002 8.58989 6.33002 8.64989C6.33002 8.72989 6.30002 8.78989 6.24002 8.83989C6.22002 8.84989 6.21002 8.85989 6.20002 8.85989C6.20002 8.85989 6.24002 8.87989 6.26002 8.89989C6.31002 8.93989 6.33002 8.98989 6.33002 9.04989C6.33002 9.11989 6.31002 9.16989 6.26002 9.21989C6.26002 9.21989 6.24002 9.23989 6.22002 9.24989C6.19002 9.25989 6.17002 9.26989 6.14002 9.27989C6.12002 9.27989 6.10002 9.27989 6.08002 9.27989H6.06002ZM6.11002 9.08989V9.03989C6.11002 8.98989 6.10002 8.94989 6.07002 8.93989H6.05002C6.01002 8.93989 5.99002 8.97989 5.99002 9.04989C5.99002 9.07989 5.99002 9.11989 6.01002 9.15989C6.01002 9.17989 6.04002 9.18989 6.06002 9.18989C6.08002 9.18989 6.10002 9.17989 6.11002 9.15989C6.11002 9.14989 6.11002 9.12989 6.11002 9.09989V9.08989ZM6.12002 8.65989C6.12002 8.60989 6.12002 8.55989 6.11002 8.51989C6.11002 8.48989 6.08002 8.47989 6.06002 8.47989C6.03002 8.47989 6.02002 8.48989 6.01002 8.50989C6.01002 8.50989 6.01002 8.54989 6.00002 8.61989V8.64989C6.00002 8.71989 6.01002 8.75989 6.04002 8.77989H6.06002C6.06002 8.77989 6.11002 8.74989 6.12002 8.68989C6.12002 8.68989 6.12002 8.66989 6.12002 8.63989V8.65989Z" fill="#3D3D3D"/>
<path d="M2.9 1.81989C2.98 1.61989 2.82 1.38989 2.6 1.38989C2.39 1.38989 2.22 1.60989 2.3 1.81989C2.13 1.81989 2 1.96989 2 2.13989C2 2.26989 2.08 2.38989 2.21 2.43989C2.34 2.48989 2.5 2.43989 2.58 2.32989C2.54 2.45989 2.47 2.59989 2.37 2.68989C2.44 2.65989 2.53 2.64989 2.61 2.64989C2.69 2.64989 2.78 2.65989 2.85 2.68989C2.74 2.59989 2.68 2.45989 2.64 2.32989C2.72 2.44989 2.88 2.48989 3.01 2.43989C3.13 2.38989 3.22 2.26989 3.22 2.13989C3.22 1.96989 3.08 1.82989 2.92 1.81989H2.9Z" fill="#3D3D3D"/>
<path d="M2.9 8.62C2.98 8.82 2.82 9.05 2.6 9.05C2.39 9.05 2.22 8.83 2.3 8.62C2.13 8.62 2 8.47 2 8.3C2 8.17 2.08 8.05 2.21 8C2.34 7.95 2.5 8 2.58 8.11C2.54 7.98 2.47 7.84 2.37 7.75C2.44 7.78 2.53 7.79 2.61 7.79C2.69 7.79 2.78 7.78 2.85 7.75C2.74 7.84 2.68 7.98 2.64 8.11C2.72 7.99 2.88 7.95 3.01 8C3.13 8.05 3.22 8.17 3.22 8.3C3.22 8.47 3.08 8.61 2.92 8.62H2.9Z" fill="#3D3D3D"/>
<path d="M5.04014 1.81989C5.12014 1.61989 4.96014 1.38989 4.74014 1.38989C4.53014 1.38989 4.36014 1.60989 4.44014 1.81989C4.27014 1.81989 4.14014 1.96989 4.14014 2.13989C4.14014 2.26989 4.22014 2.38989 4.35014 2.43989C4.48014 2.48989 4.64014 2.43989 4.72014 2.32989C4.68014 2.45989 4.61014 2.59989 4.51014 2.68989C4.58014 2.65989 4.67014 2.64989 4.75014 2.64989C4.83014 2.64989 4.92014 2.65989 4.99014 2.68989C4.88014 2.59989 4.82014 2.45989 4.78014 2.32989C4.86014 2.44989 5.02014 2.48989 5.15014 2.43989C5.27014 2.38989 5.36014 2.26989 5.36014 2.13989C5.36014 1.96989 5.22014 1.82989 5.06014 1.81989H5.04014Z" fill="#3D3D3D"/>
<path d="M2.9 3.94001C2.98 3.74001 2.82 3.51001 2.6 3.51001C2.39 3.51001 2.22 3.73001 2.3 3.94001C2.13 3.94001 2 4.09001 2 4.26001C2 4.39001 2.08 4.51001 2.21 4.56001C2.34 4.61001 2.5 4.56001 2.58 4.45001C2.54 4.58001 2.47 4.72001 2.37 4.81001C2.44 4.78001 2.53 4.77001 2.61 4.77001C2.69 4.77001 2.78 4.78001 2.85 4.81001C2.74 4.72001 2.68 4.58001 2.64 4.45001C2.72 4.57001 2.88 4.61001 3.01 4.56001C3.13 4.51001 3.22 4.39001 3.22 4.26001C3.22 4.09001 3.08 3.95001 2.92 3.94001H2.9Z" fill="#3D3D3D"/>
<path d="M5.04014 3.94001C5.12014 3.74001 4.96014 3.51001 4.74014 3.51001C4.53014 3.51001 4.36014 3.73001 4.44014 3.94001C4.27014 3.94001 4.14014 4.09001 4.14014 4.26001C4.14014 4.39001 4.22014 4.51001 4.35014 4.56001C4.48014 4.61001 4.64014 4.56001 4.72014 4.45001C4.68014 4.58001 4.61014 4.72001 4.51014 4.81001C4.58014 4.78001 4.67014 4.77001 4.75014 4.77001C4.83014 4.77001 4.92014 4.78001 4.99014 4.81001C4.88014 4.72001 4.82014 4.58001 4.78014 4.45001C4.86014 4.57001 5.02014 4.61001 5.15014 4.56001C5.27014 4.51001 5.36014 4.39001 5.36014 4.26001C5.36014 4.09001 5.22014 3.95001 5.06014 3.94001H5.04014Z" fill="#3D3D3D"/>
<path d="M5.04014 8.62C5.12014 8.82 4.96014 9.05 4.74014 9.05C4.53014 9.05 4.36014 8.83 4.44014 8.62C4.27014 8.62 4.14014 8.47 4.14014 8.3C4.14014 8.17 4.22014 8.05 4.35014 8C4.48014 7.95 4.64014 8 4.72014 8.11C4.68014 7.98 4.61014 7.84 4.51014 7.75C4.58014 7.78 4.67014 7.79 4.75014 7.79C4.83014 7.79 4.92014 7.78 4.99014 7.75C4.88014 7.84 4.82014 7.98 4.78014 8.11C4.86014 7.99 5.02014 7.95 5.15014 8C5.27014 8.05 5.36014 8.17 5.36014 8.3C5.36014 8.47 5.22014 8.61 5.06014 8.62H5.04014Z" fill="#3D3D3D"/>
<path d="M2.9 6.49988C2.98 6.69988 2.82 6.92988 2.6 6.92988C2.39 6.92988 2.22 6.70988 2.3 6.49988C2.13 6.49988 2 6.34988 2 6.17988C2 6.04988 2.08 5.92988 2.21 5.87988C2.34 5.82988 2.5 5.87988 2.58 5.98988C2.54 5.85988 2.47 5.71988 2.37 5.62988C2.44 5.65988 2.53 5.66988 2.61 5.66988C2.69 5.66988 2.78 5.65988 2.85 5.62988C2.74 5.71988 2.68 5.85988 2.64 5.98988C2.72 5.86988 2.88 5.82988 3.01 5.87988C3.13 5.92988 3.22 6.04988 3.22 6.17988C3.22 6.34988 3.08 6.48988 2.92 6.49988H2.9Z" fill="#3D3D3D"/>
<path d="M5.04014 6.49988C5.12014 6.69988 4.96014 6.92988 4.74014 6.92988C4.53014 6.92988 4.36014 6.70988 4.44014 6.49988C4.27014 6.49988 4.14014 6.34988 4.14014 6.17988C4.14014 6.04988 4.22014 5.92988 4.35014 5.87988C4.48014 5.82988 4.64014 5.87988 4.72014 5.98988C4.68014 5.85988 4.61014 5.71988 4.51014 5.62988C4.58014 5.65988 4.67014 5.66988 4.75014 5.66988C4.83014 5.66988 4.92014 5.65988 4.99014 5.62988C4.88014 5.71988 4.82014 5.85988 4.78014 5.98988C4.86014 5.86988 5.02014 5.82988 5.15014 5.87988C5.27014 5.92988 5.36014 6.04988 5.36014 6.17988C5.36014 6.34988 5.22014 6.48988 5.06014 6.49988H5.04014Z" fill="#3D3D3D"/>
<path d="M1.49996 2.43994C1.54996 2.31994 1.44996 2.18994 1.31996 2.18994C1.18996 2.18994 1.09996 2.31994 1.13996 2.43994C1.03996 2.43994 0.959961 2.52994 0.959961 2.62994C0.959961 2.70994 1.00996 2.77994 1.07996 2.80994C1.15996 2.83994 1.24996 2.80994 1.29996 2.73994C1.26996 2.81994 1.23996 2.89994 1.16996 2.95994C1.20996 2.93994 1.25996 2.93994 1.30996 2.93994C1.35996 2.93994 1.40996 2.93994 1.44996 2.95994C1.38996 2.90994 1.34996 2.81994 1.31996 2.73994C1.36996 2.80994 1.45996 2.83994 1.53996 2.80994C1.60996 2.77994 1.65996 2.70994 1.65996 2.62994C1.65996 2.52994 1.57996 2.44994 1.47996 2.43994H1.49996Z" fill="#3D3D3D"/>
<path d="M5.84995 7.99998C5.79995 8.11998 5.89994 8.24998 6.02994 8.24998C6.15994 8.24998 6.24994 8.11998 6.20994 7.99998C6.30994 7.99998 6.38994 7.90998 6.38994 7.80998C6.38994 7.72998 6.33994 7.65998 6.26994 7.62998C6.18994 7.59998 6.09994 7.62998 6.04994 7.69998C6.07994 7.61998 6.10994 7.53998 6.17994 7.47998C6.13994 7.49998 6.08994 7.49998 6.03994 7.49998C5.98994 7.49998 5.93994 7.49998 5.89994 7.47998C5.95994 7.52998 5.99994 7.61998 6.02994 7.69998C5.97994 7.62998 5.88994 7.59998 5.80994 7.62998C5.73994 7.65998 5.68994 7.72998 5.68994 7.80998C5.68994 7.90998 5.76994 7.98998 5.86994 7.99998H5.84995Z" fill="#3D3D3D"/>
</svg>
