<svg width="8" height="10" viewBox="0 0 8 10" fill="none" xmlns="http://www.w3.org/2000/svg">
<path d="M6.96986 9.87003H0.919865C0.749865 9.87003 0.609863 9.73003 0.609863 9.56003V0.840029C0.609863 0.670029 0.749865 0.530029 0.919865 0.530029H6.96986C7.13986 0.530029 7.27987 0.670029 7.27987 0.840029V9.56003C7.27987 9.73003 7.13986 9.87003 6.96986 9.87003ZM0.919865 0.540029C0.759865 0.540029 0.629864 0.670029 0.629864 0.830029V9.55003C0.629864 9.71003 0.759865 9.84003 0.919865 9.84003H6.96986C7.12986 9.84003 7.25986 9.71003 7.25986 9.55003V0.840029C7.25986 0.680029 7.12986 0.550029 6.96986 0.550029H0.919865V0.540029Z" fill="#3D3D3D"/>
<path d="M6.97008 9.89H0.920078C0.730078 9.89 0.580078 9.74 0.580078 9.55V0.84C0.580078 0.65 0.730078 0.5 0.920078 0.5H6.97008C7.16008 0.5 7.31008 0.65 7.31008 0.84V9.56C7.31008 9.75 7.16008 9.9 6.97008 9.9V9.89ZM0.920078 0.57C0.770078 0.57 0.660076 0.69 0.660076 0.83V9.55C0.660076 9.7 0.780078 9.81 0.920078 9.81H6.97008C7.12008 9.81 7.23008 9.69 7.23008 9.55V0.84C7.23008 0.69 7.11008 0.58 6.97008 0.58H0.920078V0.57Z" fill="#3D3D3D"/>
<path d="M6.7901 9.65H1.0901C0.960096 9.65 0.850098 9.54 0.850098 9.41V0.99C0.850098 0.86 0.960096 0.75 1.0901 0.75H6.7901C6.9201 0.75 7.0301 0.86 7.0301 0.99V9.41C7.0301 9.54 6.9201 9.65 6.7901 9.65ZM1.0901 0.8C0.980096 0.8 0.900097 0.89 0.900097 0.99V9.41C0.900097 9.52 0.990096 9.6 1.0901 9.6H6.7901C6.9001 9.6 6.98009 9.51 6.98009 9.41V0.99C6.98009 0.88 6.8901 0.8 6.7901 0.8H1.0901Z" fill="#3D3D3D"/>
<path d="M7.27008 4.15996C7.27008 4.15996 7.20008 4.14996 7.18008 4.15996C7.17008 4.15996 7.16008 4.16996 7.15008 4.17996C7.13008 4.18996 7.11008 4.19996 7.08008 4.19996C7.10008 4.19996 7.12008 4.19996 7.13008 4.19996C7.15008 4.19996 7.16008 4.17996 7.18008 4.17996C7.20008 4.17996 7.22008 4.17996 7.23008 4.18996C7.23008 4.18996 7.23008 4.20996 7.25008 4.18996C7.25008 4.18996 7.25008 4.16996 7.25008 4.15996H7.27008Z" fill="#3D3D3D"/>
<path d="M5.8999 0.52002C5.8999 0.52002 5.9599 0.57002 5.9599 0.62002C5.9599 0.67002 5.9399 0.71002 5.9399 0.76002C5.9699 0.69002 5.9999 0.63002 5.9999 0.55002C6.0199 0.55002 6.0399 0.54002 6.0699 0.54002C6.0199 0.54002 5.9799 0.52002 5.8999 0.52002Z" fill="#3D3D3D"/>
<path d="M6.20996 0.540039C6.20996 0.540039 6.20996 0.620039 6.20996 0.650039C6.21996 0.640039 6.23996 0.580039 6.23996 0.560039C6.23996 0.550039 6.22996 0.540039 6.20996 0.540039Z" fill="#3D3D3D"/>
<path d="M2.95996 0.530029C2.95996 0.530029 3.01996 0.560029 3.02996 0.580029C3.03996 0.600029 3.02996 0.630029 3.04996 0.650029C3.05996 0.680029 3.09996 0.670029 3.12996 0.680029C3.15996 0.680029 3.17996 0.700029 3.20996 0.710029C3.20996 0.690029 3.18996 0.680029 3.16996 0.670029C3.15996 0.670029 3.14996 0.670029 3.13996 0.670029H3.09996C3.09996 0.670029 3.07996 0.610029 3.07996 0.600029C3.07996 0.580029 3.09996 0.570029 3.11996 0.560029C3.10996 0.540029 3.00996 0.560029 2.97996 0.560029L2.95996 0.530029Z" fill="#3D3D3D"/>
<path d="M3.32031 0.540039C3.32031 0.540039 3.33031 0.580039 3.34031 0.600039C3.34031 0.620039 3.34031 0.630039 3.36031 0.640039C3.36031 0.620039 3.36031 0.590039 3.36031 0.560039C3.36031 0.540039 3.36031 0.540039 3.33031 0.540039H3.32031Z" fill="#3D3D3D"/>
<path d="M0.620167 0.989961C0.620167 0.989961 0.680166 0.989961 0.720166 0.999961C0.740166 0.999961 0.720164 0.999961 0.750164 0.999961C0.770164 0.999961 0.780164 0.999961 0.800164 0.999961C0.780164 0.999961 0.760164 0.999961 0.730164 0.999961C0.690164 0.999961 0.700165 0.999961 0.680165 0.979961C0.670165 0.979961 0.650165 0.979961 0.630165 0.979961C0.620165 0.979961 0.630167 0.969961 0.620167 0.959961C0.610167 0.959961 0.620167 0.989961 0.620167 0.999961V0.989961Z" fill="#3D3D3D"/>
<path d="M0.620167 9.15988C0.620167 9.15988 0.680166 9.15988 0.720166 9.16988C0.740166 9.16988 0.720164 9.16988 0.750164 9.16988C0.770164 9.16988 0.780164 9.16988 0.800164 9.16988C0.780164 9.16988 0.760164 9.16988 0.730164 9.16988C0.690164 9.16988 0.700165 9.16988 0.680165 9.14988C0.670165 9.14988 0.650165 9.14988 0.630165 9.14988C0.620165 9.14988 0.630167 9.13988 0.620167 9.12988C0.610167 9.12988 0.620167 9.15988 0.620167 9.16988V9.15988Z" fill="#3D3D3D"/>
<path d="M0.630116 0.750051H0.710117C0.720117 0.730051 0.660114 0.740051 0.660114 0.720051C0.660114 0.710051 0.680116 0.690051 0.670116 0.680051C0.670116 0.650051 0.620117 0.710051 0.620117 0.740051L0.630116 0.750051Z" fill="#3D3D3D"/>
<path d="M4.49998 0.530029C4.49998 0.530029 4.49998 0.530029 4.50998 0.550029C4.50998 0.550029 4.50998 0.570029 4.50998 0.580029C4.50998 0.600029 4.50998 0.620029 4.50998 0.640029C4.50998 0.630029 4.50998 0.620029 4.50998 0.600029C4.50998 0.590029 4.50998 0.580029 4.51998 0.570029C4.51998 0.560029 4.51998 0.560029 4.51998 0.540029C4.51998 0.540029 4.51998 0.540029 4.49998 0.540029C4.49998 0.540029 4.48998 0.540029 4.47998 0.540029L4.49998 0.530029Z" fill="#3D3D3D"/>
<path d="M4.75 9.86988C4.75 9.86988 4.81 9.81988 4.81 9.76988C4.81 9.71988 4.79 9.67988 4.79 9.62988C4.82 9.69988 4.85 9.75988 4.85 9.83988C4.87 9.83988 4.89 9.84988 4.92 9.84988C4.87 9.84988 4.83 9.86988 4.75 9.86988Z" fill="#3D3D3D"/>
<path d="M0.600098 8.62988C0.600098 8.62988 0.650096 8.68988 0.700096 8.68988C0.750096 8.68988 0.790096 8.66988 0.840096 8.66988C0.770096 8.69988 0.700096 8.72988 0.630096 8.72988C0.630096 8.74988 0.620098 8.76988 0.620098 8.79988C0.620098 8.74988 0.600098 8.70988 0.600098 8.62988Z" fill="#3D3D3D"/>
<path d="M5.06006 9.84999C5.06006 9.84999 5.06006 9.76999 5.06006 9.73999C5.07006 9.74999 5.09006 9.80999 5.09006 9.82999C5.09006 9.83999 5.08006 9.84999 5.06006 9.84999Z" fill="#3D3D3D"/>
<path d="M1.81006 9.84992C1.81006 9.84992 1.87006 9.81992 1.88006 9.79992C1.89006 9.77992 1.88006 9.74992 1.90006 9.72992C1.91006 9.69992 1.95006 9.70992 1.98006 9.69992C2.01006 9.69992 2.03006 9.67992 2.06006 9.66992C2.06006 9.68992 2.04006 9.69992 2.02006 9.70992C2.01006 9.70992 2.00006 9.70992 1.99006 9.70992H1.95006C1.95006 9.70992 1.93006 9.76992 1.93006 9.77992C1.93006 9.79992 1.95006 9.80992 1.97006 9.81992C1.96006 9.83992 1.86006 9.81992 1.83006 9.81992L1.81006 9.84992Z" fill="#3D3D3D"/>
<path d="M2.16992 9.85C2.16992 9.85 2.17992 9.81 2.18992 9.79C2.18992 9.77 2.18992 9.76 2.20992 9.75C2.20992 9.77 2.20992 9.8 2.20992 9.83C2.20992 9.85 2.20992 9.85 2.17992 9.85H2.16992Z" fill="#3D3D3D"/>
<path d="M3.35008 9.84999C3.35008 9.84999 3.35008 9.84999 3.36008 9.82999C3.36008 9.82999 3.36008 9.80999 3.36008 9.79999C3.36008 9.77999 3.36008 9.75999 3.36008 9.73999C3.36008 9.74999 3.36008 9.75999 3.36008 9.77999C3.36008 9.78999 3.36008 9.79999 3.37008 9.80999C3.37008 9.81999 3.37008 9.81999 3.37008 9.83999C3.37008 9.83999 3.37008 9.83999 3.35008 9.83999C3.35008 9.83999 3.34008 9.83999 3.33008 9.83999L3.35008 9.84999Z" fill="#3D3D3D"/>
<path d="M7.2702 2.12988C7.2002 2.12988 7.12019 2.12988 7.05019 2.12988C7.01019 2.12988 7.0102 2.12988 6.9902 2.15988C6.9502 2.20988 6.88019 2.20988 6.82019 2.21988C6.78019 2.22988 6.7402 2.23988 6.7002 2.23988C6.7302 2.26988 6.8302 2.23988 6.8702 2.22988C6.9002 2.22988 6.9402 2.20988 6.9702 2.19988C7.0102 2.16988 7.02019 2.15988 7.07019 2.15988C7.11019 2.15988 7.1402 2.15988 7.1902 2.15988C7.2002 2.15988 7.2202 2.15988 7.2402 2.15988C7.2602 2.15988 7.2602 2.16988 7.2802 2.17988C7.2802 2.16988 7.2802 2.15988 7.2802 2.13988L7.2702 2.12988Z" fill="#3D3D3D"/>
<path d="M7.25985 7.33008C7.18985 7.33008 7.10984 7.33008 7.03984 7.33008C6.99984 7.33008 6.98985 7.36008 6.95985 7.38008C6.92985 7.40008 6.87984 7.41008 6.83984 7.41008C6.87984 7.41008 6.91985 7.41008 6.95985 7.40008C6.99985 7.37008 7.00984 7.36008 7.05984 7.36008C7.12984 7.35008 7.17984 7.36008 7.21984 7.43008C7.23984 7.47008 7.24984 7.48008 7.24984 7.52008C7.24984 7.49008 7.25984 7.46008 7.26984 7.43008C7.26984 7.40008 7.26984 7.37008 7.26984 7.34008L7.25985 7.33008Z" fill="#3D3D3D"/>
<path d="M7.25986 2.37988C7.25986 2.37988 7.14986 2.37988 7.10986 2.38988C7.13986 2.38988 7.15987 2.38988 7.18987 2.38988C7.19987 2.38988 7.20986 2.39988 7.22986 2.40988C7.25986 2.40988 7.27986 2.40988 7.26986 2.37988H7.25986Z" fill="#3D3D3D"/>
<path d="M7.2601 1.93993C7.2601 1.93993 7.1301 2.01993 7.1001 2.00993C7.1301 1.97993 7.1701 1.97993 7.2001 1.95993C7.2201 1.94993 7.2401 1.92993 7.2701 1.92993H7.2601V1.93993Z" fill="#3D3D3D"/>
<path d="M0.600098 3.14989C0.600098 3.14989 0.640095 3.17989 0.660095 3.18989C0.680095 3.19989 0.730095 3.19989 0.750095 3.19989C0.840095 3.19989 0.900095 3.17989 0.980095 3.15989C0.920095 3.20989 0.860096 3.21989 0.790096 3.21989C0.730096 3.21989 0.630098 3.21989 0.600098 3.13989V3.14989Z" fill="#3D3D3D"/>
<path d="M0.619924 3.01998C0.619924 2.93998 0.749923 2.94998 0.809923 2.92998C0.769923 2.91998 0.699921 2.92998 0.659921 2.92998C0.579921 2.92998 0.609922 2.95998 0.629922 3.00998L0.619924 3.01998Z" fill="#3D3D3D"/>
<path d="M0.629883 6.60997C0.629883 6.53997 0.739884 6.56997 0.779884 6.56997C0.819884 6.56997 0.819882 6.54997 0.839882 6.51997C0.849882 6.49997 0.869883 6.47997 0.879883 6.46997C0.839883 6.49997 0.849883 6.56997 0.809883 6.58997C0.759883 6.61997 0.679881 6.56997 0.639881 6.61997C0.639881 6.61997 0.639881 6.59997 0.639881 6.60997H0.629883Z" fill="#3D3D3D"/>
<path d="M0.619965 5.07006C0.619965 5.07006 0.619965 5.11006 0.619965 5.12006C0.619965 5.12006 0.649964 5.15006 0.649964 5.16006C0.649964 5.19006 0.609963 5.20006 0.609963 5.23006C0.609963 5.19006 0.589963 5.10006 0.609963 5.06006L0.619965 5.07006Z" fill="#3D3D3D"/>
<path d="M0.629864 5.25C0.629864 5.25 0.669865 5.27 0.689865 5.27C0.719865 5.27 0.719864 5.27 0.739864 5.29C0.779864 5.32 0.789865 5.27 0.829865 5.27C0.809865 5.29 0.789863 5.29 0.769863 5.3C0.739863 5.31 0.739864 5.3 0.719864 5.29C0.709864 5.29 0.669864 5.29 0.649864 5.29C0.629864 5.29 0.629864 5.34 0.629864 5.36C0.629864 5.39 0.659863 5.39 0.679863 5.4C0.669863 5.4 0.639862 5.4 0.639862 5.4C0.639862 5.4 0.639865 5.4 0.619865 5.4C0.619865 5.4 0.609863 5.37 0.609863 5.36C0.609863 5.32 0.609864 5.29 0.629864 5.26V5.25Z" fill="#3D3D3D"/>
<path d="M0.619865 6.46991C0.619865 6.46991 0.699862 6.46991 0.729862 6.42991C0.719862 6.42991 0.699863 6.42991 0.679863 6.42991C0.649863 6.42991 0.629863 6.41991 0.609863 6.40991C0.609863 6.42991 0.609863 6.44991 0.609863 6.45991H0.619865C0.619865 6.45991 0.619865 6.46991 0.619865 6.47991V6.46991Z" fill="#3D3D3D"/>
<path d="M1.41016 2.68994C1.41016 2.68994 1.41016 2.68994 1.41016 2.69994C1.41016 2.69994 1.41016 2.69994 1.42016 2.68994H1.41016Z" fill="white"/>
<path d="M1.52002 1.09009H1.54002C1.54002 1.09009 1.63002 1.10009 1.67002 1.12009C1.69002 1.13009 1.70002 1.14009 1.71002 1.15009C1.72002 1.16009 1.73002 1.18009 1.74002 1.19009C1.77002 1.24009 1.78002 1.31009 1.78002 1.40009V1.43009C1.78002 1.43009 1.78002 1.47009 1.80002 1.48009C1.80002 1.49009 1.82002 1.50009 1.85002 1.51009C1.83002 1.51009 1.82002 1.52009 1.81002 1.53009C1.80002 1.55009 1.79002 1.56009 1.78002 1.58009C1.78002 1.73009 1.76002 1.81009 1.75002 1.83009C1.75002 1.85009 1.74002 1.87009 1.73002 1.88009C1.70002 1.94009 1.63002 1.98009 1.53002 1.98009C1.43002 1.98009 1.36002 1.95009 1.32002 1.90009C1.32002 1.89009 1.31002 1.87009 1.30002 1.86009C1.30002 1.83009 1.29002 1.80009 1.29002 1.78009V1.77009H1.46002C1.46002 1.77009 1.46002 1.77009 1.46002 1.80009C1.47002 1.85009 1.49002 1.87009 1.51002 1.87009C1.51002 1.87009 1.54002 1.85009 1.56002 1.80009C1.57002 1.75009 1.58002 1.70009 1.58002 1.65009C1.58002 1.62009 1.58002 1.60009 1.58002 1.59009H1.56002C1.56002 1.59009 1.50002 1.63009 1.47002 1.63009C1.43002 1.63009 1.39002 1.62009 1.35002 1.60009C1.33002 1.59009 1.32002 1.57009 1.31002 1.56009C1.31002 1.55009 1.29002 1.53009 1.29002 1.51009C1.28002 1.48009 1.27002 1.44009 1.27002 1.38009C1.27002 1.25009 1.31002 1.16009 1.40002 1.12009C1.43002 1.10009 1.47002 1.10009 1.51002 1.10009L1.52002 1.09009ZM1.47002 1.36009V1.38009C1.47002 1.38009 1.47002 1.45009 1.49002 1.48009C1.49002 1.49009 1.51002 1.50009 1.53002 1.50009C1.53002 1.50009 1.57002 1.48009 1.58002 1.45009C1.58002 1.44009 1.58002 1.43009 1.58002 1.42009V1.30009C1.58002 1.30009 1.58002 1.23009 1.55002 1.22009L1.53002 1.21009C1.50002 1.21009 1.49002 1.24009 1.48002 1.29009C1.48002 1.31009 1.48002 1.33009 1.48002 1.35009L1.47002 1.36009Z" fill="#3D3D3D"/>
<path d="M6.32023 9.27989H6.30023C6.30023 9.27989 6.21023 9.26989 6.17023 9.24989C6.15023 9.23989 6.14023 9.22989 6.13023 9.21989C6.12023 9.20989 6.11023 9.18989 6.10023 9.17989C6.07023 9.12989 6.06023 9.05989 6.06023 8.96989V8.93989C6.06023 8.93989 6.06023 8.90989 6.04023 8.88989C6.04023 8.87989 6.02023 8.86989 5.99023 8.85989C6.01023 8.85989 6.02024 8.84989 6.03024 8.83989C6.04024 8.81989 6.05023 8.80989 6.06023 8.78989C6.06023 8.63989 6.08023 8.55989 6.09023 8.53989C6.09023 8.51989 6.10023 8.49989 6.11023 8.48989C6.14023 8.42989 6.21023 8.38989 6.31023 8.38989C6.41023 8.38989 6.48023 8.41989 6.52023 8.46989C6.52023 8.47989 6.53023 8.49989 6.54023 8.50989C6.54023 8.53989 6.55023 8.56989 6.55023 8.58989V8.59989H6.38023C6.38023 8.59989 6.38023 8.59989 6.38023 8.56989C6.37023 8.51989 6.35023 8.49989 6.33023 8.49989C6.33023 8.49989 6.30024 8.51989 6.28024 8.56989C6.27024 8.61989 6.26023 8.66989 6.26023 8.71989C6.26023 8.74989 6.26023 8.76989 6.26023 8.77989H6.28024C6.28024 8.77989 6.34024 8.73989 6.37024 8.73989C6.41024 8.73989 6.45023 8.74989 6.49023 8.76989C6.51023 8.77989 6.52024 8.79989 6.53024 8.80989C6.53024 8.81989 6.55023 8.83989 6.55023 8.85989C6.56023 8.88989 6.57023 8.92989 6.57023 8.98989C6.57023 9.11989 6.53024 9.20989 6.44024 9.24989C6.41024 9.26989 6.37023 9.26989 6.33023 9.26989L6.32023 9.27989ZM6.37024 9.00989V8.98989C6.37024 8.98989 6.37023 8.91989 6.35023 8.88989C6.35023 8.87989 6.33023 8.86989 6.31023 8.86989C6.31023 8.86989 6.27023 8.88989 6.26023 8.91989C6.26023 8.92989 6.26023 8.93989 6.26023 8.94989V9.05989C6.26023 9.05989 6.26023 9.12989 6.29023 9.13989L6.31023 9.14989C6.34023 9.14989 6.35023 9.11989 6.36023 9.06989C6.36023 9.04989 6.36023 9.02989 6.36023 9.00989H6.37024Z" fill="#3D3D3D"/>
<path d="M3.17002 1.87995C3.25002 1.67995 3.09002 1.44995 2.87002 1.44995C2.66002 1.44995 2.49002 1.66995 2.57002 1.87995C2.40002 1.87995 2.27002 2.02995 2.27002 2.19995C2.27002 2.32995 2.35002 2.44995 2.48002 2.49995C2.61002 2.54995 2.77002 2.49995 2.85002 2.38995C2.81002 2.51995 2.74002 2.65995 2.64002 2.74995C2.71002 2.71995 2.80002 2.70995 2.88002 2.70995C2.96002 2.70995 3.05002 2.71995 3.12002 2.74995C3.01002 2.65995 2.95002 2.51995 2.91002 2.38995C2.99002 2.50995 3.15002 2.54995 3.28002 2.49995C3.40002 2.44995 3.49002 2.32995 3.49002 2.19995C3.49002 2.02995 3.35002 1.88995 3.19002 1.87995H3.17002Z" fill="#3D3D3D"/>
<path d="M3.17002 8.69007C3.25002 8.89007 3.09002 9.12007 2.87002 9.12007C2.66002 9.12007 2.49002 8.90007 2.57002 8.69007C2.40002 8.69007 2.27002 8.54007 2.27002 8.37007C2.27002 8.24007 2.35002 8.12007 2.48002 8.07007C2.61002 8.02007 2.77002 8.07007 2.85002 8.18007C2.81002 8.05007 2.74002 7.91007 2.64002 7.82007C2.71002 7.85007 2.80002 7.86007 2.88002 7.86007C2.96002 7.86007 3.05002 7.85007 3.12002 7.82007C3.01002 7.91007 2.95002 8.05007 2.91002 8.18007C2.99002 8.06007 3.15002 8.02007 3.28002 8.07007C3.40002 8.12007 3.49002 8.24007 3.49002 8.37007C3.49002 8.54007 3.35002 8.68007 3.19002 8.69007H3.17002Z" fill="#3D3D3D"/>
<path d="M5.31016 1.87995C5.39016 1.67995 5.23016 1.44995 5.01016 1.44995C4.80016 1.44995 4.63016 1.66995 4.71016 1.87995C4.54016 1.87995 4.41016 2.02995 4.41016 2.19995C4.41016 2.32995 4.49016 2.44995 4.62016 2.49995C4.75016 2.54995 4.91016 2.49995 4.99016 2.38995C4.95016 2.51995 4.88016 2.65995 4.78016 2.74995C4.85016 2.71995 4.94016 2.70995 5.02016 2.70995C5.10016 2.70995 5.19016 2.71995 5.26016 2.74995C5.15016 2.65995 5.09016 2.51995 5.05016 2.38995C5.13016 2.50995 5.29016 2.54995 5.42016 2.49995C5.54016 2.44995 5.63016 2.32995 5.63016 2.19995C5.63016 2.02995 5.49016 1.88995 5.33016 1.87995H5.31016Z" fill="#3D3D3D"/>
<path d="M3.17002 4.00007C3.25002 3.80007 3.09002 3.57007 2.87002 3.57007C2.66002 3.57007 2.49002 3.79007 2.57002 4.00007C2.40002 4.00007 2.27002 4.15007 2.27002 4.32007C2.27002 4.45007 2.35002 4.57007 2.48002 4.62007C2.61002 4.67007 2.77002 4.62007 2.85002 4.51007C2.81002 4.64007 2.74002 4.78007 2.64002 4.87007C2.71002 4.84007 2.80002 4.83007 2.88002 4.83007C2.96002 4.83007 3.05002 4.84007 3.12002 4.87007C3.01002 4.78007 2.95002 4.64007 2.91002 4.51007C2.99002 4.63007 3.15002 4.67007 3.28002 4.62007C3.40002 4.57007 3.49002 4.45007 3.49002 4.32007C3.49002 4.15007 3.35002 4.01007 3.19002 4.00007H3.17002Z" fill="#3D3D3D"/>
<path d="M5.31016 4.00007C5.39016 3.80007 5.23016 3.57007 5.01016 3.57007C4.80016 3.57007 4.63016 3.79007 4.71016 4.00007C4.54016 4.00007 4.41016 4.15007 4.41016 4.32007C4.41016 4.45007 4.49016 4.57007 4.62016 4.62007C4.75016 4.67007 4.91016 4.62007 4.99016 4.51007C4.95016 4.64007 4.88016 4.78007 4.78016 4.87007C4.85016 4.84007 4.94016 4.83007 5.02016 4.83007C5.10016 4.83007 5.19016 4.84007 5.26016 4.87007C5.15016 4.78007 5.09016 4.64007 5.05016 4.51007C5.13016 4.63007 5.29016 4.67007 5.42016 4.62007C5.54016 4.57007 5.63016 4.45007 5.63016 4.32007C5.63016 4.15007 5.49016 4.01007 5.33016 4.00007H5.31016Z" fill="#3D3D3D"/>
<path d="M4.23008 5.11994C4.31008 4.91994 4.15008 4.68994 3.93008 4.68994C3.72008 4.68994 3.55008 4.90994 3.63008 5.11994C3.46008 5.11994 3.33008 5.26994 3.33008 5.43994C3.33008 5.56994 3.41008 5.68994 3.54008 5.73994C3.67008 5.78994 3.83008 5.73994 3.91008 5.62994C3.87008 5.75994 3.80008 5.89994 3.70008 5.98994C3.77008 5.95994 3.86008 5.94994 3.94008 5.94994C4.02008 5.94994 4.11008 5.95994 4.18008 5.98994C4.07008 5.89994 4.01008 5.75994 3.97008 5.62994C4.05008 5.74994 4.21008 5.78994 4.34008 5.73994C4.46008 5.68994 4.55008 5.56994 4.55008 5.43994C4.55008 5.26994 4.41008 5.12994 4.25008 5.11994H4.23008Z" fill="#3D3D3D"/>
<path d="M5.31016 8.69007C5.39016 8.89007 5.23016 9.12007 5.01016 9.12007C4.80016 9.12007 4.63016 8.90007 4.71016 8.69007C4.54016 8.69007 4.41016 8.54007 4.41016 8.37007C4.41016 8.24007 4.49016 8.12007 4.62016 8.07007C4.75016 8.02007 4.91016 8.07007 4.99016 8.18007C4.95016 8.05007 4.88016 7.91007 4.78016 7.82007C4.85016 7.85007 4.94016 7.86007 5.02016 7.86007C5.10016 7.86007 5.19016 7.85007 5.26016 7.82007C5.15016 7.91007 5.09016 8.05007 5.05016 8.18007C5.13016 8.06007 5.29016 8.02007 5.42016 8.07007C5.54016 8.12007 5.63016 8.24007 5.63016 8.37007C5.63016 8.54007 5.49016 8.68007 5.33016 8.69007H5.31016Z" fill="#3D3D3D"/>
<path d="M3.17002 6.55994C3.25002 6.75994 3.09002 6.98994 2.87002 6.98994C2.66002 6.98994 2.49002 6.76994 2.57002 6.55994C2.40002 6.55994 2.27002 6.40994 2.27002 6.23994C2.27002 6.10994 2.35002 5.98994 2.48002 5.93994C2.61002 5.88994 2.77002 5.93994 2.85002 6.04994C2.81002 5.91994 2.74002 5.77994 2.64002 5.68994C2.71002 5.71994 2.80002 5.72994 2.88002 5.72994C2.96002 5.72994 3.05002 5.71994 3.12002 5.68994C3.01002 5.77994 2.95002 5.91994 2.91002 6.04994C2.99002 5.92994 3.15002 5.88994 3.28002 5.93994C3.40002 5.98994 3.49002 6.10994 3.49002 6.23994C3.49002 6.40994 3.35002 6.54994 3.19002 6.55994H3.17002Z" fill="#3D3D3D"/>
<path d="M5.31016 6.55994C5.39016 6.75994 5.23016 6.98994 5.01016 6.98994C4.80016 6.98994 4.63016 6.76994 4.71016 6.55994C4.54016 6.55994 4.41016 6.40994 4.41016 6.23994C4.41016 6.10994 4.49016 5.98994 4.62016 5.93994C4.75016 5.88994 4.91016 5.93994 4.99016 6.04994C4.95016 5.91994 4.88016 5.77994 4.78016 5.68994C4.85016 5.71994 4.94016 5.72994 5.02016 5.72994C5.10016 5.72994 5.19016 5.71994 5.26016 5.68994C5.15016 5.77994 5.09016 5.91994 5.05016 6.04994C5.13016 5.92994 5.29016 5.88994 5.42016 5.93994C5.54016 5.98994 5.63016 6.10994 5.63016 6.23994C5.63016 6.40994 5.49016 6.54994 5.33016 6.55994H5.31016Z" fill="#3D3D3D"/>
<path d="M1.76022 2.43994C1.81022 2.31994 1.71022 2.18994 1.58022 2.18994C1.45022 2.18994 1.36022 2.31994 1.40022 2.43994C1.30022 2.43994 1.22021 2.52994 1.22021 2.62994C1.22021 2.70994 1.27021 2.77994 1.34021 2.80994C1.42021 2.83994 1.51021 2.80994 1.56021 2.73994C1.53021 2.81994 1.50021 2.89994 1.43021 2.95994C1.47021 2.93994 1.52021 2.93994 1.57021 2.93994C1.62021 2.93994 1.67022 2.93994 1.71022 2.95994C1.65022 2.90994 1.61022 2.81994 1.58022 2.73994C1.63022 2.80994 1.72021 2.83994 1.80021 2.80994C1.87021 2.77994 1.92022 2.70994 1.92022 2.62994C1.92022 2.52994 1.84022 2.44994 1.74022 2.43994H1.76022Z" fill="#3D3D3D"/>
<path d="M6.1102 7.99998C6.0602 8.11998 6.1602 8.24998 6.2902 8.24998C6.4202 8.24998 6.5102 8.11998 6.4702 7.99998C6.5702 7.99998 6.6502 7.90998 6.6502 7.80998C6.6502 7.72998 6.6002 7.65998 6.5302 7.62998C6.4502 7.59998 6.3602 7.62998 6.3102 7.69998C6.3402 7.61998 6.3702 7.53998 6.4402 7.47998C6.4002 7.49998 6.35019 7.49998 6.30019 7.49998C6.25019 7.49998 6.20019 7.49998 6.16019 7.47998C6.22019 7.52998 6.2602 7.61998 6.2902 7.69998C6.2402 7.62998 6.15019 7.59998 6.07019 7.62998C6.00019 7.65998 5.9502 7.72998 5.9502 7.80998C5.9502 7.90998 6.0302 7.98998 6.1302 7.99998H6.1102Z" fill="#3D3D3D"/>
</svg>
