<svg width="7" height="10" viewBox="0 0 7 10" fill="none" xmlns="http://www.w3.org/2000/svg">
<path d="M6.61977 9.87003H0.569763C0.399763 9.87003 0.259766 9.73003 0.259766 9.56003V0.840029C0.259766 0.670029 0.399763 0.530029 0.569763 0.530029H6.61977C6.78977 0.530029 6.92976 0.670029 6.92976 0.840029V9.56003C6.92976 9.73003 6.78977 9.87003 6.61977 9.87003ZM0.569763 0.540029C0.409763 0.540029 0.279762 0.670029 0.279762 0.830029V9.55003C0.279762 9.71003 0.409763 9.84003 0.569763 9.84003H6.61977C6.77977 9.84003 6.90977 9.71003 6.90977 9.55003V0.840029C6.90977 0.680029 6.77977 0.550029 6.61977 0.550029H0.569763V0.540029Z" fill="#3D3D3D"/>
<path d="M6.61998 9.89H0.569977C0.379977 9.89 0.22998 9.74 0.22998 9.55V0.84C0.22998 0.65 0.379977 0.5 0.569977 0.5H6.61998C6.80998 0.5 6.95998 0.65 6.95998 0.84V9.56C6.95998 9.75 6.80998 9.9 6.61998 9.9V9.89ZM0.569977 0.57C0.419977 0.57 0.309982 0.69 0.309982 0.83V9.55C0.309982 9.7 0.429977 9.81 0.569977 9.81H6.61998C6.76998 9.81 6.87998 9.69 6.87998 9.55V0.84C6.87998 0.69 6.75998 0.58 6.61998 0.58H0.569977V0.57Z" fill="#3D3D3D"/>
<path d="M6.44 9.65H0.740005C0.610005 9.65 0.5 9.54 0.5 9.41V0.99C0.5 0.86 0.610005 0.75 0.740005 0.75H6.44C6.57 0.75 6.68 0.86 6.68 0.99V9.41C6.68 9.54 6.57 9.65 6.44 9.65ZM0.740005 0.8C0.630005 0.8 0.550003 0.89 0.550003 0.99V9.41C0.550003 9.52 0.640005 9.6 0.740005 9.6H6.44C6.55 9.6 6.63 9.51 6.63 9.41V0.99C6.63 0.88 6.54 0.8 6.44 0.8H0.740005Z" fill="#3D3D3D"/>
<path d="M6.91998 4.15996C6.91998 4.15996 6.84998 4.14996 6.82998 4.15996C6.81998 4.15996 6.80998 4.16996 6.79998 4.17996C6.77998 4.18996 6.75998 4.19996 6.72998 4.19996C6.74998 4.19996 6.76998 4.19996 6.77998 4.19996C6.79998 4.19996 6.80998 4.17996 6.82998 4.17996C6.84998 4.17996 6.86998 4.17996 6.87998 4.18996C6.87998 4.18996 6.87998 4.20996 6.89998 4.18996C6.89998 4.18996 6.89998 4.16996 6.89998 4.15996H6.91998Z" fill="#3D3D3D"/>
<path d="M5.5498 0.52002C5.5498 0.52002 5.6098 0.57002 5.6098 0.62002C5.6098 0.67002 5.58981 0.71002 5.58981 0.76002C5.61981 0.69002 5.6498 0.63002 5.6498 0.55002C5.6698 0.55002 5.6898 0.54002 5.7198 0.54002C5.6698 0.54002 5.6298 0.52002 5.5498 0.52002Z" fill="#3D3D3D"/>
<path d="M5.8501 0.540039C5.8501 0.540039 5.8501 0.620039 5.8501 0.650039C5.8601 0.640039 5.8801 0.580039 5.8801 0.560039C5.8801 0.550039 5.8701 0.540039 5.8501 0.540039Z" fill="#3D3D3D"/>
<path d="M2.60986 0.530029C2.60986 0.530029 2.66986 0.560029 2.67986 0.580029C2.68986 0.600029 2.67987 0.630029 2.69987 0.650029C2.70987 0.680029 2.74986 0.670029 2.77986 0.680029C2.80986 0.680029 2.82986 0.700029 2.85986 0.710029C2.85986 0.690029 2.83986 0.680029 2.81986 0.670029C2.80986 0.670029 2.79986 0.670029 2.78986 0.670029H2.74986C2.74986 0.670029 2.72987 0.610029 2.72987 0.600029C2.72987 0.580029 2.74987 0.570029 2.76987 0.560029C2.75987 0.540029 2.65987 0.560029 2.62987 0.560029L2.60986 0.530029Z" fill="#3D3D3D"/>
<path d="M2.97021 0.540039C2.97021 0.540039 2.98022 0.580039 2.99022 0.600039C2.99022 0.620039 2.99022 0.630039 3.01022 0.640039C3.01022 0.620039 3.01022 0.590039 3.01022 0.560039C3.01022 0.540039 3.01022 0.540039 2.98022 0.540039H2.97021Z" fill="#3D3D3D"/>
<path d="M0.270069 0.989961C0.270069 0.989961 0.330068 0.989961 0.370068 0.999961C0.390068 0.999961 0.370067 0.999961 0.400067 0.999961C0.420067 0.999961 0.43007 0.999961 0.45007 0.999961C0.43007 0.999961 0.41007 0.999961 0.38007 0.999961C0.34007 0.999961 0.350067 0.999961 0.330067 0.979961C0.320067 0.979961 0.300064 0.979961 0.280064 0.979961C0.270064 0.979961 0.280069 0.969961 0.270069 0.959961C0.260069 0.959961 0.270069 0.989961 0.270069 0.999961V0.989961Z" fill="#3D3D3D"/>
<path d="M0.270069 9.15988C0.270069 9.15988 0.330068 9.15988 0.370068 9.16988C0.390068 9.16988 0.370067 9.16988 0.400067 9.16988C0.420067 9.16988 0.43007 9.16988 0.45007 9.16988C0.43007 9.16988 0.41007 9.16988 0.38007 9.16988C0.34007 9.16988 0.350067 9.16988 0.330067 9.14988C0.320067 9.14988 0.300064 9.14988 0.280064 9.14988C0.270064 9.14988 0.280069 9.13988 0.270069 9.12988C0.260069 9.12988 0.270069 9.15988 0.270069 9.16988V9.15988Z" fill="#3D3D3D"/>
<path d="M0.280162 0.750051H0.360164C0.370164 0.730051 0.310168 0.740051 0.310168 0.720051C0.310168 0.710051 0.330163 0.690051 0.320163 0.680051C0.320163 0.650051 0.260167 0.710051 0.270167 0.740051L0.280162 0.750051Z" fill="#3D3D3D"/>
<path d="M4.14988 0.530029C4.14988 0.530029 4.14988 0.530029 4.15988 0.550029C4.15988 0.550029 4.15988 0.570029 4.15988 0.580029C4.15988 0.600029 4.15988 0.620029 4.15988 0.640029C4.15988 0.630029 4.15988 0.620029 4.15988 0.600029C4.15988 0.590029 4.15988 0.580029 4.16988 0.570029C4.16988 0.560029 4.16988 0.560029 4.16988 0.540029C4.16988 0.540029 4.16988 0.540029 4.14988 0.540029C4.14988 0.540029 4.13988 0.540029 4.12988 0.540029L4.14988 0.530029Z" fill="#3D3D3D"/>
<path d="M4.3999 9.86988C4.3999 9.86988 4.4599 9.81988 4.4599 9.76988C4.4599 9.71988 4.4399 9.67988 4.4399 9.62988C4.4699 9.69988 4.4999 9.75988 4.4999 9.83988C4.5199 9.83988 4.5399 9.84988 4.5699 9.84988C4.5199 9.84988 4.4799 9.86988 4.3999 9.86988Z" fill="#3D3D3D"/>
<path d="M0.25 8.62988C0.25 8.62988 0.300001 8.68988 0.360001 8.68988C0.410001 8.68988 0.45 8.66988 0.5 8.66988C0.43 8.69988 0.360001 8.72988 0.290001 8.72988C0.290001 8.74988 0.279999 8.76988 0.279999 8.79988C0.279999 8.74988 0.260002 8.70988 0.260002 8.62988H0.25Z" fill="#3D3D3D"/>
<path d="M4.70996 9.84999C4.70996 9.84999 4.70996 9.76999 4.70996 9.73999C4.71996 9.74999 4.73997 9.80999 4.73997 9.82999C4.73997 9.83999 4.72996 9.84999 4.70996 9.84999Z" fill="#3D3D3D"/>
<path d="M1.45996 9.84992C1.45996 9.84992 1.51996 9.81992 1.52996 9.79992C1.53996 9.77992 1.52996 9.74992 1.54996 9.72992C1.55996 9.69992 1.59997 9.70992 1.62997 9.69992C1.65997 9.69992 1.67996 9.67992 1.70996 9.66992C1.70996 9.68992 1.68996 9.69992 1.66996 9.70992C1.65996 9.70992 1.64996 9.70992 1.63996 9.70992H1.59996C1.59996 9.70992 1.57996 9.76992 1.57996 9.77992C1.57996 9.79992 1.59996 9.80992 1.61996 9.81992C1.60996 9.83992 1.50997 9.81992 1.47997 9.81992L1.45996 9.84992Z" fill="#3D3D3D"/>
<path d="M1.81982 9.85C1.81982 9.85 1.82983 9.81 1.83983 9.79C1.83983 9.77 1.83983 9.76 1.85983 9.75C1.85983 9.77 1.85983 9.8 1.85983 9.83C1.85983 9.85 1.85983 9.85 1.82983 9.85H1.81982Z" fill="#3D3D3D"/>
<path d="M2.99998 9.84999C2.99998 9.84999 2.99998 9.84999 3.00998 9.82999C3.00998 9.82999 3.00998 9.80999 3.00998 9.79999C3.00998 9.77999 3.00998 9.75999 3.00998 9.73999C3.00998 9.74999 3.00998 9.75999 3.00998 9.77999C3.00998 9.78999 3.00998 9.79999 3.01998 9.80999C3.01998 9.81999 3.01998 9.81999 3.01998 9.83999C3.01998 9.83999 3.01998 9.83999 2.99998 9.83999C2.99998 9.83999 2.98998 9.83999 2.97998 9.83999L2.99998 9.84999Z" fill="#3D3D3D"/>
<path d="M6.9201 2.12988C6.8501 2.12988 6.7701 2.12988 6.7001 2.12988C6.6601 2.12988 6.6601 2.12988 6.6401 2.15988C6.6001 2.20988 6.5301 2.20988 6.4701 2.21988C6.4301 2.22988 6.3901 2.23988 6.3501 2.23988C6.3801 2.26988 6.4801 2.23988 6.5201 2.22988C6.5501 2.22988 6.5901 2.20988 6.6201 2.19988C6.6601 2.16988 6.6701 2.15988 6.7201 2.15988C6.7601 2.15988 6.7901 2.15988 6.8401 2.15988C6.8501 2.15988 6.8701 2.15988 6.8901 2.15988C6.9101 2.15988 6.9101 2.16988 6.9301 2.17988C6.9301 2.16988 6.9301 2.15988 6.9301 2.13988L6.9201 2.12988Z" fill="#3D3D3D"/>
<path d="M6.90974 7.33008C6.83974 7.33008 6.75974 7.33008 6.68974 7.33008C6.64974 7.33008 6.63974 7.36008 6.60974 7.38008C6.57974 7.40008 6.52975 7.41008 6.48975 7.41008C6.52975 7.41008 6.56974 7.41008 6.60974 7.40008C6.64974 7.37008 6.65974 7.36008 6.70974 7.36008C6.77974 7.35008 6.82974 7.36008 6.86974 7.43008C6.88974 7.47008 6.89974 7.48008 6.89974 7.52008C6.89974 7.49008 6.90974 7.46008 6.91974 7.43008C6.91974 7.40008 6.91974 7.37008 6.91974 7.34008L6.90974 7.33008Z" fill="#3D3D3D"/>
<path d="M6.90977 2.37988C6.90977 2.37988 6.79977 2.37988 6.75977 2.38988C6.78977 2.38988 6.80977 2.38988 6.83977 2.38988C6.84977 2.38988 6.85977 2.39988 6.87977 2.40988C6.90977 2.40988 6.92976 2.40988 6.91976 2.37988H6.90977Z" fill="#3D3D3D"/>
<path d="M6.91 1.93993C6.91 1.93993 6.78 2.01993 6.75 2.00993C6.78 1.97993 6.82 1.97993 6.85 1.95993C6.87 1.94993 6.89 1.92993 6.92 1.92993H6.91V1.93993Z" fill="#3D3D3D"/>
<path d="M0.25 3.14989C0.25 3.14989 0.290005 3.17989 0.310005 3.18989C0.330005 3.19989 0.380002 3.19989 0.400002 3.19989C0.490002 3.19989 0.550005 3.17989 0.630005 3.15989C0.570005 3.20989 0.510002 3.21989 0.440002 3.21989C0.380002 3.21989 0.28 3.21989 0.25 3.13989V3.14989Z" fill="#3D3D3D"/>
<path d="M0.269827 3.01998C0.269827 2.93998 0.399821 2.94998 0.459821 2.92998C0.419821 2.91998 0.349827 2.92998 0.309827 2.92998C0.229827 2.92998 0.259821 2.95998 0.279821 3.00998L0.269827 3.01998Z" fill="#3D3D3D"/>
<path d="M0.279785 6.60997C0.279785 6.53997 0.389787 6.56997 0.429787 6.56997C0.469787 6.56997 0.469792 6.54997 0.489792 6.51997C0.499792 6.49997 0.519785 6.47997 0.529785 6.46997C0.489785 6.49997 0.499785 6.56997 0.459785 6.58997C0.409785 6.61997 0.329787 6.56997 0.289787 6.61997C0.289787 6.61997 0.289787 6.59997 0.289787 6.60997H0.279785Z" fill="#3D3D3D"/>
<path d="M0.269868 5.07006C0.269868 5.07006 0.269868 5.11006 0.269868 5.12006C0.269868 5.12006 0.299866 5.15006 0.299866 5.16006C0.299866 5.19006 0.259865 5.20006 0.259865 5.23006C0.259865 5.19006 0.239865 5.10006 0.259865 5.06006L0.269868 5.07006Z" fill="#3D3D3D"/>
<path d="M0.279762 5.25C0.279762 5.25 0.319767 5.27 0.339767 5.27C0.369767 5.27 0.369763 5.27 0.389763 5.29C0.429763 5.32 0.439767 5.27 0.479767 5.27C0.459767 5.29 0.439762 5.29 0.419762 5.3C0.389762 5.31 0.389766 5.3 0.369766 5.29C0.359766 5.29 0.319767 5.29 0.299767 5.29C0.279767 5.29 0.279762 5.34 0.279762 5.36C0.279762 5.39 0.309765 5.39 0.329765 5.4C0.319765 5.4 0.289764 5.4 0.289764 5.4C0.289764 5.4 0.289768 5.4 0.269768 5.4C0.269768 5.4 0.259766 5.37 0.259766 5.36C0.259766 5.32 0.259762 5.29 0.279762 5.26V5.25Z" fill="#3D3D3D"/>
<path d="M0.269768 6.46991C0.269768 6.46991 0.349768 6.46991 0.379768 6.42991C0.369768 6.42991 0.349765 6.42991 0.329765 6.42991C0.299765 6.42991 0.279766 6.41991 0.259766 6.40991C0.259766 6.42991 0.259766 6.44991 0.259766 6.45991H0.269768C0.269768 6.45991 0.269768 6.46991 0.269768 6.47991V6.46991Z" fill="#3D3D3D"/>
<path d="M1.0498 2.68994C1.0498 2.68994 1.0498 2.68994 1.0498 2.69994C1.0498 2.69994 1.04981 2.69994 1.05981 2.68994H1.0498Z" fill="white"/>
<path d="M1.36988 1.1001V1.6001H1.43988V1.7801H1.36988C1.36988 1.7801 1.36988 1.8501 1.36988 1.8601C1.36988 1.8601 1.38988 1.8701 1.39988 1.8701H1.42988V1.9701H1.09988V1.8701H1.12988C1.12988 1.8701 1.15988 1.8701 1.15988 1.8401V1.7801H0.879883V1.5901C0.879883 1.5901 0.919878 1.5201 0.999878 1.3901C1.08988 1.2401 1.14988 1.1401 1.17988 1.1001H1.36988ZM1.17988 1.3901C1.17988 1.3901 1.12988 1.4701 1.04988 1.6101H1.18988V1.4001L1.17988 1.3901Z" fill="#3D3D3D"/>
<path d="M5.79021 9.2699V8.7699H5.72021V8.5899H5.79021C5.79021 8.5899 5.79021 8.5199 5.79021 8.5099C5.79021 8.5099 5.77022 8.4999 5.76022 8.4999H5.73022V8.3999H6.06022V8.4999H6.03021C6.03021 8.4999 6.00021 8.4999 6.00021 8.5299V8.5899H6.28021V8.7799C6.28021 8.7799 6.24022 8.8499 6.16022 8.9799C6.07022 9.1299 6.01022 9.2299 5.98022 9.2699H5.79021ZM5.98022 8.9899C5.98022 8.9899 6.03021 8.9099 6.11021 8.7699H5.98022V8.9799V8.9899Z" fill="#3D3D3D"/>
<path d="M2.81992 1.81989C2.89992 1.61989 2.73993 1.38989 2.51993 1.38989C2.30993 1.38989 2.13992 1.60989 2.21992 1.81989C2.04992 1.81989 1.91992 1.96989 1.91992 2.13989C1.91992 2.26989 1.99993 2.38989 2.12993 2.43989C2.25993 2.48989 2.41992 2.43989 2.49992 2.32989C2.45992 2.45989 2.38992 2.59989 2.28992 2.68989C2.35992 2.65989 2.44992 2.64989 2.52992 2.64989C2.60992 2.64989 2.69993 2.65989 2.76993 2.68989C2.65993 2.59989 2.59993 2.45989 2.55993 2.32989C2.63993 2.44989 2.79992 2.48989 2.92992 2.43989C3.04992 2.38989 3.13992 2.26989 3.13992 2.13989C3.13992 1.96989 2.99993 1.82989 2.83993 1.81989H2.81992Z" fill="#3D3D3D"/>
<path d="M2.81992 8.62C2.89992 8.82 2.73993 9.05 2.51993 9.05C2.30993 9.05 2.13992 8.83 2.21992 8.62C2.04992 8.62 1.91992 8.47 1.91992 8.3C1.91992 8.17 1.99993 8.05 2.12993 8C2.25993 7.95 2.41992 8 2.49992 8.11C2.45992 7.98 2.38992 7.84 2.28992 7.75C2.35992 7.78 2.44992 7.79 2.52992 7.79C2.60992 7.79 2.69993 7.78 2.76993 7.75C2.65993 7.84 2.59993 7.98 2.55993 8.11C2.63993 7.99 2.79992 7.95 2.92992 8C3.04992 8.05 3.13992 8.17 3.13992 8.3C3.13992 8.47 2.99993 8.61 2.83993 8.62H2.81992Z" fill="#3D3D3D"/>
<path d="M4.96005 1.81989C5.04005 1.61989 4.88006 1.38989 4.66006 1.38989C4.45006 1.38989 4.28005 1.60989 4.36005 1.81989C4.19005 1.81989 4.06006 1.96989 4.06006 2.13989C4.06006 2.26989 4.14006 2.38989 4.27006 2.43989C4.40006 2.48989 4.56005 2.43989 4.64005 2.32989C4.60005 2.45989 4.53005 2.59989 4.43005 2.68989C4.50005 2.65989 4.59005 2.64989 4.67005 2.64989C4.75005 2.64989 4.84006 2.65989 4.91006 2.68989C4.80006 2.59989 4.74006 2.45989 4.70006 2.32989C4.78006 2.44989 4.94005 2.48989 5.07005 2.43989C5.19005 2.38989 5.28005 2.26989 5.28005 2.13989C5.28005 1.96989 5.14006 1.82989 4.98006 1.81989H4.96005Z" fill="#3D3D3D"/>
<path d="M4.96005 8.62C5.04005 8.82 4.88006 9.05 4.66006 9.05C4.45006 9.05 4.28005 8.83 4.36005 8.62C4.19005 8.62 4.06006 8.47 4.06006 8.3C4.06006 8.17 4.14006 8.05 4.27006 8C4.40006 7.95 4.56005 8 4.64005 8.11C4.60005 7.98 4.53005 7.84 4.43005 7.75C4.50005 7.78 4.59005 7.79 4.67005 7.79C4.75005 7.79 4.84006 7.78 4.91006 7.75C4.80006 7.84 4.74006 7.98 4.70006 8.11C4.78006 7.99 4.94005 7.95 5.07005 8C5.19005 8.05 5.28005 8.17 5.28005 8.3C5.28005 8.47 5.14006 8.61 4.98006 8.62H4.96005Z" fill="#3D3D3D"/>
<path d="M1.41988 2.43994C1.46988 2.31994 1.36988 2.18994 1.23988 2.18994C1.10988 2.18994 1.01988 2.31994 1.05988 2.43994C0.959883 2.43994 0.879883 2.52994 0.879883 2.62994C0.879883 2.70994 0.929878 2.77994 0.999878 2.80994C1.07988 2.83994 1.16988 2.80994 1.21988 2.73994C1.18988 2.81994 1.15988 2.89994 1.08988 2.95994C1.12988 2.93994 1.17988 2.93994 1.22988 2.93994C1.27988 2.93994 1.32988 2.93994 1.36988 2.95994C1.30988 2.90994 1.26988 2.81994 1.23988 2.73994C1.28988 2.80994 1.37988 2.83994 1.45988 2.80994C1.52988 2.77994 1.57988 2.70994 1.57988 2.62994C1.57988 2.52994 1.49988 2.44994 1.39988 2.43994H1.41988Z" fill="#3D3D3D"/>
<path d="M5.76987 7.99998C5.71987 8.11998 5.81987 8.24998 5.94987 8.24998C6.07987 8.24998 6.16987 8.11998 6.12987 7.99998C6.22987 7.99998 6.30987 7.90998 6.30987 7.80998C6.30987 7.72998 6.25987 7.65998 6.18987 7.62998C6.10987 7.59998 6.01986 7.62998 5.96986 7.69998C5.99986 7.61998 6.02986 7.53998 6.09986 7.47998C6.05986 7.49998 6.00986 7.49998 5.95986 7.49998C5.90986 7.49998 5.85986 7.49998 5.81986 7.47998C5.87986 7.52998 5.91987 7.61998 5.94987 7.69998C5.89987 7.62998 5.80987 7.59998 5.72987 7.62998C5.65987 7.65998 5.60986 7.72998 5.60986 7.80998C5.60986 7.90998 5.68986 7.98998 5.78986 7.99998H5.76987Z" fill="#3D3D3D"/>
</svg>
