<svg width="8" height="11" viewBox="0 0 8 11" fill="none" xmlns="http://www.w3.org/2000/svg">
<path d="M7.34975 10.0033H1.29975C1.12975 10.0033 0.989746 9.86333 0.989746 9.69333V0.97333C0.989746 0.80333 1.12975 0.66333 1.29975 0.66333H7.34975C7.51975 0.66333 7.65975 0.80333 7.65975 0.97333V9.69333C7.65975 9.86333 7.51975 10.0033 7.34975 10.0033ZM1.29975 0.67333C1.13975 0.67333 1.00975 0.80333 1.00975 0.96333V9.68333C1.00975 9.84333 1.13975 9.97333 1.29975 9.97333H7.34975C7.50975 9.97333 7.63975 9.84333 7.63975 9.68333V0.97333C7.63975 0.81333 7.50975 0.68333 7.34975 0.68333H1.29975V0.67333Z" fill="#3D3D3D"/>
<path d="M7.34996 10.0233H1.29996C1.10996 10.0233 0.959961 9.8733 0.959961 9.6833V0.973301C0.959961 0.783301 1.10996 0.633301 1.29996 0.633301H7.34996C7.53996 0.633301 7.68996 0.783301 7.68996 0.973301V9.6933C7.68996 9.8833 7.53996 10.0333 7.34996 10.0333V10.0233ZM1.29996 0.703301C1.14996 0.703301 1.03996 0.823301 1.03996 0.963301V9.6833C1.03996 9.8333 1.15996 9.9433 1.29996 9.9433H7.34996C7.49996 9.9433 7.60996 9.8233 7.60996 9.6833V0.973301C7.60996 0.823301 7.48996 0.713301 7.34996 0.713301H1.29996V0.703301Z" fill="#3D3D3D"/>
<path d="M7.16998 9.7833H1.46998C1.33998 9.7833 1.22998 9.6733 1.22998 9.5433V1.1233C1.22998 0.983301 1.33998 0.883301 1.46998 0.883301H7.16998C7.29998 0.883301 7.40998 0.993301 7.40998 1.1233V9.5433C7.40998 9.6733 7.29998 9.7833 7.16998 9.7833ZM1.46998 0.933301C1.35998 0.933301 1.27998 1.0233 1.27998 1.1233V9.5433C1.27998 9.6533 1.36998 9.7333 1.46998 9.7333H7.16998C7.27998 9.7333 7.35998 9.6433 7.35998 9.5433V1.1233C7.35998 1.0133 7.26998 0.933301 7.16998 0.933301H1.46998Z" fill="#3D3D3D"/>
<path d="M7.64996 4.29326C7.64996 4.29326 7.57996 4.28326 7.55996 4.29326C7.54996 4.29326 7.53996 4.31326 7.52996 4.31326C7.50996 4.32326 7.48996 4.33326 7.45996 4.33326C7.47996 4.33326 7.49996 4.33326 7.50996 4.33326C7.52996 4.33326 7.53996 4.31326 7.55996 4.31326C7.57996 4.31326 7.59996 4.31326 7.60996 4.32326C7.60996 4.32326 7.60997 4.34326 7.62997 4.32326C7.62997 4.32326 7.62997 4.30326 7.62997 4.29326H7.64996Z" fill="#3D3D3D"/>
<path d="M6.27979 0.65332C6.27979 0.65332 6.33979 0.70332 6.33979 0.75332C6.33979 0.80332 6.31979 0.84332 6.31979 0.89332C6.34979 0.82332 6.37979 0.76332 6.37979 0.68332C6.39979 0.68332 6.41979 0.67332 6.44979 0.67332C6.39979 0.67332 6.35979 0.65332 6.27979 0.65332Z" fill="#3D3D3D"/>
<path d="M6.58008 0.67334C6.58008 0.67334 6.58008 0.75334 6.58008 0.78334C6.59008 0.77334 6.61008 0.71334 6.61008 0.69334C6.61008 0.68334 6.60008 0.67334 6.58008 0.67334Z" fill="#3D3D3D"/>
<path d="M3.33984 0.66333C3.33984 0.66333 3.39984 0.69333 3.40984 0.71333C3.41984 0.73333 3.40984 0.76333 3.42984 0.78333C3.43984 0.81333 3.47984 0.80333 3.50984 0.81333C3.53984 0.81333 3.55984 0.83333 3.58984 0.84333C3.58984 0.82333 3.56984 0.81333 3.54984 0.80333C3.53984 0.80333 3.52984 0.80333 3.51984 0.80333H3.47984C3.47984 0.80333 3.45984 0.74333 3.45984 0.73333C3.45984 0.71333 3.47984 0.70333 3.49984 0.69333C3.48984 0.67333 3.38984 0.69333 3.35984 0.69333L3.33984 0.66333Z" fill="#3D3D3D"/>
<path d="M3.7002 0.67334C3.7002 0.67334 3.71019 0.71334 3.72019 0.73334C3.72019 0.75334 3.72019 0.76334 3.74019 0.77334C3.74019 0.75334 3.74019 0.72334 3.74019 0.69334C3.74019 0.67334 3.74019 0.67334 3.71019 0.67334H3.7002Z" fill="#3D3D3D"/>
<path d="M1.00005 1.12326C1.00005 1.12326 1.06005 1.12326 1.10005 1.13326C1.12005 1.13326 1.10005 1.13326 1.13005 1.13326C1.15005 1.13326 1.16005 1.13326 1.18005 1.13326C1.16005 1.13326 1.14005 1.13326 1.11005 1.13326C1.07005 1.13326 1.08005 1.13326 1.06005 1.11326C1.05005 1.11326 1.03005 1.11326 1.01005 1.11326C1.00005 1.11326 1.01005 1.10326 1.00005 1.09326C0.99005 1.09326 1.00005 1.12326 1.00005 1.13326V1.12326Z" fill="#3D3D3D"/>
<path d="M1.00005 9.29318C1.00005 9.29318 1.06005 9.29318 1.10005 9.30318C1.12005 9.30318 1.10005 9.30318 1.13005 9.30318C1.15005 9.30318 1.16005 9.30318 1.18005 9.30318C1.16005 9.30318 1.14005 9.30318 1.11005 9.30318C1.07005 9.30318 1.08005 9.30318 1.06005 9.28318C1.05005 9.28318 1.03005 9.28318 1.01005 9.28318C1.00005 9.28318 1.01005 9.27318 1.00005 9.26318C0.99005 9.26318 1.00005 9.29318 1.00005 9.30318V9.29318Z" fill="#3D3D3D"/>
<path d="M1.01015 0.883352H1.09015C1.10015 0.863352 1.04015 0.873352 1.04015 0.853352C1.04015 0.843352 1.06015 0.823352 1.05015 0.813352C1.05015 0.783352 0.990148 0.843352 1.00015 0.873352L1.01015 0.883352Z" fill="#3D3D3D"/>
<path d="M4.87987 0.66333C4.87987 0.66333 4.87986 0.66333 4.88986 0.68333C4.88986 0.68333 4.88986 0.70333 4.88986 0.71333C4.88986 0.73333 4.88986 0.75333 4.88986 0.77333C4.88986 0.76333 4.88986 0.75333 4.88986 0.73333C4.88986 0.72333 4.88986 0.71333 4.89986 0.70333C4.89986 0.69333 4.89986 0.69333 4.89986 0.67333C4.89986 0.67333 4.89987 0.67333 4.87987 0.67333C4.87987 0.67333 4.86986 0.67333 4.85986 0.67333L4.87987 0.66333Z" fill="#3D3D3D"/>
<path d="M5.12988 10.0032C5.12988 10.0032 5.18988 9.95318 5.18988 9.90318C5.18988 9.85318 5.16988 9.81318 5.16988 9.76318C5.19988 9.83318 5.22988 9.89318 5.22988 9.97318C5.24988 9.97318 5.26988 9.98318 5.29988 9.98318C5.24988 9.98318 5.20988 10.0032 5.12988 10.0032Z" fill="#3D3D3D"/>
<path d="M0.97998 8.76318C0.97998 8.76318 1.02998 8.82318 1.07998 8.82318C1.12998 8.82318 1.16998 8.80318 1.21998 8.80318C1.14998 8.83318 1.07998 8.86318 1.00998 8.86318C1.00998 8.88318 0.999977 8.90318 0.999977 8.93318C0.999977 8.88318 0.97998 8.84318 0.97998 8.76318Z" fill="#3D3D3D"/>
<path d="M5.43994 9.98329C5.43994 9.98329 5.43994 9.90329 5.43994 9.87329C5.44994 9.88329 5.46994 9.94329 5.46994 9.96329C5.46994 9.97329 5.45994 9.98329 5.43994 9.98329Z" fill="#3D3D3D"/>
<path d="M2.18994 9.98322C2.18994 9.98322 2.24994 9.95322 2.25994 9.93322C2.26994 9.91322 2.25994 9.88322 2.27994 9.86322C2.28994 9.83322 2.32994 9.84322 2.35994 9.83322C2.38994 9.83322 2.40994 9.81322 2.43994 9.80322C2.43994 9.82322 2.41994 9.83322 2.39994 9.84322C2.38994 9.84322 2.37994 9.84322 2.36994 9.84322H2.32994C2.32994 9.84322 2.30994 9.90322 2.30994 9.91322C2.30994 9.93322 2.32994 9.94322 2.34994 9.95322C2.33994 9.97322 2.23994 9.95322 2.20994 9.95322L2.18994 9.98322Z" fill="#3D3D3D"/>
<path d="M2.5498 9.9833C2.5498 9.9833 2.5598 9.9433 2.5698 9.9233C2.5698 9.9033 2.56981 9.8933 2.58981 9.8833C2.58981 9.9033 2.58981 9.9333 2.58981 9.9633C2.58981 9.9833 2.5898 9.9833 2.5598 9.9833H2.5498Z" fill="#3D3D3D"/>
<path d="M3.72997 9.98329C3.72997 9.98329 3.72996 9.98329 3.73996 9.96329C3.73996 9.96329 3.73996 9.94329 3.73996 9.93329C3.73996 9.91329 3.73996 9.89329 3.73996 9.87329C3.73996 9.88329 3.73996 9.89329 3.73996 9.91329C3.73996 9.92329 3.73996 9.93329 3.74996 9.94329C3.74996 9.95329 3.74996 9.95329 3.74996 9.97329C3.74996 9.97329 3.74997 9.97329 3.72997 9.97329C3.72997 9.97329 3.71996 9.97329 3.70996 9.97329L3.72997 9.98329Z" fill="#3D3D3D"/>
<path d="M7.65008 2.26318C7.58008 2.26318 7.50008 2.26318 7.43008 2.26318C7.39008 2.26318 7.39008 2.26318 7.37008 2.29318C7.33008 2.34318 7.26008 2.34318 7.20008 2.35318C7.16008 2.36318 7.12008 2.37318 7.08008 2.37318C7.11008 2.40318 7.21008 2.37318 7.25008 2.36318C7.28008 2.36318 7.32007 2.34318 7.35007 2.32318C7.39007 2.29318 7.40008 2.28318 7.45008 2.28318C7.49008 2.28318 7.52008 2.28318 7.57008 2.28318C7.58008 2.28318 7.60008 2.28318 7.62008 2.28318C7.64008 2.28318 7.64008 2.29318 7.66008 2.30318C7.66008 2.29318 7.66008 2.28318 7.66008 2.26318H7.65008Z" fill="#3D3D3D"/>
<path d="M7.63972 7.46338C7.56972 7.46338 7.48972 7.46338 7.41972 7.46338C7.37972 7.46338 7.36973 7.49338 7.33973 7.51338C7.30973 7.53338 7.25973 7.54338 7.21973 7.54338C7.25973 7.54338 7.29973 7.54338 7.33973 7.53338C7.37973 7.50338 7.38973 7.49338 7.43973 7.49338C7.50973 7.48338 7.55972 7.49338 7.59972 7.56338C7.61972 7.60338 7.62973 7.61338 7.62973 7.65338C7.62973 7.62338 7.63973 7.59338 7.64973 7.56338C7.64973 7.53338 7.64973 7.50338 7.64973 7.47338L7.63972 7.46338Z" fill="#3D3D3D"/>
<path d="M7.63975 2.51318C7.63975 2.51318 7.52975 2.51318 7.48975 2.52318C7.51975 2.52318 7.53975 2.52318 7.56975 2.52318C7.57975 2.52318 7.58975 2.53318 7.60975 2.54318C7.63975 2.54318 7.65975 2.54318 7.64975 2.51318H7.63975Z" fill="#3D3D3D"/>
<path d="M7.63998 2.07323C7.63998 2.07323 7.50998 2.15323 7.47998 2.14323C7.50998 2.11323 7.54998 2.11323 7.57998 2.09323C7.59998 2.08323 7.61998 2.06323 7.64998 2.06323H7.63998V2.07323Z" fill="#3D3D3D"/>
<path d="M0.97998 3.28319C0.97998 3.28319 1.01998 3.31319 1.03998 3.32319C1.05998 3.33319 1.10998 3.33319 1.12998 3.33319C1.21998 3.33319 1.27998 3.31319 1.35998 3.29319C1.29998 3.34319 1.23998 3.35319 1.16998 3.35319C1.10998 3.35319 1.00998 3.35319 0.97998 3.27319V3.28319Z" fill="#3D3D3D"/>
<path d="M0.999803 3.15328C0.999803 3.07328 1.12981 3.08328 1.18981 3.06328C1.14981 3.05328 1.0798 3.06328 1.0398 3.06328C0.959804 3.06328 0.989805 3.09328 1.00981 3.14328L0.999803 3.15328Z" fill="#3D3D3D"/>
<path d="M1.00977 6.74327C1.00977 6.67327 1.11977 6.70327 1.15977 6.70327C1.19977 6.70327 1.19976 6.68327 1.21976 6.65327C1.22976 6.63327 1.24977 6.61327 1.25977 6.60327C1.21977 6.63327 1.22977 6.70327 1.18977 6.72327C1.13977 6.75327 1.05977 6.70327 1.01977 6.75327C1.01977 6.75327 1.01977 6.73327 1.01977 6.74327H1.00977Z" fill="#3D3D3D"/>
<path d="M0.999848 5.20336C0.999848 5.20336 0.999848 5.24336 0.999848 5.25336C0.999848 5.25336 1.02985 5.28336 1.02985 5.29336C1.02985 5.32336 0.989846 5.33336 0.989846 5.36336C0.989846 5.32336 0.969846 5.23336 0.989846 5.19336L0.999848 5.20336Z" fill="#3D3D3D"/>
<path d="M1.00975 5.3833C1.00975 5.3833 1.04975 5.4033 1.06975 5.4033C1.09975 5.4033 1.09975 5.4033 1.11975 5.4233C1.15975 5.4533 1.16975 5.4033 1.20975 5.4033C1.18975 5.4233 1.16975 5.4233 1.14975 5.4333C1.11975 5.4433 1.11975 5.4333 1.09975 5.4233C1.08975 5.4233 1.04975 5.4233 1.02975 5.4233C1.00975 5.4233 1.00975 5.4733 1.00975 5.4933C1.00975 5.5233 1.03975 5.5233 1.05975 5.5333C1.04975 5.5333 1.01975 5.5333 1.01975 5.5333C1.01975 5.5333 1.01975 5.5333 0.999748 5.5333C0.999748 5.5333 0.989746 5.5033 0.989746 5.4933C0.989746 5.4533 0.98975 5.4233 1.00975 5.3933V5.3833Z" fill="#3D3D3D"/>
<path d="M0.999748 6.60321C0.999748 6.60321 1.07975 6.60321 1.10975 6.56321C1.09975 6.56321 1.07975 6.56321 1.05975 6.56321C1.02975 6.56321 1.00975 6.55321 0.989746 6.54321C0.989746 6.56321 0.989746 6.58321 0.989746 6.59321H0.999748C0.999748 6.59321 0.999748 6.60321 0.999748 6.61321V6.60321Z" fill="#3D3D3D"/>
<path d="M1.77979 2.82324C1.77979 2.82324 1.77979 2.82324 1.77979 2.83324C1.77979 2.83324 1.77979 2.83324 1.78979 2.82324H1.77979Z" fill="white"/>
<path d="M1.91988 1.21338C1.91988 1.21338 1.99988 1.21338 2.03988 1.24338C2.05988 1.25338 2.07988 1.26338 2.08988 1.27338C2.10988 1.29338 2.11988 1.30338 2.12988 1.31338C2.14988 1.34338 2.15988 1.36338 2.15988 1.39338V1.42338C2.15988 1.50338 2.13988 1.56338 2.09988 1.59338C2.07988 1.61338 2.05988 1.62338 2.02988 1.62338C2.02988 1.62338 2.02988 1.62338 2.04988 1.63338C2.05988 1.63338 2.07988 1.64338 2.09988 1.65338C2.11988 1.66338 2.12988 1.67338 2.13988 1.68338C2.16988 1.71338 2.17988 1.76338 2.17988 1.82338V1.84338C2.17988 1.90338 2.17988 1.94338 2.17988 1.94338C2.17988 1.95338 2.17988 1.97338 2.15988 1.98338C2.14988 2.00338 2.11988 2.03338 2.08988 2.05338C2.03988 2.08338 1.97988 2.10338 1.89988 2.10338C1.77988 2.10338 1.69988 2.07338 1.65988 2.01338C1.65988 2.01338 1.64988 1.99338 1.63988 1.97338C1.63988 1.95338 1.62988 1.91338 1.62988 1.85338H1.81988C1.81988 1.91338 1.82988 1.96338 1.84988 1.98338C1.85988 1.99338 1.86988 2.00338 1.88988 2.00338C1.88988 2.00338 1.93988 1.97338 1.94988 1.91338C1.94988 1.90338 1.94988 1.88338 1.94988 1.87338C1.94988 1.82338 1.94988 1.78338 1.92988 1.76338C1.92988 1.76338 1.91988 1.75338 1.90988 1.74338C1.89988 1.74338 1.87988 1.73338 1.86988 1.73338H1.82988V1.54338H1.88988C1.88988 1.54338 1.92988 1.54338 1.93988 1.52338C1.93988 1.52338 1.94988 1.50338 1.95988 1.49338C1.95988 1.47338 1.95988 1.45338 1.95988 1.43338C1.95988 1.37338 1.94988 1.35338 1.91988 1.34338C1.91988 1.34338 1.91988 1.34338 1.90988 1.34338C1.90988 1.34338 1.86988 1.36338 1.85988 1.40338C1.85988 1.42338 1.85988 1.43338 1.85988 1.46338H1.66988C1.66988 1.42338 1.66988 1.38338 1.68988 1.34338C1.70988 1.30338 1.73988 1.26338 1.77988 1.24338C1.81988 1.22338 1.86988 1.21338 1.91988 1.21338Z" fill="#B41818"/>
<path d="M6.67992 9.4232C6.67992 9.4232 6.59992 9.4232 6.55992 9.3932C6.53992 9.3832 6.51993 9.3732 6.50993 9.3632C6.48993 9.3432 6.47992 9.3332 6.46992 9.3232C6.44992 9.2932 6.43993 9.2732 6.43993 9.2432V9.2132C6.43993 9.1332 6.45992 9.0732 6.49992 9.0432C6.51992 9.0232 6.53992 9.0132 6.56992 9.0132C6.56992 9.0132 6.56993 9.0132 6.54993 9.0032C6.53993 9.0032 6.51992 8.9932 6.49992 8.9832C6.47992 8.9732 6.46992 8.9632 6.45992 8.9532C6.42992 8.9232 6.41992 8.8732 6.41992 8.8132V8.7932C6.41992 8.7332 6.41992 8.6932 6.41992 8.6932C6.41992 8.6832 6.41993 8.6632 6.43993 8.6532C6.44993 8.6332 6.47993 8.6032 6.50993 8.5832C6.55993 8.5532 6.61993 8.5332 6.69993 8.5332C6.81993 8.5332 6.89993 8.5632 6.93993 8.6232C6.93993 8.6232 6.94992 8.6432 6.95992 8.6632C6.95992 8.6832 6.96992 8.7232 6.96992 8.7832H6.77992C6.77992 8.7232 6.76992 8.6732 6.74992 8.6532C6.73992 8.6432 6.72992 8.6332 6.70992 8.6332C6.70992 8.6332 6.65993 8.6632 6.64993 8.7232C6.64993 8.7332 6.64993 8.7532 6.64993 8.7632C6.64993 8.8132 6.64992 8.8532 6.66992 8.8732C6.66992 8.8732 6.67993 8.8832 6.68993 8.8932C6.69993 8.8932 6.71993 8.9032 6.72993 8.9032H6.76993V9.0932H6.70992C6.70992 9.0932 6.66993 9.0932 6.65993 9.1132C6.65993 9.1132 6.64992 9.1332 6.63992 9.1432C6.63992 9.1632 6.63992 9.1832 6.63992 9.2032C6.63992 9.2632 6.64992 9.2832 6.67992 9.2932C6.67992 9.2932 6.67993 9.2932 6.68993 9.2932C6.68993 9.2932 6.72992 9.2732 6.73992 9.2332C6.73992 9.2132 6.73992 9.2032 6.73992 9.1732H6.92992C6.92992 9.2132 6.92993 9.2532 6.90993 9.2932C6.88993 9.3332 6.85992 9.3732 6.81992 9.3932C6.77992 9.4132 6.72992 9.4232 6.67992 9.4232Z" fill="#B41818"/>
<path d="M4.31973 1.47339C4.20973 1.79339 3.96973 2.04339 3.71973 2.21339C3.96973 2.38339 4.20973 2.63339 4.31973 2.95339C4.42973 2.63339 4.66972 2.38339 4.91972 2.21339C4.66972 2.04339 4.42973 1.79339 4.31973 1.47339Z" fill="#B41818"/>
<path d="M4.31973 7.70337C4.20973 8.02337 3.96973 8.27337 3.71973 8.44337C3.96973 8.61337 4.20973 8.86337 4.31973 9.18337C4.42973 8.86337 4.66972 8.61337 4.91972 8.44337C4.66972 8.27337 4.42973 8.02337 4.31973 7.70337Z" fill="#B41818"/>
<path d="M4.31973 4.59351C4.20973 4.91351 3.96973 5.16351 3.71973 5.33351C3.96973 5.50351 4.20973 5.75351 4.31973 6.07351C4.42973 5.75351 4.66972 5.50351 4.91972 5.33351C4.66972 5.16351 4.42973 4.91351 4.31973 4.59351Z" fill="#B41818"/>
<path d="M1.96988 2.32324C1.90988 2.50324 1.76988 2.64324 1.62988 2.74324C1.76988 2.84324 1.90988 2.98324 1.96988 3.16324C2.02988 2.98324 2.16988 2.84324 2.30988 2.74324C2.16988 2.64324 2.02988 2.50324 1.96988 2.32324Z" fill="#B41818"/>
<path d="M6.67007 7.4834C6.61007 7.6634 6.47008 7.8034 6.33008 7.9034C6.47008 8.0034 6.61007 8.1434 6.67007 8.3234C6.73007 8.1434 6.87008 8.0034 7.01008 7.9034C6.87008 7.8034 6.73007 7.6634 6.67007 7.4834Z" fill="#B41818"/>
</svg>
