<svg width="8" height="11" viewBox="0 0 8 11" fill="none" xmlns="http://www.w3.org/2000/svg">
<path d="M7.23988 10.0033H1.18988C1.01988 10.0033 0.879883 9.86333 0.879883 9.69333V0.97333C0.879883 0.80333 1.01988 0.66333 1.18988 0.66333H7.23988C7.40988 0.66333 7.54988 0.80333 7.54988 0.97333V9.69333C7.54988 9.86333 7.40988 10.0033 7.23988 10.0033ZM1.18988 0.67333C1.02988 0.67333 0.899883 0.80333 0.899883 0.96333V9.68333C0.899883 9.84333 1.02988 9.97333 1.18988 9.97333H7.23988C7.39988 9.97333 7.52988 9.84333 7.52988 9.68333V0.97333C7.52988 0.81333 7.39988 0.68333 7.23988 0.68333H1.18988V0.67333Z" fill="#3D3D3D"/>
<path d="M7.2401 10.0233H1.1901C1.0001 10.0233 0.850098 9.8733 0.850098 9.6833V0.973301C0.850098 0.783301 1.0001 0.633301 1.1901 0.633301H7.2401C7.4301 0.633301 7.5801 0.783301 7.5801 0.973301V9.6933C7.5801 9.8833 7.4301 10.0333 7.2401 10.0333V10.0233ZM1.1901 0.703301C1.0401 0.703301 0.930098 0.823301 0.930098 0.963301V9.6833C0.930098 9.8333 1.0501 9.9433 1.1901 9.9433H7.2401C7.3901 9.9433 7.5001 9.8233 7.5001 9.6833V0.973301C7.5001 0.823301 7.3801 0.713301 7.2401 0.713301H1.1901V0.703301Z" fill="#3D3D3D"/>
<path d="M7.06012 9.7833H1.36012C1.23012 9.7833 1.12012 9.6733 1.12012 9.5433V1.1233C1.12012 0.983301 1.23012 0.883301 1.36012 0.883301H7.06012C7.19012 0.883301 7.30012 0.993301 7.30012 1.1233V9.5433C7.30012 9.6733 7.19012 9.7833 7.06012 9.7833ZM1.36012 0.933301C1.25012 0.933301 1.17012 1.0233 1.17012 1.1233V9.5433C1.17012 9.6533 1.26012 9.7333 1.36012 9.7333H7.06012C7.17012 9.7333 7.25012 9.6433 7.25012 9.5433V1.1233C7.25012 1.0133 7.16012 0.933301 7.06012 0.933301H1.36012Z" fill="#3D3D3D"/>
<path d="M7.5401 4.29326C7.5401 4.29326 7.4701 4.28326 7.4501 4.29326C7.4401 4.29326 7.4301 4.31326 7.4201 4.31326C7.4001 4.32326 7.3801 4.33326 7.3501 4.33326C7.3701 4.33326 7.3901 4.33326 7.4001 4.33326C7.4201 4.33326 7.4301 4.31326 7.4501 4.31326C7.4701 4.31326 7.4901 4.31326 7.5001 4.32326C7.5001 4.32326 7.5001 4.34326 7.5201 4.32326C7.5201 4.32326 7.5201 4.30326 7.5201 4.29326H7.5401Z" fill="#3D3D3D"/>
<path d="M6.16992 0.65332C6.16992 0.65332 6.22992 0.70332 6.22992 0.75332C6.22992 0.80332 6.20992 0.84332 6.20992 0.89332C6.23992 0.82332 6.26992 0.76332 6.26992 0.68332C6.28992 0.68332 6.30992 0.67332 6.33992 0.67332C6.28992 0.67332 6.24992 0.65332 6.16992 0.65332Z" fill="#3D3D3D"/>
<path d="M6.47998 0.67334C6.47998 0.67334 6.47998 0.75334 6.47998 0.78334C6.48998 0.77334 6.50998 0.71334 6.50998 0.69334C6.50998 0.68334 6.49998 0.67334 6.47998 0.67334Z" fill="#3D3D3D"/>
<path d="M3.22998 0.66333C3.22998 0.66333 3.28998 0.69333 3.29998 0.71333C3.30998 0.73333 3.29998 0.76333 3.31998 0.78333C3.32998 0.81333 3.36998 0.80333 3.39998 0.81333C3.42998 0.81333 3.44998 0.83333 3.47998 0.84333C3.47998 0.82333 3.45998 0.81333 3.43998 0.80333C3.42998 0.80333 3.41998 0.80333 3.40998 0.80333H3.36998C3.36998 0.80333 3.34998 0.74333 3.34998 0.73333C3.34998 0.71333 3.36998 0.70333 3.38998 0.69333C3.37998 0.67333 3.27998 0.69333 3.24998 0.69333L3.22998 0.66333Z" fill="#3D3D3D"/>
<path d="M3.59033 0.67334C3.59033 0.67334 3.60033 0.71334 3.61033 0.73334C3.61033 0.75334 3.61033 0.76334 3.63033 0.77334C3.63033 0.75334 3.63033 0.72334 3.63033 0.69334C3.63033 0.67334 3.63033 0.67334 3.60033 0.67334H3.59033Z" fill="#3D3D3D"/>
<path d="M0.890187 1.12326C0.890187 1.12326 0.950187 1.12326 0.990187 1.13326C1.01019 1.13326 0.990188 1.13326 1.02019 1.13326C1.04019 1.13326 1.05019 1.13326 1.07019 1.13326C1.05019 1.13326 1.03019 1.13326 1.00019 1.13326C0.960187 1.13326 0.970186 1.13326 0.950186 1.11326C0.940186 1.11326 0.920187 1.11326 0.900187 1.11326C0.890187 1.11326 0.900187 1.10326 0.890187 1.09326C0.880187 1.09326 0.890187 1.12326 0.890187 1.13326V1.12326Z" fill="#3D3D3D"/>
<path d="M0.890187 9.29318C0.890187 9.29318 0.950187 9.29318 0.990187 9.30318C1.01019 9.30318 0.990188 9.30318 1.02019 9.30318C1.04019 9.30318 1.05019 9.30318 1.07019 9.30318C1.05019 9.30318 1.03019 9.30318 1.00019 9.30318C0.960187 9.30318 0.970186 9.30318 0.950186 9.28318C0.940186 9.28318 0.920187 9.28318 0.900187 9.28318C0.890187 9.28318 0.900187 9.27318 0.890187 9.26318C0.880187 9.26318 0.890187 9.29318 0.890187 9.30318V9.29318Z" fill="#3D3D3D"/>
<path d="M0.900137 0.883352H0.980137C0.990137 0.863352 0.930138 0.873352 0.930138 0.853352C0.930138 0.843352 0.950138 0.823352 0.940138 0.813352C0.940138 0.783352 0.890137 0.843352 0.890137 0.873352L0.900137 0.883352Z" fill="#3D3D3D"/>
<path d="M4.77 0.66333C4.77 0.66333 4.77 0.66333 4.78 0.68333C4.78 0.68333 4.78 0.70333 4.78 0.71333C4.78 0.73333 4.78 0.75333 4.78 0.77333C4.78 0.76333 4.78 0.75333 4.78 0.73333C4.78 0.72333 4.78 0.71333 4.79 0.70333C4.79 0.69333 4.79 0.69333 4.79 0.67333C4.79 0.67333 4.79 0.67333 4.77 0.67333C4.77 0.67333 4.76 0.67333 4.75 0.67333L4.77 0.66333Z" fill="#3D3D3D"/>
<path d="M5.02002 10.0032C5.02002 10.0032 5.08002 9.95318 5.08002 9.90318C5.08002 9.85318 5.06002 9.81318 5.06002 9.76318C5.09002 9.83318 5.12002 9.89318 5.12002 9.97318C5.14002 9.97318 5.16002 9.98318 5.19002 9.98318C5.14002 9.98318 5.10002 10.0032 5.02002 10.0032Z" fill="#3D3D3D"/>
<path d="M0.870117 8.76318C0.870117 8.76318 0.920118 8.82318 0.970118 8.82318C1.02012 8.82318 1.06012 8.80318 1.11012 8.80318C1.04012 8.83318 0.970118 8.86318 0.900118 8.86318C0.900118 8.88318 0.890118 8.90318 0.890118 8.93318C0.890118 8.88318 0.870117 8.84318 0.870117 8.76318Z" fill="#3D3D3D"/>
<path d="M5.33008 9.98329C5.33008 9.98329 5.33008 9.90329 5.33008 9.87329C5.34008 9.88329 5.36008 9.94329 5.36008 9.96329C5.36008 9.97329 5.35008 9.98329 5.33008 9.98329Z" fill="#3D3D3D"/>
<path d="M2.08008 9.98322C2.08008 9.98322 2.14008 9.95322 2.15008 9.93322C2.16008 9.91322 2.15008 9.88322 2.17008 9.86322C2.18008 9.83322 2.22008 9.84322 2.25008 9.83322C2.28008 9.83322 2.30008 9.81322 2.33008 9.80322C2.33008 9.82322 2.31008 9.83322 2.29008 9.84322C2.28008 9.84322 2.27008 9.84322 2.26008 9.84322H2.22008C2.22008 9.84322 2.20008 9.90322 2.20008 9.91322C2.20008 9.93322 2.22008 9.94322 2.24008 9.95322C2.23008 9.97322 2.13008 9.95322 2.10008 9.95322L2.08008 9.98322Z" fill="#3D3D3D"/>
<path d="M2.43994 9.9833C2.43994 9.9833 2.44994 9.9433 2.45994 9.9233C2.45994 9.9033 2.45994 9.8933 2.47994 9.8833C2.47994 9.9033 2.47994 9.9333 2.47994 9.9633C2.47994 9.9833 2.47994 9.9833 2.44994 9.9833H2.43994Z" fill="#3D3D3D"/>
<path d="M3.6201 9.98329C3.6201 9.98329 3.6201 9.98329 3.6301 9.96329C3.6301 9.96329 3.6301 9.94329 3.6301 9.93329C3.6301 9.91329 3.6301 9.89329 3.6301 9.87329C3.6301 9.88329 3.6301 9.89329 3.6301 9.91329C3.6301 9.92329 3.6301 9.93329 3.6401 9.94329C3.6401 9.95329 3.6401 9.95329 3.6401 9.97329C3.6401 9.97329 3.6401 9.97329 3.6201 9.97329C3.6201 9.97329 3.6101 9.97329 3.6001 9.97329L3.6201 9.98329Z" fill="#3D3D3D"/>
<path d="M7.54021 2.26318C7.47021 2.26318 7.39022 2.26318 7.32022 2.26318C7.28022 2.26318 7.28022 2.26318 7.26022 2.29318C7.22022 2.34318 7.15021 2.34318 7.09021 2.35318C7.05021 2.36318 7.01021 2.37318 6.97021 2.37318C7.00021 2.40318 7.10022 2.37318 7.14022 2.36318C7.17022 2.36318 7.21022 2.34318 7.24022 2.32318C7.28022 2.29318 7.29021 2.28318 7.34021 2.28318C7.38021 2.28318 7.41022 2.28318 7.46022 2.28318C7.47022 2.28318 7.49022 2.28318 7.51022 2.28318C7.53022 2.28318 7.53022 2.29318 7.55022 2.30318C7.55022 2.29318 7.55022 2.28318 7.55022 2.26318H7.54021Z" fill="#3D3D3D"/>
<path d="M7.52987 7.46338C7.45987 7.46338 7.37986 7.46338 7.30986 7.46338C7.26986 7.46338 7.25987 7.49338 7.22987 7.51338C7.19987 7.53338 7.14986 7.54338 7.10986 7.54338C7.14986 7.54338 7.18987 7.54338 7.22987 7.53338C7.26987 7.50338 7.27986 7.49338 7.32986 7.49338C7.39986 7.48338 7.44986 7.49338 7.48986 7.56338C7.50986 7.60338 7.51986 7.61338 7.51986 7.65338C7.51986 7.62338 7.52986 7.59338 7.53986 7.56338C7.53986 7.53338 7.53986 7.50338 7.53986 7.47338L7.52987 7.46338Z" fill="#3D3D3D"/>
<path d="M7.52988 2.51318C7.52988 2.51318 7.41988 2.51318 7.37988 2.52318C7.40988 2.52318 7.42988 2.52318 7.45988 2.52318C7.46988 2.52318 7.47988 2.53318 7.49988 2.54318C7.52988 2.54318 7.54988 2.54318 7.53988 2.51318H7.52988Z" fill="#3D3D3D"/>
<path d="M7.53012 2.07323C7.53012 2.07323 7.40012 2.15323 7.37012 2.14323C7.40012 2.11323 7.44012 2.11323 7.47012 2.09323C7.49012 2.08323 7.51012 2.06323 7.54012 2.06323H7.53012V2.07323Z" fill="#3D3D3D"/>
<path d="M0.870117 3.28319C0.870117 3.28319 0.910119 3.31319 0.930119 3.32319C0.950119 3.33319 1.00012 3.33319 1.02012 3.33319C1.11012 3.33319 1.17012 3.31319 1.25012 3.29319C1.19012 3.34319 1.13012 3.35319 1.06012 3.35319C1.00012 3.35319 0.900117 3.35319 0.870117 3.27319V3.28319Z" fill="#3D3D3D"/>
<path d="M0.889941 3.15328C0.889941 3.07328 1.01994 3.08328 1.07994 3.06328C1.03994 3.05328 0.969942 3.06328 0.929942 3.06328C0.849942 3.06328 0.879941 3.09328 0.899941 3.14328L0.889941 3.15328Z" fill="#3D3D3D"/>
<path d="M0.899902 6.74327C0.899902 6.67327 1.0099 6.70327 1.0499 6.70327C1.0899 6.70327 1.0899 6.68327 1.1099 6.65327C1.1199 6.63327 1.1399 6.61327 1.1499 6.60327C1.1099 6.63327 1.1199 6.70327 1.0799 6.72327C1.0299 6.75327 0.949903 6.70327 0.909903 6.75327C0.909903 6.75327 0.909903 6.73327 0.909903 6.74327H0.899902Z" fill="#3D3D3D"/>
<path d="M0.889983 5.20336C0.889983 5.20336 0.889983 5.24336 0.889983 5.25336C0.889983 5.25336 0.919984 5.28336 0.919984 5.29336C0.919984 5.32336 0.879983 5.33336 0.879983 5.36336C0.879983 5.32336 0.859983 5.23336 0.879983 5.19336L0.889983 5.20336Z" fill="#3D3D3D"/>
<path d="M0.899883 5.3833C0.899883 5.3833 0.939883 5.4033 0.959883 5.4033C0.989883 5.4033 0.989884 5.4033 1.00988 5.4233C1.04988 5.4533 1.05988 5.4033 1.09988 5.4033C1.07988 5.4233 1.05988 5.4233 1.03988 5.4333C1.00988 5.4433 1.00988 5.4333 0.989883 5.4233C0.979883 5.4233 0.939884 5.4233 0.919884 5.4233C0.899884 5.4233 0.899883 5.4733 0.899883 5.4933C0.899883 5.5233 0.929883 5.5233 0.949883 5.5333C0.939883 5.5333 0.909883 5.5333 0.909883 5.5333C0.909883 5.5333 0.909883 5.5333 0.889883 5.5333C0.889883 5.5333 0.879883 5.5033 0.879883 5.4933C0.879883 5.4533 0.879883 5.4233 0.899883 5.3933V5.3833Z" fill="#3D3D3D"/>
<path d="M0.889883 6.60321C0.889883 6.60321 0.969884 6.60321 0.999884 6.56321C0.989884 6.56321 0.969883 6.56321 0.949883 6.56321C0.919883 6.56321 0.899883 6.55321 0.879883 6.54321C0.879883 6.56321 0.879883 6.58321 0.879883 6.59321H0.889883C0.889883 6.59321 0.889883 6.60321 0.889883 6.61321V6.60321Z" fill="#3D3D3D"/>
<path d="M1.68018 2.82324C1.68018 2.82324 1.68018 2.82324 1.68018 2.83324C1.68018 2.83324 1.68018 2.83324 1.69018 2.82324H1.68018Z" fill="white"/>
<path d="M1.48988 1.2334H1.65988V1.5734C1.65988 1.5734 1.66988 1.6034 1.68988 1.6234C1.69988 1.6234 1.71989 1.6434 1.72989 1.6434C1.72989 1.6434 1.69988 1.6634 1.67988 1.6734C1.67988 1.6734 1.66988 1.6934 1.65988 1.7034V1.7234V1.9434C1.65988 1.9434 1.65988 2.0034 1.67988 2.0034C1.67988 2.0034 1.68988 2.0034 1.70988 2.0034H1.72989V2.1034H1.39988V2.0034H1.42988C1.42988 2.0034 1.45988 2.0034 1.45988 1.9934C1.45988 1.9934 1.45988 1.9634 1.45988 1.9234V1.7434C1.45988 1.7434 1.43988 1.6734 1.40988 1.6534C1.39988 1.6534 1.38988 1.6534 1.38988 1.6534C1.38988 1.6534 1.42988 1.6334 1.43988 1.6234C1.44988 1.6034 1.45988 1.5834 1.45988 1.5734V1.4934H1.37988V1.3834C1.37988 1.3834 1.42988 1.3434 1.43988 1.3234C1.45988 1.3034 1.46988 1.2834 1.48988 1.2534V1.2334Z" fill="#B41818"/>
<path d="M2.05976 1.21338H2.07977C2.07977 1.21338 2.15977 1.22338 2.18977 1.24338C2.20977 1.26338 2.22976 1.27338 2.24976 1.29338C2.25976 1.31338 2.27976 1.32338 2.28976 1.34338C2.29976 1.36338 2.31977 1.39338 2.32977 1.43338C2.32977 1.45338 2.33977 1.48338 2.34977 1.53338C2.34977 1.53338 2.34977 1.58338 2.36977 1.60338C2.37977 1.62338 2.39977 1.63338 2.41977 1.64338H2.40976C2.38976 1.64338 2.37976 1.66338 2.35976 1.69338C2.35976 1.69338 2.35976 1.71338 2.35976 1.76338C2.35976 1.79338 2.35976 1.81338 2.35976 1.84338C2.35976 1.88338 2.33977 1.91338 2.32977 1.93338C2.31977 1.96338 2.30976 1.99338 2.28976 2.01338C2.23976 2.09338 2.16976 2.12338 2.08976 2.12338C2.00976 2.12338 1.93977 2.08338 1.88977 2.00338C1.86977 1.98338 1.85976 1.94338 1.83976 1.89338C1.83976 1.86338 1.81977 1.82338 1.81977 1.76338C1.81977 1.73338 1.81977 1.70338 1.81977 1.69338C1.81977 1.68338 1.81976 1.67338 1.80976 1.66338C1.79976 1.64338 1.77977 1.63338 1.75977 1.63338H1.77977C1.79977 1.63338 1.80977 1.61338 1.81977 1.59338C1.81977 1.59338 1.81977 1.56338 1.82977 1.53338C1.82977 1.48338 1.83977 1.44338 1.84977 1.42338C1.85977 1.38338 1.87977 1.35338 1.89977 1.32338C1.91977 1.30338 1.92977 1.28338 1.95977 1.26338C1.97977 1.25338 1.98977 1.24338 2.00977 1.23338C2.03977 1.22338 2.06977 1.21338 2.09977 1.21338H2.05976ZM2.00977 1.60338V1.78338C2.00977 1.89338 2.00977 1.96338 2.02977 1.99338C2.02977 2.02338 2.04977 2.03338 2.06977 2.03338C2.08977 2.03338 2.10977 2.00338 2.11977 1.95338C2.11977 1.91338 2.12976 1.83338 2.12976 1.70338C2.12976 1.52338 2.12977 1.42338 2.11977 1.38338C2.11977 1.34338 2.09977 1.33338 2.07977 1.33338C2.05977 1.33338 2.03977 1.36338 2.02977 1.41338C2.02977 1.46338 2.01976 1.53338 2.01976 1.62338L2.00977 1.60338Z" fill="#B41818"/>
<path d="M6.90016 9.4032H6.73016V9.0632C6.73016 9.0632 6.72016 9.0332 6.70016 9.0132C6.69016 9.0132 6.67016 8.9932 6.66016 8.9932C6.66016 8.9932 6.69016 8.9732 6.71016 8.9632C6.71016 8.9632 6.72016 8.9432 6.73016 8.9332V8.9132V8.6932C6.73016 8.6932 6.73016 8.6332 6.71016 8.6332C6.71016 8.6332 6.70016 8.6332 6.68016 8.6332H6.66016V8.5332H6.99016V8.6332H6.96016C6.96016 8.6332 6.93016 8.6332 6.93016 8.6432C6.93016 8.6432 6.93016 8.6732 6.93016 8.7132V8.8932C6.93016 8.8932 6.95016 8.9632 6.98016 8.9832C6.99016 8.9832 7.00016 8.9832 7.00016 8.9832C7.00016 8.9832 6.96016 9.0032 6.95016 9.0132C6.94016 9.0332 6.93016 9.0532 6.93016 9.0632V9.1432H7.01016V9.2532C7.01016 9.2532 6.96016 9.2932 6.95016 9.3132C6.93016 9.3332 6.92016 9.3532 6.90016 9.3832V9.4032Z" fill="#B41818"/>
<path d="M6.33998 9.43318H6.31998C6.31998 9.43318 6.23998 9.42318 6.20998 9.40318C6.18998 9.38318 6.16998 9.37318 6.14998 9.35318C6.13998 9.33318 6.11998 9.32318 6.10998 9.30318C6.09998 9.28318 6.07998 9.25318 6.06998 9.21318C6.06998 9.19318 6.05998 9.16318 6.04998 9.11318C6.04998 9.11318 6.04998 9.05318 6.02998 9.03318C6.01998 9.01318 5.99998 9.00318 5.97998 8.99318H5.98998C6.00998 8.99318 6.01998 8.97318 6.03998 8.94318C6.03998 8.94318 6.03998 8.92318 6.03998 8.87318C6.03998 8.84318 6.03998 8.82318 6.03998 8.79318C6.03998 8.75318 6.05998 8.72318 6.06998 8.70318C6.07998 8.67318 6.08998 8.64318 6.10998 8.62318C6.15998 8.54318 6.22998 8.51318 6.30998 8.51318C6.38998 8.51318 6.45998 8.55318 6.50998 8.63318C6.52998 8.65318 6.53998 8.69318 6.55998 8.74318C6.55998 8.77318 6.57998 8.81318 6.57998 8.87318C6.57998 8.90318 6.57998 8.93318 6.57998 8.94318C6.57998 8.95318 6.57998 8.96318 6.58998 8.97318C6.59998 8.99318 6.61998 9.00318 6.63998 9.00318H6.61998C6.59998 9.00318 6.58998 9.02318 6.57998 9.04318C6.57998 9.04318 6.57998 9.07318 6.56998 9.10318C6.56998 9.15318 6.55998 9.19318 6.54998 9.21318C6.53998 9.25318 6.51998 9.28318 6.49998 9.31318C6.47998 9.33318 6.46998 9.35318 6.43998 9.37318C6.41998 9.38318 6.40998 9.39318 6.38998 9.40318C6.35998 9.41318 6.32998 9.42318 6.29998 9.42318L6.33998 9.43318ZM6.37998 9.03318V8.85318C6.37998 8.74318 6.37998 8.67318 6.35998 8.65318C6.35998 8.62318 6.33998 8.61318 6.31998 8.61318C6.29998 8.61318 6.27998 8.64318 6.26998 8.69318C6.26998 8.73318 6.25998 8.81318 6.25998 8.94318C6.25998 9.12318 6.25998 9.22318 6.26998 9.26318C6.26998 9.30318 6.28998 9.31318 6.30998 9.31318C6.32998 9.31318 6.34998 9.28318 6.35998 9.23318C6.35998 9.18318 6.36998 9.11318 6.36998 9.02318L6.37998 9.03318Z" fill="#B41818"/>
<path d="M3.14004 1.47339C3.03004 1.79339 2.79004 2.04339 2.54004 2.21339C2.79004 2.38339 3.03004 2.63339 3.14004 2.95339C3.25004 2.63339 3.49004 2.38339 3.74004 2.21339C3.49004 2.04339 3.25004 1.79339 3.14004 1.47339Z" fill="#B41818"/>
<path d="M3.14004 7.70337C3.03004 8.02337 2.79004 8.27337 2.54004 8.44337C2.79004 8.61337 3.03004 8.86337 3.14004 9.18337C3.25004 8.86337 3.49004 8.61337 3.74004 8.44337C3.49004 8.27337 3.25004 8.02337 3.14004 7.70337Z" fill="#B41818"/>
<path d="M5.28018 1.47339C5.17018 1.79339 4.93018 2.04339 4.68018 2.21339C4.93018 2.38339 5.17018 2.63339 5.28018 2.95339C5.39018 2.63339 5.63018 2.38339 5.88018 2.21339C5.63018 2.04339 5.39018 1.79339 5.28018 1.47339Z" fill="#B41818"/>
<path d="M3.14004 3.55347C3.03004 3.87347 2.79004 4.12347 2.54004 4.29347C2.79004 4.46347 3.03004 4.71347 3.14004 5.03347C3.25004 4.71347 3.49004 4.46347 3.74004 4.29347C3.49004 4.12347 3.25004 3.87347 3.14004 3.55347Z" fill="#B41818"/>
<path d="M5.28018 3.55347C5.17018 3.87347 4.93018 4.12347 4.68018 4.29347C4.93018 4.46347 5.17018 4.71347 5.28018 5.03347C5.39018 4.71347 5.63018 4.46347 5.88018 4.29347C5.63018 4.12347 5.39018 3.87347 5.28018 3.55347Z" fill="#B41818"/>
<path d="M4.2001 2.50342C4.0901 2.82342 3.8501 3.07342 3.6001 3.24342C3.8501 3.41342 4.0901 3.66342 4.2001 3.98342C4.3101 3.66342 4.5501 3.41342 4.8001 3.24342C4.5501 3.07342 4.3101 2.82342 4.2001 2.50342Z" fill="#B41818"/>
<path d="M4.2001 6.78345C4.0901 7.10345 3.8501 7.35345 3.6001 7.52345C3.8501 7.69345 4.0901 7.94345 4.2001 8.26345C4.3101 7.94345 4.5501 7.69345 4.8001 7.52345C4.5501 7.35345 4.3101 7.10345 4.2001 6.78345Z" fill="#B41818"/>
<path d="M3.14004 5.82349C3.03004 6.14349 2.79004 6.39349 2.54004 6.56349C2.79004 6.73349 3.03004 6.98349 3.14004 7.30349C3.25004 6.98349 3.49004 6.73349 3.74004 6.56349C3.49004 6.39349 3.25004 6.14349 3.14004 5.82349Z" fill="#B41818"/>
<path d="M5.28018 5.82349C5.17018 6.14349 4.93018 6.39349 4.68018 6.56349C4.93018 6.73349 5.17018 6.98349 5.28018 7.30349C5.39018 6.98349 5.63018 6.73349 5.88018 6.56349C5.63018 6.39349 5.39018 6.14349 5.28018 5.82349Z" fill="#B41818"/>
<path d="M5.28018 7.70337C5.17018 8.02337 4.93018 8.27337 4.68018 8.44337C4.93018 8.61337 5.17018 8.86337 5.28018 9.18337C5.39018 8.86337 5.63018 8.61337 5.88018 8.44337C5.63018 8.27337 5.39018 8.02337 5.28018 7.70337Z" fill="#B41818"/>
<path d="M1.86002 2.32324C1.80002 2.50324 1.66002 2.64324 1.52002 2.74324C1.66002 2.84324 1.80002 2.98324 1.86002 3.16324C1.92002 2.98324 2.06002 2.84324 2.20002 2.74324C2.06002 2.64324 1.92002 2.50324 1.86002 2.32324Z" fill="#B41818"/>
<path d="M6.56021 7.4834C6.50021 7.6634 6.36021 7.8034 6.22021 7.9034C6.36021 8.0034 6.50021 8.1434 6.56021 8.3234C6.62021 8.1434 6.76022 8.0034 6.90022 7.9034C6.76022 7.8034 6.62021 7.6634 6.56021 7.4834Z" fill="#B41818"/>
</svg>
