<svg width="8" height="11" viewBox="0 0 8 11" fill="none" xmlns="http://www.w3.org/2000/svg">
<path d="M7.15981 10.0033H1.10981C0.939806 10.0033 0.799805 9.86333 0.799805 9.69333V0.97333C0.799805 0.80333 0.939806 0.66333 1.10981 0.66333H7.15981C7.32981 0.66333 7.4698 0.80333 7.4698 0.97333V9.69333C7.4698 9.86333 7.32981 10.0033 7.15981 10.0033ZM1.10981 0.67333C0.949806 0.67333 0.819805 0.80333 0.819805 0.96333V9.68333C0.819805 9.84333 0.949806 9.97333 1.10981 9.97333H7.15981C7.31981 9.97333 7.44981 9.84333 7.44981 9.68333V0.97333C7.44981 0.81333 7.31981 0.68333 7.15981 0.68333H1.10981V0.67333Z" fill="#3D3D3D"/>
<path d="M7.16002 10.0233H1.11002C0.92002 10.0233 0.77002 9.8733 0.77002 9.6833V0.973301C0.77002 0.783301 0.92002 0.633301 1.11002 0.633301H7.16002C7.35002 0.633301 7.50002 0.783301 7.50002 0.973301V9.6933C7.50002 9.8833 7.35002 10.0333 7.16002 10.0333V10.0233ZM1.11002 0.703301C0.96002 0.703301 0.850018 0.823301 0.850018 0.963301V9.6833C0.850018 9.8333 0.97002 9.9433 1.11002 9.9433H7.16002C7.31002 9.9433 7.42002 9.8233 7.42002 9.6833V0.973301C7.42002 0.823301 7.30002 0.713301 7.16002 0.713301H1.11002V0.703301Z" fill="#3D3D3D"/>
<path d="M6.98004 9.7833H1.28004C1.15004 9.7833 1.04004 9.6733 1.04004 9.5433V1.1233C1.04004 0.983301 1.15004 0.883301 1.28004 0.883301H6.98004C7.11004 0.883301 7.22004 0.993301 7.22004 1.1233V9.5433C7.22004 9.6733 7.11004 9.7833 6.98004 9.7833ZM1.28004 0.933301C1.17004 0.933301 1.09004 1.0233 1.09004 1.1233V9.5433C1.09004 9.6533 1.18004 9.7333 1.28004 9.7333H6.98004C7.09004 9.7333 7.17004 9.6433 7.17004 9.5433V1.1233C7.17004 1.0133 7.08004 0.933301 6.98004 0.933301H1.28004Z" fill="#3D3D3D"/>
<path d="M7.46002 4.29326C7.46002 4.29326 7.39002 4.28326 7.37002 4.29326C7.36002 4.29326 7.35002 4.31326 7.34002 4.31326C7.32002 4.32326 7.30002 4.33326 7.27002 4.33326C7.29002 4.33326 7.31001 4.33326 7.32001 4.33326C7.34001 4.33326 7.35002 4.31326 7.37002 4.31326C7.39002 4.31326 7.41002 4.31326 7.42002 4.32326C7.42002 4.32326 7.42002 4.34326 7.44002 4.32326C7.44002 4.32326 7.44002 4.30326 7.44002 4.29326H7.46002Z" fill="#3D3D3D"/>
<path d="M6.08984 0.65332C6.08984 0.65332 6.14984 0.70332 6.14984 0.75332C6.14984 0.80332 6.12984 0.84332 6.12984 0.89332C6.15984 0.82332 6.18984 0.76332 6.18984 0.68332C6.20984 0.68332 6.22984 0.67332 6.25984 0.67332C6.20984 0.67332 6.16984 0.65332 6.08984 0.65332Z" fill="#3D3D3D"/>
<path d="M6.3999 0.67334C6.3999 0.67334 6.3999 0.75334 6.3999 0.78334C6.4099 0.77334 6.4299 0.71334 6.4299 0.69334C6.4299 0.68334 6.4199 0.67334 6.3999 0.67334Z" fill="#3D3D3D"/>
<path d="M3.1499 0.66333C3.1499 0.66333 3.2099 0.69333 3.2199 0.71333C3.2299 0.73333 3.21991 0.76333 3.23991 0.78333C3.24991 0.81333 3.2899 0.80333 3.3199 0.81333C3.3499 0.81333 3.3699 0.83333 3.3999 0.84333C3.3999 0.82333 3.3799 0.81333 3.3599 0.80333C3.3499 0.80333 3.3399 0.80333 3.3299 0.80333H3.2899C3.2899 0.80333 3.26991 0.74333 3.26991 0.73333C3.26991 0.71333 3.28991 0.70333 3.30991 0.69333C3.29991 0.67333 3.19991 0.69333 3.16991 0.69333L3.1499 0.66333Z" fill="#3D3D3D"/>
<path d="M3.51025 0.67334C3.51025 0.67334 3.52026 0.71334 3.53026 0.73334C3.53026 0.75334 3.53025 0.76334 3.55025 0.77334C3.55025 0.75334 3.55025 0.72334 3.55025 0.69334C3.55025 0.67334 3.55026 0.67334 3.52026 0.67334H3.51025Z" fill="#3D3D3D"/>
<path d="M0.810109 1.12326C0.810109 1.12326 0.870111 1.12326 0.910111 1.13326C0.930111 1.13326 0.91011 1.13326 0.94011 1.13326C0.96011 1.13326 0.970109 1.13326 0.990109 1.13326C0.970109 1.13326 0.950109 1.13326 0.920109 1.13326C0.880109 1.13326 0.89011 1.13326 0.87011 1.11326C0.86011 1.11326 0.840111 1.11326 0.820111 1.11326C0.810111 1.11326 0.820109 1.10326 0.810109 1.09326C0.800109 1.09326 0.810109 1.12326 0.810109 1.13326V1.12326Z" fill="#3D3D3D"/>
<path d="M0.810109 9.29318C0.810109 9.29318 0.870111 9.29318 0.910111 9.30318C0.930111 9.30318 0.91011 9.30318 0.94011 9.30318C0.96011 9.30318 0.970109 9.30318 0.990109 9.30318C0.970109 9.30318 0.950109 9.30318 0.920109 9.30318C0.880109 9.30318 0.89011 9.30318 0.87011 9.28318C0.86011 9.28318 0.840111 9.28318 0.820111 9.28318C0.810111 9.28318 0.820109 9.27318 0.810109 9.26318C0.800109 9.26318 0.810109 9.29318 0.810109 9.30318V9.29318Z" fill="#3D3D3D"/>
<path d="M0.820208 0.883352H0.900206C0.910206 0.863352 0.850207 0.873352 0.850207 0.853352C0.850207 0.843352 0.870209 0.823352 0.860209 0.813352C0.860209 0.783352 0.800206 0.843352 0.810206 0.873352L0.820208 0.883352Z" fill="#3D3D3D"/>
<path d="M4.68992 0.66333C4.68992 0.66333 4.68992 0.66333 4.69992 0.68333C4.69992 0.68333 4.69992 0.70333 4.69992 0.71333C4.69992 0.73333 4.69992 0.75333 4.69992 0.77333C4.69992 0.76333 4.69992 0.75333 4.69992 0.73333C4.69992 0.72333 4.69992 0.71333 4.70992 0.70333C4.70992 0.69333 4.70992 0.69333 4.70992 0.67333C4.70992 0.67333 4.70992 0.67333 4.68992 0.67333C4.68992 0.67333 4.67992 0.67333 4.66992 0.67333L4.68992 0.66333Z" fill="#3D3D3D"/>
<path d="M4.93994 10.0032C4.93994 10.0032 4.99994 9.95318 4.99994 9.90318C4.99994 9.85318 4.97994 9.81318 4.97994 9.76318C5.00994 9.83318 5.03994 9.89318 5.03994 9.97318C5.05994 9.97318 5.07994 9.98318 5.10994 9.98318C5.05994 9.98318 5.01994 10.0032 4.93994 10.0032Z" fill="#3D3D3D"/>
<path d="M0.790039 8.76318C0.790039 8.76318 0.840038 8.82318 0.890038 8.82318C0.940038 8.82318 0.980037 8.80318 1.03004 8.80318C0.960037 8.83318 0.890038 8.86318 0.820038 8.86318C0.820038 8.88318 0.810036 8.90318 0.810036 8.93318C0.810036 8.88318 0.790039 8.84318 0.790039 8.76318Z" fill="#3D3D3D"/>
<path d="M5.25 9.98329C5.25 9.98329 5.25 9.90329 5.25 9.87329C5.26 9.88329 5.28001 9.94329 5.28001 9.96329C5.28001 9.97329 5.27 9.98329 5.25 9.98329Z" fill="#3D3D3D"/>
<path d="M2 9.98322C2 9.98322 2.06 9.95322 2.07 9.93322C2.08 9.91322 2.07 9.88322 2.09 9.86322C2.1 9.83322 2.14 9.84322 2.17 9.83322C2.2 9.83322 2.22 9.81322 2.25 9.80322C2.25 9.82322 2.23 9.83322 2.21 9.84322C2.2 9.84322 2.19 9.84322 2.18 9.84322H2.14C2.14 9.84322 2.12 9.90322 2.12 9.91322C2.12 9.93322 2.14 9.94322 2.16 9.95322C2.15 9.97322 2.05 9.95322 2.02 9.95322L2 9.98322Z" fill="#3D3D3D"/>
<path d="M2.35986 9.9833C2.35986 9.9833 2.36987 9.9433 2.37987 9.9233C2.37987 9.9033 2.37986 9.8933 2.39986 9.8833C2.39986 9.9033 2.39986 9.9333 2.39986 9.9633C2.39986 9.9833 2.39987 9.9833 2.36987 9.9833H2.35986Z" fill="#3D3D3D"/>
<path d="M3.54002 9.98329C3.54002 9.98329 3.54002 9.98329 3.55002 9.96329C3.55002 9.96329 3.55002 9.94329 3.55002 9.93329C3.55002 9.91329 3.55002 9.89329 3.55002 9.87329C3.55002 9.88329 3.55002 9.89329 3.55002 9.91329C3.55002 9.92329 3.55002 9.93329 3.56002 9.94329C3.56002 9.95329 3.56002 9.95329 3.56002 9.97329C3.56002 9.97329 3.56002 9.97329 3.54002 9.97329C3.54002 9.97329 3.53002 9.97329 3.52002 9.97329L3.54002 9.98329Z" fill="#3D3D3D"/>
<path d="M7.46014 2.26318C7.39014 2.26318 7.31014 2.26318 7.24014 2.26318C7.20014 2.26318 7.20014 2.26318 7.18014 2.29318C7.14014 2.34318 7.07014 2.34318 7.01014 2.35318C6.97014 2.36318 6.93014 2.37318 6.89014 2.37318C6.92014 2.40318 7.02014 2.37318 7.06014 2.36318C7.09014 2.36318 7.13014 2.34318 7.16014 2.32318C7.20014 2.29318 7.21014 2.28318 7.26014 2.28318C7.30014 2.28318 7.33014 2.28318 7.38014 2.28318C7.39014 2.28318 7.41014 2.28318 7.43014 2.28318C7.45014 2.28318 7.45014 2.29318 7.47014 2.30318C7.47014 2.29318 7.47014 2.28318 7.47014 2.26318H7.46014Z" fill="#3D3D3D"/>
<path d="M7.44978 7.46338C7.37978 7.46338 7.29978 7.46338 7.22978 7.46338C7.18978 7.46338 7.17978 7.49338 7.14978 7.51338C7.11978 7.53338 7.06979 7.54338 7.02979 7.54338C7.06979 7.54338 7.10978 7.54338 7.14978 7.53338C7.18978 7.50338 7.19978 7.49338 7.24978 7.49338C7.31978 7.48338 7.36978 7.49338 7.40978 7.56338C7.42978 7.60338 7.43978 7.61338 7.43978 7.65338C7.43978 7.62338 7.44979 7.59338 7.45979 7.56338C7.45979 7.53338 7.45979 7.50338 7.45979 7.47338L7.44978 7.46338Z" fill="#3D3D3D"/>
<path d="M7.44981 2.51318C7.44981 2.51318 7.3398 2.51318 7.2998 2.52318C7.3298 2.52318 7.34981 2.52318 7.37981 2.52318C7.38981 2.52318 7.39981 2.53318 7.41981 2.54318C7.44981 2.54318 7.46981 2.54318 7.45981 2.51318H7.44981Z" fill="#3D3D3D"/>
<path d="M7.45004 2.07323C7.45004 2.07323 7.32004 2.15323 7.29004 2.14323C7.32004 2.11323 7.36004 2.11323 7.39004 2.09323C7.41004 2.08323 7.43004 2.06323 7.46004 2.06323H7.45004V2.07323Z" fill="#3D3D3D"/>
<path d="M0.790039 3.28319C0.790039 3.28319 0.830037 3.31319 0.850037 3.32319C0.870037 3.33319 0.920037 3.33319 0.940037 3.33319C1.03004 3.33319 1.09004 3.31319 1.17004 3.29319C1.11004 3.34319 1.05004 3.35319 0.980038 3.35319C0.920038 3.35319 0.820039 3.35319 0.790039 3.27319V3.28319Z" fill="#3D3D3D"/>
<path d="M0.809862 3.15328C0.809862 3.07328 0.939864 3.08328 0.999864 3.06328C0.959864 3.05328 0.889863 3.06328 0.849863 3.06328C0.769863 3.06328 0.799864 3.09328 0.819864 3.14328L0.809862 3.15328Z" fill="#3D3D3D"/>
<path d="M0.819824 6.74327C0.819824 6.67327 0.929822 6.70327 0.969822 6.70327C1.00982 6.70327 1.00982 6.68327 1.02982 6.65327C1.03982 6.63327 1.05982 6.61327 1.06982 6.60327C1.02982 6.63327 1.03982 6.70327 0.999825 6.72327C0.949825 6.75327 0.869823 6.70327 0.829823 6.75327C0.829823 6.75327 0.829823 6.73327 0.829823 6.74327H0.819824Z" fill="#3D3D3D"/>
<path d="M0.809903 5.20336C0.809903 5.20336 0.809903 5.24336 0.809903 5.25336C0.809903 5.25336 0.839905 5.28336 0.839905 5.29336C0.839905 5.32336 0.799905 5.33336 0.799905 5.36336C0.799905 5.32336 0.779905 5.23336 0.799905 5.19336L0.809903 5.20336Z" fill="#3D3D3D"/>
<path d="M0.819805 5.3833C0.819805 5.3833 0.859807 5.4033 0.879807 5.4033C0.909807 5.4033 0.909806 5.4033 0.929806 5.4233C0.969806 5.4533 0.979806 5.4033 1.01981 5.4033C0.999806 5.4233 0.979805 5.4233 0.959805 5.4333C0.929805 5.4433 0.929805 5.4333 0.909805 5.4233C0.899805 5.4233 0.859806 5.4233 0.839806 5.4233C0.819806 5.4233 0.819805 5.4733 0.819805 5.4933C0.819805 5.5233 0.849804 5.5233 0.869804 5.5333C0.859804 5.5333 0.829803 5.5333 0.829803 5.5333C0.829803 5.5333 0.829803 5.5333 0.809803 5.5333C0.809803 5.5333 0.799805 5.5033 0.799805 5.4933C0.799805 5.4533 0.799805 5.4233 0.819805 5.3933V5.3833Z" fill="#3D3D3D"/>
<path d="M0.809803 6.60321C0.809803 6.60321 0.889804 6.60321 0.919804 6.56321C0.909804 6.56321 0.889804 6.56321 0.869804 6.56321C0.839804 6.56321 0.819805 6.55321 0.799805 6.54321C0.799805 6.56321 0.799805 6.58321 0.799805 6.59321H0.809803C0.809803 6.59321 0.809803 6.60321 0.809803 6.61321V6.60321Z" fill="#3D3D3D"/>
<path d="M1.6001 2.82324C1.6001 2.82324 1.6001 2.82324 1.6001 2.83324C1.6001 2.83324 1.6001 2.83324 1.6101 2.82324H1.6001Z" fill="white"/>
<path d="M1.76017 1.21338H1.78017C1.78017 1.21338 1.85017 1.21338 1.89017 1.24338C1.91017 1.25338 1.93017 1.27338 1.94017 1.28338C1.96017 1.30338 1.97018 1.31338 1.98018 1.33338C1.99018 1.35338 2.00017 1.37338 2.01017 1.39338C2.01017 1.41338 2.01017 1.43338 2.01017 1.44338H1.83017C1.83017 1.44338 1.83017 1.44338 1.83017 1.42338C1.83017 1.37338 1.80017 1.35338 1.78017 1.35338C1.78017 1.35338 1.74018 1.37338 1.73018 1.41338C1.72018 1.45338 1.71017 1.50338 1.71017 1.58338C1.71017 1.58338 1.78017 1.54338 1.83017 1.54338C1.89017 1.54338 1.94018 1.57338 1.98018 1.64338C1.99018 1.66338 2.00017 1.68338 2.01017 1.72338C2.02017 1.77338 2.03017 1.81338 2.03017 1.85338V1.88338C2.03017 1.95338 2.01018 2.01338 1.98018 2.05338C1.94018 2.10338 1.87017 2.12338 1.78017 2.12338C1.64017 2.12338 1.56018 2.05338 1.52018 1.92338C1.51018 1.88338 1.50018 1.81338 1.50018 1.73338C1.50018 1.73338 1.50018 1.70338 1.48018 1.68338C1.48018 1.68338 1.46018 1.66338 1.45018 1.66338C1.45018 1.66338 1.44018 1.66338 1.43018 1.66338C1.43018 1.66338 1.47018 1.64338 1.48018 1.63338C1.50018 1.61338 1.50018 1.59338 1.50018 1.55338C1.50018 1.47338 1.52018 1.41338 1.52018 1.39338C1.52018 1.36338 1.54017 1.34338 1.55017 1.32338C1.56017 1.30338 1.58017 1.28338 1.60017 1.27338C1.63017 1.25338 1.66017 1.23338 1.71017 1.22338C1.73017 1.22338 1.75017 1.22338 1.76017 1.22338V1.21338ZM1.71017 1.82338C1.71017 1.91338 1.71017 1.95338 1.71017 1.96338C1.71017 2.00338 1.74017 2.01338 1.76017 2.01338C1.78017 2.01338 1.80017 2.00338 1.81017 1.97338C1.81017 1.94338 1.82018 1.89338 1.82018 1.82338C1.82018 1.76338 1.82017 1.72338 1.80017 1.70338C1.80017 1.70338 1.78018 1.69338 1.77018 1.69338C1.77018 1.69338 1.73017 1.70338 1.72017 1.73338C1.72017 1.75338 1.72017 1.78338 1.72017 1.82338H1.71017Z" fill="#B41818"/>
<path d="M6.45995 9.42318H6.43994C6.43994 9.42318 6.36994 9.42318 6.32994 9.39318C6.30994 9.38318 6.28995 9.36318 6.27995 9.35318C6.25995 9.33318 6.24994 9.32318 6.23994 9.30318C6.22994 9.28318 6.21995 9.26318 6.20995 9.24318C6.20995 9.22318 6.20995 9.20318 6.20995 9.19318H6.38994C6.38994 9.19318 6.38994 9.19318 6.38994 9.21318C6.38994 9.26318 6.41994 9.28318 6.43994 9.28318C6.43994 9.28318 6.47994 9.26318 6.48994 9.22318C6.49994 9.18318 6.50994 9.13318 6.50994 9.05318C6.50994 9.05318 6.43994 9.09318 6.38994 9.09318C6.32994 9.09318 6.27994 9.06318 6.23994 8.99318C6.22994 8.97318 6.21995 8.95318 6.20995 8.91318C6.19995 8.86318 6.18994 8.82318 6.18994 8.78318V8.75318C6.18994 8.68318 6.20994 8.62318 6.23994 8.58318C6.27994 8.53318 6.34994 8.51318 6.43994 8.51318C6.57994 8.51318 6.65994 8.58318 6.69994 8.71318C6.70994 8.75318 6.71994 8.82318 6.71994 8.90318C6.71994 8.90318 6.71994 8.93318 6.73994 8.95318C6.73994 8.95318 6.75994 8.97318 6.76994 8.97318C6.76994 8.97318 6.77994 8.97318 6.78994 8.97318C6.78994 8.97318 6.74994 8.99318 6.73994 9.00318C6.71994 9.02318 6.71994 9.04318 6.71994 9.08318C6.71994 9.16318 6.69994 9.22318 6.69994 9.24318C6.69994 9.27318 6.67994 9.29318 6.66994 9.31318C6.65994 9.33318 6.63994 9.35318 6.61994 9.36318C6.58994 9.38318 6.55994 9.40318 6.50994 9.41318C6.48994 9.41318 6.46995 9.41318 6.45995 9.41318V9.42318ZM6.50994 8.81318C6.50994 8.72318 6.50994 8.68318 6.50994 8.67318C6.50994 8.63318 6.47995 8.62318 6.45995 8.62318C6.43995 8.62318 6.41994 8.63318 6.40994 8.66318C6.40994 8.69318 6.39994 8.74318 6.39994 8.81318C6.39994 8.87318 6.39994 8.91318 6.41994 8.93318C6.41994 8.93318 6.43994 8.94318 6.44994 8.94318C6.44994 8.94318 6.48994 8.93318 6.49994 8.90318C6.49994 8.88318 6.49994 8.85318 6.49994 8.81318H6.50994Z" fill="#B41818"/>
<path d="M3.05996 1.47339C2.94996 1.79339 2.70996 2.04339 2.45996 2.21339C2.70996 2.38339 2.94996 2.63339 3.05996 2.95339C3.16996 2.63339 3.40996 2.38339 3.65996 2.21339C3.40996 2.04339 3.16996 1.79339 3.05996 1.47339Z" fill="#B41818"/>
<path d="M3.05996 7.70337C2.94996 8.02337 2.70996 8.27337 2.45996 8.44337C2.70996 8.61337 2.94996 8.86337 3.05996 9.18337C3.16996 8.86337 3.40996 8.61337 3.65996 8.44337C3.40996 8.27337 3.16996 8.02337 3.05996 7.70337Z" fill="#B41818"/>
<path d="M5.2001 1.47339C5.0901 1.79339 4.8501 2.04339 4.6001 2.21339C4.8501 2.38339 5.0901 2.63339 5.2001 2.95339C5.3101 2.63339 5.55009 2.38339 5.80009 2.21339C5.55009 2.04339 5.3101 1.79339 5.2001 1.47339Z" fill="#B41818"/>
<path d="M3.05996 4.47339C2.94996 4.79339 2.70996 5.04339 2.45996 5.21339C2.70996 5.38339 2.94996 5.63339 3.05996 5.95339C3.16996 5.63339 3.40996 5.38339 3.65996 5.21339C3.40996 5.04339 3.16996 4.79339 3.05996 4.47339Z" fill="#B41818"/>
<path d="M5.2001 4.47339C5.0901 4.79339 4.8501 5.04339 4.6001 5.21339C4.8501 5.38339 5.0901 5.63339 5.2001 5.95339C5.3101 5.63339 5.55009 5.38339 5.80009 5.21339C5.55009 5.04339 5.3101 4.79339 5.2001 4.47339Z" fill="#B41818"/>
<path d="M5.2001 7.70337C5.0901 8.02337 4.8501 8.27337 4.6001 8.44337C4.8501 8.61337 5.0901 8.86337 5.2001 9.18337C5.3101 8.86337 5.55009 8.61337 5.80009 8.44337C5.55009 8.27337 5.3101 8.02337 5.2001 7.70337Z" fill="#B41818"/>
<path d="M1.77994 2.32324C1.71994 2.50324 1.57994 2.64324 1.43994 2.74324C1.57994 2.84324 1.71994 2.98324 1.77994 3.16324C1.83994 2.98324 1.97994 2.84324 2.11994 2.74324C1.97994 2.64324 1.83994 2.50324 1.77994 2.32324Z" fill="#B41818"/>
<path d="M6.48014 7.4834C6.42014 7.6634 6.28014 7.8034 6.14014 7.9034C6.28014 8.0034 6.42014 8.1434 6.48014 8.3234C6.54014 8.1434 6.68014 8.0034 6.82014 7.9034C6.68014 7.8034 6.54014 7.6634 6.48014 7.4834Z" fill="#B41818"/>
</svg>
