<svg width="8" height="11" viewBox="0 0 8 11" fill="none" xmlns="http://www.w3.org/2000/svg">
<path d="M7.31947 10.0033H1.26947C1.09947 10.0033 0.959473 9.86333 0.959473 9.69333V0.97333C0.959473 0.80333 1.09947 0.66333 1.26947 0.66333H7.31947C7.48947 0.66333 7.62947 0.80333 7.62947 0.97333V9.69333C7.62947 9.86333 7.48947 10.0033 7.31947 10.0033ZM1.26947 0.67333C1.10947 0.67333 0.969473 0.81333 0.969473 0.97333V9.69333C0.969473 9.85333 1.09947 9.98333 1.25947 9.98333H7.30947C7.46947 9.98333 7.59947 9.85333 7.59947 9.69333V0.97333C7.59947 0.81333 7.46947 0.68333 7.30947 0.68333H1.26947V0.67333Z" fill="#3D3D3D"/>
<path d="M7.31969 10.0233H1.26969C1.07969 10.0233 0.929688 9.8733 0.929688 9.6833V0.973301C0.929688 0.783301 1.07969 0.633301 1.26969 0.633301H7.31969C7.50969 0.633301 7.65969 0.783301 7.65969 0.973301V9.6933C7.65969 9.8833 7.50969 10.0333 7.31969 10.0333V10.0233ZM1.26969 0.703301C1.11969 0.703301 0.999688 0.823301 0.999688 0.973301V9.6933C0.999688 9.8433 1.11969 9.9533 1.25969 9.9533H7.30969C7.45969 9.9533 7.56969 9.8333 7.56969 9.6933V0.973301C7.56969 0.823301 7.44969 0.713301 7.30969 0.713301H1.26969V0.703301Z" fill="#3D3D3D"/>
<path d="M7.13971 9.7833H1.43971C1.30971 9.7833 1.19971 9.6733 1.19971 9.5433V1.1233C1.19971 0.983301 1.30971 0.883301 1.43971 0.883301H7.13971C7.26971 0.883301 7.37971 0.993301 7.37971 1.1233V9.5433C7.37971 9.6733 7.26971 9.7833 7.13971 9.7833ZM1.43971 0.933301C1.32971 0.933301 1.24971 1.0233 1.24971 1.1233V9.5433C1.24971 9.6533 1.33971 9.7333 1.43971 9.7333H7.13971C7.24971 9.7333 7.32971 9.6433 7.32971 9.5433V1.1233C7.32971 1.0133 7.23971 0.933301 7.13971 0.933301H1.43971Z" fill="#3D3D3D"/>
<path d="M7.61969 4.29326C7.61969 4.29326 7.54969 4.28326 7.52969 4.29326C7.51969 4.29326 7.50969 4.31326 7.49969 4.31326C7.47969 4.32326 7.45969 4.33326 7.42969 4.33326C7.44969 4.33326 7.46969 4.33326 7.47969 4.33326C7.49969 4.33326 7.50969 4.31326 7.52969 4.31326C7.54969 4.31326 7.56969 4.31326 7.57969 4.32326C7.57969 4.32326 7.57969 4.34326 7.59969 4.32326C7.59969 4.32326 7.59969 4.30326 7.59969 4.29326H7.61969Z" fill="#3D3D3D"/>
<path d="M6.24951 0.65332C6.24951 0.65332 6.30951 0.70332 6.30951 0.75332C6.30951 0.80332 6.28951 0.84332 6.28951 0.89332C6.31951 0.82332 6.34951 0.76332 6.34951 0.68332C6.36951 0.68332 6.38951 0.67332 6.41951 0.67332C6.36951 0.67332 6.32951 0.65332 6.24951 0.65332Z" fill="#3D3D3D"/>
<path d="M6.55957 0.67334C6.55957 0.67334 6.55957 0.75334 6.55957 0.78334C6.56957 0.77334 6.58957 0.71334 6.58957 0.69334C6.58957 0.68334 6.57957 0.67334 6.55957 0.67334Z" fill="#3D3D3D"/>
<path d="M3.30957 0.66333C3.30957 0.66333 3.36957 0.69333 3.37957 0.71333C3.38957 0.73333 3.37957 0.76333 3.39957 0.78333C3.40957 0.81333 3.44957 0.80333 3.47957 0.81333C3.50957 0.81333 3.52957 0.83333 3.55957 0.84333C3.55957 0.82333 3.53957 0.81333 3.51957 0.80333C3.50957 0.80333 3.49957 0.80333 3.48957 0.80333H3.44957C3.44957 0.80333 3.42957 0.74333 3.42957 0.73333C3.42957 0.71333 3.44957 0.70333 3.46957 0.69333C3.45957 0.67333 3.35957 0.69333 3.32957 0.69333L3.30957 0.66333Z" fill="#3D3D3D"/>
<path d="M3.66992 0.67334C3.66992 0.67334 3.67992 0.71334 3.68992 0.73334C3.68992 0.75334 3.68992 0.76334 3.70992 0.77334C3.70992 0.75334 3.70992 0.72334 3.70992 0.69334C3.70992 0.67334 3.70992 0.67334 3.67992 0.67334H3.66992Z" fill="#3D3D3D"/>
<path d="M0.969776 1.12326C0.969776 1.12326 1.02978 1.12326 1.06978 1.13326C1.08978 1.13326 1.06978 1.13326 1.09978 1.13326C1.11978 1.13326 1.12978 1.13326 1.14978 1.13326C1.12978 1.13326 1.10978 1.13326 1.07978 1.13326C1.03978 1.13326 1.04978 1.13326 1.02978 1.11326C1.01978 1.11326 0.999776 1.11326 0.979776 1.11326C0.969776 1.11326 0.979776 1.10326 0.969776 1.09326C0.959776 1.09326 0.969776 1.12326 0.969776 1.13326V1.12326Z" fill="#3D3D3D"/>
<path d="M0.969776 9.29318C0.969776 9.29318 1.02978 9.29318 1.06978 9.30318C1.08978 9.30318 1.06978 9.30318 1.09978 9.30318C1.11978 9.30318 1.12978 9.30318 1.14978 9.30318C1.12978 9.30318 1.10978 9.30318 1.07978 9.30318C1.03978 9.30318 1.04978 9.30318 1.02978 9.28318C1.01978 9.28318 0.999776 9.28318 0.979776 9.28318C0.969776 9.28318 0.979776 9.27318 0.969776 9.26318C0.959776 9.26318 0.969776 9.29318 0.969776 9.30318V9.29318Z" fill="#3D3D3D"/>
<path d="M0.979874 0.883352H1.05987C1.06987 0.863352 1.00987 0.873352 1.00987 0.853352C1.00987 0.843352 1.02987 0.823352 1.01987 0.813352C1.01987 0.783352 0.959874 0.843352 0.969874 0.873352H0.979874V0.883352Z" fill="#3D3D3D"/>
<path d="M4.84959 0.66333C4.84959 0.66333 4.84959 0.66333 4.85959 0.68333C4.85959 0.68333 4.85959 0.70333 4.85959 0.71333C4.85959 0.73333 4.85959 0.75333 4.85959 0.77333C4.85959 0.76333 4.85959 0.75333 4.85959 0.73333C4.85959 0.72333 4.85959 0.71333 4.86959 0.70333C4.86959 0.69333 4.86959 0.69333 4.86959 0.67333C4.86959 0.67333 4.86959 0.67333 4.84959 0.67333C4.84959 0.67333 4.83959 0.67333 4.82959 0.67333L4.84959 0.66333Z" fill="#3D3D3D"/>
<path d="M5.09961 10.0032C5.09961 10.0032 5.15961 9.95318 5.15961 9.90318C5.15961 9.85318 5.13961 9.81318 5.13961 9.76318C5.16961 9.83318 5.19961 9.89318 5.19961 9.97318C5.21961 9.97318 5.23961 9.98318 5.26961 9.98318C5.21961 9.98318 5.17961 10.0032 5.09961 10.0032Z" fill="#3D3D3D"/>
<path d="M0.949707 8.76318C0.949707 8.76318 0.999707 8.82318 1.04971 8.82318C1.09971 8.82318 1.13971 8.80318 1.18971 8.80318C1.11971 8.83318 1.04971 8.86318 0.979707 8.86318C0.979707 8.88318 0.969707 8.90318 0.969707 8.93318C0.969707 8.88318 0.949707 8.84318 0.949707 8.76318Z" fill="#3D3D3D"/>
<path d="M5.40967 9.98329C5.40967 9.98329 5.40967 9.90329 5.40967 9.87329C5.41967 9.88329 5.43967 9.94329 5.43967 9.96329C5.43967 9.97329 5.42967 9.98329 5.40967 9.98329Z" fill="#3D3D3D"/>
<path d="M2.15967 9.98322C2.15967 9.98322 2.21967 9.95322 2.22967 9.93322C2.23967 9.91322 2.22967 9.88322 2.24967 9.86322C2.25967 9.83322 2.29967 9.84322 2.32967 9.83322C2.35967 9.83322 2.37967 9.81322 2.40967 9.80322C2.40967 9.82322 2.38967 9.83322 2.36967 9.84322C2.35967 9.84322 2.34967 9.84322 2.33967 9.84322H2.29967C2.29967 9.84322 2.27967 9.90322 2.27967 9.91322C2.27967 9.93322 2.29967 9.94322 2.31967 9.95322C2.30967 9.97322 2.20967 9.95322 2.17967 9.95322L2.15967 9.98322Z" fill="#3D3D3D"/>
<path d="M2.51953 9.9833C2.51953 9.9833 2.52953 9.9433 2.53953 9.9233C2.53953 9.9033 2.53953 9.8933 2.55953 9.8833C2.55953 9.9033 2.55953 9.9333 2.55953 9.9633C2.55953 9.9833 2.55953 9.9833 2.52953 9.9833H2.51953Z" fill="#3D3D3D"/>
<path d="M3.69969 9.98329C3.69969 9.98329 3.69969 9.98329 3.70969 9.96329C3.70969 9.96329 3.70969 9.94329 3.70969 9.93329C3.70969 9.91329 3.70969 9.89329 3.70969 9.87329C3.70969 9.88329 3.70969 9.89329 3.70969 9.91329C3.70969 9.92329 3.70969 9.93329 3.71969 9.94329C3.71969 9.95329 3.71969 9.95329 3.71969 9.97329C3.71969 9.97329 3.71969 9.97329 3.69969 9.97329C3.69969 9.97329 3.68969 9.97329 3.67969 9.97329L3.69969 9.98329Z" fill="#3D3D3D"/>
<path d="M7.6198 2.26318C7.5498 2.26318 7.4698 2.26318 7.3998 2.26318C7.3598 2.26318 7.3598 2.26318 7.3398 2.29318C7.2998 2.34318 7.2298 2.34318 7.1698 2.35318C7.1298 2.36318 7.0898 2.37318 7.0498 2.37318C7.0798 2.40318 7.1798 2.37318 7.2198 2.36318C7.2498 2.36318 7.2898 2.34318 7.3198 2.32318C7.3598 2.29318 7.3698 2.28318 7.4198 2.28318C7.4598 2.28318 7.4898 2.28318 7.5398 2.28318C7.5498 2.28318 7.5698 2.28318 7.5898 2.28318C7.6098 2.28318 7.6098 2.29318 7.6298 2.30318C7.6298 2.29318 7.6298 2.28318 7.6298 2.26318H7.6198Z" fill="#3D3D3D"/>
<path d="M7.61971 7.46338C7.54971 7.46338 7.46971 7.46338 7.39971 7.46338C7.35971 7.46338 7.34971 7.49338 7.31971 7.51338C7.28971 7.53338 7.23971 7.54338 7.19971 7.54338C7.23971 7.54338 7.27971 7.54338 7.31971 7.53338C7.35971 7.50338 7.36971 7.49338 7.41971 7.49338C7.48971 7.48338 7.53971 7.49338 7.57971 7.56338C7.59971 7.60338 7.60971 7.61338 7.60971 7.65338C7.60971 7.62338 7.61971 7.59338 7.62971 7.56338C7.62971 7.53338 7.62971 7.50338 7.62971 7.47338L7.61971 7.46338Z" fill="#3D3D3D"/>
<path d="M7.60947 2.51318C7.60947 2.51318 7.49947 2.51318 7.45947 2.52318C7.48947 2.52318 7.50947 2.52318 7.53947 2.52318C7.54947 2.52318 7.55947 2.53318 7.57947 2.54318C7.60947 2.54318 7.62947 2.54318 7.61947 2.51318H7.60947Z" fill="#3D3D3D"/>
<path d="M7.60971 2.07323C7.60971 2.07323 7.47971 2.15323 7.44971 2.14323C7.47971 2.11323 7.51971 2.11323 7.54971 2.09323C7.56971 2.08323 7.58971 2.06323 7.61971 2.06323H7.60971V2.07323Z" fill="#3D3D3D"/>
<path d="M0.949707 3.28319C0.949707 3.28319 0.989707 3.31319 1.00971 3.32319C1.02971 3.33319 1.07971 3.33319 1.09971 3.33319C1.18971 3.33319 1.24971 3.31319 1.32971 3.29319C1.26971 3.34319 1.20971 3.35319 1.13971 3.35319C1.07971 3.35319 0.979707 3.35319 0.949707 3.27319V3.28319Z" fill="#3D3D3D"/>
<path d="M0.969531 3.15328C0.969531 3.07328 1.09953 3.08328 1.15953 3.06328C1.11953 3.05328 1.04953 3.06328 1.00953 3.06328C0.929531 3.06328 0.959531 3.09328 0.979531 3.14328L0.969531 3.15328Z" fill="#3D3D3D"/>
<path d="M0.979492 6.74327C0.979492 6.67327 1.08949 6.70327 1.12949 6.70327C1.16949 6.70327 1.16949 6.68327 1.18949 6.65327C1.19949 6.63327 1.21949 6.61327 1.22949 6.60327C1.18949 6.63327 1.19949 6.70327 1.15949 6.72327C1.10949 6.75327 1.02949 6.70327 0.989492 6.75327C0.989492 6.75327 0.989492 6.73327 0.989492 6.74327H0.979492Z" fill="#3D3D3D"/>
<path d="M0.979826 5.20336C0.979826 5.20336 0.979826 5.24336 0.979826 5.25336C0.979826 5.25336 1.00983 5.28336 1.00983 5.29336C1.00983 5.32336 0.969826 5.33336 0.969826 5.36336C0.969826 5.32336 0.949826 5.23336 0.969826 5.19336L0.979826 5.20336Z" fill="#3D3D3D"/>
<path d="M0.979473 5.3833C0.979473 5.3833 1.01947 5.4033 1.03947 5.4033C1.06947 5.4033 1.06947 5.4033 1.08947 5.4233C1.12947 5.4533 1.13947 5.4033 1.17947 5.4033C1.15947 5.4233 1.13947 5.4233 1.11947 5.4333C1.08947 5.4433 1.08947 5.4333 1.06947 5.4233C1.05947 5.4233 1.01947 5.4233 0.999473 5.4233C0.979473 5.4233 0.979473 5.4733 0.979473 5.4933C0.979473 5.5233 1.00947 5.5233 1.02947 5.5333C1.01947 5.5333 0.989473 5.5333 0.989473 5.5333C0.989473 5.5333 0.989473 5.5333 0.969473 5.5333C0.969473 5.5333 0.959473 5.5033 0.959473 5.4933C0.959473 5.4533 0.959473 5.4233 0.979473 5.3933V5.3833Z" fill="#3D3D3D"/>
<path d="M0.969727 6.60321C0.969727 6.60321 1.04973 6.60321 1.07973 6.56321C1.06973 6.56321 1.04973 6.56321 1.03973 6.56321C1.00973 6.56321 0.989727 6.55321 0.969727 6.54321C0.969727 6.56321 0.969727 6.58321 0.969727 6.59321H0.979727C0.979727 6.59321 0.979727 6.60321 0.979727 6.61321L0.969727 6.60321Z" fill="#3D3D3D"/>
<path d="M1.75977 2.82324C1.75977 2.82324 1.75977 2.82324 1.75977 2.83324C1.75977 2.83324 1.75977 2.83324 1.76977 2.82324H1.75977Z" fill="white"/>
<path d="M1.68982 1.2334H2.15982V1.3434H2.11982C2.11982 1.3434 2.09982 1.3434 2.09982 1.3634C2.11982 1.4934 2.13982 1.5634 2.13982 1.5734C2.13982 1.5934 2.15982 1.6134 2.16982 1.6234C2.16982 1.6234 2.17982 1.6334 2.19982 1.6434C2.20982 1.6434 2.21982 1.6434 2.22982 1.6434C2.22982 1.6434 2.20982 1.6534 2.19982 1.6634C2.18982 1.6834 2.17982 1.6934 2.17982 1.7134C2.17982 1.7134 2.17982 1.7334 2.17982 1.7534C2.19982 1.8734 2.20982 1.9434 2.21982 1.9634C2.21982 1.9834 2.21982 1.9934 2.22982 1.9934C2.22982 1.9934 2.24982 1.9934 2.25982 1.9934H2.26982V2.0934H1.95982V1.9934H1.96982C1.96982 1.9934 1.99982 1.9934 2.00982 1.9934C2.00982 1.9934 2.00982 1.9834 2.00982 1.9734C2.00982 1.9534 2.00982 1.9334 1.99982 1.8934H1.80982L1.79982 1.9534C1.79982 1.9534 1.79982 1.9934 1.81982 1.9934C1.81982 1.9934 1.81982 1.9934 1.83982 1.9934V2.0934H1.56982V1.9934H1.57982C1.57982 1.9934 1.60982 1.9934 1.61982 1.9734C1.61982 1.9534 1.63982 1.9134 1.64982 1.8434L1.66982 1.7334C1.66982 1.7334 1.66982 1.6834 1.64982 1.6634C1.64982 1.6634 1.63982 1.6534 1.62982 1.6434C1.62982 1.6434 1.62982 1.6434 1.63982 1.6434C1.65982 1.6434 1.66982 1.6334 1.67982 1.6234C1.68982 1.6134 1.69982 1.5934 1.71982 1.5534C1.73982 1.4334 1.75982 1.3734 1.75982 1.3634C1.75982 1.3534 1.75982 1.3434 1.73982 1.3434H1.69982V1.2334H1.68982ZM1.89982 1.4234C1.86982 1.5834 1.84982 1.6834 1.83982 1.7134C1.85982 1.7134 1.87982 1.7134 1.88982 1.7134H1.95982L1.90982 1.4234H1.89982Z" fill="#B41818"/>
<path d="M6.86955 9.40321H6.39955V9.29321H6.43955C6.43955 9.29321 6.45955 9.29321 6.45955 9.27321C6.43955 9.14321 6.41955 9.07321 6.41955 9.06321C6.41955 9.04321 6.39955 9.02321 6.38955 9.01321C6.38955 9.01321 6.37955 9.00321 6.35955 8.99321C6.34955 8.99321 6.33955 8.99321 6.32955 8.99321C6.32955 8.99321 6.34955 8.98321 6.35955 8.97321C6.36955 8.95321 6.37955 8.94321 6.37955 8.92321C6.37955 8.92321 6.37955 8.90321 6.37955 8.88321C6.35955 8.76321 6.34955 8.69321 6.33955 8.67321C6.33955 8.65321 6.33955 8.64321 6.32955 8.64321C6.32955 8.64321 6.30955 8.64321 6.29955 8.64321H6.28955V8.54321H6.59955V8.64321H6.58955C6.58955 8.64321 6.55955 8.64321 6.54955 8.64321C6.54955 8.64321 6.54955 8.64321 6.54955 8.66321C6.54955 8.68321 6.54955 8.70321 6.55955 8.74321H6.74955L6.75955 8.68321C6.75955 8.68321 6.75955 8.64321 6.73955 8.64321C6.73955 8.64321 6.73955 8.64321 6.71955 8.64321V8.54321H6.98955V8.64321H6.97955C6.97955 8.64321 6.94955 8.64321 6.93955 8.66321C6.93955 8.68321 6.91955 8.72321 6.90955 8.79321L6.88955 8.90321C6.88955 8.90321 6.88955 8.95321 6.90955 8.97321C6.90955 8.97321 6.91955 8.98321 6.92955 8.99321C6.92955 8.99321 6.92955 8.99321 6.91955 8.99321C6.89955 8.99321 6.88955 9.00321 6.87955 9.01321C6.86955 9.02321 6.85955 9.04321 6.83955 9.08321C6.81955 9.20321 6.79955 9.26321 6.79955 9.27321C6.79955 9.28321 6.79955 9.29321 6.81955 9.29321H6.85955V9.40321H6.86955ZM6.65955 9.21321C6.68955 9.05321 6.70955 8.95321 6.71955 8.92321C6.69955 8.92321 6.67955 8.92321 6.66955 8.92321H6.59955L6.64955 9.21321H6.65955Z" fill="#B41818"/>
<path d="M1.92955 2.22339C1.85955 2.42339 1.69955 2.58339 1.53955 2.69339C1.69955 2.80339 1.84955 2.96339 1.92955 3.16339C1.99955 2.96339 2.15955 2.80339 2.31955 2.69339C2.15955 2.58339 2.00955 2.42339 1.92955 2.22339Z" fill="#B41818"/>
<path d="M6.63951 7.43335C6.56951 7.63335 6.40951 7.79335 6.24951 7.90335C6.40951 8.01335 6.55951 8.17335 6.63951 8.37335C6.70951 8.17335 6.86951 8.01335 7.02951 7.90335C6.86951 7.79335 6.71951 7.63335 6.63951 7.43335Z" fill="#B41818"/>
<path d="M6.33939 4.56336C6.27939 4.52336 6.20939 4.50336 6.12939 4.49336C6.19939 4.52336 6.25939 4.55336 6.31939 4.59336C6.32939 4.59336 6.33939 4.61336 6.34939 4.62336C6.29939 4.59336 6.25939 4.55336 6.20939 4.53336C6.13939 4.51336 6.05939 4.50336 5.97939 4.52336C6.01939 4.52336 6.05939 4.53336 6.09939 4.54336C6.02939 4.54336 5.95939 4.54336 5.89939 4.56336C5.93939 4.56336 5.96939 4.56336 5.99939 4.56336C5.94939 4.56336 5.90939 4.59336 5.87939 4.61336C5.92939 4.59336 5.97939 4.58336 6.02939 4.58336H6.04939C6.07939 4.58336 6.09939 4.58336 6.12939 4.58336C6.13939 4.58336 6.15939 4.58336 6.16939 4.59336C6.16939 4.59336 6.17939 4.59336 6.18939 4.59336C6.19939 4.59336 6.20939 4.59336 6.21939 4.60336C6.24939 4.62336 6.26939 4.65336 6.29939 4.67336C6.31939 4.68336 6.32939 4.70336 6.34939 4.71336C6.34939 4.71336 6.36939 4.72336 6.37939 4.73336C6.39939 4.76336 6.40939 4.80336 6.41939 4.83336C6.41939 4.85336 6.43939 4.87336 6.43939 4.89336C6.43939 4.90336 6.44939 4.91336 6.45939 4.93336C6.45939 4.87336 6.43939 4.81336 6.41939 4.76336C6.41939 4.76336 6.42939 4.77336 6.43939 4.78336C6.46939 4.84336 6.49939 4.91336 6.50939 4.99336C6.50939 4.93336 6.49939 4.86336 6.46939 4.80336C6.46939 4.81336 6.47939 4.82336 6.48939 4.83336C6.51939 4.90336 6.53939 4.97336 6.54939 5.04336C6.54939 4.97336 6.54939 4.90336 6.51939 4.83336C6.51939 4.85336 6.53939 4.86336 6.53939 4.88336C6.55939 4.95336 6.57939 5.02336 6.58939 5.09336C6.58939 5.02336 6.58939 4.95336 6.57939 4.88336C6.57939 4.90336 6.59939 4.91336 6.59939 4.93336C6.61939 5.00336 6.62939 5.07336 6.63939 5.14336C6.64939 5.07336 6.63939 5.00336 6.63939 4.92336C6.62939 4.85336 6.59939 4.78336 6.56939 4.72336C6.52939 4.66336 6.48939 4.60336 6.42939 4.55336C6.37939 4.50336 6.30939 4.46336 6.23939 4.44336C6.26939 4.46336 6.29939 4.49336 6.32939 4.51336L6.33939 4.56336ZM6.09939 4.57336C6.09939 4.57336 6.09939 4.57336 6.10939 4.57336C6.10939 4.57336 6.10939 4.57336 6.11939 4.57336H6.09939ZM6.15939 4.55336C6.15939 4.55336 6.18939 4.55336 6.19939 4.55336C6.20939 4.55336 6.21939 4.57336 6.23939 4.57336C6.20939 4.56336 6.18939 4.54336 6.15939 4.54336V4.55336ZM6.37939 4.68336C6.37939 4.68336 6.37939 4.68336 6.37939 4.69336C6.37939 4.69336 6.37939 4.69336 6.36939 4.68336H6.37939ZM6.41939 4.62336C6.41939 4.62336 6.41939 4.63336 6.42939 4.64336C6.39939 4.61336 6.37939 4.58336 6.34939 4.57336C6.36939 4.59336 6.39939 4.60336 6.41939 4.62336Z" fill="#3D3D3D"/>
<path d="M5.85934 4.6333C5.85934 4.6333 5.82934 4.6333 5.81934 4.6533C5.81934 4.6533 5.82934 4.6533 5.83934 4.6533C5.83934 4.6533 5.84934 4.6533 5.85934 4.6433V4.6333Z" fill="#3D3D3D"/>
<path d="M5.73958 5.74326C5.48958 5.64326 5.37958 5.30326 5.50958 4.99326C5.52958 4.93326 5.55958 4.88326 5.59958 4.84326C5.55958 4.90326 5.48958 4.95326 5.44958 4.93326C5.43958 4.93326 5.42958 4.90326 5.41958 4.88326C5.41958 4.88326 5.41958 4.88326 5.41958 4.89326C5.39958 5.07326 5.30958 5.23326 5.18958 5.33326C5.23958 5.29326 5.37958 5.36326 5.49958 5.50326C5.61958 5.64326 5.66958 5.78326 5.61958 5.83326C5.57958 5.86326 5.47958 5.81326 5.37958 5.71326C5.37958 5.71326 5.37958 5.72326 5.36958 5.73326C5.36958 5.79326 5.36958 5.86326 5.32958 5.94326C5.29958 6.00326 5.21958 6.13326 5.03958 6.24326C4.90958 6.35326 4.90958 6.39326 4.83958 6.59326C4.81958 6.64326 4.80958 6.68326 4.78958 6.71326C4.77958 6.73326 4.80958 6.74326 4.82958 6.75326C5.22958 6.71326 5.45958 6.61326 5.57958 6.52326C5.55958 6.50326 5.55958 6.47326 5.57958 6.44326C5.59958 6.41326 5.63958 6.41326 5.65958 6.42326V6.44326C5.68958 6.41326 5.70958 6.39326 5.71958 6.37326C5.73958 6.34326 5.73958 6.31326 5.74958 6.30326C5.74958 6.30326 5.72958 6.30326 5.71958 6.30326C5.69958 6.30326 5.65958 6.32326 5.62958 6.32326C5.55958 6.32326 5.46958 6.28326 5.43958 6.20326C5.42958 6.17326 5.41958 6.12326 5.44958 6.06326C5.51958 5.92326 5.69958 5.90326 5.81958 5.89326C5.83958 5.89326 5.84958 5.89326 5.86958 5.89326C5.84958 5.89326 5.82958 5.89326 5.81958 5.86326C5.81958 5.86326 5.79958 5.81326 5.85958 5.79326L5.95958 5.77326C5.95958 5.77326 5.92958 5.77326 5.90958 5.77326C5.85958 5.77326 5.79958 5.76326 5.74958 5.74326H5.73958Z" fill="#3D3D3D"/>
<path d="M6.46959 5.30334C6.46959 5.30334 6.46959 5.21334 6.46959 5.17334C6.46959 5.23334 6.44959 5.30334 6.42959 5.36334C6.35959 5.54334 6.22959 5.67334 6.07959 5.73334H6.12959C6.12959 5.73334 6.18959 5.73334 6.19959 5.77334C6.19959 5.79334 6.17959 5.80334 6.16959 5.81334C6.18959 5.81334 6.20959 5.80334 6.22959 5.79334C6.32959 5.75334 6.42959 5.68334 6.49959 5.59334C6.51959 5.57334 6.52959 5.54334 6.54959 5.52334C6.51959 5.56334 6.47959 5.58334 6.46959 5.58334C6.43959 5.57334 6.45959 5.45334 6.46959 5.32334V5.30334Z" fill="#3D3D3D"/>
<path d="M6.55957 5.50339C6.55957 5.50339 6.56957 5.48339 6.57957 5.47339C6.57957 5.47339 6.56957 5.49339 6.55957 5.50339Z" fill="#3D3D3D"/>
<path d="M4.28961 6.43334C4.28961 6.43334 4.26961 6.43334 4.25961 6.43334C4.31961 6.47334 4.30961 6.52334 4.20961 6.69334C4.17961 6.74334 4.13961 6.76334 4.09961 6.78334C4.09961 6.78334 4.18961 6.78334 4.23961 6.78334C4.24961 6.78334 4.26961 6.78334 4.27961 6.78334C4.29961 6.78334 4.33961 6.77334 4.34961 6.74334C4.38961 6.65334 4.45961 6.49334 4.46961 6.46334C4.47961 6.43334 4.44961 6.42334 4.43961 6.42334C4.38961 6.42334 4.34961 6.43334 4.29961 6.43334H4.28961Z" fill="#3D3D3D"/>
<path d="M4.53943 6.45328C4.53943 6.45328 4.45943 6.64328 4.41943 6.73328C4.41943 6.75328 4.41943 6.76328 4.42943 6.77328C4.48943 6.77328 4.53943 6.77328 4.58943 6.77328C4.54943 6.74328 4.57943 6.65328 4.62943 6.54328C4.67943 6.43328 4.72943 6.36328 4.76943 6.36328C4.71943 6.38328 4.65943 6.39328 4.60943 6.40328C4.60943 6.40328 4.55943 6.41328 4.53943 6.46328V6.45328Z" fill="#3D3D3D"/>
<path d="M4.42943 6.41331C4.48943 6.41331 4.54943 6.40331 4.60943 6.39331L4.41943 6.41331H4.42943Z" fill="#3D3D3D"/>
<path d="M3.82941 6.36323C3.82941 6.36323 3.82941 6.36323 3.81941 6.36323C3.73941 6.34323 3.65941 6.30323 3.57941 6.25323C3.38941 6.14323 3.28941 6.00323 3.25941 5.94323C3.19941 5.81323 3.19941 5.68323 3.25941 5.60323C3.28941 5.56323 3.33941 5.54323 3.38941 5.54323C3.39941 5.54323 3.40941 5.54323 3.41941 5.54323C3.44941 5.54323 3.48941 5.56323 3.51941 5.57323C3.59941 5.59323 3.68941 5.63323 3.79941 5.63323C3.81941 5.63323 3.84941 5.63323 3.86941 5.63323C4.00941 5.61323 4.11941 5.53323 4.17941 5.47323C4.20941 5.44323 4.24941 5.43323 4.27941 5.43323C4.30941 5.43323 4.35941 5.45323 4.37941 5.47323C4.40941 5.50323 4.44941 5.53323 4.48941 5.56323C4.49941 5.56323 4.51941 5.57323 4.52941 5.58323C4.56941 5.60323 4.60941 5.61323 4.64941 5.62323C4.68941 5.62323 4.72941 5.64323 4.76941 5.63323C4.70941 5.63323 4.65941 5.61323 4.60941 5.59323C4.57941 5.58323 4.55941 5.56323 4.52941 5.54323C4.55941 5.55323 4.57941 5.57323 4.60941 5.58323C4.66941 5.59323 4.71941 5.60323 4.77941 5.60323C4.71941 5.60323 4.66941 5.58323 4.61941 5.56323C4.58941 5.55323 4.56941 5.53323 4.53941 5.51323C4.56941 5.52323 4.58941 5.54323 4.61941 5.55323C4.66941 5.56323 4.72941 5.57323 4.78941 5.57323C4.72941 5.57323 4.67941 5.55323 4.62941 5.53323C4.59941 5.52323 4.57941 5.50323 4.54941 5.48323C4.57941 5.49323 4.59941 5.51323 4.62941 5.51323C4.67941 5.52323 4.73941 5.53323 4.78941 5.53323C4.73941 5.53323 4.67941 5.51323 4.63941 5.49323C4.60941 5.48323 4.58941 5.46323 4.56941 5.44323C4.59941 5.45323 4.61941 5.46323 4.64941 5.47323C4.69941 5.48323 4.75941 5.49323 4.80941 5.49323C4.80941 5.49323 4.80941 5.49323 4.79941 5.49323C4.79941 5.49323 4.79941 5.49323 4.78941 5.49323C4.77941 5.49323 4.76941 5.49323 4.75941 5.48323C4.72941 5.48323 4.69941 5.47323 4.66941 5.45323C4.65941 5.45323 4.64941 5.44323 4.63941 5.43323C4.49941 5.36323 4.39941 5.23323 4.35941 5.06323C4.33941 5.11323 4.29941 5.15323 4.24941 5.15323C4.20941 5.15323 4.17941 5.13323 4.15941 5.10323C4.08941 5.31323 3.93941 5.46323 3.73941 5.48323C3.71941 5.48323 3.70941 5.48323 3.68941 5.48323C3.47941 5.48323 3.29941 5.34323 3.20941 5.13323C3.18941 5.18323 3.15941 5.22323 3.10941 5.22323C3.10941 5.22323 3.09941 5.22323 3.08941 5.22323C3.11941 5.47323 3.01941 5.70323 2.80941 5.78323C2.75941 5.80323 2.70941 5.81323 2.64941 5.81323C2.42941 5.81323 2.21941 5.65323 2.11941 5.40323C2.09941 5.35323 2.08941 5.30323 2.08941 5.25323C2.09941 5.36323 2.08941 5.46323 2.04941 5.48323C2.00941 5.49323 1.93941 5.41323 1.89941 5.31323C1.90941 5.37323 1.92941 5.42323 1.94941 5.47323C2.02941 5.63323 2.15941 5.76323 2.31941 5.82323C2.38941 5.85323 2.45941 5.87323 2.51941 5.89323C2.56941 5.90323 2.61941 5.91323 2.66941 5.92323C2.66941 5.92323 2.70941 5.92323 2.72941 5.92323C2.80941 5.92323 2.90941 5.96323 2.99941 6.01323C2.99941 6.01323 3.00941 6.01323 3.01941 6.01323C3.01941 6.01323 3.01941 6.02323 3.02941 6.03323C3.04941 6.05323 3.08941 6.06323 3.09941 6.09323C3.12941 6.15323 3.12941 6.20323 3.10941 6.23323C3.07941 6.31323 2.98941 6.35323 2.91941 6.35323C2.91941 6.35323 2.84941 6.35323 2.82941 6.33323C2.81941 6.33323 2.80941 6.33323 2.79941 6.33323C2.79941 6.34323 2.79941 6.37323 2.82941 6.40323C2.88941 6.51323 3.10941 6.74323 3.85941 6.79323C3.82941 6.76323 3.84941 6.69323 3.94941 6.54323C4.01941 6.44323 4.04941 6.44323 4.09941 6.43323C4.01941 6.43323 3.90941 6.42323 3.78941 6.38323L3.82941 6.36323ZM3.16941 6.30323C3.16941 6.30323 3.10941 6.36323 3.08941 6.35323C3.07941 6.34323 3.08941 6.30323 3.11941 6.26323C3.14941 6.22323 3.17941 6.20323 3.19941 6.21323C3.20941 6.22323 3.19941 6.26323 3.16941 6.30323Z" fill="#3D3D3D"/>
<path d="M4.23941 6.42332C4.23941 6.42332 4.17941 6.40332 4.14941 6.40332C4.17941 6.40332 4.20941 6.40332 4.23941 6.41332V6.42332Z" fill="#3D3D3D"/>
<path d="M3.16922 4.68335C3.16922 4.68335 3.10922 4.75335 3.03922 4.78335C3.00922 4.79335 2.97922 4.78335 2.94922 4.78335C2.98922 4.83335 3.02922 4.88335 3.05922 4.94335C3.07922 4.91335 3.10922 4.88335 3.14922 4.88335C3.16922 4.88335 3.17922 4.89335 3.18922 4.90335C3.18922 4.90335 3.18922 4.89335 3.18922 4.88335C3.18922 4.81335 3.18922 4.75335 3.19922 4.68335H3.17922H3.16922Z" fill="#3D3D3D"/>
<path d="M2.73941 4.48345C2.81941 4.50345 2.89941 4.50345 2.97941 4.48345C2.92941 4.50345 2.87941 4.52345 2.81941 4.52345C2.88941 4.54345 2.96941 4.52345 3.03941 4.51345C2.98941 4.53345 2.94941 4.55345 2.89941 4.56345C2.96941 4.57345 3.03941 4.56345 3.09941 4.54345C3.05941 4.56345 3.01941 4.59345 2.97941 4.60345C3.00941 4.60345 3.03941 4.59345 3.06941 4.58345H3.04941L3.07941 4.60345C3.12941 4.60345 3.16941 4.60345 3.18941 4.65345C3.22941 4.47345 3.33941 4.33345 3.47941 4.26345C3.48941 4.26345 3.49941 4.25345 3.51941 4.24345C3.54941 4.23345 3.57941 4.22345 3.60941 4.21345C3.57941 4.21345 3.54941 4.21345 3.51941 4.21345C3.55941 4.19345 3.59941 4.17345 3.64941 4.16345C3.58941 4.15345 3.51941 4.16345 3.45941 4.19345C3.52941 4.15345 3.60941 4.13345 3.68941 4.12345C3.61941 4.10345 3.53941 4.12345 3.45941 4.14345C3.53941 4.10345 3.62941 4.08345 3.71941 4.08345C3.63941 4.06345 3.53941 4.07345 3.45941 4.10345C3.54941 4.06345 3.64941 4.03345 3.74941 4.04345C3.70941 4.03345 3.66941 4.03345 3.61941 4.03345C3.54941 4.03345 3.47941 4.05345 3.40941 4.08345C3.37941 4.09345 3.34941 4.12345 3.31941 4.14345C3.33941 4.17345 3.32941 4.21345 3.29941 4.25345C3.26941 4.29345 3.21941 4.29345 3.18941 4.26345C3.18941 4.26345 3.18941 4.25345 3.18941 4.24345C3.18941 4.24345 3.18941 4.24345 3.17941 4.25345C3.16941 4.26345 3.14941 4.27345 3.13941 4.28345C3.13941 4.28345 3.12941 4.29345 3.11941 4.30345C3.11941 4.30345 3.09941 4.32345 3.08941 4.33345C3.08941 4.33345 3.06941 4.35345 3.05941 4.35345C3.03941 4.36345 3.01941 4.37345 2.99941 4.38345C2.98941 4.38345 2.96941 4.40345 2.95941 4.40345C2.95941 4.40345 2.93941 4.40345 2.93941 4.41345C2.90941 4.41345 2.87941 4.41345 2.85941 4.42345C2.81941 4.42345 2.77941 4.45345 2.73941 4.45345C2.71941 4.45345 2.70941 4.45345 2.68941 4.45345C2.67941 4.45345 2.65941 4.45345 2.64941 4.45345C2.72941 4.48345 2.80941 4.47345 2.88941 4.45345C2.83941 4.46345 2.77941 4.48345 2.72941 4.48345H2.73941Z" fill="#3D3D3D"/>
<path d="M3.87939 4.24345C3.93939 4.29345 3.99939 4.33345 4.06939 4.38345C4.08939 4.39345 4.10939 4.40345 4.12939 4.41345C4.09939 4.40345 4.06939 4.39345 4.04939 4.37345C4.13939 4.47345 4.20939 4.61345 4.22939 4.77345C4.22939 4.81345 4.22939 4.84345 4.22939 4.87345C4.24939 4.86345 4.26939 4.84345 4.28939 4.84345C4.32939 4.84345 4.35939 4.87345 4.38939 4.90345C4.38939 4.86345 4.37939 4.81345 4.38939 4.77345C4.41939 4.46345 4.63939 4.23345 4.88939 4.21345C4.76939 4.22345 4.69939 4.23345 4.66939 4.18345C4.65939 4.15345 4.71939 4.07345 4.81939 4.03345C4.73939 4.05345 4.65939 4.08345 4.58939 4.14345C4.57939 4.15345 4.55939 4.14345 4.53939 4.16345C4.51939 4.16345 4.50939 4.18345 4.48939 4.19345C4.43939 4.22345 4.38939 4.22345 4.33939 4.23345C4.33939 4.23345 4.31939 4.23345 4.30939 4.23345C4.30939 4.23345 4.29939 4.23345 4.28939 4.23345C4.21939 4.23345 4.14939 4.20345 4.08939 4.16345C4.13939 4.21345 4.20939 4.24345 4.28939 4.25345C4.26939 4.25345 4.25939 4.25345 4.24939 4.25345C4.17939 4.24345 4.10939 4.20345 4.04939 4.17345C4.10939 4.22345 4.16939 4.26345 4.23939 4.28345C4.26939 4.29345 4.30939 4.29345 4.34939 4.29345C4.32939 4.29345 4.31939 4.29345 4.29939 4.29345C4.26939 4.29345 4.22939 4.29345 4.19939 4.27345C4.12939 4.25345 4.06939 4.21345 3.99939 4.17345C4.05939 4.22345 4.11939 4.26345 4.18939 4.29345H4.20939C4.18939 4.29345 4.16939 4.29345 4.14939 4.28345C4.07939 4.25345 4.01939 4.21345 3.94939 4.18345C4.00939 4.23345 4.06939 4.27345 4.12939 4.31345C4.13939 4.31345 4.15939 4.32345 4.16939 4.33345C4.14939 4.32345 4.11939 4.32345 4.09939 4.31345C4.02939 4.27345 3.96939 4.23345 3.89939 4.20345L3.87939 4.24345ZM4.38939 4.41345C4.38939 4.41345 4.36939 4.41345 4.35939 4.41345C4.38939 4.41345 4.41939 4.39345 4.44939 4.38345C4.42939 4.38345 4.40939 4.40345 4.37939 4.41345H4.38939ZM4.38939 4.31345C4.37939 4.31345 4.36939 4.31345 4.35939 4.31345C4.36939 4.31345 4.38939 4.31345 4.39939 4.31345H4.38939ZM4.34939 4.37345C4.34939 4.37345 4.34939 4.37345 4.33939 4.37345C4.33939 4.37345 4.32939 4.37345 4.31939 4.37345C4.32939 4.37345 4.33939 4.37345 4.34939 4.37345ZM4.30939 4.42345C4.30939 4.42345 4.28939 4.42345 4.27939 4.42345C4.26939 4.42345 4.25939 4.42345 4.24939 4.42345C4.26939 4.42345 4.28939 4.42345 4.30939 4.42345Z" fill="#3D3D3D"/>
<path d="M5.12943 4.18343C5.12943 4.18343 5.10943 4.18343 5.10943 4.19343C5.10943 4.19343 5.12943 4.19343 5.12943 4.20343C5.12943 4.20343 5.10943 4.20343 5.09943 4.20343C5.06943 4.22343 5.02943 4.22343 4.95943 4.22343C5.08943 4.24343 5.19943 4.31343 5.27943 4.42343C5.27943 4.42343 5.27943 4.42343 5.28943 4.42343C5.28943 4.43343 5.29943 4.45343 5.30943 4.47343C5.33943 4.52343 5.36943 4.57343 5.37943 4.62343C5.36943 4.54343 5.34943 4.47343 5.30943 4.40343C5.27943 4.35343 5.22943 4.31343 5.17943 4.28343C5.22943 4.31343 5.26943 4.35343 5.30943 4.39343C5.35943 4.45343 5.39943 4.51343 5.43943 4.57343C5.40943 4.50343 5.37943 4.43343 5.32943 4.37343C5.29943 4.32343 5.24943 4.28343 5.19943 4.24343C5.21943 4.26343 5.23943 4.27343 5.25943 4.29343C5.28943 4.31343 5.30943 4.34343 5.33943 4.37343C5.38943 4.43343 5.43943 4.48343 5.49943 4.53343C5.45943 4.47343 5.40943 4.41343 5.36943 4.35343C5.33943 4.31343 5.29943 4.27343 5.26943 4.24343C5.27943 4.25343 5.29943 4.26343 5.30943 4.27343C5.33943 4.29343 5.35943 4.32343 5.38943 4.35343C5.43943 4.40343 5.49943 4.45343 5.56943 4.48343C5.50943 4.44343 5.45943 4.39343 5.40943 4.33343C5.38943 4.31343 5.37943 4.29343 5.35943 4.27343C5.37943 4.29343 5.39943 4.31343 5.41943 4.33343C5.47943 4.38343 5.54943 4.41343 5.61943 4.43343C5.54943 4.40343 5.48943 4.36343 5.43943 4.31343C5.41943 4.28343 5.38943 4.26343 5.36943 4.23343C5.36943 4.23343 5.35943 4.22343 5.34943 4.21343C5.22943 4.08343 5.07943 4.01343 4.91943 4.01343C5.07943 4.03343 5.14943 4.13343 5.12943 4.17343V4.18343Z" fill="#3D3D3D"/>
<path d="M2.09942 5.14337C2.09942 5.07337 2.09942 4.99337 2.11942 4.92337C2.14942 4.81337 2.21942 4.73337 2.30942 4.67337C2.30942 4.67337 2.34942 4.64337 2.36942 4.63337C2.33942 4.64337 2.29942 4.65337 2.26942 4.66337C2.31942 4.62337 2.37942 4.58337 2.44942 4.56337C2.37942 4.56337 2.30942 4.60337 2.23942 4.64337C2.28942 4.59337 2.34942 4.56337 2.41942 4.53337C2.33942 4.54337 2.26942 4.58337 2.20942 4.62337C2.25942 4.57337 2.31942 4.53337 2.38942 4.50337C2.31942 4.52337 2.24942 4.55337 2.17942 4.59337C2.22942 4.54337 2.28942 4.50337 2.35942 4.47337C2.27942 4.49337 2.20942 4.53337 2.13942 4.58337C2.13942 4.58337 2.14942 4.56337 2.15942 4.56337C2.20942 4.52337 2.25942 4.48337 2.31942 4.45337C2.25942 4.46337 2.19942 4.49337 2.13942 4.53337C1.96942 4.66337 1.87942 4.89337 1.88942 5.13337C1.89942 5.04337 1.93942 4.97337 1.96942 4.97337C2.00942 4.97337 2.04942 5.04337 2.07942 5.13337L2.09942 5.14337Z" fill="#3D3D3D"/>
<path d="M2.48967 4.59326C2.48967 4.59326 2.43967 4.61326 2.40967 4.62326C2.41967 4.62326 2.42967 4.62326 2.44967 4.62326C2.46967 4.62326 2.47967 4.60326 2.48967 4.60326V4.59326Z" fill="#3D3D3D"/>
<path d="M2.38965 4.62328C2.38965 4.62328 2.40965 4.62328 2.41965 4.61328C2.41965 4.61328 2.40965 4.61328 2.39965 4.61328L2.38965 4.62328Z" fill="#3D3D3D"/>
<path d="M5.27926 5.93339C5.29926 5.90339 5.29926 5.86339 5.30926 5.83339C5.30926 5.81339 5.32926 5.79339 5.32926 5.77339C5.32926 5.72339 5.31926 5.67339 5.28926 5.64339C5.25926 5.60339 5.20926 5.59339 5.16926 5.59339C5.13926 5.59339 5.11926 5.60339 5.07926 5.62339C5.07926 5.62339 5.07926 5.62339 5.06926 5.62339C4.96926 5.65339 4.84926 5.69339 4.69926 5.67339C4.54926 5.65339 4.43926 5.57339 4.36926 5.50339C4.32926 5.46339 4.25926 5.46339 4.20926 5.50339C4.18926 5.52339 4.15926 5.53339 4.13926 5.55339C4.06926 5.60339 3.98926 5.65339 3.86926 5.67339C3.71926 5.69339 3.59926 5.65339 3.49926 5.62339C3.45926 5.61339 3.42926 5.60339 3.39926 5.59339C3.34926 5.59339 3.30926 5.59339 3.27926 5.64339C3.24926 5.68339 3.23926 5.72339 3.23926 5.77339C3.23926 5.79339 3.24926 5.81339 3.25926 5.83339C3.25926 5.86339 3.25926 5.89339 3.28926 5.93339C3.34926 6.05339 3.57926 6.37339 4.27926 6.38339C4.97926 6.37339 5.20926 6.04339 5.26926 5.93339H5.27926ZM5.25926 5.65339C5.25926 5.65339 5.23926 5.64339 5.22926 5.63339H5.24926L5.25926 5.65339ZM4.69926 5.70339C4.85926 5.72339 4.98926 5.68339 5.08926 5.65339C5.12926 5.64339 5.15926 5.63339 5.17926 5.62339C5.18926 5.62339 5.19926 5.62339 5.21926 5.63339C5.18926 5.63339 5.16926 5.63339 5.13926 5.63339C5.10926 5.63339 5.08926 5.65339 5.05926 5.66339C5.08926 5.66339 5.10926 5.64339 5.13926 5.64339C5.16926 5.64339 5.18926 5.64339 5.21926 5.64339C5.23926 5.64339 5.24926 5.66339 5.25926 5.68339C5.24926 5.67339 5.23926 5.65339 5.21926 5.65339C5.18926 5.65339 5.15926 5.65339 5.12926 5.65339C5.09926 5.65339 5.07926 5.67339 5.04926 5.68339C5.07926 5.68339 5.10926 5.66339 5.12926 5.65339C5.15926 5.65339 5.18926 5.65339 5.20926 5.65339C5.22926 5.65339 5.24926 5.68339 5.25926 5.70339C5.23926 5.68339 5.22926 5.67339 5.20926 5.66339C5.17926 5.66339 5.13926 5.66339 5.10926 5.66339C5.07926 5.67339 5.04926 5.68339 5.01926 5.70339C5.04926 5.70339 5.07926 5.68339 5.10926 5.67339C5.13926 5.67339 5.16926 5.66339 5.19926 5.67339C5.22926 5.68339 5.24926 5.70339 5.25926 5.73339C5.23926 5.71339 5.22926 5.69339 5.20926 5.68339C5.17926 5.67339 5.13926 5.68339 5.10926 5.68339C5.07926 5.69339 5.04926 5.71339 5.01926 5.72339C5.04926 5.71339 5.07926 5.70339 5.10926 5.69339C5.13926 5.69339 5.16926 5.69339 5.19926 5.69339C5.19926 5.69339 5.20926 5.70339 5.21926 5.71339C5.19926 5.71339 5.17926 5.70339 5.16926 5.70339C5.14926 5.70339 5.13926 5.70339 5.11926 5.71339C5.08926 5.72339 5.05926 5.73339 5.01926 5.75339C5.04926 5.74339 5.08926 5.73339 5.11926 5.72339C5.13926 5.72339 5.14926 5.72339 5.16926 5.72339C5.18926 5.72339 5.19926 5.72339 5.20926 5.73339C5.22926 5.73339 5.23926 5.76339 5.24926 5.77339C5.22926 5.74339 5.19926 5.73339 5.15926 5.73339H5.13926C5.10926 5.73339 5.07926 5.75339 5.03926 5.76339C4.94926 5.79339 4.82926 5.83339 4.68926 5.81339C4.60926 5.80339 4.53926 5.77339 4.47926 5.73339C4.50926 5.74339 4.53926 5.76339 4.56926 5.76339C4.52926 5.74339 4.48926 5.71339 4.44926 5.69339C4.49926 5.71339 4.54926 5.73339 4.59926 5.74339C4.54926 5.72339 4.50926 5.69339 4.45926 5.67339C4.50926 5.70339 4.56926 5.72339 4.62926 5.73339C4.56926 5.71339 4.51926 5.68339 4.46926 5.65339C4.52926 5.68339 4.58926 5.70339 4.65926 5.71339C4.59926 5.69339 4.53926 5.66339 4.48926 5.63339C4.54926 5.66339 4.62926 5.69339 4.69926 5.69339C4.61926 5.67339 4.54926 5.64339 4.48926 5.60339C4.45926 5.58339 4.42926 5.56339 4.39926 5.53339C4.46926 5.58339 4.56926 5.65339 4.70926 5.67339L4.69926 5.70339ZM3.32926 5.65339C3.32926 5.65339 3.34926 5.65339 3.35926 5.65339C3.34926 5.65339 3.33926 5.66339 3.32926 5.67339C3.32926 5.67339 3.32926 5.67339 3.32926 5.66339V5.65339ZM3.47926 5.74339C3.47926 5.74339 3.44926 5.73339 3.42926 5.73339C3.40926 5.73339 3.38926 5.73339 3.37926 5.74339C3.37926 5.74339 3.37926 5.73339 3.39926 5.72339C3.42926 5.71339 3.45926 5.71339 3.48926 5.72339C3.51926 5.72339 3.54926 5.74339 3.57926 5.75339C3.54926 5.74339 3.51926 5.72339 3.48926 5.71339C3.45926 5.70339 3.41926 5.69339 3.38926 5.71339C3.36926 5.71339 3.34926 5.74339 3.32926 5.76339C3.33926 5.74339 3.35926 5.71339 3.38926 5.70339C3.41926 5.69339 3.44926 5.70339 3.47926 5.70339C3.50926 5.70339 3.53926 5.72339 3.56926 5.73339C3.53926 5.72339 3.50926 5.70339 3.47926 5.69339C3.44926 5.68339 3.41926 5.67339 3.37926 5.69339C3.35926 5.69339 3.33926 5.72339 3.32926 5.73339C3.33926 5.71339 3.35926 5.69339 3.37926 5.68339C3.40926 5.68339 3.42926 5.68339 3.45926 5.68339C3.48926 5.68339 3.51926 5.70339 3.53926 5.71339C3.50926 5.70339 3.48926 5.69339 3.45926 5.68339C3.42926 5.68339 3.39926 5.66339 3.36926 5.68339C3.34926 5.68339 3.33926 5.70339 3.32926 5.71339C3.33926 5.69339 3.34926 5.68339 3.36926 5.67339C3.38926 5.67339 3.41926 5.67339 3.44926 5.67339C3.47926 5.67339 3.49926 5.69339 3.52926 5.69339C3.49926 5.68339 3.47926 5.67339 3.44926 5.66339C3.42926 5.66339 3.39926 5.65339 3.36926 5.66339C3.37926 5.66339 3.38926 5.64339 3.40926 5.65339C3.43926 5.65339 3.46926 5.67339 3.49926 5.68339C3.59926 5.71339 3.72926 5.76339 3.88926 5.73339C4.01926 5.71339 4.11926 5.65339 4.19926 5.59339C4.19926 5.59339 4.13926 5.65339 4.10926 5.67339C4.04926 5.71339 3.97926 5.74339 3.89926 5.76339C3.96926 5.76339 4.02926 5.73339 4.09926 5.70339C4.04926 5.73339 3.99926 5.76339 3.94926 5.77339C4.00926 5.77339 4.06926 5.74339 4.12926 5.71339C4.08926 5.74339 4.03926 5.76339 3.98926 5.78339C4.04926 5.78339 4.09926 5.75339 4.14926 5.72339C4.10926 5.75339 4.06926 5.77339 4.02926 5.79339C4.07926 5.78339 4.12926 5.76339 4.16926 5.73339C4.13926 5.75339 4.09926 5.77339 4.06926 5.80339C4.08926 5.80339 4.10926 5.78339 4.13926 5.77339C4.07926 5.81339 4.00926 5.85339 3.91926 5.86339C3.77926 5.88339 3.65926 5.84339 3.56926 5.81339C3.52926 5.80339 3.49926 5.79339 3.47926 5.78339C3.43926 5.78339 3.39926 5.79339 3.36926 5.82339C3.37926 5.80339 3.38926 5.79339 3.40926 5.78339C3.41926 5.78339 3.43926 5.77339 3.44926 5.77339C3.46926 5.77339 3.47926 5.77339 3.49926 5.77339C3.52926 5.77339 3.56926 5.79339 3.59926 5.80339C3.56926 5.79339 3.53926 5.77339 3.49926 5.76339L3.47926 5.74339ZM4.28926 6.34339C3.61926 6.33339 3.39926 6.03339 3.33926 5.91339C3.33926 5.88339 3.34926 5.85339 3.36926 5.83339C3.38926 5.81339 3.41926 5.80339 3.44926 5.80339C3.46926 5.80339 3.49926 5.82339 3.53926 5.83339C3.62926 5.86339 3.75926 5.91339 3.90926 5.88339C4.06926 5.86339 4.17926 5.77339 4.24926 5.70339C4.24926 5.70339 4.26926 5.69339 4.28926 5.68339C4.29926 5.68339 4.31926 5.68339 4.32926 5.70339C4.39926 5.77339 4.51926 5.86339 4.66926 5.88339C4.81926 5.90339 4.94926 5.86339 5.03926 5.83339C5.06926 5.82339 5.09926 5.81339 5.12926 5.80339C5.15926 5.80339 5.18926 5.80339 5.20926 5.83339C5.22926 5.85339 5.22926 5.88339 5.23926 5.91339C5.17926 6.02339 4.95926 6.33339 4.28926 6.34339Z" fill="#3D3D3D"/>
<path d="M6.63945 4.68335C6.53945 4.51335 6.37945 4.39335 6.18945 4.35335C6.09945 4.33335 6.01945 4.33335 5.92945 4.35335C5.74945 4.39335 5.55945 4.33335 5.43945 4.18335C5.30945 4.02335 5.11945 3.93335 4.91945 3.93335C4.76945 3.93335 4.62945 3.98335 4.50945 4.08335C4.37945 4.18335 4.18945 4.18335 4.05945 4.08335C3.93945 3.98335 3.79945 3.93335 3.64945 3.93335C3.44945 3.93335 3.25945 4.02335 3.12945 4.18335C3.00945 4.32335 2.82945 4.38335 2.63945 4.35335C2.54945 4.33335 2.46945 4.33335 2.37945 4.35335C2.28945 4.37335 2.19945 4.41335 2.11945 4.46335C2.05945 4.50335 2.01945 4.56335 1.97945 4.61335C1.95945 4.63335 1.93945 4.64335 1.92945 4.67335C1.90945 4.71335 1.89945 4.76335 1.87945 4.80335C1.85945 4.85335 1.83945 4.89335 1.82945 4.95335C1.80945 5.05335 1.80945 5.16335 1.82945 5.26335C1.83945 5.33335 1.86945 5.40335 1.89945 5.47335C1.90945 5.52335 1.94945 5.56335 1.96945 5.60335H1.95945C1.95945 5.60335 1.97945 5.62335 1.98945 5.63335H1.96945C1.96945 5.63335 1.99945 5.66335 2.00945 5.67335C2.09945 5.80335 2.20945 5.92335 2.34945 5.97335C2.41945 6.00335 2.48945 6.02335 2.55945 6.04335C2.61945 6.05335 2.66945 6.06335 2.70945 6.07335H2.71945C2.71945 6.07335 2.75945 6.07335 2.77945 6.07335C2.86945 6.07335 2.98945 6.09335 3.04945 6.16335C3.02945 6.19335 2.98945 6.21335 2.94945 6.21335C2.92945 6.21335 2.89945 6.21335 2.87945 6.20335C2.85945 6.20335 2.83945 6.19335 2.80945 6.19335C2.78945 6.19335 2.76945 6.19335 2.74945 6.22335C2.72945 6.24335 2.73945 6.31335 2.76945 6.38335C2.76945 6.47335 2.84945 6.60335 3.03945 6.71335C3.08945 6.74335 3.17945 6.75335 3.23945 6.78335C3.49945 6.88335 3.81945 6.94335 4.24945 6.94335C4.26945 6.94335 4.28945 6.94335 4.29945 6.94335C4.80945 6.94335 5.19945 6.86335 5.45945 6.71335C5.64945 6.60335 5.71945 6.47335 5.72945 6.38335C5.76945 6.31335 5.76945 6.25335 5.74945 6.22335C5.72945 6.20335 5.70945 6.19335 5.68945 6.19335C5.68945 6.19335 5.67945 6.19335 5.66945 6.19335C5.65945 6.19335 5.63945 6.19335 5.62945 6.19335C5.60945 6.19335 5.57945 6.20335 5.55945 6.20335C5.52945 6.20335 5.48945 6.18335 5.45945 6.15335C5.51945 6.08335 5.63945 6.07335 5.72945 6.06335C5.74945 6.06335 5.76945 6.06335 5.78945 6.06335H5.79945C5.89945 6.04335 5.99945 6.03335 6.15945 5.96335C6.27945 5.92335 6.37945 5.84335 6.45945 5.74335C6.47945 5.71335 6.48945 5.68335 6.50945 5.65335C6.50945 5.65335 6.52945 5.64335 6.53945 5.63335H6.52945C6.55945 5.57335 6.59945 5.52335 6.61945 5.46335C6.61945 5.46335 6.61945 5.46335 6.61945 5.45335C6.64945 5.38335 6.67945 5.31335 6.68945 5.24335C6.72945 5.03335 6.68945 4.82335 6.58945 4.65335L6.63945 4.68335ZM2.80945 6.06335C2.80945 6.06335 2.76945 6.06335 2.74945 6.06335H2.73945C2.73945 6.06335 2.63945 6.05335 2.58945 6.03335C2.51945 6.01335 2.45945 5.99335 2.38945 5.96335C2.35945 5.96335 2.33945 5.93335 2.31945 5.92335C2.41945 5.97335 2.52945 6.00335 2.63945 6.02335C2.52945 5.99335 2.42945 5.95335 2.33945 5.89335C2.43945 5.93335 2.53945 5.97335 2.64945 5.98335C2.61945 5.98335 2.58945 5.95335 2.55945 5.94335C2.60945 5.95335 2.64945 5.96335 2.68945 5.96335C2.68945 5.96335 2.69945 5.96335 2.70945 5.96335C2.70945 5.96335 2.74945 5.96335 2.76945 5.96335C2.83945 5.96335 2.90945 5.98335 2.96945 6.01335C2.91945 6.00335 2.87945 5.99335 2.82945 5.99335C2.87945 5.99335 2.92945 6.01335 2.96945 6.03335C2.96945 6.03335 2.96945 6.03335 2.97945 6.04335C2.92945 6.02335 2.88945 6.02335 2.83945 6.02335C2.88945 6.03335 2.92945 6.04335 2.97945 6.07335C2.91945 6.05335 2.84945 6.04335 2.78945 6.03335L2.80945 6.06335ZM4.23945 6.93335C3.71945 6.93335 3.40945 6.85335 3.19945 6.75335L3.23945 6.77335C3.23945 6.77335 3.30945 6.79335 3.34945 6.80335C3.41945 6.82335 3.49945 6.83335 3.56945 6.84335C3.49945 6.83335 3.41945 6.81335 3.34945 6.79335C3.30945 6.79335 3.27945 6.77335 3.23945 6.75335L3.18945 6.73335C3.18945 6.73335 3.15945 6.71335 3.13945 6.70335C3.11945 6.69335 3.09945 6.67335 3.07945 6.66335C3.09945 6.67335 3.11945 6.68335 3.13945 6.69335C3.13945 6.69335 3.15945 6.69335 3.16945 6.69335C3.20945 6.71335 3.25945 6.73335 3.31945 6.74335H3.33945C3.39945 6.76335 3.46945 6.77335 3.54945 6.79335C3.57945 6.79335 3.61945 6.79335 3.65945 6.80335C3.68945 6.80335 3.71945 6.80335 3.75945 6.81335C3.78945 6.81335 3.81945 6.81335 3.84945 6.82335C3.88945 6.82335 3.92945 6.82335 3.96945 6.82335C4.03945 6.82335 4.10945 6.83335 4.17945 6.84335C4.08945 6.84335 3.98945 6.84335 3.89945 6.84335C3.99945 6.86335 4.09945 6.86335 4.20945 6.87335C4.10945 6.87335 4.00945 6.87335 3.90945 6.87335C4.00945 6.89335 4.10945 6.89335 4.20945 6.89335C4.11945 6.89335 4.01945 6.89335 3.92945 6.89335C4.02945 6.91335 4.13945 6.91335 4.23945 6.92335V6.93335ZM5.38945 6.72335L5.33945 6.74335C5.33945 6.74335 5.26945 6.77335 5.22945 6.78335C5.15945 6.80335 5.07945 6.82335 5.00945 6.83335C5.07945 6.83335 5.15945 6.81335 5.22945 6.79335C5.26945 6.79335 5.29945 6.77335 5.33945 6.76335L5.38945 6.74335C5.17945 6.84335 4.85945 6.93335 4.33945 6.93335C4.43945 6.93335 4.54945 6.93335 4.64945 6.90335C4.54945 6.90335 4.45945 6.90335 4.35945 6.90335C4.45945 6.90335 4.55945 6.90335 4.65945 6.87335C4.55945 6.87335 4.46945 6.87335 4.37945 6.87335C4.47945 6.87335 4.57945 6.87335 4.66945 6.85335C4.56945 6.85335 4.47945 6.85335 4.37945 6.85335C4.44945 6.85335 4.51945 6.85335 4.58945 6.83335C4.62945 6.83335 4.66945 6.83335 4.70945 6.83335C4.74945 6.83335 4.76945 6.83335 4.80945 6.82335C4.83945 6.82335 4.86945 6.82335 4.90945 6.81335C4.94945 6.81335 4.98945 6.81335 5.01945 6.80335C5.09945 6.79335 5.16945 6.77335 5.22945 6.75335H5.24945C5.29945 6.73335 5.34945 6.72335 5.39945 6.70335C5.39945 6.70335 5.41945 6.70335 5.42945 6.70335C5.44945 6.69335 5.46945 6.68335 5.48945 6.67335C5.46945 6.68335 5.44945 6.70335 5.42945 6.71335C5.40945 6.71335 5.39945 6.73335 5.37945 6.74335L5.38945 6.72335ZM6.23945 5.92335C6.23945 5.92335 6.20945 5.94335 6.19945 5.95335C6.04945 6.02335 5.94945 6.03335 5.84945 6.04335H5.83945C5.83945 6.04335 5.79945 6.04335 5.77945 6.04335C5.71945 6.04335 5.63945 6.06335 5.56945 6.09335C5.56945 6.09335 5.56945 6.08335 5.58945 6.07335C5.62945 6.05335 5.67945 6.03335 5.72945 6.02335C5.67945 6.02335 5.63945 6.02335 5.58945 6.04335C5.58945 6.04335 5.58945 6.04335 5.59945 6.03335C5.63945 6.01335 5.68945 6.00335 5.73945 5.99335C5.69945 5.99335 5.65945 5.99335 5.60945 6.01335C5.66945 5.98335 5.74945 5.97335 5.80945 5.96335C5.82945 5.96335 5.84945 5.96335 5.86945 5.96335H5.87945C5.92945 5.96335 5.98945 5.94335 6.04945 5.93335C6.00945 5.94335 5.97945 5.96335 5.94945 5.97335C6.05945 5.96335 6.16945 5.92335 6.26945 5.87335C6.16945 5.93335 6.05945 5.97335 5.94945 6.00335C6.04945 5.98335 6.14945 5.95335 6.23945 5.91335V5.92335ZM6.69945 5.26335C6.68945 5.33335 6.65945 5.40335 6.62945 5.46335C6.59945 5.52335 6.56945 5.57335 6.52945 5.62335C6.44945 5.72335 6.34945 5.79335 6.23945 5.84335C6.15945 5.87335 6.09945 5.90335 6.03945 5.91335C5.97945 5.92335 5.92945 5.93335 5.87945 5.94335H5.86945C5.86945 5.94335 5.82945 5.94335 5.80945 5.94335C5.68945 5.95335 5.52945 5.97335 5.46945 6.09335C5.44945 6.13335 5.44945 6.16335 5.45945 6.19335C5.47945 6.26335 5.56945 6.28335 5.61945 6.28335C5.64945 6.28335 5.67945 6.28335 5.69945 6.27335C5.74945 6.26335 5.75945 6.25335 5.77945 6.27335C5.77945 6.27335 5.77945 6.32335 5.74945 6.38335C5.73945 6.40335 5.71945 6.42335 5.70945 6.44335C5.58945 6.59335 5.23945 6.81335 4.30945 6.80335C3.75945 6.80335 3.41945 6.73335 3.19945 6.64335C2.97945 6.55335 2.88945 6.44335 2.85945 6.38335C2.82945 6.32335 2.82945 6.27335 2.82945 6.27335C2.83945 6.25335 2.85945 6.25335 2.90945 6.27335C2.92945 6.27335 2.95945 6.28335 2.98945 6.28335C3.03945 6.28335 3.11945 6.25335 3.14945 6.19335C3.15945 6.16335 3.14945 6.12335 3.13945 6.09335C3.10945 6.03335 3.04945 5.99335 2.98945 5.97335C2.92945 5.95335 2.85945 5.94335 2.79945 5.94335C2.77945 5.94335 2.75945 5.94335 2.73945 5.94335C2.68945 5.94335 2.63945 5.92335 2.57945 5.91335C2.50945 5.89335 2.44945 5.87335 2.36945 5.84335C2.29945 5.81335 2.22945 5.77335 2.16945 5.71335C2.14945 5.69335 2.12945 5.68335 2.11945 5.66335C2.06945 5.60335 2.00945 5.54335 1.97945 5.47335C1.94945 5.41335 1.92945 5.34335 1.90945 5.27335C1.86945 5.07335 1.90945 4.88335 1.99945 4.71335C2.09945 4.55335 2.24945 4.44335 2.41945 4.40335C2.49945 4.38335 2.57945 4.38335 2.65945 4.40335C2.75945 4.42335 2.85945 4.41335 2.94945 4.38335C3.03945 4.35335 3.11945 4.29335 3.18945 4.22335C3.31945 4.07335 3.48945 3.98335 3.67945 3.98335C3.74945 3.98335 3.81945 3.99335 3.87945 4.02335C3.94945 4.04335 4.00945 4.08335 4.05945 4.12335C4.19945 4.24335 4.40945 4.24335 4.55945 4.12335C4.66945 4.03335 4.80945 3.98335 4.94945 3.98335C5.03945 3.98335 5.12945 4.00335 5.21945 4.04335C5.29945 4.08335 5.37945 4.14335 5.43945 4.21335C5.56945 4.36335 5.76945 4.43335 5.96945 4.39335C6.04945 4.37335 6.12945 4.37335 6.20945 4.39335C6.56945 4.46335 6.79945 4.85335 6.71945 5.25335L6.69945 5.26335Z" fill="#3D3D3D"/>
<path d="M3.20951 4.89336C3.20951 4.89336 3.21951 4.93336 3.22951 4.95336C3.22951 4.95336 3.22951 4.96336 3.22951 4.97336C3.22951 4.97336 3.22951 4.97336 3.22951 4.98336C3.22951 4.98336 3.22951 4.99336 3.22951 5.00336C3.22951 5.00336 3.22951 5.01336 3.22951 5.02336C3.22951 5.02336 3.22951 5.02336 3.22951 5.03336V5.05336C3.22951 5.05336 3.22951 5.07336 3.22951 5.08336C3.22951 5.08336 3.23951 5.10336 3.24951 5.11336C3.24951 5.11336 3.24951 5.12336 3.24951 5.13336C3.24951 5.13336 3.24951 5.13336 3.25951 5.13336C3.34951 5.30336 3.50951 5.41336 3.67951 5.41336C3.69951 5.41336 3.70951 5.41336 3.72951 5.41336C3.91951 5.39336 4.06951 5.23336 4.12951 5.02336C4.12951 5.01336 4.12951 4.99336 4.12951 4.98336C4.12951 4.98336 4.12951 4.98336 4.12951 4.97336C4.12951 4.97336 4.12951 4.96336 4.12951 4.95336C4.12951 4.95336 4.12951 4.95336 4.12951 4.93336C4.12951 4.93336 4.12951 4.92336 4.12951 4.91336C4.12951 4.91336 4.12951 4.90336 4.12951 4.89336C4.12951 4.89336 4.12951 4.89336 4.12951 4.88336C4.12951 4.88336 4.12951 4.87336 4.12951 4.86336C4.12951 4.86336 4.12951 4.86336 4.12951 4.85336C4.12951 4.85336 4.12951 4.84336 4.12951 4.83336C4.12951 4.81336 4.12951 4.79336 4.12951 4.77336C4.10951 4.61336 4.04951 4.47336 3.93951 4.37336C3.83951 4.27336 3.70951 4.22336 3.57951 4.24336C3.30951 4.27336 3.12951 4.56336 3.15951 4.88336L3.20951 4.89336ZM3.75951 5.38336C3.58951 5.40336 3.41951 5.29336 3.32951 5.12336C3.32951 4.85336 3.46951 4.62336 3.66951 4.60336C3.86951 4.58336 4.05951 4.76336 4.11951 5.03336C4.06951 5.22336 3.93951 5.37336 3.75951 5.39336V5.38336ZM3.67951 4.29336C3.72951 4.29336 3.77951 4.30336 3.82951 4.32336C3.87951 4.34336 3.91951 4.37336 3.96951 4.41336C3.98951 4.43336 3.99951 4.46336 4.01951 4.48336C3.98951 4.44336 3.94951 4.40336 3.90951 4.38336C3.85951 4.35336 3.79951 4.32336 3.73951 4.32336C3.79951 4.32336 3.85951 4.35336 3.90951 4.39336C3.95951 4.43336 3.99951 4.47336 4.03951 4.52336C4.03951 4.52336 4.03951 4.53336 4.03951 4.54336C3.99951 4.49336 3.95951 4.45336 3.90951 4.42336C3.85951 4.39336 3.79951 4.37336 3.73951 4.36336C3.79951 4.36336 3.85951 4.39336 3.90951 4.42336C3.95951 4.45336 3.99951 4.50336 4.03951 4.55336C4.03951 4.55336 4.03951 4.56336 4.03951 4.57336C3.99951 4.53336 3.95951 4.49336 3.90951 4.46336C3.85951 4.43336 3.79951 4.41336 3.73951 4.41336C3.79951 4.41336 3.85951 4.44336 3.89951 4.47336C3.94951 4.50336 3.98951 4.54336 4.01951 4.59336V4.61336C3.97951 4.57336 3.93951 4.53336 3.88951 4.50336C3.83951 4.47336 3.77951 4.46336 3.71951 4.46336C3.77951 4.46336 3.82951 4.48336 3.87951 4.51336C3.92951 4.54336 3.96951 4.58336 3.99951 4.63336V4.65336C3.95951 4.61336 3.91951 4.57336 3.86951 4.55336C3.81951 4.52336 3.75951 4.51336 3.69951 4.51336C3.75951 4.51336 3.80951 4.53336 3.85951 4.56336C3.90951 4.59336 3.94951 4.63336 3.97951 4.67336C3.97951 4.67336 3.97951 4.69336 3.98951 4.70336C3.88951 4.59336 3.76951 4.52336 3.63951 4.53336C3.46951 4.55336 3.34951 4.69336 3.28951 4.88336C3.28951 4.87336 3.28951 4.86336 3.28951 4.85336C3.30951 4.78336 3.33951 4.70336 3.37951 4.64336C3.32951 4.69336 3.29951 4.76336 3.27951 4.82336C3.27951 4.82336 3.27951 4.82336 3.27951 4.81336C3.29951 4.74336 3.32951 4.66336 3.36951 4.60336C3.31951 4.65336 3.28951 4.72336 3.25951 4.79336C3.25951 4.79336 3.25951 4.79336 3.25951 4.78336C3.27951 4.70336 3.30951 4.63336 3.34951 4.57336C3.29951 4.62336 3.26951 4.69336 3.23951 4.76336C3.23951 4.76336 3.23951 4.76336 3.23951 4.75336C3.25951 4.67336 3.28951 4.60336 3.33951 4.53336C3.28951 4.58336 3.25951 4.65336 3.22951 4.72336C3.22951 4.72336 3.22951 4.72336 3.22951 4.71336C3.24951 4.63336 3.27951 4.56336 3.32951 4.49336C3.27951 4.54336 3.24951 4.61336 3.22951 4.68336C3.26951 4.47336 3.40951 4.30336 3.59951 4.28336C3.60951 4.28336 3.62951 4.28336 3.63951 4.28336L3.67951 4.29336Z" fill="#3D3D3D"/>
<path d="M2.27967 4.74328C2.27967 4.74328 2.26967 4.75328 2.25967 4.76328C2.24967 4.78328 2.22967 4.79328 2.21967 4.81328C2.20967 4.83328 2.19967 4.85328 2.18967 4.87328C2.18967 4.89328 2.17967 4.90328 2.16967 4.92328C2.16967 4.93328 2.16967 4.94328 2.15967 4.96328C2.15967 4.99328 2.15967 5.03328 2.15967 5.07328C2.15967 5.09328 2.15967 5.12328 2.15967 5.14328C2.15967 5.21328 2.17967 5.27328 2.19967 5.33328C2.19967 5.33328 2.19967 5.33328 2.19967 5.34328C2.19967 5.34328 2.19967 5.36328 2.20967 5.37328C2.20967 5.37328 2.20967 5.37328 2.20967 5.38328C2.20967 5.39328 2.21967 5.41328 2.22967 5.42328L2.25967 5.46328C2.25967 5.46328 2.26967 5.48328 2.27967 5.49328C2.27967 5.49328 2.27967 5.49328 2.27967 5.50328C2.31967 5.54328 2.36967 5.59328 2.41967 5.61328C2.48967 5.65328 2.56967 5.67328 2.63967 5.67328C2.68967 5.67328 2.73967 5.67328 2.77967 5.64328C2.88967 5.59328 2.97967 5.49328 3.01967 5.36328C3.03967 5.28328 3.03967 5.20328 3.02967 5.11328C3.02967 5.11328 3.02967 5.11328 3.02967 5.10328C3.02967 5.10328 3.02967 5.10328 3.02967 5.09328V5.07328C3.02967 5.07328 3.02967 5.06328 3.02967 5.05328C3.02967 5.03328 3.02967 5.02328 3.01967 5.00328C3.01967 4.98328 3.00967 4.97328 2.99967 4.95328C2.96967 4.88328 2.93967 4.82328 2.88967 4.77328C2.88967 4.77328 2.88967 4.76328 2.87967 4.75328C2.87967 4.75328 2.86967 4.73328 2.85967 4.73328C2.84967 4.72328 2.83967 4.72328 2.82967 4.71328C2.77967 4.66328 2.71967 4.63328 2.65967 4.61328C2.63967 4.61328 2.61967 4.59328 2.59967 4.59328C2.51967 4.57328 2.44967 4.57328 2.36967 4.60328C2.31967 4.62328 2.27967 4.65328 2.24967 4.68328L2.27967 4.74328ZM3.03967 5.18328C3.04967 5.26328 3.04967 5.34328 3.02967 5.42328C2.98967 5.54328 2.91967 5.63328 2.81967 5.67328C2.71967 5.71328 2.59967 5.70328 2.48967 5.64328C2.43967 5.61328 2.39967 5.57328 2.35967 5.53328C2.27967 5.28328 2.35967 5.02328 2.53967 4.95328C2.70967 4.88328 2.91967 4.98328 3.03967 5.18328ZM2.88967 4.84328C2.88967 4.84328 2.88967 4.85328 2.89967 4.86328C2.89967 4.86328 2.89967 4.86328 2.89967 4.87328C2.88967 4.86328 2.87967 4.84328 2.86967 4.83328C2.86967 4.83328 2.86967 4.83328 2.87967 4.84328H2.88967ZM2.65967 4.71328C2.60967 4.70328 2.55967 4.69328 2.50967 4.71328C2.56967 4.71328 2.62967 4.71328 2.67967 4.73328C2.72967 4.75328 2.77967 4.78328 2.82967 4.81328C2.78967 4.78328 2.73967 4.76328 2.68967 4.75328C2.63967 4.74328 2.57967 4.73328 2.51967 4.75328C2.57967 4.75328 2.62967 4.75328 2.67967 4.77328C2.72967 4.79328 2.77967 4.81328 2.81967 4.85328C2.77967 4.82328 2.72967 4.80328 2.67967 4.79328C2.62967 4.78328 2.56967 4.78328 2.51967 4.79328C2.56967 4.79328 2.62967 4.79328 2.67967 4.80328C2.72967 4.82328 2.77967 4.84328 2.81967 4.87328C2.77967 4.84328 2.72967 4.82328 2.67967 4.81328C2.62967 4.80328 2.56967 4.80328 2.51967 4.81328C2.56967 4.81328 2.61967 4.81328 2.66967 4.82328C2.71967 4.83328 2.76967 4.86328 2.80967 4.89328C2.80967 4.89328 2.80967 4.89328 2.80967 4.90328C2.76967 4.88328 2.71967 4.86328 2.67967 4.85328C2.62967 4.84328 2.57967 4.84328 2.52967 4.85328C2.57967 4.85328 2.62967 4.85328 2.67967 4.86328C2.72967 4.87328 2.76967 4.90328 2.80967 4.92328C2.82967 4.94328 2.83967 4.96328 2.86967 4.98328C2.79967 4.93328 2.71967 4.90328 2.63967 4.89328C2.63967 4.89328 2.62967 4.89328 2.61967 4.89328C2.56967 4.89328 2.51967 4.87328 2.47967 4.89328C2.43967 4.91328 2.41967 4.95328 2.38967 4.98328C2.37967 4.99328 2.35967 5.00328 2.34967 5.02328C2.27967 5.11328 2.24967 5.22328 2.24967 5.35328C2.24967 5.33328 2.23967 5.31328 2.22967 5.29328C2.22967 5.22328 2.22967 5.15328 2.24967 5.08328C2.22967 5.14328 2.21967 5.20328 2.21967 5.27328C2.21967 5.20328 2.21967 5.13328 2.23967 5.06328C2.21967 5.12328 2.20967 5.18328 2.20967 5.25328C2.20967 5.18328 2.20967 5.11328 2.22967 5.04328C2.20967 5.10328 2.19967 5.16328 2.19967 5.23328C2.19967 5.16328 2.19967 5.09328 2.21967 5.02328C2.19967 5.06328 2.19967 5.11328 2.18967 5.16328C2.18967 5.15328 2.18967 5.13328 2.18967 5.12328C2.18967 5.08328 2.18967 5.04328 2.18967 5.00328C2.18967 5.02328 2.18967 5.05328 2.17967 5.08328C2.17967 5.06328 2.16967 5.03328 2.17967 5.01328C2.17967 4.99328 2.17967 4.98328 2.18967 4.96328C2.18967 4.95328 2.19967 4.93328 2.20967 4.92328C2.20967 4.90328 2.22967 4.88328 2.23967 4.87328C2.24967 4.85328 2.26967 4.83328 2.27967 4.82328C2.27967 4.82328 2.28967 4.81328 2.29967 4.80328C2.32967 4.77328 2.36967 4.74328 2.40967 4.73328C2.48967 4.70328 2.56967 4.71328 2.64967 4.74328L2.65967 4.71328Z" fill="#3D3D3D"/>
<path d="M6.23939 5.56344C6.23939 5.56344 6.23939 5.56344 6.24939 5.56344C6.24939 5.56344 6.25939 5.56344 6.26939 5.56344C6.26939 5.56344 6.27939 5.54344 6.28939 5.53344C6.28939 5.53344 6.29939 5.51344 6.30939 5.50344C6.30939 5.50344 6.31939 5.48344 6.32939 5.48344C6.32939 5.48344 6.33939 5.46344 6.34939 5.46344C6.34939 5.46344 6.35939 5.45344 6.35939 5.44344C6.35939 5.43344 6.37939 5.42344 6.37939 5.40344C6.43939 5.26344 6.44939 5.11344 6.40939 4.98344C6.36939 4.85344 6.28939 4.75344 6.16939 4.70344C6.06939 4.66344 5.95939 4.67344 5.85939 4.71344C5.77939 4.74344 5.70939 4.79344 5.63939 4.86344C5.58939 4.91344 5.54939 4.98344 5.51939 5.05344C5.49939 5.10344 5.47939 5.16344 5.47939 5.22344C5.44939 5.45344 5.54939 5.67344 5.72939 5.74344C5.77939 5.76344 5.81939 5.77344 5.86939 5.77344C5.99939 5.77344 6.10939 5.70344 6.20939 5.59344L6.23939 5.56344ZM5.86939 4.85344C5.86939 4.85344 5.77939 4.88344 5.73939 4.90344C5.73939 4.90344 5.73939 4.90344 5.73939 4.89344C5.77939 4.86344 5.82939 4.84344 5.87939 4.82344C5.92939 4.81344 5.97939 4.80344 6.02939 4.81344C5.97939 4.80344 5.91939 4.81344 5.86939 4.81344C5.81939 4.82344 5.77939 4.84344 5.72939 4.87344C5.76939 4.84344 5.81939 4.81344 5.86939 4.80344C5.91939 4.78344 5.97939 4.78344 6.02939 4.79344C5.97939 4.78344 5.91939 4.79344 5.86939 4.79344C5.81939 4.80344 5.76939 4.82344 5.72939 4.85344C5.76939 4.82344 5.81939 4.79344 5.86939 4.77344C5.91939 4.75344 5.97939 4.75344 6.02939 4.75344C5.97939 4.74344 5.91939 4.75344 5.85939 4.75344C5.80939 4.76344 5.75939 4.79344 5.71939 4.81344C5.75939 4.78344 5.80939 4.75344 5.86939 4.73344C5.91939 4.71344 5.97939 4.71344 6.03939 4.71344C5.97939 4.70344 5.92939 4.71344 5.86939 4.71344C5.94939 4.68344 6.03939 4.67344 6.11939 4.70344C6.21939 4.74344 6.29939 4.83344 6.32939 4.95344C6.34939 5.02344 6.34939 5.09344 6.34939 5.16344C6.34939 5.10344 6.33939 5.04344 6.31939 4.98344C6.33939 5.05344 6.33939 5.12344 6.33939 5.19344C6.33939 5.13344 6.32939 5.06344 6.30939 5.00344C6.32939 5.07344 6.32939 5.14344 6.32939 5.21344C6.32939 5.15344 6.31939 5.08344 6.29939 5.02344C6.31939 5.09344 6.31939 5.16344 6.31939 5.23344C6.31939 5.17344 6.30939 5.10344 6.28939 5.04344C6.30939 5.11344 6.30939 5.18344 6.30939 5.25344C6.30939 5.18344 6.29939 5.12344 6.27939 5.06344C6.29939 5.13344 6.30939 5.20344 6.29939 5.27344C6.29939 5.29344 6.28939 5.30344 6.28939 5.32344C6.28939 5.19344 6.25939 5.09344 6.18939 5.00344C6.17939 4.99344 6.15939 4.97344 6.14939 4.96344C6.11939 4.93344 6.09939 4.88344 6.05939 4.87344C6.01939 4.85344 5.97939 4.85344 5.92939 4.85344C5.85939 4.85344 5.78939 4.87344 5.72939 4.90344C5.76939 4.87344 5.81939 4.85344 5.85939 4.84344C5.90939 4.83344 5.95939 4.82344 6.00939 4.83344C5.95939 4.83344 5.90939 4.83344 5.85939 4.83344L5.86939 4.85344ZM5.76939 5.67344C5.59939 5.60344 5.51939 5.40344 5.54939 5.18344C5.67939 4.98344 5.87939 4.88344 6.04939 4.95344C6.22939 5.02344 6.30939 5.28344 6.22939 5.53344C6.09939 5.67344 5.91939 5.73344 5.76939 5.67344Z" fill="#3D3D3D"/>
<path d="M4.94941 4.25344C4.81941 4.24344 4.68941 4.28344 4.58941 4.38344C4.48941 4.48344 4.41941 4.62344 4.39941 4.78344C4.39941 4.80344 4.39941 4.82344 4.39941 4.84344C4.39941 4.84344 4.39941 4.85344 4.39941 4.86344C4.39941 4.86344 4.39941 4.86344 4.39941 4.87344C4.39941 4.87344 4.39941 4.88344 4.39941 4.89344V4.90344C4.39941 4.90344 4.39941 4.90344 4.39941 4.92344C4.39941 4.92344 4.39941 4.93344 4.39941 4.94344C4.39941 4.94344 4.39941 4.94344 4.39941 4.95344C4.39941 4.95344 4.39941 4.96344 4.39941 4.97344C4.39941 4.97344 4.39941 4.97344 4.39941 4.98344C4.39941 4.98344 4.39941 5.01344 4.39941 5.02344C4.44941 5.23344 4.59941 5.39344 4.79941 5.41344C4.81941 5.41344 4.82941 5.41344 4.84941 5.41344C5.01941 5.41344 5.17941 5.30344 5.26941 5.13344C5.26941 5.13344 5.26941 5.13344 5.27941 5.13344C5.27941 5.13344 5.27941 5.12344 5.27941 5.11344C5.27941 5.10344 5.28941 5.09344 5.29941 5.08344C5.29941 5.08344 5.29941 5.06344 5.29941 5.05344V5.03344C5.29941 5.03344 5.29941 5.03344 5.29941 5.02344C5.29941 5.02344 5.29941 5.01344 5.29941 5.00344C5.29941 5.00344 5.29941 4.99344 5.29941 4.98344C5.29941 4.98344 5.29941 4.98344 5.29941 4.97344C5.29941 4.97344 5.29941 4.96344 5.29941 4.95344C5.29941 4.93344 5.30941 4.91344 5.31941 4.89344C5.35941 4.57344 5.16941 4.28344 4.89941 4.25344H4.94941ZM4.82941 5.38344C4.64941 5.36344 4.51941 5.21344 4.46941 5.02344C4.52941 4.75344 4.71941 4.57344 4.91941 4.59344C5.11941 4.61344 5.26941 4.84344 5.25941 5.11344C5.16941 5.28344 5.00941 5.39344 4.82941 5.37344V5.38344ZM5.20941 4.51344C5.25941 4.58344 5.28941 4.65344 5.30941 4.73344C5.30941 4.73344 5.30941 4.73344 5.30941 4.74344C5.28941 4.67344 5.24941 4.60344 5.19941 4.55344C5.24941 4.61344 5.27941 4.69344 5.29941 4.77344C5.29941 4.77344 5.29941 4.77344 5.29941 4.78344C5.27941 4.71344 5.23941 4.64344 5.18941 4.59344C5.23941 4.65344 5.26941 4.73344 5.27941 4.80344C5.27941 4.80344 5.27941 4.80344 5.27941 4.81344C5.25941 4.74344 5.21941 4.68344 5.16941 4.62344C5.21941 4.68344 5.24941 4.76344 5.25941 4.83344C5.25941 4.83344 5.25941 4.83344 5.25941 4.84344C5.23941 4.77344 5.19941 4.71344 5.15941 4.66344C5.20941 4.72344 5.23941 4.79344 5.24941 4.87344C5.24941 4.88344 5.24941 4.89344 5.24941 4.90344C5.18941 4.71344 5.06941 4.57344 4.89941 4.55344C4.88941 4.55344 4.86941 4.55344 4.85941 4.55344C4.81941 4.55344 4.78941 4.58344 4.74941 4.59344C4.74941 4.59344 4.72941 4.59344 4.71941 4.60344C4.63941 4.63344 4.56941 4.69344 4.51941 4.78344C4.53941 4.75344 4.53941 4.71344 4.55941 4.69344C4.58941 4.65344 4.63941 4.61344 4.67941 4.58344C4.72941 4.55344 4.77941 4.53344 4.83941 4.53344C4.77941 4.53344 4.72941 4.54344 4.66941 4.57344C4.61941 4.60344 4.57941 4.63344 4.53941 4.67344V4.65344C4.56941 4.60344 4.61941 4.56344 4.65941 4.53344C4.70941 4.50344 4.75941 4.48344 4.81941 4.48344C4.75941 4.48344 4.69941 4.50344 4.64941 4.52344C4.59941 4.55344 4.55941 4.59344 4.51941 4.63344V4.61344C4.54941 4.56344 4.59941 4.52344 4.63941 4.49344C4.68941 4.46344 4.73941 4.44344 4.79941 4.43344C4.73941 4.43344 4.67941 4.45344 4.62941 4.48344C4.57941 4.51344 4.53941 4.55344 4.49941 4.59344C4.49941 4.59344 4.49941 4.58344 4.49941 4.57344C4.52941 4.52344 4.57941 4.48344 4.62941 4.44344C4.67941 4.41344 4.73941 4.38344 4.79941 4.38344C4.73941 4.38344 4.67941 4.40344 4.62941 4.44344C4.57941 4.47344 4.53941 4.51344 4.49941 4.56344C4.49941 4.56344 4.49941 4.55344 4.49941 4.54344C4.52941 4.49344 4.57941 4.45344 4.62941 4.41344C4.67941 4.37344 4.73941 4.35344 4.79941 4.34344C4.73941 4.34344 4.67941 4.37344 4.62941 4.40344C4.58941 4.43344 4.54941 4.46344 4.51941 4.50344C4.53941 4.48344 4.54941 4.45344 4.56941 4.43344C4.65941 4.34344 4.77941 4.29344 4.89941 4.31344C4.95941 4.31344 5.01941 4.34344 5.06941 4.37344C5.16941 4.44344 5.24941 4.56344 5.26941 4.71344C5.24941 4.64344 5.21941 4.58344 5.16941 4.52344L5.20941 4.51344Z" fill="#3D3D3D"/>
</svg>
