<svg width="8" height="11" viewBox="0 0 8 11" fill="none" xmlns="http://www.w3.org/2000/svg">
<path d="M6.88979 10.0033H0.83979C0.66979 10.0033 0.529785 9.86333 0.529785 9.69333V0.97333C0.529785 0.80333 0.66979 0.66333 0.83979 0.66333H6.88979C7.05979 0.66333 7.19979 0.80333 7.19979 0.97333V9.69333C7.19979 9.86333 7.05979 10.0033 6.88979 10.0033ZM0.83979 0.67333C0.67979 0.67333 0.549789 0.80333 0.549789 0.96333V9.68333C0.549789 9.84333 0.67979 9.97333 0.83979 9.97333H6.88979C7.04979 9.97333 7.17979 9.84333 7.17979 9.68333V0.97333C7.17979 0.81333 7.04979 0.68333 6.88979 0.68333H0.83979V0.67333Z" fill="#3D3D3D"/>
<path d="M6.89 10.0233H0.840004C0.650004 10.0233 0.5 9.8733 0.5 9.6833V0.973301C0.5 0.783301 0.650004 0.633301 0.840004 0.633301H6.89C7.08 0.633301 7.23 0.783301 7.23 0.973301V9.6933C7.23 9.8833 7.08 10.0333 6.89 10.0333V10.0233ZM0.840004 0.703301C0.690004 0.703301 0.580002 0.823301 0.580002 0.963301V9.6833C0.580002 9.8333 0.700004 9.9433 0.840004 9.9433H6.89C7.04 9.9433 7.15 9.8233 7.15 9.6833V0.973301C7.15 0.823301 7.03 0.713301 6.89 0.713301H0.840004V0.703301Z" fill="#3D3D3D"/>
<path d="M6.71001 9.7833H1.01002C0.870017 9.7833 0.77002 9.6733 0.77002 9.5433V1.1233C0.77002 0.983301 0.880017 0.883301 1.01002 0.883301H6.71001C6.84001 0.883301 6.95002 0.993301 6.95002 1.1233V9.5433C6.95002 9.6733 6.84001 9.7833 6.71001 9.7833ZM1.01002 0.933301C0.900017 0.933301 0.820015 1.0233 0.820015 1.1233V9.5433C0.820015 9.6533 0.910017 9.7333 1.01002 9.7333H6.71001C6.82001 9.7333 6.90002 9.6433 6.90002 9.5433V1.1233C6.90002 1.0133 6.81001 0.933301 6.71001 0.933301H1.01002Z" fill="#3D3D3D"/>
<path d="M7.19 4.29326C7.19 4.29326 7.12001 4.28326 7.10001 4.29326C7.09001 4.29326 7.08 4.31326 7.07 4.31326C7.05 4.32326 7.03 4.33326 7 4.33326C7.02 4.33326 7.04 4.33326 7.05 4.33326C7.07 4.33326 7.08001 4.31326 7.10001 4.31326C7.12001 4.31326 7.14 4.31326 7.15 4.32326C7.15 4.32326 7.15001 4.34326 7.17001 4.32326C7.17001 4.32326 7.17001 4.30326 7.17001 4.29326H7.19Z" fill="#3D3D3D"/>
<path d="M5.81982 0.65332C5.81982 0.65332 5.87983 0.70332 5.87983 0.75332C5.87983 0.80332 5.85983 0.84332 5.85983 0.89332C5.88983 0.82332 5.91983 0.76332 5.91983 0.68332C5.93983 0.68332 5.95983 0.67332 5.98983 0.67332C5.93983 0.67332 5.89982 0.65332 5.81982 0.65332Z" fill="#3D3D3D"/>
<path d="M6.12012 0.67334C6.12012 0.67334 6.12012 0.75334 6.12012 0.78334C6.13012 0.77334 6.15012 0.71334 6.15012 0.69334C6.15012 0.68334 6.14012 0.67334 6.12012 0.67334Z" fill="#3D3D3D"/>
<path d="M2.87988 0.66333C2.87988 0.66333 2.93988 0.69333 2.94988 0.71333C2.95988 0.73333 2.94988 0.76333 2.96988 0.78333C2.97988 0.81333 3.01988 0.80333 3.04988 0.81333C3.07988 0.81333 3.09988 0.83333 3.12988 0.84333C3.12988 0.82333 3.10988 0.81333 3.08988 0.80333C3.07988 0.80333 3.06988 0.80333 3.05988 0.80333H3.01988C3.01988 0.80333 2.99988 0.74333 2.99988 0.73333C2.99988 0.71333 3.01988 0.70333 3.03988 0.69333C3.02988 0.67333 2.92988 0.69333 2.89988 0.69333L2.87988 0.66333Z" fill="#3D3D3D"/>
<path d="M3.24023 0.67334C3.24023 0.67334 3.25023 0.71334 3.26023 0.73334C3.26023 0.75334 3.26023 0.76334 3.28023 0.77334C3.28023 0.75334 3.28023 0.72334 3.28023 0.69334C3.28023 0.67334 3.28023 0.67334 3.25023 0.67334H3.24023Z" fill="#3D3D3D"/>
<path d="M0.540089 1.12326C0.540089 1.12326 0.600087 1.12326 0.640087 1.13326C0.660087 1.13326 0.640094 1.13326 0.670094 1.13326C0.690094 1.13326 0.700089 1.13326 0.720089 1.13326C0.700089 1.13326 0.68009 1.13326 0.65009 1.13326C0.61009 1.13326 0.620094 1.13326 0.600094 1.11326C0.590094 1.11326 0.570091 1.11326 0.550091 1.11326C0.540091 1.11326 0.550089 1.10326 0.540089 1.09326C0.530089 1.09326 0.540089 1.12326 0.540089 1.13326V1.12326Z" fill="#3D3D3D"/>
<path d="M0.540089 9.29318C0.540089 9.29318 0.600087 9.29318 0.640087 9.30318C0.660087 9.30318 0.640094 9.30318 0.670094 9.30318C0.690094 9.30318 0.700089 9.30318 0.720089 9.30318C0.700089 9.30318 0.68009 9.30318 0.65009 9.30318C0.61009 9.30318 0.620094 9.30318 0.600094 9.28318C0.590094 9.28318 0.570091 9.28318 0.550091 9.28318C0.540091 9.28318 0.550089 9.27318 0.540089 9.26318C0.530089 9.26318 0.540089 9.29318 0.540089 9.30318V9.29318Z" fill="#3D3D3D"/>
<path d="M0.550189 0.883352H0.630191C0.640191 0.863352 0.580188 0.873352 0.580188 0.853352C0.580188 0.843352 0.60019 0.823352 0.59019 0.813352C0.59019 0.783352 0.530187 0.843352 0.540187 0.873352L0.550189 0.883352Z" fill="#3D3D3D"/>
<path d="M4.41991 0.66333C4.41991 0.66333 4.4199 0.66333 4.4299 0.68333C4.4299 0.68333 4.4299 0.70333 4.4299 0.71333C4.4299 0.73333 4.4299 0.75333 4.4299 0.77333C4.4299 0.76333 4.4299 0.75333 4.4299 0.73333C4.4299 0.72333 4.4299 0.71333 4.4399 0.70333C4.4399 0.69333 4.4399 0.69333 4.4399 0.67333C4.4399 0.67333 4.43991 0.67333 4.41991 0.67333C4.41991 0.67333 4.4099 0.67333 4.3999 0.67333L4.41991 0.66333Z" fill="#3D3D3D"/>
<path d="M4.66992 10.0032C4.66992 10.0032 4.72992 9.95318 4.72992 9.90318C4.72992 9.85318 4.70992 9.81318 4.70992 9.76318C4.73992 9.83318 4.76992 9.89318 4.76992 9.97318C4.78992 9.97318 4.80992 9.98318 4.83992 9.98318C4.78992 9.98318 4.74992 10.0032 4.66992 10.0032Z" fill="#3D3D3D"/>
<path d="M0.52002 8.76318C0.52002 8.76318 0.57002 8.82318 0.63002 8.82318C0.68002 8.82318 0.72002 8.80318 0.77002 8.80318C0.70002 8.83318 0.63002 8.86318 0.56002 8.86318C0.56002 8.88318 0.550018 8.90318 0.550018 8.93318C0.550018 8.88318 0.530014 8.84318 0.530014 8.76318H0.52002Z" fill="#3D3D3D"/>
<path d="M4.97998 9.98329C4.97998 9.98329 4.97998 9.90329 4.97998 9.87329C4.98998 9.88329 5.00998 9.94329 5.00998 9.96329C5.00998 9.97329 4.99998 9.98329 4.97998 9.98329Z" fill="#3D3D3D"/>
<path d="M1.72998 9.98322C1.72998 9.98322 1.78998 9.95322 1.79998 9.93322C1.80998 9.91322 1.79998 9.88322 1.81998 9.86322C1.82998 9.83322 1.86998 9.84322 1.89998 9.83322C1.92998 9.83322 1.94998 9.81322 1.97998 9.80322C1.97998 9.82322 1.95998 9.83322 1.93998 9.84322C1.92998 9.84322 1.91998 9.84322 1.90998 9.84322H1.86998C1.86998 9.84322 1.84998 9.90322 1.84998 9.91322C1.84998 9.93322 1.86998 9.94322 1.88998 9.95322C1.87998 9.97322 1.77998 9.95322 1.74998 9.95322L1.72998 9.98322Z" fill="#3D3D3D"/>
<path d="M2.08984 9.9833C2.08984 9.9833 2.09984 9.9433 2.10984 9.9233C2.10984 9.9033 2.10984 9.8933 2.12984 9.8833C2.12984 9.9033 2.12984 9.9333 2.12984 9.9633C2.12984 9.9833 2.12985 9.9833 2.09985 9.9833H2.08984Z" fill="#3D3D3D"/>
<path d="M3.27 9.98329C3.27 9.98329 3.27 9.98329 3.28 9.96329C3.28 9.96329 3.28 9.94329 3.28 9.93329C3.28 9.91329 3.28 9.89329 3.28 9.87329C3.28 9.88329 3.28 9.89329 3.28 9.91329C3.28 9.92329 3.28 9.93329 3.29 9.94329C3.29 9.95329 3.29 9.95329 3.29 9.97329C3.29 9.97329 3.29 9.97329 3.27 9.97329C3.27 9.97329 3.26 9.97329 3.25 9.97329L3.27 9.98329Z" fill="#3D3D3D"/>
<path d="M7.19012 2.26318C7.12012 2.26318 7.04012 2.26318 6.97012 2.26318C6.93012 2.26318 6.93012 2.26318 6.91012 2.29318C6.87012 2.34318 6.80012 2.34318 6.74012 2.35318C6.70012 2.36318 6.66012 2.37318 6.62012 2.37318C6.65012 2.40318 6.75012 2.37318 6.79012 2.36318C6.82012 2.36318 6.86011 2.34318 6.89011 2.32318C6.93011 2.29318 6.94012 2.28318 6.99012 2.28318C7.03012 2.28318 7.06012 2.28318 7.11012 2.28318C7.12012 2.28318 7.14012 2.28318 7.16012 2.28318C7.18012 2.28318 7.18012 2.29318 7.20012 2.30318C7.20012 2.29318 7.20012 2.28318 7.20012 2.26318H7.19012Z" fill="#3D3D3D"/>
<path d="M7.17976 7.46338C7.10976 7.46338 7.02976 7.46338 6.95976 7.46338C6.91976 7.46338 6.90977 7.49338 6.87977 7.51338C6.84977 7.53338 6.79977 7.54338 6.75977 7.54338C6.79977 7.54338 6.83977 7.54338 6.87977 7.53338C6.91977 7.50338 6.92977 7.49338 6.97977 7.49338C7.04977 7.48338 7.09976 7.49338 7.13976 7.56338C7.15976 7.60338 7.16977 7.61338 7.16977 7.65338C7.16977 7.62338 7.17977 7.59338 7.18977 7.56338C7.18977 7.53338 7.18977 7.50338 7.18977 7.47338L7.17976 7.46338Z" fill="#3D3D3D"/>
<path d="M7.17979 2.51318C7.17979 2.51318 7.06979 2.51318 7.02979 2.52318C7.05979 2.52318 7.07979 2.52318 7.10979 2.52318C7.11979 2.52318 7.12979 2.53318 7.14979 2.54318C7.17979 2.54318 7.19979 2.54318 7.18979 2.51318H7.17979Z" fill="#3D3D3D"/>
<path d="M7.18002 2.07323C7.18002 2.07323 7.05002 2.15323 7.02002 2.14323C7.05002 2.11323 7.09002 2.11323 7.12002 2.09323C7.14002 2.08323 7.16002 2.06323 7.19002 2.06323H7.18002V2.07323Z" fill="#3D3D3D"/>
<path d="M0.52002 3.28319C0.52002 3.28319 0.560017 3.31319 0.580017 3.32319C0.600017 3.33319 0.650021 3.33319 0.670021 3.33319C0.760021 3.33319 0.820017 3.31319 0.900017 3.29319C0.840017 3.34319 0.780014 3.35319 0.710014 3.35319C0.650014 3.35319 0.55002 3.35319 0.52002 3.27319V3.28319Z" fill="#3D3D3D"/>
<path d="M0.539842 3.15328C0.539842 3.07328 0.669845 3.08328 0.729845 3.06328C0.689845 3.05328 0.619843 3.06328 0.579843 3.06328C0.499843 3.06328 0.529844 3.09328 0.549844 3.14328L0.539842 3.15328Z" fill="#3D3D3D"/>
<path d="M0.549805 6.74327C0.549805 6.67327 0.659806 6.70327 0.699806 6.70327C0.739806 6.70327 0.739804 6.68327 0.759804 6.65327C0.769804 6.63327 0.789805 6.61327 0.799805 6.60327C0.759805 6.63327 0.769805 6.70327 0.729805 6.72327C0.679805 6.75327 0.599807 6.70327 0.559807 6.75327C0.559807 6.75327 0.559807 6.73327 0.559807 6.74327H0.549805Z" fill="#3D3D3D"/>
<path d="M0.539887 5.20336C0.539887 5.20336 0.539887 5.24336 0.539887 5.25336C0.539887 5.25336 0.569886 5.28336 0.569886 5.29336C0.569886 5.32336 0.529885 5.33336 0.529885 5.36336C0.529885 5.32336 0.509885 5.23336 0.529885 5.19336L0.539887 5.20336Z" fill="#3D3D3D"/>
<path d="M0.549789 5.3833C0.549789 5.3833 0.589787 5.4033 0.609787 5.4033C0.639787 5.4033 0.63979 5.4033 0.65979 5.4233C0.69979 5.4533 0.709786 5.4033 0.749786 5.4033C0.729786 5.4233 0.709789 5.4233 0.689789 5.4333C0.659789 5.4433 0.659786 5.4333 0.639786 5.4233C0.629786 5.4233 0.589786 5.4233 0.569786 5.4233C0.549786 5.4233 0.549789 5.4733 0.549789 5.4933C0.549789 5.5233 0.579792 5.5233 0.599792 5.5333C0.589792 5.5333 0.559792 5.5333 0.559792 5.5333C0.559792 5.5333 0.559787 5.5333 0.539787 5.5333C0.539787 5.5333 0.529785 5.5033 0.529785 5.4933C0.529785 5.4533 0.529789 5.4233 0.549789 5.3933V5.3833Z" fill="#3D3D3D"/>
<path d="M0.540016 6.60321C0.540016 6.60321 0.620015 6.60321 0.640015 6.56321C0.630015 6.56321 0.610019 6.56321 0.590019 6.56321C0.560019 6.56321 0.54002 6.55321 0.52002 6.54321C0.52002 6.56321 0.52002 6.58321 0.52002 6.59321H0.530014C0.530014 6.59321 0.530014 6.60321 0.530014 6.61321L0.540016 6.60321Z" fill="#3D3D3D"/>
<path d="M1.33008 2.82324C1.33008 2.82324 1.33008 2.82324 1.33008 2.83324C1.33008 2.83324 1.33008 2.83324 1.34008 2.82324H1.33008Z" fill="white"/>
<path d="M1.27998 1.23339H1.67998V1.30339C1.67998 1.30339 1.65998 1.32339 1.63998 1.33339C1.61998 1.34339 1.58998 1.35339 1.56998 1.35339C1.53998 1.35339 1.49998 1.35339 1.43998 1.33339V1.49339C1.45998 1.49339 1.47998 1.49339 1.49998 1.49339C1.56998 1.49339 1.61998 1.51339 1.65998 1.55339C1.66998 1.56339 1.67998 1.58339 1.69998 1.60339C1.70998 1.62339 1.71998 1.65339 1.72998 1.69339C1.73998 1.73339 1.74998 1.78339 1.74998 1.82339V1.84339C1.74998 1.84339 1.73998 1.93339 1.70998 1.99339C1.69998 2.01339 1.67998 2.03339 1.65998 2.05339C1.60998 2.09339 1.55998 2.12339 1.49998 2.12339C1.41998 2.12339 1.36998 2.11339 1.32998 2.09339C1.30998 2.09339 1.29998 2.07339 1.28998 2.06339C1.27998 2.05339 1.26998 2.03339 1.25998 2.02339C1.23998 1.98339 1.22998 1.93339 1.22998 1.87339H1.40998C1.40998 1.91339 1.40998 1.95339 1.42998 1.97339C1.43998 1.99339 1.44998 1.99339 1.46998 1.99339C1.49998 1.99339 1.50998 1.97339 1.51998 1.93339C1.51998 1.90339 1.52998 1.87339 1.52998 1.84339C1.52998 1.76339 1.52998 1.72339 1.49998 1.69339C1.47998 1.67339 1.43998 1.66339 1.38998 1.66339C1.34998 1.66339 1.30998 1.66339 1.26998 1.67339C1.26998 1.64339 1.26998 1.49339 1.28998 1.22339L1.27998 1.23339Z" fill="#B41818"/>
<path d="M6.4202 9.40318H6.0202V9.33318C6.0202 9.33318 6.0402 9.31318 6.0602 9.30318C6.0802 9.29318 6.1102 9.28318 6.1302 9.28318C6.1602 9.28318 6.20019 9.28318 6.26019 9.30318V9.14318C6.24019 9.14318 6.2202 9.14318 6.2002 9.14318C6.1302 9.14318 6.08019 9.12318 6.04019 9.08318C6.03019 9.07318 6.02019 9.05318 6.00019 9.03318C5.99019 9.01318 5.98019 8.98318 5.97019 8.94318C5.96019 8.90318 5.9502 8.85318 5.9502 8.81318V8.79318C5.9502 8.79318 5.9602 8.70318 5.9902 8.64318C6.0002 8.62318 6.02019 8.60318 6.04019 8.58318C6.09019 8.54318 6.1402 8.51318 6.2002 8.51318C6.2802 8.51318 6.33019 8.52318 6.37019 8.54318C6.39019 8.54318 6.40019 8.56318 6.41019 8.57318C6.42019 8.58318 6.43019 8.60318 6.44019 8.61318C6.46019 8.65318 6.47019 8.70318 6.47019 8.76318H6.29019C6.29019 8.72318 6.2902 8.68318 6.2702 8.66318C6.2602 8.64318 6.25019 8.64318 6.23019 8.64318C6.20019 8.64318 6.19019 8.66318 6.18019 8.70318C6.18019 8.73318 6.1702 8.76318 6.1702 8.79318C6.1702 8.87318 6.1702 8.91318 6.2002 8.94318C6.2202 8.96318 6.2602 8.97318 6.3102 8.97318C6.3502 8.97318 6.39019 8.97318 6.43019 8.96318C6.43019 8.99318 6.43019 9.14318 6.41019 9.41318L6.4202 9.40318Z" fill="#B41818"/>
<path d="M2.78994 1.47339C2.67994 1.79339 2.43994 2.04339 2.18994 2.21339C2.43994 2.38339 2.67994 2.63339 2.78994 2.95339C2.89994 2.63339 3.13994 2.38339 3.38994 2.21339C3.13994 2.04339 2.89994 1.79339 2.78994 1.47339Z" fill="#B41818"/>
<path d="M2.78994 7.70337C2.67994 8.02337 2.43994 8.27337 2.18994 8.44337C2.43994 8.61337 2.67994 8.86337 2.78994 9.18337C2.89994 8.86337 3.13994 8.61337 3.38994 8.44337C3.13994 8.27337 2.89994 8.02337 2.78994 7.70337Z" fill="#B41818"/>
<path d="M4.93008 1.47339C4.82008 1.79339 4.58008 2.04339 4.33008 2.21339C4.58008 2.38339 4.82008 2.63339 4.93008 2.95339C5.04008 2.63339 5.28008 2.38339 5.53008 2.21339C5.28008 2.04339 5.04008 1.79339 4.93008 1.47339Z" fill="#B41818"/>
<path d="M4.93008 7.70337C4.82008 8.02337 4.58008 8.27337 4.33008 8.44337C4.58008 8.61337 4.82008 8.86337 4.93008 9.18337C5.04008 8.86337 5.28008 8.61337 5.53008 8.44337C5.28008 8.27337 5.04008 8.02337 4.93008 7.70337Z" fill="#B41818"/>
<path d="M3.85976 4.59351C3.74976 4.91351 3.50977 5.16351 3.25977 5.33351C3.50977 5.50351 3.74976 5.75351 3.85976 6.07351C3.96976 5.75351 4.20976 5.50351 4.45976 5.33351C4.20976 5.16351 3.96976 4.91351 3.85976 4.59351Z" fill="#B41818"/>
<path d="M1.50992 2.32324C1.44992 2.50324 1.30992 2.64324 1.16992 2.74324C1.30992 2.84324 1.44992 2.98324 1.50992 3.16324C1.56992 2.98324 1.70992 2.84324 1.84992 2.74324C1.70992 2.64324 1.56992 2.50324 1.50992 2.32324Z" fill="#B41818"/>
<path d="M6.21011 7.4834C6.15011 7.6634 6.01012 7.8034 5.87012 7.9034C6.01012 8.0034 6.15011 8.1434 6.21011 8.3234C6.27011 8.1434 6.41012 8.0034 6.55012 7.9034C6.41012 7.8034 6.27011 7.6634 6.21011 7.4834Z" fill="#B41818"/>
</svg>
