<svg width="7" height="11" viewBox="0 0 7 11" fill="none" xmlns="http://www.w3.org/2000/svg">
<path d="M6.42982 10.0033H0.379826C0.209826 10.0033 0.0698242 9.86333 0.0698242 9.69333V0.97333C0.0698242 0.80333 0.209826 0.66333 0.379826 0.66333H6.42982C6.59982 0.66333 6.73983 0.80333 6.73983 0.97333V9.69333C6.73983 9.86333 6.59982 10.0033 6.42982 10.0033ZM0.379826 0.67333C0.219826 0.67333 0.0898247 0.80333 0.0898247 0.96333V9.68333C0.0898247 9.84333 0.219826 9.97333 0.379826 9.97333H6.42982C6.58982 9.97333 6.71983 9.84333 6.71983 9.68333V0.97333C6.71983 0.81333 6.58982 0.68333 6.42982 0.68333H0.379826V0.67333Z" fill="#3D3D3D"/>
<path d="M6.43004 10.0233H0.380039C0.190039 10.0233 0.0400391 9.8733 0.0400391 9.6833V0.973301C0.0400391 0.783301 0.190039 0.633301 0.380039 0.633301H6.43004C6.62004 0.633301 6.77004 0.783301 6.77004 0.973301V9.6933C6.77004 9.8833 6.62004 10.0333 6.43004 10.0333V10.0233ZM0.380039 0.703301C0.230039 0.703301 0.120037 0.823301 0.120037 0.963301V9.6833C0.120037 9.8333 0.240039 9.9433 0.380039 9.9433H6.43004C6.58004 9.9433 6.69004 9.8233 6.69004 9.6833V0.973301C6.69004 0.823301 6.57004 0.713301 6.43004 0.713301H0.380039V0.703301Z" fill="#3D3D3D"/>
<path d="M6.25006 9.7833H0.550056C0.420056 9.7833 0.310059 9.6733 0.310059 9.5433V1.1233C0.310059 0.983301 0.420056 0.883301 0.550056 0.883301H6.25006C6.38006 0.883301 6.49006 0.993301 6.49006 1.1233V9.5433C6.49006 9.6733 6.38006 9.7833 6.25006 9.7833ZM0.550056 0.933301C0.440056 0.933301 0.360058 1.0233 0.360058 1.1233V9.5433C0.360058 9.6533 0.450056 9.7333 0.550056 9.7333H6.25006C6.36006 9.7333 6.44006 9.6433 6.44006 9.5433V1.1233C6.44006 1.0133 6.35006 0.933301 6.25006 0.933301H0.550056Z" fill="#3D3D3D"/>
<path d="M6.73004 4.29326C6.73004 4.29326 6.66004 4.28326 6.64004 4.29326C6.63004 4.29326 6.62004 4.31326 6.61004 4.31326C6.59004 4.32326 6.57004 4.33326 6.54004 4.33326C6.56004 4.33326 6.58004 4.33326 6.59004 4.33326C6.61004 4.33326 6.62004 4.31326 6.64004 4.31326C6.66004 4.31326 6.68004 4.31326 6.69004 4.32326C6.69004 4.32326 6.69004 4.34326 6.71004 4.32326C6.71004 4.32326 6.71004 4.30326 6.71004 4.29326H6.73004Z" fill="#3D3D3D"/>
<path d="M5.35986 0.65332C5.35986 0.65332 5.41986 0.70332 5.41986 0.75332C5.41986 0.80332 5.39986 0.84332 5.39986 0.89332C5.42986 0.82332 5.45986 0.76332 5.45986 0.68332C5.47986 0.68332 5.49986 0.67332 5.52986 0.67332C5.47986 0.67332 5.43986 0.65332 5.35986 0.65332Z" fill="#3D3D3D"/>
<path d="M5.66992 0.67334C5.66992 0.67334 5.66992 0.75334 5.66992 0.78334C5.67992 0.77334 5.69992 0.71334 5.69992 0.69334C5.69992 0.68334 5.68992 0.67334 5.66992 0.67334Z" fill="#3D3D3D"/>
<path d="M2.41992 0.66333C2.41992 0.66333 2.47993 0.69333 2.48993 0.71333C2.49993 0.73333 2.48992 0.76333 2.50992 0.78333C2.51992 0.81333 2.55992 0.80333 2.58992 0.81333C2.61992 0.81333 2.63992 0.83333 2.66992 0.84333C2.66992 0.82333 2.64992 0.81333 2.62992 0.80333C2.61992 0.80333 2.60992 0.80333 2.59992 0.80333H2.55993C2.55993 0.80333 2.53992 0.74333 2.53992 0.73333C2.53992 0.71333 2.55992 0.70333 2.57992 0.69333C2.56992 0.67333 2.46992 0.69333 2.43992 0.69333L2.41992 0.66333Z" fill="#3D3D3D"/>
<path d="M2.78027 0.67334C2.78027 0.67334 2.79027 0.71334 2.80027 0.73334C2.80027 0.75334 2.80027 0.76334 2.82027 0.77334C2.82027 0.75334 2.82027 0.72334 2.82027 0.69334C2.82027 0.67334 2.82028 0.67334 2.79028 0.67334H2.78027Z" fill="#3D3D3D"/>
<path d="M0.080128 1.12326C0.080128 1.12326 0.14013 1.12326 0.18013 1.13326C0.20013 1.13326 0.180129 1.13326 0.210129 1.13326C0.230129 1.13326 0.240128 1.13326 0.260128 1.13326C0.240128 1.13326 0.220129 1.13326 0.190129 1.13326C0.150129 1.13326 0.160129 1.13326 0.140129 1.11326C0.130129 1.11326 0.11013 1.11326 0.0901302 1.11326C0.0801302 1.11326 0.090128 1.10326 0.080128 1.09326C0.070128 1.09326 0.080128 1.12326 0.080128 1.13326V1.12326Z" fill="#3D3D3D"/>
<path d="M0.080128 9.29318C0.080128 9.29318 0.14013 9.29318 0.18013 9.30318C0.20013 9.30318 0.180129 9.30318 0.210129 9.30318C0.230129 9.30318 0.240128 9.30318 0.260128 9.30318C0.240128 9.30318 0.220129 9.30318 0.190129 9.30318C0.150129 9.30318 0.160129 9.30318 0.140129 9.28318C0.130129 9.28318 0.11013 9.28318 0.0901302 9.28318C0.0801302 9.28318 0.090128 9.27318 0.080128 9.26318C0.070128 9.26318 0.080128 9.29318 0.080128 9.30318V9.29318Z" fill="#3D3D3D"/>
<path d="M0.0902279 0.883352H0.170226C0.180226 0.863352 0.120227 0.873352 0.120227 0.853352C0.120227 0.843352 0.140229 0.823352 0.130229 0.813352C0.130229 0.783352 0.0702258 0.843352 0.0802258 0.873352L0.0902279 0.883352Z" fill="#3D3D3D"/>
<path d="M3.95994 0.66333C3.95994 0.66333 3.95994 0.66333 3.96994 0.68333C3.96994 0.68333 3.96994 0.70333 3.96994 0.71333C3.96994 0.73333 3.96994 0.75333 3.96994 0.77333C3.96994 0.76333 3.96994 0.75333 3.96994 0.73333C3.96994 0.72333 3.96994 0.71333 3.97994 0.70333C3.97994 0.69333 3.97994 0.69333 3.97994 0.67333C3.97994 0.67333 3.97994 0.67333 3.95994 0.67333C3.95994 0.67333 3.94994 0.67333 3.93994 0.67333L3.95994 0.66333Z" fill="#3D3D3D"/>
<path d="M4.20996 10.0032C4.20996 10.0032 4.26996 9.95318 4.26996 9.90318C4.26996 9.85318 4.24996 9.81318 4.24996 9.76318C4.27996 9.83318 4.30996 9.89318 4.30996 9.97318C4.32996 9.97318 4.34996 9.98318 4.37996 9.98318C4.32996 9.98318 4.28996 10.0032 4.20996 10.0032Z" fill="#3D3D3D"/>
<path d="M0.0600586 8.76318C0.0600586 8.76318 0.110057 8.82318 0.160057 8.82318C0.210057 8.82318 0.250056 8.80318 0.300056 8.80318C0.230056 8.83318 0.160057 8.86318 0.0900574 8.86318C0.0900574 8.88318 0.0800552 8.90318 0.0800552 8.93318C0.0800552 8.88318 0.0600586 8.84318 0.0600586 8.76318Z" fill="#3D3D3D"/>
<path d="M4.52002 9.98329C4.52002 9.98329 4.52002 9.90329 4.52002 9.87329C4.53002 9.88329 4.55002 9.94329 4.55002 9.96329C4.55002 9.97329 4.54002 9.98329 4.52002 9.98329Z" fill="#3D3D3D"/>
<path d="M1.27002 9.98322C1.27002 9.98322 1.33002 9.95322 1.34002 9.93322C1.35002 9.91322 1.34002 9.88322 1.36002 9.86322C1.37002 9.83322 1.41002 9.84322 1.44002 9.83322C1.47002 9.83322 1.49002 9.81322 1.52002 9.80322C1.52002 9.82322 1.50002 9.83322 1.48002 9.84322C1.47002 9.84322 1.46002 9.84322 1.45002 9.84322H1.41002C1.41002 9.84322 1.39002 9.90322 1.39002 9.91322C1.39002 9.93322 1.41002 9.94322 1.43002 9.95322C1.42002 9.97322 1.32002 9.95322 1.29002 9.95322L1.27002 9.98322Z" fill="#3D3D3D"/>
<path d="M1.62988 9.9833C1.62988 9.9833 1.63988 9.9433 1.64988 9.9233C1.64988 9.9033 1.64988 9.8933 1.66988 9.8833C1.66988 9.9033 1.66988 9.9333 1.66988 9.9633C1.66988 9.9833 1.66988 9.9833 1.63988 9.9833H1.62988Z" fill="#3D3D3D"/>
<path d="M2.81004 9.98329C2.81004 9.98329 2.81004 9.98329 2.82004 9.96329C2.82004 9.96329 2.82004 9.94329 2.82004 9.93329C2.82004 9.91329 2.82004 9.89329 2.82004 9.87329C2.82004 9.88329 2.82004 9.89329 2.82004 9.91329C2.82004 9.92329 2.82004 9.93329 2.83004 9.94329C2.83004 9.95329 2.83004 9.95329 2.83004 9.97329C2.83004 9.97329 2.83004 9.97329 2.81004 9.97329C2.81004 9.97329 2.80004 9.97329 2.79004 9.97329L2.81004 9.98329Z" fill="#3D3D3D"/>
<path d="M6.73016 2.26318C6.66016 2.26318 6.58015 2.26318 6.51015 2.26318C6.47015 2.26318 6.47016 2.26318 6.45016 2.29318C6.41016 2.34318 6.34016 2.34318 6.28016 2.35318C6.24016 2.36318 6.20016 2.37318 6.16016 2.37318C6.19016 2.40318 6.29015 2.37318 6.33015 2.36318C6.36015 2.36318 6.40016 2.34318 6.43016 2.32318C6.47016 2.29318 6.48016 2.28318 6.53016 2.28318C6.57016 2.28318 6.60016 2.28318 6.65016 2.28318C6.66016 2.28318 6.68016 2.28318 6.70016 2.28318C6.72016 2.28318 6.72016 2.29318 6.74016 2.30318C6.74016 2.29318 6.74016 2.28318 6.74016 2.26318H6.73016Z" fill="#3D3D3D"/>
<path d="M6.71981 7.46338C6.64981 7.46338 6.56981 7.46338 6.49981 7.46338C6.45981 7.46338 6.4498 7.49338 6.4198 7.51338C6.3898 7.53338 6.3398 7.54338 6.2998 7.54338C6.3398 7.54338 6.3798 7.54338 6.4198 7.53338C6.4598 7.50338 6.46981 7.49338 6.51981 7.49338C6.58981 7.48338 6.63981 7.49338 6.67981 7.56338C6.69981 7.60338 6.7098 7.61338 6.7098 7.65338C6.7098 7.62338 6.7198 7.59338 6.7298 7.56338C6.7298 7.53338 6.7298 7.50338 6.7298 7.47338L6.71981 7.46338Z" fill="#3D3D3D"/>
<path d="M6.71983 2.51318C6.71983 2.51318 6.60982 2.51318 6.56982 2.52318C6.59982 2.52318 6.61983 2.52318 6.64983 2.52318C6.65983 2.52318 6.66982 2.53318 6.68982 2.54318C6.71982 2.54318 6.73982 2.54318 6.72982 2.51318H6.71983Z" fill="#3D3D3D"/>
<path d="M6.72006 2.07323C6.72006 2.07323 6.59006 2.15323 6.56006 2.14323C6.59006 2.11323 6.63006 2.11323 6.66006 2.09323C6.68006 2.08323 6.70006 2.06323 6.73006 2.06323H6.72006V2.07323Z" fill="#3D3D3D"/>
<path d="M0.0600586 3.28319C0.0600586 3.28319 0.100056 3.31319 0.120056 3.32319C0.140056 3.33319 0.190056 3.33319 0.210056 3.33319C0.300056 3.33319 0.360056 3.31319 0.440056 3.29319C0.380056 3.34319 0.320057 3.35319 0.250057 3.35319C0.190057 3.35319 0.0900586 3.35319 0.0600586 3.27319V3.28319Z" fill="#3D3D3D"/>
<path d="M0.0798813 3.15328C0.0798813 3.07328 0.209884 3.08328 0.269884 3.06328C0.229884 3.05328 0.159882 3.06328 0.119882 3.06328C0.0398822 3.06328 0.0698834 3.09328 0.0898834 3.14328L0.0798813 3.15328Z" fill="#3D3D3D"/>
<path d="M0.0898438 6.74327C0.0898438 6.67327 0.199845 6.70327 0.239845 6.70327C0.279845 6.70327 0.279843 6.68327 0.299843 6.65327C0.309843 6.63327 0.329844 6.61327 0.339844 6.60327C0.299844 6.63327 0.309844 6.70327 0.269844 6.72327C0.219844 6.75327 0.139842 6.70327 0.0998421 6.75327C0.0998421 6.75327 0.0998421 6.73327 0.0998421 6.74327H0.0898438Z" fill="#3D3D3D"/>
<path d="M0.0799224 5.20336C0.0799224 5.20336 0.0799224 5.24336 0.0799224 5.25336C0.0799224 5.25336 0.109925 5.28336 0.109925 5.29336C0.109925 5.32336 0.069924 5.33336 0.069924 5.36336C0.069924 5.32336 0.049924 5.23336 0.069924 5.19336L0.0799224 5.20336Z" fill="#3D3D3D"/>
<path d="M0.0898247 5.3833C0.0898247 5.3833 0.129826 5.4033 0.149826 5.4033C0.179826 5.4033 0.179825 5.4033 0.199825 5.4233C0.239825 5.4533 0.249825 5.4033 0.289825 5.4033C0.269825 5.4233 0.249824 5.4233 0.229824 5.4333C0.199824 5.4433 0.199825 5.4333 0.179825 5.4233C0.169825 5.4233 0.129825 5.4233 0.109825 5.4233C0.0898251 5.4233 0.0898247 5.4733 0.0898247 5.4933C0.0898247 5.5233 0.119824 5.5233 0.139824 5.5333C0.129824 5.5333 0.099823 5.5333 0.099823 5.5333C0.099823 5.5333 0.0998225 5.5333 0.0798225 5.5333C0.0798225 5.5333 0.0698242 5.5033 0.0698242 5.4933C0.0698242 5.4533 0.0698247 5.4233 0.0898247 5.3933V5.3833Z" fill="#3D3D3D"/>
<path d="M0.0798225 6.60321C0.0798225 6.60321 0.159823 6.60321 0.189823 6.56321C0.179823 6.56321 0.159824 6.56321 0.139824 6.56321C0.109824 6.56321 0.0898242 6.55321 0.0698242 6.54321C0.0698242 6.56321 0.0698242 6.58321 0.0698242 6.59321H0.0798225C0.0798225 6.59321 0.0798225 6.60321 0.0798225 6.61321V6.60321Z" fill="#3D3D3D"/>
<path d="M0.870117 2.82324C0.870117 2.82324 0.870117 2.82324 0.870117 2.83324C0.870117 2.83324 0.870119 2.83324 0.880119 2.82324H0.870117Z" fill="white"/>
<path d="M0.780273 1.24341H1.27028V1.38341C1.27028 1.38341 1.24028 1.45341 1.20028 1.56341C1.20028 1.58341 1.19027 1.59341 1.19027 1.59341C1.19027 1.59341 1.21028 1.65341 1.24028 1.66341C1.24028 1.66341 1.21028 1.66341 1.20028 1.67341C1.18028 1.67341 1.17027 1.69341 1.17027 1.70341C1.17027 1.70341 1.15028 1.72341 1.15028 1.73341C1.15028 1.73341 1.15028 1.74341 1.15028 1.75341C1.15028 1.75341 1.15027 1.77341 1.14027 1.80341C1.13027 1.85341 1.11027 1.92341 1.10027 2.01341C1.10027 2.06341 1.10027 2.09341 1.10027 2.10341H0.860275C0.860275 2.05341 0.870276 2.00341 0.880276 1.96341C0.900276 1.86341 0.930275 1.78341 0.950275 1.71341C0.950275 1.69341 0.940275 1.67341 0.910275 1.65341C0.910275 1.65341 0.910276 1.65341 0.900276 1.65341C0.900276 1.65341 0.930273 1.65341 0.940273 1.64341C0.960273 1.64341 0.970276 1.62341 0.970276 1.62341C0.980276 1.60341 0.990276 1.59341 0.990276 1.59341C1.03028 1.51341 1.07028 1.43341 1.11028 1.36341H1.00027C1.00027 1.36341 0.950273 1.38341 0.940273 1.41341C0.930273 1.46341 0.920273 1.49341 0.920273 1.51341H0.790276V1.25341L0.780273 1.24341Z" fill="#B41818"/>
<path d="M6.00026 9.40321H5.51025V9.26321C5.51025 9.26321 5.54025 9.20321 5.58025 9.08321C5.58025 9.06321 5.59026 9.05321 5.59026 9.05321C5.59026 9.05321 5.57026 8.99321 5.54026 8.98321C5.54026 8.98321 5.57025 8.98321 5.58025 8.97321C5.60025 8.97321 5.61026 8.95321 5.61026 8.94321C5.61026 8.94321 5.63026 8.92321 5.63026 8.91321C5.63026 8.91321 5.63026 8.90321 5.63026 8.89321C5.63026 8.89321 5.63025 8.87321 5.64025 8.84321C5.65025 8.79321 5.67026 8.72321 5.68026 8.63321C5.68026 8.58321 5.68026 8.55321 5.68026 8.54321H5.92025C5.92025 8.59321 5.91026 8.64321 5.90026 8.68321C5.88026 8.78321 5.85025 8.86321 5.83025 8.93321C5.83025 8.95321 5.84025 8.97321 5.87025 8.99321C5.87025 8.99321 5.87026 8.99321 5.88026 8.99321C5.88026 8.99321 5.85026 8.99321 5.84026 9.00321C5.82026 9.00321 5.81026 9.02321 5.81026 9.02321C5.80026 9.04321 5.79026 9.05321 5.79026 9.05321C5.75026 9.13321 5.71025 9.21321 5.67025 9.28321H5.78025C5.78025 9.28321 5.83026 9.26321 5.84026 9.23321C5.85026 9.18321 5.86026 9.15321 5.86026 9.13321H5.99026V9.39321L6.00026 9.40321Z" fill="#B41818"/>
<path d="M2.32998 1.47339C2.21998 1.79339 1.97998 2.04339 1.72998 2.21339C1.97998 2.38339 2.21998 2.63339 2.32998 2.95339C2.43998 2.63339 2.67998 2.38339 2.92998 2.21339C2.67998 2.04339 2.43998 1.79339 2.32998 1.47339Z" fill="#B41818"/>
<path d="M2.32998 7.70337C2.21998 8.02337 1.97998 8.27337 1.72998 8.44337C1.97998 8.61337 2.21998 8.86337 2.32998 9.18337C2.43998 8.86337 2.67998 8.61337 2.92998 8.44337C2.67998 8.27337 2.43998 8.02337 2.32998 7.70337Z" fill="#B41818"/>
<path d="M4.47012 1.47339C4.36012 1.79339 4.12012 2.04339 3.87012 2.21339C4.12012 2.38339 4.36012 2.63339 4.47012 2.95339C4.58012 2.63339 4.82012 2.38339 5.07012 2.21339C4.82012 2.04339 4.58012 1.79339 4.47012 1.47339Z" fill="#B41818"/>
<path d="M3.41006 3.02344C3.30006 3.34344 3.06006 3.59344 2.81006 3.76344C3.06006 3.93344 3.30006 4.18344 3.41006 4.50344C3.52006 4.18344 3.76006 3.93344 4.01006 3.76344C3.76006 3.59344 3.52006 3.34344 3.41006 3.02344Z" fill="#B41818"/>
<path d="M2.32998 4.47339C2.21998 4.79339 1.97998 5.04339 1.72998 5.21339C1.97998 5.38339 2.21998 5.63339 2.32998 5.95339C2.43998 5.63339 2.67998 5.38339 2.92998 5.21339C2.67998 5.04339 2.43998 4.79339 2.32998 4.47339Z" fill="#B41818"/>
<path d="M4.47012 4.47339C4.36012 4.79339 4.12012 5.04339 3.87012 5.21339C4.12012 5.38339 4.36012 5.63339 4.47012 5.95339C4.58012 5.63339 4.82012 5.38339 5.07012 5.21339C4.82012 5.04339 4.58012 4.79339 4.47012 4.47339Z" fill="#B41818"/>
<path d="M4.47012 7.70337C4.36012 8.02337 4.12012 8.27337 3.87012 8.44337C4.12012 8.61337 4.36012 8.86337 4.47012 9.18337C4.58012 8.86337 4.82012 8.61337 5.07012 8.44337C4.82012 8.27337 4.58012 8.02337 4.47012 7.70337Z" fill="#B41818"/>
<path d="M1.04996 2.32324C0.979961 2.50324 0.849961 2.64324 0.709961 2.74324C0.849961 2.84324 0.989961 2.98324 1.04996 3.16324C1.10996 2.98324 1.24996 2.84324 1.38996 2.74324C1.24996 2.64324 1.10996 2.50324 1.04996 2.32324Z" fill="#B41818"/>
<path d="M5.75016 7.4834C5.69016 7.6634 5.55016 7.8034 5.41016 7.9034C5.55016 8.0034 5.69016 8.1434 5.75016 8.3234C5.81016 8.1434 5.95016 8.0034 6.09016 7.9034C5.95016 7.8034 5.81016 7.6634 5.75016 7.4834Z" fill="#B41818"/>
</svg>
