<svg width="8" height="11" viewBox="0 0 8 11" fill="none" xmlns="http://www.w3.org/2000/svg">
<path d="M7.23988 10.1466H1.18988C1.01988 10.1466 0.879883 10.0066 0.879883 9.83664V1.11664C0.879883 0.946641 1.01988 0.806641 1.18988 0.806641H7.23988C7.40988 0.806641 7.54988 0.946641 7.54988 1.11664V9.83664C7.54988 10.0066 7.40988 10.1466 7.23988 10.1466ZM1.18988 0.826641C1.02988 0.826641 0.899883 0.956641 0.899883 1.11664V9.83664C0.899883 9.99664 1.02988 10.1266 1.18988 10.1266H7.23988C7.39988 10.1266 7.52988 9.99664 7.52988 9.83664V1.11664C7.52988 0.956641 7.39988 0.826641 7.23988 0.826641H1.18988Z" fill="#3D3D3D"/>
<path d="M7.2401 10.1666H1.1901C1.0001 10.1666 0.850098 10.0166 0.850098 9.8266V1.1066C0.850098 0.916602 1.0001 0.766602 1.1901 0.766602H7.2401C7.4301 0.766602 7.5801 0.916602 7.5801 1.1066V9.8266C7.5801 10.0166 7.4301 10.1666 7.2401 10.1666ZM1.1901 0.846602C1.0401 0.846602 0.930098 0.966602 0.930098 1.1066V9.8266C0.930098 9.9766 1.0501 10.0866 1.1901 10.0866H7.2401C7.3901 10.0866 7.5001 9.9666 7.5001 9.8266V1.1066C7.5001 0.956602 7.3801 0.846602 7.2401 0.846602H1.1901Z" fill="#3D3D3D"/>
<path d="M7.06012 9.92661H1.36012C1.23012 9.92661 1.12012 9.81661 1.12012 9.68661V1.26661C1.12012 1.13661 1.23012 1.02661 1.36012 1.02661H7.06012C7.19012 1.02661 7.30012 1.13661 7.30012 1.26661V9.68661C7.30012 9.81661 7.19012 9.92661 7.06012 9.92661ZM1.36012 1.07661C1.25012 1.07661 1.17012 1.16661 1.17012 1.26661V9.68661C1.17012 9.79661 1.26012 9.87661 1.36012 9.87661H7.06012C7.17012 9.87661 7.25012 9.78661 7.25012 9.68661V1.26661C7.25012 1.15661 7.16012 1.07661 7.06012 1.07661H1.36012Z" fill="#3D3D3D"/>
<path d="M7.5401 4.44658C7.5401 4.44658 7.4701 4.43658 7.4501 4.44658C7.4401 4.44658 7.4301 4.45658 7.4201 4.46658C7.4001 4.47658 7.3801 4.48658 7.3501 4.48658C7.3701 4.48658 7.3901 4.48658 7.4001 4.48658C7.4201 4.48658 7.4301 4.46658 7.4501 4.46658C7.4701 4.46658 7.4901 4.46658 7.5001 4.47658C7.5001 4.47658 7.5001 4.49658 7.5201 4.47658C7.5201 4.47658 7.5201 4.45658 7.5201 4.44658H7.5401Z" fill="#3D3D3D"/>
<path d="M6.16992 0.796631C6.16992 0.796631 6.22992 0.84663 6.22992 0.89663C6.22992 0.94663 6.20992 0.986631 6.20992 1.03663C6.23992 0.966631 6.26992 0.906631 6.26992 0.826631C6.28992 0.826631 6.30992 0.81663 6.33992 0.81663C6.28992 0.81663 6.24992 0.796631 6.16992 0.796631Z" fill="#3D3D3D"/>
<path d="M6.47998 0.81665C6.47998 0.81665 6.47998 0.896651 6.47998 0.926651C6.48998 0.916651 6.50998 0.856651 6.50998 0.836651C6.50998 0.826651 6.49998 0.81665 6.47998 0.81665Z" fill="#3D3D3D"/>
<path d="M3.22998 0.81665C3.22998 0.81665 3.28998 0.846651 3.29998 0.866651C3.30998 0.886651 3.29998 0.91665 3.31998 0.93665C3.32998 0.96665 3.36998 0.956651 3.39998 0.966651C3.42998 0.966651 3.44998 0.986651 3.47998 0.996651C3.47998 0.976651 3.45998 0.966651 3.43998 0.956651C3.42998 0.956651 3.41998 0.956651 3.40998 0.956651H3.36998C3.36998 0.956651 3.34998 0.896651 3.34998 0.886651C3.34998 0.866651 3.36998 0.856651 3.38998 0.846651C3.37998 0.826651 3.27998 0.846651 3.24998 0.846651L3.22998 0.81665Z" fill="#3D3D3D"/>
<path d="M3.59033 0.81665C3.59033 0.81665 3.60033 0.856651 3.61033 0.876651C3.61033 0.896651 3.61033 0.906651 3.63033 0.916651C3.63033 0.896651 3.63033 0.866651 3.63033 0.836651C3.63033 0.816651 3.63033 0.81665 3.60033 0.81665H3.59033Z" fill="#3D3D3D"/>
<path d="M0.890187 1.26657C0.890187 1.26657 0.950187 1.26657 0.990187 1.27657C1.01019 1.27657 0.990188 1.27657 1.02019 1.27657C1.04019 1.27657 1.05019 1.27657 1.07019 1.27657C1.05019 1.27657 1.03019 1.27657 1.00019 1.27657C0.960187 1.27657 0.970188 1.27657 0.950188 1.25657C0.940188 1.25657 0.920187 1.25657 0.900187 1.25657C0.890187 1.25657 0.900187 1.24657 0.890187 1.23657C0.880187 1.23657 0.890187 1.26657 0.890187 1.27657V1.26657Z" fill="#3D3D3D"/>
<path d="M0.890187 9.43649C0.890187 9.43649 0.950187 9.4365 0.990187 9.4465C1.01019 9.4465 0.990188 9.4465 1.02019 9.4465C1.04019 9.4465 1.05019 9.4465 1.07019 9.4465C1.05019 9.4465 1.03019 9.4465 1.00019 9.4465C0.960187 9.4465 0.970188 9.44649 0.950188 9.42649C0.940188 9.42649 0.920187 9.42649 0.900187 9.42649C0.890187 9.42649 0.900187 9.41649 0.890187 9.40649C0.880187 9.40649 0.890187 9.4365 0.890187 9.4465V9.43649Z" fill="#3D3D3D"/>
<path d="M0.900285 1.02666H0.980285C0.990285 1.00666 0.930285 1.01666 0.930285 0.996663C0.930285 0.986663 0.950286 0.966663 0.940286 0.956663C0.940286 0.926663 0.880284 0.986662 0.890284 1.01666L0.900285 1.02666Z" fill="#3D3D3D"/>
<path d="M4.77 0.81665C4.77 0.81665 4.77 0.816651 4.78 0.836651C4.78 0.836651 4.78 0.856651 4.78 0.866651C4.78 0.886651 4.78 0.906651 4.78 0.926651C4.78 0.916651 4.78 0.906651 4.78 0.886651C4.78 0.876651 4.78 0.86665 4.79 0.85665C4.79 0.84665 4.79 0.836651 4.79 0.826651C4.79 0.826651 4.79 0.826651 4.77 0.826651C4.77 0.826651 4.76 0.826651 4.75 0.826651L4.77 0.81665Z" fill="#3D3D3D"/>
<path d="M5.02002 10.1465C5.02002 10.1465 5.08002 10.0965 5.08002 10.0465C5.08002 9.99649 5.06002 9.95649 5.06002 9.90649C5.09002 9.97649 5.12002 10.0365 5.12002 10.1165C5.14002 10.1165 5.16002 10.1265 5.19002 10.1265C5.14002 10.1265 5.10002 10.1465 5.02002 10.1465Z" fill="#3D3D3D"/>
<path d="M0.870117 8.90649C0.870117 8.90649 0.920116 8.96649 0.980116 8.96649C1.03012 8.96649 1.07012 8.9465 1.12012 8.9465C1.05012 8.9765 0.980116 9.00649 0.910116 9.00649C0.910116 9.02649 0.900116 9.04649 0.900116 9.07649C0.900116 9.02649 0.880116 8.98649 0.880116 8.90649H0.870117Z" fill="#3D3D3D"/>
<path d="M5.33008 10.1266C5.33008 10.1266 5.33008 10.0466 5.33008 10.0166C5.34008 10.0266 5.36008 10.0866 5.36008 10.1066C5.36008 10.1166 5.35008 10.1266 5.33008 10.1266Z" fill="#3D3D3D"/>
<path d="M2.08008 10.1265C2.08008 10.1265 2.14008 10.0965 2.15008 10.0765C2.16008 10.0565 2.15008 10.0265 2.17008 10.0065C2.18008 9.97653 2.22008 9.98653 2.25008 9.97653C2.28008 9.97653 2.30008 9.95653 2.33008 9.94653C2.33008 9.96653 2.31008 9.97653 2.29008 9.98653C2.28008 9.98653 2.27008 9.98653 2.26008 9.98653H2.22008C2.22008 9.98653 2.20008 10.0465 2.20008 10.0565C2.20008 10.0765 2.22008 10.0865 2.24008 10.0965C2.23008 10.1165 2.13008 10.0965 2.10008 10.0965L2.08008 10.1265Z" fill="#3D3D3D"/>
<path d="M2.43994 10.1266C2.43994 10.1266 2.44994 10.0866 2.45994 10.0666C2.45994 10.0466 2.45994 10.0366 2.47994 10.0266C2.47994 10.0466 2.47994 10.0766 2.47994 10.1066C2.47994 10.1266 2.47994 10.1266 2.44994 10.1266H2.43994Z" fill="#3D3D3D"/>
<path d="M3.6201 10.1266C3.6201 10.1266 3.6201 10.1266 3.6301 10.1066C3.6301 10.1066 3.6301 10.0866 3.6301 10.0766C3.6301 10.0566 3.6301 10.0366 3.6301 10.0166C3.6301 10.0266 3.6301 10.0366 3.6301 10.0566C3.6301 10.0666 3.6301 10.0766 3.6401 10.0866C3.6401 10.0966 3.6401 10.0966 3.6401 10.1166C3.6401 10.1166 3.6401 10.1166 3.6201 10.1166C3.6201 10.1166 3.6101 10.1166 3.6001 10.1166L3.6201 10.1266Z" fill="#3D3D3D"/>
<path d="M7.54021 2.40649C7.47021 2.40649 7.39022 2.40649 7.32022 2.40649C7.28022 2.40649 7.28022 2.40649 7.26022 2.43649C7.22022 2.48649 7.15021 2.48649 7.09021 2.49649C7.05021 2.50649 7.01021 2.51649 6.97021 2.51649C7.00021 2.54649 7.10022 2.51649 7.14022 2.50649C7.17022 2.50649 7.21022 2.48649 7.24022 2.47649C7.28022 2.44649 7.29021 2.43649 7.34021 2.43649C7.38021 2.43649 7.41022 2.43649 7.46022 2.43649C7.47022 2.43649 7.49022 2.43649 7.51022 2.43649C7.53022 2.43649 7.53022 2.44649 7.55022 2.45649C7.55022 2.44649 7.55022 2.43649 7.55022 2.41649L7.54021 2.40649Z" fill="#3D3D3D"/>
<path d="M7.54012 7.60669C7.47012 7.60669 7.39012 7.60669 7.32012 7.60669C7.28012 7.60669 7.27012 7.63669 7.24012 7.65669C7.21012 7.67669 7.16012 7.68669 7.12012 7.68669C7.16012 7.68669 7.20012 7.68669 7.24012 7.67669C7.28012 7.64669 7.29011 7.63669 7.34011 7.63669C7.41011 7.62669 7.46012 7.63669 7.50012 7.70669C7.52012 7.74669 7.53012 7.75669 7.53012 7.79669C7.53012 7.76669 7.54012 7.73669 7.55012 7.70669C7.55012 7.67669 7.55012 7.64669 7.55012 7.61669L7.54012 7.60669Z" fill="#3D3D3D"/>
<path d="M7.52988 2.65649C7.52988 2.65649 7.41988 2.65649 7.37988 2.66649C7.40988 2.66649 7.42988 2.66649 7.45988 2.66649C7.46988 2.66649 7.47989 2.67649 7.49989 2.68649C7.52989 2.68649 7.54988 2.68649 7.53988 2.65649H7.52988Z" fill="#3D3D3D"/>
<path d="M7.53012 2.21654C7.53012 2.21654 7.40012 2.29654 7.37012 2.28654C7.40012 2.25654 7.44012 2.25654 7.47012 2.23654C7.49012 2.22654 7.51012 2.20654 7.54012 2.20654H7.53012V2.21654Z" fill="#3D3D3D"/>
<path d="M0.870117 3.4265C0.870117 3.4265 0.910117 3.4565 0.930117 3.4665C0.950117 3.4765 1.00012 3.4765 1.02012 3.4765C1.11012 3.4765 1.17012 3.4565 1.25012 3.4365C1.19012 3.4865 1.13012 3.4965 1.06012 3.4965C1.00012 3.4965 0.900117 3.4965 0.870117 3.4165V3.4265Z" fill="#3D3D3D"/>
<path d="M0.889941 3.29659C0.889941 3.21659 1.01994 3.22659 1.07994 3.20659C1.03994 3.19659 0.969942 3.20659 0.929942 3.20659C0.849942 3.20659 0.879941 3.23659 0.899941 3.28659L0.889941 3.29659Z" fill="#3D3D3D"/>
<path d="M0.899902 6.88658C0.899902 6.81658 1.0099 6.84658 1.0499 6.84658C1.0899 6.84658 1.0899 6.82658 1.1099 6.79658C1.1199 6.77658 1.1399 6.75658 1.1499 6.74658C1.1099 6.77658 1.1199 6.84658 1.0799 6.86658C1.0299 6.89658 0.949903 6.84658 0.909903 6.89658C0.909903 6.89658 0.909903 6.87658 0.909903 6.88658H0.899902Z" fill="#3D3D3D"/>
<path d="M0.900237 5.34667C0.900237 5.34667 0.900237 5.38667 0.900237 5.39667C0.900237 5.39667 0.930237 5.42667 0.930237 5.43667C0.930237 5.46667 0.890237 5.47667 0.890237 5.50667C0.890237 5.46667 0.870237 5.37667 0.890237 5.33667L0.900237 5.34667Z" fill="#3D3D3D"/>
<path d="M0.899883 5.52661C0.899883 5.52661 0.939885 5.54661 0.959885 5.54661C0.989885 5.54661 0.989884 5.54661 1.00988 5.56661C1.04988 5.59661 1.05988 5.54661 1.09988 5.54661C1.07988 5.56661 1.05988 5.56661 1.03988 5.57661C1.00988 5.58661 1.00988 5.57661 0.989883 5.56661C0.979883 5.56661 0.939884 5.56661 0.919884 5.56661C0.899884 5.56661 0.899883 5.61661 0.899883 5.63661C0.899883 5.66661 0.929884 5.66661 0.949884 5.67661C0.939884 5.67661 0.909883 5.67661 0.909883 5.67661C0.909883 5.67661 0.909883 5.67661 0.889883 5.67661C0.889883 5.67661 0.879883 5.64661 0.879883 5.63661C0.879883 5.59661 0.879883 5.56661 0.899883 5.53661V5.52661Z" fill="#3D3D3D"/>
<path d="M0.889883 6.74652C0.889883 6.74652 0.969884 6.74652 0.999884 6.70652C0.989884 6.70652 0.969884 6.70652 0.949884 6.70652C0.919884 6.70652 0.899883 6.69652 0.879883 6.68652C0.879883 6.70652 0.879883 6.72652 0.879883 6.73652H0.889883C0.889883 6.73652 0.889883 6.74652 0.889883 6.75652V6.74652Z" fill="#3D3D3D"/>
<path d="M1.68018 2.96655C1.68018 2.96655 1.68018 2.96655 1.68018 2.97655C1.68018 2.97655 1.68018 2.97655 1.69018 2.96655H1.68018Z" fill="white"/>
<path d="M1.48988 1.37671H1.65989V1.71671C1.65989 1.71671 1.66988 1.74671 1.68988 1.76671C1.69988 1.76671 1.71989 1.78671 1.72989 1.78671C1.72989 1.78671 1.69988 1.80671 1.67988 1.81671C1.67988 1.81671 1.66989 1.83671 1.65989 1.84671V1.86671V2.08671C1.65989 2.08671 1.65988 2.14671 1.67988 2.14671C1.67988 2.14671 1.68988 2.14671 1.70988 2.14671H1.72989V2.24671H1.39988V2.14671H1.42988C1.42988 2.14671 1.45988 2.14671 1.45988 2.13671C1.45988 2.13671 1.45988 2.10671 1.45988 2.06671V1.88671C1.45988 1.88671 1.43988 1.81671 1.40988 1.79671C1.39988 1.79671 1.38988 1.79671 1.38988 1.79671C1.38988 1.79671 1.42988 1.77671 1.43988 1.76671C1.44988 1.74671 1.45988 1.72671 1.45988 1.71671V1.63671H1.37988V1.52671C1.37988 1.52671 1.42988 1.48671 1.43988 1.46671C1.45988 1.44671 1.46988 1.42671 1.48988 1.39671V1.37671Z" fill="#B41818"/>
<path d="M2.05976 1.35669H2.07977C2.07977 1.35669 2.15977 1.36669 2.18977 1.38669C2.20977 1.40669 2.22977 1.41669 2.24977 1.43669C2.25977 1.45669 2.27976 1.46669 2.28976 1.48669C2.29976 1.50669 2.31977 1.53669 2.32977 1.57669C2.32977 1.59669 2.33977 1.62669 2.34977 1.67669C2.34977 1.67669 2.34977 1.73669 2.36977 1.74669C2.37977 1.76669 2.39977 1.77669 2.41977 1.78669H2.40977C2.38977 1.78669 2.37976 1.80669 2.35976 1.83669C2.35976 1.83669 2.35976 1.85669 2.35976 1.90669C2.35976 1.93669 2.35976 1.95669 2.35976 1.98669C2.35976 2.02669 2.33977 2.05669 2.32977 2.07669C2.31977 2.10669 2.30976 2.13669 2.28976 2.15669C2.23976 2.23669 2.16976 2.26669 2.08976 2.26669C2.00976 2.26669 1.93977 2.22669 1.88977 2.14669C1.86977 2.12669 1.85976 2.08669 1.83976 2.03669C1.83976 2.00669 1.81977 1.96669 1.81977 1.90669C1.81977 1.87669 1.81977 1.84669 1.81977 1.83669C1.81977 1.82669 1.81976 1.81669 1.80976 1.80669C1.79976 1.78669 1.77977 1.77669 1.75977 1.77669H1.77977C1.79977 1.77669 1.80977 1.75669 1.81977 1.73669C1.81977 1.73669 1.81977 1.70669 1.82977 1.67669C1.82977 1.62669 1.83977 1.58669 1.84977 1.56669C1.85977 1.52669 1.87977 1.49669 1.89977 1.46669C1.91977 1.44669 1.92977 1.42669 1.95977 1.40669C1.97977 1.39669 1.98977 1.38669 2.00977 1.37669C2.03977 1.36669 2.06977 1.35669 2.09977 1.35669H2.05976ZM2.00977 1.74669V1.92669C2.00977 2.03669 2.00977 2.10669 2.02977 2.13669C2.02977 2.16669 2.04977 2.17669 2.06977 2.17669C2.08977 2.17669 2.10977 2.14669 2.11977 2.09669C2.11977 2.05669 2.12976 1.97669 2.12976 1.84669C2.12976 1.66669 2.12977 1.56669 2.11977 1.52669C2.11977 1.48669 2.09977 1.47669 2.07977 1.47669C2.05977 1.47669 2.03977 1.50669 2.02977 1.55669C2.02977 1.60669 2.01976 1.67669 2.01976 1.76669L2.00977 1.74669Z" fill="#B41818"/>
<path d="M6.90015 9.54651H6.73016V9.20651C6.73016 9.20651 6.72015 9.17651 6.70015 9.15651C6.69015 9.15651 6.67016 9.13651 6.66016 9.13651C6.66016 9.13651 6.69016 9.11651 6.71016 9.10651C6.71016 9.10651 6.72016 9.08651 6.73016 9.07651V9.05651V8.83651C6.73016 8.83651 6.73016 8.77651 6.71016 8.77651C6.71016 8.77651 6.70015 8.77651 6.68015 8.77651H6.66016V8.67651H6.99015V8.77651H6.96016C6.96016 8.77651 6.93015 8.77651 6.93015 8.78651C6.93015 8.78651 6.93015 8.81651 6.93015 8.85651V9.03651C6.93015 9.03651 6.95016 9.10651 6.98016 9.12651C6.99016 9.12651 7.00016 9.12651 7.00016 9.12651C7.00016 9.12651 6.96015 9.14651 6.95015 9.15651C6.94015 9.17651 6.93015 9.19651 6.93015 9.20651V9.28651H7.01015V9.39651C7.01015 9.39651 6.96015 9.43651 6.95015 9.45651C6.93015 9.47651 6.92015 9.49651 6.90015 9.52651V9.54651Z" fill="#B41818"/>
<path d="M6.33998 9.5765H6.31998C6.31998 9.5765 6.23998 9.5665 6.20998 9.5465C6.18998 9.5265 6.16998 9.5165 6.14998 9.4965C6.13998 9.4765 6.11998 9.4665 6.10998 9.4465C6.09998 9.4265 6.07998 9.3965 6.06998 9.3565C6.06998 9.3365 6.05998 9.3065 6.04998 9.2565C6.04998 9.2565 6.04998 9.1965 6.02998 9.1865C6.01998 9.1665 5.99998 9.1565 5.97998 9.1465H5.98998C6.00998 9.1465 6.01998 9.1265 6.03998 9.0965C6.03998 9.0965 6.03998 9.0765 6.03998 9.0265C6.03998 8.9965 6.03998 8.9765 6.03998 8.9465C6.03998 8.9065 6.05998 8.8765 6.06998 8.8565C6.07998 8.8265 6.08998 8.7965 6.10998 8.7765C6.15998 8.6965 6.22998 8.6665 6.30998 8.6665C6.38998 8.6665 6.45998 8.7065 6.50998 8.7865C6.52998 8.8065 6.53998 8.8465 6.55998 8.8965C6.55998 8.9265 6.57998 8.9665 6.57998 9.0265C6.57998 9.0565 6.57998 9.0865 6.57998 9.0965C6.57998 9.1065 6.57998 9.1165 6.58998 9.1265C6.59998 9.1465 6.61998 9.1565 6.63998 9.1565H6.61998C6.59998 9.1565 6.58998 9.1765 6.57998 9.1965C6.57998 9.1965 6.57998 9.2265 6.56998 9.2565C6.56998 9.3065 6.55998 9.3465 6.54998 9.3665C6.53998 9.4065 6.51998 9.4365 6.49998 9.4665C6.47998 9.4865 6.46998 9.5065 6.43998 9.5265C6.41998 9.5365 6.40998 9.5465 6.38998 9.5565C6.35998 9.5665 6.32998 9.5765 6.29998 9.5765H6.33998ZM6.37998 9.1765V8.9965C6.37998 8.8865 6.37998 8.8165 6.35998 8.7865C6.35998 8.7565 6.33998 8.7465 6.31998 8.7465C6.29998 8.7465 6.27998 8.7765 6.26998 8.8265C6.26998 8.8665 6.25998 8.9465 6.25998 9.0765C6.25998 9.2565 6.25998 9.3565 6.26998 9.3965C6.26998 9.4365 6.28998 9.4465 6.30998 9.4465C6.32998 9.4465 6.34998 9.4165 6.35998 9.3665C6.35998 9.3165 6.35998 9.2465 6.35998 9.1565L6.37998 9.1765Z" fill="#B41818"/>
<path d="M1.86016 2.60655C1.86016 2.60655 1.86016 2.61655 1.84016 2.62655C1.84016 2.61655 1.82016 2.60655 1.82016 2.60655C1.67016 2.41655 1.36016 2.62655 1.51016 2.83655C1.60016 2.95655 1.78016 2.96655 1.84016 3.17655C1.90016 2.97655 2.08016 2.96655 2.17016 2.83655C2.32016 2.62655 2.01016 2.41655 1.86016 2.60655Z" fill="#B41818"/>
<path d="M6.58003 8.31658C6.58003 8.31658 6.58003 8.30658 6.56003 8.29658C6.56003 8.30658 6.54003 8.31658 6.54003 8.31658C6.40003 8.50658 6.08003 8.29658 6.23003 8.08658C6.32003 7.96658 6.50003 7.95658 6.56003 7.74658C6.62003 7.94658 6.80003 7.95658 6.89003 8.08658C7.04003 8.29658 6.73003 8.50658 6.58003 8.31658Z" fill="#B41818"/>
<path d="M3.16001 4.02663C3.16001 4.02663 3.15001 4.04663 3.13001 4.06663C3.12001 4.04663 3.10001 4.02663 3.10001 4.02663C2.86001 3.70663 2.35 4.06663 2.59 4.40663C2.73 4.60663 3.03001 4.62663 3.13001 4.95663C3.23001 4.62663 3.52001 4.60663 3.67001 4.40663C3.91001 4.06663 3.40001 3.70663 3.16001 4.02663Z" fill="#B41818"/>
<path d="M3.16001 1.95656C3.16001 1.95656 3.15001 1.97656 3.13001 1.99656C3.12001 1.97656 3.10001 1.95656 3.10001 1.95656C2.86001 1.63656 2.35 1.99656 2.59 2.33656C2.73 2.53656 3.03001 2.55656 3.13001 2.88656C3.23001 2.55656 3.52001 2.53656 3.67001 2.33656C3.91001 1.99656 3.40001 1.63656 3.16001 1.95656Z" fill="#B41818"/>
<path d="M3.16001 8.98664C3.16001 8.98664 3.15001 8.96664 3.13001 8.94664C3.12001 8.96664 3.10001 8.98664 3.10001 8.98664C2.86001 9.30664 2.35 8.94664 2.59 8.60664C2.73 8.40664 3.03001 8.38664 3.13001 8.05664C3.23001 8.38664 3.52001 8.40664 3.67001 8.60664C3.91001 8.94664 3.40001 9.30664 3.16001 8.98664Z" fill="#B41818"/>
<path d="M3.16001 6.91657C3.16001 6.91657 3.15001 6.89657 3.13001 6.87657C3.12001 6.89657 3.10001 6.91657 3.10001 6.91657C2.86001 7.23657 2.35 6.87657 2.59 6.53657C2.73 6.33657 3.03001 6.31657 3.13001 5.98657C3.23001 6.31657 3.52001 6.33657 3.67001 6.53657C3.91001 6.87657 3.40001 7.23657 3.16001 6.91657Z" fill="#B41818"/>
<path d="M5.30014 4.02663C5.30014 4.02663 5.29014 4.04663 5.27014 4.06663C5.26014 4.04663 5.24014 4.02663 5.24014 4.02663C5.00014 3.70663 4.49014 4.06663 4.73014 4.40663C4.87014 4.60663 5.17014 4.62663 5.27014 4.95663C5.37014 4.62663 5.66014 4.60663 5.81014 4.40663C6.05014 4.06663 5.54014 3.70663 5.30014 4.02663Z" fill="#B41818"/>
<path d="M5.30014 1.95656C5.30014 1.95656 5.29014 1.97656 5.27014 1.99656C5.26014 1.97656 5.24014 1.95656 5.24014 1.95656C5.00014 1.63656 4.49014 1.99656 4.73014 2.33656C4.87014 2.53656 5.17014 2.55656 5.27014 2.88656C5.37014 2.55656 5.66014 2.53656 5.81014 2.33656C6.05014 1.99656 5.54014 1.63656 5.30014 1.95656Z" fill="#B41818"/>
<path d="M5.30014 8.98664C5.30014 8.98664 5.29014 8.96664 5.27014 8.94664C5.26014 8.96664 5.24014 8.98664 5.24014 8.98664C5.00014 9.30664 4.49014 8.94664 4.73014 8.60664C4.87014 8.40664 5.17014 8.38664 5.27014 8.05664C5.37014 8.38664 5.66014 8.40664 5.81014 8.60664C6.05014 8.94664 5.54014 9.30664 5.30014 8.98664Z" fill="#B41818"/>
<path d="M5.30014 6.91657C5.30014 6.91657 5.29014 6.89657 5.27014 6.87657C5.26014 6.89657 5.24014 6.91657 5.24014 6.91657C5.00014 7.23657 4.49014 6.87657 4.73014 6.53657C4.87014 6.33657 5.17014 6.31657 5.27014 5.98657C5.37014 6.31657 5.66014 6.33657 5.81014 6.53657C6.05014 6.87657 5.54014 7.23657 5.30014 6.91657Z" fill="#B41818"/>
<path d="M4.24008 2.97658C4.24008 2.97658 4.23008 2.99658 4.21008 3.01658C4.20008 2.99658 4.18008 2.97658 4.18008 2.97658C3.94008 2.65658 3.43008 3.01658 3.67008 3.35658C3.81008 3.55658 4.11008 3.57658 4.21008 3.90658C4.31008 3.57658 4.60008 3.55658 4.75008 3.35658C4.99008 3.01658 4.48008 2.65658 4.24008 2.97658Z" fill="#B41818"/>
<path d="M4.24008 8.00666C4.24008 8.00666 4.23008 7.98666 4.21008 7.96666C4.20008 7.98666 4.18008 8.00666 4.18008 8.00666C3.94008 8.32666 3.43008 7.96666 3.67008 7.62666C3.81008 7.42666 4.11008 7.40666 4.21008 7.07666C4.31008 7.40666 4.60008 7.42666 4.75008 7.62666C4.99008 7.96666 4.48008 8.32666 4.24008 8.00666Z" fill="#B41818"/>
</svg>
