<svg width="8" height="11" viewBox="0 0 8 11" fill="none" xmlns="http://www.w3.org/2000/svg">
<path d="M6.96986 10.1466H0.919865C0.749865 10.1466 0.609863 10.0066 0.609863 9.83664V1.11664C0.609863 0.946641 0.749865 0.806641 0.919865 0.806641H6.96986C7.13986 0.806641 7.27987 0.946641 7.27987 1.11664V9.83664C7.27987 10.0066 7.13986 10.1466 6.96986 10.1466ZM0.919865 0.826641C0.759865 0.826641 0.629864 0.956641 0.629864 1.11664V9.83664C0.629864 9.99664 0.759865 10.1266 0.919865 10.1266H6.96986C7.12986 10.1266 7.25986 9.99664 7.25986 9.83664V1.11664C7.25986 0.956641 7.12986 0.826641 6.96986 0.826641H0.919865Z" fill="#3D3D3D"/>
<path d="M6.97008 10.1666H0.920078C0.730078 10.1666 0.580078 10.0166 0.580078 9.8266V1.1066C0.580078 0.916602 0.730078 0.766602 0.920078 0.766602H6.97008C7.16008 0.766602 7.31008 0.916602 7.31008 1.1066V9.8266C7.31008 10.0166 7.16008 10.1666 6.97008 10.1666ZM0.920078 0.846602C0.770078 0.846602 0.660076 0.966602 0.660076 1.1066V9.8266C0.660076 9.9766 0.780078 10.0866 0.920078 10.0866H6.97008C7.12008 10.0866 7.23008 9.9666 7.23008 9.8266V1.1066C7.23008 0.956602 7.11008 0.846602 6.97008 0.846602H0.920078Z" fill="#3D3D3D"/>
<path d="M6.7901 9.92661H1.0901C0.960096 9.92661 0.850098 9.81661 0.850098 9.68661V1.26661C0.850098 1.13661 0.960096 1.02661 1.0901 1.02661H6.7901C6.9201 1.02661 7.0301 1.13661 7.0301 1.26661V9.68661C7.0301 9.81661 6.9201 9.92661 6.7901 9.92661ZM1.0901 1.07661C0.980096 1.07661 0.900097 1.16661 0.900097 1.26661V9.68661C0.900097 9.79661 0.990096 9.87661 1.0901 9.87661H6.7901C6.9001 9.87661 6.98009 9.78661 6.98009 9.68661V1.26661C6.98009 1.15661 6.8901 1.07661 6.7901 1.07661H1.0901Z" fill="#3D3D3D"/>
<path d="M7.27008 4.44658C7.27008 4.44658 7.20008 4.43658 7.18008 4.44658C7.17008 4.44658 7.16008 4.45658 7.15008 4.46658C7.13008 4.47658 7.11008 4.48658 7.08008 4.48658C7.10008 4.48658 7.12008 4.48658 7.13008 4.48658C7.15008 4.48658 7.16008 4.46658 7.18008 4.46658C7.20008 4.46658 7.22008 4.46658 7.23008 4.47658C7.23008 4.47658 7.23008 4.49658 7.25008 4.47658C7.25008 4.47658 7.25008 4.45658 7.25008 4.44658H7.27008Z" fill="#3D3D3D"/>
<path d="M5.8999 0.796631C5.8999 0.796631 5.9599 0.84663 5.9599 0.89663C5.9599 0.94663 5.9399 0.986631 5.9399 1.03663C5.9699 0.966631 5.9999 0.906631 5.9999 0.826631C6.0199 0.826631 6.0399 0.81663 6.0699 0.81663C6.0199 0.81663 5.9799 0.796631 5.8999 0.796631Z" fill="#3D3D3D"/>
<path d="M6.20996 0.81665C6.20996 0.81665 6.20996 0.896651 6.20996 0.926651C6.21996 0.916651 6.23996 0.856651 6.23996 0.836651C6.23996 0.826651 6.22996 0.81665 6.20996 0.81665Z" fill="#3D3D3D"/>
<path d="M2.95996 0.81665C2.95996 0.81665 3.01996 0.846651 3.02996 0.866651C3.03996 0.886651 3.02996 0.91665 3.04996 0.93665C3.05996 0.96665 3.09996 0.956651 3.12996 0.966651C3.15996 0.966651 3.17996 0.986651 3.20996 0.996651C3.20996 0.976651 3.18996 0.966651 3.16996 0.956651C3.15996 0.956651 3.14996 0.956651 3.13996 0.956651H3.09996C3.09996 0.956651 3.07996 0.896651 3.07996 0.886651C3.07996 0.866651 3.09996 0.856651 3.11996 0.846651C3.10996 0.826651 3.00996 0.846651 2.97996 0.846651L2.95996 0.81665Z" fill="#3D3D3D"/>
<path d="M3.32031 0.81665C3.32031 0.81665 3.33031 0.856651 3.34031 0.876651C3.34031 0.896651 3.34031 0.906651 3.36031 0.916651C3.36031 0.896651 3.36031 0.866651 3.36031 0.836651C3.36031 0.816651 3.36031 0.81665 3.33031 0.81665H3.32031Z" fill="#3D3D3D"/>
<path d="M0.620167 1.26657C0.620167 1.26657 0.680166 1.26657 0.720166 1.27657C0.740166 1.27657 0.720164 1.27657 0.750164 1.27657C0.770164 1.27657 0.780167 1.27657 0.800167 1.27657C0.780167 1.27657 0.760164 1.27657 0.730164 1.27657C0.690164 1.27657 0.700165 1.27657 0.680165 1.25657C0.670165 1.25657 0.650165 1.25657 0.630165 1.25657C0.620165 1.25657 0.630167 1.24657 0.620167 1.23657C0.610167 1.23657 0.620167 1.26657 0.620167 1.27657V1.26657Z" fill="#3D3D3D"/>
<path d="M0.620167 9.43649C0.620167 9.43649 0.680166 9.4365 0.720166 9.4465C0.740166 9.4465 0.720164 9.4465 0.750164 9.4465C0.770164 9.4465 0.780167 9.4465 0.800167 9.4465C0.780167 9.4465 0.760164 9.4465 0.730164 9.4465C0.690164 9.4465 0.700165 9.44649 0.680165 9.42649C0.670165 9.42649 0.650165 9.42649 0.630165 9.42649C0.620165 9.42649 0.630167 9.41649 0.620167 9.40649C0.610167 9.40649 0.620167 9.4365 0.620167 9.4465V9.43649Z" fill="#3D3D3D"/>
<path d="M0.630263 1.02666H0.710265C0.720265 1.00666 0.660262 1.01666 0.660262 0.996663C0.660262 0.986663 0.680264 0.966663 0.670264 0.956663C0.670264 0.926663 0.610265 0.986662 0.620265 1.01666L0.630263 1.02666Z" fill="#3D3D3D"/>
<path d="M4.49998 0.81665C4.49998 0.81665 4.49998 0.816651 4.50998 0.836651C4.50998 0.836651 4.50998 0.856651 4.50998 0.866651C4.50998 0.886651 4.50998 0.906651 4.50998 0.926651C4.50998 0.916651 4.50998 0.906651 4.50998 0.886651C4.50998 0.876651 4.50998 0.86665 4.51998 0.85665C4.51998 0.84665 4.51998 0.836651 4.51998 0.826651C4.51998 0.826651 4.51998 0.826651 4.49998 0.826651C4.49998 0.826651 4.48998 0.826651 4.47998 0.826651L4.49998 0.81665Z" fill="#3D3D3D"/>
<path d="M4.75 10.1465C4.75 10.1465 4.81 10.0965 4.81 10.0465C4.81 9.99649 4.79 9.95649 4.79 9.90649C4.82 9.97649 4.85 10.0365 4.85 10.1165C4.87 10.1165 4.89 10.1265 4.92 10.1265C4.87 10.1265 4.83 10.1465 4.75 10.1465Z" fill="#3D3D3D"/>
<path d="M0.600098 8.90649C0.600098 8.90649 0.650098 8.96649 0.710098 8.96649C0.760098 8.96649 0.800098 8.9465 0.850098 8.9465C0.780098 8.9765 0.710099 9.00649 0.640099 9.00649C0.640099 9.02649 0.630096 9.04649 0.630096 9.07649C0.630096 9.02649 0.610096 8.98649 0.610096 8.90649H0.600098Z" fill="#3D3D3D"/>
<path d="M5.06006 10.1266C5.06006 10.1266 5.06006 10.0466 5.06006 10.0166C5.07006 10.0266 5.09006 10.0866 5.09006 10.1066C5.09006 10.1166 5.08006 10.1266 5.06006 10.1266Z" fill="#3D3D3D"/>
<path d="M1.81006 10.1265C1.81006 10.1265 1.87006 10.0965 1.88006 10.0765C1.89006 10.0565 1.88006 10.0265 1.90006 10.0065C1.91006 9.97653 1.95006 9.98653 1.98006 9.97653C2.01006 9.97653 2.03006 9.95653 2.06006 9.94653C2.06006 9.96653 2.04006 9.97653 2.02006 9.98653C2.01006 9.98653 2.00006 9.98653 1.99006 9.98653H1.95006C1.95006 9.98653 1.93006 10.0465 1.93006 10.0565C1.93006 10.0765 1.95006 10.0865 1.97006 10.0965C1.96006 10.1165 1.86006 10.0965 1.83006 10.0965L1.81006 10.1265Z" fill="#3D3D3D"/>
<path d="M2.16992 10.1266C2.16992 10.1266 2.17992 10.0866 2.18992 10.0666C2.18992 10.0466 2.18992 10.0366 2.20992 10.0266C2.20992 10.0466 2.20992 10.0766 2.20992 10.1066C2.20992 10.1266 2.20992 10.1266 2.17992 10.1266H2.16992Z" fill="#3D3D3D"/>
<path d="M3.35008 10.1266C3.35008 10.1266 3.35008 10.1266 3.36008 10.1066C3.36008 10.1066 3.36008 10.0866 3.36008 10.0766C3.36008 10.0566 3.36008 10.0366 3.36008 10.0166C3.36008 10.0266 3.36008 10.0366 3.36008 10.0566C3.36008 10.0666 3.36008 10.0766 3.37008 10.0866C3.37008 10.0966 3.37008 10.0966 3.37008 10.1166C3.37008 10.1166 3.37008 10.1166 3.35008 10.1166C3.35008 10.1166 3.34008 10.1166 3.33008 10.1166L3.35008 10.1266Z" fill="#3D3D3D"/>
<path d="M7.2702 2.40649C7.2002 2.40649 7.1202 2.40649 7.0502 2.40649C7.0102 2.40649 7.0102 2.40649 6.9902 2.43649C6.9502 2.48649 6.88019 2.48649 6.82019 2.49649C6.78019 2.50649 6.7402 2.51649 6.7002 2.51649C6.7302 2.54649 6.8302 2.51649 6.8702 2.50649C6.9002 2.50649 6.9402 2.48649 6.9702 2.47649C7.0102 2.44649 7.02019 2.43649 7.07019 2.43649C7.11019 2.43649 7.1402 2.43649 7.1902 2.43649C7.2002 2.43649 7.2202 2.43649 7.2402 2.43649C7.2602 2.43649 7.2602 2.44649 7.2802 2.45649C7.2802 2.44649 7.2802 2.43649 7.2802 2.41649L7.2702 2.40649Z" fill="#3D3D3D"/>
<path d="M7.2701 7.60669C7.2001 7.60669 7.1201 7.60669 7.0501 7.60669C7.0101 7.60669 7.0001 7.63669 6.9701 7.65669C6.9401 7.67669 6.8901 7.68669 6.8501 7.68669C6.8901 7.68669 6.9301 7.68669 6.9701 7.67669C7.0101 7.64669 7.0201 7.63669 7.0701 7.63669C7.1401 7.62669 7.19009 7.63669 7.23009 7.70669C7.25009 7.74669 7.2601 7.75669 7.2601 7.79669C7.2601 7.76669 7.2701 7.73669 7.2801 7.70669C7.2801 7.67669 7.2801 7.64669 7.2801 7.61669L7.2701 7.60669Z" fill="#3D3D3D"/>
<path d="M7.25986 2.65649C7.25986 2.65649 7.14986 2.65649 7.10986 2.66649C7.13986 2.66649 7.15987 2.66649 7.18987 2.66649C7.19987 2.66649 7.20986 2.67649 7.22986 2.68649C7.25986 2.68649 7.27986 2.68649 7.26986 2.65649H7.25986Z" fill="#3D3D3D"/>
<path d="M7.2601 2.21654C7.2601 2.21654 7.1301 2.29654 7.1001 2.28654C7.1301 2.25654 7.1701 2.25654 7.2001 2.23654C7.2201 2.22654 7.2401 2.20654 7.2701 2.20654H7.2601V2.21654Z" fill="#3D3D3D"/>
<path d="M0.600098 3.4265C0.600098 3.4265 0.640095 3.4565 0.660095 3.4665C0.680095 3.4765 0.730095 3.4765 0.750095 3.4765C0.840095 3.4765 0.900095 3.4565 0.980095 3.4365C0.920095 3.4865 0.860096 3.4965 0.790096 3.4965C0.730096 3.4965 0.630098 3.4965 0.600098 3.4165V3.4265Z" fill="#3D3D3D"/>
<path d="M0.619924 3.29659C0.619924 3.21659 0.749923 3.22659 0.809923 3.20659C0.769923 3.19659 0.699921 3.20659 0.659921 3.20659C0.579921 3.20659 0.609922 3.23659 0.629922 3.28659L0.619924 3.29659Z" fill="#3D3D3D"/>
<path d="M0.629883 6.88658C0.629883 6.81658 0.739884 6.84658 0.779884 6.84658C0.819884 6.84658 0.819882 6.82658 0.839882 6.79658C0.849882 6.77658 0.869883 6.75658 0.879883 6.74658C0.839883 6.77658 0.849883 6.84658 0.809883 6.86658C0.759883 6.89658 0.679885 6.84658 0.639885 6.89658C0.639885 6.89658 0.639885 6.87658 0.639885 6.88658H0.629883Z" fill="#3D3D3D"/>
<path d="M0.630215 5.34667C0.630215 5.34667 0.630215 5.38667 0.630215 5.39667C0.630215 5.39667 0.660214 5.42667 0.660214 5.43667C0.660214 5.46667 0.620217 5.47667 0.620217 5.50667C0.620217 5.46667 0.600217 5.37667 0.620217 5.33667L0.630215 5.34667Z" fill="#3D3D3D"/>
<path d="M0.629864 5.52661C0.629864 5.52661 0.669865 5.54661 0.689865 5.54661C0.719865 5.54661 0.719864 5.54661 0.739864 5.56661C0.779864 5.59661 0.789865 5.54661 0.829865 5.54661C0.809865 5.56661 0.789863 5.56661 0.769863 5.57661C0.739863 5.58661 0.739864 5.57661 0.719864 5.56661C0.709864 5.56661 0.669864 5.56661 0.649864 5.56661C0.629864 5.56661 0.629864 5.61661 0.629864 5.63661C0.629864 5.66661 0.659863 5.66661 0.679863 5.67661C0.669863 5.67661 0.639866 5.67661 0.639866 5.67661C0.639866 5.67661 0.639865 5.67661 0.619865 5.67661C0.619865 5.67661 0.609863 5.64661 0.609863 5.63661C0.609863 5.59661 0.609864 5.56661 0.629864 5.53661V5.52661Z" fill="#3D3D3D"/>
<path d="M0.620117 6.74652C0.620117 6.74652 0.700114 6.74652 0.730114 6.70652C0.720114 6.70652 0.700117 6.70652 0.690117 6.70652C0.660117 6.70652 0.640117 6.69652 0.620117 6.68652C0.620117 6.70652 0.620117 6.72652 0.620117 6.73652H0.630116C0.630116 6.73652 0.630116 6.74652 0.630116 6.75652L0.620117 6.74652Z" fill="#3D3D3D"/>
<path d="M1.41016 2.96655C1.41016 2.96655 1.41016 2.96655 1.41016 2.97655C1.41016 2.97655 1.41016 2.97655 1.42016 2.96655H1.41016Z" fill="white"/>
<path d="M1.52002 1.3667H1.54002C1.54002 1.3667 1.63002 1.3767 1.67002 1.3967C1.69002 1.4067 1.70002 1.4167 1.71002 1.4267C1.72002 1.4367 1.73002 1.4567 1.74002 1.4667C1.77002 1.5167 1.78002 1.5867 1.78002 1.6767V1.7067C1.78002 1.7067 1.78002 1.7467 1.80002 1.7567C1.80002 1.7667 1.82002 1.7767 1.85002 1.7867C1.83002 1.7867 1.82002 1.7967 1.81002 1.8067C1.80002 1.8267 1.79002 1.8367 1.78002 1.8567C1.78002 2.0067 1.76002 2.0867 1.75002 2.1067C1.75002 2.1267 1.74002 2.1467 1.73002 2.1567C1.70002 2.2167 1.63002 2.2567 1.53002 2.2567C1.43002 2.2567 1.36002 2.2267 1.32002 2.1767C1.32002 2.1667 1.31002 2.1467 1.30002 2.1367C1.30002 2.1067 1.29002 2.0767 1.29002 2.0567V2.0467H1.46002C1.46002 2.0467 1.46002 2.0467 1.46002 2.0767C1.47002 2.1267 1.49002 2.1467 1.51002 2.1467C1.51002 2.1467 1.54002 2.1267 1.56002 2.0767C1.57002 2.0267 1.58002 1.9767 1.58002 1.9267C1.58002 1.8967 1.58002 1.8767 1.58002 1.8667H1.56002C1.56002 1.8667 1.50002 1.9067 1.47002 1.9067C1.43002 1.9067 1.39002 1.8967 1.35002 1.8767C1.33002 1.8567 1.32002 1.8467 1.31002 1.8367C1.31002 1.8267 1.29002 1.8067 1.29002 1.7867C1.28002 1.7567 1.27002 1.7067 1.27002 1.6567C1.27002 1.5267 1.31002 1.4367 1.40002 1.3967C1.43002 1.3767 1.47002 1.3767 1.51002 1.3767L1.52002 1.3667ZM1.47002 1.6367V1.6567C1.47002 1.6567 1.47002 1.7267 1.49002 1.7567C1.49002 1.7667 1.51002 1.7767 1.53002 1.7767C1.53002 1.7767 1.57002 1.7567 1.58002 1.7267C1.58002 1.7167 1.58002 1.7067 1.58002 1.6967V1.5867C1.58002 1.5867 1.58002 1.5167 1.55002 1.5067L1.53002 1.4967C1.50002 1.4967 1.49002 1.5267 1.48002 1.5767C1.48002 1.5967 1.48002 1.6167 1.48002 1.6367H1.47002Z" fill="#B41818"/>
<path d="M6.32023 9.5565H6.30024C6.30024 9.5565 6.21023 9.5465 6.17023 9.5265C6.15023 9.5165 6.14023 9.5065 6.13023 9.4965C6.12023 9.4865 6.11023 9.4665 6.10023 9.4565C6.07023 9.4065 6.06023 9.3365 6.06023 9.2465V9.2165C6.06023 9.2165 6.06023 9.1765 6.04023 9.1665C6.04023 9.1565 6.02023 9.1465 5.99023 9.1365C6.01023 9.1365 6.02024 9.1265 6.03024 9.1165C6.04024 9.0965 6.05023 9.0865 6.06023 9.0665C6.06023 8.9165 6.08023 8.8365 6.09023 8.8165C6.09023 8.7965 6.10023 8.7765 6.11023 8.7665C6.14023 8.7065 6.21023 8.6665 6.31023 8.6665C6.41023 8.6665 6.48023 8.6965 6.52023 8.7465C6.52023 8.7565 6.53023 8.7765 6.54023 8.7865C6.54023 8.8165 6.55024 8.8465 6.55024 8.8665V8.8765H6.38023C6.38023 8.8765 6.38023 8.8765 6.38023 8.8465C6.37023 8.7965 6.35023 8.7765 6.33023 8.7765C6.33023 8.7765 6.30024 8.7965 6.28024 8.8465C6.27024 8.8965 6.26023 8.9465 6.26023 8.9965C6.26023 9.0265 6.26023 9.0465 6.26023 9.0565H6.28024C6.28024 9.0565 6.34024 9.0165 6.37024 9.0165C6.41024 9.0165 6.45023 9.0265 6.49023 9.0465C6.51023 9.0665 6.52024 9.0765 6.53024 9.0865C6.53024 9.0965 6.55024 9.1165 6.55024 9.1365C6.56024 9.1665 6.57023 9.2065 6.57023 9.2665C6.57023 9.3965 6.53024 9.4865 6.44024 9.5265C6.41024 9.5465 6.37023 9.5465 6.33023 9.5465L6.32023 9.5565ZM6.37024 9.2865V9.2665C6.37024 9.2665 6.37023 9.1965 6.35023 9.1665C6.35023 9.1565 6.33023 9.1465 6.31023 9.1465C6.31023 9.1465 6.27023 9.1665 6.26023 9.1965C6.26023 9.2065 6.26023 9.2165 6.26023 9.2265V9.3465C6.26023 9.3465 6.26023 9.4165 6.29023 9.4265L6.31023 9.4365C6.34023 9.4365 6.35023 9.4065 6.36023 9.3565C6.36023 9.3365 6.36023 9.3165 6.36023 9.2965L6.37024 9.2865Z" fill="#B41818"/>
<path d="M1.59014 2.60655C1.59014 2.60655 1.59014 2.61655 1.57014 2.62655C1.57014 2.61655 1.55014 2.60655 1.55014 2.60655C1.40014 2.41655 1.09014 2.62655 1.24014 2.83655C1.33014 2.95655 1.51014 2.96655 1.57014 3.17655C1.63014 2.97655 1.81014 2.96655 1.90014 2.83655C2.05014 2.62655 1.74014 2.41655 1.59014 2.60655Z" fill="#B41818"/>
<path d="M6.31001 8.31658C6.31001 8.31658 6.31001 8.30658 6.29001 8.29658C6.29001 8.30658 6.27001 8.31658 6.27001 8.31658C6.13001 8.50658 5.81001 8.29658 5.96001 8.08658C6.05001 7.96658 6.23001 7.95658 6.29001 7.74658C6.35001 7.94658 6.53001 7.95658 6.62001 8.08658C6.77001 8.29658 6.46001 8.50658 6.31001 8.31658Z" fill="#B41818"/>
<path d="M2.88999 4.02663C2.88999 4.02663 2.87999 4.04663 2.85999 4.06663C2.84999 4.04663 2.82999 4.02663 2.82999 4.02663C2.58999 3.70663 2.07998 4.06663 2.31998 4.40663C2.45998 4.60663 2.75999 4.62663 2.85999 4.95663C2.95999 4.62663 3.24999 4.60663 3.39999 4.40663C3.63999 4.06663 3.12999 3.70663 2.88999 4.02663Z" fill="#B41818"/>
<path d="M2.88999 1.95656C2.88999 1.95656 2.87999 1.97656 2.85999 1.99656C2.84999 1.97656 2.82999 1.95656 2.82999 1.95656C2.58999 1.63656 2.07998 1.99656 2.31998 2.33656C2.45998 2.53656 2.75999 2.55656 2.85999 2.88656C2.95999 2.55656 3.24999 2.53656 3.39999 2.33656C3.63999 1.99656 3.12999 1.63656 2.88999 1.95656Z" fill="#B41818"/>
<path d="M2.88999 8.98664C2.88999 8.98664 2.87999 8.96664 2.85999 8.94664C2.84999 8.96664 2.82999 8.98664 2.82999 8.98664C2.58999 9.30664 2.07998 8.94664 2.31998 8.60664C2.45998 8.40664 2.75999 8.38664 2.85999 8.05664C2.95999 8.38664 3.24999 8.40664 3.39999 8.60664C3.63999 8.94664 3.12999 9.30664 2.88999 8.98664Z" fill="#B41818"/>
<path d="M2.88999 6.91657C2.88999 6.91657 2.87999 6.89657 2.85999 6.87657C2.84999 6.89657 2.82999 6.91657 2.82999 6.91657C2.58999 7.23657 2.07998 6.87657 2.31998 6.53657C2.45998 6.33657 2.75999 6.31657 2.85999 5.98657C2.95999 6.31657 3.24999 6.33657 3.39999 6.53657C3.63999 6.87657 3.12999 7.23657 2.88999 6.91657Z" fill="#B41818"/>
<path d="M5.03012 4.02663C5.03012 4.02663 5.02012 4.04663 5.00012 4.06663C4.99012 4.04663 4.97012 4.02663 4.97012 4.02663C4.73012 3.70663 4.22012 4.06663 4.46012 4.40663C4.60012 4.60663 4.90012 4.62663 5.00012 4.95663C5.10012 4.62663 5.39012 4.60663 5.54012 4.40663C5.78012 4.06663 5.27012 3.70663 5.03012 4.02663Z" fill="#B41818"/>
<path d="M5.03012 1.95656C5.03012 1.95656 5.02012 1.97656 5.00012 1.99656C4.99012 1.97656 4.97012 1.95656 4.97012 1.95656C4.73012 1.63656 4.22012 1.99656 4.46012 2.33656C4.60012 2.53656 4.90012 2.55656 5.00012 2.88656C5.10012 2.55656 5.39012 2.53656 5.54012 2.33656C5.78012 1.99656 5.27012 1.63656 5.03012 1.95656Z" fill="#B41818"/>
<path d="M5.03012 8.98664C5.03012 8.98664 5.02012 8.96664 5.00012 8.94664C4.99012 8.96664 4.97012 8.98664 4.97012 8.98664C4.73012 9.30664 4.22012 8.94664 4.46012 8.60664C4.60012 8.40664 4.90012 8.38664 5.00012 8.05664C5.10012 8.38664 5.39012 8.40664 5.54012 8.60664C5.78012 8.94664 5.27012 9.30664 5.03012 8.98664Z" fill="#B41818"/>
<path d="M5.03012 6.91657C5.03012 6.91657 5.02012 6.89657 5.00012 6.87657C4.99012 6.89657 4.97012 6.91657 4.97012 6.91657C4.73012 7.23657 4.22012 6.87657 4.46012 6.53657C4.60012 6.33657 4.90012 6.31657 5.00012 5.98657C5.10012 6.31657 5.39012 6.33657 5.54012 6.53657C5.78012 6.87657 5.27012 7.23657 5.03012 6.91657Z" fill="#B41818"/>
<path d="M3.92026 5.19655C3.92026 5.19655 3.91026 5.21655 3.89026 5.23655C3.88026 5.21655 3.86026 5.19655 3.86026 5.19655C3.62026 4.87655 3.11026 5.23655 3.35026 5.57655C3.49026 5.77655 3.79026 5.79655 3.89026 6.12655C3.99026 5.79655 4.28026 5.77655 4.43026 5.57655C4.67026 5.23655 4.16026 4.87655 3.92026 5.19655Z" fill="#B41818"/>
</svg>
