<svg width="7" height="11" viewBox="0 0 7 11" fill="none" xmlns="http://www.w3.org/2000/svg">
<path d="M6.61977 10.1466H0.569763C0.399763 10.1466 0.259766 10.0066 0.259766 9.83664V1.11664C0.259766 0.946641 0.399763 0.806641 0.569763 0.806641H6.61977C6.78977 0.806641 6.92976 0.946641 6.92976 1.11664V9.83664C6.92976 10.0066 6.78977 10.1466 6.61977 10.1466ZM0.569763 0.826641C0.409763 0.826641 0.279762 0.956641 0.279762 1.11664V9.83664C0.279762 9.99664 0.409763 10.1266 0.569763 10.1266H6.61977C6.77977 10.1266 6.90977 9.99664 6.90977 9.83664V1.11664C6.90977 0.956641 6.77977 0.826641 6.61977 0.826641H0.569763Z" fill="#3D3D3D"/>
<path d="M6.61998 10.1666H0.569977C0.379977 10.1666 0.22998 10.0166 0.22998 9.8266V1.1066C0.22998 0.916602 0.379977 0.766602 0.569977 0.766602H6.61998C6.80998 0.766602 6.95998 0.916602 6.95998 1.1066V9.8266C6.95998 10.0166 6.80998 10.1666 6.61998 10.1666ZM0.569977 0.846602C0.419977 0.846602 0.309982 0.966602 0.309982 1.1066V9.8266C0.309982 9.9766 0.429977 10.0866 0.569977 10.0866H6.61998C6.76998 10.0866 6.87998 9.9666 6.87998 9.8266V1.1066C6.87998 0.956602 6.75998 0.846602 6.61998 0.846602H0.569977Z" fill="#3D3D3D"/>
<path d="M6.44 9.92661H0.740005C0.610005 9.92661 0.5 9.81661 0.5 9.68661V1.26661C0.5 1.13661 0.610005 1.02661 0.740005 1.02661H6.44C6.57 1.02661 6.68 1.13661 6.68 1.26661V9.68661C6.68 9.81661 6.57 9.92661 6.44 9.92661ZM0.740005 1.07661C0.630005 1.07661 0.550003 1.16661 0.550003 1.26661V9.68661C0.550003 9.79661 0.640005 9.87661 0.740005 9.87661H6.44C6.55 9.87661 6.63 9.78661 6.63 9.68661V1.26661C6.63 1.15661 6.54 1.07661 6.44 1.07661H0.740005Z" fill="#3D3D3D"/>
<path d="M6.91998 4.44658C6.91998 4.44658 6.84998 4.43658 6.82998 4.44658C6.81998 4.44658 6.80998 4.45658 6.79998 4.46658C6.77998 4.47658 6.75998 4.48658 6.72998 4.48658C6.74998 4.48658 6.76998 4.48658 6.77998 4.48658C6.79998 4.48658 6.80998 4.46658 6.82998 4.46658C6.84998 4.46658 6.86998 4.46658 6.87998 4.47658C6.87998 4.47658 6.87998 4.49658 6.89998 4.47658C6.89998 4.47658 6.89998 4.45658 6.89998 4.44658H6.91998Z" fill="#3D3D3D"/>
<path d="M5.5498 0.796631C5.5498 0.796631 5.6098 0.84663 5.6098 0.89663C5.6098 0.94663 5.58981 0.986631 5.58981 1.03663C5.61981 0.966631 5.6498 0.906631 5.6498 0.826631C5.6698 0.826631 5.6898 0.81663 5.7198 0.81663C5.6698 0.81663 5.6298 0.796631 5.5498 0.796631Z" fill="#3D3D3D"/>
<path d="M5.85986 0.81665C5.85986 0.81665 5.85986 0.896651 5.85986 0.926651C5.86986 0.916651 5.88986 0.856651 5.88986 0.836651C5.88986 0.826651 5.87986 0.81665 5.85986 0.81665Z" fill="#3D3D3D"/>
<path d="M2.60986 0.81665C2.60986 0.81665 2.66986 0.846651 2.67986 0.866651C2.68986 0.886651 2.67987 0.91665 2.69987 0.93665C2.70987 0.96665 2.74986 0.956651 2.77986 0.966651C2.80986 0.966651 2.82986 0.986651 2.85986 0.996651C2.85986 0.976651 2.83986 0.966651 2.81986 0.956651C2.80986 0.956651 2.79986 0.956651 2.78986 0.956651H2.74986C2.74986 0.956651 2.72987 0.896651 2.72987 0.886651C2.72987 0.866651 2.74987 0.856651 2.76987 0.846651C2.75987 0.826651 2.65987 0.846651 2.62987 0.846651L2.60986 0.81665Z" fill="#3D3D3D"/>
<path d="M2.97021 0.81665C2.97021 0.81665 2.98022 0.856651 2.99022 0.876651C2.99022 0.896651 2.99022 0.906651 3.01022 0.916651C3.01022 0.896651 3.01022 0.866651 3.01022 0.836651C3.01022 0.816651 3.01022 0.81665 2.98022 0.81665H2.97021Z" fill="#3D3D3D"/>
<path d="M0.270069 1.26657C0.270069 1.26657 0.330068 1.26657 0.370068 1.27657C0.390068 1.27657 0.370067 1.27657 0.400067 1.27657C0.420067 1.27657 0.43007 1.27657 0.45007 1.27657C0.43007 1.27657 0.41007 1.27657 0.38007 1.27657C0.34007 1.27657 0.350067 1.27657 0.330067 1.25657C0.320067 1.25657 0.300064 1.25657 0.280064 1.25657C0.270064 1.25657 0.280069 1.24657 0.270069 1.23657C0.260069 1.23657 0.270069 1.26657 0.270069 1.27657V1.26657Z" fill="#3D3D3D"/>
<path d="M0.270069 9.43649C0.270069 9.43649 0.330068 9.4365 0.370068 9.4465C0.390068 9.4465 0.370067 9.4465 0.400067 9.4465C0.420067 9.4465 0.43007 9.4465 0.45007 9.4465C0.43007 9.4465 0.41007 9.4465 0.38007 9.4465C0.34007 9.4465 0.350067 9.44649 0.330067 9.42649C0.320067 9.42649 0.300064 9.42649 0.280064 9.42649C0.270064 9.42649 0.280069 9.41649 0.270069 9.40649C0.260069 9.40649 0.270069 9.4365 0.270069 9.4465V9.43649Z" fill="#3D3D3D"/>
<path d="M0.280162 1.02666H0.360164C0.370164 1.00666 0.310168 1.01666 0.310168 0.996663C0.310168 0.986663 0.330163 0.966663 0.320163 0.956663C0.320163 0.926663 0.260167 0.986662 0.270167 1.01666L0.280162 1.02666Z" fill="#3D3D3D"/>
<path d="M4.14988 0.81665C4.14988 0.81665 4.14988 0.816651 4.15988 0.836651C4.15988 0.836651 4.15988 0.856651 4.15988 0.866651C4.15988 0.886651 4.15988 0.906651 4.15988 0.926651C4.15988 0.916651 4.15988 0.906651 4.15988 0.886651C4.15988 0.876651 4.15988 0.86665 4.16988 0.85665C4.16988 0.84665 4.16988 0.836651 4.16988 0.826651C4.16988 0.826651 4.16988 0.826651 4.14988 0.826651C4.14988 0.826651 4.13988 0.826651 4.12988 0.826651L4.14988 0.81665Z" fill="#3D3D3D"/>
<path d="M4.3999 10.1465C4.3999 10.1465 4.4599 10.0965 4.4599 10.0465C4.4599 9.99649 4.4399 9.95649 4.4399 9.90649C4.4699 9.97649 4.4999 10.0365 4.4999 10.1165C4.5199 10.1165 4.5399 10.1265 4.5699 10.1265C4.5199 10.1265 4.4799 10.1465 4.3999 10.1465Z" fill="#3D3D3D"/>
<path d="M0.25 8.90649C0.25 8.90649 0.300001 8.96649 0.360001 8.96649C0.410001 8.96649 0.45 8.9465 0.5 8.9465C0.43 8.9765 0.360001 9.00649 0.290001 9.00649C0.290001 9.02649 0.279999 9.04649 0.279999 9.07649C0.279999 9.02649 0.260002 8.98649 0.260002 8.90649H0.25Z" fill="#3D3D3D"/>
<path d="M4.70996 10.1266C4.70996 10.1266 4.70996 10.0466 4.70996 10.0166C4.71996 10.0266 4.73997 10.0866 4.73997 10.1066C4.73997 10.1166 4.72996 10.1266 4.70996 10.1266Z" fill="#3D3D3D"/>
<path d="M1.45996 10.1265C1.45996 10.1265 1.51996 10.0965 1.52996 10.0765C1.53996 10.0565 1.52996 10.0265 1.54996 10.0065C1.55996 9.97653 1.59997 9.98653 1.62997 9.97653C1.65997 9.97653 1.67996 9.95653 1.70996 9.94653C1.70996 9.96653 1.68997 9.97653 1.66997 9.98653C1.65997 9.98653 1.64996 9.98653 1.63996 9.98653H1.59996C1.59996 9.98653 1.57996 10.0465 1.57996 10.0565C1.57996 10.0765 1.59996 10.0865 1.61996 10.0965C1.60996 10.1165 1.50997 10.0965 1.47997 10.0965L1.45996 10.1265Z" fill="#3D3D3D"/>
<path d="M1.81982 10.1266C1.81982 10.1266 1.82983 10.0866 1.83983 10.0666C1.83983 10.0466 1.83983 10.0366 1.85983 10.0266C1.85983 10.0466 1.85983 10.0766 1.85983 10.1066C1.85983 10.1266 1.85983 10.1266 1.82983 10.1266H1.81982Z" fill="#3D3D3D"/>
<path d="M2.99998 10.1266C2.99998 10.1266 2.99998 10.1266 3.00998 10.1066C3.00998 10.1066 3.00998 10.0866 3.00998 10.0766C3.00998 10.0566 3.00998 10.0366 3.00998 10.0166C3.00998 10.0266 3.00998 10.0366 3.00998 10.0566C3.00998 10.0666 3.00998 10.0766 3.01998 10.0866C3.01998 10.0966 3.01998 10.0966 3.01998 10.1166C3.01998 10.1166 3.01998 10.1166 2.99998 10.1166C2.99998 10.1166 2.98998 10.1166 2.97998 10.1166L2.99998 10.1266Z" fill="#3D3D3D"/>
<path d="M6.9201 2.40649C6.8501 2.40649 6.7701 2.40649 6.7001 2.40649C6.6601 2.40649 6.6601 2.40649 6.6401 2.43649C6.6001 2.48649 6.5301 2.48649 6.4701 2.49649C6.4301 2.50649 6.3901 2.51649 6.3501 2.51649C6.3801 2.54649 6.4801 2.51649 6.5201 2.50649C6.5501 2.50649 6.5901 2.48649 6.6201 2.47649C6.6601 2.44649 6.6701 2.43649 6.7201 2.43649C6.7601 2.43649 6.7901 2.43649 6.8401 2.43649C6.8501 2.43649 6.8701 2.43649 6.8901 2.43649C6.9101 2.43649 6.9101 2.44649 6.9301 2.45649C6.9301 2.44649 6.9301 2.43649 6.9301 2.41649L6.9201 2.40649Z" fill="#3D3D3D"/>
<path d="M6.90974 7.60669C6.83974 7.60669 6.75974 7.60669 6.68974 7.60669C6.64974 7.60669 6.63974 7.63669 6.60974 7.65669C6.57974 7.67669 6.52975 7.68669 6.48975 7.68669C6.52975 7.68669 6.56974 7.68669 6.60974 7.67669C6.64974 7.64669 6.65974 7.63669 6.70974 7.63669C6.77974 7.62669 6.82974 7.63669 6.86974 7.70669C6.88974 7.74669 6.89974 7.75669 6.89974 7.79669C6.89974 7.76669 6.90975 7.73669 6.91975 7.70669C6.91975 7.67669 6.91975 7.64669 6.91975 7.61669L6.90974 7.60669Z" fill="#3D3D3D"/>
<path d="M6.90977 2.65649C6.90977 2.65649 6.79977 2.65649 6.75977 2.66649C6.78977 2.66649 6.80977 2.66649 6.83977 2.66649C6.84977 2.66649 6.85977 2.67649 6.87977 2.68649C6.90977 2.68649 6.92977 2.68649 6.91977 2.65649H6.90977Z" fill="#3D3D3D"/>
<path d="M6.91 2.21654C6.91 2.21654 6.78 2.29654 6.75 2.28654C6.78 2.25654 6.82 2.25654 6.85 2.23654C6.87 2.22654 6.89001 2.20654 6.92001 2.20654H6.91V2.21654Z" fill="#3D3D3D"/>
<path d="M0.25 3.4265C0.25 3.4265 0.290005 3.4565 0.310005 3.4665C0.330005 3.4765 0.380002 3.4765 0.400002 3.4765C0.490002 3.4765 0.550005 3.4565 0.630005 3.4365C0.570005 3.4865 0.510002 3.4965 0.440002 3.4965C0.380002 3.4965 0.28 3.4965 0.25 3.4165V3.4265Z" fill="#3D3D3D"/>
<path d="M0.269827 3.29659C0.269827 3.21659 0.399821 3.22659 0.459821 3.20659C0.419821 3.19659 0.349827 3.20659 0.309827 3.20659C0.229827 3.20659 0.259821 3.23659 0.279821 3.28659L0.269827 3.29659Z" fill="#3D3D3D"/>
<path d="M0.279785 6.88658C0.279785 6.81658 0.389787 6.84658 0.429787 6.84658C0.469787 6.84658 0.469792 6.82658 0.489792 6.79658C0.499792 6.77658 0.519785 6.75658 0.529785 6.74658C0.489785 6.77658 0.499785 6.84658 0.459785 6.86658C0.409785 6.89658 0.329787 6.84658 0.289787 6.89658C0.289787 6.89658 0.289787 6.87658 0.289787 6.88658H0.279785Z" fill="#3D3D3D"/>
<path d="M0.269868 5.34667C0.269868 5.34667 0.269868 5.38667 0.269868 5.39667C0.269868 5.39667 0.299866 5.42667 0.299866 5.43667C0.299866 5.46667 0.259865 5.47667 0.259865 5.50667C0.259865 5.46667 0.239865 5.37667 0.259865 5.33667L0.269868 5.34667Z" fill="#3D3D3D"/>
<path d="M0.279762 5.52661C0.279762 5.52661 0.319767 5.54661 0.339767 5.54661C0.369767 5.54661 0.369763 5.54661 0.389763 5.56661C0.429763 5.59661 0.439767 5.54661 0.479767 5.54661C0.459767 5.56661 0.439769 5.56661 0.419769 5.57661C0.389769 5.58661 0.389766 5.57661 0.369766 5.56661C0.359766 5.56661 0.319767 5.56661 0.299767 5.56661C0.279767 5.56661 0.279762 5.61661 0.279762 5.63661C0.279762 5.66661 0.309765 5.66661 0.329765 5.67661C0.319765 5.67661 0.289764 5.67661 0.289764 5.67661C0.289764 5.67661 0.289768 5.67661 0.269768 5.67661C0.269768 5.67661 0.259766 5.64661 0.259766 5.63661C0.259766 5.59661 0.259762 5.56661 0.279762 5.53661V5.52661Z" fill="#3D3D3D"/>
<path d="M0.269768 6.74652C0.269768 6.74652 0.349768 6.74652 0.379768 6.70652C0.369768 6.70652 0.349765 6.70652 0.329765 6.70652C0.299765 6.70652 0.279766 6.69652 0.259766 6.68652C0.259766 6.70652 0.259766 6.72652 0.259766 6.73652H0.269768C0.269768 6.73652 0.269768 6.74652 0.269768 6.75652V6.74652Z" fill="#3D3D3D"/>
<path d="M1.06006 2.96655C1.06006 2.96655 1.06006 2.96655 1.06006 2.97655C1.06006 2.97655 1.06005 2.97655 1.07005 2.96655H1.06006Z" fill="white"/>
<path d="M1.36988 1.37671V1.87671H1.43988V2.05671H1.36988C1.36988 2.05671 1.36988 2.12671 1.36988 2.13671C1.36988 2.13671 1.38988 2.14671 1.39988 2.14671H1.42988V2.24671H1.09988V2.14671H1.12988C1.12988 2.14671 1.15988 2.14671 1.15988 2.11671V2.05671H0.879883V1.86671C0.879883 1.86671 0.919878 1.79671 0.999878 1.66671C1.08988 1.51671 1.14988 1.41671 1.17988 1.37671H1.36988ZM1.17988 1.66671C1.17988 1.66671 1.12988 1.74671 1.04988 1.88671H1.18988V1.67671L1.17988 1.66671Z" fill="#B41818"/>
<path d="M5.79021 9.54651V9.04651H5.72021V8.86651H5.79021C5.79021 8.86651 5.79021 8.79651 5.79021 8.78651C5.79021 8.78651 5.77022 8.77651 5.76022 8.77651H5.73022V8.67651H6.06022V8.77651H6.03021C6.03021 8.77651 6.00021 8.77651 6.00021 8.80651V8.86651H6.28021V9.05651C6.28021 9.05651 6.24022 9.12651 6.16022 9.25651C6.07022 9.40651 6.01022 9.50651 5.98022 9.54651H5.79021ZM5.98022 9.26651C5.98022 9.26651 6.03021 9.18651 6.11021 9.04651H5.98022V9.25651V9.26651Z" fill="#B41818"/>
<path d="M1.24019 2.60655C1.24019 2.60655 1.24019 2.61655 1.22019 2.62655C1.22019 2.61655 1.20019 2.60655 1.20019 2.60655C1.06019 2.41655 0.740188 2.62655 0.890188 2.83655C0.980188 2.95655 1.16019 2.96655 1.22019 3.17655C1.28019 2.97655 1.46019 2.96655 1.55019 2.83655C1.70019 2.62655 1.39019 2.41655 1.24019 2.60655Z" fill="#B41818"/>
<path d="M5.95991 8.31658C5.95991 8.31658 5.95992 8.30658 5.93992 8.29658C5.93992 8.30658 5.91992 8.31658 5.91992 8.31658C5.77992 8.50658 5.45991 8.29658 5.60991 8.08658C5.69991 7.96658 5.87992 7.95658 5.93992 7.74658C5.99992 7.94658 6.17992 7.95658 6.26992 8.08658C6.41992 8.29658 6.10991 8.50658 5.95991 8.31658Z" fill="#B41818"/>
<path d="M2.53989 1.95656C2.53989 1.95656 2.52989 1.97656 2.50989 1.99656C2.49989 1.97656 2.47989 1.95656 2.47989 1.95656C2.23989 1.63656 1.72989 1.99656 1.96989 2.33656C2.10989 2.53656 2.40989 2.55656 2.50989 2.88656C2.60989 2.55656 2.89989 2.53656 3.04989 2.33656C3.28989 1.99656 2.77989 1.63656 2.53989 1.95656Z" fill="#B41818"/>
<path d="M2.53989 8.98664C2.53989 8.98664 2.52989 8.96664 2.50989 8.94664C2.49989 8.96664 2.47989 8.98664 2.47989 8.98664C2.23989 9.30664 1.72989 8.94664 1.96989 8.60664C2.10989 8.40664 2.40989 8.38664 2.50989 8.05664C2.60989 8.38664 2.89989 8.40664 3.04989 8.60664C3.28989 8.94664 2.77989 9.30664 2.53989 8.98664Z" fill="#B41818"/>
<path d="M4.68002 1.95656C4.68002 1.95656 4.67002 1.97656 4.65002 1.99656C4.64002 1.97656 4.62003 1.95656 4.62003 1.95656C4.38003 1.63656 3.87002 1.99656 4.11002 2.33656C4.25002 2.53656 4.55002 2.55656 4.65002 2.88656C4.75002 2.55656 5.04003 2.53656 5.19003 2.33656C5.43003 1.99656 4.92002 1.63656 4.68002 1.95656Z" fill="#B41818"/>
<path d="M4.68002 8.98664C4.68002 8.98664 4.67002 8.96664 4.65002 8.94664C4.64002 8.96664 4.62003 8.98664 4.62003 8.98664C4.38003 9.30664 3.87002 8.94664 4.11002 8.60664C4.25002 8.40664 4.55002 8.38664 4.65002 8.05664C4.75002 8.38664 5.04003 8.40664 5.19003 8.60664C5.43003 8.94664 4.92002 9.30664 4.68002 8.98664Z" fill="#B41818"/>
</svg>
