<svg width="8" height="11" viewBox="0 0 8 11" fill="none" xmlns="http://www.w3.org/2000/svg">
<path d="M7.31969 10.1666H1.26969C1.07969 10.1666 0.929688 10.0166 0.929688 9.8266V1.1066C0.929688 0.916602 1.07969 0.766602 1.26969 0.766602H7.31969C7.50969 0.766602 7.65969 0.916602 7.65969 1.1066V9.8266C7.65969 10.0166 7.50969 10.1666 7.31969 10.1666ZM1.26969 0.846602C1.11969 0.846602 1.00969 0.966602 1.00969 1.1066V9.8266C1.00969 9.9766 1.12969 10.0866 1.26969 10.0866H7.31969C7.46969 10.0866 7.57969 9.9666 7.57969 9.8266V1.1066C7.57969 0.956602 7.45969 0.846602 7.31969 0.846602H1.26969Z" fill="#3D3D3D"/>
<path d="M7.13971 9.92661H1.43971C1.30971 9.92661 1.19971 9.81661 1.19971 9.68661V1.26661C1.19971 1.13661 1.30971 1.02661 1.43971 1.02661H7.13971C7.26971 1.02661 7.37971 1.13661 7.37971 1.26661V9.68661C7.37971 9.81661 7.26971 9.92661 7.13971 9.92661ZM1.43971 1.07661C1.32971 1.07661 1.24971 1.16661 1.24971 1.26661V9.68661C1.24971 9.79661 1.33971 9.87661 1.43971 9.87661H7.13971C7.24971 9.87661 7.32971 9.78661 7.32971 9.68661V1.26661C7.32971 1.15661 7.23971 1.07661 7.13971 1.07661H1.43971Z" fill="#3D3D3D"/>
<path d="M7.61969 4.44658C7.61969 4.44658 7.54969 4.43658 7.52969 4.44658C7.51969 4.44658 7.50969 4.45658 7.49969 4.46658C7.47969 4.47658 7.45969 4.48658 7.42969 4.48658C7.44969 4.48658 7.46969 4.48658 7.47969 4.48658C7.49969 4.48658 7.50969 4.46658 7.52969 4.46658C7.54969 4.46658 7.56969 4.46658 7.57969 4.47658C7.57969 4.47658 7.57969 4.49658 7.59969 4.47658C7.59969 4.47658 7.59969 4.45658 7.59969 4.44658H7.61969Z" fill="#3D3D3D"/>
<path d="M6.24951 0.796631C6.24951 0.796631 6.30951 0.84663 6.30951 0.89663C6.30951 0.94663 6.28951 0.986631 6.28951 1.03663C6.31951 0.966631 6.34951 0.906631 6.34951 0.826631C6.36951 0.826631 6.38951 0.81663 6.41951 0.81663C6.36951 0.81663 6.32951 0.796631 6.24951 0.796631Z" fill="#3D3D3D"/>
<path d="M6.55957 0.81665C6.55957 0.81665 6.55957 0.896651 6.55957 0.926651C6.56957 0.916651 6.58957 0.856651 6.58957 0.836651C6.58957 0.826651 6.57957 0.81665 6.55957 0.81665Z" fill="#3D3D3D"/>
<path d="M3.30957 0.81665C3.30957 0.81665 3.36957 0.846651 3.37957 0.866651C3.38957 0.886651 3.37957 0.91665 3.39957 0.93665C3.40957 0.96665 3.44957 0.956651 3.47957 0.966651C3.50957 0.966651 3.52957 0.986651 3.55957 0.996651C3.55957 0.976651 3.53957 0.966651 3.51957 0.956651C3.50957 0.956651 3.49957 0.956651 3.48957 0.956651H3.44957C3.44957 0.956651 3.42957 0.896651 3.42957 0.886651C3.42957 0.866651 3.44957 0.856651 3.46957 0.846651C3.45957 0.826651 3.35957 0.846651 3.32957 0.846651L3.30957 0.81665Z" fill="#3D3D3D"/>
<path d="M3.66992 0.81665C3.66992 0.81665 3.67992 0.856651 3.68992 0.876651C3.68992 0.896651 3.68992 0.906651 3.70992 0.916651C3.70992 0.896651 3.70992 0.866651 3.70992 0.836651C3.70992 0.816651 3.70992 0.81665 3.67992 0.81665H3.66992Z" fill="#3D3D3D"/>
<path d="M0.969776 1.26657C0.969776 1.26657 1.02978 1.26657 1.06978 1.27657C1.08978 1.27657 1.06978 1.27657 1.09978 1.27657C1.11978 1.27657 1.12978 1.27657 1.14978 1.27657C1.12978 1.27657 1.10978 1.27657 1.07978 1.27657C1.03978 1.27657 1.04978 1.27657 1.02978 1.25657C1.01978 1.25657 0.999776 1.25657 0.979776 1.25657C0.969776 1.25657 0.979776 1.24657 0.969776 1.23657C0.959776 1.23657 0.969776 1.26657 0.969776 1.27657V1.26657Z" fill="#3D3D3D"/>
<path d="M0.969776 9.43649C0.969776 9.43649 1.02978 9.4365 1.06978 9.4465C1.08978 9.4465 1.06978 9.4465 1.09978 9.4465C1.11978 9.4465 1.12978 9.4465 1.14978 9.4465C1.12978 9.4465 1.10978 9.4465 1.07978 9.4465C1.03978 9.4465 1.04978 9.44649 1.02978 9.42649C1.01978 9.42649 0.999776 9.42649 0.979776 9.42649C0.969776 9.42649 0.979776 9.41649 0.969776 9.40649C0.959776 9.40649 0.969776 9.4365 0.969776 9.4465V9.43649Z" fill="#3D3D3D"/>
<path d="M0.979874 1.02666H1.05987C1.06987 1.00666 1.00987 1.01666 1.00987 0.996663C1.00987 0.986663 1.02987 0.966663 1.01987 0.956663C1.01987 0.926663 0.959874 0.986662 0.969874 1.01666H0.979874V1.02666Z" fill="#3D3D3D"/>
<path d="M4.84959 0.81665C4.84959 0.81665 4.84959 0.816651 4.85959 0.836651C4.85959 0.836651 4.85959 0.856651 4.85959 0.866651C4.85959 0.886651 4.85959 0.906651 4.85959 0.926651C4.85959 0.916651 4.85959 0.906651 4.85959 0.886651C4.85959 0.876651 4.85959 0.86665 4.86959 0.85665C4.86959 0.84665 4.86959 0.836651 4.86959 0.826651C4.86959 0.826651 4.86959 0.826651 4.84959 0.826651C4.84959 0.826651 4.83959 0.826651 4.82959 0.826651L4.84959 0.81665Z" fill="#3D3D3D"/>
<path d="M5.09961 10.1465C5.09961 10.1465 5.15961 10.0965 5.15961 10.0465C5.15961 9.99649 5.13961 9.95649 5.13961 9.90649C5.16961 9.97649 5.19961 10.0365 5.19961 10.1165C5.21961 10.1165 5.23961 10.1265 5.26961 10.1265C5.21961 10.1265 5.17961 10.1465 5.09961 10.1465Z" fill="#3D3D3D"/>
<path d="M0.949707 8.90649C0.949707 8.90649 0.999707 8.96649 1.04971 8.96649C1.09971 8.96649 1.13971 8.9465 1.18971 8.9465C1.11971 8.9765 1.04971 9.00649 0.979707 9.00649C0.979707 9.02649 0.969707 9.04649 0.969707 9.07649C0.969707 9.02649 0.949707 8.98649 0.949707 8.90649Z" fill="#3D3D3D"/>
<path d="M5.40967 10.1266C5.40967 10.1266 5.40967 10.0466 5.40967 10.0166C5.41967 10.0266 5.43967 10.0866 5.43967 10.1066C5.43967 10.1166 5.42967 10.1266 5.40967 10.1266Z" fill="#3D3D3D"/>
<path d="M2.15967 10.1265C2.15967 10.1265 2.21967 10.0965 2.22967 10.0765C2.23967 10.0565 2.22967 10.0265 2.24967 10.0065C2.25967 9.97653 2.29967 9.98653 2.32967 9.97653C2.35967 9.97653 2.37967 9.95653 2.40967 9.94653C2.40967 9.96653 2.38967 9.97653 2.36967 9.98653C2.35967 9.98653 2.34967 9.98653 2.33967 9.98653H2.29967C2.29967 9.98653 2.27967 10.0465 2.27967 10.0565C2.27967 10.0765 2.29967 10.0865 2.31967 10.0965C2.30967 10.1165 2.20967 10.0965 2.17967 10.0965L2.15967 10.1265Z" fill="#3D3D3D"/>
<path d="M2.51953 10.1266C2.51953 10.1266 2.52953 10.0866 2.53953 10.0666C2.53953 10.0466 2.53953 10.0366 2.55953 10.0266C2.55953 10.0466 2.55953 10.0766 2.55953 10.1066C2.55953 10.1266 2.55953 10.1266 2.52953 10.1266H2.51953Z" fill="#3D3D3D"/>
<path d="M3.69969 10.1266C3.69969 10.1266 3.69969 10.1266 3.70969 10.1066C3.70969 10.1066 3.70969 10.0866 3.70969 10.0766C3.70969 10.0566 3.70969 10.0366 3.70969 10.0166C3.70969 10.0266 3.70969 10.0366 3.70969 10.0566C3.70969 10.0666 3.70969 10.0766 3.71969 10.0866C3.71969 10.0966 3.71969 10.0966 3.71969 10.1166C3.71969 10.1166 3.71969 10.1166 3.69969 10.1166C3.69969 10.1166 3.68969 10.1166 3.67969 10.1166L3.69969 10.1266Z" fill="#3D3D3D"/>
<path d="M7.6198 2.40649C7.5498 2.40649 7.4698 2.40649 7.3998 2.40649C7.3598 2.40649 7.3598 2.40649 7.3398 2.43649C7.2998 2.48649 7.2298 2.48649 7.1698 2.49649C7.1298 2.50649 7.0898 2.51649 7.0498 2.51649C7.0798 2.54649 7.1798 2.51649 7.2198 2.50649C7.2498 2.50649 7.2898 2.48649 7.3198 2.47649C7.3598 2.44649 7.3698 2.43649 7.4198 2.43649C7.4598 2.43649 7.4898 2.43649 7.5398 2.43649C7.5498 2.43649 7.5698 2.43649 7.5898 2.43649C7.6098 2.43649 7.6098 2.44649 7.6298 2.45649C7.6298 2.44649 7.6298 2.43649 7.6298 2.41649L7.6198 2.40649Z" fill="#3D3D3D"/>
<path d="M7.61971 7.60669C7.54971 7.60669 7.46971 7.60669 7.39971 7.60669C7.35971 7.60669 7.34971 7.63669 7.31971 7.65669C7.28971 7.67669 7.23971 7.68669 7.19971 7.68669C7.23971 7.68669 7.27971 7.68669 7.31971 7.67669C7.35971 7.64669 7.36971 7.63669 7.41971 7.63669C7.48971 7.62669 7.53971 7.63669 7.57971 7.70669C7.59971 7.74669 7.60971 7.75669 7.60971 7.79669C7.60971 7.76669 7.61971 7.73669 7.62971 7.70669C7.62971 7.67669 7.62971 7.64669 7.62971 7.61669L7.61971 7.60669Z" fill="#3D3D3D"/>
<path d="M7.60947 2.65649C7.60947 2.65649 7.49947 2.65649 7.45947 2.66649C7.48947 2.66649 7.50947 2.66649 7.53947 2.66649C7.54947 2.66649 7.55947 2.67649 7.57947 2.68649C7.60947 2.68649 7.62947 2.68649 7.61947 2.65649H7.60947Z" fill="#3D3D3D"/>
<path d="M7.61947 2.21654C7.61947 2.21654 7.48947 2.29654 7.45947 2.28654C7.48947 2.25654 7.52947 2.25654 7.55947 2.23654C7.57947 2.22654 7.59947 2.20654 7.62947 2.20654H7.61947V2.21654Z" fill="#3D3D3D"/>
<path d="M0.949707 3.4265C0.949707 3.4265 0.989707 3.4565 1.00971 3.4665C1.02971 3.4765 1.07971 3.4765 1.09971 3.4765C1.18971 3.4765 1.24971 3.4565 1.32971 3.4365C1.26971 3.4865 1.20971 3.4965 1.13971 3.4965C1.07971 3.4965 0.979707 3.4965 0.949707 3.4165V3.4265Z" fill="#3D3D3D"/>
<path d="M0.969531 3.29659C0.969531 3.21659 1.09953 3.22659 1.15953 3.20659C1.11953 3.19659 1.04953 3.20659 1.00953 3.20659C0.929531 3.20659 0.959531 3.23659 0.979531 3.28659L0.969531 3.29659Z" fill="#3D3D3D"/>
<path d="M0.979492 6.88658C0.979492 6.81658 1.08949 6.84658 1.12949 6.84658C1.16949 6.84658 1.16949 6.82658 1.18949 6.79658C1.19949 6.77658 1.21949 6.75658 1.22949 6.74658C1.18949 6.77658 1.19949 6.84658 1.15949 6.86658C1.10949 6.89658 1.02949 6.84658 0.989492 6.89658C0.989492 6.89658 0.989492 6.87658 0.989492 6.88658H0.979492Z" fill="#3D3D3D"/>
<path d="M0.979826 5.34667C0.979826 5.34667 0.979826 5.38667 0.979826 5.39667C0.979826 5.39667 1.00983 5.42667 1.00983 5.43667C1.00983 5.46667 0.969826 5.47667 0.969826 5.50667C0.969826 5.46667 0.949826 5.37667 0.969826 5.33667L0.979826 5.34667Z" fill="#3D3D3D"/>
<path d="M0.979473 5.52661C0.979473 5.52661 1.01947 5.54661 1.03947 5.54661C1.06947 5.54661 1.06947 5.54661 1.08947 5.56661C1.12947 5.59661 1.13947 5.54661 1.17947 5.54661C1.15947 5.56661 1.13947 5.56661 1.11947 5.57661C1.08947 5.58661 1.08947 5.57661 1.06947 5.56661C1.05947 5.56661 1.01947 5.56661 0.999473 5.56661C0.979473 5.56661 0.979473 5.61661 0.979473 5.63661C0.979473 5.66661 1.00947 5.66661 1.02947 5.67661C1.01947 5.67661 0.989473 5.67661 0.989473 5.67661C0.989473 5.67661 0.989473 5.67661 0.969473 5.67661C0.969473 5.67661 0.959473 5.64661 0.959473 5.63661C0.959473 5.59661 0.959473 5.56661 0.979473 5.53661V5.52661Z" fill="#3D3D3D"/>
<path d="M0.969727 6.74652C0.969727 6.74652 1.04973 6.74652 1.07973 6.70652C1.06973 6.70652 1.04973 6.70652 1.03973 6.70652C1.00973 6.70652 0.989727 6.69652 0.969727 6.68652C0.969727 6.70652 0.969727 6.72652 0.969727 6.73652H0.979727C0.979727 6.73652 0.979727 6.74652 0.979727 6.75652L0.969727 6.74652Z" fill="#3D3D3D"/>
<path d="M1.75977 2.96655C1.75977 2.96655 1.75977 2.96655 1.75977 2.97655C1.75977 2.97655 1.75977 2.97655 1.76977 2.96655H1.75977Z" fill="white"/>
<path d="M1.68982 1.37671H2.15982V1.48671H2.11982C2.11982 1.48671 2.09982 1.48671 2.09982 1.50671C2.11982 1.63671 2.13982 1.70671 2.13982 1.71671C2.13982 1.73671 2.15982 1.75671 2.16982 1.76671C2.16982 1.76671 2.17982 1.77671 2.19982 1.78671C2.20982 1.78671 2.21982 1.78671 2.22982 1.78671C2.22982 1.78671 2.20982 1.79671 2.19982 1.80671C2.18982 1.82671 2.17982 1.83671 2.17982 1.85671C2.17982 1.85671 2.17982 1.87671 2.17982 1.89671C2.19982 2.01671 2.20982 2.08671 2.21982 2.10671C2.21982 2.12671 2.21982 2.13671 2.22982 2.13671C2.22982 2.13671 2.24982 2.13671 2.25982 2.13671H2.26982V2.23671H1.95982V2.13671H1.96982C1.96982 2.13671 1.99982 2.13671 2.00982 2.13671C2.00982 2.13671 2.00982 2.12671 2.00982 2.11671C2.00982 2.09671 2.00982 2.07671 1.99982 2.03671H1.80982L1.79982 2.09671C1.79982 2.09671 1.79982 2.13671 1.81982 2.13671C1.81982 2.13671 1.81982 2.13671 1.83982 2.13671V2.23671H1.56982V2.13671H1.57982C1.57982 2.13671 1.60982 2.13671 1.61982 2.11671C1.61982 2.09671 1.63982 2.05671 1.64982 1.98671L1.66982 1.87671C1.66982 1.87671 1.66982 1.82671 1.64982 1.80671C1.64982 1.80671 1.63982 1.79671 1.62982 1.78671C1.62982 1.78671 1.62982 1.78671 1.63982 1.78671C1.65982 1.78671 1.66982 1.77671 1.67982 1.76671C1.68982 1.75671 1.69982 1.73671 1.71982 1.69671C1.73982 1.57671 1.75982 1.51671 1.75982 1.50671C1.75982 1.48671 1.75982 1.48671 1.73982 1.48671H1.69982V1.37671H1.68982ZM1.89982 1.56671C1.86982 1.72671 1.84982 1.82671 1.83982 1.85671C1.85982 1.85671 1.87982 1.85671 1.88982 1.85671H1.95982L1.90982 1.56671H1.89982Z" fill="#B41818"/>
<path d="M6.86955 9.54652H6.39955V9.43652H6.43955C6.43955 9.43652 6.45955 9.43652 6.45955 9.41652C6.43955 9.28652 6.41955 9.21652 6.41955 9.20652C6.41955 9.18652 6.39955 9.16652 6.38955 9.15652C6.38955 9.15652 6.37955 9.14652 6.35955 9.13652C6.34955 9.13652 6.33955 9.13652 6.32955 9.13652C6.32955 9.13652 6.34955 9.12652 6.35955 9.11652C6.36955 9.09652 6.37955 9.08652 6.37955 9.06652C6.37955 9.06652 6.37955 9.04652 6.37955 9.02652C6.35955 8.90652 6.34955 8.83652 6.33955 8.81652C6.33955 8.79652 6.33955 8.78652 6.32955 8.78652C6.32955 8.78652 6.30955 8.78652 6.29955 8.78652H6.28955V8.68652H6.59955V8.78652H6.58955C6.58955 8.78652 6.55955 8.78652 6.54955 8.78652C6.54955 8.78652 6.54955 8.78652 6.54955 8.80652C6.54955 8.82652 6.54955 8.84652 6.55955 8.88652H6.74955L6.75955 8.82652C6.75955 8.82652 6.75955 8.78652 6.73955 8.78652C6.73955 8.78652 6.73955 8.78652 6.71955 8.78652V8.68652H6.98955V8.78652H6.97955C6.97955 8.78652 6.94955 8.78652 6.93955 8.80652C6.93955 8.82652 6.91955 8.86652 6.90955 8.93652L6.88955 9.04652C6.88955 9.04652 6.88955 9.09652 6.90955 9.11652C6.90955 9.11652 6.91955 9.12652 6.92955 9.13652C6.92955 9.13652 6.92955 9.13652 6.91955 9.13652C6.89955 9.13652 6.88955 9.14652 6.87955 9.15652C6.86955 9.16652 6.85955 9.18652 6.83955 9.22652C6.81955 9.34652 6.79955 9.40652 6.79955 9.41652C6.79955 9.43652 6.79955 9.43652 6.81955 9.43652H6.85955V9.54652H6.86955ZM6.65955 9.35652C6.68955 9.19652 6.70955 9.09652 6.71955 9.06652C6.69955 9.06652 6.67955 9.06652 6.66955 9.06652H6.59955L6.64955 9.35652H6.65955Z" fill="#B41818"/>
<path d="M1.93975 2.60655C1.93975 2.60655 1.93975 2.61655 1.91975 2.62655C1.91975 2.61655 1.89975 2.60655 1.89975 2.60655C1.74975 2.41655 1.43975 2.62655 1.58975 2.83655C1.67975 2.95655 1.85975 2.96655 1.91975 3.17655C1.97975 2.97655 2.15975 2.96655 2.24975 2.83655C2.39975 2.62655 2.08975 2.41655 1.93975 2.60655Z" fill="#B41818"/>
<path d="M6.65962 8.31658C6.65962 8.31658 6.65962 8.30658 6.63962 8.29658C6.63962 8.30658 6.61962 8.31658 6.61962 8.31658C6.47962 8.50658 6.15962 8.29658 6.30962 8.08658C6.39962 7.96658 6.57962 7.95658 6.63962 7.74658C6.69962 7.94658 6.87962 7.95658 6.96962 8.08658C7.11962 8.29658 6.80962 8.50658 6.65962 8.31658Z" fill="#B41818"/>
<path d="M5.38979 4.50666C5.38979 4.50666 5.39979 4.47666 5.39979 4.45666C5.39979 4.21666 5.27979 4.01666 5.11979 3.87666L4.89979 3.38666C4.89979 3.38666 4.84979 3.32666 4.80979 3.32666H3.54979C3.54979 3.32666 3.51979 3.32666 3.50979 3.34666C3.48979 3.34666 3.46979 3.32666 3.43979 3.32666C3.36979 3.32666 3.30979 3.34666 3.26979 3.38666C3.22979 3.42666 3.20979 3.48666 3.20979 3.55666C3.20979 3.75666 3.34979 3.84666 3.43979 3.85666L3.47979 3.88666V4.56666C3.47979 4.56666 3.45979 4.57666 3.45979 4.58666L3.28979 5.14666C3.16979 5.18666 3.06979 5.22666 3.06979 5.22666C3.06979 5.22666 3.05979 5.22666 3.04979 5.24666L2.95979 5.53666L2.90979 5.68666H2.92979V5.69666L2.95979 5.72666L2.82979 5.82666C2.82979 5.82666 2.81979 5.83666 2.81979 5.84666L2.79979 6.12666V6.15666L2.77979 6.34666V6.36666L2.85979 6.43666L2.78979 6.49666C2.78979 6.49666 2.78979 6.51666 2.78979 6.52666L2.89979 6.97666C2.89979 6.97666 2.89979 6.99666 2.91979 6.99666C2.91979 6.99666 2.93979 6.99666 2.96979 7.01666H3.00979L2.94979 7.11666C2.94979 7.11666 2.94979 7.13666 2.94979 7.14666L3.10979 7.52666C3.10979 7.52666 3.10979 7.53666 3.11979 7.53666C3.11979 7.53666 3.16979 7.54666 3.18979 7.55666L3.14979 7.63666C3.14979 7.63666 3.14979 7.65666 3.14979 7.66666C3.14979 7.66666 3.35979 7.94666 3.43979 8.02666C3.43979 8.02666 3.43979 8.02666 3.44979 8.02666L3.60979 8.08666C3.60979 8.08666 3.65979 8.13666 3.72979 8.17666C3.86979 8.24666 4.04979 8.23666 4.06979 8.23666C4.06979 8.23666 4.07979 8.23666 4.09979 8.23666C4.15979 8.23666 4.28979 8.23666 4.40979 8.17666C4.40979 8.17666 4.42979 8.16666 4.43979 8.15666C4.48979 8.12666 4.51979 8.09666 4.52979 8.08666L4.68979 8.02666C4.68979 8.02666 4.68979 8.02666 4.69979 8.02666C4.77979 7.94666 4.98978 7.67666 4.99978 7.66666C4.99978 7.66666 4.99978 7.64666 4.99978 7.63666L4.94979 7.55666C4.94979 7.55666 4.99978 7.54666 5.01978 7.53666C5.01978 7.53666 5.02979 7.53666 5.02979 7.52666L5.20978 7.14666C5.20978 7.14666 5.20978 7.12666 5.20978 7.11666L5.14979 7.03666C5.19979 7.02666 5.22978 7.01666 5.22978 7.01666C5.22978 7.01666 5.23978 7.00666 5.24978 6.99666L5.35979 6.53666C5.35979 6.53666 5.35979 6.51666 5.35979 6.50666L5.28978 6.44666L5.37979 6.37666V6.35666L5.33979 5.84666C5.33979 5.84666 5.33978 5.82666 5.32978 5.82666L5.19979 5.72666L5.23979 5.69666H5.25979V5.66666V5.62666L5.21979 5.53666L5.12979 5.24666C5.12979 5.24666 5.12979 5.23666 5.10979 5.22666C5.10979 5.22666 5.00979 5.18666 4.89979 5.15666C4.99979 5.12666 5.08979 5.07666 5.16979 5.00666C5.29979 5.32666 5.44978 5.74666 5.47978 6.07666C5.47978 6.07666 5.47979 6.09666 5.48979 6.09666L5.52979 6.12666C5.54979 6.21666 5.63978 6.90666 5.18979 7.62666C5.18979 7.62666 5.18979 7.63666 5.18979 7.64666V7.77666C5.18979 7.77666 5.20979 7.79666 5.21979 7.80666L5.27979 7.82666C5.27979 7.82666 5.27978 7.82666 5.28978 7.82666H5.30978C5.31978 7.81666 5.58978 7.50666 5.72978 6.92666C5.85978 6.40666 5.89979 5.56666 5.39979 4.50666H5.38979ZM3.42979 3.71666C3.42979 3.71666 3.33979 3.69666 3.30979 3.66666C3.28979 3.63666 3.26979 3.60666 3.26979 3.55666C3.26979 3.50666 3.27979 3.46666 3.30979 3.43666C3.33979 3.40666 3.37979 3.39666 3.41979 3.39666C3.41979 3.39666 3.43979 3.39666 3.44979 3.39666C3.44979 3.39666 3.44979 3.39666 3.45979 3.39666C3.47979 3.39666 3.49979 3.40666 3.49979 3.42666C3.49979 3.44666 3.49979 3.45666 3.45979 3.45666C3.45979 3.45666 3.45979 3.45666 3.44979 3.45666C3.39979 3.45666 3.35979 3.49666 3.35979 3.54666C3.35979 3.59666 3.39979 3.63666 3.44979 3.63666C3.49979 3.63666 3.54979 3.59666 3.54979 3.54666V3.41666C3.54979 3.41666 3.54979 3.39666 3.54979 3.38666H4.80979C4.80979 3.38666 4.83979 3.38666 4.84979 3.40666L5.02979 3.81666C5.02979 3.81666 4.99979 3.79666 4.98979 3.78666L4.82979 3.44666C4.82979 3.44666 4.78979 3.40666 4.76979 3.40666H3.61979C3.61979 3.40666 3.58979 3.41666 3.58979 3.43666V3.55666C3.58979 3.64666 3.51979 3.70666 3.42979 3.70666V3.71666ZM3.40979 3.58666C3.40979 3.58666 3.37979 3.55666 3.37979 3.53666C3.37979 3.50666 3.40979 3.47666 3.43979 3.47666C3.45979 3.47666 3.47979 3.48666 3.48979 3.50666C3.47979 3.50666 3.46979 3.49666 3.44979 3.49666C3.41979 3.49666 3.38979 3.52666 3.38979 3.55666C3.38979 3.56666 3.38979 3.57666 3.38979 3.58666H3.40979ZM5.11979 4.43666H4.90979H4.48979H4.46979C4.46979 4.43666 4.41979 4.42666 4.38979 4.41666C4.38979 4.40666 4.38979 4.39666 4.37979 4.38666C4.41979 4.38666 4.44979 4.38666 4.48979 4.38666H4.90979H5.11979H5.20978C5.20978 4.38666 5.20978 4.41666 5.20978 4.42666H5.10979L5.11979 4.43666ZM5.19979 4.53666C5.19979 4.59666 5.17979 4.64666 5.15979 4.69666C5.12979 4.63666 5.09978 4.57666 5.07978 4.54666L5.18979 4.51666C5.18979 4.51666 5.18979 4.53666 5.19979 4.54666V4.53666ZM4.45979 4.97666C4.26979 4.90666 4.13979 4.74666 4.09979 4.54666C4.42979 4.54666 4.63979 4.63666 4.65979 4.71666L4.74979 4.99666C4.74979 4.99666 4.72979 4.99666 4.71979 4.99666L4.62979 4.70666C4.62979 4.70666 4.50979 4.62666 4.38979 4.60666C4.41979 4.67666 4.45979 4.80666 4.45979 4.97666ZM4.66979 4.02666C4.66979 4.02666 4.67979 4.00666 4.68979 4.00666L4.76979 4.08666C4.76979 4.13666 4.72979 4.18666 4.66979 4.18666H4.27979C4.27979 4.18666 4.23979 4.13666 4.20979 4.11666C4.29979 3.99666 4.42979 3.92666 4.58979 3.90666V3.94666C4.58979 3.94666 4.62979 4.02666 4.66979 4.02666ZM3.66979 3.88666C3.69979 3.80666 3.76979 3.75666 3.85979 3.75666H4.35979C4.21979 3.81666 4.11979 3.91666 4.03979 4.04666C3.97979 4.06666 3.92979 4.09666 3.87979 4.17666C3.79979 4.17666 3.71979 4.12666 3.68979 4.04666C3.68979 4.15666 3.68979 4.27666 3.68979 4.38666H3.78979C3.78979 4.38666 3.78979 4.40666 3.77979 4.41666C3.74979 4.41666 3.71979 4.42666 3.68979 4.43666H3.64979V4.41666C3.64979 4.25666 3.64979 4.09666 3.64979 3.93666C3.64979 3.77666 3.64979 3.61666 3.64979 3.45666V3.43666H3.66979H3.75979H3.77979V3.45666V3.48666C3.77979 3.48666 3.77979 3.49666 3.78979 3.50666C3.78979 3.50666 3.79979 3.50666 3.80979 3.50666C3.80979 3.50666 3.80979 3.50666 3.82979 3.50666H3.84979C3.84979 3.50666 3.94979 3.50666 3.99979 3.50666H4.28979H4.57979H4.64979H4.66979H4.68979H4.70979C4.70979 3.50666 4.71979 3.49666 4.71979 3.48666C4.71979 3.48666 4.71979 3.48666 4.71979 3.47666C4.71979 3.47666 4.71979 3.45666 4.72979 3.45666C4.72979 3.45666 4.73979 3.44666 4.74979 3.44666H4.76979C4.77979 3.44666 4.78979 3.44666 4.80979 3.44666C4.79979 3.44666 4.78979 3.44666 4.76979 3.44666C4.76979 3.44666 4.76979 3.44666 4.75979 3.44666C4.75979 3.44666 4.75979 3.45666 4.75979 3.46666C4.75979 3.48666 4.74979 3.49666 4.73979 3.50666C4.72979 3.51666 4.70979 3.52666 4.69979 3.52666C4.69979 3.52666 4.68979 3.52666 4.67979 3.52666H4.65979H4.58979H4.29979H4.00979C3.95979 3.52666 3.90979 3.52666 3.85979 3.52666H3.83979C3.83979 3.52666 3.82979 3.52666 3.81979 3.52666C3.79979 3.52666 3.78979 3.52666 3.77979 3.50666C3.76979 3.49666 3.75979 3.47666 3.75979 3.46666C3.75979 3.46666 3.75979 3.45666 3.75979 3.44666H3.70979C3.70979 3.57666 3.70979 3.71666 3.70979 3.85666L3.66979 3.88666ZM3.79979 4.50666C3.68979 4.52666 3.58979 4.54666 3.52979 4.58666C3.55979 4.53666 3.65979 4.47666 3.83979 4.45666C3.86979 4.45666 3.88979 4.45666 3.88979 4.46666C3.88979 4.48666 3.85979 4.49666 3.79979 4.50666ZM3.81979 4.40666C3.85979 4.29666 3.90979 4.21666 3.95979 4.15666C3.92979 4.22666 3.91979 4.30666 3.90979 4.39666C3.87979 4.39666 3.84979 4.39666 3.81979 4.39666V4.40666ZM4.62979 3.69666C4.62979 3.69666 4.64979 3.64666 4.67979 3.64666C4.70979 3.64666 4.72979 3.66666 4.72979 3.69666V3.93666C4.72979 3.93666 4.70979 3.98666 4.67979 3.98666C4.64979 3.98666 4.62979 3.96666 4.62979 3.93666V3.69666ZM4.32979 4.40666C4.25979 4.39666 4.17979 4.38666 4.09979 4.38666C4.09979 4.38666 4.09979 4.36666 4.09979 4.35666C4.09979 4.35666 4.09979 4.35666 4.10979 4.35666C4.12979 4.35666 4.13979 4.34666 4.13979 4.32666C4.13979 4.26666 4.15979 4.17666 4.17979 4.14666C4.22979 4.19666 4.27979 4.27666 4.31979 4.39666L4.32979 4.40666ZM4.37979 4.47666C4.37979 4.47666 4.39979 4.52666 4.34979 4.50666C4.34979 4.50666 4.24979 4.49666 4.19979 4.49666C4.15979 4.49666 4.09979 4.49666 4.09979 4.46666C4.09979 4.45666 4.11979 4.45666 4.13979 4.44666C4.22979 4.44666 4.30979 4.45666 4.37979 4.47666ZM4.68979 4.59666H4.96979C4.98979 4.64666 5.02979 4.72666 5.06979 4.81666C4.99979 4.89666 4.90979 4.94666 4.80979 4.97666L4.68979 4.58666V4.59666ZM5.13979 4.35666L4.72979 3.96666C4.72979 3.96666 4.74979 3.95666 4.74979 3.93666L5.14979 4.31666H5.17979C5.17979 4.31666 5.17979 4.34666 5.17979 4.35666H5.11979H5.13979ZM4.74979 3.65666C4.74979 3.65666 4.73979 3.63666 4.73979 3.61666C4.73979 3.60666 4.73979 3.59666 4.73979 3.57666V3.55666H4.75979C4.75979 3.55666 4.77979 3.55666 4.78979 3.55666C4.78979 3.55666 4.80979 3.55666 4.80979 3.54666C4.80979 3.54666 4.81979 3.52666 4.81979 3.51666C4.81979 3.50666 4.81979 3.49666 4.81979 3.48666C4.81979 3.49666 4.81979 3.50666 4.81979 3.52666C4.81979 3.53666 4.81979 3.55666 4.80979 3.56666C4.80979 3.57666 4.78979 3.58666 4.77979 3.59666H4.75979C4.75979 3.59666 4.75979 3.60666 4.75979 3.61666C4.75979 3.62666 4.75979 3.63666 4.74979 3.65666ZM3.44979 3.74666C3.50979 3.74666 3.55979 3.70666 3.58979 3.66666V4.42666C3.58979 4.42666 3.58979 4.44666 3.56979 4.44666C3.54979 4.44666 3.53979 4.43666 3.53979 4.42666V3.83666C3.53979 3.83666 3.47979 3.77666 3.44979 3.75666V3.74666ZM3.47979 4.70666C3.49979 4.63666 3.65979 4.56666 3.90979 4.54666C3.93979 4.75666 4.04979 4.92666 4.20979 5.04666C4.12979 5.04666 4.06979 5.04666 4.05979 5.04666C4.05979 5.04666 3.87979 5.04666 3.71979 5.05666L3.79979 4.58666C3.79979 4.58666 3.75979 4.58666 3.73979 4.59666L3.64979 5.05666C3.64979 5.05666 3.59979 5.05666 3.57979 5.05666L3.68979 4.59666C3.60979 4.61666 3.54979 4.64666 3.51979 4.67666C3.46979 4.83666 3.39979 5.07666 3.39979 5.08666C3.37979 5.08666 3.36979 5.09666 3.34979 5.10666L3.47979 4.68666V4.70666ZM4.30979 5.11666C4.30979 5.11666 4.32979 5.12666 4.33979 5.13666L4.31979 5.17666C4.17979 5.17666 4.07979 5.17666 4.07979 5.17666C4.07979 5.17666 3.96979 5.17666 3.81979 5.17666L3.78979 5.12666C3.92979 5.12666 4.07979 5.11666 4.07979 5.11666C4.07979 5.11666 4.18979 5.11666 4.31979 5.11666H4.30979ZM4.56979 6.99666L4.72979 7.01666L4.75979 6.61666L5.11979 6.58666L4.78979 6.65666L4.75979 7.02666C4.75979 7.02666 4.83979 7.02666 4.88979 7.02666C4.94979 7.02666 5.00979 7.02666 5.06979 7.02666C5.00979 7.03666 4.94979 7.04666 4.88979 7.04666C4.82979 7.04666 4.76979 7.05666 4.71979 7.06666L4.55979 7.00666L4.39979 7.06666C4.29979 7.06666 4.19979 7.06666 4.06979 7.06666C3.92979 7.06666 3.82979 7.06666 3.71979 7.06666V6.65666C3.81979 6.65666 3.93979 6.65666 4.06979 6.65666C4.18979 6.65666 4.29979 6.65666 4.40979 6.65666V7.03666L4.56979 7.01666V6.99666ZM4.56979 6.99666C4.56979 6.91666 4.56979 6.83666 4.56979 6.75666C4.56979 6.67666 4.56979 6.59666 4.58979 6.52666C4.58979 6.60666 4.58979 6.68666 4.58979 6.76666C4.58979 6.84666 4.58979 6.92666 4.56979 6.99666ZM4.13979 7.60666H4.06979C4.06979 7.60666 3.92979 7.60666 3.76979 7.60666L3.74979 7.30666C3.84979 7.30666 3.95979 7.31666 4.07979 7.31666C4.18979 7.31666 4.29979 7.31666 4.38979 7.30666V7.38666C4.38979 7.38666 4.34979 7.36666 4.33979 7.38666C4.25979 7.48666 4.18979 7.53666 4.13979 7.56666C4.11979 7.57666 4.13979 7.59666 4.13979 7.60666ZM4.07979 7.25666C3.94979 7.25666 3.83979 7.25666 3.72979 7.23666L3.62979 7.10666H3.69979C3.79979 7.10666 3.91979 7.10666 4.04979 7.10666H4.10979C4.26979 7.10666 4.38979 7.10666 4.50979 7.10666L4.40979 7.23666C4.29979 7.23666 4.19979 7.25666 4.07979 7.25666ZM3.56979 7.04666L3.54979 6.52666L3.66979 6.62666V7.05666H3.57979L3.56979 7.04666ZM4.43979 6.58666C4.31979 6.58666 4.20979 6.58666 4.07979 6.58666C3.93979 6.58666 3.81979 6.58666 3.69979 6.58666L3.62979 6.52666C3.78979 6.52666 3.93979 6.53666 4.07979 6.53666C4.21979 6.53666 4.36979 6.53666 4.51979 6.52666L4.44979 6.58666H4.43979ZM3.64979 6.40666L3.53979 6.45666L3.56979 5.75666L3.65979 5.86666L3.63979 6.40666H3.64979ZM3.63979 5.74666C3.80979 5.74666 3.96979 5.73666 4.06979 5.73666C4.16979 5.73666 4.32979 5.73666 4.48979 5.73666L4.40979 5.82666C4.40979 5.82666 4.36979 5.82666 4.34979 5.82666C4.32979 5.82666 4.31979 5.82666 4.29979 5.82666C4.23979 5.82666 4.18979 5.82666 4.14979 5.82666C4.09979 5.82666 4.06979 5.82666 4.06979 5.82666C4.06979 5.82666 3.90979 5.82666 3.70979 5.82666L3.62979 5.73666L3.63979 5.74666ZM3.58979 5.67666L3.72979 5.13666L3.76979 5.20666L3.69979 5.62666L3.58979 5.68666V5.67666ZM3.59979 5.12666C3.59979 5.12666 3.62979 5.12666 3.64979 5.12666L3.58979 5.17666C3.50979 5.17666 3.42979 5.17666 3.34979 5.19666C3.43979 5.16666 3.52979 5.13666 3.59979 5.13666V5.12666ZM3.09979 5.28666C3.22979 5.26666 3.39979 5.24666 3.55979 5.23666L3.46979 5.59666L3.57979 5.67666L3.43979 5.61666C3.24979 5.61666 3.07979 5.62666 2.97979 5.63666L3.09979 5.27666V5.28666ZM3.00979 5.76666C3.00979 5.76666 3.24979 5.75666 3.49979 5.74666L3.41979 5.83666C3.41979 5.83666 3.39979 5.83666 3.38979 5.83666H3.19979C3.19979 5.83666 3.14979 5.83666 3.12979 5.83666C3.08979 5.83666 3.05979 5.83666 3.02979 5.83666C3.00979 5.83666 2.98979 5.83666 2.96979 5.83666C2.95979 5.83666 2.94979 5.83666 2.93979 5.83666L3.01979 5.77666L3.00979 5.76666ZM2.83979 6.33666L2.87979 5.88666C2.99979 5.88666 3.20979 5.88666 3.40979 5.88666V6.34666L3.51979 6.45666L3.37979 6.37666C3.11979 6.36666 2.90979 6.34666 2.83979 6.33666ZM3.45979 6.51666L3.38979 6.56666C3.13979 6.54666 2.95979 6.52666 2.87979 6.50666L2.91979 6.47666C2.91979 6.47666 3.17979 6.49666 3.45979 6.51666ZM2.94979 6.95666L2.84979 6.55666C2.92979 6.56666 3.10979 6.59666 3.36979 6.61666L3.43979 6.99666L3.55979 7.04666H3.42979V7.03666C3.13979 7.00666 2.98979 6.97666 2.94979 6.95666ZM3.05979 7.04666C3.14979 7.06666 3.27979 7.08666 3.47979 7.09666H3.48979C3.48979 7.09666 3.50979 7.09666 3.51979 7.09666L3.42979 7.20666C3.19979 7.16666 3.05979 7.13666 3.00979 7.11666L3.05979 7.04666ZM3.37979 7.79666H3.36979L3.45979 7.94666L3.25979 7.72666C3.25979 7.72666 3.34979 7.76666 3.38979 7.77666C3.42979 7.78666 3.47979 7.80666 3.52979 7.80666C3.47979 7.80666 3.42979 7.80666 3.38979 7.80666L3.37979 7.79666ZM3.57979 7.74666C3.44979 7.71666 3.31979 7.68666 3.21979 7.64666L3.24979 7.58666C3.35979 7.61666 3.47979 7.63666 3.59979 7.64666L3.56979 7.75666L3.57979 7.74666ZM3.51979 7.56666C3.37979 7.56666 3.24979 7.53666 3.13979 7.49666L3.00979 7.18666C3.07979 7.20666 3.20979 7.24666 3.39979 7.26666L3.49979 7.52666L3.60979 7.47666L3.51979 7.56666ZM3.57979 7.13666L3.68979 7.28666L3.70979 7.57666L3.61979 7.46666L3.56979 7.13666H3.57979ZM3.76979 8.09666L3.70979 7.84666L3.66979 7.68666L3.78979 7.83666V8.11666L3.77979 8.09666H3.76979ZM4.20979 8.19666C4.20979 8.19666 4.10979 8.19666 4.06979 8.19666C4.01979 8.19666 3.96979 8.19666 3.92979 8.18666C3.87979 8.18666 3.83979 8.16666 3.78979 8.15666C3.83979 8.15666 3.87979 8.16666 3.92979 8.17666C3.97979 8.17666 4.01979 8.17666 4.06979 8.17666C4.11979 8.17666 4.16979 8.17666 4.20979 8.17666C4.25979 8.17666 4.30979 8.17666 4.34979 8.16666C4.29979 8.17666 4.25979 8.18666 4.20979 8.19666ZM3.82979 8.13666V7.83666C3.88979 7.83666 3.95979 7.84666 4.01979 7.84666C4.04979 7.84666 4.08979 7.84666 4.11979 7.84666C4.14979 7.84666 4.18979 7.84666 4.21979 7.84666C4.11979 7.88666 3.87979 7.88666 3.87979 7.88666L3.82979 8.12666V8.13666ZM4.35979 7.77666C4.25979 7.78666 4.15979 7.79666 4.07979 7.79666C3.99979 7.79666 3.90979 7.79666 3.80979 7.77666L3.71979 7.64666C3.90979 7.65666 4.06979 7.65666 4.07979 7.64666C4.07979 7.64666 4.10979 7.64666 4.15979 7.64666C4.21979 7.64666 4.32979 7.64666 4.43979 7.63666L4.35979 7.75666V7.77666ZM4.46979 7.82666C4.46979 7.89666 4.44979 7.96666 4.42979 8.03666C4.42979 7.96666 4.42979 7.89666 4.44979 7.82666C4.44979 7.75666 4.46979 7.68666 4.48979 7.61666C4.48979 7.68666 4.48979 7.75666 4.46979 7.82666ZM4.43979 7.57666C4.43979 7.57666 4.39979 7.59666 4.36979 7.60666C4.38979 7.58666 4.40979 7.57666 4.42979 7.55666C4.44979 7.54666 4.46979 7.52666 4.48979 7.51666L4.56979 7.07666L4.50979 7.52666C4.50979 7.52666 4.55979 7.56666 4.57979 7.59666C4.54979 7.57666 4.51979 7.55666 4.49979 7.53666C4.47979 7.54666 4.45979 7.56666 4.43979 7.57666ZM4.74979 7.77666C4.74979 7.77666 4.65979 7.81666 4.61979 7.82666L4.51979 8.02666L4.58979 7.79666C4.63979 7.78666 4.68979 7.76666 4.73979 7.75666C4.78979 7.73666 4.83979 7.72666 4.88979 7.70666C4.83979 7.73666 4.79979 7.75666 4.74979 7.77666ZM4.56979 7.74666L4.52979 7.64666C4.64979 7.63666 4.77979 7.61666 4.88979 7.57666L4.92979 7.63666C4.82979 7.68666 4.69979 7.71666 4.56979 7.73666V7.74666ZM4.90979 7.25666C4.85979 7.27666 4.80979 7.29666 4.75979 7.31666L4.63979 7.58666L4.72979 7.28666C4.84979 7.25666 4.96979 7.22666 5.08979 7.19666C5.02979 7.21666 4.96979 7.23666 4.91979 7.25666H4.90979ZM4.70979 7.21666L4.61979 7.10666C4.84979 7.09666 4.99979 7.07666 5.08979 7.05666L5.13979 7.12666C5.08979 7.14666 4.93979 7.18666 4.69979 7.21666H4.70979ZM4.75979 6.56666L4.67979 6.51666C4.96979 6.49666 5.19978 6.48666 5.22978 6.47666L5.26978 6.50666C5.18978 6.51666 5.00979 6.54666 4.74979 6.56666H4.75979ZM5.26978 5.88666C5.26978 5.88666 5.17979 5.88666 5.13979 5.89666C4.99979 5.90666 4.96978 5.94666 4.95978 5.98666C4.93978 6.04666 4.91979 6.15666 4.89979 6.21666C4.86979 6.30666 4.89978 6.32666 4.99978 6.33666C5.02978 6.33666 5.06979 6.33666 5.11979 6.33666C5.01979 6.33666 4.88979 6.35666 4.74979 6.35666L4.58979 6.46666L4.38979 6.37666C4.28979 6.37666 4.17979 6.37666 4.06979 6.37666C3.94979 6.37666 3.81979 6.37666 3.69979 6.37666L3.71979 5.87666C3.90979 5.87666 4.05979 5.87666 4.06979 5.87666C4.06979 5.87666 4.21979 5.87666 4.39979 5.87666L4.41979 6.35666L4.58979 6.47666C4.58979 6.47666 4.58979 6.41666 4.58979 6.38666V6.29666C4.57979 6.23666 4.56979 6.17666 4.56979 6.10666C4.56979 6.04666 4.56979 5.98666 4.56979 5.91666C4.56979 5.85666 4.56979 5.79666 4.56979 5.72666C4.56979 5.78666 4.57979 5.84666 4.58979 5.91666C4.58979 5.97666 4.58979 6.03666 4.59979 6.10666C4.59979 6.16666 4.59979 6.22666 4.59979 6.29666V6.38666C4.59979 6.38666 4.59979 6.44666 4.59979 6.47666L4.73979 6.33666V5.87666C4.93979 5.87666 5.15979 5.87666 5.27979 5.87666L5.26978 5.88666ZM5.19979 5.81666H5.21979C5.21979 5.81666 5.19979 5.82666 5.18979 5.82666C5.16979 5.82666 5.13979 5.82666 5.11979 5.82666C5.08979 5.82666 5.05979 5.82666 5.02979 5.82666C4.99979 5.82666 4.96979 5.82666 4.92979 5.82666H4.84979C4.84979 5.82666 4.76979 5.82666 4.72979 5.82666H4.70979L4.61979 5.73666C4.86979 5.73666 5.09979 5.75666 5.11979 5.75666L5.18979 5.80666L5.19979 5.81666ZM5.04979 5.28666C5.04979 5.28666 5.03978 5.39666 5.03978 5.54666C5.03978 5.57666 5.03979 5.59666 5.06979 5.60666C5.09979 5.61666 5.12979 5.63666 5.15979 5.64666C5.05979 5.64666 4.87979 5.62666 4.69979 5.62666L4.55979 5.71666L4.33979 5.61666C4.19979 5.61666 4.08979 5.61666 4.06979 5.61666C4.05979 5.61666 3.91979 5.61666 3.75979 5.61666L3.81979 5.23666C3.95979 5.23666 4.06979 5.23666 4.06979 5.23666C4.06979 5.23666 4.16979 5.23666 4.30979 5.23666L4.36979 5.59666L4.55979 5.72666C4.53979 5.67666 4.52979 5.62666 4.50979 5.56666C4.48979 5.51666 4.47979 5.46666 4.46979 5.40666C4.45979 5.35666 4.43979 5.30666 4.42979 5.24666L4.40979 5.16666C4.40979 5.16666 4.40979 5.16666 4.40979 5.15666C4.40979 5.15666 4.40979 5.15666 4.40979 5.16666L4.42979 5.24666C4.43979 5.29666 4.45979 5.34666 4.46979 5.40666C4.47979 5.45666 4.49979 5.50666 4.50979 5.56666C4.51979 5.61666 4.52979 5.67666 4.53979 5.72666L4.64979 5.61666L4.55979 5.24666C4.71979 5.24666 4.89979 5.26666 5.02979 5.29666L5.04979 5.28666ZM4.71979 5.18666C4.71979 5.18666 4.73979 5.18666 4.74979 5.18666C4.75979 5.18666 4.77979 5.18666 4.78979 5.19666C4.75979 5.19666 4.73979 5.19666 4.70979 5.19666L4.71979 5.18666ZM4.64979 5.14666C4.26979 5.14666 3.94979 4.83666 3.94979 4.44666C3.94979 4.08666 4.22979 3.79666 4.57979 3.76666V3.83666C4.26979 3.86666 4.01979 4.12666 4.01979 4.44666C4.01979 4.78666 4.29979 5.06666 4.63979 5.06666C4.97979 5.06666 5.25979 4.78666 5.25979 4.44666C5.25979 4.13666 5.02979 3.89666 4.73979 3.84666V3.77666C5.06979 3.82666 5.32978 4.10666 5.32978 4.44666C5.32978 4.82666 5.01979 5.14666 4.62979 5.14666H4.64979ZM5.24978 4.89666C5.24978 4.89666 5.30978 4.82666 5.32978 4.78666C5.63978 5.47666 5.64979 6.12666 5.64979 6.12666L5.57978 6.06666C5.54978 5.64666 5.38978 5.21666 5.24978 4.90666V4.89666ZM5.26978 7.76666H5.24978V7.75666C5.45978 7.44666 6.02978 6.38666 5.34978 4.75666C5.36978 4.71666 5.36979 4.65666 5.37979 4.61666C5.82979 5.62666 5.79979 6.42666 5.66979 6.91666C5.54979 7.40666 5.31978 7.70666 5.26978 7.77666V7.76666Z" fill="#3D3D3D"/>
<path d="M4.27971 4.36654C4.27971 4.36654 4.22971 4.23654 4.19971 4.20654V4.36654C4.22971 4.36654 4.25971 4.36654 4.28971 4.36654H4.27971Z" fill="#3D3D3D"/>
<path d="M4.69965 3.92673C4.69965 3.92673 4.68965 3.89673 4.66965 3.89673C4.64965 3.89673 4.63965 3.90673 4.63965 3.92673C4.63965 3.94673 4.64965 3.95673 4.66965 3.95673C4.68965 3.95673 4.69965 3.94673 4.69965 3.92673Z" fill="#3D3D3D"/>
<path d="M4.6899 3.86668C4.6899 3.86668 4.6899 3.84668 4.6699 3.84668C4.6499 3.84668 4.6499 3.84668 4.6499 3.86668C4.6499 3.88668 4.6499 3.88668 4.6699 3.88668C4.6899 3.88668 4.6899 3.88668 4.6899 3.86668Z" fill="#3D3D3D"/>
</svg>
