<svg width="8" height="11" viewBox="0 0 8 11" fill="none" xmlns="http://www.w3.org/2000/svg">
<path d="M7.34975 10.1466H1.29975C1.12975 10.1466 0.989746 10.0066 0.989746 9.83664V1.11664C0.989746 0.946641 1.12975 0.806641 1.29975 0.806641H7.34975C7.51975 0.806641 7.65975 0.946641 7.65975 1.11664V9.83664C7.65975 10.0066 7.51975 10.1466 7.34975 10.1466ZM1.29975 0.826641C1.13975 0.826641 1.00975 0.956641 1.00975 1.11664V9.83664C1.00975 9.99664 1.13975 10.1266 1.29975 10.1266H7.34975C7.50975 10.1266 7.63975 9.99664 7.63975 9.83664V1.11664C7.63975 0.956641 7.50975 0.826641 7.34975 0.826641H1.29975Z" fill="#3D3D3D"/>
<path d="M7.34996 10.1666H1.29996C1.10996 10.1666 0.959961 10.0166 0.959961 9.8266V1.1066C0.959961 0.916602 1.10996 0.766602 1.29996 0.766602H7.34996C7.53996 0.766602 7.68996 0.916602 7.68996 1.1066V9.8266C7.68996 10.0166 7.53996 10.1666 7.34996 10.1666ZM1.29996 0.846602C1.14996 0.846602 1.03996 0.966602 1.03996 1.1066V9.8266C1.03996 9.9766 1.15996 10.0866 1.29996 10.0866H7.34996C7.49996 10.0866 7.60996 9.9666 7.60996 9.8266V1.1066C7.60996 0.956602 7.48996 0.846602 7.34996 0.846602H1.29996Z" fill="#3D3D3D"/>
<path d="M7.16998 9.92661H1.46998C1.33998 9.92661 1.22998 9.81661 1.22998 9.68661V1.26661C1.22998 1.13661 1.33998 1.02661 1.46998 1.02661H7.16998C7.29998 1.02661 7.40998 1.13661 7.40998 1.26661V9.68661C7.40998 9.81661 7.29998 9.92661 7.16998 9.92661ZM1.46998 1.07661C1.35998 1.07661 1.27998 1.16661 1.27998 1.26661V9.68661C1.27998 9.79661 1.36998 9.87661 1.46998 9.87661H7.16998C7.27998 9.87661 7.35998 9.78661 7.35998 9.68661V1.26661C7.35998 1.15661 7.26998 1.07661 7.16998 1.07661H1.46998Z" fill="#3D3D3D"/>
<path d="M7.64996 4.44658C7.64996 4.44658 7.57997 4.43658 7.55997 4.44658C7.54997 4.44658 7.53996 4.45658 7.52996 4.46658C7.50996 4.47658 7.48996 4.48658 7.45996 4.48658C7.47996 4.48658 7.49996 4.48658 7.50996 4.48658C7.52996 4.48658 7.53997 4.46658 7.55997 4.46658C7.57997 4.46658 7.59996 4.46658 7.60996 4.47658C7.60996 4.47658 7.60997 4.49658 7.62997 4.47658C7.62997 4.47658 7.62997 4.45658 7.62997 4.44658H7.64996Z" fill="#3D3D3D"/>
<path d="M6.27979 0.796631C6.27979 0.796631 6.33979 0.84663 6.33979 0.89663C6.33979 0.94663 6.31979 0.986631 6.31979 1.03663C6.34979 0.966631 6.37979 0.906631 6.37979 0.826631C6.39979 0.826631 6.41979 0.81663 6.44979 0.81663C6.39979 0.81663 6.35979 0.796631 6.27979 0.796631Z" fill="#3D3D3D"/>
<path d="M6.58984 0.81665C6.58984 0.81665 6.58984 0.896651 6.58984 0.926651C6.59984 0.916651 6.61984 0.856651 6.61984 0.836651C6.61984 0.826651 6.60984 0.81665 6.58984 0.81665Z" fill="#3D3D3D"/>
<path d="M3.33984 0.81665C3.33984 0.81665 3.39984 0.846651 3.40984 0.866651C3.41984 0.886651 3.40984 0.91665 3.42984 0.93665C3.43984 0.96665 3.47984 0.956651 3.50984 0.966651C3.53984 0.966651 3.55984 0.986651 3.58984 0.996651C3.58984 0.976651 3.56984 0.966651 3.54984 0.956651C3.53984 0.956651 3.52984 0.956651 3.51984 0.956651H3.47984C3.47984 0.956651 3.45984 0.896651 3.45984 0.886651C3.45984 0.866651 3.47984 0.856651 3.49984 0.846651C3.48984 0.826651 3.38984 0.846651 3.35984 0.846651L3.33984 0.81665Z" fill="#3D3D3D"/>
<path d="M3.7002 0.81665C3.7002 0.81665 3.71019 0.856651 3.72019 0.876651C3.72019 0.896651 3.72019 0.906651 3.74019 0.916651C3.74019 0.896651 3.74019 0.866651 3.74019 0.836651C3.74019 0.816651 3.74019 0.81665 3.71019 0.81665H3.7002Z" fill="#3D3D3D"/>
<path d="M1.00005 1.26657C1.00005 1.26657 1.06005 1.26657 1.10005 1.27657C1.12005 1.27657 1.10005 1.27657 1.13005 1.27657C1.15005 1.27657 1.16005 1.27657 1.18005 1.27657C1.16005 1.27657 1.14005 1.27657 1.11005 1.27657C1.07005 1.27657 1.08006 1.27657 1.06006 1.25657C1.05006 1.25657 1.03005 1.25657 1.01005 1.25657C1.00005 1.25657 1.01005 1.24657 1.00005 1.23657C0.99005 1.23657 1.00005 1.26657 1.00005 1.27657V1.26657Z" fill="#3D3D3D"/>
<path d="M1.00005 9.43649C1.00005 9.43649 1.06005 9.4365 1.10005 9.4465C1.12005 9.4465 1.10005 9.4465 1.13005 9.4465C1.15005 9.4465 1.16005 9.4465 1.18005 9.4465C1.16005 9.4465 1.14005 9.4465 1.11005 9.4465C1.07005 9.4465 1.08006 9.44649 1.06006 9.42649C1.05006 9.42649 1.03005 9.42649 1.01005 9.42649C1.00005 9.42649 1.01005 9.41649 1.00005 9.40649C0.99005 9.40649 1.00005 9.4365 1.00005 9.4465V9.43649Z" fill="#3D3D3D"/>
<path d="M1.01015 1.02666H1.09015C1.10015 1.00666 1.04015 1.01666 1.04015 0.996663C1.04015 0.986663 1.06015 0.966663 1.05015 0.956663C1.05015 0.926663 0.990148 0.986662 1.00015 1.01666L1.01015 1.02666Z" fill="#3D3D3D"/>
<path d="M4.87987 0.81665C4.87987 0.81665 4.87986 0.816651 4.88986 0.836651C4.88986 0.836651 4.88986 0.856651 4.88986 0.866651C4.88986 0.886651 4.88986 0.906651 4.88986 0.926651C4.88986 0.916651 4.88986 0.906651 4.88986 0.886651C4.88986 0.876651 4.88986 0.86665 4.89986 0.85665C4.89986 0.84665 4.89986 0.836651 4.89986 0.826651C4.89986 0.826651 4.89987 0.826651 4.87987 0.826651C4.87987 0.826651 4.86986 0.826651 4.85986 0.826651L4.87987 0.81665Z" fill="#3D3D3D"/>
<path d="M5.12988 10.1465C5.12988 10.1465 5.18988 10.0965 5.18988 10.0465C5.18988 9.99649 5.16988 9.95649 5.16988 9.90649C5.19988 9.97649 5.22988 10.0365 5.22988 10.1165C5.24988 10.1165 5.26988 10.1265 5.29988 10.1265C5.24988 10.1265 5.20988 10.1465 5.12988 10.1465Z" fill="#3D3D3D"/>
<path d="M0.97998 8.90649C0.97998 8.90649 1.02998 8.96649 1.07998 8.96649C1.12998 8.96649 1.16998 8.9465 1.21998 8.9465C1.14998 8.9765 1.07998 9.00649 1.00998 9.00649C1.00998 9.02649 0.999977 9.04649 0.999977 9.07649C0.999977 9.02649 0.97998 8.98649 0.97998 8.90649Z" fill="#3D3D3D"/>
<path d="M5.43994 10.1266C5.43994 10.1266 5.43994 10.0466 5.43994 10.0166C5.44994 10.0266 5.46994 10.0866 5.46994 10.1066C5.46994 10.1166 5.45994 10.1266 5.43994 10.1266Z" fill="#3D3D3D"/>
<path d="M2.18994 10.1265C2.18994 10.1265 2.24994 10.0965 2.25994 10.0765C2.26994 10.0565 2.25994 10.0265 2.27994 10.0065C2.28994 9.97653 2.32994 9.98653 2.35994 9.97653C2.38994 9.97653 2.40994 9.95653 2.43994 9.94653C2.43994 9.96653 2.41994 9.97653 2.39994 9.98653C2.38994 9.98653 2.37994 9.98653 2.36994 9.98653H2.32994C2.32994 9.98653 2.30994 10.0465 2.30994 10.0565C2.30994 10.0765 2.32994 10.0865 2.34994 10.0965C2.33994 10.1165 2.23994 10.0965 2.20994 10.0965L2.18994 10.1265Z" fill="#3D3D3D"/>
<path d="M2.5498 10.1266C2.5498 10.1266 2.5598 10.0866 2.5698 10.0666C2.5698 10.0466 2.56981 10.0366 2.58981 10.0266C2.58981 10.0466 2.58981 10.0766 2.58981 10.1066C2.58981 10.1266 2.58981 10.1266 2.55981 10.1266H2.5498Z" fill="#3D3D3D"/>
<path d="M3.72997 10.1266C3.72997 10.1266 3.72996 10.1266 3.73996 10.1066C3.73996 10.1066 3.73996 10.0866 3.73996 10.0766C3.73996 10.0566 3.73996 10.0366 3.73996 10.0166C3.73996 10.0266 3.73996 10.0366 3.73996 10.0566C3.73996 10.0666 3.73996 10.0766 3.74996 10.0866C3.74996 10.0966 3.74996 10.0966 3.74996 10.1166C3.74996 10.1166 3.74997 10.1166 3.72997 10.1166C3.72997 10.1166 3.71996 10.1166 3.70996 10.1166L3.72997 10.1266Z" fill="#3D3D3D"/>
<path d="M7.65008 2.40649C7.58008 2.40649 7.50008 2.40649 7.43008 2.40649C7.39008 2.40649 7.39008 2.40649 7.37008 2.43649C7.33008 2.48649 7.26008 2.48649 7.20008 2.49649C7.16008 2.50649 7.12008 2.51649 7.08008 2.51649C7.11008 2.54649 7.21008 2.51649 7.25008 2.50649C7.28008 2.50649 7.32007 2.48649 7.35007 2.47649C7.39007 2.44649 7.40008 2.43649 7.45008 2.43649C7.49008 2.43649 7.52008 2.43649 7.57008 2.43649C7.58008 2.43649 7.60008 2.43649 7.62008 2.43649C7.64008 2.43649 7.64008 2.44649 7.66008 2.45649C7.66008 2.44649 7.66008 2.43649 7.66008 2.41649L7.65008 2.40649Z" fill="#3D3D3D"/>
<path d="M7.63972 7.60669C7.56972 7.60669 7.48972 7.60669 7.41972 7.60669C7.37972 7.60669 7.36973 7.63669 7.33973 7.65669C7.30973 7.67669 7.25973 7.68669 7.21973 7.68669C7.25973 7.68669 7.29973 7.68669 7.33973 7.67669C7.37973 7.64669 7.38973 7.63669 7.43973 7.63669C7.50973 7.62669 7.55972 7.63669 7.59972 7.70669C7.61972 7.74669 7.62973 7.75669 7.62973 7.79669C7.62973 7.76669 7.63973 7.73669 7.64973 7.70669C7.64973 7.67669 7.64973 7.64669 7.64973 7.61669L7.63972 7.60669Z" fill="#3D3D3D"/>
<path d="M7.63975 2.65649C7.63975 2.65649 7.52975 2.65649 7.48975 2.66649C7.51975 2.66649 7.53975 2.66649 7.56975 2.66649C7.57975 2.66649 7.58975 2.67649 7.60975 2.68649C7.63975 2.68649 7.65975 2.68649 7.64975 2.65649H7.63975Z" fill="#3D3D3D"/>
<path d="M7.63998 2.21654C7.63998 2.21654 7.50998 2.29654 7.47998 2.28654C7.50998 2.25654 7.54998 2.25654 7.57998 2.23654C7.59998 2.22654 7.61998 2.20654 7.64998 2.20654H7.63998V2.21654Z" fill="#3D3D3D"/>
<path d="M0.97998 3.4265C0.97998 3.4265 1.01998 3.4565 1.03998 3.4665C1.05998 3.4765 1.10998 3.4765 1.12998 3.4765C1.21998 3.4765 1.27998 3.4565 1.35998 3.4365C1.29998 3.4865 1.23998 3.4965 1.16998 3.4965C1.10998 3.4965 1.00998 3.4965 0.97998 3.4165V3.4265Z" fill="#3D3D3D"/>
<path d="M0.999803 3.29659C0.999803 3.21659 1.12981 3.22659 1.18981 3.20659C1.14981 3.19659 1.0798 3.20659 1.0398 3.20659C0.959804 3.20659 0.989805 3.23659 1.00981 3.28659L0.999803 3.29659Z" fill="#3D3D3D"/>
<path d="M1.00977 6.88658C1.00977 6.81658 1.11977 6.84658 1.15977 6.84658C1.19977 6.84658 1.19976 6.82658 1.21976 6.79658C1.22976 6.77658 1.24977 6.75658 1.25977 6.74658C1.21977 6.77658 1.22977 6.84658 1.18977 6.86658C1.13977 6.89658 1.05977 6.84658 1.01977 6.89658C1.01977 6.89658 1.01977 6.87658 1.01977 6.88658H1.00977Z" fill="#3D3D3D"/>
<path d="M0.999848 5.34667C0.999848 5.34667 0.999848 5.38667 0.999848 5.39667C0.999848 5.39667 1.02985 5.42667 1.02985 5.43667C1.02985 5.46667 0.989846 5.47667 0.989846 5.50667C0.989846 5.46667 0.969846 5.37667 0.989846 5.33667L0.999848 5.34667Z" fill="#3D3D3D"/>
<path d="M1.00975 5.52661C1.00975 5.52661 1.04975 5.54661 1.06975 5.54661C1.09975 5.54661 1.09975 5.54661 1.11975 5.56661C1.15975 5.59661 1.16975 5.54661 1.20975 5.54661C1.18975 5.56661 1.16975 5.56661 1.14975 5.57661C1.11975 5.58661 1.11975 5.57661 1.09975 5.56661C1.08975 5.56661 1.04975 5.56661 1.02975 5.56661C1.00975 5.56661 1.00975 5.61661 1.00975 5.63661C1.00975 5.66661 1.03975 5.66661 1.05975 5.67661C1.04975 5.67661 1.01975 5.67661 1.01975 5.67661C1.01975 5.67661 1.01975 5.67661 0.999748 5.67661C0.999748 5.67661 0.989746 5.64661 0.989746 5.63661C0.989746 5.59661 0.98975 5.56661 1.00975 5.53661V5.52661Z" fill="#3D3D3D"/>
<path d="M0.999748 6.74652C0.999748 6.74652 1.07975 6.74652 1.10975 6.70652C1.09975 6.70652 1.07975 6.70652 1.05975 6.70652C1.02975 6.70652 1.00975 6.69652 0.989746 6.68652C0.989746 6.70652 0.989746 6.72652 0.989746 6.73652H0.999748C0.999748 6.73652 0.999748 6.74652 0.999748 6.75652V6.74652Z" fill="#3D3D3D"/>
<path d="M1.79004 2.96655C1.79004 2.96655 1.79004 2.96655 1.79004 2.97655C1.79004 2.97655 1.79004 2.97655 1.80004 2.96655H1.79004Z" fill="white"/>
<path d="M1.91988 1.3667C1.91988 1.3667 1.99988 1.3667 2.03988 1.3967C2.05988 1.4067 2.07988 1.4167 2.08988 1.4267C2.10988 1.4467 2.11988 1.4567 2.12988 1.4667C2.14988 1.4967 2.15988 1.5167 2.15988 1.5467V1.5767C2.15988 1.6567 2.13988 1.7167 2.09988 1.7467C2.07988 1.7667 2.05988 1.7767 2.02988 1.7767C2.02988 1.7767 2.02988 1.7767 2.04988 1.7867C2.05988 1.7867 2.07988 1.7967 2.09988 1.8067C2.11988 1.8167 2.12988 1.8267 2.13988 1.8367C2.16988 1.8667 2.17988 1.9167 2.17988 1.9767V1.9967C2.17988 2.0567 2.17988 2.0967 2.17988 2.0967C2.17988 2.1067 2.17988 2.1267 2.15988 2.1367C2.14988 2.1567 2.11988 2.1867 2.08988 2.2067C2.03988 2.2367 1.97988 2.2567 1.89988 2.2567C1.77988 2.2567 1.69988 2.2267 1.65988 2.1667C1.65988 2.1667 1.64988 2.1467 1.63988 2.1267C1.63988 2.1067 1.62988 2.0667 1.62988 2.0067H1.81988C1.81988 2.0667 1.82988 2.1167 1.84988 2.1367C1.85988 2.1467 1.86988 2.1567 1.88988 2.1567C1.88988 2.1567 1.93988 2.1267 1.94988 2.0667C1.94988 2.0567 1.94988 2.0367 1.94988 2.0267C1.94988 1.9767 1.94988 1.9367 1.92988 1.9167C1.92988 1.9167 1.91988 1.9067 1.90988 1.8967C1.89988 1.8967 1.87988 1.8867 1.86988 1.8867H1.82988V1.6967H1.88988C1.88988 1.6967 1.92988 1.6967 1.93988 1.6767C1.93988 1.6767 1.94988 1.6567 1.95988 1.6467C1.95988 1.6267 1.95988 1.6067 1.95988 1.5867C1.95988 1.5267 1.94988 1.5067 1.91988 1.4967C1.91988 1.4967 1.91988 1.4967 1.90988 1.4967C1.90988 1.4967 1.86988 1.5167 1.85988 1.5567C1.85988 1.5767 1.85988 1.5867 1.85988 1.6167H1.66988C1.66988 1.5767 1.66988 1.5367 1.68988 1.4967C1.70988 1.4567 1.73988 1.4167 1.77988 1.3967C1.81988 1.3767 1.86988 1.3667 1.91988 1.3667Z" fill="#B41818"/>
<path d="M6.67992 9.56651C6.67992 9.56651 6.59993 9.56651 6.55993 9.53651C6.53993 9.52651 6.51993 9.51651 6.50993 9.50651C6.48993 9.48651 6.47992 9.47651 6.46992 9.46651C6.44992 9.43651 6.43993 9.41651 6.43993 9.38651V9.35651C6.43993 9.27651 6.45992 9.21651 6.49992 9.18651C6.51992 9.16651 6.53992 9.15651 6.56992 9.15651C6.56992 9.15651 6.56993 9.15651 6.54993 9.14651C6.53993 9.14651 6.51992 9.13651 6.49992 9.12651C6.47992 9.11651 6.46992 9.10651 6.45992 9.09651C6.42992 9.06651 6.41992 9.01651 6.41992 8.95651V8.93651C6.41992 8.87651 6.41992 8.83651 6.41992 8.83651C6.41992 8.82651 6.41993 8.80651 6.43993 8.79651C6.44993 8.77651 6.47993 8.74651 6.50993 8.72651C6.55993 8.69651 6.61993 8.67651 6.69993 8.67651C6.81993 8.67651 6.89993 8.70651 6.93993 8.76651C6.93993 8.76651 6.94992 8.78651 6.95992 8.80651C6.95992 8.82651 6.96992 8.86651 6.96992 8.92651H6.77992C6.77992 8.86651 6.76992 8.81651 6.74992 8.79651C6.73992 8.78651 6.72992 8.77651 6.70992 8.77651C6.70992 8.77651 6.65993 8.80651 6.64993 8.86651C6.64993 8.87651 6.64993 8.89651 6.64993 8.90651C6.64993 8.95651 6.64992 8.99651 6.66992 9.01651C6.66992 9.01651 6.67993 9.02651 6.68993 9.03651C6.69993 9.03651 6.71993 9.04651 6.72993 9.04651H6.76993V9.23651H6.70992C6.70992 9.23651 6.66993 9.23651 6.65993 9.25651C6.65993 9.25651 6.64992 9.27651 6.63992 9.28651C6.63992 9.30651 6.63992 9.32651 6.63992 9.34651C6.63992 9.40651 6.64992 9.42651 6.67992 9.43651C6.67992 9.43651 6.67993 9.43651 6.68993 9.43651C6.68993 9.43651 6.72992 9.41651 6.73992 9.37651C6.73992 9.35651 6.73992 9.34651 6.73992 9.31651H6.92992C6.92992 9.35651 6.92993 9.39651 6.90993 9.43651C6.88993 9.47651 6.85992 9.51651 6.81992 9.53651C6.77992 9.55651 6.72992 9.56651 6.67992 9.56651Z" fill="#B41818"/>
<path d="M1.97002 2.60655C1.97002 2.60655 1.97003 2.61655 1.95003 2.62655C1.95003 2.61655 1.93002 2.60655 1.93002 2.60655C1.78002 2.41655 1.47003 2.62655 1.62003 2.83655C1.71003 2.95655 1.89003 2.96655 1.95003 3.17655C2.01003 2.97655 2.19002 2.96655 2.28002 2.83655C2.43002 2.62655 2.12002 2.41655 1.97002 2.60655Z" fill="#B41818"/>
<path d="M6.68989 8.31658C6.68989 8.31658 6.68989 8.30658 6.66989 8.29658C6.66989 8.30658 6.64989 8.31658 6.64989 8.31658C6.50989 8.50658 6.1899 8.29658 6.3399 8.08658C6.4299 7.96658 6.60989 7.95658 6.66989 7.74658C6.72989 7.94658 6.90989 7.95658 6.99989 8.08658C7.14989 8.29658 6.83989 8.50658 6.68989 8.31658Z" fill="#B41818"/>
<path d="M4.34995 5.06667C4.34995 5.06667 4.33995 5.08667 4.31995 5.10667C4.30995 5.08667 4.28995 5.06667 4.28995 5.06667C4.04995 4.74667 3.53995 5.10667 3.77995 5.44667C3.91995 5.64667 4.21995 5.66667 4.31995 5.99667C4.41995 5.66667 4.70995 5.64667 4.85995 5.44667C5.09995 5.10667 4.58995 4.74667 4.34995 5.06667Z" fill="#B41818"/>
<path d="M4.34995 1.96657C4.34995 1.96657 4.33995 1.98657 4.31995 2.00657C4.30995 1.98657 4.28995 1.96657 4.28995 1.96657C4.04995 1.64657 3.53995 2.00657 3.77995 2.34657C3.91995 2.54657 4.21995 2.56657 4.31995 2.89657C4.41995 2.56657 4.70995 2.54657 4.85995 2.34657C5.09995 2.00657 4.58995 1.64657 4.34995 1.96657Z" fill="#B41818"/>
<path d="M4.34995 8.98664C4.34995 8.98664 4.33995 8.96664 4.31995 8.94664C4.30995 8.96664 4.28995 8.98664 4.28995 8.98664C4.04995 9.30664 3.53995 8.94664 3.77995 8.60664C3.91995 8.40664 4.21995 8.38664 4.31995 8.05664C4.41995 8.38664 4.70995 8.40664 4.85995 8.60664C5.09995 8.94664 4.58995 9.30664 4.34995 8.98664Z" fill="#B41818"/>
</svg>
