<svg width="8" height="11" viewBox="0 0 8 11" fill="none" xmlns="http://www.w3.org/2000/svg">
<path d="M6.88978 10.1466H0.839783C0.669783 10.1466 0.529785 10.0066 0.529785 9.83664V1.11664C0.529785 0.946641 0.669783 0.806641 0.839783 0.806641H6.88978C7.05978 0.806641 7.19978 0.946641 7.19978 1.11664V9.83664C7.19978 10.0066 7.05978 10.1466 6.88978 10.1466ZM0.839783 0.826641C0.679783 0.826641 0.549782 0.956641 0.549782 1.11664V9.83664C0.549782 9.99664 0.679783 10.1266 0.839783 10.1266H6.88978C7.04978 10.1266 7.17978 9.99664 7.17978 9.83664V1.11664C7.17978 0.956641 7.04978 0.826641 6.88978 0.826641H0.839783Z" fill="#3D3D3D"/>
<path d="M6.89 10.1666H0.840004C0.650004 10.1666 0.5 10.0166 0.5 9.8266V1.1066C0.5 0.916602 0.650004 0.766602 0.840004 0.766602H6.89C7.08 0.766602 7.23 0.916602 7.23 1.1066V9.8266C7.23 10.0166 7.08 10.1666 6.89 10.1666ZM0.840004 0.846602C0.690004 0.846602 0.580002 0.966602 0.580002 1.1066V9.8266C0.580002 9.9766 0.700004 10.0866 0.840004 10.0866H6.89C7.04 10.0866 7.15 9.9666 7.15 9.8266V1.1066C7.15 0.956602 7.03 0.846602 6.89 0.846602H0.840004Z" fill="#3D3D3D"/>
<path d="M6.71001 9.92661H1.01002C0.870017 9.92661 0.77002 9.81661 0.77002 9.68661V1.26661C0.77002 1.13661 0.880017 1.02661 1.01002 1.02661H6.71001C6.84001 1.02661 6.95002 1.13661 6.95002 1.26661V9.68661C6.95002 9.81661 6.84001 9.92661 6.71001 9.92661ZM1.01002 1.07661C0.900017 1.07661 0.820015 1.16661 0.820015 1.26661V9.68661C0.820015 9.79661 0.910017 9.87661 1.01002 9.87661H6.71001C6.82001 9.87661 6.90002 9.78661 6.90002 9.68661V1.26661C6.90002 1.15661 6.81001 1.07661 6.71001 1.07661H1.01002Z" fill="#3D3D3D"/>
<path d="M7.19 4.44658C7.19 4.44658 7.12001 4.43658 7.10001 4.44658C7.09001 4.44658 7.08 4.45658 7.07 4.46658C7.05 4.47658 7.03 4.48658 7 4.48658C7.02 4.48658 7.04 4.48658 7.05 4.48658C7.07 4.48658 7.08001 4.46658 7.10001 4.46658C7.12001 4.46658 7.14 4.46658 7.15 4.47658C7.15 4.47658 7.15001 4.49658 7.17001 4.47658C7.17001 4.47658 7.17001 4.45658 7.17001 4.44658H7.19Z" fill="#3D3D3D"/>
<path d="M5.81982 0.796631C5.81982 0.796631 5.87983 0.84663 5.87983 0.89663C5.87983 0.94663 5.85983 0.986631 5.85983 1.03663C5.88983 0.966631 5.91983 0.906631 5.91983 0.826631C5.93983 0.826631 5.95983 0.81663 5.98983 0.81663C5.93983 0.81663 5.89982 0.796631 5.81982 0.796631Z" fill="#3D3D3D"/>
<path d="M6.12988 0.81665C6.12988 0.81665 6.12988 0.896651 6.12988 0.926651C6.13988 0.916651 6.15988 0.856651 6.15988 0.836651C6.15988 0.826651 6.14988 0.81665 6.12988 0.81665Z" fill="#3D3D3D"/>
<path d="M2.87988 0.81665C2.87988 0.81665 2.93988 0.846651 2.94988 0.866651C2.95988 0.886651 2.94988 0.91665 2.96988 0.93665C2.97988 0.96665 3.01988 0.956651 3.04988 0.966651C3.07988 0.966651 3.09988 0.986651 3.12988 0.996651C3.12988 0.976651 3.10988 0.966651 3.08988 0.956651C3.07988 0.956651 3.06988 0.956651 3.05988 0.956651H3.01988C3.01988 0.956651 2.99988 0.896651 2.99988 0.886651C2.99988 0.866651 3.01988 0.856651 3.03988 0.846651C3.02988 0.826651 2.92988 0.846651 2.89988 0.846651L2.87988 0.81665Z" fill="#3D3D3D"/>
<path d="M3.24023 0.81665C3.24023 0.81665 3.25023 0.856651 3.26023 0.876651C3.26023 0.896651 3.26024 0.906651 3.28024 0.916651C3.28024 0.896651 3.28024 0.866651 3.28024 0.836651C3.28024 0.816651 3.28023 0.81665 3.25023 0.81665H3.24023Z" fill="#3D3D3D"/>
<path d="M0.540089 1.26657C0.540089 1.26657 0.600087 1.26657 0.640087 1.27657C0.660087 1.27657 0.640094 1.27657 0.670094 1.27657C0.690094 1.27657 0.700089 1.27657 0.720089 1.27657C0.700089 1.27657 0.68009 1.27657 0.65009 1.27657C0.61009 1.27657 0.620094 1.27657 0.600094 1.25657C0.590094 1.25657 0.570091 1.25657 0.550091 1.25657C0.540091 1.25657 0.550089 1.24657 0.540089 1.23657C0.530089 1.23657 0.540089 1.26657 0.540089 1.27657V1.26657Z" fill="#3D3D3D"/>
<path d="M0.540089 9.43649C0.540089 9.43649 0.600087 9.4365 0.640087 9.4465C0.660087 9.4465 0.640094 9.4465 0.670094 9.4465C0.690094 9.4465 0.700089 9.4465 0.720089 9.4465C0.700089 9.4465 0.68009 9.4465 0.65009 9.4465C0.61009 9.4465 0.620094 9.44649 0.600094 9.42649C0.590094 9.42649 0.570091 9.42649 0.550091 9.42649C0.540091 9.42649 0.550089 9.41649 0.540089 9.40649C0.530089 9.40649 0.540089 9.4365 0.540089 9.4465V9.43649Z" fill="#3D3D3D"/>
<path d="M0.550189 1.02666H0.630191C0.640191 1.00666 0.580188 1.01666 0.580188 0.996663C0.580188 0.986663 0.60019 0.966663 0.59019 0.956663C0.59019 0.926663 0.530187 0.986662 0.540187 1.01666L0.550189 1.02666Z" fill="#3D3D3D"/>
<path d="M4.41991 0.81665C4.41991 0.81665 4.4199 0.816651 4.4299 0.836651C4.4299 0.836651 4.4299 0.856651 4.4299 0.866651C4.4299 0.886651 4.4299 0.906651 4.4299 0.926651C4.4299 0.916651 4.4299 0.906651 4.4299 0.886651C4.4299 0.876651 4.4299 0.86665 4.4399 0.85665C4.4399 0.84665 4.4399 0.836651 4.4399 0.826651C4.4399 0.826651 4.43991 0.826651 4.41991 0.826651C4.41991 0.826651 4.4099 0.826651 4.3999 0.826651L4.41991 0.81665Z" fill="#3D3D3D"/>
<path d="M4.66992 10.1465C4.66992 10.1465 4.72992 10.0965 4.72992 10.0465C4.72992 9.99649 4.70992 9.95649 4.70992 9.90649C4.73992 9.97649 4.76992 10.0365 4.76992 10.1165C4.78992 10.1165 4.80992 10.1265 4.83992 10.1265C4.78992 10.1265 4.74992 10.1465 4.66992 10.1465Z" fill="#3D3D3D"/>
<path d="M0.52002 8.90649C0.52002 8.90649 0.57002 8.96649 0.63002 8.96649C0.68002 8.96649 0.72002 8.9465 0.77002 8.9465C0.70002 8.9765 0.63002 9.00649 0.56002 9.00649C0.56002 9.02649 0.550018 9.04649 0.550018 9.07649C0.550018 9.02649 0.530022 8.98649 0.530022 8.90649H0.52002Z" fill="#3D3D3D"/>
<path d="M4.97998 10.1266C4.97998 10.1266 4.97998 10.0466 4.97998 10.0166C4.98998 10.0266 5.00998 10.0866 5.00998 10.1066C5.00998 10.1166 4.99998 10.1266 4.97998 10.1266Z" fill="#3D3D3D"/>
<path d="M1.72998 10.1265C1.72998 10.1265 1.78998 10.0965 1.79998 10.0765C1.80998 10.0565 1.79998 10.0265 1.81998 10.0065C1.82998 9.97653 1.86998 9.98653 1.89998 9.97653C1.92998 9.97653 1.94998 9.95653 1.97998 9.94653C1.97998 9.96653 1.95998 9.97653 1.93998 9.98653C1.92998 9.98653 1.91998 9.98653 1.90998 9.98653H1.86998C1.86998 9.98653 1.84998 10.0465 1.84998 10.0565C1.84998 10.0765 1.86998 10.0865 1.88998 10.0965C1.87998 10.1165 1.77998 10.0965 1.74998 10.0965L1.72998 10.1265Z" fill="#3D3D3D"/>
<path d="M2.08984 10.1266C2.08984 10.1266 2.09984 10.0866 2.10984 10.0666C2.10984 10.0466 2.10984 10.0366 2.12984 10.0266C2.12984 10.0466 2.12984 10.0766 2.12984 10.1066C2.12984 10.1266 2.12985 10.1266 2.09985 10.1266H2.08984Z" fill="#3D3D3D"/>
<path d="M3.27 10.1266C3.27 10.1266 3.27001 10.1266 3.28001 10.1066C3.28001 10.1066 3.28001 10.0866 3.28001 10.0766C3.28001 10.0566 3.28001 10.0366 3.28001 10.0166C3.28001 10.0266 3.28001 10.0366 3.28001 10.0566C3.28001 10.0666 3.28 10.0766 3.29 10.0866C3.29 10.0966 3.29 10.0966 3.29 10.1166C3.29 10.1166 3.29 10.1166 3.27 10.1166C3.27 10.1166 3.26 10.1166 3.25 10.1166L3.27 10.1266Z" fill="#3D3D3D"/>
<path d="M7.19012 2.40649C7.12012 2.40649 7.04012 2.40649 6.97012 2.40649C6.93012 2.40649 6.93012 2.40649 6.91012 2.43649C6.87012 2.48649 6.80012 2.48649 6.74012 2.49649C6.70012 2.50649 6.66012 2.51649 6.62012 2.51649C6.65012 2.54649 6.75012 2.51649 6.79012 2.50649C6.82012 2.50649 6.86011 2.48649 6.89011 2.47649C6.93011 2.44649 6.94012 2.43649 6.99012 2.43649C7.03012 2.43649 7.06012 2.43649 7.11012 2.43649C7.12012 2.43649 7.14012 2.43649 7.16012 2.43649C7.18012 2.43649 7.18012 2.44649 7.20012 2.45649C7.20012 2.44649 7.20012 2.43649 7.20012 2.41649L7.19012 2.40649Z" fill="#3D3D3D"/>
<path d="M7.17976 7.60669C7.10976 7.60669 7.02976 7.60669 6.95976 7.60669C6.91976 7.60669 6.90977 7.63669 6.87977 7.65669C6.84977 7.67669 6.79977 7.68669 6.75977 7.68669C6.79977 7.68669 6.83977 7.68669 6.87977 7.67669C6.91977 7.64669 6.92977 7.63669 6.97977 7.63669C7.04977 7.62669 7.09976 7.63669 7.13976 7.70669C7.15976 7.74669 7.16977 7.75669 7.16977 7.79669C7.16977 7.76669 7.17977 7.73669 7.18977 7.70669C7.18977 7.67669 7.18977 7.64669 7.18977 7.61669L7.17976 7.60669Z" fill="#3D3D3D"/>
<path d="M7.17978 2.65649C7.17978 2.65649 7.06979 2.65649 7.02979 2.66649C7.05979 2.66649 7.07978 2.66649 7.10978 2.66649C7.11978 2.66649 7.12978 2.67649 7.14978 2.68649C7.17978 2.68649 7.19978 2.68649 7.18978 2.65649H7.17978Z" fill="#3D3D3D"/>
<path d="M7.18002 2.21654C7.18002 2.21654 7.05002 2.29654 7.02002 2.28654C7.05002 2.25654 7.09002 2.25654 7.12002 2.23654C7.14002 2.22654 7.16002 2.20654 7.19002 2.20654H7.18002V2.21654Z" fill="#3D3D3D"/>
<path d="M0.52002 3.4265C0.52002 3.4265 0.560017 3.4565 0.580017 3.4665C0.600017 3.4765 0.650021 3.4765 0.670021 3.4765C0.760021 3.4765 0.820017 3.4565 0.900017 3.4365C0.840017 3.4865 0.780014 3.4965 0.710014 3.4965C0.650014 3.4965 0.55002 3.4965 0.52002 3.4165V3.4265Z" fill="#3D3D3D"/>
<path d="M0.539842 3.29659C0.539842 3.21659 0.669845 3.22659 0.729845 3.20659C0.689845 3.19659 0.619843 3.20659 0.579843 3.20659C0.499843 3.20659 0.529844 3.23659 0.549844 3.28659L0.539842 3.29659Z" fill="#3D3D3D"/>
<path d="M0.549805 6.88658C0.549805 6.81658 0.659806 6.84658 0.699806 6.84658C0.739806 6.84658 0.739804 6.82658 0.759804 6.79658C0.769804 6.77658 0.789805 6.75658 0.799805 6.74658C0.759805 6.77658 0.769805 6.84658 0.729805 6.86658C0.679805 6.89658 0.599807 6.84658 0.559807 6.89658C0.559807 6.89658 0.559807 6.87658 0.559807 6.88658H0.549805Z" fill="#3D3D3D"/>
<path d="M0.539879 5.34667C0.539879 5.34667 0.539879 5.38667 0.539879 5.39667C0.539879 5.39667 0.569878 5.42667 0.569878 5.43667C0.569878 5.46667 0.529885 5.47667 0.529885 5.50667C0.529885 5.46667 0.509885 5.37667 0.529885 5.33667L0.539879 5.34667Z" fill="#3D3D3D"/>
<path d="M0.549782 5.52661C0.549782 5.52661 0.589779 5.54661 0.609779 5.54661C0.639779 5.54661 0.639782 5.54661 0.659782 5.56661C0.699782 5.59661 0.709779 5.54661 0.749779 5.54661C0.729779 5.56661 0.709781 5.56661 0.689781 5.57661C0.659781 5.58661 0.659778 5.57661 0.639778 5.56661C0.629778 5.56661 0.589778 5.56661 0.569778 5.56661C0.549778 5.56661 0.549782 5.61661 0.549782 5.63661C0.549782 5.66661 0.579785 5.66661 0.599785 5.67661C0.589785 5.67661 0.559784 5.67661 0.559784 5.67661C0.559784 5.67661 0.55978 5.67661 0.53978 5.67661C0.53978 5.67661 0.529785 5.64661 0.529785 5.63661C0.529785 5.59661 0.529782 5.56661 0.549782 5.53661V5.52661Z" fill="#3D3D3D"/>
<path d="M0.540016 6.74652C0.540016 6.74652 0.620015 6.74652 0.640015 6.70652C0.630015 6.70652 0.610019 6.70652 0.590019 6.70652C0.560019 6.70652 0.54002 6.69652 0.52002 6.68652C0.52002 6.70652 0.52002 6.72652 0.52002 6.73652H0.530022C0.530022 6.73652 0.530022 6.74652 0.530022 6.75652L0.540016 6.74652Z" fill="#3D3D3D"/>
<path d="M1.33008 2.96655C1.33008 2.96655 1.33008 2.96655 1.33008 2.97655C1.33008 2.97655 1.33008 2.97655 1.34008 2.96655H1.33008Z" fill="white"/>
<path d="M1.27998 1.3767H1.67998V1.4467C1.67998 1.4467 1.65998 1.4667 1.63998 1.4767C1.61998 1.4867 1.58998 1.4967 1.56998 1.4967C1.53998 1.4967 1.49998 1.4967 1.43998 1.4767V1.6367C1.45998 1.6367 1.47998 1.6367 1.49998 1.6367C1.56998 1.6367 1.61998 1.6567 1.65998 1.6967C1.66998 1.7067 1.67998 1.7267 1.69998 1.7467C1.70998 1.7667 1.71998 1.7967 1.72998 1.8367C1.73998 1.8767 1.74998 1.9267 1.74998 1.9667V1.9867C1.74998 1.9867 1.73998 2.0767 1.70998 2.1367C1.69998 2.1567 1.67998 2.1767 1.65998 2.1967C1.60998 2.2367 1.55998 2.2667 1.49998 2.2667C1.41998 2.2667 1.36998 2.2567 1.32998 2.2367C1.30998 2.2367 1.29998 2.2167 1.28998 2.2067C1.27998 2.1967 1.26998 2.1767 1.25998 2.1667C1.23998 2.1267 1.22998 2.0767 1.22998 2.0167H1.40998C1.40998 2.0567 1.40998 2.0967 1.42998 2.1167C1.43998 2.1367 1.44998 2.1367 1.46998 2.1367C1.49998 2.1367 1.50998 2.1167 1.51998 2.0767C1.51998 2.0467 1.52998 2.0167 1.52998 1.9867C1.52998 1.9067 1.52998 1.8667 1.49998 1.8367C1.47998 1.8167 1.43998 1.8067 1.38998 1.8067C1.34998 1.8067 1.30998 1.8067 1.26998 1.8167C1.26998 1.7867 1.26998 1.6367 1.28998 1.3667L1.27998 1.3767Z" fill="#B41818"/>
<path d="M6.4202 9.54649H6.0202V9.47649C6.0202 9.47649 6.0402 9.4565 6.0602 9.4465C6.0802 9.4365 6.1102 9.42649 6.1302 9.42649C6.1602 9.42649 6.20019 9.4265 6.26019 9.4465V9.28649C6.24019 9.28649 6.2202 9.28649 6.2002 9.28649C6.1302 9.28649 6.08019 9.26649 6.04019 9.22649C6.03019 9.21649 6.02019 9.19649 6.00019 9.17649C5.99019 9.15649 5.98019 9.12649 5.97019 9.08649C5.96019 9.04649 5.9502 8.99649 5.9502 8.95649V8.93649C5.9502 8.93649 5.9602 8.84649 5.9902 8.78649C6.0002 8.76649 6.02019 8.74649 6.04019 8.72649C6.09019 8.68649 6.1402 8.65649 6.2002 8.65649C6.2802 8.65649 6.33019 8.66649 6.37019 8.68649C6.39019 8.68649 6.40019 8.70649 6.41019 8.71649C6.42019 8.72649 6.43019 8.74649 6.44019 8.75649C6.46019 8.79649 6.47019 8.84649 6.47019 8.90649H6.29019C6.29019 8.86649 6.2902 8.82649 6.2702 8.80649C6.2602 8.78649 6.25019 8.78649 6.23019 8.78649C6.20019 8.78649 6.19019 8.80649 6.18019 8.84649C6.18019 8.87649 6.1702 8.90649 6.1702 8.93649C6.1702 9.01649 6.1702 9.05649 6.2002 9.08649C6.2202 9.10649 6.2602 9.1165 6.3102 9.1165C6.3502 9.1165 6.39019 9.11649 6.43019 9.10649C6.43019 9.13649 6.43019 9.28649 6.41019 9.55649L6.4202 9.54649Z" fill="#B41818"/>
<path d="M1.51021 2.60655C1.51021 2.60655 1.51021 2.61655 1.49021 2.62655C1.49021 2.61655 1.47021 2.60655 1.47021 2.60655C1.33021 2.41655 1.01021 2.62655 1.16021 2.83655C1.25021 2.95655 1.43021 2.96655 1.49021 3.17655C1.55021 2.97655 1.7302 2.96655 1.8202 2.83655C1.9702 2.62655 1.66021 2.41655 1.51021 2.60655Z" fill="#B41818"/>
<path d="M6.22979 8.31658C6.22979 8.31658 6.22979 8.30658 6.20979 8.29658C6.20979 8.30658 6.18979 8.31658 6.18979 8.31658C6.03979 8.50658 5.72979 8.29658 5.87979 8.08658C5.96979 7.96658 6.14979 7.95658 6.20979 7.74658C6.26979 7.94658 6.44979 7.95658 6.53979 8.08658C6.68979 8.29658 6.37979 8.50658 6.22979 8.31658Z" fill="#B41818"/>
<path d="M2.80991 1.95656C2.80991 1.95656 2.79991 1.97656 2.77991 1.99656C2.76991 1.97656 2.7499 1.95656 2.7499 1.95656C2.5099 1.63656 1.99991 1.99656 2.23991 2.33656C2.37991 2.53656 2.67991 2.55656 2.77991 2.88656C2.87991 2.55656 3.1699 2.53656 3.3199 2.33656C3.5599 1.99656 3.04991 1.63656 2.80991 1.95656Z" fill="#B41818"/>
<path d="M2.80991 8.98664C2.80991 8.98664 2.79991 8.96664 2.77991 8.94664C2.76991 8.96664 2.7499 8.98664 2.7499 8.98664C2.5099 9.30664 1.99991 8.94664 2.23991 8.60664C2.37991 8.40664 2.67991 8.38664 2.77991 8.05664C2.87991 8.38664 3.1699 8.40664 3.3199 8.60664C3.5599 8.94664 3.04991 9.30664 2.80991 8.98664Z" fill="#B41818"/>
<path d="M3.88998 5.06667C3.88998 5.06667 3.87999 5.08667 3.85999 5.10667C3.84999 5.08667 3.82999 5.06667 3.82999 5.06667C3.58999 4.74667 3.07998 5.10667 3.31998 5.44667C3.45998 5.64667 3.75999 5.66667 3.85999 5.99667C3.95999 5.66667 4.24999 5.64667 4.39999 5.44667C4.63999 5.10667 4.12998 4.74667 3.88998 5.06667Z" fill="#B41818"/>
<path d="M4.95004 1.95656C4.95004 1.95656 4.94005 1.97656 4.92005 1.99656C4.91005 1.97656 4.89004 1.95656 4.89004 1.95656C4.65004 1.63656 4.14004 1.99656 4.38004 2.33656C4.52004 2.53656 4.82005 2.55656 4.92005 2.88656C5.02005 2.55656 5.31004 2.53656 5.46004 2.33656C5.70004 1.99656 5.19004 1.63656 4.95004 1.95656Z" fill="#B41818"/>
<path d="M4.95004 8.98664C4.95004 8.98664 4.94005 8.96664 4.92005 8.94664C4.91005 8.96664 4.89004 8.98664 4.89004 8.98664C4.65004 9.30664 4.14004 8.94664 4.38004 8.60664C4.52004 8.40664 4.82005 8.38664 4.92005 8.05664C5.02005 8.38664 5.31004 8.40664 5.46004 8.60664C5.70004 8.94664 5.19004 9.30664 4.95004 8.98664Z" fill="#B41818"/>
</svg>
