<svg width="8" height="11" viewBox="0 0 8 11" fill="none" xmlns="http://www.w3.org/2000/svg">
<path d="M6.69984 10.1466H0.649845C0.479845 10.1466 0.339844 10.0066 0.339844 9.83664V1.11664C0.339844 0.946641 0.479845 0.806641 0.649845 0.806641H6.69984C6.86984 0.806641 7.00985 0.946641 7.00985 1.11664V9.83664C7.00985 10.0066 6.86984 10.1466 6.69984 10.1466ZM0.649845 0.826641C0.489845 0.826641 0.359844 0.956641 0.359844 1.11664V9.83664C0.359844 9.99664 0.489845 10.1266 0.649845 10.1266H6.69984C6.85984 10.1266 6.98985 9.99664 6.98985 9.83664V1.11664C6.98985 0.956641 6.85984 0.826641 6.69984 0.826641H0.649845Z" fill="#3D3D3D"/>
<path d="M6.70006 10.1666H0.650059C0.460059 10.1666 0.310059 10.0166 0.310059 9.8266V1.1066C0.310059 0.916602 0.460059 0.766602 0.650059 0.766602H6.70006C6.89006 0.766602 7.04006 0.916602 7.04006 1.1066V9.8266C7.04006 10.0166 6.89006 10.1666 6.70006 10.1666ZM0.650059 0.846602C0.500059 0.846602 0.390057 0.966602 0.390057 1.1066V9.8266C0.390057 9.9766 0.510059 10.0866 0.650059 10.0866H6.70006C6.85006 10.0866 6.96006 9.9666 6.96006 9.8266V1.1066C6.96006 0.956602 6.84006 0.846602 6.70006 0.846602H0.650059Z" fill="#3D3D3D"/>
<path d="M6.52008 9.92661H0.820076C0.690076 9.92661 0.580078 9.81661 0.580078 9.68661V1.26661C0.580078 1.13661 0.690076 1.02661 0.820076 1.02661H6.52008C6.65008 1.02661 6.76008 1.13661 6.76008 1.26661V9.68661C6.76008 9.81661 6.65008 9.92661 6.52008 9.92661ZM0.820076 1.07661C0.710076 1.07661 0.630077 1.16661 0.630077 1.26661V9.68661C0.630077 9.79661 0.720076 9.87661 0.820076 9.87661H6.52008C6.63008 9.87661 6.71008 9.78661 6.71008 9.68661V1.26661C6.71008 1.15661 6.62008 1.07661 6.52008 1.07661H0.820076Z" fill="#3D3D3D"/>
<path d="M7.00006 4.44658C7.00006 4.44658 6.93006 4.43658 6.91006 4.44658C6.90006 4.44658 6.89006 4.45658 6.88006 4.46658C6.86006 4.47658 6.84006 4.48658 6.81006 4.48658C6.83006 4.48658 6.85006 4.48658 6.86006 4.48658C6.88006 4.48658 6.89006 4.46658 6.91006 4.46658C6.93006 4.46658 6.95006 4.46658 6.96006 4.47658C6.96006 4.47658 6.96006 4.49658 6.98006 4.47658C6.98006 4.47658 6.98006 4.45658 6.98006 4.44658H7.00006Z" fill="#3D3D3D"/>
<path d="M5.62988 0.796631C5.62988 0.796631 5.68988 0.84663 5.68988 0.89663C5.68988 0.94663 5.66988 0.986631 5.66988 1.03663C5.69988 0.966631 5.72988 0.906631 5.72988 0.826631C5.74988 0.826631 5.76988 0.81663 5.79988 0.81663C5.74988 0.81663 5.70988 0.796631 5.62988 0.796631Z" fill="#3D3D3D"/>
<path d="M5.93994 0.81665C5.93994 0.81665 5.93994 0.896651 5.93994 0.926651C5.94994 0.916651 5.96994 0.856651 5.96994 0.836651C5.96994 0.826651 5.95994 0.81665 5.93994 0.81665Z" fill="#3D3D3D"/>
<path d="M2.68994 0.81665C2.68994 0.81665 2.74994 0.846651 2.75994 0.866651C2.76994 0.886651 2.75994 0.91665 2.77994 0.93665C2.78994 0.96665 2.82994 0.956651 2.85994 0.966651C2.88994 0.966651 2.90994 0.986651 2.93994 0.996651C2.93994 0.976651 2.91994 0.966651 2.89994 0.956651C2.88994 0.956651 2.87994 0.956651 2.86994 0.956651H2.82994C2.82994 0.956651 2.80994 0.896651 2.80994 0.886651C2.80994 0.866651 2.82994 0.856651 2.84994 0.846651C2.83994 0.826651 2.73994 0.846651 2.70994 0.846651L2.68994 0.81665Z" fill="#3D3D3D"/>
<path d="M3.05029 0.81665C3.05029 0.81665 3.06029 0.856651 3.07029 0.876651C3.07029 0.896651 3.07029 0.906651 3.09029 0.916651C3.09029 0.896651 3.09029 0.866651 3.09029 0.836651C3.09029 0.816651 3.0903 0.81665 3.0603 0.81665H3.05029Z" fill="#3D3D3D"/>
<path d="M0.350148 1.26657C0.350148 1.26657 0.410146 1.26657 0.450146 1.27657C0.470146 1.27657 0.450145 1.27657 0.480145 1.27657C0.500145 1.27657 0.510148 1.27657 0.530148 1.27657C0.510148 1.27657 0.490144 1.27657 0.460144 1.27657C0.420144 1.27657 0.430145 1.27657 0.410145 1.25657C0.400145 1.25657 0.380146 1.25657 0.360146 1.25657C0.350146 1.25657 0.360148 1.24657 0.350148 1.23657C0.340148 1.23657 0.350148 1.26657 0.350148 1.27657V1.26657Z" fill="#3D3D3D"/>
<path d="M0.350148 9.43649C0.350148 9.43649 0.410146 9.4365 0.450146 9.4465C0.470146 9.4465 0.450145 9.4465 0.480145 9.4465C0.500145 9.4465 0.510148 9.4465 0.530148 9.4465C0.510148 9.4465 0.490144 9.4465 0.460144 9.4465C0.420144 9.4465 0.430145 9.44649 0.410145 9.42649C0.400145 9.42649 0.380146 9.42649 0.360146 9.42649C0.350146 9.42649 0.360148 9.41649 0.350148 9.40649C0.340148 9.40649 0.350148 9.4365 0.350148 9.4465V9.43649Z" fill="#3D3D3D"/>
<path d="M0.360096 1.02666H0.440098C0.450098 1.00666 0.390095 1.01666 0.390095 0.996663C0.390095 0.986663 0.410097 0.966663 0.400097 0.956663C0.400097 0.926663 0.350098 0.986662 0.350098 1.01666L0.360096 1.02666Z" fill="#3D3D3D"/>
<path d="M4.22996 0.81665C4.22996 0.81665 4.22996 0.816651 4.23996 0.836651C4.23996 0.836651 4.23996 0.856651 4.23996 0.866651C4.23996 0.886651 4.23996 0.906651 4.23996 0.926651C4.23996 0.916651 4.23996 0.906651 4.23996 0.886651C4.23996 0.876651 4.23996 0.86665 4.24996 0.85665C4.24996 0.84665 4.24996 0.836651 4.24996 0.826651C4.24996 0.826651 4.24996 0.826651 4.22996 0.826651C4.22996 0.826651 4.21996 0.826651 4.20996 0.826651L4.22996 0.81665Z" fill="#3D3D3D"/>
<path d="M4.47998 10.1465C4.47998 10.1465 4.53998 10.0965 4.53998 10.0465C4.53998 9.99649 4.51998 9.95649 4.51998 9.90649C4.54998 9.97649 4.57998 10.0365 4.57998 10.1165C4.59998 10.1165 4.61998 10.1265 4.64998 10.1265C4.59998 10.1265 4.55998 10.1465 4.47998 10.1465Z" fill="#3D3D3D"/>
<path d="M0.330078 8.90649C0.330078 8.90649 0.380079 8.96649 0.440079 8.96649C0.490079 8.96649 0.530078 8.9465 0.580078 8.9465C0.510078 8.9765 0.440075 9.00649 0.370075 9.00649C0.370075 9.02649 0.360077 9.04649 0.360077 9.07649C0.360077 9.02649 0.340076 8.98649 0.340076 8.90649H0.330078Z" fill="#3D3D3D"/>
<path d="M4.79004 10.1266C4.79004 10.1266 4.79004 10.0466 4.79004 10.0166C4.80004 10.0266 4.82004 10.0866 4.82004 10.1066C4.82004 10.1166 4.81004 10.1266 4.79004 10.1266Z" fill="#3D3D3D"/>
<path d="M1.54004 10.1265C1.54004 10.1265 1.60004 10.0965 1.61004 10.0765C1.62004 10.0565 1.61004 10.0265 1.63004 10.0065C1.64004 9.97653 1.68004 9.98653 1.71004 9.97653C1.74004 9.97653 1.76004 9.95653 1.79004 9.94653C1.79004 9.96653 1.77004 9.97653 1.75004 9.98653C1.74004 9.98653 1.73004 9.98653 1.72004 9.98653H1.68004C1.68004 9.98653 1.66004 10.0465 1.66004 10.0565C1.66004 10.0765 1.68004 10.0865 1.70004 10.0965C1.69004 10.1165 1.59004 10.0965 1.56004 10.0965L1.54004 10.1265Z" fill="#3D3D3D"/>
<path d="M1.8999 10.1266C1.8999 10.1266 1.9099 10.0866 1.9199 10.0666C1.9199 10.0466 1.9199 10.0366 1.9399 10.0266C1.9399 10.0466 1.9399 10.0766 1.9399 10.1066C1.9399 10.1266 1.9399 10.1266 1.9099 10.1266H1.8999Z" fill="#3D3D3D"/>
<path d="M3.08006 10.1266C3.08006 10.1266 3.08006 10.1266 3.09006 10.1066C3.09006 10.1066 3.09006 10.0866 3.09006 10.0766C3.09006 10.0566 3.09006 10.0366 3.09006 10.0166C3.09006 10.0266 3.09006 10.0366 3.09006 10.0566C3.09006 10.0666 3.09006 10.0766 3.10006 10.0866C3.10006 10.0966 3.10006 10.0966 3.10006 10.1166C3.10006 10.1166 3.10006 10.1166 3.08006 10.1166C3.08006 10.1166 3.07006 10.1166 3.06006 10.1166L3.08006 10.1266Z" fill="#3D3D3D"/>
<path d="M7.00018 2.40649C6.93018 2.40649 6.85018 2.40649 6.78018 2.40649C6.74018 2.40649 6.74018 2.40649 6.72018 2.43649C6.68018 2.48649 6.61017 2.48649 6.55017 2.49649C6.51017 2.50649 6.47018 2.51649 6.43018 2.51649C6.46018 2.54649 6.56018 2.51649 6.60018 2.50649C6.63018 2.50649 6.67018 2.48649 6.70018 2.47649C6.74018 2.44649 6.75017 2.43649 6.80017 2.43649C6.84017 2.43649 6.87018 2.43649 6.92018 2.43649C6.93018 2.43649 6.95018 2.43649 6.97018 2.43649C6.99018 2.43649 6.99018 2.44649 7.01018 2.45649C7.01018 2.44649 7.01018 2.43649 7.01018 2.41649L7.00018 2.40649Z" fill="#3D3D3D"/>
<path d="M6.98983 7.60669C6.91983 7.60669 6.83982 7.60669 6.76982 7.60669C6.72982 7.60669 6.71983 7.63669 6.68983 7.65669C6.65983 7.67669 6.60982 7.68669 6.56982 7.68669C6.60982 7.68669 6.64983 7.68669 6.68983 7.67669C6.72983 7.64669 6.73983 7.63669 6.78983 7.63669C6.85983 7.62669 6.90983 7.63669 6.94983 7.70669C6.96983 7.74669 6.97982 7.75669 6.97982 7.79669C6.97982 7.76669 6.98982 7.73669 6.99982 7.70669C6.99982 7.67669 6.99982 7.64669 6.99982 7.61669L6.98983 7.60669Z" fill="#3D3D3D"/>
<path d="M6.98985 2.65649C6.98985 2.65649 6.87984 2.65649 6.83984 2.66649C6.86984 2.66649 6.88985 2.66649 6.91985 2.66649C6.92985 2.66649 6.93984 2.67649 6.95984 2.68649C6.98984 2.68649 7.00984 2.68649 6.99984 2.65649H6.98985Z" fill="#3D3D3D"/>
<path d="M6.99008 2.21654C6.99008 2.21654 6.86008 2.29654 6.83008 2.28654C6.86008 2.25654 6.90008 2.25654 6.93008 2.23654C6.95008 2.22654 6.97008 2.20654 7.00008 2.20654H6.99008V2.21654Z" fill="#3D3D3D"/>
<path d="M0.330078 3.4265C0.330078 3.4265 0.370076 3.4565 0.390076 3.4665C0.410076 3.4765 0.460076 3.4765 0.480076 3.4765C0.570076 3.4765 0.630075 3.4565 0.710075 3.4365C0.650075 3.4865 0.590077 3.4965 0.520077 3.4965C0.460077 3.4965 0.360078 3.4965 0.330078 3.4165V3.4265Z" fill="#3D3D3D"/>
<path d="M0.349905 3.29659C0.349905 3.21659 0.479903 3.22659 0.539903 3.20659C0.499903 3.19659 0.429902 3.20659 0.389902 3.20659C0.309902 3.20659 0.339903 3.23659 0.359903 3.28659L0.349905 3.29659Z" fill="#3D3D3D"/>
<path d="M0.359863 6.88658C0.359863 6.81658 0.469865 6.84658 0.509865 6.84658C0.549865 6.84658 0.549862 6.82658 0.569862 6.79658C0.579862 6.77658 0.599863 6.75658 0.609863 6.74658C0.569863 6.77658 0.579864 6.84658 0.539864 6.86658C0.489864 6.89658 0.409862 6.84658 0.369862 6.89658C0.369862 6.89658 0.369862 6.87658 0.369862 6.88658H0.359863Z" fill="#3D3D3D"/>
<path d="M0.360196 5.34667C0.360196 5.34667 0.360196 5.38667 0.360196 5.39667C0.360196 5.39667 0.390195 5.42667 0.390195 5.43667C0.390195 5.46667 0.350197 5.47667 0.350197 5.50667C0.350197 5.46667 0.330197 5.37667 0.350197 5.33667L0.360196 5.34667Z" fill="#3D3D3D"/>
<path d="M0.359844 5.52661C0.359844 5.52661 0.399846 5.54661 0.419846 5.54661C0.449846 5.54661 0.449845 5.54661 0.469845 5.56661C0.509845 5.59661 0.519845 5.54661 0.559845 5.54661C0.539845 5.56661 0.519844 5.56661 0.499844 5.57661C0.469844 5.58661 0.469844 5.57661 0.449844 5.56661C0.439844 5.56661 0.399845 5.56661 0.379845 5.56661C0.359845 5.56661 0.359844 5.61661 0.359844 5.63661C0.359844 5.66661 0.389843 5.66661 0.409843 5.67661C0.399843 5.67661 0.369843 5.67661 0.369843 5.67661C0.369843 5.67661 0.369846 5.67661 0.349846 5.67661C0.349846 5.67661 0.339844 5.64661 0.339844 5.63661C0.339844 5.59661 0.339844 5.56661 0.359844 5.53661V5.52661Z" fill="#3D3D3D"/>
<path d="M0.349846 6.74652C0.349846 6.74652 0.429843 6.74652 0.459843 6.70652C0.449843 6.70652 0.429843 6.70652 0.409843 6.70652C0.379843 6.70652 0.359844 6.69652 0.339844 6.68652C0.339844 6.70652 0.339844 6.72652 0.339844 6.73652H0.349846C0.349846 6.73652 0.349846 6.74652 0.349846 6.75652V6.74652Z" fill="#3D3D3D"/>
<path d="M1.14014 2.96655C1.14014 2.96655 1.14014 2.96655 1.14014 2.97655C1.14014 2.97655 1.14014 2.97655 1.15014 2.96655H1.14014Z" fill="white"/>
<path d="M1.28025 1.3667H1.30025C1.30025 1.3667 1.40025 1.3767 1.44025 1.3967C1.46025 1.4067 1.48025 1.4167 1.48025 1.4267C1.50025 1.4367 1.51025 1.4567 1.52025 1.4667C1.54025 1.5067 1.55025 1.5367 1.55025 1.5767C1.55025 1.6367 1.53025 1.6867 1.49025 1.7367C1.49025 1.7467 1.47025 1.7567 1.45025 1.7667C1.45025 1.7667 1.43025 1.7767 1.42025 1.7867C1.42025 1.7867 1.45025 1.8067 1.46025 1.8067C1.50025 1.8267 1.53025 1.8667 1.55025 1.9167C1.56025 1.9467 1.57025 1.9667 1.57025 1.9867V2.0067C1.57025 2.0067 1.56025 2.0967 1.53025 2.1367C1.48025 2.2167 1.39025 2.2567 1.29025 2.2567C1.19025 2.2567 1.11025 2.2267 1.06025 2.1567C1.03025 2.1067 1.01025 2.0567 1.01025 1.9967C1.01025 1.9167 1.04025 1.8567 1.10025 1.8067C1.12025 1.7967 1.13025 1.7867 1.14025 1.7867C1.14025 1.7867 1.10025 1.7667 1.08025 1.7467C1.03025 1.7067 1.01025 1.6567 1.01025 1.5967C1.01025 1.5267 1.03025 1.4767 1.08025 1.4267C1.08025 1.4267 1.10025 1.4067 1.12025 1.3967C1.15025 1.3867 1.17025 1.3767 1.20025 1.3667C1.22025 1.3667 1.24025 1.3667 1.26025 1.3667H1.28025ZM1.22025 1.9867C1.22025 2.0367 1.22025 2.0867 1.23025 2.1267C1.23025 2.1567 1.26025 2.1667 1.28025 2.1667C1.31025 2.1667 1.32025 2.1567 1.33025 2.1367C1.33025 2.1367 1.33025 2.0967 1.34025 2.0267V1.9967C1.34025 1.9267 1.33025 1.8867 1.30025 1.8667H1.28025C1.28025 1.8667 1.23025 1.8967 1.22025 1.9567C1.22025 1.9567 1.22025 1.9767 1.22025 2.0067V1.9867ZM1.23025 1.5567V1.6067C1.23025 1.6567 1.24025 1.6967 1.27025 1.7067H1.29025C1.33025 1.7067 1.35025 1.6667 1.35025 1.5967C1.35025 1.5667 1.35025 1.5267 1.33025 1.4867C1.33025 1.4667 1.30025 1.4567 1.28025 1.4567C1.26025 1.4567 1.24025 1.4667 1.23025 1.4867C1.23025 1.4967 1.23025 1.5167 1.23025 1.5467V1.5567Z" fill="#B41818"/>
<path d="M6.06002 9.5565H6.04002C6.04002 9.5565 5.94002 9.5465 5.90002 9.5265C5.88002 9.5165 5.86002 9.5065 5.86002 9.4965C5.84002 9.4865 5.83002 9.4665 5.82002 9.4565C5.80002 9.4165 5.79002 9.3865 5.79002 9.3465C5.79002 9.2865 5.81002 9.2365 5.85002 9.1865C5.85002 9.1765 5.87002 9.1665 5.89002 9.1565C5.89002 9.1565 5.91002 9.1465 5.92002 9.1365C5.92002 9.1365 5.89002 9.1165 5.88002 9.1165C5.84002 9.0965 5.81002 9.0565 5.79002 9.0065C5.78002 8.9765 5.77002 8.9565 5.77002 8.9365V8.9165C5.77002 8.9165 5.78002 8.8265 5.81002 8.7865C5.86002 8.7065 5.95002 8.6665 6.05002 8.6665C6.15002 8.6665 6.23002 8.6965 6.28002 8.7665C6.31002 8.8165 6.33002 8.8665 6.33002 8.9265C6.33002 9.0065 6.30002 9.0665 6.24002 9.1165C6.22002 9.1265 6.21002 9.1365 6.20002 9.1365C6.20002 9.1365 6.24002 9.1565 6.26002 9.1765C6.31002 9.2165 6.33002 9.2665 6.33002 9.3265C6.33002 9.3965 6.31002 9.4465 6.26002 9.4965C6.26002 9.4965 6.24002 9.5165 6.22002 9.5265C6.19002 9.5365 6.17002 9.5465 6.14002 9.5565C6.12002 9.5565 6.10002 9.5565 6.08002 9.5565H6.06002ZM6.11002 9.3665V9.3165C6.11002 9.2665 6.10002 9.2265 6.07002 9.2165H6.05002C6.01002 9.2165 5.99002 9.2565 5.99002 9.3265C5.99002 9.3565 5.99002 9.3965 6.01002 9.4365C6.01002 9.4565 6.04002 9.4665 6.06002 9.4665C6.08002 9.4665 6.10002 9.4565 6.11002 9.4365C6.11002 9.4265 6.11002 9.4065 6.11002 9.3765V9.3665ZM6.12002 8.9365C6.12002 8.8865 6.12002 8.8365 6.11002 8.7965C6.11002 8.7665 6.08002 8.7565 6.06002 8.7565C6.03002 8.7565 6.02002 8.7665 6.01002 8.7865C6.01002 8.7865 6.01002 8.8265 6.00002 8.8965V8.9265C6.00002 8.9965 6.01002 9.0365 6.04002 9.0565H6.06002C6.06002 9.0565 6.11002 9.0265 6.12002 8.9665C6.12002 8.9665 6.12002 8.9465 6.12002 8.9165V8.9365Z" fill="#B41818"/>
<path d="M1.32026 2.60655C1.32026 2.60655 1.32026 2.61655 1.30026 2.62655C1.30026 2.61655 1.28027 2.60655 1.28027 2.60655C1.14027 2.41655 0.820266 2.62655 0.970266 2.83655C1.06027 2.95655 1.24026 2.96655 1.30026 3.17655C1.36026 2.97655 1.54027 2.96655 1.63027 2.83655C1.78027 2.62655 1.47026 2.41655 1.32026 2.60655Z" fill="#B41818"/>
<path d="M6.03985 8.31658C6.03985 8.31658 6.03985 8.30658 6.01985 8.29658C6.01985 8.30658 5.99985 8.31658 5.99985 8.31658C5.84985 8.50658 5.53985 8.29658 5.68985 8.08658C5.77985 7.96658 5.95985 7.95658 6.01985 7.74658C6.07985 7.94658 6.25985 7.95658 6.34985 8.08658C6.49985 8.29658 6.18985 8.50658 6.03985 8.31658Z" fill="#B41818"/>
<path d="M2.61997 4.02663C2.61997 4.02663 2.60997 4.04663 2.58997 4.06663C2.57997 4.04663 2.55997 4.02663 2.55997 4.02663C2.31997 3.70663 1.80997 4.06663 2.04997 4.40663C2.18997 4.60663 2.48997 4.62663 2.58997 4.95663C2.68997 4.62663 2.97997 4.60663 3.12997 4.40663C3.36997 4.06663 2.85997 3.70663 2.61997 4.02663Z" fill="#B41818"/>
<path d="M2.61997 1.95656C2.61997 1.95656 2.60997 1.97656 2.58997 1.99656C2.57997 1.97656 2.55997 1.95656 2.55997 1.95656C2.31997 1.63656 1.80997 1.99656 2.04997 2.33656C2.18997 2.53656 2.48997 2.55656 2.58997 2.88656C2.68997 2.55656 2.97997 2.53656 3.12997 2.33656C3.36997 1.99656 2.85997 1.63656 2.61997 1.95656Z" fill="#B41818"/>
<path d="M2.61997 8.98664C2.61997 8.98664 2.60997 8.96664 2.58997 8.94664C2.57997 8.96664 2.55997 8.98664 2.55997 8.98664C2.31997 9.30664 1.80997 8.94664 2.04997 8.60664C2.18997 8.40664 2.48997 8.38664 2.58997 8.05664C2.68997 8.38664 2.97997 8.40664 3.12997 8.60664C3.36997 8.94664 2.85997 9.30664 2.61997 8.98664Z" fill="#B41818"/>
<path d="M2.61997 6.91657C2.61997 6.91657 2.60997 6.89657 2.58997 6.87657C2.57997 6.89657 2.55997 6.91657 2.55997 6.91657C2.31997 7.23657 1.80997 6.87657 2.04997 6.53657C2.18997 6.33657 2.48997 6.31657 2.58997 5.98657C2.68997 6.31657 2.97997 6.33657 3.12997 6.53657C3.36997 6.87657 2.85997 7.23657 2.61997 6.91657Z" fill="#B41818"/>
<path d="M4.7601 4.02663C4.7601 4.02663 4.7501 4.04663 4.7301 4.06663C4.7201 4.04663 4.7001 4.02663 4.7001 4.02663C4.4601 3.70663 3.9501 4.06663 4.1901 4.40663C4.3301 4.60663 4.6301 4.62663 4.7301 4.95663C4.8301 4.62663 5.1201 4.60663 5.2701 4.40663C5.5101 4.06663 5.0001 3.70663 4.7601 4.02663Z" fill="#B41818"/>
<path d="M4.7601 1.95656C4.7601 1.95656 4.7501 1.97656 4.7301 1.99656C4.7201 1.97656 4.7001 1.95656 4.7001 1.95656C4.4601 1.63656 3.9501 1.99656 4.1901 2.33656C4.3301 2.53656 4.6301 2.55656 4.7301 2.88656C4.8301 2.55656 5.1201 2.53656 5.2701 2.33656C5.5101 1.99656 5.0001 1.63656 4.7601 1.95656Z" fill="#B41818"/>
<path d="M4.7601 8.98664C4.7601 8.98664 4.7501 8.96664 4.7301 8.94664C4.7201 8.96664 4.7001 8.98664 4.7001 8.98664C4.4601 9.30664 3.9501 8.94664 4.1901 8.60664C4.3301 8.40664 4.6301 8.38664 4.7301 8.05664C4.8301 8.38664 5.1201 8.40664 5.2701 8.60664C5.5101 8.94664 5.0001 9.30664 4.7601 8.98664Z" fill="#B41818"/>
<path d="M4.7601 6.91657C4.7601 6.91657 4.7501 6.89657 4.7301 6.87657C4.7201 6.89657 4.7001 6.91657 4.7001 6.91657C4.4601 7.23657 3.9501 6.87657 4.1901 6.53657C4.3301 6.33657 4.6301 6.31657 4.7301 5.98657C4.8301 6.31657 5.1201 6.33657 5.2701 6.53657C5.5101 6.87657 5.0001 7.23657 4.7601 6.91657Z" fill="#B41818"/>
</svg>
