<svg width="8" height="11" viewBox="0 0 8 11" fill="none" xmlns="http://www.w3.org/2000/svg">
<path d="M7.15981 10.1466H1.10981C0.939806 10.1466 0.799805 10.0066 0.799805 9.83664V1.11664C0.799805 0.946641 0.939806 0.806641 1.10981 0.806641H7.15981C7.32981 0.806641 7.4698 0.946641 7.4698 1.11664V9.83664C7.4698 10.0066 7.32981 10.1466 7.15981 10.1466ZM1.10981 0.826641C0.949806 0.826641 0.819805 0.956641 0.819805 1.11664V9.83664C0.819805 9.99664 0.949806 10.1266 1.10981 10.1266H7.15981C7.31981 10.1266 7.44981 9.99664 7.44981 9.83664V1.11664C7.44981 0.956641 7.31981 0.826641 7.15981 0.826641H1.10981Z" fill="#3D3D3D"/>
<path d="M7.16002 10.1666H1.11002C0.92002 10.1666 0.77002 10.0166 0.77002 9.8266V1.1066C0.77002 0.916602 0.92002 0.766602 1.11002 0.766602H7.16002C7.35002 0.766602 7.50002 0.916602 7.50002 1.1066V9.8266C7.50002 10.0166 7.35002 10.1666 7.16002 10.1666ZM1.11002 0.846602C0.96002 0.846602 0.850018 0.966602 0.850018 1.1066V9.8266C0.850018 9.9766 0.97002 10.0866 1.11002 10.0866H7.16002C7.31002 10.0866 7.42002 9.9666 7.42002 9.8266V1.1066C7.42002 0.956602 7.30002 0.846602 7.16002 0.846602H1.11002Z" fill="#3D3D3D"/>
<path d="M6.98004 9.92661H1.28004C1.15004 9.92661 1.04004 9.81661 1.04004 9.68661V1.26661C1.04004 1.13661 1.15004 1.02661 1.28004 1.02661H6.98004C7.11004 1.02661 7.22004 1.13661 7.22004 1.26661V9.68661C7.22004 9.81661 7.11004 9.92661 6.98004 9.92661ZM1.28004 1.07661C1.17004 1.07661 1.09004 1.16661 1.09004 1.26661V9.68661C1.09004 9.79661 1.18004 9.87661 1.28004 9.87661H6.98004C7.09004 9.87661 7.17004 9.78661 7.17004 9.68661V1.26661C7.17004 1.15661 7.08004 1.07661 6.98004 1.07661H1.28004Z" fill="#3D3D3D"/>
<path d="M7.46002 4.44658C7.46002 4.44658 7.39002 4.43658 7.37002 4.44658C7.36002 4.44658 7.35002 4.45658 7.34002 4.46658C7.32002 4.47658 7.30002 4.48658 7.27002 4.48658C7.29002 4.48658 7.31001 4.48658 7.32001 4.48658C7.34001 4.48658 7.35002 4.46658 7.37002 4.46658C7.39002 4.46658 7.41002 4.46658 7.42002 4.47658C7.42002 4.47658 7.42002 4.49658 7.44002 4.47658C7.44002 4.47658 7.44002 4.45658 7.44002 4.44658H7.46002Z" fill="#3D3D3D"/>
<path d="M6.08984 0.796631C6.08984 0.796631 6.14984 0.84663 6.14984 0.89663C6.14984 0.94663 6.12984 0.986631 6.12984 1.03663C6.15984 0.966631 6.18984 0.906631 6.18984 0.826631C6.20984 0.826631 6.22984 0.81663 6.25984 0.81663C6.20984 0.81663 6.16984 0.796631 6.08984 0.796631Z" fill="#3D3D3D"/>
<path d="M6.3999 0.81665C6.3999 0.81665 6.3999 0.896651 6.3999 0.926651C6.4099 0.916651 6.4299 0.856651 6.4299 0.836651C6.4299 0.826651 6.4199 0.81665 6.3999 0.81665Z" fill="#3D3D3D"/>
<path d="M3.1499 0.81665C3.1499 0.81665 3.2099 0.846651 3.2199 0.866651C3.2299 0.886651 3.21991 0.91665 3.23991 0.93665C3.24991 0.96665 3.2899 0.956651 3.3199 0.966651C3.3499 0.966651 3.3699 0.986651 3.3999 0.996651C3.3999 0.976651 3.3799 0.966651 3.3599 0.956651C3.3499 0.956651 3.3399 0.956651 3.3299 0.956651H3.2899C3.2899 0.956651 3.26991 0.896651 3.26991 0.886651C3.26991 0.866651 3.28991 0.856651 3.30991 0.846651C3.29991 0.826651 3.19991 0.846651 3.16991 0.846651L3.1499 0.81665Z" fill="#3D3D3D"/>
<path d="M3.51025 0.81665C3.51025 0.81665 3.52026 0.856651 3.53026 0.876651C3.53026 0.896651 3.53025 0.906651 3.55025 0.916651C3.55025 0.896651 3.55025 0.866651 3.55025 0.836651C3.55025 0.816651 3.55026 0.81665 3.52026 0.81665H3.51025Z" fill="#3D3D3D"/>
<path d="M0.810109 1.26657C0.810109 1.26657 0.870107 1.26657 0.910107 1.27657C0.930107 1.27657 0.910106 1.27657 0.940106 1.27657C0.960106 1.27657 0.970105 1.27657 0.990105 1.27657C0.970105 1.27657 0.950105 1.27657 0.920105 1.27657C0.880105 1.27657 0.890106 1.27657 0.870106 1.25657C0.860106 1.25657 0.840107 1.25657 0.820107 1.25657C0.810107 1.25657 0.820109 1.24657 0.810109 1.23657C0.800109 1.23657 0.810109 1.26657 0.810109 1.27657V1.26657Z" fill="#3D3D3D"/>
<path d="M0.810109 9.43649C0.810109 9.43649 0.870107 9.4365 0.910107 9.4465C0.930107 9.4465 0.910106 9.4465 0.940106 9.4465C0.960106 9.4465 0.970105 9.4465 0.990105 9.4465C0.970105 9.4465 0.950105 9.4465 0.920105 9.4465C0.880105 9.4465 0.890106 9.44649 0.870106 9.42649C0.860106 9.42649 0.840107 9.42649 0.820107 9.42649C0.810107 9.42649 0.820109 9.41649 0.810109 9.40649C0.800109 9.40649 0.810109 9.4365 0.810109 9.4465V9.43649Z" fill="#3D3D3D"/>
<path d="M0.820205 1.02666H0.900203C0.910203 1.00666 0.850203 1.01666 0.850203 0.996663C0.850203 0.986663 0.870206 0.966663 0.860206 0.956663C0.860206 0.926663 0.800206 0.986662 0.810206 1.01666L0.820205 1.02666Z" fill="#3D3D3D"/>
<path d="M4.68992 0.81665C4.68992 0.81665 4.68992 0.816651 4.69992 0.836651C4.69992 0.836651 4.69992 0.856651 4.69992 0.866651C4.69992 0.886651 4.69992 0.906651 4.69992 0.926651C4.69992 0.916651 4.69992 0.906651 4.69992 0.886651C4.69992 0.876651 4.69992 0.86665 4.70992 0.85665C4.70992 0.84665 4.70992 0.836651 4.70992 0.826651C4.70992 0.826651 4.70992 0.826651 4.68992 0.826651C4.68992 0.826651 4.67992 0.826651 4.66992 0.826651L4.68992 0.81665Z" fill="#3D3D3D"/>
<path d="M4.93994 10.1465C4.93994 10.1465 4.99994 10.0965 4.99994 10.0465C4.99994 9.99649 4.97994 9.95649 4.97994 9.90649C5.00994 9.97649 5.03994 10.0365 5.03994 10.1165C5.05994 10.1165 5.07994 10.1265 5.10994 10.1265C5.05994 10.1265 5.01994 10.1465 4.93994 10.1465Z" fill="#3D3D3D"/>
<path d="M0.790039 8.90649C0.790039 8.90649 0.840038 8.96649 0.890038 8.96649C0.940038 8.96649 0.980037 8.9465 1.03004 8.9465C0.960037 8.9765 0.890038 9.00649 0.820038 9.00649C0.820038 9.02649 0.81004 9.04649 0.81004 9.07649C0.81004 9.02649 0.790039 8.98649 0.790039 8.90649Z" fill="#3D3D3D"/>
<path d="M5.25 10.1266C5.25 10.1266 5.25 10.0466 5.25 10.0166C5.26 10.0266 5.28001 10.0866 5.28001 10.1066C5.28001 10.1166 5.27 10.1266 5.25 10.1266Z" fill="#3D3D3D"/>
<path d="M2 10.1265C2 10.1265 2.06 10.0965 2.07 10.0765C2.08 10.0565 2.07 10.0265 2.09 10.0065C2.1 9.97653 2.14001 9.98653 2.17001 9.97653C2.20001 9.97653 2.22 9.95653 2.25 9.94653C2.25 9.96653 2.23001 9.97653 2.21001 9.98653C2.20001 9.98653 2.19 9.98653 2.18 9.98653H2.14001C2.14001 9.98653 2.12 10.0465 2.12 10.0565C2.12 10.0765 2.14 10.0865 2.16 10.0965C2.15 10.1165 2.05 10.0965 2.02 10.0965L2 10.1265Z" fill="#3D3D3D"/>
<path d="M2.35986 10.1266C2.35986 10.1266 2.36987 10.0866 2.37987 10.0666C2.37987 10.0466 2.37986 10.0366 2.39986 10.0266C2.39986 10.0466 2.39986 10.0766 2.39986 10.1066C2.39986 10.1266 2.39987 10.1266 2.36987 10.1266H2.35986Z" fill="#3D3D3D"/>
<path d="M3.54002 10.1266C3.54002 10.1266 3.54002 10.1266 3.55002 10.1066C3.55002 10.1066 3.55002 10.0866 3.55002 10.0766C3.55002 10.0566 3.55002 10.0366 3.55002 10.0166C3.55002 10.0266 3.55002 10.0366 3.55002 10.0566C3.55002 10.0666 3.55002 10.0766 3.56002 10.0866C3.56002 10.0966 3.56002 10.0966 3.56002 10.1166C3.56002 10.1166 3.56002 10.1166 3.54002 10.1166C3.54002 10.1166 3.53002 10.1166 3.52002 10.1166L3.54002 10.1266Z" fill="#3D3D3D"/>
<path d="M7.46014 2.40649C7.39014 2.40649 7.31014 2.40649 7.24014 2.40649C7.20014 2.40649 7.20013 2.40649 7.18013 2.43649C7.14013 2.48649 7.07013 2.48649 7.01013 2.49649C6.97013 2.50649 6.93014 2.51649 6.89014 2.51649C6.92014 2.54649 7.02013 2.51649 7.06013 2.50649C7.09013 2.50649 7.13013 2.48649 7.16013 2.47649C7.20013 2.44649 7.21013 2.43649 7.26013 2.43649C7.30013 2.43649 7.33013 2.43649 7.38013 2.43649C7.39013 2.43649 7.41013 2.43649 7.43013 2.43649C7.45013 2.43649 7.45013 2.44649 7.47013 2.45649C7.47013 2.44649 7.47013 2.43649 7.47013 2.41649L7.46014 2.40649Z" fill="#3D3D3D"/>
<path d="M7.44978 7.60669C7.37978 7.60669 7.29978 7.60669 7.22978 7.60669C7.18978 7.60669 7.17978 7.63669 7.14978 7.65669C7.11978 7.67669 7.06979 7.68669 7.02979 7.68669C7.06979 7.68669 7.10978 7.68669 7.14978 7.67669C7.18978 7.64669 7.19978 7.63669 7.24978 7.63669C7.31978 7.62669 7.36978 7.63669 7.40978 7.70669C7.42978 7.74669 7.43978 7.75669 7.43978 7.79669C7.43978 7.76669 7.44979 7.73669 7.45979 7.70669C7.45979 7.67669 7.45979 7.64669 7.45979 7.61669L7.44978 7.60669Z" fill="#3D3D3D"/>
<path d="M7.44981 2.65649C7.44981 2.65649 7.3398 2.65649 7.2998 2.66649C7.3298 2.66649 7.34981 2.66649 7.37981 2.66649C7.38981 2.66649 7.39981 2.67649 7.41981 2.68649C7.44981 2.68649 7.46981 2.68649 7.45981 2.65649H7.44981Z" fill="#3D3D3D"/>
<path d="M7.45004 2.21654C7.45004 2.21654 7.32004 2.29654 7.29004 2.28654C7.32004 2.25654 7.36005 2.25654 7.39005 2.23654C7.41005 2.22654 7.43004 2.20654 7.46004 2.20654H7.45004V2.21654Z" fill="#3D3D3D"/>
<path d="M0.790039 3.4265C0.790039 3.4265 0.830037 3.4565 0.850037 3.4665C0.870037 3.4765 0.920037 3.4765 0.940037 3.4765C1.03004 3.4765 1.09004 3.4565 1.17004 3.4365C1.11004 3.4865 1.05004 3.4965 0.980038 3.4965C0.920038 3.4965 0.820039 3.4965 0.790039 3.4165V3.4265Z" fill="#3D3D3D"/>
<path d="M0.809866 3.29659C0.809866 3.21659 0.939864 3.22659 0.999864 3.20659C0.959864 3.19659 0.889863 3.20659 0.849863 3.20659C0.769863 3.20659 0.799864 3.23659 0.819864 3.28659L0.809866 3.29659Z" fill="#3D3D3D"/>
<path d="M0.819824 6.88658C0.819824 6.81658 0.929826 6.84658 0.969826 6.84658C1.00983 6.84658 1.00982 6.82658 1.02982 6.79658C1.03982 6.77658 1.05982 6.75658 1.06982 6.74658C1.02982 6.77658 1.03982 6.84658 0.999825 6.86658C0.949825 6.89658 0.869823 6.84658 0.829823 6.89658C0.829823 6.89658 0.829823 6.87658 0.829823 6.88658H0.819824Z" fill="#3D3D3D"/>
<path d="M0.820157 5.34667C0.820157 5.34667 0.820157 5.38667 0.820157 5.39667C0.820157 5.39667 0.850156 5.42667 0.850156 5.43667C0.850156 5.46667 0.810158 5.47667 0.810158 5.50667C0.810158 5.46667 0.790158 5.37667 0.810158 5.33667L0.820157 5.34667Z" fill="#3D3D3D"/>
<path d="M0.819805 5.52661C0.819805 5.52661 0.859807 5.54661 0.879807 5.54661C0.909807 5.54661 0.909806 5.54661 0.929806 5.56661C0.969806 5.59661 0.979806 5.54661 1.01981 5.54661C0.999806 5.56661 0.979805 5.56661 0.959805 5.57661C0.929805 5.58661 0.929805 5.57661 0.909805 5.56661C0.899805 5.56661 0.859806 5.56661 0.839806 5.56661C0.819806 5.56661 0.819805 5.61661 0.819805 5.63661C0.819805 5.66661 0.849804 5.66661 0.869804 5.67661C0.859804 5.67661 0.829803 5.67661 0.829803 5.67661C0.829803 5.67661 0.829807 5.67661 0.809807 5.67661C0.809807 5.67661 0.799805 5.64661 0.799805 5.63661C0.799805 5.59661 0.799805 5.56661 0.819805 5.53661V5.52661Z" fill="#3D3D3D"/>
<path d="M0.809807 6.74652C0.809807 6.74652 0.889804 6.74652 0.919804 6.70652C0.909804 6.70652 0.889804 6.70652 0.869804 6.70652C0.839804 6.70652 0.819805 6.69652 0.799805 6.68652C0.799805 6.70652 0.799805 6.72652 0.799805 6.73652H0.809807C0.809807 6.73652 0.809807 6.74652 0.809807 6.75652V6.74652Z" fill="#3D3D3D"/>
<path d="M1.6001 2.96655C1.6001 2.96655 1.6001 2.96655 1.6001 2.97655C1.6001 2.97655 1.6001 2.97655 1.6101 2.96655H1.6001Z" fill="white"/>
<path d="M1.76017 1.3667H1.78017C1.78017 1.3667 1.85017 1.3667 1.89017 1.3967C1.91017 1.4067 1.93017 1.4267 1.94017 1.4367C1.96017 1.4567 1.97018 1.4667 1.98018 1.4867C1.99018 1.5067 2.00017 1.5267 2.01017 1.5467C2.01017 1.5667 2.01017 1.5867 2.01017 1.5967H1.83017C1.83017 1.5967 1.83017 1.5967 1.83017 1.5767C1.83017 1.5267 1.80017 1.5067 1.78017 1.5067C1.78017 1.5067 1.74018 1.5267 1.73018 1.5667C1.72018 1.6067 1.71017 1.6567 1.71017 1.7367C1.71017 1.7367 1.78017 1.6967 1.83017 1.6967C1.89017 1.6967 1.94018 1.7267 1.98018 1.7967C1.99018 1.8167 2.00017 1.8367 2.01017 1.8767C2.02017 1.9267 2.03018 1.9667 2.03018 2.0067V2.0367C2.03018 2.1067 2.01018 2.1667 1.98018 2.2067C1.94018 2.2567 1.87017 2.2767 1.78017 2.2767C1.64017 2.2767 1.56018 2.2067 1.52018 2.0767C1.51018 2.0367 1.50018 1.9667 1.50018 1.8867C1.50018 1.8867 1.50018 1.8567 1.48018 1.8367C1.48018 1.8367 1.46018 1.8167 1.45018 1.8167C1.45018 1.8167 1.44018 1.8167 1.43018 1.8167C1.43018 1.8167 1.47018 1.7967 1.48018 1.7867C1.50018 1.7667 1.50018 1.7467 1.50018 1.7067C1.50018 1.6267 1.52018 1.5667 1.52018 1.5467C1.52018 1.5167 1.54017 1.4967 1.55017 1.4767C1.56017 1.4567 1.58017 1.4367 1.60017 1.4267C1.63017 1.4067 1.66017 1.3867 1.71017 1.3767C1.73017 1.3767 1.75017 1.3767 1.76017 1.3767V1.3667ZM1.71017 1.9667C1.71017 2.0567 1.71017 2.0967 1.71017 2.1067C1.71017 2.1467 1.74017 2.1567 1.76017 2.1567C1.78017 2.1567 1.80018 2.1467 1.81018 2.1167C1.81018 2.0867 1.82018 2.0367 1.82018 1.9667C1.82018 1.9067 1.82017 1.8667 1.80017 1.8467C1.80017 1.8467 1.78018 1.8367 1.77018 1.8367C1.77018 1.8367 1.73018 1.8467 1.72018 1.8767C1.72018 1.8967 1.72018 1.9267 1.72018 1.9667H1.71017Z" fill="#B41818"/>
<path d="M6.45995 9.56649H6.43994C6.43994 9.56649 6.36994 9.56649 6.32994 9.53649C6.30994 9.52649 6.28995 9.50649 6.27995 9.49649C6.25995 9.47649 6.24994 9.4665 6.23994 9.4465C6.22994 9.4265 6.21995 9.40649 6.20995 9.38649C6.20995 9.36649 6.20995 9.34649 6.20995 9.33649H6.38995C6.38995 9.33649 6.38995 9.33649 6.38995 9.35649C6.38995 9.40649 6.41994 9.42649 6.43994 9.42649C6.43994 9.42649 6.47994 9.4065 6.48994 9.3665C6.49994 9.3265 6.50994 9.2765 6.50994 9.1965C6.50994 9.1965 6.43995 9.23649 6.38995 9.23649C6.32995 9.23649 6.27994 9.20649 6.23994 9.13649C6.22994 9.11649 6.21995 9.09649 6.20995 9.05649C6.19995 9.00649 6.18994 8.96649 6.18994 8.92649V8.89649C6.18994 8.82649 6.20994 8.76649 6.23994 8.72649C6.27994 8.67649 6.34994 8.65649 6.43994 8.65649C6.57994 8.65649 6.65994 8.72649 6.69994 8.85649C6.70994 8.89649 6.71994 8.96649 6.71994 9.04649C6.71994 9.04649 6.71994 9.07649 6.73994 9.09649C6.73994 9.09649 6.75994 9.1165 6.76994 9.1165C6.76994 9.1165 6.77994 9.1165 6.78994 9.1165C6.78994 9.1165 6.74994 9.13649 6.73994 9.14649C6.71994 9.16649 6.71994 9.18649 6.71994 9.22649C6.71994 9.30649 6.69994 9.36649 6.69994 9.38649C6.69994 9.41649 6.67994 9.43649 6.66994 9.45649C6.65994 9.47649 6.63994 9.49649 6.61994 9.50649C6.58994 9.52649 6.55994 9.54649 6.50994 9.55649C6.48994 9.55649 6.46995 9.55649 6.45995 9.55649V9.56649ZM6.51994 8.96649C6.51994 8.87649 6.51994 8.83649 6.51994 8.82649C6.51994 8.78649 6.48994 8.77649 6.46994 8.77649C6.44994 8.77649 6.42994 8.78649 6.41994 8.81649C6.41994 8.84649 6.40994 8.89649 6.40994 8.96649C6.40994 9.02649 6.40994 9.06649 6.42994 9.08649C6.42994 9.08649 6.44995 9.09649 6.45995 9.09649C6.45995 9.09649 6.49994 9.08649 6.50994 9.05649C6.50994 9.03649 6.50994 9.00649 6.50994 8.96649H6.51994Z" fill="#B41818"/>
<path d="M1.78008 2.60655C1.78008 2.60655 1.78008 2.61655 1.76008 2.62655C1.76008 2.61655 1.74008 2.60655 1.74008 2.60655C1.59008 2.41655 1.28008 2.62655 1.43008 2.83655C1.52008 2.95655 1.70008 2.96655 1.76008 3.17655C1.82008 2.97655 2.00008 2.96655 2.09008 2.83655C2.24008 2.62655 1.93008 2.41655 1.78008 2.60655Z" fill="#B41818"/>
<path d="M6.49995 8.31658C6.49995 8.31658 6.49996 8.30658 6.47996 8.29658C6.47996 8.30658 6.45996 8.31658 6.45996 8.31658C6.31996 8.50658 5.99995 8.29658 6.14995 8.08658C6.23995 7.96658 6.41996 7.95658 6.47996 7.74658C6.53996 7.94658 6.71996 7.95658 6.80996 8.08658C6.95996 8.29658 6.64995 8.50658 6.49995 8.31658Z" fill="#B41818"/>
<path d="M3.07993 5.06667C3.07993 5.06667 3.06993 5.08667 3.04993 5.10667C3.03993 5.08667 3.01993 5.06667 3.01993 5.06667C2.77993 4.74667 2.26993 5.10667 2.50993 5.44667C2.64993 5.64667 2.94993 5.66667 3.04993 5.99667C3.14993 5.66667 3.43993 5.64667 3.58993 5.44667C3.82993 5.10667 3.31993 4.74667 3.07993 5.06667Z" fill="#B41818"/>
<path d="M3.07993 1.95656C3.07993 1.95656 3.06993 1.97656 3.04993 1.99656C3.03993 1.97656 3.01993 1.95656 3.01993 1.95656C2.77993 1.63656 2.26993 1.99656 2.50993 2.33656C2.64993 2.53656 2.94993 2.55656 3.04993 2.88656C3.14993 2.55656 3.43993 2.53656 3.58993 2.33656C3.82993 1.99656 3.31993 1.63656 3.07993 1.95656Z" fill="#B41818"/>
<path d="M3.07993 8.98664C3.07993 8.98664 3.06993 8.96664 3.04993 8.94664C3.03993 8.96664 3.01993 8.98664 3.01993 8.98664C2.77993 9.30664 2.26993 8.94664 2.50993 8.60664C2.64993 8.40664 2.94993 8.38664 3.04993 8.05664C3.14993 8.38664 3.43993 8.40664 3.58993 8.60664C3.82993 8.94664 3.31993 9.30664 3.07993 8.98664Z" fill="#B41818"/>
<path d="M5.22006 5.06667C5.22006 5.06667 5.21006 5.08667 5.19006 5.10667C5.18006 5.08667 5.16007 5.06667 5.16007 5.06667C4.92007 4.74667 4.41006 5.10667 4.65006 5.44667C4.79006 5.64667 5.09006 5.66667 5.19006 5.99667C5.29006 5.66667 5.58006 5.64667 5.73006 5.44667C5.97006 5.10667 5.46006 4.74667 5.22006 5.06667Z" fill="#B41818"/>
<path d="M5.22006 1.95656C5.22006 1.95656 5.21006 1.97656 5.19006 1.99656C5.18006 1.97656 5.16007 1.95656 5.16007 1.95656C4.92007 1.63656 4.41006 1.99656 4.65006 2.33656C4.79006 2.53656 5.09006 2.55656 5.19006 2.88656C5.29006 2.55656 5.58006 2.53656 5.73006 2.33656C5.97006 1.99656 5.46006 1.63656 5.22006 1.95656Z" fill="#B41818"/>
<path d="M5.22006 8.98664C5.22006 8.98664 5.21006 8.96664 5.19006 8.94664C5.18006 8.96664 5.16007 8.98664 5.16007 8.98664C4.92007 9.30664 4.41006 8.94664 4.65006 8.60664C4.79006 8.40664 5.09006 8.38664 5.19006 8.05664C5.29006 8.38664 5.58006 8.40664 5.73006 8.60664C5.97006 8.94664 5.46006 9.30664 5.22006 8.98664Z" fill="#B41818"/>
</svg>
