<svg width="8" height="11" viewBox="0 0 8 11" fill="none" xmlns="http://www.w3.org/2000/svg">
<path d="M6.96986 10.2699H0.919865C0.749865 10.2699 0.609863 10.1299 0.609863 9.95993V1.23993C0.609863 1.06993 0.749865 0.929932 0.919865 0.929932H6.96986C7.13986 0.929932 7.27987 1.06993 7.27987 1.23993V9.95993C7.27987 10.1299 7.13986 10.2699 6.96986 10.2699ZM0.919865 0.949932C0.759865 0.949932 0.629864 1.07993 0.629864 1.23993V9.95993C0.629864 10.1199 0.759865 10.2499 0.919865 10.2499H6.96986C7.12986 10.2499 7.25986 10.1199 7.25986 9.95993V1.23993C7.25986 1.07993 7.12986 0.949932 6.96986 0.949932H0.919865Z" fill="#3D3D3D"/>
<path d="M6.97008 10.2999H0.920078C0.730078 10.2999 0.580078 10.1499 0.580078 9.9599V1.2399C0.580078 1.0499 0.730078 0.899902 0.920078 0.899902H6.97008C7.16008 0.899902 7.31008 1.0499 7.31008 1.2399V9.9599C7.31008 10.1499 7.16008 10.2999 6.97008 10.2999ZM0.920078 0.969902C0.770078 0.969902 0.660076 1.0899 0.660076 1.2299V9.9499C0.660076 10.0999 0.780078 10.2099 0.920078 10.2099H6.97008C7.12008 10.2099 7.23008 10.0899 7.23008 9.9499V1.2299C7.23008 1.0799 7.11008 0.969902 6.97008 0.969902H0.920078Z" fill="#3D3D3D"/>
<path d="M6.7901 10.0499H1.0901C0.960096 10.0499 0.850098 9.9399 0.850098 9.8099V1.3899C0.850098 1.2599 0.960096 1.1499 1.0901 1.1499H6.7901C6.9201 1.1499 7.0301 1.2599 7.0301 1.3899V9.8099C7.0301 9.9399 6.9201 10.0499 6.7901 10.0499ZM1.0901 1.1999C0.980096 1.1999 0.900097 1.2899 0.900097 1.3899V9.8099C0.900097 9.9199 0.990096 9.9999 1.0901 9.9999H6.7901C6.9001 9.9999 6.98009 9.9099 6.98009 9.8099V1.3899C6.98009 1.2799 6.8901 1.1999 6.7901 1.1999H1.0901Z" fill="#3D3D3D"/>
<path d="M7.27008 4.56987C7.27008 4.56987 7.20008 4.55987 7.18008 4.56987C7.17008 4.56987 7.16008 4.57987 7.15008 4.58987C7.13008 4.59987 7.11008 4.60988 7.08008 4.60988C7.10008 4.60988 7.12008 4.60988 7.13008 4.60988C7.15008 4.60988 7.16008 4.58987 7.18008 4.58987C7.20008 4.58987 7.22008 4.58987 7.23008 4.59987C7.23008 4.59987 7.23008 4.61987 7.25008 4.59987C7.25008 4.59987 7.25008 4.57987 7.25008 4.56987H7.27008Z" fill="#3D3D3D"/>
<path d="M5.8999 0.919922C5.8999 0.919922 5.9599 0.969922 5.9599 1.01992C5.9599 1.06992 5.9399 1.10992 5.9399 1.15992C5.9699 1.08992 5.9999 1.02992 5.9999 0.949923C6.0199 0.949923 6.0399 0.939922 6.0699 0.939922C6.0199 0.939922 5.9799 0.919922 5.8999 0.919922Z" fill="#3D3D3D"/>
<path d="M6.20996 0.939941C6.20996 0.939941 6.20996 1.01994 6.20996 1.04994C6.21996 1.03994 6.23996 0.97994 6.23996 0.95994C6.23996 0.94994 6.22996 0.939941 6.20996 0.939941Z" fill="#3D3D3D"/>
<path d="M2.95996 0.939941C2.95996 0.939941 3.01996 0.969941 3.02996 0.989941C3.03996 1.00994 3.02996 1.03994 3.04996 1.05994C3.05996 1.08994 3.09996 1.07994 3.12996 1.08994C3.15996 1.08994 3.17996 1.10994 3.20996 1.11994C3.20996 1.09994 3.18996 1.08994 3.16996 1.07994C3.15996 1.07994 3.14996 1.07994 3.13996 1.07994H3.09996C3.09996 1.07994 3.07996 1.01994 3.07996 1.00994C3.07996 0.989941 3.09996 0.97994 3.11996 0.96994C3.10996 0.94994 3.00996 0.96994 2.97996 0.96994L2.95996 0.939941Z" fill="#3D3D3D"/>
<path d="M3.32031 0.939941C3.32031 0.939941 3.33031 0.979941 3.34031 0.999941C3.34031 1.01994 3.34031 1.02994 3.36031 1.03994C3.36031 1.01994 3.36031 0.98994 3.36031 0.95994C3.36031 0.93994 3.36031 0.939941 3.33031 0.939941H3.32031Z" fill="#3D3D3D"/>
<path d="M0.620167 1.38986C0.620167 1.38986 0.680166 1.38986 0.720166 1.39986C0.740166 1.39986 0.720164 1.39986 0.750164 1.39986C0.770164 1.39986 0.780167 1.39986 0.800167 1.39986C0.780167 1.39986 0.760164 1.39986 0.730164 1.39986C0.690164 1.39986 0.700165 1.39986 0.680165 1.37986C0.670165 1.37986 0.650165 1.37986 0.630165 1.37986C0.620165 1.37986 0.630167 1.36986 0.620167 1.35986C0.610167 1.35986 0.620167 1.38986 0.620167 1.39986V1.38986Z" fill="#3D3D3D"/>
<path d="M0.620167 9.55978C0.620167 9.55978 0.680166 9.55978 0.720166 9.56978C0.740166 9.56978 0.720164 9.56978 0.750164 9.56978C0.770164 9.56978 0.780167 9.56978 0.800167 9.56978C0.780167 9.56978 0.760164 9.56978 0.730164 9.56978C0.690164 9.56978 0.700165 9.56978 0.680165 9.54978C0.670165 9.54978 0.650165 9.54978 0.630165 9.54978C0.620165 9.54978 0.630167 9.53979 0.620167 9.52979C0.610167 9.52979 0.620167 9.55978 0.620167 9.56978V9.55978Z" fill="#3D3D3D"/>
<path d="M0.630116 1.14995H0.710117C0.720117 1.12995 0.660114 1.13995 0.660114 1.11995C0.660114 1.10995 0.680116 1.08995 0.670116 1.07995C0.670116 1.04995 0.620117 1.10995 0.620117 1.13995L0.630116 1.14995Z" fill="#3D3D3D"/>
<path d="M4.49998 0.939941C4.49998 0.939941 4.49998 0.93994 4.50998 0.95994C4.50998 0.95994 4.50998 0.979941 4.50998 0.989941C4.50998 1.00994 4.50998 1.02994 4.50998 1.04994C4.50998 1.03994 4.50998 1.02994 4.50998 1.00994C4.50998 0.999941 4.50998 0.98994 4.51998 0.97994C4.51998 0.96994 4.51998 0.969942 4.51998 0.949942C4.51998 0.949942 4.51998 0.949942 4.49998 0.949942C4.49998 0.949942 4.48998 0.949942 4.47998 0.949942L4.49998 0.939941Z" fill="#3D3D3D"/>
<path d="M4.75 10.2698C4.75 10.2698 4.81 10.2198 4.81 10.1698C4.81 10.1198 4.79 10.0798 4.79 10.0298C4.82 10.0998 4.85 10.1598 4.85 10.2398C4.87 10.2398 4.89 10.2498 4.92 10.2498C4.87 10.2498 4.83 10.2698 4.75 10.2698Z" fill="#3D3D3D"/>
<path d="M0.600098 9.02979C0.600098 9.02979 0.650096 9.08978 0.700096 9.08978C0.750096 9.08978 0.790096 9.06978 0.840096 9.06978C0.770096 9.09978 0.700096 9.12978 0.630096 9.12978C0.630096 9.14978 0.620098 9.16979 0.620098 9.19979C0.620098 9.14979 0.600098 9.10979 0.600098 9.02979Z" fill="#3D3D3D"/>
<path d="M5.06006 10.2499C5.06006 10.2499 5.06006 10.1699 5.06006 10.1399C5.07006 10.1499 5.09006 10.2099 5.09006 10.2299C5.09006 10.2399 5.08006 10.2499 5.06006 10.2499Z" fill="#3D3D3D"/>
<path d="M1.81006 10.2498C1.81006 10.2498 1.87006 10.2198 1.88006 10.1998C1.89006 10.1798 1.88006 10.1498 1.90006 10.1298C1.91006 10.0998 1.95006 10.1098 1.98006 10.0998C2.01006 10.0998 2.03006 10.0798 2.06006 10.0698C2.06006 10.0898 2.04006 10.0998 2.02006 10.1098C2.01006 10.1098 2.00006 10.1098 1.99006 10.1098H1.95006C1.95006 10.1098 1.93006 10.1698 1.93006 10.1798C1.93006 10.1998 1.95006 10.2098 1.97006 10.2198C1.96006 10.2398 1.86006 10.2198 1.83006 10.2198L1.81006 10.2498Z" fill="#3D3D3D"/>
<path d="M2.16992 10.2499C2.16992 10.2499 2.17992 10.2099 2.18992 10.1899C2.18992 10.1699 2.18992 10.1599 2.20992 10.1499C2.20992 10.1699 2.20992 10.1999 2.20992 10.2299C2.20992 10.2499 2.20992 10.2499 2.17992 10.2499H2.16992Z" fill="#3D3D3D"/>
<path d="M3.35008 10.2499C3.35008 10.2499 3.35008 10.2499 3.36008 10.2299C3.36008 10.2299 3.36008 10.2099 3.36008 10.1999C3.36008 10.1799 3.36008 10.1599 3.36008 10.1399C3.36008 10.1499 3.36008 10.1599 3.36008 10.1799C3.36008 10.1899 3.36008 10.1999 3.37008 10.2099C3.37008 10.2199 3.37008 10.2199 3.37008 10.2399C3.37008 10.2399 3.37008 10.2399 3.35008 10.2399C3.35008 10.2399 3.34008 10.2399 3.33008 10.2399L3.35008 10.2499Z" fill="#3D3D3D"/>
<path d="M7.2702 2.52979C7.2002 2.52979 7.1202 2.52979 7.0502 2.52979C7.0102 2.52979 7.0102 2.52978 6.9902 2.55978C6.9502 2.60978 6.88019 2.60979 6.82019 2.61979C6.78019 2.62979 6.7402 2.63978 6.7002 2.63978C6.7302 2.66978 6.8302 2.63978 6.8702 2.62978C6.9002 2.62978 6.9402 2.60978 6.9702 2.59978C7.0102 2.56978 7.02019 2.55978 7.07019 2.55978C7.11019 2.55978 7.1402 2.55978 7.1902 2.55978C7.2002 2.55978 7.2202 2.55978 7.2402 2.55978C7.2602 2.55978 7.2602 2.56978 7.2802 2.57978C7.2802 2.56978 7.2802 2.55979 7.2802 2.53979L7.2702 2.52979Z" fill="#3D3D3D"/>
<path d="M7.2701 7.72998C7.2001 7.72998 7.1201 7.72998 7.0501 7.72998C7.0101 7.72998 7.0001 7.75998 6.9701 7.77998C6.9401 7.79998 6.8901 7.80998 6.8501 7.80998C6.8901 7.80998 6.9301 7.80998 6.9701 7.79998C7.0101 7.76998 7.0201 7.75998 7.0701 7.75998C7.1401 7.74998 7.19009 7.75998 7.23009 7.82998C7.25009 7.86998 7.2601 7.87998 7.2601 7.91998C7.2601 7.88998 7.2701 7.85998 7.2801 7.82998C7.2901 7.79998 7.2801 7.76998 7.2801 7.73998L7.2701 7.72998Z" fill="#3D3D3D"/>
<path d="M7.25986 2.77979C7.25986 2.77979 7.14986 2.77979 7.10986 2.78979C7.13986 2.78979 7.15987 2.78979 7.18987 2.78979C7.19987 2.78979 7.20986 2.79978 7.22986 2.80978C7.25986 2.80978 7.27986 2.80979 7.26986 2.77979H7.25986Z" fill="#3D3D3D"/>
<path d="M7.2601 2.33983C7.2601 2.33983 7.1301 2.41983 7.1001 2.40983C7.1301 2.37983 7.1701 2.37983 7.2001 2.35983C7.2201 2.34983 7.2401 2.32983 7.2701 2.32983H7.2601V2.33983Z" fill="#3D3D3D"/>
<path d="M0.600098 3.54979C0.600098 3.54979 0.640095 3.57979 0.660095 3.58979C0.680095 3.59979 0.730095 3.59979 0.750095 3.59979C0.840095 3.59979 0.900095 3.57979 0.980095 3.55979C0.920095 3.60979 0.860096 3.61979 0.790096 3.61979C0.730096 3.61979 0.630098 3.61979 0.600098 3.53979V3.54979Z" fill="#3D3D3D"/>
<path d="M0.619924 3.41988C0.619924 3.33988 0.749923 3.34988 0.809923 3.32988C0.769923 3.31988 0.699921 3.32988 0.659921 3.32988C0.579921 3.32988 0.609922 3.35988 0.629922 3.40988L0.619924 3.41988Z" fill="#3D3D3D"/>
<path d="M0.629883 7.00987C0.629883 6.93987 0.739884 6.96987 0.779884 6.96987C0.819884 6.96987 0.819882 6.94987 0.839882 6.91987C0.849882 6.89987 0.869883 6.87987 0.879883 6.86987C0.839883 6.89987 0.849883 6.96987 0.809883 6.98987C0.759883 7.01987 0.679885 6.96987 0.639885 7.01987C0.639885 7.01987 0.639885 6.99987 0.639885 7.00987H0.629883Z" fill="#3D3D3D"/>
<path d="M0.630215 5.46996C0.630215 5.46996 0.630215 5.50996 0.630215 5.51996C0.630215 5.51996 0.660214 5.54996 0.660214 5.55996C0.660214 5.58996 0.620217 5.59996 0.620217 5.62996C0.620217 5.58996 0.600217 5.49996 0.620217 5.45996L0.630215 5.46996Z" fill="#3D3D3D"/>
<path d="M0.629864 5.6499C0.629864 5.6499 0.669865 5.6699 0.689865 5.6699C0.719865 5.6699 0.719864 5.6699 0.739864 5.6899C0.779864 5.7199 0.789865 5.6699 0.829865 5.6699C0.809865 5.6899 0.789863 5.6899 0.769863 5.7099C0.739863 5.7199 0.739864 5.7099 0.719864 5.6999C0.709864 5.6999 0.669864 5.6999 0.649864 5.6999C0.629864 5.6999 0.629864 5.7499 0.629864 5.7699C0.629864 5.7999 0.659863 5.7999 0.679863 5.8099C0.669863 5.8099 0.639866 5.8099 0.639866 5.8099C0.639866 5.8099 0.639865 5.8099 0.619865 5.8099C0.619865 5.8099 0.609863 5.7799 0.609863 5.7699C0.609863 5.7299 0.609864 5.6999 0.629864 5.6699V5.6499Z" fill="#3D3D3D"/>
<path d="M0.619865 6.86982C0.619865 6.86982 0.699862 6.86981 0.729862 6.82981C0.719862 6.82981 0.699863 6.82981 0.679863 6.82981C0.649863 6.82981 0.629863 6.81981 0.609863 6.80981C0.609863 6.82981 0.609863 6.84982 0.609863 6.85982H0.619865C0.619865 6.85982 0.619865 6.86981 0.619865 6.87981V6.86982Z" fill="#3D3D3D"/>
<path d="M1.41016 3.08984C1.41016 3.08984 1.41016 3.08984 1.41016 3.09984C1.41016 3.09984 1.41016 3.09984 1.42016 3.08984H1.41016Z" fill="white"/>
<path d="M1.52002 1.48999H1.54002C1.54002 1.48999 1.63002 1.49999 1.67002 1.51999C1.69002 1.52999 1.70002 1.53999 1.71002 1.54999C1.72002 1.55999 1.73002 1.57999 1.74002 1.58999C1.77002 1.63999 1.78002 1.70999 1.78002 1.79999V1.82999C1.78002 1.82999 1.78002 1.86999 1.80002 1.87999C1.80002 1.88999 1.82002 1.89999 1.85002 1.90999C1.83002 1.90999 1.82002 1.91999 1.81002 1.92999C1.80002 1.94999 1.79002 1.95999 1.78002 1.97999C1.78002 2.12999 1.76002 2.20999 1.75002 2.22999C1.75002 2.24999 1.74002 2.26999 1.73002 2.27999C1.70002 2.33999 1.63002 2.37999 1.53002 2.37999C1.43002 2.37999 1.36002 2.34999 1.32002 2.29999C1.32002 2.28999 1.31002 2.26999 1.30002 2.25999C1.30002 2.22999 1.29002 2.19999 1.29002 2.17999V2.16999H1.46002C1.46002 2.16999 1.46002 2.16999 1.46002 2.19999C1.47002 2.24999 1.49002 2.26999 1.51002 2.26999C1.51002 2.26999 1.54002 2.24999 1.56002 2.19999C1.57002 2.14999 1.58002 2.09999 1.58002 2.04999C1.58002 2.01999 1.58002 1.99999 1.58002 1.98999H1.56002C1.56002 1.98999 1.50002 2.02999 1.47002 2.02999C1.43002 2.02999 1.39002 2.01999 1.35002 1.99999C1.33002 1.97999 1.32002 1.96999 1.31002 1.95999C1.31002 1.94999 1.29002 1.92999 1.29002 1.90999C1.28002 1.87999 1.27002 1.83999 1.27002 1.77999C1.27002 1.64999 1.31002 1.55999 1.40002 1.51999C1.43002 1.49999 1.47002 1.49999 1.51002 1.49999L1.52002 1.48999ZM1.47002 1.75999V1.77999C1.47002 1.77999 1.47002 1.84999 1.49002 1.87999C1.49002 1.88999 1.51002 1.89999 1.53002 1.89999C1.53002 1.89999 1.57002 1.87999 1.58002 1.84999C1.58002 1.83999 1.58002 1.82999 1.58002 1.81999V1.70999C1.58002 1.70999 1.58002 1.63999 1.55002 1.62999L1.53002 1.61999C1.50002 1.61999 1.49002 1.64999 1.48002 1.69999C1.48002 1.71999 1.48002 1.73999 1.48002 1.75999H1.47002Z" fill="#3D3D3D"/>
<path d="M6.32023 9.67979H6.30024C6.30024 9.67979 6.21023 9.66979 6.17023 9.64979C6.15023 9.63979 6.14023 9.62979 6.13023 9.61979C6.12023 9.60979 6.11023 9.58979 6.10023 9.57979C6.07023 9.52979 6.06023 9.45979 6.06023 9.36979V9.33979C6.06023 9.33979 6.06023 9.29979 6.04023 9.28979C6.04023 9.27979 6.02023 9.26979 5.99023 9.25979C6.01023 9.25979 6.02024 9.24979 6.03024 9.23979C6.04024 9.21979 6.05023 9.20979 6.06023 9.18979C6.06023 9.03979 6.08023 8.95979 6.09023 8.93979C6.09023 8.91979 6.10023 8.89979 6.11023 8.88979C6.14023 8.82979 6.21023 8.78979 6.31023 8.78979C6.41023 8.78979 6.48023 8.81979 6.52023 8.86979C6.52023 8.87979 6.53023 8.89979 6.54023 8.90979C6.54023 8.93979 6.55024 8.96979 6.55024 8.98979V8.99979H6.38023C6.38023 8.99979 6.38023 8.99979 6.38023 8.96979C6.37023 8.91979 6.35023 8.89979 6.33023 8.89979C6.33023 8.89979 6.30024 8.91979 6.28024 8.96979C6.27024 9.01979 6.26023 9.06979 6.26023 9.11979C6.26023 9.14979 6.26023 9.16979 6.26023 9.17979H6.28024C6.28024 9.17979 6.34024 9.13979 6.37024 9.13979C6.41024 9.13979 6.45023 9.14979 6.49023 9.16979C6.51023 9.18979 6.52024 9.19979 6.53024 9.20979C6.53024 9.21979 6.55024 9.23979 6.55024 9.25979C6.56024 9.28979 6.57023 9.32979 6.57023 9.38979C6.57023 9.51979 6.53024 9.60979 6.44024 9.64979C6.41024 9.66979 6.37023 9.66979 6.33023 9.66979L6.32023 9.67979ZM6.37024 9.40979V9.38979C6.37024 9.38979 6.37023 9.31979 6.35023 9.28979C6.35023 9.27979 6.33023 9.26979 6.31023 9.26979C6.31023 9.26979 6.27023 9.28979 6.26023 9.31979C6.26023 9.32979 6.26023 9.33979 6.26023 9.34979V9.45979C6.26023 9.45979 6.26023 9.52979 6.29023 9.53979L6.31023 9.54979C6.34023 9.54979 6.35023 9.51979 6.36023 9.46979C6.36023 9.44979 6.36023 9.42979 6.36023 9.40979H6.37024Z" fill="#3D3D3D"/>
<path d="M3.47002 2.58986C3.47002 2.58986 3.47002 2.57986 3.47002 2.56986C3.47002 2.48986 3.43002 2.41986 3.37002 2.36986C3.23002 2.22986 2.96002 2.16986 2.87002 1.85986C2.78002 2.16986 2.51002 2.22986 2.37002 2.36986C2.31002 2.41986 2.28002 2.48986 2.27002 2.56986C2.27002 2.56986 2.27002 2.57986 2.27002 2.58986C2.27002 2.58986 2.27002 2.58986 2.27002 2.59986C2.27002 2.76986 2.42002 2.90986 2.59002 2.90986C2.61002 2.90986 2.63002 2.90986 2.66002 2.90986C2.72002 2.89986 2.79002 2.86986 2.84002 2.79986C2.84002 2.79986 2.84002 2.79986 2.84002 2.78986C2.80002 2.90986 2.72002 3.06986 2.63002 3.14986C2.70002 3.11986 2.78002 3.10986 2.87002 3.10986C2.95002 3.10986 3.03002 3.10986 3.11002 3.14986C3.01002 3.06986 2.94002 2.90986 2.90002 2.78986C2.90002 2.78986 2.90002 2.78986 2.90002 2.79986C2.95002 2.85986 3.01002 2.88986 3.08002 2.90986C3.10002 2.90986 3.12002 2.90986 3.15002 2.90986C3.32002 2.90986 3.46002 2.76986 3.47002 2.59986C3.47002 2.59986 3.47002 2.58986 3.47002 2.57986V2.58986Z" fill="#3D3D3D"/>
<path d="M3.47002 8.67987C3.47002 8.67987 3.47002 8.68987 3.47002 8.69987C3.47002 8.77987 3.43002 8.84987 3.37002 8.89987C3.23002 9.03987 2.96002 9.09987 2.87002 9.40987C2.78002 9.09987 2.51002 9.03987 2.37002 8.89987C2.31002 8.84987 2.28002 8.77987 2.27002 8.69987C2.27002 8.69987 2.27002 8.68987 2.27002 8.67987C2.27002 8.67987 2.27002 8.67987 2.27002 8.66987C2.27002 8.49987 2.42002 8.35987 2.59002 8.35987C2.61002 8.35987 2.63002 8.35987 2.66002 8.35987C2.72002 8.36987 2.79002 8.39987 2.84002 8.46987C2.84002 8.46987 2.84002 8.46987 2.84002 8.47987C2.80002 8.35987 2.72002 8.19987 2.63002 8.11987C2.70002 8.14987 2.78002 8.15987 2.87002 8.15987C2.95002 8.15987 3.03002 8.15987 3.11002 8.11987C3.01002 8.19987 2.94002 8.35987 2.90002 8.47987C2.90002 8.47987 2.90002 8.47987 2.90002 8.46987C2.95002 8.40987 3.01002 8.37987 3.08002 8.35987C3.10002 8.35987 3.12002 8.35987 3.15002 8.35987C3.32002 8.35987 3.46002 8.49987 3.47002 8.66987C3.47002 8.66987 3.47002 8.67987 3.47002 8.68987V8.67987Z" fill="#3D3D3D"/>
<path d="M5.61016 2.58986C5.61016 2.58986 5.61016 2.57986 5.61016 2.56986C5.61016 2.48986 5.57016 2.41986 5.51016 2.36986C5.37016 2.22986 5.10016 2.16986 5.01016 1.85986C4.92016 2.16986 4.65016 2.22986 4.51016 2.36986C4.45016 2.41986 4.42016 2.48986 4.41016 2.56986C4.41016 2.56986 4.41016 2.57986 4.41016 2.58986C4.41016 2.58986 4.41016 2.58986 4.41016 2.59986C4.41016 2.76986 4.56016 2.90986 4.73016 2.90986C4.75016 2.90986 4.77016 2.90986 4.80016 2.90986C4.86016 2.89986 4.93016 2.86986 4.98016 2.79986C4.98016 2.79986 4.98016 2.79986 4.98016 2.78986C4.94016 2.90986 4.86016 3.06986 4.77016 3.14986C4.84016 3.11986 4.92016 3.10986 5.01016 3.10986C5.09016 3.10986 5.17016 3.10986 5.25016 3.14986C5.15016 3.06986 5.08016 2.90986 5.04016 2.78986C5.04016 2.78986 5.04016 2.78986 5.04016 2.79986C5.09016 2.85986 5.15016 2.88986 5.22016 2.90986C5.24016 2.90986 5.26016 2.90986 5.29016 2.90986C5.46016 2.90986 5.60016 2.76986 5.61016 2.59986C5.61016 2.59986 5.61016 2.59986 5.61016 2.58986Z" fill="#3D3D3D"/>
<path d="M3.47002 4.66994C3.47002 4.66994 3.47002 4.65994 3.47002 4.64994C3.47002 4.56994 3.43002 4.49994 3.37002 4.44994C3.23002 4.30994 2.96002 4.24994 2.87002 3.93994C2.78002 4.24994 2.51002 4.30994 2.37002 4.44994C2.31002 4.49994 2.28002 4.56994 2.27002 4.64994C2.27002 4.64994 2.27002 4.65994 2.27002 4.66994C2.27002 4.66994 2.27002 4.66994 2.27002 4.67994C2.27002 4.84994 2.42002 4.98994 2.59002 4.98994C2.61002 4.98994 2.63002 4.98994 2.66002 4.98994C2.72002 4.97994 2.79002 4.94994 2.84002 4.87994C2.84002 4.87994 2.84002 4.87994 2.84002 4.86994C2.80002 4.98994 2.72002 5.14994 2.63002 5.22994C2.70002 5.19994 2.78002 5.18994 2.87002 5.18994C2.95002 5.18994 3.03002 5.18994 3.11002 5.22994C3.01002 5.14994 2.94002 4.98994 2.90002 4.86994C2.90002 4.86994 2.90002 4.86994 2.90002 4.87994C2.95002 4.93994 3.01002 4.96994 3.08002 4.98994C3.10002 4.98994 3.12002 4.98994 3.15002 4.98994C3.32002 4.98994 3.46002 4.84994 3.47002 4.67994C3.47002 4.67994 3.47002 4.66994 3.47002 4.65994V4.66994Z" fill="#3D3D3D"/>
<path d="M5.61016 4.66994C5.61016 4.66994 5.61016 4.65994 5.61016 4.64994C5.61016 4.56994 5.57016 4.49994 5.51016 4.44994C5.37016 4.30994 5.10016 4.24994 5.01016 3.93994C4.92016 4.24994 4.65016 4.30994 4.51016 4.44994C4.45016 4.49994 4.42016 4.56994 4.41016 4.64994C4.41016 4.64994 4.41016 4.65994 4.41016 4.66994C4.41016 4.66994 4.41016 4.66994 4.41016 4.67994C4.41016 4.84994 4.56016 4.98994 4.73016 4.98994C4.75016 4.98994 4.77016 4.98994 4.80016 4.98994C4.86016 4.97994 4.93016 4.94994 4.98016 4.87994C4.98016 4.87994 4.98016 4.87994 4.98016 4.86994C4.94016 4.98994 4.86016 5.14994 4.77016 5.22994C4.84016 5.19994 4.92016 5.18994 5.01016 5.18994C5.09016 5.18994 5.17016 5.18994 5.25016 5.22994C5.15016 5.14994 5.08016 4.98994 5.04016 4.86994C5.04016 4.86994 5.04016 4.86994 5.04016 4.87994C5.09016 4.93994 5.15016 4.96994 5.22016 4.98994C5.24016 4.98994 5.26016 4.98994 5.29016 4.98994C5.46016 4.98994 5.60016 4.84994 5.61016 4.67994C5.61016 4.67994 5.61016 4.67994 5.61016 4.66994Z" fill="#3D3D3D"/>
<path d="M4.53984 5.71999C4.53984 5.71999 4.53984 5.70999 4.53984 5.69999C4.53984 5.61999 4.49985 5.54999 4.43985 5.49999C4.29985 5.35999 4.02985 5.29999 3.93985 4.98999C3.84985 5.29999 3.57985 5.35999 3.43985 5.49999C3.37985 5.54999 3.34984 5.61999 3.33984 5.69999C3.33984 5.69999 3.33984 5.70999 3.33984 5.71999C3.33984 5.71999 3.33984 5.71999 3.33984 5.72999C3.33984 5.89999 3.48984 6.03999 3.65984 6.03999C3.67984 6.03999 3.69984 6.03999 3.72984 6.03999C3.78984 6.02999 3.85984 5.99999 3.90984 5.92999C3.90984 5.92999 3.90984 5.92999 3.90984 5.91999C3.86984 6.03999 3.78984 6.19999 3.69984 6.27999C3.76984 6.24999 3.84985 6.23999 3.93985 6.23999C4.01985 6.23999 4.09984 6.23999 4.17984 6.27999C4.07984 6.19999 4.00984 6.03999 3.96984 5.91999C3.96984 5.91999 3.96984 5.91999 3.96984 5.92999C4.01984 5.98999 4.07985 6.01999 4.14985 6.03999C4.16985 6.03999 4.18984 6.03999 4.21984 6.03999C4.38984 6.03999 4.52984 5.89999 4.53984 5.72999C4.53984 5.72999 4.53984 5.72999 4.53984 5.71999Z" fill="#3D3D3D"/>
<path d="M4.41016 6.59979C4.41016 6.59979 4.41016 6.60979 4.41016 6.61979C4.41016 6.69979 4.45016 6.76979 4.51016 6.81979C4.65016 6.95979 4.92016 7.01979 5.01016 7.32979C5.10016 7.01979 5.37016 6.95979 5.51016 6.81979C5.57016 6.76979 5.60016 6.69979 5.61016 6.61979C5.61016 6.61979 5.61016 6.60979 5.61016 6.59979C5.61016 6.59979 5.61016 6.59979 5.61016 6.58979C5.61016 6.41979 5.46016 6.27979 5.29016 6.27979C5.27016 6.27979 5.25016 6.27979 5.22016 6.27979C5.16016 6.28979 5.09016 6.31979 5.04016 6.38979C5.04016 6.38979 5.04016 6.38979 5.04016 6.39979C5.08016 6.27979 5.16016 6.11979 5.25016 6.03979C5.18016 6.06979 5.10016 6.07979 5.01016 6.07979C4.93016 6.07979 4.85016 6.07979 4.77016 6.03979C4.87016 6.11979 4.94016 6.27979 4.98016 6.39979C4.98016 6.39979 4.98016 6.39979 4.98016 6.38979C4.93016 6.32979 4.87016 6.29979 4.80016 6.27979C4.78016 6.27979 4.76016 6.27979 4.73016 6.27979C4.56016 6.27979 4.42016 6.41979 4.41016 6.58979C4.41016 6.58979 4.41016 6.58979 4.41016 6.59979Z" fill="#3D3D3D"/>
<path d="M2.27002 6.59979C2.27002 6.59979 2.27002 6.60979 2.27002 6.61979C2.27002 6.69979 2.31002 6.76979 2.37002 6.81979C2.51002 6.95979 2.78002 7.01979 2.87002 7.32979C2.96002 7.01979 3.23002 6.95979 3.37002 6.81979C3.43002 6.76979 3.46002 6.69979 3.47002 6.61979C3.47002 6.61979 3.47002 6.60979 3.47002 6.59979C3.47002 6.59979 3.47002 6.59979 3.47002 6.58979C3.47002 6.41979 3.32002 6.27979 3.15002 6.27979C3.13002 6.27979 3.11002 6.27979 3.08002 6.27979C3.02002 6.28979 2.95002 6.31979 2.90002 6.38979C2.90002 6.38979 2.90002 6.38979 2.90002 6.39979C2.94002 6.27979 3.02002 6.11979 3.11002 6.03979C3.04002 6.06979 2.96002 6.07979 2.87002 6.07979C2.79002 6.07979 2.71002 6.07979 2.63002 6.03979C2.73002 6.11979 2.80002 6.27979 2.84002 6.39979C2.84002 6.39979 2.84002 6.39979 2.84002 6.38979C2.79002 6.32979 2.73002 6.29979 2.66002 6.27979C2.64002 6.27979 2.62002 6.27979 2.59002 6.27979C2.42002 6.27979 2.28002 6.41979 2.27002 6.58979V6.59979Z" fill="#3D3D3D"/>
<path d="M5.61016 8.67987C5.61016 8.67987 5.61016 8.68987 5.61016 8.69987C5.61016 8.77987 5.57016 8.84987 5.51016 8.89987C5.37016 9.03987 5.10016 9.09987 5.01016 9.40987C4.92016 9.09987 4.65016 9.03987 4.51016 8.89987C4.45016 8.84987 4.42016 8.77987 4.41016 8.69987C4.41016 8.69987 4.41016 8.68987 4.41016 8.67987C4.41016 8.67987 4.41016 8.67987 4.41016 8.66987C4.41016 8.49987 4.56016 8.35987 4.73016 8.35987C4.75016 8.35987 4.77016 8.35987 4.80016 8.35987C4.86016 8.36987 4.93016 8.39987 4.98016 8.46987C4.98016 8.46987 4.98016 8.46987 4.98016 8.47987C4.94016 8.35987 4.86016 8.19987 4.77016 8.11987C4.84016 8.14987 4.92016 8.15987 5.01016 8.15987C5.09016 8.15987 5.17016 8.15987 5.25016 8.11987C5.15016 8.19987 5.08016 8.35987 5.04016 8.47987C5.04016 8.47987 5.04016 8.47987 5.04016 8.46987C5.09016 8.40987 5.15016 8.37987 5.22016 8.35987C5.24016 8.35987 5.26016 8.35987 5.29016 8.35987C5.46016 8.35987 5.60016 8.49987 5.61016 8.66987C5.61016 8.66987 5.61016 8.66987 5.61016 8.67987Z" fill="#3D3D3D"/>
<path d="M1.90018 2.95979C1.90018 2.90979 1.87018 2.86979 1.84018 2.83979C1.76018 2.75979 1.59018 2.71979 1.54018 2.53979C1.49018 2.71979 1.32018 2.75979 1.24018 2.83979C1.21018 2.86979 1.18018 2.90979 1.18018 2.95979C1.18018 3.05979 1.27018 3.13979 1.37018 3.13979C1.38018 3.13979 1.40018 3.13979 1.41018 3.13979C1.45018 3.13979 1.48018 3.10979 1.52018 3.07979C1.50018 3.14979 1.45018 3.24979 1.39018 3.29979C1.43018 3.27979 1.48018 3.27979 1.53018 3.27979C1.53018 3.27979 1.63018 3.27979 1.67018 3.29979C1.61018 3.24979 1.57018 3.15979 1.54018 3.07979C1.57018 3.11979 1.61018 3.13979 1.65018 3.13979C1.66018 3.13979 1.68018 3.13979 1.69018 3.13979C1.79018 3.13979 1.88018 3.05979 1.88018 2.95979H1.90018Z" fill="#3D3D3D"/>
<path d="M6.59011 8.15982C6.59011 8.20982 6.56012 8.24983 6.53012 8.27983C6.45012 8.35983 6.28011 8.39982 6.23011 8.57982C6.18011 8.39982 6.01011 8.35983 5.93011 8.27983C5.90011 8.24983 5.87012 8.20982 5.87012 8.15982C5.87012 8.05982 5.96012 7.97982 6.06012 7.97982C6.07012 7.97982 6.09012 7.97982 6.10012 7.97982C6.14012 7.97982 6.17012 8.00983 6.21012 8.03983C6.19012 7.96983 6.14012 7.86982 6.08012 7.81982C6.12012 7.83982 6.17012 7.83982 6.22012 7.83982C6.22012 7.83982 6.32012 7.83982 6.36012 7.81982C6.30012 7.86982 6.26011 7.95983 6.23011 8.03983C6.26011 7.99983 6.30011 7.97982 6.34011 7.97982C6.35011 7.97982 6.37012 7.97982 6.38012 7.97982C6.48012 7.97982 6.57011 8.05982 6.57011 8.15982H6.59011Z" fill="#3D3D3D"/>
</svg>
