<svg width="8" height="11" viewBox="0 0 8 11" fill="none" xmlns="http://www.w3.org/2000/svg">
<path d="M6.69984 10.2699H0.649845C0.479845 10.2699 0.339844 10.1299 0.339844 9.95993V1.23993C0.339844 1.06993 0.479845 0.929932 0.649845 0.929932H6.69984C6.86984 0.929932 7.00985 1.06993 7.00985 1.23993V9.95993C7.00985 10.1299 6.86984 10.2699 6.69984 10.2699ZM0.649845 0.949932C0.489845 0.949932 0.359844 1.07993 0.359844 1.23993V9.95993C0.359844 10.1199 0.489845 10.2499 0.649845 10.2499H6.69984C6.85984 10.2499 6.98985 10.1199 6.98985 9.95993V1.23993C6.98985 1.07993 6.85984 0.949932 6.69984 0.949932H0.649845Z" fill="#3D3D3D"/>
<path d="M6.70006 10.2999H0.650059C0.460059 10.2999 0.310059 10.1499 0.310059 9.9599V1.2399C0.310059 1.0499 0.460059 0.899902 0.650059 0.899902H6.70006C6.89006 0.899902 7.04006 1.0499 7.04006 1.2399V9.9599C7.04006 10.1499 6.89006 10.2999 6.70006 10.2999ZM0.650059 0.969902C0.500059 0.969902 0.390057 1.0899 0.390057 1.2299V9.9499C0.390057 10.0999 0.510059 10.2099 0.650059 10.2099H6.70006C6.85006 10.2099 6.96006 10.0899 6.96006 9.9499V1.2299C6.96006 1.0799 6.84006 0.969902 6.70006 0.969902H0.650059Z" fill="#3D3D3D"/>
<path d="M6.52008 10.0499H0.820076C0.690076 10.0499 0.580078 9.9399 0.580078 9.8099V1.3899C0.580078 1.2599 0.690076 1.1499 0.820076 1.1499H6.52008C6.65008 1.1499 6.76008 1.2599 6.76008 1.3899V9.8099C6.76008 9.9399 6.65008 10.0499 6.52008 10.0499ZM0.820076 1.1999C0.710076 1.1999 0.630077 1.2899 0.630077 1.3899V9.8099C0.630077 9.9199 0.720076 9.9999 0.820076 9.9999H6.52008C6.63008 9.9999 6.71008 9.9099 6.71008 9.8099V1.3899C6.71008 1.2799 6.62008 1.1999 6.52008 1.1999H0.820076Z" fill="#3D3D3D"/>
<path d="M7.00006 4.56987C7.00006 4.56987 6.93006 4.55987 6.91006 4.56987C6.90006 4.56987 6.89006 4.57987 6.88006 4.58987C6.86006 4.59987 6.84006 4.60988 6.81006 4.60988C6.83006 4.60988 6.85006 4.60988 6.86006 4.60988C6.88006 4.60988 6.89006 4.58987 6.91006 4.58987C6.93006 4.58987 6.95006 4.58987 6.96006 4.59987C6.96006 4.59987 6.96006 4.61987 6.98006 4.59987C6.98006 4.59987 6.98006 4.57987 6.98006 4.56987H7.00006Z" fill="#3D3D3D"/>
<path d="M5.62988 0.919922C5.62988 0.919922 5.68988 0.969922 5.68988 1.01992C5.68988 1.06992 5.66988 1.10992 5.66988 1.15992C5.69988 1.08992 5.72988 1.02992 5.72988 0.949923C5.74988 0.949923 5.76988 0.939922 5.79988 0.939922C5.74988 0.939922 5.70988 0.919922 5.62988 0.919922Z" fill="#3D3D3D"/>
<path d="M5.93994 0.939941C5.93994 0.939941 5.93994 1.01994 5.93994 1.04994C5.94994 1.03994 5.96994 0.97994 5.96994 0.95994C5.96994 0.94994 5.95994 0.939941 5.93994 0.939941Z" fill="#3D3D3D"/>
<path d="M2.68994 0.939941C2.68994 0.939941 2.74994 0.969941 2.75994 0.989941C2.76994 1.00994 2.75994 1.03994 2.77994 1.05994C2.78994 1.08994 2.82994 1.07994 2.85994 1.08994C2.88994 1.08994 2.90994 1.10994 2.93994 1.11994C2.93994 1.09994 2.91994 1.08994 2.89994 1.07994C2.88994 1.07994 2.87994 1.07994 2.86994 1.07994H2.82994C2.82994 1.07994 2.80994 1.01994 2.80994 1.00994C2.80994 0.989941 2.82994 0.97994 2.84994 0.96994C2.83994 0.94994 2.73994 0.96994 2.70994 0.96994L2.68994 0.939941Z" fill="#3D3D3D"/>
<path d="M3.05029 0.939941C3.05029 0.939941 3.06029 0.979941 3.07029 0.999941C3.07029 1.01994 3.07029 1.02994 3.09029 1.03994C3.09029 1.01994 3.09029 0.98994 3.09029 0.95994C3.09029 0.93994 3.0903 0.939941 3.0603 0.939941H3.05029Z" fill="#3D3D3D"/>
<path d="M0.350148 1.38986C0.350148 1.38986 0.410146 1.38986 0.450146 1.39986C0.470146 1.39986 0.450145 1.39986 0.480145 1.39986C0.500145 1.39986 0.510148 1.39986 0.530148 1.39986C0.510148 1.39986 0.490144 1.39986 0.460144 1.39986C0.420144 1.39986 0.430145 1.39986 0.410145 1.37986C0.400145 1.37986 0.380146 1.37986 0.360146 1.37986C0.350146 1.37986 0.360148 1.36986 0.350148 1.35986C0.340148 1.35986 0.350148 1.38986 0.350148 1.39986V1.38986Z" fill="#3D3D3D"/>
<path d="M0.350148 9.55978C0.350148 9.55978 0.410146 9.55978 0.450146 9.56978C0.470146 9.56978 0.450145 9.56978 0.480145 9.56978C0.500145 9.56978 0.510148 9.56978 0.530148 9.56978C0.510148 9.56978 0.490144 9.56978 0.460144 9.56978C0.420144 9.56978 0.430145 9.56978 0.410145 9.54978C0.400145 9.54978 0.380146 9.54978 0.360146 9.54978C0.350146 9.54978 0.360148 9.53979 0.350148 9.52979C0.340148 9.52979 0.350148 9.55978 0.350148 9.56978V9.55978Z" fill="#3D3D3D"/>
<path d="M0.360244 1.14995H0.440246C0.450246 1.12995 0.390242 1.13995 0.390242 1.11995C0.390242 1.10995 0.410245 1.08995 0.400245 1.07995C0.400245 1.04995 0.340245 1.10995 0.350245 1.13995L0.360244 1.14995Z" fill="#3D3D3D"/>
<path d="M4.22996 0.939941C4.22996 0.939941 4.22996 0.93994 4.23996 0.95994C4.23996 0.95994 4.23996 0.979941 4.23996 0.989941C4.23996 1.00994 4.23996 1.02994 4.23996 1.04994C4.23996 1.03994 4.23996 1.02994 4.23996 1.00994C4.23996 0.999941 4.23996 0.98994 4.24996 0.97994C4.24996 0.96994 4.24996 0.969942 4.24996 0.949942C4.24996 0.949942 4.24996 0.949942 4.22996 0.949942C4.22996 0.949942 4.21996 0.949942 4.20996 0.949942L4.22996 0.939941Z" fill="#3D3D3D"/>
<path d="M4.47998 10.2698C4.47998 10.2698 4.53998 10.2198 4.53998 10.1698C4.53998 10.1198 4.51998 10.0798 4.51998 10.0298C4.54998 10.0998 4.57998 10.1598 4.57998 10.2398C4.59998 10.2398 4.61998 10.2498 4.64998 10.2498C4.59998 10.2498 4.55998 10.2698 4.47998 10.2698Z" fill="#3D3D3D"/>
<path d="M0.330078 9.02979C0.330078 9.02979 0.380079 9.08978 0.440079 9.08978C0.490079 9.08978 0.530078 9.06978 0.580078 9.06978C0.510078 9.09978 0.440075 9.12978 0.370075 9.12978C0.370075 9.14978 0.360077 9.16979 0.360077 9.19979C0.360077 9.14979 0.340076 9.10979 0.340076 9.02979H0.330078Z" fill="#3D3D3D"/>
<path d="M4.79004 10.2499C4.79004 10.2499 4.79004 10.1699 4.79004 10.1399C4.80004 10.1499 4.82004 10.2099 4.82004 10.2299C4.82004 10.2399 4.81004 10.2499 4.79004 10.2499Z" fill="#3D3D3D"/>
<path d="M1.54004 10.2498C1.54004 10.2498 1.60004 10.2198 1.61004 10.1998C1.62004 10.1798 1.61004 10.1498 1.63004 10.1298C1.64004 10.0998 1.68004 10.1098 1.71004 10.0998C1.74004 10.0998 1.76004 10.0798 1.79004 10.0698C1.79004 10.0898 1.77004 10.0998 1.75004 10.1098C1.74004 10.1098 1.73004 10.1098 1.72004 10.1098H1.68004C1.68004 10.1098 1.66004 10.1698 1.66004 10.1798C1.66004 10.1998 1.68004 10.2098 1.70004 10.2198C1.69004 10.2398 1.59004 10.2198 1.56004 10.2198L1.54004 10.2498Z" fill="#3D3D3D"/>
<path d="M1.8999 10.2499C1.8999 10.2499 1.9099 10.2099 1.9199 10.1899C1.9199 10.1699 1.9199 10.1599 1.9399 10.1499C1.9399 10.1699 1.9399 10.1999 1.9399 10.2299C1.9399 10.2499 1.9399 10.2499 1.9099 10.2499H1.8999Z" fill="#3D3D3D"/>
<path d="M3.08006 10.2499C3.08006 10.2499 3.08006 10.2499 3.09006 10.2299C3.09006 10.2299 3.09006 10.2099 3.09006 10.1999C3.09006 10.1799 3.09006 10.1599 3.09006 10.1399C3.09006 10.1499 3.09006 10.1599 3.09006 10.1799C3.09006 10.1899 3.09006 10.1999 3.10006 10.2099C3.10006 10.2199 3.10006 10.2199 3.10006 10.2399C3.10006 10.2399 3.10006 10.2399 3.08006 10.2399C3.08006 10.2399 3.07006 10.2399 3.06006 10.2399L3.08006 10.2499Z" fill="#3D3D3D"/>
<path d="M7.00018 2.52979C6.93018 2.52979 6.85018 2.52979 6.78018 2.52979C6.74018 2.52979 6.74018 2.52978 6.72018 2.55978C6.68018 2.60978 6.61017 2.60979 6.55017 2.61979C6.51017 2.62979 6.47018 2.63978 6.43018 2.63978C6.46018 2.66978 6.56018 2.63978 6.60018 2.62978C6.63018 2.62978 6.67018 2.60978 6.70018 2.59978C6.74018 2.56978 6.75017 2.55978 6.80017 2.55978C6.84017 2.55978 6.87018 2.55978 6.92018 2.55978C6.93018 2.55978 6.95018 2.55978 6.97018 2.55978C6.99018 2.55978 6.99018 2.56978 7.01018 2.57978C7.01018 2.56978 7.01018 2.55979 7.01018 2.53979L7.00018 2.52979Z" fill="#3D3D3D"/>
<path d="M6.98983 7.72998C6.91983 7.72998 6.83982 7.72998 6.76982 7.72998C6.72982 7.72998 6.71983 7.75998 6.68983 7.77998C6.65983 7.79998 6.60982 7.80998 6.56982 7.80998C6.60982 7.80998 6.64983 7.80998 6.68983 7.79998C6.72983 7.76998 6.73983 7.75998 6.78983 7.75998C6.85983 7.74998 6.90983 7.75998 6.94983 7.82998C6.96983 7.86998 6.97982 7.87998 6.97982 7.91998C6.97982 7.88998 6.98982 7.85998 6.99982 7.82998C6.99982 7.79998 6.99982 7.76998 6.99982 7.73998L6.98983 7.72998Z" fill="#3D3D3D"/>
<path d="M6.98985 2.77979C6.98985 2.77979 6.87984 2.77979 6.83984 2.78979C6.86984 2.78979 6.88985 2.78979 6.91985 2.78979C6.92985 2.78979 6.93984 2.79978 6.95984 2.80978C6.98984 2.80978 7.00984 2.80979 6.99984 2.77979H6.98985Z" fill="#3D3D3D"/>
<path d="M6.99008 2.33983C6.99008 2.33983 6.86008 2.41983 6.83008 2.40983C6.86008 2.37983 6.90008 2.37983 6.93008 2.35983C6.95008 2.34983 6.97008 2.32983 7.00008 2.32983H6.99008V2.33983Z" fill="#3D3D3D"/>
<path d="M0.330078 3.54979C0.330078 3.54979 0.370076 3.57979 0.390076 3.58979C0.410076 3.59979 0.460076 3.59979 0.480076 3.59979C0.570076 3.59979 0.630075 3.57979 0.710075 3.55979C0.650075 3.60979 0.590077 3.61979 0.520077 3.61979C0.460077 3.61979 0.360078 3.61979 0.330078 3.53979V3.54979Z" fill="#3D3D3D"/>
<path d="M0.349905 3.41988C0.349905 3.33988 0.479903 3.34988 0.539903 3.32988C0.499903 3.31988 0.429902 3.32988 0.389902 3.32988C0.309902 3.32988 0.339903 3.35988 0.359903 3.40988L0.349905 3.41988Z" fill="#3D3D3D"/>
<path d="M0.359863 7.00987C0.359863 6.93987 0.469865 6.96987 0.509865 6.96987C0.549865 6.96987 0.549862 6.94987 0.569862 6.91987C0.579862 6.89987 0.599863 6.87987 0.609863 6.86987C0.569863 6.89987 0.579864 6.96987 0.539864 6.98987C0.489864 7.01987 0.409862 6.96987 0.369862 7.01987C0.369862 7.01987 0.369862 6.99987 0.369862 7.00987H0.359863Z" fill="#3D3D3D"/>
<path d="M0.360196 5.46996C0.360196 5.46996 0.360196 5.50996 0.360196 5.51996C0.360196 5.51996 0.390195 5.54996 0.390195 5.55996C0.390195 5.58996 0.350197 5.59996 0.350197 5.62996C0.350197 5.58996 0.330197 5.49996 0.350197 5.45996L0.360196 5.46996Z" fill="#3D3D3D"/>
<path d="M0.359844 5.6499C0.359844 5.6499 0.399846 5.6699 0.419846 5.6699C0.449846 5.6699 0.449845 5.6699 0.469845 5.6899C0.509845 5.7199 0.519845 5.6699 0.559845 5.6699C0.539845 5.6899 0.519844 5.6899 0.499844 5.7099C0.469844 5.7199 0.469844 5.7099 0.449844 5.6999C0.439844 5.6999 0.399845 5.6999 0.379845 5.6999C0.359845 5.6999 0.359844 5.7499 0.359844 5.7699C0.359844 5.7999 0.389843 5.7999 0.409843 5.8099C0.399843 5.8099 0.369843 5.8099 0.369843 5.8099C0.369843 5.8099 0.369846 5.8099 0.349846 5.8099C0.349846 5.8099 0.339844 5.7799 0.339844 5.7699C0.339844 5.7299 0.339844 5.6999 0.359844 5.6699V5.6499Z" fill="#3D3D3D"/>
<path d="M0.350098 6.86982C0.350098 6.86982 0.430094 6.86981 0.460094 6.82981C0.450094 6.82981 0.430097 6.82981 0.420097 6.82981C0.390097 6.82981 0.370098 6.81981 0.350098 6.80981C0.350098 6.82981 0.350098 6.84982 0.350098 6.85982H0.360096C0.360096 6.85982 0.360096 6.86981 0.360096 6.87981L0.350098 6.86982Z" fill="#3D3D3D"/>
<path d="M1.14014 3.08984C1.14014 3.08984 1.14014 3.08984 1.14014 3.09984C1.14014 3.09984 1.14014 3.09984 1.15014 3.08984H1.14014Z" fill="white"/>
<path d="M1.28025 1.48999H1.30025C1.30025 1.48999 1.40025 1.49999 1.44025 1.51999C1.46025 1.52999 1.48025 1.53999 1.48025 1.54999C1.50025 1.55999 1.51025 1.57999 1.52025 1.58999C1.54025 1.62999 1.55025 1.65999 1.55025 1.69999C1.55025 1.75999 1.53025 1.80999 1.49025 1.85999C1.49025 1.86999 1.47025 1.87999 1.45025 1.88999C1.45025 1.88999 1.43025 1.89999 1.42025 1.90999C1.42025 1.90999 1.45025 1.92999 1.46025 1.92999C1.50025 1.94999 1.53025 1.98999 1.55025 2.03999C1.56025 2.06999 1.57025 2.08999 1.57025 2.10999V2.12999C1.57025 2.12999 1.56025 2.21999 1.53025 2.25999C1.48025 2.33999 1.39025 2.37999 1.29025 2.37999C1.19025 2.37999 1.11025 2.34999 1.06025 2.27999C1.03025 2.22999 1.01025 2.17999 1.01025 2.11999C1.01025 2.03999 1.04025 1.97999 1.10025 1.92999C1.12025 1.91999 1.13025 1.90999 1.14025 1.90999C1.14025 1.90999 1.10025 1.88999 1.08025 1.86999C1.03025 1.82999 1.01025 1.77999 1.01025 1.71999C1.01025 1.64999 1.03025 1.59999 1.08025 1.54999C1.08025 1.54999 1.10025 1.52999 1.12025 1.51999C1.15025 1.50999 1.17025 1.49999 1.20025 1.48999C1.22025 1.48999 1.24025 1.48999 1.26025 1.48999H1.28025ZM1.22025 2.10999C1.22025 2.15999 1.22025 2.20999 1.23025 2.24999C1.23025 2.27999 1.26025 2.28999 1.28025 2.28999C1.31025 2.28999 1.32025 2.27999 1.33025 2.25999C1.33025 2.25999 1.33025 2.21999 1.34025 2.14999V2.11999C1.34025 2.04999 1.33025 2.00999 1.30025 1.98999H1.28025C1.28025 1.98999 1.23025 2.01999 1.22025 2.07999C1.22025 2.07999 1.22025 2.09999 1.22025 2.12999V2.10999ZM1.23025 1.67999V1.72999C1.23025 1.77999 1.24025 1.81999 1.27025 1.82999H1.29025C1.33025 1.82999 1.35025 1.78999 1.35025 1.71999C1.35025 1.68999 1.35025 1.64999 1.33025 1.60999C1.33025 1.58999 1.30025 1.57999 1.28025 1.57999C1.26025 1.57999 1.24025 1.58999 1.23025 1.60999C1.23025 1.61999 1.23025 1.63999 1.23025 1.66999V1.67999Z" fill="#3D3D3D"/>
<path d="M6.06002 9.67979H6.04002C6.04002 9.67979 5.94002 9.66979 5.90002 9.64979C5.88002 9.63979 5.86002 9.62979 5.86002 9.61979C5.84002 9.60979 5.83002 9.58979 5.82002 9.57979C5.80002 9.53979 5.79002 9.50979 5.79002 9.46979C5.79002 9.40979 5.81002 9.35979 5.85002 9.30979C5.85002 9.29979 5.87002 9.28979 5.89002 9.27979C5.89002 9.27979 5.91002 9.26979 5.92002 9.25979C5.92002 9.25979 5.89002 9.23979 5.88002 9.23979C5.84002 9.21979 5.81002 9.17979 5.79002 9.12979C5.78002 9.09979 5.77002 9.07979 5.77002 9.05979V9.03979C5.77002 9.03979 5.78002 8.94979 5.81002 8.90979C5.86002 8.82979 5.95002 8.78979 6.05002 8.78979C6.15002 8.78979 6.23002 8.81979 6.28002 8.88979C6.31002 8.93979 6.33002 8.98979 6.33002 9.04979C6.33002 9.12979 6.30002 9.18979 6.24002 9.23979C6.22002 9.24979 6.21002 9.25979 6.20002 9.25979C6.20002 9.25979 6.24002 9.27979 6.26002 9.29979C6.31002 9.33979 6.33002 9.38979 6.33002 9.44979C6.33002 9.51979 6.31002 9.56979 6.26002 9.61979C6.26002 9.61979 6.24002 9.63979 6.22002 9.64979C6.19002 9.65979 6.17002 9.66979 6.14002 9.67979C6.12002 9.67979 6.10002 9.67979 6.08002 9.67979H6.06002ZM6.11002 9.48979V9.43979C6.11002 9.38979 6.10002 9.34979 6.07002 9.33979H6.05002C6.01002 9.33979 5.99002 9.37979 5.99002 9.44979C5.99002 9.47979 5.99002 9.51979 6.01002 9.55979C6.01002 9.57979 6.04002 9.58979 6.06002 9.58979C6.08002 9.58979 6.10002 9.57979 6.11002 9.55979C6.11002 9.54979 6.11002 9.52979 6.11002 9.49979V9.48979ZM6.12002 9.05979C6.12002 9.00979 6.12002 8.95979 6.11002 8.91979C6.11002 8.88979 6.08002 8.87979 6.06002 8.87979C6.03002 8.87979 6.02002 8.88979 6.01002 8.90979C6.01002 8.90979 6.01002 8.94979 6.00002 9.01979V9.04979C6.00002 9.11979 6.01002 9.15979 6.04002 9.17979H6.06002C6.06002 9.17979 6.11002 9.14979 6.12002 9.08979C6.12002 9.08979 6.12002 9.06979 6.12002 9.03979V9.05979Z" fill="#3D3D3D"/>
<path d="M3.2 2.58986C3.2 2.58986 3.2 2.57986 3.2 2.56986C3.2 2.48986 3.16 2.41986 3.1 2.36986C2.96 2.22986 2.69 2.16986 2.6 1.85986C2.51 2.16986 2.24 2.22986 2.1 2.36986C2.04 2.41986 2.01 2.48986 2 2.56986C2 2.56986 2 2.57986 2 2.58986C2 2.58986 2 2.58986 2 2.59986C2 2.76986 2.15 2.90986 2.32 2.90986C2.34 2.90986 2.36 2.90986 2.39 2.90986C2.45 2.89986 2.52 2.86986 2.57 2.79986C2.57 2.79986 2.57 2.79986 2.57 2.78986C2.53 2.90986 2.45 3.06986 2.36 3.14986C2.43 3.11986 2.51 3.10986 2.6 3.10986C2.68 3.10986 2.76 3.10986 2.84 3.14986C2.74 3.06986 2.67 2.90986 2.63 2.78986C2.63 2.78986 2.63 2.78986 2.63 2.79986C2.68 2.85986 2.74 2.88986 2.81 2.90986C2.83 2.90986 2.85 2.90986 2.88 2.90986C3.05 2.90986 3.19 2.76986 3.2 2.59986C3.2 2.59986 3.2 2.59986 3.2 2.58986Z" fill="#3D3D3D"/>
<path d="M3.2 8.67987C3.2 8.67987 3.2 8.68987 3.2 8.69987C3.2 8.77987 3.16 8.84987 3.1 8.89987C2.96 9.03987 2.69 9.09987 2.6 9.40987C2.51 9.09987 2.24 9.03987 2.1 8.89987C2.04 8.84987 2.01 8.77987 2 8.69987C2 8.69987 2 8.68987 2 8.67987C2 8.67987 2 8.67987 2 8.66987C2 8.49987 2.15 8.35987 2.32 8.35987C2.34 8.35987 2.36 8.35987 2.39 8.35987C2.45 8.36987 2.52 8.39987 2.57 8.46987C2.57 8.46987 2.57 8.46987 2.57 8.47987C2.53 8.35987 2.45 8.19987 2.36 8.11987C2.43 8.14987 2.51 8.15987 2.6 8.15987C2.68 8.15987 2.76 8.15987 2.84 8.11987C2.74 8.19987 2.67 8.35987 2.63 8.47987C2.63 8.47987 2.63 8.47987 2.63 8.46987C2.68 8.40987 2.74 8.37987 2.81 8.35987C2.83 8.35987 2.85 8.35987 2.88 8.35987C3.05 8.35987 3.19 8.49987 3.2 8.66987C3.2 8.66987 3.2 8.66987 3.2 8.67987Z" fill="#3D3D3D"/>
<path d="M5.34014 2.58986C5.34014 2.58986 5.34014 2.57986 5.34014 2.56986C5.34014 2.48986 5.30014 2.41986 5.24014 2.36986C5.10014 2.22986 4.83014 2.16986 4.74014 1.85986C4.65014 2.16986 4.38014 2.22986 4.24014 2.36986C4.18014 2.41986 4.15014 2.48986 4.14014 2.56986C4.14014 2.56986 4.14014 2.57986 4.14014 2.58986C4.14014 2.58986 4.14014 2.58986 4.14014 2.59986C4.14014 2.76986 4.29014 2.90986 4.46014 2.90986C4.48014 2.90986 4.50014 2.90986 4.53014 2.90986C4.59014 2.89986 4.66014 2.86986 4.71014 2.79986C4.71014 2.79986 4.71014 2.79986 4.71014 2.78986C4.67014 2.90986 4.59014 3.06986 4.50014 3.14986C4.57014 3.11986 4.65014 3.10986 4.74014 3.10986C4.82014 3.10986 4.90014 3.10986 4.98014 3.14986C4.88014 3.06986 4.81014 2.90986 4.77014 2.78986C4.77014 2.78986 4.77014 2.78986 4.77014 2.79986C4.82014 2.85986 4.88014 2.88986 4.95014 2.90986C4.97014 2.90986 4.99014 2.90986 5.02014 2.90986C5.19014 2.90986 5.33014 2.76986 5.34014 2.59986C5.34014 2.59986 5.34014 2.59986 5.34014 2.58986Z" fill="#3D3D3D"/>
<path d="M3.2 4.66994C3.2 4.66994 3.2 4.65994 3.2 4.64994C3.2 4.56994 3.16 4.49994 3.1 4.44994C2.96 4.30994 2.69 4.24994 2.6 3.93994C2.51 4.24994 2.24 4.30994 2.1 4.44994C2.04 4.49994 2.01 4.56994 2 4.64994C2 4.64994 2 4.65994 2 4.66994C2 4.66994 2 4.66994 2 4.67994C2 4.84994 2.15 4.98994 2.32 4.98994C2.34 4.98994 2.36 4.98994 2.39 4.98994C2.45 4.97994 2.52 4.94994 2.57 4.87994C2.57 4.87994 2.57 4.87994 2.57 4.86994C2.53 4.98994 2.45 5.14994 2.36 5.22994C2.43 5.19994 2.51 5.18994 2.6 5.18994C2.68 5.18994 2.76 5.18994 2.84 5.22994C2.74 5.14994 2.67 4.98994 2.63 4.86994C2.63 4.86994 2.63 4.86994 2.63 4.87994C2.68 4.93994 2.74 4.96994 2.81 4.98994C2.83 4.98994 2.85 4.98994 2.88 4.98994C3.05 4.98994 3.19 4.84994 3.2 4.67994C3.2 4.67994 3.2 4.67994 3.2 4.66994Z" fill="#3D3D3D"/>
<path d="M5.34014 4.66994C5.34014 4.66994 5.34014 4.65994 5.34014 4.64994C5.34014 4.56994 5.30014 4.49994 5.24014 4.44994C5.10014 4.30994 4.83014 4.24994 4.74014 3.93994C4.65014 4.24994 4.38014 4.30994 4.24014 4.44994C4.18014 4.49994 4.15014 4.56994 4.14014 4.64994C4.14014 4.64994 4.14014 4.65994 4.14014 4.66994C4.14014 4.66994 4.14014 4.66994 4.14014 4.67994C4.14014 4.84994 4.29014 4.98994 4.46014 4.98994C4.48014 4.98994 4.50014 4.98994 4.53014 4.98994C4.59014 4.97994 4.66014 4.94994 4.71014 4.87994C4.71014 4.87994 4.71014 4.87994 4.71014 4.86994C4.67014 4.98994 4.59014 5.14994 4.50014 5.22994C4.57014 5.19994 4.65014 5.18994 4.74014 5.18994C4.82014 5.18994 4.90014 5.18994 4.98014 5.22994C4.88014 5.14994 4.81014 4.98994 4.77014 4.86994C4.77014 4.86994 4.77014 4.86994 4.77014 4.87994C4.82014 4.93994 4.88014 4.96994 4.95014 4.98994C4.97014 4.98994 4.99014 4.98994 5.02014 4.98994C5.19014 4.98994 5.33014 4.84994 5.34014 4.67994C5.34014 4.67994 5.34014 4.67994 5.34014 4.66994Z" fill="#3D3D3D"/>
<path d="M4.14014 6.59979C4.14014 6.59979 4.14014 6.60979 4.14014 6.61979C4.14014 6.69979 4.18014 6.76979 4.24014 6.81979C4.38014 6.95979 4.65014 7.01979 4.74014 7.32979C4.83014 7.01979 5.10014 6.95979 5.24014 6.81979C5.30014 6.76979 5.33014 6.69979 5.34014 6.61979C5.34014 6.61979 5.34014 6.60979 5.34014 6.59979C5.34014 6.59979 5.34014 6.59979 5.34014 6.58979C5.34014 6.41979 5.19014 6.27979 5.02014 6.27979C5.00014 6.27979 4.98014 6.27979 4.95014 6.27979C4.89014 6.28979 4.82014 6.31979 4.77014 6.38979C4.77014 6.38979 4.77014 6.38979 4.77014 6.39979C4.81014 6.27979 4.89014 6.11979 4.98014 6.03979C4.91014 6.06979 4.83014 6.07979 4.74014 6.07979C4.66014 6.07979 4.58014 6.07979 4.50014 6.03979C4.60014 6.11979 4.67014 6.27979 4.71014 6.39979C4.71014 6.39979 4.71014 6.39979 4.71014 6.38979C4.66014 6.32979 4.60014 6.29979 4.53014 6.27979C4.51014 6.27979 4.49014 6.27979 4.46014 6.27979C4.29014 6.27979 4.15014 6.41979 4.14014 6.58979C4.14014 6.58979 4.14014 6.58979 4.14014 6.59979Z" fill="#3D3D3D"/>
<path d="M2 6.59979C2 6.59979 2 6.60979 2 6.61979C2 6.69979 2.04 6.76979 2.1 6.81979C2.24 6.95979 2.51 7.01979 2.6 7.32979C2.69 7.01979 2.96 6.95979 3.1 6.81979C3.16 6.76979 3.19 6.69979 3.2 6.61979C3.2 6.61979 3.2 6.60979 3.2 6.59979C3.2 6.59979 3.2 6.59979 3.2 6.58979C3.2 6.41979 3.05 6.27979 2.88 6.27979C2.86 6.27979 2.84 6.27979 2.81 6.27979C2.75 6.28979 2.68 6.31979 2.63 6.38979C2.63 6.38979 2.63 6.38979 2.63 6.39979C2.67 6.27979 2.75 6.11979 2.84 6.03979C2.77 6.06979 2.69 6.07979 2.6 6.07979C2.52 6.07979 2.44 6.07979 2.36 6.03979C2.46 6.11979 2.53 6.27979 2.57 6.39979C2.57 6.39979 2.57 6.39979 2.57 6.38979C2.52 6.32979 2.46 6.29979 2.39 6.27979C2.37 6.27979 2.35 6.27979 2.32 6.27979C2.15 6.27979 2.01 6.41979 2 6.58979C2 6.58979 2 6.58979 2 6.59979Z" fill="#3D3D3D"/>
<path d="M5.34014 8.67987C5.34014 8.67987 5.34014 8.68987 5.34014 8.69987C5.34014 8.77987 5.30014 8.84987 5.24014 8.89987C5.10014 9.03987 4.83014 9.09987 4.74014 9.40987C4.65014 9.09987 4.38014 9.03987 4.24014 8.89987C4.18014 8.84987 4.15014 8.77987 4.14014 8.69987C4.14014 8.69987 4.14014 8.68987 4.14014 8.67987C4.14014 8.67987 4.14014 8.67987 4.14014 8.66987C4.14014 8.49987 4.29014 8.35987 4.46014 8.35987C4.48014 8.35987 4.50014 8.35987 4.53014 8.35987C4.59014 8.36987 4.66014 8.39987 4.71014 8.46987C4.71014 8.46987 4.71014 8.46987 4.71014 8.47987C4.67014 8.35987 4.59014 8.19987 4.50014 8.11987C4.57014 8.14987 4.65014 8.15987 4.74014 8.15987C4.82014 8.15987 4.90014 8.15987 4.98014 8.11987C4.88014 8.19987 4.81014 8.35987 4.77014 8.47987C4.77014 8.47987 4.77014 8.47987 4.77014 8.46987C4.82014 8.40987 4.88014 8.37987 4.95014 8.35987C4.97014 8.35987 4.99014 8.35987 5.02014 8.35987C5.19014 8.35987 5.33014 8.49987 5.34014 8.66987C5.34014 8.66987 5.34014 8.66987 5.34014 8.67987Z" fill="#3D3D3D"/>
<path d="M1.67996 2.95979C1.67996 2.90979 1.64996 2.86979 1.61996 2.83979C1.53996 2.75979 1.36996 2.71979 1.31996 2.53979C1.26996 2.71979 1.09996 2.75979 1.01996 2.83979C0.989962 2.86979 0.969961 2.90979 0.959961 2.95979C0.959961 3.05979 1.04996 3.13979 1.14996 3.13979C1.15996 3.13979 1.17996 3.13979 1.18996 3.13979C1.22996 3.13979 1.25996 3.10979 1.29996 3.07979C1.26996 3.14979 1.22996 3.24979 1.16996 3.29979C1.20996 3.27979 1.25996 3.27979 1.30996 3.27979C1.30996 3.27979 1.40996 3.27979 1.44996 3.29979C1.38996 3.24979 1.34996 3.15979 1.31996 3.07979C1.34996 3.11979 1.38996 3.13979 1.42996 3.13979C1.43996 3.13979 1.45996 3.13979 1.46996 3.13979C1.56996 3.13979 1.65996 3.05979 1.65996 2.95979H1.67996Z" fill="#3D3D3D"/>
<path d="M6.3699 8.15982C6.3699 8.20982 6.3399 8.24983 6.3099 8.27983C6.2299 8.35983 6.0599 8.39982 6.0099 8.57982C5.9599 8.39982 5.7899 8.35983 5.7099 8.27983C5.6799 8.24983 5.6499 8.20982 5.6499 8.15982C5.6499 8.05982 5.7399 7.97982 5.8399 7.97982C5.8499 7.97982 5.8699 7.97982 5.8799 7.97982C5.9199 7.97982 5.9499 8.00983 5.9899 8.03983C5.9699 7.96983 5.9199 7.86982 5.8599 7.81982C5.8999 7.83982 5.9499 7.83982 5.9999 7.83982C5.9999 7.83982 6.0999 7.83982 6.1399 7.81982C6.0799 7.86982 6.0399 7.95983 6.0099 8.03983C6.0399 7.99983 6.0799 7.97982 6.1199 7.97982C6.1299 7.97982 6.1499 7.97982 6.1599 7.97982C6.2599 7.97982 6.3499 8.05982 6.3499 8.15982H6.3699Z" fill="#3D3D3D"/>
</svg>
