<svg width="8" height="11" viewBox="0 0 8 11" fill="none" xmlns="http://www.w3.org/2000/svg">
<path d="M7.23988 10.2699H1.18988C1.01988 10.2699 0.879883 10.1299 0.879883 9.95993V1.23993C0.879883 1.06993 1.01988 0.929932 1.18988 0.929932H7.23988C7.40988 0.929932 7.54988 1.06993 7.54988 1.23993V9.95993C7.54988 10.1299 7.40988 10.2699 7.23988 10.2699ZM1.18988 0.949932C1.02988 0.949932 0.899883 1.07993 0.899883 1.23993V9.95993C0.899883 10.1199 1.02988 10.2499 1.18988 10.2499H7.23988C7.39988 10.2499 7.52988 10.1199 7.52988 9.95993V1.23993C7.52988 1.07993 7.39988 0.949932 7.23988 0.949932H1.18988Z" fill="#3D3D3D"/>
<path d="M7.2401 10.2999H1.1901C1.0001 10.2999 0.850098 10.1499 0.850098 9.9599V1.2399C0.850098 1.0499 1.0001 0.899902 1.1901 0.899902H7.2401C7.4301 0.899902 7.5801 1.0499 7.5801 1.2399V9.9599C7.5801 10.1499 7.4301 10.2999 7.2401 10.2999ZM1.1901 0.969902C1.0401 0.969902 0.930098 1.0899 0.930098 1.2299V9.9499C0.930098 10.0999 1.0501 10.2099 1.1901 10.2099H7.2401C7.3901 10.2099 7.5001 10.0899 7.5001 9.9499V1.2299C7.5001 1.0799 7.3801 0.969902 7.2401 0.969902H1.1901Z" fill="#3D3D3D"/>
<path d="M7.06012 10.0499H1.36012C1.23012 10.0499 1.12012 9.9399 1.12012 9.8099V1.3899C1.12012 1.2599 1.23012 1.1499 1.36012 1.1499H7.06012C7.19012 1.1499 7.30012 1.2599 7.30012 1.3899V9.8099C7.30012 9.9399 7.19012 10.0499 7.06012 10.0499ZM1.36012 1.1999C1.25012 1.1999 1.17012 1.2899 1.17012 1.3899V9.8099C1.17012 9.9199 1.26012 9.9999 1.36012 9.9999H7.06012C7.17012 9.9999 7.25012 9.9099 7.25012 9.8099V1.3899C7.25012 1.2799 7.16012 1.1999 7.06012 1.1999H1.36012Z" fill="#3D3D3D"/>
<path d="M7.5401 4.56987C7.5401 4.56987 7.4701 4.55987 7.4501 4.56987C7.4401 4.56987 7.4301 4.57987 7.4201 4.58987C7.4001 4.59987 7.3801 4.60988 7.3501 4.60988C7.3701 4.60988 7.3901 4.60988 7.4001 4.60988C7.4201 4.60988 7.4301 4.58987 7.4501 4.58987C7.4701 4.58987 7.4901 4.58987 7.5001 4.59987C7.5001 4.59987 7.5001 4.61987 7.5201 4.59987C7.5201 4.59987 7.5201 4.57987 7.5201 4.56987H7.5401Z" fill="#3D3D3D"/>
<path d="M6.16992 0.919922C6.16992 0.919922 6.22992 0.969922 6.22992 1.01992C6.22992 1.06992 6.20992 1.10992 6.20992 1.15992C6.23992 1.08992 6.26992 1.02992 6.26992 0.949923C6.28992 0.949923 6.30992 0.939922 6.33992 0.939922C6.28992 0.939922 6.24992 0.919922 6.16992 0.919922Z" fill="#3D3D3D"/>
<path d="M6.47998 0.939941C6.47998 0.939941 6.47998 1.01994 6.47998 1.04994C6.48998 1.03994 6.50998 0.97994 6.50998 0.95994C6.50998 0.94994 6.49998 0.939941 6.47998 0.939941Z" fill="#3D3D3D"/>
<path d="M3.22998 0.939941C3.22998 0.939941 3.28998 0.969941 3.29998 0.989941C3.30998 1.00994 3.29998 1.03994 3.31998 1.05994C3.32998 1.08994 3.36998 1.07994 3.39998 1.08994C3.42998 1.08994 3.44998 1.10994 3.47998 1.11994C3.47998 1.09994 3.45998 1.08994 3.43998 1.07994C3.42998 1.07994 3.41998 1.07994 3.40998 1.07994H3.36998C3.36998 1.07994 3.34998 1.01994 3.34998 1.00994C3.34998 0.989941 3.36998 0.97994 3.38998 0.96994C3.37998 0.94994 3.27998 0.96994 3.24998 0.96994L3.22998 0.939941Z" fill="#3D3D3D"/>
<path d="M3.59033 0.939941C3.59033 0.939941 3.60033 0.979941 3.61033 0.999941C3.61033 1.01994 3.61033 1.02994 3.63033 1.03994C3.63033 1.01994 3.63033 0.98994 3.63033 0.95994C3.63033 0.93994 3.63033 0.939941 3.60033 0.939941H3.59033Z" fill="#3D3D3D"/>
<path d="M0.890187 1.38986C0.890187 1.38986 0.950187 1.38986 0.990187 1.39986C1.01019 1.39986 0.990188 1.39986 1.02019 1.39986C1.04019 1.39986 1.05019 1.39986 1.07019 1.39986C1.05019 1.39986 1.03019 1.39986 1.00019 1.39986C0.960187 1.39986 0.970188 1.39986 0.950188 1.37986C0.940188 1.37986 0.920187 1.37986 0.900187 1.37986C0.890187 1.37986 0.900187 1.36986 0.890187 1.35986C0.880187 1.35986 0.890187 1.38986 0.890187 1.39986V1.38986Z" fill="#3D3D3D"/>
<path d="M0.890187 9.55978C0.890187 9.55978 0.950187 9.55978 0.990187 9.56978C1.01019 9.56978 0.990188 9.56978 1.02019 9.56978C1.04019 9.56978 1.05019 9.56978 1.07019 9.56978C1.05019 9.56978 1.03019 9.56978 1.00019 9.56978C0.960187 9.56978 0.970188 9.56978 0.950188 9.54978C0.940188 9.54978 0.920187 9.54978 0.900187 9.54978C0.890187 9.54978 0.900187 9.53979 0.890187 9.52979C0.880187 9.52979 0.890187 9.55978 0.890187 9.56978V9.55978Z" fill="#3D3D3D"/>
<path d="M0.900137 1.14995H0.980137C0.990137 1.12995 0.930138 1.13995 0.930138 1.11995C0.930138 1.10995 0.950138 1.08995 0.940138 1.07995C0.940138 1.04995 0.890137 1.10995 0.890137 1.13995L0.900137 1.14995Z" fill="#3D3D3D"/>
<path d="M4.77 0.939941C4.77 0.939941 4.77 0.93994 4.78 0.95994C4.78 0.95994 4.78 0.979941 4.78 0.989941C4.78 1.00994 4.78 1.02994 4.78 1.04994C4.78 1.03994 4.78 1.02994 4.78 1.00994C4.78 0.999941 4.78 0.98994 4.79 0.97994C4.79 0.96994 4.79 0.969942 4.79 0.949942C4.79 0.949942 4.79 0.949942 4.77 0.949942C4.77 0.949942 4.76 0.949942 4.75 0.949942L4.77 0.939941Z" fill="#3D3D3D"/>
<path d="M5.02002 10.2698C5.02002 10.2698 5.08002 10.2198 5.08002 10.1698C5.08002 10.1198 5.06002 10.0798 5.06002 10.0298C5.09002 10.0998 5.12002 10.1598 5.12002 10.2398C5.14002 10.2398 5.16002 10.2498 5.19002 10.2498C5.14002 10.2498 5.10002 10.2698 5.02002 10.2698Z" fill="#3D3D3D"/>
<path d="M0.870117 9.02979C0.870117 9.02979 0.920116 9.08978 0.970116 9.08978C1.02012 9.08978 1.06012 9.06978 1.11012 9.06978C1.04012 9.09978 0.970116 9.12978 0.900116 9.12978C0.900116 9.14978 0.890116 9.16979 0.890116 9.19979C0.890116 9.14979 0.870117 9.10979 0.870117 9.02979Z" fill="#3D3D3D"/>
<path d="M5.33008 10.2499C5.33008 10.2499 5.33008 10.1699 5.33008 10.1399C5.34008 10.1499 5.36008 10.2099 5.36008 10.2299C5.36008 10.2399 5.35008 10.2499 5.33008 10.2499Z" fill="#3D3D3D"/>
<path d="M2.08008 10.2498C2.08008 10.2498 2.14008 10.2198 2.15008 10.1998C2.16008 10.1798 2.15008 10.1498 2.17008 10.1298C2.18008 10.0998 2.22008 10.1098 2.25008 10.0998C2.28008 10.0998 2.30008 10.0798 2.33008 10.0698C2.33008 10.0898 2.31008 10.0998 2.29008 10.1098C2.28008 10.1098 2.27008 10.1098 2.26008 10.1098H2.22008C2.22008 10.1098 2.20008 10.1698 2.20008 10.1798C2.20008 10.1998 2.22008 10.2098 2.24008 10.2198C2.23008 10.2398 2.13008 10.2198 2.10008 10.2198L2.08008 10.2498Z" fill="#3D3D3D"/>
<path d="M2.43994 10.2499C2.43994 10.2499 2.44994 10.2099 2.45994 10.1899C2.45994 10.1699 2.45994 10.1599 2.47994 10.1499C2.47994 10.1699 2.47994 10.1999 2.47994 10.2299C2.47994 10.2499 2.47994 10.2499 2.44994 10.2499H2.43994Z" fill="#3D3D3D"/>
<path d="M3.6201 10.2499C3.6201 10.2499 3.6201 10.2499 3.6301 10.2299C3.6301 10.2299 3.6301 10.2099 3.6301 10.1999C3.6301 10.1799 3.6301 10.1599 3.6301 10.1399C3.6301 10.1499 3.6301 10.1599 3.6301 10.1799C3.6301 10.1899 3.6301 10.1999 3.6401 10.2099C3.6401 10.2199 3.6401 10.2199 3.6401 10.2399C3.6401 10.2399 3.6401 10.2399 3.6201 10.2399C3.6201 10.2399 3.6101 10.2399 3.6001 10.2399L3.6201 10.2499Z" fill="#3D3D3D"/>
<path d="M7.54021 2.52979C7.47021 2.52979 7.39022 2.52979 7.32022 2.52979C7.28022 2.52979 7.28022 2.52978 7.26022 2.55978C7.22022 2.60978 7.15021 2.60979 7.09021 2.61979C7.05021 2.62979 7.01021 2.63978 6.97021 2.63978C7.00021 2.66978 7.10022 2.63978 7.14022 2.62978C7.17022 2.62978 7.21022 2.60978 7.24022 2.59978C7.28022 2.56978 7.29021 2.55978 7.34021 2.55978C7.38021 2.55978 7.41022 2.55978 7.46022 2.55978C7.47022 2.55978 7.49022 2.55978 7.51022 2.55978C7.53022 2.55978 7.53022 2.56978 7.55022 2.57978C7.55022 2.56978 7.55022 2.55979 7.55022 2.53979L7.54021 2.52979Z" fill="#3D3D3D"/>
<path d="M7.54012 7.72998C7.47012 7.72998 7.39012 7.72998 7.32012 7.72998C7.28012 7.72998 7.27012 7.75998 7.24012 7.77998C7.21012 7.79998 7.16012 7.80998 7.12012 7.80998C7.16012 7.80998 7.20012 7.80998 7.24012 7.79998C7.28012 7.76998 7.29011 7.75998 7.34011 7.75998C7.41011 7.74998 7.46012 7.75998 7.50012 7.82998C7.52012 7.86998 7.53012 7.87998 7.53012 7.91998C7.53012 7.88998 7.54012 7.85998 7.55012 7.82998C7.55012 7.79998 7.55012 7.76998 7.55012 7.73998L7.54012 7.72998Z" fill="#3D3D3D"/>
<path d="M7.52988 2.77979C7.52988 2.77979 7.41988 2.77979 7.37988 2.78979C7.40988 2.78979 7.42988 2.78979 7.45988 2.78979C7.46988 2.78979 7.47989 2.79978 7.49989 2.80978C7.52989 2.80978 7.54988 2.80979 7.53988 2.77979H7.52988Z" fill="#3D3D3D"/>
<path d="M7.53012 2.33983C7.53012 2.33983 7.40012 2.41983 7.37012 2.40983C7.40012 2.37983 7.44012 2.37983 7.47012 2.35983C7.49012 2.34983 7.51012 2.32983 7.54012 2.32983H7.53012V2.33983Z" fill="#3D3D3D"/>
<path d="M0.870117 3.54979C0.870117 3.54979 0.910117 3.57979 0.930117 3.58979C0.950117 3.59979 1.00012 3.59979 1.02012 3.59979C1.11012 3.59979 1.17012 3.57979 1.25012 3.55979C1.19012 3.60979 1.13012 3.61979 1.06012 3.61979C1.00012 3.61979 0.900117 3.61979 0.870117 3.53979V3.54979Z" fill="#3D3D3D"/>
<path d="M0.889941 3.41988C0.889941 3.33988 1.01994 3.34988 1.07994 3.32988C1.03994 3.31988 0.969942 3.32988 0.929942 3.32988C0.849942 3.32988 0.879941 3.35988 0.899941 3.40988L0.889941 3.41988Z" fill="#3D3D3D"/>
<path d="M0.899902 7.00987C0.899902 6.93987 1.0099 6.96987 1.0499 6.96987C1.0899 6.96987 1.0899 6.94987 1.1099 6.91987C1.1199 6.89987 1.1399 6.87987 1.1499 6.86987C1.1099 6.89987 1.1199 6.96987 1.0799 6.98987C1.0299 7.01987 0.949903 6.96987 0.909903 7.01987C0.909903 7.01987 0.909903 6.99987 0.909903 7.00987H0.899902Z" fill="#3D3D3D"/>
<path d="M0.900237 5.46996C0.900237 5.46996 0.900237 5.50996 0.900237 5.51996C0.900237 5.51996 0.930237 5.54996 0.930237 5.55996C0.930237 5.58996 0.890237 5.59996 0.890237 5.62996C0.890237 5.58996 0.870237 5.49996 0.890237 5.45996L0.900237 5.46996Z" fill="#3D3D3D"/>
<path d="M0.899883 5.6499C0.899883 5.6499 0.939885 5.6699 0.959885 5.6699C0.989885 5.6699 0.989884 5.6699 1.00988 5.6899C1.04988 5.7199 1.05988 5.6699 1.09988 5.6699C1.07988 5.6899 1.05988 5.6899 1.03988 5.7099C1.00988 5.7199 1.00988 5.7099 0.989883 5.6999C0.979883 5.6999 0.939884 5.6999 0.919884 5.6999C0.899884 5.6999 0.899883 5.7499 0.899883 5.7699C0.899883 5.7999 0.929884 5.7999 0.949884 5.8099C0.939884 5.8099 0.909883 5.8099 0.909883 5.8099C0.909883 5.8099 0.909883 5.8099 0.889883 5.8099C0.889883 5.8099 0.879883 5.7799 0.879883 5.7699C0.879883 5.7299 0.879883 5.6999 0.899883 5.6699V5.6499Z" fill="#3D3D3D"/>
<path d="M0.889883 6.86982C0.889883 6.86982 0.969884 6.86981 0.999884 6.82981C0.989884 6.82981 0.969884 6.82981 0.949884 6.82981C0.919884 6.82981 0.899883 6.81981 0.879883 6.80981C0.879883 6.82981 0.879883 6.84982 0.879883 6.85982H0.889883C0.889883 6.85982 0.889883 6.86981 0.889883 6.87981V6.86982Z" fill="#3D3D3D"/>
<path d="M1.68018 3.08984C1.68018 3.08984 1.68018 3.08984 1.68018 3.09984C1.68018 3.09984 1.68018 3.09984 1.69018 3.08984H1.68018Z" fill="white"/>
<path d="M1.48988 1.5H1.65989V1.84C1.65989 1.84 1.66988 1.87 1.68988 1.89C1.69988 1.89 1.71989 1.91 1.72989 1.91C1.72989 1.91 1.69988 1.93 1.67988 1.94C1.67988 1.94 1.66989 1.96 1.65989 1.97V1.99V2.21C1.65989 2.21 1.65988 2.27 1.67988 2.27C1.67988 2.27 1.68988 2.27 1.70988 2.27H1.72989V2.37H1.39988V2.27H1.42988C1.42988 2.27 1.45988 2.27 1.45988 2.26C1.45988 2.26 1.45988 2.23 1.45988 2.19V2.01C1.45988 2.01 1.43988 1.94 1.40988 1.92C1.39988 1.92 1.38988 1.92 1.38988 1.92C1.38988 1.92 1.42988 1.9 1.43988 1.89C1.44988 1.87 1.45988 1.85 1.45988 1.84V1.76H1.37988V1.65C1.37988 1.65 1.42988 1.61 1.43988 1.59C1.45988 1.57 1.46988 1.55 1.48988 1.52V1.5Z" fill="#3D3D3D"/>
<path d="M2.05976 1.47998H2.07977C2.07977 1.47998 2.15977 1.48998 2.18977 1.50998C2.20977 1.52998 2.22977 1.53998 2.24977 1.55998C2.25977 1.57998 2.27976 1.58998 2.28976 1.60998C2.29976 1.62998 2.31977 1.65998 2.32977 1.69998C2.32977 1.71998 2.33977 1.74998 2.34977 1.79998C2.34977 1.79998 2.34977 1.85998 2.36977 1.86998C2.37977 1.88998 2.39977 1.89998 2.41977 1.90998H2.40977C2.38977 1.90998 2.37976 1.92998 2.35976 1.95998C2.35976 1.95998 2.35976 1.97998 2.35976 2.02998C2.35976 2.05998 2.35976 2.07998 2.35976 2.10998C2.35976 2.14998 2.33977 2.17998 2.32977 2.19998C2.31977 2.22998 2.30976 2.25998 2.28976 2.27998C2.23976 2.35998 2.16976 2.38998 2.08976 2.38998C2.00976 2.38998 1.93977 2.34998 1.88977 2.26998C1.86977 2.24998 1.85976 2.20998 1.83976 2.15998C1.83976 2.12998 1.81977 2.08998 1.81977 2.02998C1.81977 1.99998 1.81977 1.96998 1.81977 1.95998C1.81977 1.94998 1.81976 1.93998 1.80976 1.92998C1.79976 1.90998 1.77977 1.89998 1.75977 1.89998H1.77977C1.79977 1.89998 1.80977 1.87998 1.81977 1.85998C1.81977 1.85998 1.81977 1.82998 1.82977 1.79998C1.82977 1.74998 1.83977 1.70998 1.84977 1.68998C1.85977 1.64998 1.87977 1.61998 1.89977 1.58998C1.91977 1.56998 1.92977 1.54998 1.95977 1.52998C1.97977 1.51998 1.98977 1.50998 2.00977 1.49998C2.03977 1.48998 2.06977 1.47998 2.09977 1.47998H2.05976ZM2.00977 1.86998V2.04998C2.00977 2.15998 2.00977 2.22998 2.02977 2.25998C2.02977 2.28998 2.04977 2.29998 2.06977 2.29998C2.08977 2.29998 2.10977 2.26998 2.11977 2.21998C2.11977 2.17998 2.12976 2.09998 2.12976 1.96998C2.12976 1.78998 2.12977 1.68998 2.11977 1.64998C2.11977 1.60998 2.09977 1.59998 2.07977 1.59998C2.05977 1.59998 2.03977 1.62998 2.02977 1.67998C2.02977 1.72998 2.01976 1.79998 2.01976 1.88998L2.00977 1.86998Z" fill="#3D3D3D"/>
<path d="M6.90015 9.66981H6.73016V9.32981C6.73016 9.32981 6.72015 9.29981 6.70015 9.27981C6.69015 9.27981 6.67016 9.25981 6.66016 9.25981C6.66016 9.25981 6.69016 9.2398 6.71016 9.2298C6.71016 9.2298 6.72016 9.20981 6.73016 9.19981V9.17981V8.9598C6.73016 8.9598 6.73016 8.89981 6.71016 8.89981C6.71016 8.89981 6.70015 8.89981 6.68015 8.89981H6.66016V8.7998H6.99015V8.89981H6.96016C6.96016 8.89981 6.93015 8.89981 6.93015 8.90981C6.93015 8.90981 6.93015 8.9398 6.93015 8.9798V9.15981C6.93015 9.15981 6.95016 9.22981 6.98016 9.24981C6.99016 9.24981 7.00016 9.24981 7.00016 9.24981C7.00016 9.24981 6.96015 9.26981 6.95015 9.27981C6.94015 9.29981 6.93015 9.31981 6.93015 9.32981V9.40981H7.01015V9.51981C7.01015 9.51981 6.96015 9.55981 6.95015 9.57981C6.93015 9.59981 6.92015 9.61981 6.90015 9.64981V9.66981Z" fill="#3D3D3D"/>
<path d="M6.33998 9.69979H6.31998C6.31998 9.69979 6.23998 9.68979 6.20998 9.66979C6.18998 9.64979 6.16998 9.63979 6.14998 9.61979C6.13998 9.59979 6.11998 9.58979 6.10998 9.56979C6.09998 9.54979 6.07998 9.51979 6.06998 9.47979C6.06998 9.45979 6.05998 9.42979 6.04998 9.37979C6.04998 9.37979 6.04998 9.31979 6.02998 9.30979C6.01998 9.28979 5.99998 9.27979 5.97998 9.26979H5.98998C6.00998 9.26979 6.01998 9.24979 6.03998 9.21979C6.03998 9.21979 6.03998 9.19979 6.03998 9.14979C6.03998 9.11979 6.03998 9.09979 6.03998 9.06979C6.03998 9.02979 6.05998 8.99979 6.06998 8.97979C6.07998 8.94979 6.08998 8.91979 6.10998 8.89979C6.15998 8.81979 6.22998 8.78979 6.30998 8.78979C6.38998 8.78979 6.45998 8.82979 6.50998 8.90979C6.52998 8.92979 6.53998 8.96979 6.55998 9.01979C6.55998 9.04979 6.57998 9.08979 6.57998 9.14979C6.57998 9.17979 6.57998 9.20979 6.57998 9.21979C6.57998 9.22979 6.57998 9.23979 6.58998 9.24979C6.59998 9.26979 6.61998 9.27979 6.63998 9.27979H6.61998C6.59998 9.27979 6.58998 9.29979 6.57998 9.31979C6.57998 9.31979 6.57998 9.34979 6.56998 9.37979C6.56998 9.42979 6.55998 9.46979 6.54998 9.48979C6.53998 9.52979 6.51998 9.55979 6.49998 9.58979C6.47998 9.60979 6.46998 9.62979 6.43998 9.64979C6.41998 9.65979 6.40998 9.66979 6.38998 9.67979C6.35998 9.68979 6.32998 9.69979 6.29998 9.69979H6.33998ZM6.37998 9.29979V9.11979C6.37998 9.00979 6.37998 8.93979 6.35998 8.90979C6.35998 8.87979 6.33998 8.86979 6.31998 8.86979C6.29998 8.86979 6.27998 8.89979 6.26998 8.94979C6.26998 8.98979 6.25998 9.06979 6.25998 9.19979C6.25998 9.37979 6.25998 9.47979 6.26998 9.51979C6.26998 9.55979 6.28998 9.56979 6.30998 9.56979C6.32998 9.56979 6.34998 9.53979 6.35998 9.48979C6.35998 9.43979 6.36998 9.36979 6.36998 9.27979L6.37998 9.29979Z" fill="#3D3D3D"/>
<path d="M3.74004 2.58986C3.74004 2.58986 3.74004 2.57986 3.74004 2.56986C3.74004 2.48986 3.70004 2.41986 3.64004 2.36986C3.50004 2.22986 3.23004 2.16986 3.14004 1.85986C3.05004 2.16986 2.78004 2.22986 2.64004 2.36986C2.58004 2.41986 2.55004 2.48986 2.54004 2.56986C2.54004 2.56986 2.54004 2.57986 2.54004 2.58986C2.54004 2.58986 2.54004 2.58986 2.54004 2.59986C2.54004 2.76986 2.69004 2.90986 2.86004 2.90986C2.88004 2.90986 2.90004 2.90986 2.93004 2.90986C2.99004 2.89986 3.06004 2.86986 3.11004 2.79986C3.11004 2.79986 3.11004 2.79986 3.11004 2.78986C3.07004 2.90986 2.99004 3.06986 2.90004 3.14986C2.97004 3.11986 3.05004 3.10986 3.14004 3.10986C3.22004 3.10986 3.30004 3.10986 3.38004 3.14986C3.28004 3.06986 3.21004 2.90986 3.17004 2.78986C3.17004 2.78986 3.17004 2.78986 3.17004 2.79986C3.22004 2.85986 3.28004 2.88986 3.35004 2.90986C3.37004 2.90986 3.39004 2.90986 3.42004 2.90986C3.59004 2.90986 3.73004 2.76986 3.74004 2.59986C3.74004 2.59986 3.74004 2.59986 3.74004 2.58986Z" fill="#3D3D3D"/>
<path d="M3.74004 8.67987C3.74004 8.67987 3.74004 8.68987 3.74004 8.69987C3.74004 8.77987 3.70004 8.84987 3.64004 8.89987C3.50004 9.03987 3.23004 9.09987 3.14004 9.40987C3.05004 9.09987 2.78004 9.03987 2.64004 8.89987C2.58004 8.84987 2.55004 8.77987 2.54004 8.69987C2.54004 8.69987 2.54004 8.68987 2.54004 8.67987C2.54004 8.67987 2.54004 8.67987 2.54004 8.66987C2.54004 8.49987 2.69004 8.35987 2.86004 8.35987C2.88004 8.35987 2.90004 8.35987 2.93004 8.35987C2.99004 8.36987 3.06004 8.39987 3.11004 8.46987C3.11004 8.46987 3.11004 8.46987 3.11004 8.47987C3.07004 8.35987 2.99004 8.19987 2.90004 8.11987C2.97004 8.14987 3.05004 8.15987 3.14004 8.15987C3.22004 8.15987 3.30004 8.15987 3.38004 8.11987C3.28004 8.19987 3.21004 8.35987 3.17004 8.47987C3.17004 8.47987 3.17004 8.47987 3.17004 8.46987C3.22004 8.40987 3.28004 8.37987 3.35004 8.35987C3.37004 8.35987 3.39004 8.35987 3.42004 8.35987C3.59004 8.35987 3.73004 8.49987 3.74004 8.66987C3.74004 8.66987 3.74004 8.66987 3.74004 8.67987Z" fill="#3D3D3D"/>
<path d="M5.88018 2.58986C5.88018 2.58986 5.88018 2.57986 5.88018 2.56986C5.88018 2.48986 5.84018 2.41986 5.78018 2.36986C5.64018 2.22986 5.37018 2.16986 5.28018 1.85986C5.19018 2.16986 4.92018 2.22986 4.78018 2.36986C4.72018 2.41986 4.69018 2.48986 4.68018 2.56986C4.68018 2.56986 4.68018 2.57986 4.68018 2.58986C4.68018 2.58986 4.68018 2.58986 4.68018 2.59986C4.68018 2.76986 4.83018 2.90986 5.00018 2.90986C5.02018 2.90986 5.04018 2.90986 5.07018 2.90986C5.13018 2.89986 5.20018 2.86986 5.25018 2.79986C5.25018 2.79986 5.25018 2.79986 5.25018 2.78986C5.21018 2.90986 5.13018 3.06986 5.04018 3.14986C5.11018 3.11986 5.19018 3.10986 5.28018 3.10986C5.36018 3.10986 5.44018 3.10986 5.52018 3.14986C5.42018 3.06986 5.35018 2.90986 5.31018 2.78986C5.31018 2.78986 5.31018 2.78986 5.31018 2.79986C5.36018 2.85986 5.42018 2.88986 5.49018 2.90986C5.51018 2.90986 5.53018 2.90986 5.56018 2.90986C5.73018 2.90986 5.87018 2.76986 5.88018 2.59986C5.88018 2.59986 5.88018 2.59986 5.88018 2.58986Z" fill="#3D3D3D"/>
<path d="M3.74004 4.66994C3.74004 4.66994 3.74004 4.65994 3.74004 4.64994C3.74004 4.56994 3.70004 4.49994 3.64004 4.44994C3.50004 4.30994 3.23004 4.24994 3.14004 3.93994C3.05004 4.24994 2.78004 4.30994 2.64004 4.44994C2.58004 4.49994 2.55004 4.56994 2.54004 4.64994C2.54004 4.64994 2.54004 4.65994 2.54004 4.66994C2.54004 4.66994 2.54004 4.66994 2.54004 4.67994C2.54004 4.84994 2.69004 4.98994 2.86004 4.98994C2.88004 4.98994 2.90004 4.98994 2.93004 4.98994C2.99004 4.97994 3.06004 4.94994 3.11004 4.87994C3.11004 4.87994 3.11004 4.87994 3.11004 4.86994C3.07004 4.98994 2.99004 5.14994 2.90004 5.22994C2.97004 5.19994 3.05004 5.18994 3.14004 5.18994C3.22004 5.18994 3.30004 5.18994 3.38004 5.22994C3.28004 5.14994 3.21004 4.98994 3.17004 4.86994C3.17004 4.86994 3.17004 4.86994 3.17004 4.87994C3.22004 4.93994 3.28004 4.96994 3.35004 4.98994C3.37004 4.98994 3.39004 4.98994 3.42004 4.98994C3.59004 4.98994 3.73004 4.84994 3.74004 4.67994C3.74004 4.67994 3.74004 4.67994 3.74004 4.66994Z" fill="#3D3D3D"/>
<path d="M5.88018 4.66994C5.88018 4.66994 5.88018 4.65994 5.88018 4.64994C5.88018 4.56994 5.84018 4.49994 5.78018 4.44994C5.64018 4.30994 5.37018 4.24994 5.28018 3.93994C5.19018 4.24994 4.92018 4.30994 4.78018 4.44994C4.72018 4.49994 4.69018 4.56994 4.68018 4.64994C4.68018 4.64994 4.68018 4.65994 4.68018 4.66994C4.68018 4.66994 4.68018 4.66994 4.68018 4.67994C4.68018 4.84994 4.83018 4.98994 5.00018 4.98994C5.02018 4.98994 5.04018 4.98994 5.07018 4.98994C5.13018 4.97994 5.20018 4.94994 5.25018 4.87994C5.25018 4.87994 5.25018 4.87994 5.25018 4.86994C5.21018 4.98994 5.13018 5.14994 5.04018 5.22994C5.11018 5.19994 5.19018 5.18994 5.28018 5.18994C5.36018 5.18994 5.44018 5.18994 5.52018 5.22994C5.42018 5.14994 5.35018 4.98994 5.31018 4.86994C5.31018 4.86994 5.31018 4.86994 5.31018 4.87994C5.36018 4.93994 5.42018 4.96994 5.49018 4.98994C5.51018 4.98994 5.53018 4.98994 5.56018 4.98994C5.73018 4.98994 5.87018 4.84994 5.88018 4.67994C5.88018 4.67994 5.88018 4.67994 5.88018 4.66994Z" fill="#3D3D3D"/>
<path d="M4.80986 3.67995C4.80986 3.67995 4.80986 3.66995 4.80986 3.65995C4.80986 3.57995 4.76987 3.50995 4.70987 3.45995C4.56987 3.31995 4.29987 3.25995 4.20987 2.94995C4.11987 3.25995 3.84987 3.31995 3.70987 3.45995C3.64987 3.50995 3.61986 3.57995 3.60986 3.65995C3.60986 3.65995 3.60986 3.66995 3.60986 3.67995C3.60986 3.67995 3.60986 3.67995 3.60986 3.68995C3.60986 3.85995 3.75986 3.99995 3.92986 3.99995C3.94986 3.99995 3.96987 3.99995 3.99987 3.99995C4.05987 3.98995 4.12986 3.95995 4.17986 3.88995C4.17986 3.88995 4.17986 3.88995 4.17986 3.87995C4.13986 3.99995 4.05986 4.15995 3.96986 4.23995C4.03986 4.20995 4.11987 4.19995 4.20987 4.19995C4.28987 4.19995 4.36986 4.19995 4.44986 4.23995C4.34986 4.15995 4.27986 3.99995 4.23986 3.87995C4.23986 3.87995 4.23986 3.87995 4.23986 3.88995C4.28986 3.94995 4.34986 3.97995 4.41986 3.99995C4.43986 3.99995 4.45986 3.99995 4.48986 3.99995C4.65986 3.99995 4.79986 3.85995 4.80986 3.68995C4.80986 3.68995 4.80986 3.68995 4.80986 3.67995Z" fill="#3D3D3D"/>
<path d="M3.60986 7.68988C3.60986 7.68988 3.60986 7.69988 3.60986 7.70988C3.60986 7.78988 3.64987 7.85988 3.70987 7.90988C3.84987 8.04988 4.11987 8.10988 4.20987 8.41988C4.29987 8.10988 4.56987 8.04988 4.70987 7.90988C4.76987 7.85988 4.79986 7.78988 4.80986 7.70988C4.80986 7.70988 4.80986 7.69988 4.80986 7.68988C4.80986 7.68988 4.80986 7.68988 4.80986 7.67988C4.80986 7.50988 4.65986 7.36988 4.48986 7.36988C4.46986 7.36988 4.44986 7.36988 4.41986 7.36988C4.35986 7.37988 4.28986 7.40988 4.23986 7.47988C4.23986 7.47988 4.23986 7.47988 4.23986 7.48988C4.27986 7.36988 4.35986 7.20988 4.44986 7.12988C4.37986 7.15988 4.29987 7.16988 4.20987 7.16988C4.12987 7.16988 4.04986 7.16988 3.96986 7.12988C4.06986 7.20988 4.13986 7.36988 4.17986 7.48988C4.17986 7.48988 4.17986 7.48988 4.17986 7.47988C4.12986 7.41988 4.06987 7.38988 3.99987 7.36988C3.97987 7.36988 3.95986 7.36988 3.92986 7.36988C3.75986 7.36988 3.61986 7.50988 3.60986 7.67988V7.68988Z" fill="#3D3D3D"/>
<path d="M4.68018 6.59979C4.68018 6.59979 4.68018 6.60979 4.68018 6.61979C4.68018 6.69979 4.72018 6.76979 4.78018 6.81979C4.92018 6.95979 5.19018 7.01979 5.28018 7.32979C5.37018 7.01979 5.64018 6.95979 5.78018 6.81979C5.84018 6.76979 5.87018 6.69979 5.88018 6.61979C5.88018 6.61979 5.88018 6.60979 5.88018 6.59979C5.88018 6.59979 5.88018 6.59979 5.88018 6.58979C5.88018 6.41979 5.73018 6.27979 5.56018 6.27979C5.54018 6.27979 5.52018 6.27979 5.49018 6.27979C5.43018 6.28979 5.36018 6.31979 5.31018 6.38979C5.31018 6.38979 5.31018 6.38979 5.31018 6.39979C5.35018 6.27979 5.43018 6.11979 5.52018 6.03979C5.45018 6.06979 5.37018 6.07979 5.28018 6.07979C5.20018 6.07979 5.12018 6.07979 5.04018 6.03979C5.14018 6.11979 5.21018 6.27979 5.25018 6.39979C5.25018 6.39979 5.25018 6.39979 5.25018 6.38979C5.20018 6.32979 5.14018 6.29979 5.07018 6.27979C5.05018 6.27979 5.03018 6.27979 5.00018 6.27979C4.83018 6.27979 4.69018 6.41979 4.68018 6.58979C4.68018 6.58979 4.68018 6.58979 4.68018 6.59979Z" fill="#3D3D3D"/>
<path d="M2.54004 6.59979C2.54004 6.59979 2.54004 6.60979 2.54004 6.61979C2.54004 6.69979 2.58004 6.76979 2.64004 6.81979C2.78004 6.95979 3.05004 7.01979 3.14004 7.32979C3.23004 7.01979 3.50004 6.95979 3.64004 6.81979C3.70004 6.76979 3.73004 6.69979 3.74004 6.61979C3.74004 6.61979 3.74004 6.60979 3.74004 6.59979C3.74004 6.59979 3.74004 6.59979 3.74004 6.58979C3.74004 6.41979 3.59004 6.27979 3.42004 6.27979C3.40004 6.27979 3.38004 6.27979 3.35004 6.27979C3.29004 6.28979 3.22004 6.31979 3.17004 6.38979C3.17004 6.38979 3.17004 6.38979 3.17004 6.39979C3.21004 6.27979 3.29004 6.11979 3.38004 6.03979C3.31004 6.06979 3.23004 6.07979 3.14004 6.07979C3.06004 6.07979 2.98004 6.07979 2.90004 6.03979C3.00004 6.11979 3.07004 6.27979 3.11004 6.39979C3.11004 6.39979 3.11004 6.39979 3.11004 6.38979C3.06004 6.32979 3.00004 6.29979 2.93004 6.27979C2.91004 6.27979 2.89004 6.27979 2.86004 6.27979C2.69004 6.27979 2.55004 6.41979 2.54004 6.58979C2.54004 6.58979 2.54004 6.58979 2.54004 6.59979Z" fill="#3D3D3D"/>
<path d="M5.88018 8.67987C5.88018 8.67987 5.88018 8.68987 5.88018 8.69987C5.88018 8.77987 5.84018 8.84987 5.78018 8.89987C5.64018 9.03987 5.37018 9.09987 5.28018 9.40987C5.19018 9.09987 4.92018 9.03987 4.78018 8.89987C4.72018 8.84987 4.69018 8.77987 4.68018 8.69987C4.68018 8.69987 4.68018 8.68987 4.68018 8.67987C4.68018 8.67987 4.68018 8.67987 4.68018 8.66987C4.68018 8.49987 4.83018 8.35987 5.00018 8.35987C5.02018 8.35987 5.04018 8.35987 5.07018 8.35987C5.13018 8.36987 5.20018 8.39987 5.25018 8.46987C5.25018 8.46987 5.25018 8.46987 5.25018 8.47987C5.21018 8.35987 5.13018 8.19987 5.04018 8.11987C5.11018 8.14987 5.19018 8.15987 5.28018 8.15987C5.36018 8.15987 5.44018 8.15987 5.52018 8.11987C5.42018 8.19987 5.35018 8.35987 5.31018 8.47987C5.31018 8.47987 5.31018 8.47987 5.31018 8.46987C5.36018 8.40987 5.42018 8.37987 5.49018 8.35987C5.51018 8.35987 5.53018 8.35987 5.56018 8.35987C5.73018 8.35987 5.87018 8.49987 5.88018 8.66987C5.88018 8.66987 5.88018 8.66987 5.88018 8.67987Z" fill="#3D3D3D"/>
<path d="M2.21024 2.95979C2.21024 2.90979 2.18023 2.86979 2.15023 2.83979C2.07023 2.75979 1.90023 2.71979 1.85023 2.53979C1.80023 2.71979 1.63024 2.75979 1.55024 2.83979C1.52024 2.86979 1.49023 2.90979 1.49023 2.95979C1.49023 3.05979 1.58023 3.13979 1.68023 3.13979C1.69023 3.13979 1.71023 3.13979 1.72023 3.13979C1.76023 3.13979 1.79023 3.10979 1.83023 3.07979C1.80023 3.14979 1.76023 3.24979 1.70023 3.29979C1.74023 3.27979 1.79023 3.27979 1.84023 3.27979C1.84023 3.27979 1.94024 3.27979 1.98024 3.29979C1.92024 3.24979 1.88023 3.15979 1.85023 3.07979C1.88023 3.11979 1.92024 3.13979 1.96024 3.13979C1.97024 3.13979 1.99024 3.13979 2.00024 3.13979C2.10024 3.13979 2.19024 3.05979 2.19024 2.95979V2.94979L2.21024 2.95979Z" fill="#3D3D3D"/>
<path d="M6.90018 8.15982C6.90018 8.20982 6.87018 8.24983 6.84018 8.27983C6.76018 8.35983 6.59018 8.39982 6.54018 8.57982C6.49018 8.39982 6.32018 8.35983 6.24018 8.27983C6.21018 8.24983 6.18018 8.20982 6.18018 8.15982C6.18018 8.05982 6.27018 7.97982 6.37018 7.97982C6.38018 7.97982 6.40018 7.97982 6.41018 7.97982C6.45018 7.97982 6.48018 8.00983 6.52018 8.03983C6.49018 7.96983 6.45018 7.86982 6.39018 7.81982C6.43018 7.83982 6.48018 7.83982 6.53018 7.83982C6.53018 7.83982 6.63018 7.83982 6.67018 7.81982C6.61018 7.86982 6.57018 7.95983 6.54018 8.03983C6.57018 7.99983 6.61018 7.97982 6.65018 7.97982C6.66018 7.97982 6.68018 7.97982 6.69018 7.97982C6.79018 7.97982 6.88018 8.05982 6.88018 8.15982H6.90018Z" fill="#3D3D3D"/>
</svg>
