<svg width="7" height="11" viewBox="0 0 7 11" fill="none" xmlns="http://www.w3.org/2000/svg">
<path d="M6.61977 10.2699H0.569763C0.399763 10.2699 0.259766 10.1299 0.259766 9.95993V1.23993C0.259766 1.06993 0.399763 0.929932 0.569763 0.929932H6.61977C6.78977 0.929932 6.92976 1.06993 6.92976 1.23993V9.95993C6.92976 10.1299 6.78977 10.2699 6.61977 10.2699ZM0.569763 0.949932C0.409763 0.949932 0.279762 1.07993 0.279762 1.23993V9.95993C0.279762 10.1199 0.409763 10.2499 0.569763 10.2499H6.61977C6.77977 10.2499 6.90977 10.1199 6.90977 9.95993V1.23993C6.90977 1.07993 6.77977 0.949932 6.61977 0.949932H0.569763Z" fill="#3D3D3D"/>
<path d="M6.61998 10.2999H0.569977C0.379977 10.2999 0.22998 10.1499 0.22998 9.9599V1.2399C0.22998 1.0499 0.379977 0.899902 0.569977 0.899902H6.61998C6.80998 0.899902 6.95998 1.0499 6.95998 1.2399V9.9599C6.95998 10.1499 6.80998 10.2999 6.61998 10.2999ZM0.569977 0.969902C0.419977 0.969902 0.309982 1.0899 0.309982 1.2299V9.9499C0.309982 10.0999 0.429977 10.2099 0.569977 10.2099H6.61998C6.76998 10.2099 6.87998 10.0899 6.87998 9.9499V1.2299C6.87998 1.0799 6.75998 0.969902 6.61998 0.969902H0.569977Z" fill="#3D3D3D"/>
<path d="M6.44 10.0499H0.740005C0.610005 10.0499 0.5 9.9399 0.5 9.8099V1.3899C0.5 1.2599 0.610005 1.1499 0.740005 1.1499H6.44C6.57 1.1499 6.68 1.2599 6.68 1.3899V9.8099C6.68 9.9399 6.57 10.0499 6.44 10.0499ZM0.740005 1.1999C0.630005 1.1999 0.550003 1.2899 0.550003 1.3899V9.8099C0.550003 9.9199 0.640005 9.9999 0.740005 9.9999H6.44C6.55 9.9999 6.63 9.9099 6.63 9.8099V1.3899C6.63 1.2799 6.54 1.1999 6.44 1.1999H0.740005Z" fill="#3D3D3D"/>
<path d="M6.91998 4.56987C6.91998 4.56987 6.84998 4.55987 6.82998 4.56987C6.81998 4.56987 6.80998 4.57987 6.79998 4.58987C6.77998 4.59987 6.75998 4.60988 6.72998 4.60988C6.74998 4.60988 6.76998 4.60988 6.77998 4.60988C6.79998 4.60988 6.80998 4.58987 6.82998 4.58987C6.84998 4.58987 6.86998 4.58987 6.87998 4.59987C6.87998 4.59987 6.87998 4.61987 6.89998 4.59987C6.89998 4.59987 6.89998 4.57987 6.89998 4.56987H6.91998Z" fill="#3D3D3D"/>
<path d="M5.5498 0.919922C5.5498 0.919922 5.6098 0.969922 5.6098 1.01992C5.6098 1.06992 5.58981 1.10992 5.58981 1.15992C5.61981 1.08992 5.6498 1.02992 5.6498 0.949923C5.6698 0.949923 5.6898 0.939922 5.7198 0.939922C5.6698 0.939922 5.6298 0.919922 5.5498 0.919922Z" fill="#3D3D3D"/>
<path d="M5.85986 0.939941C5.85986 0.939941 5.85986 1.01994 5.85986 1.04994C5.86986 1.03994 5.88986 0.97994 5.88986 0.95994C5.88986 0.94994 5.87986 0.939941 5.85986 0.939941Z" fill="#3D3D3D"/>
<path d="M2.60986 0.939941C2.60986 0.939941 2.66986 0.969941 2.67986 0.989941C2.68986 1.00994 2.67987 1.03994 2.69987 1.05994C2.70987 1.08994 2.74986 1.07994 2.77986 1.08994C2.80986 1.08994 2.82986 1.10994 2.85986 1.11994C2.85986 1.09994 2.83986 1.08994 2.81986 1.07994C2.80986 1.07994 2.79986 1.07994 2.78986 1.07994H2.74986C2.74986 1.07994 2.72987 1.01994 2.72987 1.00994C2.72987 0.989941 2.74987 0.97994 2.76987 0.96994C2.75987 0.94994 2.65987 0.96994 2.62987 0.96994L2.60986 0.939941Z" fill="#3D3D3D"/>
<path d="M2.97021 0.939941C2.97021 0.939941 2.98022 0.979941 2.99022 0.999941C2.99022 1.01994 2.99022 1.02994 3.01022 1.03994C3.01022 1.01994 3.01022 0.98994 3.01022 0.95994C3.01022 0.93994 3.01022 0.939941 2.98022 0.939941H2.97021Z" fill="#3D3D3D"/>
<path d="M0.270069 1.38986C0.270069 1.38986 0.330068 1.38986 0.370068 1.39986C0.390068 1.39986 0.370067 1.39986 0.400067 1.39986C0.420067 1.39986 0.43007 1.39986 0.45007 1.39986C0.43007 1.39986 0.41007 1.39986 0.38007 1.39986C0.34007 1.39986 0.350067 1.39986 0.330067 1.37986C0.320067 1.37986 0.300064 1.37986 0.280064 1.37986C0.270064 1.37986 0.280069 1.36986 0.270069 1.35986C0.260069 1.35986 0.270069 1.38986 0.270069 1.39986V1.38986Z" fill="#3D3D3D"/>
<path d="M0.270069 9.55978C0.270069 9.55978 0.330068 9.55978 0.370068 9.56978C0.390068 9.56978 0.370067 9.56978 0.400067 9.56978C0.420067 9.56978 0.43007 9.56978 0.45007 9.56978C0.43007 9.56978 0.41007 9.56978 0.38007 9.56978C0.34007 9.56978 0.350067 9.56978 0.330067 9.54978C0.320067 9.54978 0.300064 9.54978 0.280064 9.54978C0.270064 9.54978 0.280069 9.53979 0.270069 9.52979C0.260069 9.52979 0.270069 9.55978 0.270069 9.56978V9.55978Z" fill="#3D3D3D"/>
<path d="M0.280162 1.14995H0.360164C0.370164 1.12995 0.310168 1.13995 0.310168 1.11995C0.310168 1.10995 0.330163 1.08995 0.320163 1.07995C0.320163 1.04995 0.260167 1.10995 0.270167 1.13995L0.280162 1.14995Z" fill="#3D3D3D"/>
<path d="M4.14988 0.939941C4.14988 0.939941 4.14988 0.93994 4.15988 0.95994C4.15988 0.95994 4.15988 0.979941 4.15988 0.989941C4.15988 1.00994 4.15988 1.02994 4.15988 1.04994C4.15988 1.03994 4.15988 1.02994 4.15988 1.00994C4.15988 0.999941 4.15988 0.98994 4.16988 0.97994C4.16988 0.96994 4.16988 0.969942 4.16988 0.949942C4.16988 0.949942 4.16988 0.949942 4.14988 0.949942C4.14988 0.949942 4.13988 0.949942 4.12988 0.949942L4.14988 0.939941Z" fill="#3D3D3D"/>
<path d="M4.3999 10.2698C4.3999 10.2698 4.4599 10.2198 4.4599 10.1698C4.4599 10.1198 4.4399 10.0798 4.4399 10.0298C4.4699 10.0998 4.4999 10.1598 4.4999 10.2398C4.5199 10.2398 4.5399 10.2498 4.5699 10.2498C4.5199 10.2498 4.4799 10.2698 4.3999 10.2698Z" fill="#3D3D3D"/>
<path d="M0.25 9.02979C0.25 9.02979 0.300001 9.08978 0.360001 9.08978C0.410001 9.08978 0.45 9.06978 0.5 9.06978C0.43 9.09978 0.360001 9.12978 0.290001 9.12978C0.290001 9.14978 0.279999 9.16979 0.279999 9.19979C0.279999 9.14979 0.260002 9.10979 0.260002 9.02979H0.25Z" fill="#3D3D3D"/>
<path d="M4.70996 10.2499C4.70996 10.2499 4.70996 10.1699 4.70996 10.1399C4.71996 10.1499 4.73997 10.2099 4.73997 10.2299C4.73997 10.2399 4.72996 10.2499 4.70996 10.2499Z" fill="#3D3D3D"/>
<path d="M1.45996 10.2498C1.45996 10.2498 1.51996 10.2198 1.52996 10.1998C1.53996 10.1798 1.52996 10.1498 1.54996 10.1298C1.55996 10.0998 1.59997 10.1098 1.62997 10.0998C1.65997 10.0998 1.67996 10.0798 1.70996 10.0698C1.70996 10.0898 1.68997 10.0998 1.66997 10.1098C1.65997 10.1098 1.64996 10.1098 1.63996 10.1098H1.59996C1.59996 10.1098 1.57996 10.1698 1.57996 10.1798C1.57996 10.1998 1.59996 10.2098 1.61996 10.2198C1.60996 10.2398 1.50997 10.2198 1.47997 10.2198L1.45996 10.2498Z" fill="#3D3D3D"/>
<path d="M1.81982 10.2499C1.81982 10.2499 1.82983 10.2099 1.83983 10.1899C1.83983 10.1699 1.83983 10.1599 1.85983 10.1499C1.85983 10.1699 1.85983 10.1999 1.85983 10.2299C1.85983 10.2499 1.85983 10.2499 1.82983 10.2499H1.81982Z" fill="#3D3D3D"/>
<path d="M2.99998 10.2499C2.99998 10.2499 2.99998 10.2499 3.00998 10.2299C3.00998 10.2299 3.00998 10.2099 3.00998 10.1999C3.00998 10.1799 3.00998 10.1599 3.00998 10.1399C3.00998 10.1499 3.00998 10.1599 3.00998 10.1799C3.00998 10.1899 3.00998 10.1999 3.01998 10.2099C3.01998 10.2199 3.01998 10.2199 3.01998 10.2399C3.01998 10.2399 3.01998 10.2399 2.99998 10.2399C2.99998 10.2399 2.98998 10.2399 2.97998 10.2399L2.99998 10.2499Z" fill="#3D3D3D"/>
<path d="M6.9201 2.52979C6.8501 2.52979 6.7701 2.52979 6.7001 2.52979C6.6601 2.52979 6.6601 2.52978 6.6401 2.55978C6.6001 2.60978 6.5301 2.60979 6.4701 2.61979C6.4301 2.62979 6.3901 2.63978 6.3501 2.63978C6.3801 2.66978 6.4801 2.63978 6.5201 2.62978C6.5501 2.62978 6.5901 2.60978 6.6201 2.59978C6.6601 2.56978 6.6701 2.55978 6.7201 2.55978C6.7601 2.55978 6.7901 2.55978 6.8401 2.55978C6.8501 2.55978 6.8701 2.55978 6.8901 2.55978C6.9101 2.55978 6.9101 2.56978 6.9301 2.57978C6.9301 2.56978 6.9301 2.55979 6.9301 2.53979L6.9201 2.52979Z" fill="#3D3D3D"/>
<path d="M6.90974 7.72998C6.83974 7.72998 6.75974 7.72998 6.68974 7.72998C6.64974 7.72998 6.63974 7.75998 6.60974 7.77998C6.57974 7.79998 6.52975 7.80998 6.48975 7.80998C6.52975 7.80998 6.56974 7.80998 6.60974 7.79998C6.64974 7.76998 6.65974 7.75998 6.70974 7.75998C6.77974 7.74998 6.82974 7.75998 6.86974 7.82998C6.88974 7.86998 6.89974 7.87998 6.89974 7.91998C6.89974 7.88998 6.90975 7.85998 6.91975 7.82998C6.91975 7.79998 6.91975 7.76998 6.91975 7.73998L6.90974 7.72998Z" fill="#3D3D3D"/>
<path d="M6.90977 2.77979C6.90977 2.77979 6.79977 2.77979 6.75977 2.78979C6.78977 2.78979 6.80977 2.78979 6.83977 2.78979C6.84977 2.78979 6.85977 2.79978 6.87977 2.80978C6.90977 2.80978 6.92977 2.80979 6.91977 2.77979H6.90977Z" fill="#3D3D3D"/>
<path d="M6.91 2.33983C6.91 2.33983 6.78 2.41983 6.75 2.40983C6.78 2.37983 6.82 2.37983 6.85 2.35983C6.87 2.34983 6.89001 2.32983 6.92001 2.32983H6.91V2.33983Z" fill="#3D3D3D"/>
<path d="M0.25 3.54979C0.25 3.54979 0.290005 3.57979 0.310005 3.58979C0.330005 3.59979 0.380002 3.59979 0.400002 3.59979C0.490002 3.59979 0.550005 3.57979 0.630005 3.55979C0.570005 3.60979 0.510002 3.61979 0.440002 3.61979C0.380002 3.61979 0.28 3.61979 0.25 3.53979V3.54979Z" fill="#3D3D3D"/>
<path d="M0.269827 3.41988C0.269827 3.33988 0.399821 3.34988 0.459821 3.32988C0.419821 3.31988 0.349827 3.32988 0.309827 3.32988C0.229827 3.32988 0.259821 3.35988 0.279821 3.40988L0.269827 3.41988Z" fill="#3D3D3D"/>
<path d="M0.279785 7.00987C0.279785 6.93987 0.389787 6.96987 0.429787 6.96987C0.469787 6.96987 0.469792 6.94987 0.489792 6.91987C0.499792 6.89987 0.519785 6.87987 0.529785 6.86987C0.489785 6.89987 0.499785 6.96987 0.459785 6.98987C0.409785 7.01987 0.329787 6.96987 0.289787 7.01987C0.289787 7.01987 0.289787 6.99987 0.289787 7.00987H0.279785Z" fill="#3D3D3D"/>
<path d="M0.269868 5.46996C0.269868 5.46996 0.269868 5.50996 0.269868 5.51996C0.269868 5.51996 0.299866 5.54996 0.299866 5.55996C0.299866 5.58996 0.259865 5.59996 0.259865 5.62996C0.259865 5.58996 0.239865 5.49996 0.259865 5.45996L0.269868 5.46996Z" fill="#3D3D3D"/>
<path d="M0.279762 5.6499C0.279762 5.6499 0.319767 5.6699 0.339767 5.6699C0.369767 5.6699 0.369763 5.6699 0.389763 5.6899C0.429763 5.7199 0.439767 5.6699 0.479767 5.6699C0.459767 5.6899 0.439769 5.6899 0.419769 5.7099C0.389769 5.7199 0.389766 5.7099 0.369766 5.6999C0.359766 5.6999 0.319767 5.6999 0.299767 5.6999C0.279767 5.6999 0.279762 5.7499 0.279762 5.7699C0.279762 5.7999 0.309765 5.7999 0.329765 5.8099C0.319765 5.8099 0.289764 5.8099 0.289764 5.8099C0.289764 5.8099 0.289768 5.8099 0.269768 5.8099C0.269768 5.8099 0.259766 5.7799 0.259766 5.7699C0.259766 5.7299 0.259762 5.6999 0.279762 5.6699V5.6499Z" fill="#3D3D3D"/>
<path d="M0.269768 6.86982C0.269768 6.86982 0.349768 6.86981 0.379768 6.82981C0.369768 6.82981 0.349765 6.82981 0.329765 6.82981C0.299765 6.82981 0.279766 6.81981 0.259766 6.80981C0.259766 6.82981 0.259766 6.84982 0.259766 6.85982H0.269768C0.269768 6.85982 0.269768 6.86981 0.269768 6.87981V6.86982Z" fill="#3D3D3D"/>
<path d="M1.06006 3.08984C1.06006 3.08984 1.06006 3.08984 1.06006 3.09984C1.06006 3.09984 1.06005 3.09984 1.07005 3.08984H1.06006Z" fill="white"/>
<path d="M1.36988 1.5V2H1.43988V2.18H1.36988C1.36988 2.18 1.36988 2.25 1.36988 2.26C1.36988 2.26 1.38988 2.27 1.39988 2.27H1.42988V2.37H1.09988V2.27H1.12988C1.12988 2.27 1.15988 2.27 1.15988 2.24V2.18H0.879883V1.99C0.879883 1.99 0.919878 1.92 0.999878 1.79C1.08988 1.64 1.14988 1.54 1.17988 1.5H1.36988ZM1.17988 1.79C1.17988 1.79 1.12988 1.87 1.04988 2.01H1.18988V1.8L1.17988 1.79Z" fill="#3D3D3D"/>
<path d="M5.79021 9.66981V9.16981H5.72021V8.98981H5.79021C5.79021 8.98981 5.79021 8.91981 5.79021 8.90981C5.79021 8.90981 5.77022 8.89981 5.76022 8.89981H5.73022V8.7998H6.06022V8.89981H6.03021C6.03021 8.89981 6.00021 8.89981 6.00021 8.92981V8.98981H6.28021V9.17981C6.28021 9.17981 6.24022 9.2498 6.16022 9.3798C6.07022 9.5298 6.01022 9.62981 5.98022 9.66981H5.79021ZM5.98022 9.3898C5.98022 9.3898 6.03021 9.30981 6.11021 9.16981H5.98022V9.36981V9.3898Z" fill="#3D3D3D"/>
<path d="M3.11992 2.58986C3.11992 2.58986 3.11992 2.57986 3.11992 2.56986C3.11992 2.48986 3.07992 2.41986 3.01992 2.36986C2.87992 2.22986 2.60992 2.16986 2.51992 1.85986C2.42992 2.16986 2.15992 2.22986 2.01992 2.36986C1.95992 2.41986 1.92992 2.48986 1.91992 2.56986C1.91992 2.56986 1.91992 2.57986 1.91992 2.58986C1.91992 2.58986 1.91992 2.58986 1.91992 2.59986C1.91992 2.76986 2.06992 2.90986 2.23992 2.90986C2.25992 2.90986 2.27992 2.90986 2.30992 2.90986C2.36992 2.89986 2.43992 2.86986 2.48992 2.79986C2.48992 2.79986 2.48992 2.79986 2.48992 2.78986C2.44992 2.90986 2.36991 3.06986 2.27991 3.14986C2.34991 3.11986 2.42992 3.10986 2.51992 3.10986C2.59992 3.10986 2.67992 3.10986 2.75992 3.14986C2.65992 3.06986 2.58992 2.90986 2.54992 2.78986C2.54992 2.78986 2.54992 2.78986 2.54992 2.79986C2.59992 2.85986 2.65992 2.88986 2.72992 2.90986C2.74992 2.90986 2.76992 2.90986 2.79992 2.90986C2.96992 2.90986 3.10992 2.76986 3.11992 2.59986C3.11992 2.59986 3.11992 2.59986 3.11992 2.58986Z" fill="#3D3D3D"/>
<path d="M3.11992 8.67987C3.11992 8.67987 3.11992 8.68987 3.11992 8.69987C3.11992 8.77987 3.07992 8.84987 3.01992 8.89987C2.87992 9.03987 2.60992 9.09987 2.51992 9.40987C2.42992 9.09987 2.15992 9.03987 2.01992 8.89987C1.95992 8.84987 1.92992 8.77987 1.91992 8.69987C1.91992 8.69987 1.91992 8.68987 1.91992 8.67987C1.91992 8.67987 1.91992 8.67987 1.91992 8.66987C1.91992 8.49987 2.06992 8.35987 2.23992 8.35987C2.25992 8.35987 2.27992 8.35987 2.30992 8.35987C2.36992 8.36987 2.43992 8.39987 2.48992 8.46987C2.48992 8.46987 2.48992 8.46987 2.48992 8.47987C2.44992 8.35987 2.36991 8.19987 2.27991 8.11987C2.34991 8.14987 2.42992 8.15987 2.51992 8.15987C2.59992 8.15987 2.67992 8.15987 2.75992 8.11987C2.65992 8.19987 2.58992 8.35987 2.54992 8.47987C2.54992 8.47987 2.54992 8.47987 2.54992 8.46987C2.59992 8.40987 2.65992 8.37987 2.72992 8.35987C2.74992 8.35987 2.76992 8.35987 2.79992 8.35987C2.96992 8.35987 3.10992 8.49987 3.11992 8.66987C3.11992 8.66987 3.11992 8.66987 3.11992 8.67987Z" fill="#3D3D3D"/>
<path d="M5.26006 2.58986C5.26006 2.58986 5.26006 2.57986 5.26006 2.56986C5.26006 2.48986 5.22006 2.41986 5.16006 2.36986C5.02006 2.22986 4.75006 2.16986 4.66006 1.85986C4.57006 2.16986 4.30006 2.22986 4.16006 2.36986C4.10006 2.41986 4.07006 2.48986 4.06006 2.56986C4.06006 2.56986 4.06006 2.57986 4.06006 2.58986C4.06006 2.58986 4.06006 2.58986 4.06006 2.59986C4.06006 2.76986 4.21006 2.90986 4.38006 2.90986C4.40006 2.90986 4.42006 2.90986 4.45006 2.90986C4.51006 2.89986 4.58006 2.86986 4.63006 2.79986C4.63006 2.79986 4.63006 2.79986 4.63006 2.78986C4.59006 2.90986 4.51006 3.06986 4.42006 3.14986C4.49006 3.11986 4.57006 3.10986 4.66006 3.10986C4.74006 3.10986 4.82005 3.10986 4.90005 3.14986C4.80005 3.06986 4.73006 2.90986 4.69006 2.78986C4.69006 2.78986 4.69006 2.78986 4.69006 2.79986C4.74006 2.85986 4.80006 2.88986 4.87006 2.90986C4.89006 2.90986 4.91006 2.90986 4.94006 2.90986C5.11006 2.90986 5.25006 2.76986 5.26006 2.59986C5.26006 2.59986 5.26006 2.59986 5.26006 2.58986Z" fill="#3D3D3D"/>
<path d="M5.26006 8.67987C5.26006 8.67987 5.26006 8.68987 5.26006 8.69987C5.26006 8.77987 5.22006 8.84987 5.16006 8.89987C5.02006 9.03987 4.75006 9.09987 4.66006 9.40987C4.57006 9.09987 4.30006 9.03987 4.16006 8.89987C4.10006 8.84987 4.07006 8.77987 4.06006 8.69987C4.06006 8.69987 4.06006 8.68987 4.06006 8.67987C4.06006 8.67987 4.06006 8.67987 4.06006 8.66987C4.06006 8.49987 4.21006 8.35987 4.38006 8.35987C4.40006 8.35987 4.42006 8.35987 4.45006 8.35987C4.51006 8.36987 4.58006 8.39987 4.63006 8.46987C4.63006 8.46987 4.63006 8.46987 4.63006 8.47987C4.59006 8.35987 4.51006 8.19987 4.42006 8.11987C4.49006 8.14987 4.57006 8.15987 4.66006 8.15987C4.74006 8.15987 4.82005 8.15987 4.90005 8.11987C4.80005 8.19987 4.73006 8.35987 4.69006 8.47987C4.69006 8.47987 4.69006 8.47987 4.69006 8.46987C4.74006 8.40987 4.80006 8.37987 4.87006 8.35987C4.89006 8.35987 4.91006 8.35987 4.94006 8.35987C5.11006 8.35987 5.25006 8.49987 5.26006 8.66987C5.26006 8.66987 5.26006 8.66987 5.26006 8.67987Z" fill="#3D3D3D"/>
<path d="M1.59988 2.95979C1.59988 2.90979 1.56988 2.86979 1.53988 2.83979C1.45988 2.75979 1.28988 2.71979 1.23988 2.53979C1.18988 2.71979 1.01988 2.75979 0.93988 2.83979C0.90988 2.86979 0.879883 2.90979 0.879883 2.95979C0.879883 3.05979 0.969878 3.13979 1.06988 3.13979C1.07988 3.13979 1.09988 3.13979 1.10988 3.13979C1.14988 3.13979 1.17988 3.10979 1.21988 3.07979C1.18988 3.14979 1.14988 3.24979 1.08988 3.29979C1.12988 3.27979 1.17988 3.27979 1.22988 3.27979C1.22988 3.27979 1.32988 3.27979 1.36988 3.29979C1.30988 3.24979 1.26988 3.15979 1.23988 3.07979C1.26988 3.11979 1.30988 3.13979 1.34988 3.13979C1.35988 3.13979 1.37988 3.13979 1.38988 3.13979C1.48988 3.13979 1.57988 3.05979 1.57988 2.95979H1.59988Z" fill="#3D3D3D"/>
<path d="M6.28983 8.15982C6.28983 8.20982 6.25983 8.24983 6.22983 8.27983C6.14983 8.35983 5.97982 8.39982 5.92982 8.57982C5.87982 8.39982 5.70983 8.35983 5.62983 8.27983C5.59983 8.24983 5.56982 8.20982 5.56982 8.15982C5.56982 8.05982 5.65983 7.97982 5.75983 7.97982C5.76983 7.97982 5.78983 7.97982 5.79983 7.97982C5.83983 7.97982 5.86983 8.00983 5.90983 8.03983C5.88983 7.96983 5.83982 7.86982 5.77982 7.81982C5.81982 7.83982 5.86983 7.83982 5.91983 7.83982C5.91983 7.83982 6.01983 7.83982 6.05983 7.81982C5.99983 7.86982 5.95982 7.95983 5.92982 8.03983C5.95982 7.99983 5.99983 7.97982 6.03983 7.97982C6.04983 7.97982 6.06983 7.97982 6.07983 7.97982C6.17983 7.97982 6.26983 8.05982 6.26983 8.15982H6.28983Z" fill="#3D3D3D"/>
</svg>
