<svg width="8" height="11" viewBox="0 0 8 11" fill="none" xmlns="http://www.w3.org/2000/svg">
<path d="M7.34975 10.2699H1.29975C1.12975 10.2699 0.989746 10.1299 0.989746 9.95993V1.23993C0.989746 1.06993 1.12975 0.929932 1.29975 0.929932H7.34975C7.51975 0.929932 7.65975 1.06993 7.65975 1.23993V9.95993C7.65975 10.1299 7.51975 10.2699 7.34975 10.2699ZM1.29975 0.949932C1.13975 0.949932 1.00975 1.07993 1.00975 1.23993V9.95993C1.00975 10.1199 1.13975 10.2499 1.29975 10.2499H7.34975C7.50975 10.2499 7.63975 10.1199 7.63975 9.95993V1.23993C7.63975 1.07993 7.50975 0.949932 7.34975 0.949932H1.29975Z" fill="#3D3D3D"/>
<path d="M7.34996 10.2999H1.29996C1.10996 10.2999 0.959961 10.1499 0.959961 9.9599V1.2399C0.959961 1.0499 1.10996 0.899902 1.29996 0.899902H7.34996C7.53996 0.899902 7.68996 1.0499 7.68996 1.2399V9.9599C7.68996 10.1499 7.53996 10.2999 7.34996 10.2999ZM1.29996 0.969902C1.14996 0.969902 1.03996 1.0899 1.03996 1.2299V9.9499C1.03996 10.0999 1.15996 10.2099 1.29996 10.2099H7.34996C7.49996 10.2099 7.60996 10.0899 7.60996 9.9499V1.2299C7.60996 1.0799 7.48996 0.969902 7.34996 0.969902H1.29996Z" fill="#3D3D3D"/>
<path d="M7.16998 10.0499H1.46998C1.33998 10.0499 1.22998 9.9399 1.22998 9.8099V1.3899C1.22998 1.2599 1.33998 1.1499 1.46998 1.1499H7.16998C7.29998 1.1499 7.40998 1.2599 7.40998 1.3899V9.8099C7.40998 9.9399 7.29998 10.0499 7.16998 10.0499ZM1.46998 1.1999C1.35998 1.1999 1.27998 1.2899 1.27998 1.3899V9.8099C1.27998 9.9199 1.36998 9.9999 1.46998 9.9999H7.16998C7.27998 9.9999 7.35998 9.9099 7.35998 9.8099V1.3899C7.35998 1.2799 7.26998 1.1999 7.16998 1.1999H1.46998Z" fill="#3D3D3D"/>
<path d="M7.64996 4.56987C7.64996 4.56987 7.57997 4.55987 7.55997 4.56987C7.54997 4.56987 7.53996 4.57987 7.52996 4.58987C7.50996 4.59987 7.48996 4.60988 7.45996 4.60988C7.47996 4.60988 7.49996 4.60988 7.50996 4.60988C7.52996 4.60988 7.53997 4.58987 7.55997 4.58987C7.57997 4.58987 7.59996 4.58987 7.60996 4.59987C7.60996 4.59987 7.60997 4.61987 7.62997 4.59987C7.62997 4.59987 7.62997 4.57987 7.62997 4.56987H7.64996Z" fill="#3D3D3D"/>
<path d="M6.27979 0.919922C6.27979 0.919922 6.33979 0.969922 6.33979 1.01992C6.33979 1.06992 6.31979 1.10992 6.31979 1.15992C6.34979 1.08992 6.37979 1.02992 6.37979 0.949923C6.39979 0.949923 6.41979 0.939922 6.44979 0.939922C6.39979 0.939922 6.35979 0.919922 6.27979 0.919922Z" fill="#3D3D3D"/>
<path d="M6.58984 0.939941C6.58984 0.939941 6.58984 1.01994 6.58984 1.04994C6.59984 1.03994 6.61984 0.97994 6.61984 0.95994C6.61984 0.94994 6.60984 0.939941 6.58984 0.939941Z" fill="#3D3D3D"/>
<path d="M3.33984 0.939941C3.33984 0.939941 3.39984 0.969941 3.40984 0.989941C3.41984 1.00994 3.40984 1.03994 3.42984 1.05994C3.43984 1.08994 3.47984 1.07994 3.50984 1.08994C3.53984 1.08994 3.55984 1.10994 3.58984 1.11994C3.58984 1.09994 3.56984 1.08994 3.54984 1.07994C3.53984 1.07994 3.52984 1.07994 3.51984 1.07994H3.47984C3.47984 1.07994 3.45984 1.01994 3.45984 1.00994C3.45984 0.989941 3.47984 0.97994 3.49984 0.96994C3.48984 0.94994 3.38984 0.96994 3.35984 0.96994L3.33984 0.939941Z" fill="#3D3D3D"/>
<path d="M3.7002 0.939941C3.7002 0.939941 3.71019 0.979941 3.72019 0.999941C3.72019 1.01994 3.72019 1.02994 3.74019 1.03994C3.74019 1.01994 3.74019 0.98994 3.74019 0.95994C3.74019 0.93994 3.74019 0.939941 3.71019 0.939941H3.7002Z" fill="#3D3D3D"/>
<path d="M1.00005 1.38986C1.00005 1.38986 1.06005 1.38986 1.10005 1.39986C1.12005 1.39986 1.10005 1.39986 1.13005 1.39986C1.15005 1.39986 1.16005 1.39986 1.18005 1.39986C1.16005 1.39986 1.14005 1.39986 1.11005 1.39986C1.07005 1.39986 1.08006 1.39986 1.06006 1.37986C1.05006 1.37986 1.03005 1.37986 1.01005 1.37986C1.00005 1.37986 1.01005 1.36986 1.00005 1.35986C0.99005 1.35986 1.00005 1.38986 1.00005 1.39986V1.38986Z" fill="#3D3D3D"/>
<path d="M1.00005 9.55978C1.00005 9.55978 1.06005 9.55978 1.10005 9.56978C1.12005 9.56978 1.10005 9.56978 1.13005 9.56978C1.15005 9.56978 1.16005 9.56978 1.18005 9.56978C1.16005 9.56978 1.14005 9.56978 1.11005 9.56978C1.07005 9.56978 1.08006 9.56978 1.06006 9.54978C1.05006 9.54978 1.03005 9.54978 1.01005 9.54978C1.00005 9.54978 1.01005 9.53979 1.00005 9.52979C0.99005 9.52979 1.00005 9.55978 1.00005 9.56978V9.55978Z" fill="#3D3D3D"/>
<path d="M1.01015 1.14995H1.09015C1.10015 1.12995 1.04015 1.13995 1.04015 1.11995C1.04015 1.10995 1.06015 1.08995 1.05015 1.07995C1.05015 1.04995 0.990148 1.10995 1.00015 1.13995L1.01015 1.14995Z" fill="#3D3D3D"/>
<path d="M4.87987 0.939941C4.87987 0.939941 4.87986 0.93994 4.88986 0.95994C4.88986 0.95994 4.88986 0.979941 4.88986 0.989941C4.88986 1.00994 4.88986 1.02994 4.88986 1.04994C4.88986 1.03994 4.88986 1.02994 4.88986 1.00994C4.88986 0.999941 4.88986 0.98994 4.89986 0.97994C4.89986 0.96994 4.89986 0.969942 4.89986 0.949942C4.89986 0.949942 4.89987 0.949942 4.87987 0.949942C4.87987 0.949942 4.86986 0.949942 4.85986 0.949942L4.87987 0.939941Z" fill="#3D3D3D"/>
<path d="M5.12988 10.2698C5.12988 10.2698 5.18988 10.2198 5.18988 10.1698C5.18988 10.1198 5.16988 10.0798 5.16988 10.0298C5.19988 10.0998 5.22988 10.1598 5.22988 10.2398C5.24988 10.2398 5.26988 10.2498 5.29988 10.2498C5.24988 10.2498 5.20988 10.2698 5.12988 10.2698Z" fill="#3D3D3D"/>
<path d="M0.97998 9.02979C0.97998 9.02979 1.02998 9.08978 1.07998 9.08978C1.12998 9.08978 1.16998 9.06978 1.21998 9.06978C1.14998 9.09978 1.07998 9.12978 1.00998 9.12978C1.00998 9.14978 0.999977 9.16979 0.999977 9.19979C0.999977 9.14979 0.97998 9.10979 0.97998 9.02979Z" fill="#3D3D3D"/>
<path d="M5.43994 10.2499C5.43994 10.2499 5.43994 10.1699 5.43994 10.1399C5.44994 10.1499 5.46994 10.2099 5.46994 10.2299C5.46994 10.2399 5.45994 10.2499 5.43994 10.2499Z" fill="#3D3D3D"/>
<path d="M2.18994 10.2498C2.18994 10.2498 2.24994 10.2198 2.25994 10.1998C2.26994 10.1798 2.25994 10.1498 2.27994 10.1298C2.28994 10.0998 2.32994 10.1098 2.35994 10.0998C2.38994 10.0998 2.40994 10.0798 2.43994 10.0698C2.43994 10.0898 2.41994 10.0998 2.39994 10.1098C2.38994 10.1098 2.37994 10.1098 2.36994 10.1098H2.32994C2.32994 10.1098 2.30994 10.1698 2.30994 10.1798C2.30994 10.1998 2.32994 10.2098 2.34994 10.2198C2.33994 10.2398 2.23994 10.2198 2.20994 10.2198L2.18994 10.2498Z" fill="#3D3D3D"/>
<path d="M2.5498 10.2499C2.5498 10.2499 2.5598 10.2099 2.5698 10.1899C2.5698 10.1699 2.56981 10.1599 2.58981 10.1499C2.58981 10.1699 2.58981 10.1999 2.58981 10.2299C2.58981 10.2499 2.58981 10.2499 2.55981 10.2499H2.5498Z" fill="#3D3D3D"/>
<path d="M3.72997 10.2499C3.72997 10.2499 3.72996 10.2499 3.73996 10.2299C3.73996 10.2299 3.73996 10.2099 3.73996 10.1999C3.73996 10.1799 3.73996 10.1599 3.73996 10.1399C3.73996 10.1499 3.73996 10.1599 3.73996 10.1799C3.73996 10.1899 3.73996 10.1999 3.74996 10.2099C3.74996 10.2199 3.74996 10.2199 3.74996 10.2399C3.74996 10.2399 3.74997 10.2399 3.72997 10.2399C3.72997 10.2399 3.71996 10.2399 3.70996 10.2399L3.72997 10.2499Z" fill="#3D3D3D"/>
<path d="M7.65008 2.52979C7.58008 2.52979 7.50008 2.52979 7.43008 2.52979C7.39008 2.52979 7.39008 2.52978 7.37008 2.55978C7.33008 2.60978 7.26008 2.60979 7.20008 2.61979C7.16008 2.62979 7.12008 2.63978 7.08008 2.63978C7.11008 2.66978 7.21008 2.63978 7.25008 2.62978C7.28008 2.62978 7.32007 2.60978 7.35007 2.59978C7.39007 2.56978 7.40008 2.55978 7.45008 2.55978C7.49008 2.55978 7.52008 2.55978 7.57008 2.55978C7.58008 2.55978 7.60008 2.55978 7.62008 2.55978C7.64008 2.55978 7.64008 2.56978 7.66008 2.57978C7.66008 2.56978 7.66008 2.55979 7.66008 2.53979L7.65008 2.52979Z" fill="#3D3D3D"/>
<path d="M7.63972 7.72998C7.56972 7.72998 7.48972 7.72998 7.41972 7.72998C7.37972 7.72998 7.36973 7.75998 7.33973 7.77998C7.30973 7.79998 7.25973 7.80998 7.21973 7.80998C7.25973 7.80998 7.29973 7.80998 7.33973 7.79998C7.37973 7.76998 7.38973 7.75998 7.43973 7.75998C7.50973 7.74998 7.55972 7.75998 7.59972 7.82998C7.61972 7.86998 7.62973 7.87998 7.62973 7.91998C7.62973 7.88998 7.63973 7.85998 7.64973 7.82998C7.64973 7.79998 7.64973 7.76998 7.64973 7.73998L7.63972 7.72998Z" fill="#3D3D3D"/>
<path d="M7.63975 2.77979C7.63975 2.77979 7.52975 2.77979 7.48975 2.78979C7.51975 2.78979 7.53975 2.78979 7.56975 2.78979C7.57975 2.78979 7.58975 2.79978 7.60975 2.80978C7.63975 2.80978 7.65975 2.80979 7.64975 2.77979H7.63975Z" fill="#3D3D3D"/>
<path d="M7.63998 2.33983C7.63998 2.33983 7.50998 2.41983 7.47998 2.40983C7.50998 2.37983 7.54998 2.37983 7.57998 2.35983C7.59998 2.34983 7.61998 2.32983 7.64998 2.32983H7.63998V2.33983Z" fill="#3D3D3D"/>
<path d="M0.97998 3.54979C0.97998 3.54979 1.01998 3.57979 1.03998 3.58979C1.05998 3.59979 1.10998 3.59979 1.12998 3.59979C1.21998 3.59979 1.27998 3.57979 1.35998 3.55979C1.29998 3.60979 1.23998 3.61979 1.16998 3.61979C1.10998 3.61979 1.00998 3.61979 0.97998 3.53979V3.54979Z" fill="#3D3D3D"/>
<path d="M0.999803 3.41988C0.999803 3.33988 1.12981 3.34988 1.18981 3.32988C1.14981 3.31988 1.0798 3.32988 1.0398 3.32988C0.959804 3.32988 0.989805 3.35988 1.00981 3.40988L0.999803 3.41988Z" fill="#3D3D3D"/>
<path d="M1.00977 7.00987C1.00977 6.93987 1.11977 6.96987 1.15977 6.96987C1.19977 6.96987 1.19976 6.94987 1.21976 6.91987C1.22976 6.89987 1.24977 6.87987 1.25977 6.86987C1.21977 6.89987 1.22977 6.96987 1.18977 6.98987C1.13977 7.01987 1.05977 6.96987 1.01977 7.01987C1.01977 7.01987 1.01977 6.99987 1.01977 7.00987H1.00977Z" fill="#3D3D3D"/>
<path d="M0.999848 5.46996C0.999848 5.46996 0.999848 5.50996 0.999848 5.51996C0.999848 5.51996 1.02985 5.54996 1.02985 5.55996C1.02985 5.58996 0.989846 5.59996 0.989846 5.62996C0.989846 5.58996 0.969846 5.49996 0.989846 5.45996L0.999848 5.46996Z" fill="#3D3D3D"/>
<path d="M1.00975 5.6499C1.00975 5.6499 1.04975 5.6699 1.06975 5.6699C1.09975 5.6699 1.09975 5.6699 1.11975 5.6899C1.15975 5.7199 1.16975 5.6699 1.20975 5.6699C1.18975 5.6899 1.16975 5.6899 1.14975 5.7099C1.11975 5.7199 1.11975 5.7099 1.09975 5.6999C1.08975 5.6999 1.04975 5.6999 1.02975 5.6999C1.00975 5.6999 1.00975 5.7499 1.00975 5.7699C1.00975 5.7999 1.03975 5.7999 1.05975 5.8099C1.04975 5.8099 1.01975 5.8099 1.01975 5.8099C1.01975 5.8099 1.01975 5.8099 0.999748 5.8099C0.999748 5.8099 0.989746 5.7799 0.989746 5.7699C0.989746 5.7299 0.98975 5.6999 1.00975 5.6699V5.6499Z" fill="#3D3D3D"/>
<path d="M0.999748 6.86982C0.999748 6.86982 1.07975 6.86981 1.10975 6.82981C1.09975 6.82981 1.07975 6.82981 1.05975 6.82981C1.02975 6.82981 1.00975 6.81981 0.989746 6.80981C0.989746 6.82981 0.989746 6.84982 0.989746 6.85982H0.999748C0.999748 6.85982 0.999748 6.86981 0.999748 6.87981V6.86982Z" fill="#3D3D3D"/>
<path d="M1.79004 3.08984C1.79004 3.08984 1.79004 3.08984 1.79004 3.09984C1.79004 3.09984 1.79004 3.09984 1.80004 3.08984H1.79004Z" fill="white"/>
<path d="M1.91988 1.48999C1.91988 1.48999 1.99988 1.48999 2.03988 1.51999C2.05988 1.52999 2.07988 1.53999 2.08988 1.54999C2.10988 1.56999 2.11988 1.57999 2.12988 1.58999C2.14988 1.61999 2.15988 1.63999 2.15988 1.66999V1.69999C2.15988 1.77999 2.13988 1.83999 2.09988 1.86999C2.07988 1.88999 2.05988 1.89999 2.02988 1.89999C2.02988 1.89999 2.02988 1.89999 2.04988 1.90999C2.05988 1.90999 2.07988 1.91999 2.09988 1.92999C2.11988 1.93999 2.12988 1.94999 2.13988 1.95999C2.16988 1.98999 2.17988 2.03999 2.17988 2.09999V2.11999C2.17988 2.17999 2.17988 2.21999 2.17988 2.21999C2.17988 2.22999 2.17988 2.24999 2.15988 2.25999C2.14988 2.27999 2.11988 2.30999 2.08988 2.32999C2.03988 2.35999 1.97988 2.37999 1.89988 2.37999C1.77988 2.37999 1.69988 2.34999 1.65988 2.28999C1.65988 2.28999 1.64988 2.26999 1.63988 2.24999C1.63988 2.22999 1.62988 2.18999 1.62988 2.12999H1.81988C1.81988 2.18999 1.82988 2.23999 1.84988 2.25999C1.85988 2.26999 1.86988 2.27999 1.88988 2.27999C1.88988 2.27999 1.93988 2.24999 1.94988 2.18999C1.94988 2.17999 1.94988 2.15999 1.94988 2.14999C1.94988 2.09999 1.94988 2.05999 1.92988 2.03999C1.92988 2.03999 1.91988 2.02999 1.90988 2.01999C1.89988 2.01999 1.87988 2.00999 1.86988 2.00999H1.82988V1.81999H1.88988C1.88988 1.81999 1.92988 1.81999 1.93988 1.79999C1.93988 1.79999 1.94988 1.77999 1.95988 1.76999C1.95988 1.74999 1.95988 1.72999 1.95988 1.70999C1.95988 1.64999 1.94988 1.62999 1.91988 1.61999C1.91988 1.61999 1.91988 1.61999 1.90988 1.61999C1.90988 1.61999 1.86988 1.63999 1.85988 1.67999C1.85988 1.69999 1.85988 1.70999 1.85988 1.73999H1.66988C1.66988 1.69999 1.66988 1.65999 1.68988 1.61999C1.70988 1.57999 1.73988 1.53999 1.77988 1.51999C1.81988 1.49999 1.86988 1.48999 1.91988 1.48999Z" fill="#3D3D3D"/>
<path d="M6.67992 9.68981C6.67992 9.68981 6.59993 9.68981 6.55993 9.65981C6.53993 9.64981 6.51993 9.6398 6.50993 9.6298C6.48993 9.6098 6.47992 9.59981 6.46992 9.58981C6.44992 9.55981 6.43993 9.53981 6.43993 9.50981V9.4798C6.43993 9.3998 6.45992 9.3398 6.49992 9.3098C6.51992 9.2898 6.53992 9.27981 6.56992 9.27981C6.56992 9.27981 6.56993 9.27981 6.54993 9.26981C6.53993 9.26981 6.51992 9.25981 6.49992 9.24981C6.47992 9.23981 6.46992 9.2298 6.45992 9.2198C6.42992 9.1898 6.41992 9.13981 6.41992 9.07981V9.0598C6.41992 8.9998 6.41992 8.9598 6.41992 8.9598C6.41992 8.9498 6.41993 8.92981 6.43993 8.91981C6.44993 8.89981 6.47993 8.86981 6.50993 8.84981C6.55993 8.81981 6.61993 8.7998 6.69993 8.7998C6.81993 8.7998 6.89993 8.8298 6.93993 8.8898C6.93993 8.8898 6.94992 8.90981 6.95992 8.92981C6.95992 8.94981 6.96992 8.9898 6.96992 9.0498H6.77992C6.77992 8.9898 6.76992 8.93981 6.74992 8.91981C6.73992 8.90981 6.72992 8.89981 6.70992 8.89981C6.70992 8.89981 6.65993 8.92981 6.64993 8.98981C6.64993 8.99981 6.64993 9.01981 6.64993 9.02981C6.64993 9.07981 6.64992 9.1198 6.66992 9.1398C6.66992 9.1398 6.67993 9.14981 6.68993 9.15981C6.69993 9.15981 6.71993 9.16981 6.72993 9.16981H6.76993V9.35981H6.70992C6.70992 9.35981 6.66993 9.3598 6.65993 9.3798C6.65993 9.3798 6.64992 9.39981 6.63992 9.40981C6.63992 9.42981 6.63992 9.4498 6.63992 9.4698C6.63992 9.5298 6.64992 9.5498 6.67992 9.5598C6.67992 9.5598 6.67993 9.5598 6.68993 9.5598C6.68993 9.5598 6.72992 9.53981 6.73992 9.49981C6.73992 9.47981 6.73992 9.46981 6.73992 9.43981H6.92992C6.92992 9.47981 6.92993 9.5198 6.90993 9.5598C6.88993 9.5998 6.85992 9.63981 6.81992 9.65981C6.77992 9.67981 6.72992 9.68981 6.67992 9.68981Z" fill="#3D3D3D"/>
<path d="M4.91972 2.58986C4.91972 2.58986 4.91972 2.57986 4.91972 2.56986C4.91972 2.48986 4.87973 2.41986 4.81973 2.36986C4.67973 2.22986 4.40973 2.16986 4.31973 1.85986C4.22973 2.16986 3.95973 2.22986 3.81973 2.36986C3.75973 2.41986 3.72973 2.48986 3.71973 2.56986C3.71973 2.56986 3.71973 2.57986 3.71973 2.58986C3.71973 2.58986 3.71973 2.58986 3.71973 2.59986C3.71973 2.76986 3.86973 2.90986 4.03973 2.90986C4.05973 2.90986 4.07973 2.90986 4.10973 2.90986C4.16973 2.89986 4.23973 2.86986 4.28973 2.79986C4.28973 2.79986 4.28973 2.79986 4.28973 2.78986C4.24973 2.90986 4.16973 3.06986 4.07973 3.14986C4.14973 3.11986 4.22973 3.10986 4.31973 3.10986C4.39973 3.10986 4.47973 3.10986 4.55973 3.14986C4.45973 3.06986 4.38972 2.90986 4.34972 2.78986C4.34972 2.78986 4.34972 2.78986 4.34972 2.79986C4.39972 2.85986 4.45972 2.88986 4.52972 2.90986C4.54972 2.90986 4.56972 2.90986 4.59972 2.90986C4.76972 2.90986 4.90972 2.76986 4.91972 2.59986C4.91972 2.59986 4.91972 2.58986 4.91972 2.57986V2.58986Z" fill="#3D3D3D"/>
<path d="M4.91972 5.71999C4.91972 5.71999 4.91972 5.70999 4.91972 5.69999C4.91972 5.61999 4.87973 5.54999 4.81973 5.49999C4.67973 5.35999 4.40973 5.29999 4.31973 4.98999C4.22973 5.29999 3.95973 5.35999 3.81973 5.49999C3.75973 5.54999 3.72973 5.61999 3.71973 5.69999C3.71973 5.69999 3.71973 5.70999 3.71973 5.71999C3.71973 5.71999 3.71973 5.71999 3.71973 5.72999C3.71973 5.89999 3.86973 6.03999 4.03973 6.03999C4.05973 6.03999 4.07973 6.03999 4.10973 6.03999C4.16973 6.02999 4.23973 5.99999 4.28973 5.92999C4.28973 5.92999 4.28973 5.92999 4.28973 5.91999C4.24973 6.03999 4.16973 6.19999 4.07973 6.27999C4.14973 6.24999 4.22973 6.23999 4.31973 6.23999C4.39973 6.23999 4.47973 6.23999 4.55973 6.27999C4.45973 6.19999 4.38972 6.03999 4.34972 5.91999C4.34972 5.91999 4.34972 5.91999 4.34972 5.92999C4.39972 5.98999 4.45972 6.01999 4.52972 6.03999C4.54972 6.03999 4.56972 6.03999 4.59972 6.03999C4.76972 6.03999 4.90972 5.89999 4.91972 5.72999C4.91972 5.72999 4.91972 5.71999 4.91972 5.70999V5.71999Z" fill="#3D3D3D"/>
<path d="M4.91972 8.67987C4.91972 8.67987 4.91972 8.68987 4.91972 8.69987C4.91972 8.77987 4.87973 8.84987 4.81973 8.89987C4.67973 9.03987 4.40973 9.09987 4.31973 9.40987C4.22973 9.09987 3.95973 9.03987 3.81973 8.89987C3.75973 8.84987 3.72973 8.77987 3.71973 8.69987C3.71973 8.69987 3.71973 8.68987 3.71973 8.67987C3.71973 8.67987 3.71973 8.67987 3.71973 8.66987C3.71973 8.49987 3.86973 8.35987 4.03973 8.35987C4.05973 8.35987 4.07973 8.35987 4.10973 8.35987C4.16973 8.36987 4.23973 8.39987 4.28973 8.46987C4.28973 8.46987 4.28973 8.46987 4.28973 8.47987C4.24973 8.35987 4.16973 8.19987 4.07973 8.11987C4.14973 8.14987 4.22973 8.15987 4.31973 8.15987C4.39973 8.15987 4.47973 8.15987 4.55973 8.11987C4.45973 8.19987 4.38972 8.35987 4.34972 8.47987C4.34972 8.47987 4.34972 8.47987 4.34972 8.46987C4.39972 8.40987 4.45972 8.37987 4.52972 8.35987C4.54972 8.35987 4.56972 8.35987 4.59972 8.35987C4.76972 8.35987 4.90972 8.49987 4.91972 8.66987C4.91972 8.66987 4.91972 8.67987 4.91972 8.68987V8.67987Z" fill="#3D3D3D"/>
<path d="M2.32986 2.95979C2.32986 2.90979 2.29987 2.86979 2.26987 2.83979C2.18987 2.75979 2.01986 2.71979 1.96986 2.53979C1.91986 2.71979 1.74986 2.75979 1.66986 2.83979C1.63986 2.86979 1.60986 2.90979 1.60986 2.95979C1.60986 3.05979 1.69987 3.13979 1.79987 3.13979C1.80987 3.13979 1.82987 3.13979 1.83987 3.13979C1.87987 3.13979 1.90987 3.10979 1.94987 3.07979C1.92987 3.14979 1.87986 3.24979 1.81986 3.29979C1.85986 3.27979 1.90986 3.27979 1.95986 3.27979C1.95986 3.27979 2.05986 3.27979 2.09986 3.29979C2.03986 3.24979 1.99986 3.15979 1.96986 3.07979C1.99986 3.11979 2.03986 3.13979 2.07986 3.13979C2.08986 3.13979 2.10987 3.13979 2.11987 3.13979C2.21987 3.13979 2.30987 3.05979 2.30987 2.95979H2.32986Z" fill="#3D3D3D"/>
<path d="M7.01981 8.15982C7.01981 8.20982 6.9898 8.24983 6.9598 8.27983C6.8798 8.35983 6.70981 8.39982 6.65981 8.57982C6.60981 8.39982 6.4398 8.35983 6.3598 8.27983C6.3298 8.24983 6.2998 8.20982 6.2998 8.15982C6.2998 8.05982 6.3898 7.97982 6.4898 7.97982C6.4998 7.97982 6.5198 7.97982 6.5298 7.97982C6.5698 7.97982 6.5998 8.00983 6.6398 8.03983C6.6198 7.96983 6.5698 7.86982 6.5098 7.81982C6.5498 7.83982 6.5998 7.83982 6.6498 7.83982C6.6498 7.83982 6.7498 7.83982 6.7898 7.81982C6.7298 7.86982 6.68981 7.95983 6.65981 8.03983C6.68981 7.99983 6.72981 7.97982 6.76981 7.97982C6.77981 7.97982 6.79981 7.97982 6.80981 7.97982C6.90981 7.97982 6.9998 8.05982 6.9998 8.15982H7.01981Z" fill="#3D3D3D"/>
</svg>
