<svg width="8" height="11" viewBox="0 0 8 11" fill="none" xmlns="http://www.w3.org/2000/svg">
<path d="M6.88978 10.2699H0.839783C0.669783 10.2699 0.529785 10.1299 0.529785 9.95993V1.23993C0.529785 1.06993 0.669783 0.929932 0.839783 0.929932H6.88978C7.05978 0.929932 7.19978 1.06993 7.19978 1.23993V9.95993C7.19978 10.1299 7.05978 10.2699 6.88978 10.2699ZM0.839783 0.949932C0.679783 0.949932 0.549782 1.07993 0.549782 1.23993V9.95993C0.549782 10.1199 0.679783 10.2499 0.839783 10.2499H6.88978C7.04978 10.2499 7.17978 10.1199 7.17978 9.95993V1.23993C7.17978 1.07993 7.04978 0.949932 6.88978 0.949932H0.839783Z" fill="#3D3D3D"/>
<path d="M6.89 10.2999H0.840004C0.650004 10.2999 0.5 10.1499 0.5 9.9599V1.2399C0.5 1.0499 0.650004 0.899902 0.840004 0.899902H6.89C7.08 0.899902 7.23 1.0499 7.23 1.2399V9.9599C7.23 10.1499 7.08 10.2999 6.89 10.2999ZM0.840004 0.969902C0.690004 0.969902 0.580002 1.0899 0.580002 1.2299V9.9499C0.580002 10.0999 0.700004 10.2099 0.840004 10.2099H6.89C7.04 10.2099 7.15 10.0899 7.15 9.9499V1.2299C7.15 1.0799 7.03 0.969902 6.89 0.969902H0.840004Z" fill="#3D3D3D"/>
<path d="M6.71001 10.0499H1.01002C0.870017 10.0499 0.77002 9.9399 0.77002 9.8099V1.3899C0.77002 1.2599 0.880017 1.1499 1.01002 1.1499H6.71001C6.84001 1.1499 6.95002 1.2599 6.95002 1.3899V9.8099C6.95002 9.9399 6.84001 10.0499 6.71001 10.0499ZM1.01002 1.1999C0.900017 1.1999 0.820015 1.2899 0.820015 1.3899V9.8099C0.820015 9.9199 0.910017 9.9999 1.01002 9.9999H6.71001C6.82001 9.9999 6.90002 9.9099 6.90002 9.8099V1.3899C6.90002 1.2799 6.81001 1.1999 6.71001 1.1999H1.01002Z" fill="#3D3D3D"/>
<path d="M7.19 4.56987C7.19 4.56987 7.12001 4.55987 7.10001 4.56987C7.09001 4.56987 7.08 4.57987 7.07 4.58987C7.05 4.59987 7.03 4.60988 7 4.60988C7.02 4.60988 7.04 4.60988 7.05 4.60988C7.07 4.60988 7.08001 4.58987 7.10001 4.58987C7.12001 4.58987 7.14 4.58987 7.15 4.59987C7.15 4.59987 7.15001 4.61987 7.17001 4.59987C7.17001 4.59987 7.17001 4.57987 7.17001 4.56987H7.19Z" fill="#3D3D3D"/>
<path d="M5.81982 0.919922C5.81982 0.919922 5.87983 0.969922 5.87983 1.01992C5.87983 1.06992 5.85983 1.10992 5.85983 1.15992C5.88983 1.08992 5.91983 1.02992 5.91983 0.949923C5.93983 0.949923 5.95983 0.939922 5.98983 0.939922C5.93983 0.939922 5.89982 0.919922 5.81982 0.919922Z" fill="#3D3D3D"/>
<path d="M6.12988 0.939941C6.12988 0.939941 6.12988 1.01994 6.12988 1.04994C6.13988 1.03994 6.15988 0.97994 6.15988 0.95994C6.15988 0.94994 6.14988 0.939941 6.12988 0.939941Z" fill="#3D3D3D"/>
<path d="M2.87988 0.939941C2.87988 0.939941 2.93988 0.969941 2.94988 0.989941C2.95988 1.00994 2.94988 1.03994 2.96988 1.05994C2.97988 1.08994 3.01988 1.07994 3.04988 1.08994C3.07988 1.08994 3.09988 1.10994 3.12988 1.11994C3.12988 1.09994 3.10988 1.08994 3.08988 1.07994C3.07988 1.07994 3.06988 1.07994 3.05988 1.07994H3.01988C3.01988 1.07994 2.99988 1.01994 2.99988 1.00994C2.99988 0.989941 3.01988 0.97994 3.03988 0.96994C3.02988 0.94994 2.92988 0.96994 2.89988 0.96994L2.87988 0.939941Z" fill="#3D3D3D"/>
<path d="M3.24023 0.939941C3.24023 0.939941 3.25023 0.979941 3.26023 0.999941C3.26023 1.01994 3.26024 1.02994 3.28024 1.03994C3.28024 1.01994 3.28024 0.98994 3.28024 0.95994C3.28024 0.93994 3.28023 0.939941 3.25023 0.939941H3.24023Z" fill="#3D3D3D"/>
<path d="M0.540089 1.38986C0.540089 1.38986 0.600087 1.38986 0.640087 1.39986C0.660087 1.39986 0.640094 1.39986 0.670094 1.39986C0.690094 1.39986 0.700089 1.39986 0.720089 1.39986C0.700089 1.39986 0.68009 1.39986 0.65009 1.39986C0.61009 1.39986 0.620094 1.39986 0.600094 1.37986C0.590094 1.37986 0.570091 1.37986 0.550091 1.37986C0.540091 1.37986 0.550089 1.36986 0.540089 1.35986C0.530089 1.35986 0.540089 1.38986 0.540089 1.39986V1.38986Z" fill="#3D3D3D"/>
<path d="M0.540089 9.55978C0.540089 9.55978 0.600087 9.55978 0.640087 9.56978C0.660087 9.56978 0.640094 9.56978 0.670094 9.56978C0.690094 9.56978 0.700089 9.56978 0.720089 9.56978C0.700089 9.56978 0.68009 9.56978 0.65009 9.56978C0.61009 9.56978 0.620094 9.56978 0.600094 9.54978C0.590094 9.54978 0.570091 9.54978 0.550091 9.54978C0.540091 9.54978 0.550089 9.53979 0.540089 9.52979C0.530089 9.52979 0.540089 9.55978 0.540089 9.56978V9.55978Z" fill="#3D3D3D"/>
<path d="M0.550189 1.14995H0.630191C0.640191 1.12995 0.580188 1.13995 0.580188 1.11995C0.580188 1.10995 0.60019 1.08995 0.59019 1.07995C0.59019 1.04995 0.530187 1.10995 0.540187 1.13995L0.550189 1.14995Z" fill="#3D3D3D"/>
<path d="M4.41991 0.939941C4.41991 0.939941 4.4199 0.93994 4.4299 0.95994C4.4299 0.95994 4.4299 0.979941 4.4299 0.989941C4.4299 1.00994 4.4299 1.02994 4.4299 1.04994C4.4299 1.03994 4.4299 1.02994 4.4299 1.00994C4.4299 0.999941 4.4299 0.98994 4.4399 0.97994C4.4399 0.96994 4.4399 0.969942 4.4399 0.949942C4.4399 0.949942 4.43991 0.949942 4.41991 0.949942C4.41991 0.949942 4.4099 0.949942 4.3999 0.949942L4.41991 0.939941Z" fill="#3D3D3D"/>
<path d="M4.66992 10.2698C4.66992 10.2698 4.72992 10.2198 4.72992 10.1698C4.72992 10.1198 4.70992 10.0798 4.70992 10.0298C4.73992 10.0998 4.76992 10.1598 4.76992 10.2398C4.78992 10.2398 4.80992 10.2498 4.83992 10.2498C4.78992 10.2498 4.74992 10.2698 4.66992 10.2698Z" fill="#3D3D3D"/>
<path d="M0.52002 9.02979C0.52002 9.02979 0.57002 9.08978 0.63002 9.08978C0.68002 9.08978 0.72002 9.06978 0.77002 9.06978C0.70002 9.09978 0.63002 9.12978 0.56002 9.12978C0.56002 9.14978 0.550018 9.16979 0.550018 9.19979C0.550018 9.14979 0.530022 9.10979 0.530022 9.02979H0.52002Z" fill="#3D3D3D"/>
<path d="M4.97998 10.2499C4.97998 10.2499 4.97998 10.1699 4.97998 10.1399C4.98998 10.1499 5.00998 10.2099 5.00998 10.2299C5.00998 10.2399 4.99998 10.2499 4.97998 10.2499Z" fill="#3D3D3D"/>
<path d="M1.72998 10.2498C1.72998 10.2498 1.78998 10.2198 1.79998 10.1998C1.80998 10.1798 1.79998 10.1498 1.81998 10.1298C1.82998 10.0998 1.86998 10.1098 1.89998 10.0998C1.92998 10.0998 1.94998 10.0798 1.97998 10.0698C1.97998 10.0898 1.95998 10.0998 1.93998 10.1098C1.92998 10.1098 1.91998 10.1098 1.90998 10.1098H1.86998C1.86998 10.1098 1.84998 10.1698 1.84998 10.1798C1.84998 10.1998 1.86998 10.2098 1.88998 10.2198C1.87998 10.2398 1.77998 10.2198 1.74998 10.2198L1.72998 10.2498Z" fill="#3D3D3D"/>
<path d="M2.08984 10.2499C2.08984 10.2499 2.09984 10.2099 2.10984 10.1899C2.10984 10.1699 2.10984 10.1599 2.12984 10.1499C2.12984 10.1699 2.12984 10.1999 2.12984 10.2299C2.12984 10.2499 2.12985 10.2499 2.09985 10.2499H2.08984Z" fill="#3D3D3D"/>
<path d="M3.27 10.2499C3.27 10.2499 3.27001 10.2499 3.28001 10.2299C3.28001 10.2299 3.28001 10.2099 3.28001 10.1999C3.28001 10.1799 3.28001 10.1599 3.28001 10.1399C3.28001 10.1499 3.28001 10.1599 3.28001 10.1799C3.28001 10.1899 3.28 10.1999 3.29 10.2099C3.29 10.2199 3.29 10.2199 3.29 10.2399C3.29 10.2399 3.29 10.2399 3.27 10.2399C3.27 10.2399 3.26 10.2399 3.25 10.2399L3.27 10.2499Z" fill="#3D3D3D"/>
<path d="M7.19012 2.52979C7.12012 2.52979 7.04012 2.52979 6.97012 2.52979C6.93012 2.52979 6.93012 2.52978 6.91012 2.55978C6.87012 2.60978 6.80012 2.60979 6.74012 2.61979C6.70012 2.62979 6.66012 2.63978 6.62012 2.63978C6.65012 2.66978 6.75012 2.63978 6.79012 2.62978C6.82012 2.62978 6.86011 2.60978 6.89011 2.59978C6.93011 2.56978 6.94012 2.55978 6.99012 2.55978C7.03012 2.55978 7.06012 2.55978 7.11012 2.55978C7.12012 2.55978 7.14012 2.55978 7.16012 2.55978C7.18012 2.55978 7.18012 2.56978 7.20012 2.57978C7.20012 2.56978 7.20012 2.55979 7.20012 2.53979L7.19012 2.52979Z" fill="#3D3D3D"/>
<path d="M7.17976 7.72998C7.10976 7.72998 7.02976 7.72998 6.95976 7.72998C6.91976 7.72998 6.90977 7.75998 6.87977 7.77998C6.84977 7.79998 6.79977 7.80998 6.75977 7.80998C6.79977 7.80998 6.83977 7.80998 6.87977 7.79998C6.91977 7.76998 6.92977 7.75998 6.97977 7.75998C7.04977 7.74998 7.09976 7.75998 7.13976 7.82998C7.15976 7.86998 7.16977 7.87998 7.16977 7.91998C7.16977 7.88998 7.17977 7.85998 7.18977 7.82998C7.18977 7.79998 7.18977 7.76998 7.18977 7.73998L7.17976 7.72998Z" fill="#3D3D3D"/>
<path d="M7.17978 2.77979C7.17978 2.77979 7.06979 2.77979 7.02979 2.78979C7.05979 2.78979 7.07978 2.78979 7.10978 2.78979C7.11978 2.78979 7.12978 2.79978 7.14978 2.80978C7.17978 2.80978 7.19978 2.80979 7.18978 2.77979H7.17978Z" fill="#3D3D3D"/>
<path d="M7.18002 2.33983C7.18002 2.33983 7.05002 2.41983 7.02002 2.40983C7.05002 2.37983 7.09002 2.37983 7.12002 2.35983C7.14002 2.34983 7.16002 2.32983 7.19002 2.32983H7.18002V2.33983Z" fill="#3D3D3D"/>
<path d="M0.52002 3.54979C0.52002 3.54979 0.560017 3.57979 0.580017 3.58979C0.600017 3.59979 0.650021 3.59979 0.670021 3.59979C0.760021 3.59979 0.820017 3.57979 0.900017 3.55979C0.840017 3.60979 0.780014 3.61979 0.710014 3.61979C0.650014 3.61979 0.55002 3.61979 0.52002 3.53979V3.54979Z" fill="#3D3D3D"/>
<path d="M0.539842 3.41988C0.539842 3.33988 0.669845 3.34988 0.729845 3.32988C0.689845 3.31988 0.619843 3.32988 0.579843 3.32988C0.499843 3.32988 0.529844 3.35988 0.549844 3.40988L0.539842 3.41988Z" fill="#3D3D3D"/>
<path d="M0.549805 7.00987C0.549805 6.93987 0.659806 6.96987 0.699806 6.96987C0.739806 6.96987 0.739804 6.94987 0.759804 6.91987C0.769804 6.89987 0.789805 6.87987 0.799805 6.86987C0.759805 6.89987 0.769805 6.96987 0.729805 6.98987C0.679805 7.01987 0.599807 6.96987 0.559807 7.01987C0.559807 7.01987 0.559807 6.99987 0.559807 7.00987H0.549805Z" fill="#3D3D3D"/>
<path d="M0.539879 5.46996C0.539879 5.46996 0.539879 5.50996 0.539879 5.51996C0.539879 5.51996 0.569878 5.54996 0.569878 5.55996C0.569878 5.58996 0.529885 5.59996 0.529885 5.62996C0.529885 5.58996 0.509885 5.49996 0.529885 5.45996L0.539879 5.46996Z" fill="#3D3D3D"/>
<path d="M0.549782 5.6499C0.549782 5.6499 0.589779 5.6699 0.609779 5.6699C0.639779 5.6699 0.639782 5.6699 0.659782 5.6899C0.699782 5.7199 0.709779 5.6699 0.749779 5.6699C0.729779 5.6899 0.709781 5.6899 0.689781 5.7099C0.659781 5.7199 0.659778 5.7099 0.639778 5.6999C0.629778 5.6999 0.589778 5.6999 0.569778 5.6999C0.549778 5.6999 0.549782 5.7499 0.549782 5.7699C0.549782 5.7999 0.579785 5.7999 0.599785 5.8099C0.589785 5.8099 0.559784 5.8099 0.559784 5.8099C0.559784 5.8099 0.55978 5.8099 0.53978 5.8099C0.53978 5.8099 0.529785 5.7799 0.529785 5.7699C0.529785 5.7299 0.529782 5.6999 0.549782 5.6699V5.6499Z" fill="#3D3D3D"/>
<path d="M0.540016 6.86982C0.540016 6.86982 0.620015 6.86981 0.640015 6.82981C0.630015 6.82981 0.610019 6.82981 0.590019 6.82981C0.560019 6.82981 0.54002 6.81981 0.52002 6.80981C0.52002 6.82981 0.52002 6.84982 0.52002 6.85982H0.530022C0.530022 6.85982 0.530022 6.86981 0.530022 6.87981L0.540016 6.86982Z" fill="#3D3D3D"/>
<path d="M1.33008 3.08984C1.33008 3.08984 1.33008 3.08984 1.33008 3.09984C1.33008 3.09984 1.33008 3.09984 1.34008 3.08984H1.33008Z" fill="white"/>
<path d="M1.27998 1.49999H1.67998V1.56999C1.67998 1.56999 1.65998 1.58999 1.63998 1.59999C1.61998 1.60999 1.58998 1.61999 1.56998 1.61999C1.53998 1.61999 1.49998 1.61999 1.43998 1.59999V1.75999C1.45998 1.75999 1.47998 1.75999 1.49998 1.75999C1.56998 1.75999 1.61998 1.77999 1.65998 1.81999C1.66998 1.82999 1.67998 1.84999 1.69998 1.86999C1.70998 1.88999 1.71998 1.91999 1.72998 1.95999C1.73998 1.99999 1.74998 2.04999 1.74998 2.08999V2.10999C1.74998 2.10999 1.73998 2.19999 1.70998 2.25999C1.69998 2.27999 1.67998 2.29999 1.65998 2.31999C1.60998 2.35999 1.55998 2.38999 1.49998 2.38999C1.41998 2.38999 1.36998 2.37999 1.32998 2.35999C1.30998 2.35999 1.29998 2.33999 1.28998 2.32999C1.27998 2.31999 1.26998 2.29999 1.25998 2.28999C1.23998 2.24999 1.22998 2.19999 1.22998 2.13999H1.40998C1.40998 2.17999 1.40998 2.21999 1.42998 2.23999C1.43998 2.25999 1.44998 2.25999 1.46998 2.25999C1.49998 2.25999 1.50998 2.23999 1.51998 2.19999C1.51998 2.16999 1.52998 2.13999 1.52998 2.10999C1.52998 2.02999 1.52998 1.98999 1.49998 1.95999C1.47998 1.93999 1.43998 1.92999 1.38998 1.92999C1.34998 1.92999 1.30998 1.92999 1.26998 1.93999C1.26998 1.90999 1.26998 1.75999 1.28998 1.48999L1.27998 1.49999Z" fill="#3D3D3D"/>
<path d="M6.4202 9.66978H6.0202V9.59978C6.0202 9.59978 6.0402 9.57978 6.0602 9.56978C6.0802 9.55978 6.1102 9.54978 6.1302 9.54978C6.1602 9.54978 6.20019 9.54978 6.26019 9.56978V9.40978C6.24019 9.40978 6.2202 9.40978 6.2002 9.40978C6.1302 9.40978 6.08019 9.38978 6.04019 9.34978C6.03019 9.33978 6.02019 9.31978 6.00019 9.29978C5.99019 9.27978 5.98019 9.24978 5.97019 9.20978C5.96019 9.16978 5.9502 9.11978 5.9502 9.07978V9.05978C5.9502 9.05978 5.9602 8.96978 5.9902 8.90978C6.0002 8.88978 6.02019 8.86978 6.04019 8.84978C6.09019 8.80978 6.1402 8.77979 6.2002 8.77979C6.2802 8.77979 6.33019 8.78978 6.37019 8.80978C6.39019 8.80978 6.40019 8.82978 6.41019 8.83978C6.42019 8.84978 6.43019 8.86978 6.44019 8.87978C6.46019 8.91978 6.47019 8.96979 6.47019 9.02979H6.29019C6.29019 8.98979 6.2902 8.94978 6.2702 8.92978C6.2602 8.90978 6.25019 8.90978 6.23019 8.90978C6.20019 8.90978 6.19019 8.92978 6.18019 8.96978C6.18019 8.99978 6.1702 9.02978 6.1702 9.05978C6.1702 9.13978 6.1702 9.17978 6.2002 9.20978C6.2202 9.22978 6.2602 9.23978 6.3102 9.23978C6.3502 9.23978 6.39019 9.23978 6.43019 9.22978C6.43019 9.25978 6.43019 9.40978 6.41019 9.67978L6.4202 9.66978Z" fill="#3D3D3D"/>
<path d="M4.45976 5.71999C4.45976 5.71999 4.45976 5.70999 4.45976 5.69999C4.45976 5.61999 4.41976 5.54999 4.35976 5.49999C4.21976 5.35999 3.94976 5.29999 3.85976 4.98999C3.76976 5.29999 3.49976 5.35999 3.35976 5.49999C3.29976 5.54999 3.26977 5.61999 3.25977 5.69999C3.25977 5.69999 3.25977 5.70999 3.25977 5.71999C3.25977 5.71999 3.25977 5.71999 3.25977 5.72999C3.25977 5.89999 3.40977 6.03999 3.57977 6.03999C3.59977 6.03999 3.61977 6.03999 3.64977 6.03999C3.70977 6.02999 3.77977 5.99999 3.82977 5.92999C3.82977 5.92999 3.82977 5.92999 3.82977 5.91999C3.78977 6.03999 3.70977 6.19999 3.61977 6.27999C3.68977 6.24999 3.76976 6.23999 3.85976 6.23999C3.93976 6.23999 4.01977 6.23999 4.09977 6.27999C3.99977 6.19999 3.92976 6.03999 3.88976 5.91999C3.88976 5.91999 3.88976 5.91999 3.88976 5.92999C3.93976 5.98999 3.99976 6.01999 4.06976 6.03999C4.08976 6.03999 4.10976 6.03999 4.13976 6.03999C4.30976 6.03999 4.44976 5.89999 4.45976 5.72999C4.45976 5.72999 4.45976 5.72999 4.45976 5.71999Z" fill="#3D3D3D"/>
<path d="M3.38994 2.58986C3.38994 2.58986 3.38994 2.57986 3.38994 2.56986C3.38994 2.48986 3.34994 2.41986 3.28994 2.36986C3.14994 2.22986 2.87994 2.16986 2.78994 1.85986C2.69994 2.16986 2.42994 2.22986 2.28994 2.36986C2.22994 2.41986 2.19994 2.48986 2.18994 2.56986C2.18994 2.56986 2.18994 2.57986 2.18994 2.58986C2.18994 2.58986 2.18994 2.58986 2.18994 2.59986C2.18994 2.76986 2.33994 2.90986 2.50994 2.90986C2.52994 2.90986 2.54994 2.90986 2.57994 2.90986C2.63994 2.89986 2.70994 2.86986 2.75994 2.79986C2.75994 2.79986 2.75994 2.79986 2.75994 2.78986C2.71994 2.90986 2.63994 3.06986 2.54994 3.14986C2.61994 3.11986 2.69994 3.10986 2.78994 3.10986C2.86994 3.10986 2.94995 3.10986 3.02995 3.14986C2.92995 3.06986 2.85994 2.90986 2.81994 2.78986C2.81994 2.78986 2.81994 2.78986 2.81994 2.79986C2.86994 2.85986 2.92994 2.88986 2.99994 2.90986C3.01994 2.90986 3.03994 2.90986 3.06994 2.90986C3.23994 2.90986 3.37994 2.76986 3.38994 2.59986C3.38994 2.59986 3.38994 2.59986 3.38994 2.58986Z" fill="#3D3D3D"/>
<path d="M3.38994 8.67987C3.38994 8.67987 3.38994 8.68987 3.38994 8.69987C3.38994 8.77987 3.34994 8.84987 3.28994 8.89987C3.14994 9.03987 2.87994 9.09987 2.78994 9.40987C2.69994 9.09987 2.42994 9.03987 2.28994 8.89987C2.22994 8.84987 2.19994 8.77987 2.18994 8.69987C2.18994 8.69987 2.18994 8.68987 2.18994 8.67987C2.18994 8.67987 2.18994 8.67987 2.18994 8.66987C2.18994 8.49987 2.33994 8.35987 2.50994 8.35987C2.52994 8.35987 2.54994 8.35987 2.57994 8.35987C2.63994 8.36987 2.70994 8.39987 2.75994 8.46987C2.75994 8.46987 2.75994 8.46987 2.75994 8.47987C2.71994 8.35987 2.63994 8.19987 2.54994 8.11987C2.61994 8.14987 2.69994 8.15987 2.78994 8.15987C2.86994 8.15987 2.94995 8.15987 3.02995 8.11987C2.92995 8.19987 2.85994 8.35987 2.81994 8.47987C2.81994 8.47987 2.81994 8.47987 2.81994 8.46987C2.86994 8.40987 2.92994 8.37987 2.99994 8.35987C3.01994 8.35987 3.03994 8.35987 3.06994 8.35987C3.23994 8.35987 3.37994 8.49987 3.38994 8.66987C3.38994 8.66987 3.38994 8.66987 3.38994 8.67987Z" fill="#3D3D3D"/>
<path d="M5.53008 2.58986C5.53008 2.58986 5.53008 2.57986 5.53008 2.56986C5.53008 2.48986 5.49008 2.41986 5.43008 2.36986C5.29008 2.22986 5.02008 2.16986 4.93008 1.85986C4.84008 2.16986 4.57008 2.22986 4.43008 2.36986C4.37008 2.41986 4.34008 2.48986 4.33008 2.56986C4.33008 2.56986 4.33008 2.57986 4.33008 2.58986C4.33008 2.58986 4.33008 2.58986 4.33008 2.59986C4.33008 2.76986 4.48008 2.90986 4.65008 2.90986C4.67008 2.90986 4.69008 2.90986 4.72008 2.90986C4.78008 2.89986 4.85008 2.86986 4.90008 2.79986C4.90008 2.79986 4.90008 2.79986 4.90008 2.78986C4.86008 2.90986 4.78008 3.06986 4.69008 3.14986C4.76008 3.11986 4.84008 3.10986 4.93008 3.10986C5.01008 3.10986 5.09008 3.10986 5.17008 3.14986C5.07008 3.06986 5.00008 2.90986 4.96008 2.78986C4.96008 2.78986 4.96008 2.78986 4.96008 2.79986C5.01008 2.85986 5.07008 2.88986 5.14008 2.90986C5.16008 2.90986 5.18008 2.90986 5.21008 2.90986C5.38008 2.90986 5.52008 2.76986 5.53008 2.59986C5.53008 2.59986 5.53008 2.59986 5.53008 2.58986Z" fill="#3D3D3D"/>
<path d="M5.53008 8.67987C5.53008 8.67987 5.53008 8.68987 5.53008 8.69987C5.53008 8.77987 5.49008 8.84987 5.43008 8.89987C5.29008 9.03987 5.02008 9.09987 4.93008 9.40987C4.84008 9.09987 4.57008 9.03987 4.43008 8.89987C4.37008 8.84987 4.34008 8.77987 4.33008 8.69987C4.33008 8.69987 4.33008 8.68987 4.33008 8.67987C4.33008 8.67987 4.33008 8.67987 4.33008 8.66987C4.33008 8.49987 4.48008 8.35987 4.65008 8.35987C4.67008 8.35987 4.69008 8.35987 4.72008 8.35987C4.78008 8.36987 4.85008 8.39987 4.90008 8.46987C4.90008 8.46987 4.90008 8.46987 4.90008 8.47987C4.86008 8.35987 4.78008 8.19987 4.69008 8.11987C4.76008 8.14987 4.84008 8.15987 4.93008 8.15987C5.01008 8.15987 5.09008 8.15987 5.17008 8.11987C5.07008 8.19987 5.00008 8.35987 4.96008 8.47987C4.96008 8.47987 4.96008 8.47987 4.96008 8.46987C5.01008 8.40987 5.07008 8.37987 5.14008 8.35987C5.16008 8.35987 5.18008 8.35987 5.21008 8.35987C5.38008 8.35987 5.52008 8.49987 5.53008 8.66987C5.53008 8.66987 5.53008 8.66987 5.53008 8.67987Z" fill="#3D3D3D"/>
<path d="M1.8699 2.95979C1.8699 2.90979 1.83991 2.86979 1.80991 2.83979C1.72991 2.75979 1.5599 2.71979 1.5099 2.53979C1.4599 2.71979 1.2899 2.75979 1.2099 2.83979C1.1799 2.86979 1.1599 2.90979 1.1499 2.95979C1.1499 3.05979 1.2399 3.13979 1.3399 3.13979C1.3499 3.13979 1.36991 3.13979 1.37991 3.13979C1.41991 3.13979 1.44991 3.10979 1.48991 3.07979C1.45991 3.14979 1.4199 3.24979 1.3599 3.29979C1.3999 3.27979 1.4499 3.27979 1.4999 3.27979C1.4999 3.27979 1.5999 3.27979 1.6399 3.29979C1.5799 3.24979 1.5399 3.15979 1.5099 3.07979C1.5399 3.11979 1.5799 3.13979 1.6199 3.13979C1.6299 3.13979 1.6499 3.13979 1.6599 3.13979C1.7599 3.13979 1.84991 3.05979 1.84991 2.95979H1.8699Z" fill="#3D3D3D"/>
<path d="M6.55984 8.15982C6.55984 8.20982 6.52984 8.24983 6.49984 8.27983C6.41984 8.35983 6.24984 8.39982 6.19984 8.57982C6.14984 8.39982 5.97984 8.35983 5.89984 8.27983C5.86984 8.24983 5.83984 8.20982 5.83984 8.15982C5.83984 8.05982 5.92985 7.97982 6.02985 7.97982C6.03985 7.97982 6.05984 7.97982 6.06984 7.97982C6.10984 7.97982 6.13984 8.00983 6.17984 8.03983C6.14984 7.96983 6.10984 7.86982 6.04984 7.81982C6.08984 7.83982 6.13984 7.83982 6.18984 7.83982C6.18984 7.83982 6.28984 7.83982 6.32984 7.81982C6.26984 7.86982 6.22984 7.95983 6.19984 8.03983C6.22984 7.99983 6.26984 7.97982 6.30984 7.97982C6.31984 7.97982 6.33985 7.97982 6.34985 7.97982C6.44985 7.97982 6.53984 8.05982 6.53984 8.15982H6.55984Z" fill="#3D3D3D"/>
</svg>
