<svg width="7" height="10" viewBox="0 0 7 10" fill="none" xmlns="http://www.w3.org/2000/svg">
<path d="M6.42982 9.87003H0.379826C0.209826 9.87003 0.0698242 9.73003 0.0698242 9.56003V0.840029C0.0698242 0.670029 0.209826 0.530029 0.379826 0.530029H6.42982C6.59982 0.530029 6.73983 0.670029 6.73983 0.840029V9.56003C6.73983 9.73003 6.59982 9.87003 6.42982 9.87003ZM0.379826 0.540029C0.219826 0.540029 0.0898247 0.670029 0.0898247 0.830029V9.55003C0.0898247 9.71003 0.219826 9.84003 0.379826 9.84003H6.42982C6.58982 9.84003 6.71983 9.71003 6.71983 9.55003V0.840029C6.71983 0.680029 6.58982 0.550029 6.42982 0.550029H0.379826V0.540029Z" fill="#3D3D3D"/>
<path d="M6.43004 9.89H0.380039C0.190039 9.89 0.0400391 9.74 0.0400391 9.55V0.84C0.0400391 0.65 0.190039 0.5 0.380039 0.5H6.43004C6.62004 0.5 6.77004 0.65 6.77004 0.84V9.56C6.77004 9.75 6.62004 9.9 6.43004 9.9V9.89ZM0.380039 0.57C0.230039 0.57 0.120037 0.69 0.120037 0.83V9.55C0.120037 9.7 0.240039 9.81 0.380039 9.81H6.43004C6.58004 9.81 6.69004 9.69 6.69004 9.55V0.84C6.69004 0.69 6.57004 0.58 6.43004 0.58H0.380039V0.57Z" fill="#3D3D3D"/>
<path d="M6.25006 9.65H0.550056C0.420056 9.65 0.310059 9.54 0.310059 9.41V0.99C0.310059 0.86 0.420056 0.75 0.550056 0.75H6.25006C6.38006 0.75 6.49006 0.86 6.49006 0.99V9.41C6.49006 9.54 6.38006 9.65 6.25006 9.65ZM0.550056 0.8C0.440056 0.8 0.360058 0.89 0.360058 0.99V9.41C0.360058 9.52 0.450056 9.6 0.550056 9.6H6.25006C6.36006 9.6 6.44006 9.51 6.44006 9.41V0.99C6.44006 0.88 6.35006 0.8 6.25006 0.8H0.550056Z" fill="#3D3D3D"/>
<path d="M6.73004 4.15996C6.73004 4.15996 6.66004 4.14996 6.64004 4.15996C6.63004 4.15996 6.62004 4.16996 6.61004 4.17996C6.59004 4.18996 6.57004 4.19996 6.54004 4.19996C6.56004 4.19996 6.58004 4.19996 6.59004 4.19996C6.61004 4.19996 6.62004 4.17996 6.64004 4.17996C6.66004 4.17996 6.68004 4.17996 6.69004 4.18996C6.69004 4.18996 6.69004 4.20996 6.71004 4.18996C6.71004 4.18996 6.71004 4.16996 6.71004 4.15996H6.73004Z" fill="#3D3D3D"/>
<path d="M5.35986 0.52002C5.35986 0.52002 5.41986 0.57002 5.41986 0.62002C5.41986 0.67002 5.39986 0.71002 5.39986 0.76002C5.42986 0.69002 5.45986 0.63002 5.45986 0.55002C5.47986 0.55002 5.49986 0.54002 5.52986 0.54002C5.47986 0.54002 5.43986 0.52002 5.35986 0.52002Z" fill="#3D3D3D"/>
<path d="M5.66992 0.540039C5.66992 0.540039 5.66992 0.620039 5.66992 0.650039C5.67992 0.640039 5.69992 0.580039 5.69992 0.560039C5.69992 0.550039 5.68992 0.540039 5.66992 0.540039Z" fill="#3D3D3D"/>
<path d="M2.41992 0.530029C2.41992 0.530029 2.47993 0.560029 2.48993 0.580029C2.49993 0.600029 2.48992 0.630029 2.50992 0.650029C2.51992 0.680029 2.55992 0.670029 2.58992 0.680029C2.61992 0.680029 2.63992 0.700029 2.66992 0.710029C2.66992 0.690029 2.64992 0.680029 2.62992 0.670029C2.61992 0.670029 2.60992 0.670029 2.59992 0.670029H2.55993C2.55993 0.670029 2.53992 0.610029 2.53992 0.600029C2.53992 0.580029 2.55992 0.570029 2.57992 0.560029C2.56992 0.540029 2.46992 0.560029 2.43992 0.560029L2.41992 0.530029Z" fill="#3D3D3D"/>
<path d="M2.78027 0.540039C2.78027 0.540039 2.79027 0.580039 2.80027 0.600039C2.80027 0.620039 2.80027 0.630039 2.82027 0.640039C2.82027 0.620039 2.82027 0.590039 2.82027 0.560039C2.82027 0.540039 2.82028 0.540039 2.79028 0.540039H2.78027Z" fill="#3D3D3D"/>
<path d="M0.080128 0.989961C0.080128 0.989961 0.14013 0.989961 0.18013 0.999961C0.20013 0.999961 0.180129 0.999961 0.210129 0.999961C0.230129 0.999961 0.240128 0.999961 0.260128 0.999961C0.240128 0.999961 0.220129 0.999961 0.190129 0.999961C0.150129 0.999961 0.160129 0.999961 0.140129 0.979961C0.130129 0.979961 0.11013 0.979961 0.0901302 0.979961C0.0801302 0.979961 0.090128 0.969961 0.080128 0.959961C0.070128 0.959961 0.080128 0.989961 0.080128 0.999961V0.989961Z" fill="#3D3D3D"/>
<path d="M0.080128 9.15988C0.080128 9.15988 0.14013 9.15988 0.18013 9.16988C0.20013 9.16988 0.180129 9.16988 0.210129 9.16988C0.230129 9.16988 0.240128 9.16988 0.260128 9.16988C0.240128 9.16988 0.220129 9.16988 0.190129 9.16988C0.150129 9.16988 0.160129 9.16988 0.140129 9.14988C0.130129 9.14988 0.11013 9.14988 0.0901302 9.14988C0.0801302 9.14988 0.090128 9.13988 0.080128 9.12988C0.070128 9.12988 0.080128 9.15988 0.080128 9.16988V9.15988Z" fill="#3D3D3D"/>
<path d="M0.0902279 0.750051H0.170226C0.180226 0.730051 0.120227 0.740051 0.120227 0.720051C0.120227 0.710051 0.140229 0.690051 0.130229 0.680051C0.130229 0.650051 0.0702258 0.710051 0.0802258 0.740051L0.0902279 0.750051Z" fill="#3D3D3D"/>
<path d="M3.95994 0.530029C3.95994 0.530029 3.95994 0.530029 3.96994 0.550029C3.96994 0.550029 3.96994 0.570029 3.96994 0.580029C3.96994 0.600029 3.96994 0.620029 3.96994 0.640029C3.96994 0.630029 3.96994 0.620029 3.96994 0.600029C3.96994 0.590029 3.96994 0.580029 3.97994 0.570029C3.97994 0.560029 3.97994 0.560029 3.97994 0.540029C3.97994 0.540029 3.97994 0.540029 3.95994 0.540029C3.95994 0.540029 3.94994 0.540029 3.93994 0.540029L3.95994 0.530029Z" fill="#3D3D3D"/>
<path d="M4.20996 9.86988C4.20996 9.86988 4.26996 9.81988 4.26996 9.76988C4.26996 9.71988 4.24996 9.67988 4.24996 9.62988C4.27996 9.69988 4.30996 9.75988 4.30996 9.83988C4.32996 9.83988 4.34996 9.84988 4.37996 9.84988C4.32996 9.84988 4.28996 9.86988 4.20996 9.86988Z" fill="#3D3D3D"/>
<path d="M0.0600586 8.62988C0.0600586 8.62988 0.110057 8.68988 0.160057 8.68988C0.210057 8.68988 0.250056 8.66988 0.300056 8.66988C0.230056 8.69988 0.160057 8.72988 0.0900574 8.72988C0.0900574 8.74988 0.0800552 8.76988 0.0800552 8.79988C0.0800552 8.74988 0.0600586 8.70988 0.0600586 8.62988Z" fill="#3D3D3D"/>
<path d="M4.52002 9.84999C4.52002 9.84999 4.52002 9.76999 4.52002 9.73999C4.53002 9.74999 4.55002 9.80999 4.55002 9.82999C4.55002 9.83999 4.54002 9.84999 4.52002 9.84999Z" fill="#3D3D3D"/>
<path d="M1.27002 9.84992C1.27002 9.84992 1.33002 9.81992 1.34002 9.79992C1.35002 9.77992 1.34002 9.74992 1.36002 9.72992C1.37002 9.69992 1.41002 9.70992 1.44002 9.69992C1.47002 9.69992 1.49002 9.67992 1.52002 9.66992C1.52002 9.68992 1.50002 9.69992 1.48002 9.70992C1.47002 9.70992 1.46002 9.70992 1.45002 9.70992H1.41002C1.41002 9.70992 1.39002 9.76992 1.39002 9.77992C1.39002 9.79992 1.41002 9.80992 1.43002 9.81992C1.42002 9.83992 1.32002 9.81992 1.29002 9.81992L1.27002 9.84992Z" fill="#3D3D3D"/>
<path d="M1.62988 9.85C1.62988 9.85 1.63988 9.81 1.64988 9.79C1.64988 9.77 1.64988 9.76 1.66988 9.75C1.66988 9.77 1.66988 9.8 1.66988 9.83C1.66988 9.85 1.66988 9.85 1.63988 9.85H1.62988Z" fill="#3D3D3D"/>
<path d="M2.81004 9.84999C2.81004 9.84999 2.81004 9.84999 2.82004 9.82999C2.82004 9.82999 2.82004 9.80999 2.82004 9.79999C2.82004 9.77999 2.82004 9.75999 2.82004 9.73999C2.82004 9.74999 2.82004 9.75999 2.82004 9.77999C2.82004 9.78999 2.82004 9.79999 2.83004 9.80999C2.83004 9.81999 2.83004 9.81999 2.83004 9.83999C2.83004 9.83999 2.83004 9.83999 2.81004 9.83999C2.81004 9.83999 2.80004 9.83999 2.79004 9.83999L2.81004 9.84999Z" fill="#3D3D3D"/>
<path d="M6.73016 2.12988C6.66016 2.12988 6.58015 2.12988 6.51015 2.12988C6.47015 2.12988 6.47016 2.12988 6.45016 2.15988C6.41016 2.20988 6.34016 2.20988 6.28016 2.21988C6.24016 2.22988 6.20016 2.23988 6.16016 2.23988C6.19016 2.26988 6.29015 2.23988 6.33015 2.22988C6.36015 2.22988 6.40016 2.20988 6.43016 2.19988C6.47016 2.16988 6.48016 2.15988 6.53016 2.15988C6.57016 2.15988 6.60016 2.15988 6.65016 2.15988C6.66016 2.15988 6.68016 2.15988 6.70016 2.15988C6.72016 2.15988 6.72016 2.16988 6.74016 2.17988C6.74016 2.16988 6.74016 2.15988 6.74016 2.13988L6.73016 2.12988Z" fill="#3D3D3D"/>
<path d="M6.71981 7.33008C6.64981 7.33008 6.56981 7.33008 6.49981 7.33008C6.45981 7.33008 6.4498 7.36008 6.4198 7.38008C6.3898 7.40008 6.3398 7.41008 6.2998 7.41008C6.3398 7.41008 6.3798 7.41008 6.4198 7.40008C6.4598 7.37008 6.46981 7.36008 6.51981 7.36008C6.58981 7.35008 6.63981 7.36008 6.67981 7.43008C6.69981 7.47008 6.7098 7.48008 6.7098 7.52008C6.7098 7.49008 6.7198 7.46008 6.7298 7.43008C6.7298 7.40008 6.7298 7.37008 6.7298 7.34008L6.71981 7.33008Z" fill="#3D3D3D"/>
<path d="M6.71983 2.37988C6.71983 2.37988 6.60982 2.37988 6.56982 2.38988C6.59982 2.38988 6.61983 2.38988 6.64983 2.38988C6.65983 2.38988 6.66982 2.39988 6.68982 2.40988C6.71982 2.40988 6.73982 2.40988 6.72982 2.37988H6.71983Z" fill="#3D3D3D"/>
<path d="M6.72006 1.93993C6.72006 1.93993 6.59006 2.01993 6.56006 2.00993C6.59006 1.97993 6.63006 1.97993 6.66006 1.95993C6.68006 1.94993 6.70006 1.92993 6.73006 1.92993H6.72006V1.93993Z" fill="#3D3D3D"/>
<path d="M0.0600586 3.14989C0.0600586 3.14989 0.100056 3.17989 0.120056 3.18989C0.140056 3.19989 0.190056 3.19989 0.210056 3.19989C0.300056 3.19989 0.360056 3.17989 0.440056 3.15989C0.380056 3.20989 0.320057 3.21989 0.250057 3.21989C0.190057 3.21989 0.0900586 3.21989 0.0600586 3.13989V3.14989Z" fill="#3D3D3D"/>
<path d="M0.0798813 3.01998C0.0798813 2.93998 0.209884 2.94998 0.269884 2.92998C0.229884 2.91998 0.159882 2.92998 0.119882 2.92998C0.0398822 2.92998 0.0698834 2.95998 0.0898834 3.00998L0.0798813 3.01998Z" fill="#3D3D3D"/>
<path d="M0.0898438 6.60997C0.0898438 6.53997 0.199845 6.56997 0.239845 6.56997C0.279845 6.56997 0.279843 6.54997 0.299843 6.51997C0.309843 6.49997 0.329844 6.47997 0.339844 6.46997C0.299844 6.49997 0.309844 6.56997 0.269844 6.58997C0.219844 6.61997 0.139842 6.56997 0.0998421 6.61997C0.0998421 6.61997 0.0998421 6.59997 0.0998421 6.60997H0.0898438Z" fill="#3D3D3D"/>
<path d="M0.0799224 5.07006C0.0799224 5.07006 0.0799224 5.11006 0.0799224 5.12006C0.0799224 5.12006 0.109925 5.15006 0.109925 5.16006C0.109925 5.19006 0.069924 5.20006 0.069924 5.23006C0.069924 5.19006 0.049924 5.10006 0.069924 5.06006L0.0799224 5.07006Z" fill="#3D3D3D"/>
<path d="M0.0898247 5.25C0.0898247 5.25 0.129826 5.27 0.149826 5.27C0.179826 5.27 0.179825 5.27 0.199825 5.29C0.239825 5.32 0.249825 5.27 0.289825 5.27C0.269825 5.29 0.249824 5.29 0.229824 5.3C0.199824 5.31 0.199825 5.3 0.179825 5.29C0.169825 5.29 0.129825 5.29 0.109825 5.29C0.0898251 5.29 0.0898247 5.34 0.0898247 5.36C0.0898247 5.39 0.119824 5.39 0.139824 5.4C0.129824 5.4 0.099823 5.4 0.099823 5.4C0.099823 5.4 0.0998225 5.4 0.0798225 5.4C0.0798225 5.4 0.0698242 5.37 0.0698242 5.36C0.0698242 5.32 0.0698247 5.29 0.0898247 5.26V5.25Z" fill="#3D3D3D"/>
<path d="M0.0798225 6.46991C0.0798225 6.46991 0.159823 6.46991 0.189823 6.42991C0.179823 6.42991 0.159824 6.42991 0.139824 6.42991C0.109824 6.42991 0.0898242 6.41991 0.0698242 6.40991C0.0698242 6.42991 0.0698242 6.44991 0.0698242 6.45991H0.0798225C0.0798225 6.45991 0.0798225 6.46991 0.0798225 6.47991V6.46991Z" fill="#3D3D3D"/>
<path d="M0.870117 2.68994C0.870117 2.68994 0.870117 2.68994 0.870117 2.69994C0.870117 2.69994 0.870119 2.69994 0.880119 2.68994H0.870117Z" fill="white"/>
<path d="M0.780273 1.11011H1.27028V1.25011C1.27028 1.25011 1.24028 1.32011 1.20028 1.43011C1.20028 1.45011 1.19027 1.46011 1.19027 1.46011C1.19027 1.46011 1.21028 1.52011 1.24028 1.53011C1.24028 1.53011 1.21028 1.53011 1.20028 1.54011C1.18028 1.54011 1.17027 1.56011 1.17027 1.57011C1.17027 1.57011 1.15028 1.59011 1.15028 1.60011C1.15028 1.60011 1.15028 1.61011 1.15028 1.62011C1.15028 1.62011 1.15027 1.64011 1.14027 1.67011C1.13027 1.72011 1.11027 1.79011 1.10027 1.88011C1.10027 1.93011 1.10027 1.96011 1.10027 1.97011H0.860275C0.860275 1.92011 0.870276 1.87011 0.880276 1.83011C0.900276 1.73011 0.930275 1.65011 0.950275 1.58011C0.950275 1.56011 0.940275 1.54011 0.910275 1.52011C0.910275 1.52011 0.910276 1.52011 0.900276 1.52011C0.900276 1.52011 0.930273 1.52011 0.940273 1.51011C0.960273 1.51011 0.970276 1.49011 0.970276 1.49011C0.980276 1.47011 0.990276 1.46011 0.990276 1.46011C1.03028 1.38011 1.07028 1.30011 1.11028 1.23011H1.00027C1.00027 1.23011 0.950273 1.25011 0.940273 1.28011C0.930273 1.33011 0.920273 1.36011 0.920273 1.38011H0.790276V1.12011L0.780273 1.11011Z" fill="#3D3D3D"/>
<path d="M6.00026 9.26991H5.51025V9.12991C5.51025 9.12991 5.54025 9.05991 5.58025 8.94991C5.58025 8.92991 5.59026 8.91991 5.59026 8.91991C5.59026 8.91991 5.57026 8.85991 5.54026 8.84991C5.54026 8.84991 5.57025 8.84991 5.58025 8.83991C5.60025 8.83991 5.61026 8.81991 5.61026 8.80991C5.61026 8.80991 5.63026 8.78991 5.63026 8.77991C5.63026 8.77991 5.63026 8.76991 5.63026 8.75991C5.63026 8.75991 5.63025 8.73991 5.64025 8.70991C5.65025 8.65991 5.67026 8.58991 5.68026 8.49991C5.68026 8.44991 5.68026 8.41991 5.68026 8.40991H5.92025C5.92025 8.45991 5.91026 8.50991 5.90026 8.54991C5.88026 8.64991 5.85025 8.72991 5.83025 8.79991C5.83025 8.81991 5.84025 8.83991 5.87025 8.85991C5.87025 8.85991 5.87026 8.85991 5.88026 8.85991C5.88026 8.85991 5.85026 8.85991 5.84026 8.86991C5.82026 8.86991 5.81026 8.88991 5.81026 8.88991C5.80026 8.90991 5.79026 8.91991 5.79026 8.91991C5.75026 8.99991 5.71025 9.07991 5.67025 9.14991H5.78025C5.78025 9.14991 5.83026 9.12991 5.84026 9.09991C5.85026 9.04991 5.86026 9.01991 5.86026 8.99991H5.99026V9.25991L6.00026 9.26991Z" fill="#3D3D3D"/>
<path d="M2.64023 1.81989C2.72023 1.61989 2.56023 1.38989 2.34023 1.38989C2.13023 1.38989 1.96023 1.60989 2.04023 1.81989C1.87023 1.81989 1.74023 1.96989 1.74023 2.13989C1.74023 2.26989 1.82023 2.38989 1.95023 2.43989C2.08023 2.48989 2.24023 2.43989 2.32023 2.32989C2.28023 2.45989 2.21023 2.59989 2.11023 2.68989C2.18023 2.65989 2.27023 2.64989 2.35023 2.64989C2.43023 2.64989 2.52023 2.65989 2.59023 2.68989C2.48023 2.59989 2.42023 2.45989 2.38023 2.32989C2.46023 2.44989 2.62023 2.48989 2.75023 2.43989C2.87023 2.38989 2.96023 2.26989 2.96023 2.13989C2.96023 1.96989 2.82023 1.82989 2.66023 1.81989H2.64023Z" fill="#3D3D3D"/>
<path d="M2.64023 8.62C2.72023 8.82 2.56023 9.05 2.34023 9.05C2.13023 9.05 1.96023 8.83 2.04023 8.62C1.87023 8.62 1.74023 8.47 1.74023 8.3C1.74023 8.17 1.82023 8.05 1.95023 8C2.08023 7.95 2.24023 8 2.32023 8.11C2.28023 7.98 2.21023 7.84 2.11023 7.75C2.18023 7.78 2.27023 7.79 2.35023 7.79C2.43023 7.79 2.52023 7.78 2.59023 7.75C2.48023 7.84 2.42023 7.98 2.38023 8.11C2.46023 7.99 2.62023 7.95 2.75023 8C2.87023 8.05 2.96023 8.17 2.96023 8.3C2.96023 8.47 2.82023 8.61 2.66023 8.62H2.64023Z" fill="#3D3D3D"/>
<path d="M4.77988 1.81989C4.85988 1.61989 4.69988 1.38989 4.47988 1.38989C4.26988 1.38989 4.09988 1.60989 4.17988 1.81989C4.00988 1.81989 3.87988 1.96989 3.87988 2.13989C3.87988 2.26989 3.95988 2.38989 4.08988 2.43989C4.21988 2.48989 4.37988 2.43989 4.45988 2.32989C4.41988 2.45989 4.34988 2.59989 4.24988 2.68989C4.31988 2.65989 4.40988 2.64989 4.48988 2.64989C4.56988 2.64989 4.65988 2.65989 4.72988 2.68989C4.61988 2.59989 4.55988 2.45989 4.51988 2.32989C4.59988 2.44989 4.75988 2.48989 4.88988 2.43989C5.00988 2.38989 5.09988 2.26989 5.09988 2.13989C5.09988 1.96989 4.95988 1.82989 4.79988 1.81989H4.77988Z" fill="#3D3D3D"/>
<path d="M3.71006 3.49006C3.79006 3.29006 3.63006 3.06006 3.41006 3.06006C3.20006 3.06006 3.03006 3.28006 3.11006 3.49006C2.94006 3.49006 2.81006 3.64006 2.81006 3.81006C2.81006 3.94006 2.89006 4.06006 3.02006 4.11006C3.15006 4.16006 3.31006 4.11006 3.39006 4.00006C3.35006 4.13006 3.28006 4.27006 3.18006 4.36006C3.25006 4.33006 3.34006 4.32006 3.42006 4.32006C3.50006 4.32006 3.59006 4.33006 3.66006 4.36006C3.55006 4.27006 3.49006 4.13006 3.45006 4.00006C3.53006 4.12006 3.69006 4.16006 3.82006 4.11006C3.94006 4.06006 4.03006 3.94006 4.03006 3.81006C4.03006 3.64006 3.89006 3.50006 3.73006 3.49006H3.71006Z" fill="#3D3D3D"/>
<path d="M2.64023 5.00007C2.72023 4.80007 2.56023 4.57007 2.34023 4.57007C2.13023 4.57007 1.96023 4.79007 2.04023 5.00007C1.87023 5.00007 1.74023 5.15007 1.74023 5.32007C1.74023 5.45007 1.82023 5.57007 1.95023 5.62007C2.08023 5.67007 2.24023 5.62007 2.32023 5.51007C2.28023 5.64007 2.21023 5.78007 2.11023 5.87007C2.18023 5.84007 2.27023 5.83007 2.35023 5.83007C2.43023 5.83007 2.52023 5.84007 2.59023 5.87007C2.48023 5.78007 2.42023 5.64007 2.38023 5.51007C2.46023 5.63007 2.62023 5.67007 2.75023 5.62007C2.87023 5.57007 2.96023 5.45007 2.96023 5.32007C2.96023 5.15007 2.82023 5.01007 2.66023 5.00007H2.64023Z" fill="#3D3D3D"/>
<path d="M4.77988 5.00007C4.85988 4.80007 4.69988 4.57007 4.47988 4.57007C4.26988 4.57007 4.09988 4.79007 4.17988 5.00007C4.00988 5.00007 3.87988 5.15007 3.87988 5.32007C3.87988 5.45007 3.95988 5.57007 4.08988 5.62007C4.21988 5.67007 4.37988 5.62007 4.45988 5.51007C4.41988 5.64007 4.34988 5.78007 4.24988 5.87007C4.31988 5.84007 4.40988 5.83007 4.48988 5.83007C4.56988 5.83007 4.65988 5.84007 4.72988 5.87007C4.61988 5.78007 4.55988 5.64007 4.51988 5.51007C4.59988 5.63007 4.75988 5.67007 4.88988 5.62007C5.00988 5.57007 5.09988 5.45007 5.09988 5.32007C5.09988 5.15007 4.95988 5.01007 4.79988 5.00007H4.77988Z" fill="#3D3D3D"/>
<path d="M4.77988 8.62C4.85988 8.82 4.69988 9.05 4.47988 9.05C4.26988 9.05 4.09988 8.83 4.17988 8.62C4.00988 8.62 3.87988 8.47 3.87988 8.3C3.87988 8.17 3.95988 8.05 4.08988 8C4.21988 7.95 4.37988 8 4.45988 8.11C4.41988 7.98 4.34988 7.84 4.24988 7.75C4.31988 7.78 4.40988 7.79 4.48988 7.79C4.56988 7.79 4.65988 7.78 4.72988 7.75C4.61988 7.84 4.55988 7.98 4.51988 8.11C4.59988 7.99 4.75988 7.95 4.88988 8C5.00988 8.05 5.09988 8.17 5.09988 8.3C5.09988 8.47 4.95988 8.61 4.79988 8.62H4.77988Z" fill="#3D3D3D"/>
<path d="M1.22994 2.43994C1.27994 2.31994 1.17994 2.18994 1.04994 2.18994C0.919942 2.18994 0.829942 2.31994 0.869942 2.43994C0.769942 2.43994 0.689941 2.52994 0.689941 2.62994C0.689941 2.70994 0.739944 2.77994 0.809944 2.80994C0.889944 2.83994 0.979942 2.80994 1.02994 2.73994C0.999942 2.81994 0.969944 2.89994 0.899944 2.95994C0.939944 2.93994 0.989944 2.93994 1.03994 2.93994C1.08994 2.93994 1.13994 2.93994 1.17994 2.95994C1.11994 2.90994 1.07994 2.81994 1.04994 2.73994C1.09994 2.80994 1.18994 2.83994 1.26994 2.80994C1.33994 2.77994 1.38994 2.70994 1.38994 2.62994C1.38994 2.52994 1.30994 2.44994 1.20994 2.43994H1.22994Z" fill="#3D3D3D"/>
<path d="M5.57992 7.99998C5.52992 8.11998 5.62992 8.24998 5.75992 8.24998C5.88992 8.24998 5.97992 8.11998 5.93992 7.99998C6.03992 7.99998 6.11992 7.90998 6.11992 7.80998C6.11992 7.72998 6.06992 7.65998 5.99992 7.62998C5.91992 7.59998 5.82992 7.62998 5.77992 7.69998C5.80992 7.61998 5.83992 7.53998 5.90992 7.47998C5.86992 7.49998 5.81992 7.49998 5.76992 7.49998C5.71992 7.49998 5.66992 7.49998 5.62992 7.47998C5.68992 7.52998 5.72992 7.61998 5.75992 7.69998C5.70992 7.62998 5.61992 7.59998 5.53992 7.62998C5.46992 7.65998 5.41992 7.72998 5.41992 7.80998C5.41992 7.90998 5.49992 7.98998 5.59992 7.99998H5.57992Z" fill="#3D3D3D"/>
</svg>
