<svg width="8" height="10" viewBox="0 0 8 10" fill="none" xmlns="http://www.w3.org/2000/svg">
<path d="M7.07973 9.87003H1.02972C0.859724 9.87003 0.719727 9.73003 0.719727 9.56003V0.840029C0.719727 0.670029 0.859724 0.530029 1.02972 0.530029H7.07973C7.24973 0.530029 7.38972 0.670029 7.38972 0.840029V9.56003C7.38972 9.73003 7.24973 9.87003 7.07973 9.87003ZM1.02972 0.540029C0.869724 0.540029 0.739723 0.670029 0.739723 0.830029V9.55003C0.739723 9.71003 0.869724 9.84003 1.02972 9.84003H7.07973C7.23973 9.84003 7.36973 9.71003 7.36973 9.55003V0.840029C7.36973 0.680029 7.23973 0.550029 7.07973 0.550029H1.02972V0.540029Z" fill="#3D3D3D"/>
<path d="M7.07994 9.89H1.02994C0.839938 9.89 0.689941 9.74 0.689941 9.55V0.84C0.689941 0.65 0.839938 0.5 1.02994 0.5H7.07994C7.26994 0.5 7.41994 0.65 7.41994 0.84V9.56C7.41994 9.75 7.26994 9.9 7.07994 9.9V9.89ZM1.02994 0.57C0.879938 0.57 0.769943 0.69 0.769943 0.83V9.55C0.769943 9.7 0.889938 9.81 1.02994 9.81H7.07994C7.22994 9.81 7.33994 9.69 7.33994 9.55V0.84C7.33994 0.69 7.21994 0.58 7.07994 0.58H1.02994V0.57Z" fill="#3D3D3D"/>
<path d="M6.89996 9.65H1.19996C1.06996 9.65 0.959961 9.54 0.959961 9.41V0.99C0.959961 0.86 1.06996 0.75 1.19996 0.75H6.89996C7.02996 0.75 7.13996 0.86 7.13996 0.99V9.41C7.13996 9.54 7.02996 9.65 6.89996 9.65ZM1.19996 0.8C1.08996 0.8 1.00996 0.89 1.00996 0.99V9.41C1.00996 9.52 1.09996 9.6 1.19996 9.6H6.89996C7.00996 9.6 7.08997 9.51 7.08997 9.41V0.99C7.08997 0.88 6.99996 0.8 6.89996 0.8H1.19996Z" fill="#3D3D3D"/>
<path d="M7.37994 4.15996C7.37994 4.15996 7.30994 4.14996 7.28994 4.15996C7.27994 4.15996 7.26994 4.16996 7.25994 4.17996C7.23994 4.18996 7.21994 4.19996 7.18994 4.19996C7.20994 4.19996 7.22994 4.19996 7.23994 4.19996C7.25994 4.19996 7.26994 4.17996 7.28994 4.17996C7.30994 4.17996 7.32994 4.17996 7.33994 4.18996C7.33994 4.18996 7.33994 4.20996 7.35994 4.18996C7.35994 4.18996 7.35994 4.16996 7.35994 4.15996H7.37994Z" fill="#3D3D3D"/>
<path d="M6.00977 0.52002C6.00977 0.52002 6.06976 0.57002 6.06976 0.62002C6.06976 0.67002 6.04977 0.71002 6.04977 0.76002C6.07977 0.69002 6.10976 0.63002 6.10976 0.55002C6.12976 0.55002 6.14976 0.54002 6.17976 0.54002C6.12976 0.54002 6.08977 0.52002 6.00977 0.52002Z" fill="#3D3D3D"/>
<path d="M6.31006 0.540039C6.31006 0.540039 6.31006 0.620039 6.31006 0.650039C6.32006 0.640039 6.34007 0.580039 6.34007 0.560039C6.34007 0.550039 6.33006 0.540039 6.31006 0.540039Z" fill="#3D3D3D"/>
<path d="M3.06982 0.530029C3.06982 0.530029 3.12982 0.560029 3.13982 0.580029C3.14982 0.600029 3.13983 0.630029 3.15983 0.650029C3.16983 0.680029 3.20982 0.670029 3.23982 0.680029C3.26982 0.680029 3.28982 0.700029 3.31982 0.710029C3.31982 0.690029 3.29982 0.680029 3.27982 0.670029C3.26982 0.670029 3.25982 0.670029 3.24982 0.670029H3.20982C3.20982 0.670029 3.18983 0.610029 3.18983 0.600029C3.18983 0.580029 3.20983 0.570029 3.22983 0.560029C3.21983 0.540029 3.11983 0.560029 3.08983 0.560029L3.06982 0.530029Z" fill="#3D3D3D"/>
<path d="M3.43018 0.540039C3.43018 0.540039 3.44017 0.580039 3.45017 0.600039C3.45017 0.620039 3.45018 0.630039 3.47018 0.640039C3.47018 0.620039 3.47018 0.590039 3.47018 0.560039C3.47018 0.540039 3.47018 0.540039 3.44018 0.540039H3.43018Z" fill="#3D3D3D"/>
<path d="M0.73003 0.989961C0.73003 0.989961 0.790029 0.989961 0.830029 0.999961C0.850029 0.999961 0.830028 0.999961 0.860028 0.999961C0.880028 0.999961 0.890031 0.999961 0.910031 0.999961C0.890031 0.999961 0.870031 0.999961 0.840031 0.999961C0.800031 0.999961 0.810028 0.999961 0.790028 0.979961C0.780028 0.979961 0.760025 0.979961 0.740025 0.979961C0.730025 0.979961 0.74003 0.969961 0.73003 0.959961C0.72003 0.959961 0.73003 0.989961 0.73003 0.999961V0.989961Z" fill="#3D3D3D"/>
<path d="M0.73003 9.15988C0.73003 9.15988 0.790029 9.15988 0.830029 9.16988C0.850029 9.16988 0.830028 9.16988 0.860028 9.16988C0.880028 9.16988 0.890031 9.16988 0.910031 9.16988C0.890031 9.16988 0.870031 9.16988 0.840031 9.16988C0.800031 9.16988 0.810028 9.16988 0.790028 9.14988C0.780028 9.14988 0.760025 9.14988 0.740025 9.14988C0.730025 9.14988 0.74003 9.13988 0.73003 9.12988C0.72003 9.12988 0.73003 9.15988 0.73003 9.16988V9.15988Z" fill="#3D3D3D"/>
<path d="M0.739975 0.750051H0.819977C0.829977 0.730051 0.769981 0.740051 0.769981 0.720051C0.769981 0.710051 0.789976 0.690051 0.779976 0.680051C0.779976 0.650051 0.72998 0.710051 0.72998 0.740051L0.739975 0.750051Z" fill="#3D3D3D"/>
<path d="M4.60984 0.530029C4.60984 0.530029 4.60984 0.530029 4.61984 0.550029C4.61984 0.550029 4.61984 0.570029 4.61984 0.580029C4.61984 0.600029 4.61984 0.620029 4.61984 0.640029C4.61984 0.630029 4.61984 0.620029 4.61984 0.600029C4.61984 0.590029 4.61984 0.580029 4.62984 0.570029C4.62984 0.560029 4.62984 0.560029 4.62984 0.540029C4.62984 0.540029 4.62984 0.540029 4.60984 0.540029C4.60984 0.540029 4.59984 0.540029 4.58984 0.540029L4.60984 0.530029Z" fill="#3D3D3D"/>
<path d="M4.85986 9.86988C4.85986 9.86988 4.91986 9.81988 4.91986 9.76988C4.91986 9.71988 4.89986 9.67988 4.89986 9.62988C4.92986 9.69988 4.95986 9.75988 4.95986 9.83988C4.97986 9.83988 4.99986 9.84988 5.02986 9.84988C4.97986 9.84988 4.93986 9.86988 4.85986 9.86988Z" fill="#3D3D3D"/>
<path d="M0.709961 8.62988C0.709961 8.62988 0.759959 8.68988 0.809959 8.68988C0.859959 8.68988 0.899959 8.66988 0.949959 8.66988C0.879959 8.69988 0.80996 8.72988 0.73996 8.72988C0.73996 8.74988 0.729965 8.76988 0.729965 8.79988C0.729965 8.74988 0.709961 8.70988 0.709961 8.62988Z" fill="#3D3D3D"/>
<path d="M5.16992 9.84999C5.16992 9.84999 5.16992 9.76999 5.16992 9.73999C5.17992 9.74999 5.19992 9.80999 5.19992 9.82999C5.19992 9.83999 5.18992 9.84999 5.16992 9.84999Z" fill="#3D3D3D"/>
<path d="M1.91992 9.84992C1.91992 9.84992 1.97992 9.81992 1.98992 9.79992C1.99992 9.77992 1.98993 9.74992 2.00993 9.72992C2.01993 9.69992 2.05993 9.70992 2.08993 9.69992C2.11993 9.69992 2.13992 9.67992 2.16992 9.66992C2.16992 9.68992 2.14992 9.69992 2.12992 9.70992C2.11992 9.70992 2.10992 9.70992 2.09992 9.70992H2.05992C2.05992 9.70992 2.03992 9.76992 2.03992 9.77992C2.03992 9.79992 2.05993 9.80992 2.07993 9.81992C2.06993 9.83992 1.96993 9.81992 1.93993 9.81992L1.91992 9.84992Z" fill="#3D3D3D"/>
<path d="M2.27979 9.85C2.27979 9.85 2.28979 9.81 2.29979 9.79C2.29979 9.77 2.29979 9.76 2.31979 9.75C2.31979 9.77 2.31979 9.8 2.31979 9.83C2.31979 9.85 2.31979 9.85 2.28979 9.85H2.27979Z" fill="#3D3D3D"/>
<path d="M3.45994 9.84999C3.45994 9.84999 3.45994 9.84999 3.46994 9.82999C3.46994 9.82999 3.46994 9.80999 3.46994 9.79999C3.46994 9.77999 3.46994 9.75999 3.46994 9.73999C3.46994 9.74999 3.46994 9.75999 3.46994 9.77999C3.46994 9.78999 3.46994 9.79999 3.47994 9.80999C3.47994 9.81999 3.47994 9.81999 3.47994 9.83999C3.47994 9.83999 3.47994 9.83999 3.45994 9.83999C3.45994 9.83999 3.44994 9.83999 3.43994 9.83999L3.45994 9.84999Z" fill="#3D3D3D"/>
<path d="M7.38006 2.12988C7.31006 2.12988 7.23006 2.12988 7.16006 2.12988C7.12006 2.12988 7.12006 2.12988 7.10006 2.15988C7.06006 2.20988 6.99006 2.20988 6.93006 2.21988C6.89006 2.22988 6.85006 2.23988 6.81006 2.23988C6.84006 2.26988 6.94006 2.23988 6.98006 2.22988C7.01006 2.22988 7.05006 2.20988 7.08006 2.19988C7.12006 2.16988 7.13006 2.15988 7.18006 2.15988C7.22006 2.15988 7.25006 2.15988 7.30006 2.15988C7.31006 2.15988 7.33006 2.15988 7.35006 2.15988C7.37006 2.15988 7.37006 2.16988 7.39006 2.17988C7.39006 2.16988 7.39006 2.15988 7.39006 2.13988L7.38006 2.12988Z" fill="#3D3D3D"/>
<path d="M7.36971 7.33008C7.29971 7.33008 7.21971 7.33008 7.14971 7.33008C7.10971 7.33008 7.09971 7.36008 7.06971 7.38008C7.03971 7.40008 6.98971 7.41008 6.94971 7.41008C6.98971 7.41008 7.02971 7.41008 7.06971 7.40008C7.10971 7.37008 7.11971 7.36008 7.16971 7.36008C7.23971 7.35008 7.28971 7.36008 7.32971 7.43008C7.34971 7.47008 7.35971 7.48008 7.35971 7.52008C7.35971 7.49008 7.36971 7.46008 7.37971 7.43008C7.37971 7.40008 7.37971 7.37008 7.37971 7.34008L7.36971 7.33008Z" fill="#3D3D3D"/>
<path d="M7.36973 2.37988C7.36973 2.37988 7.25973 2.37988 7.21973 2.38988C7.24973 2.38988 7.26973 2.38988 7.29973 2.38988C7.30973 2.38988 7.31973 2.39988 7.33973 2.40988C7.36973 2.40988 7.38972 2.40988 7.37972 2.37988H7.36973Z" fill="#3D3D3D"/>
<path d="M7.36996 1.93993C7.36996 1.93993 7.23996 2.01993 7.20996 2.00993C7.23996 1.97993 7.27996 1.97993 7.30996 1.95993C7.32996 1.94993 7.34996 1.92993 7.37996 1.92993H7.36996V1.93993Z" fill="#3D3D3D"/>
<path d="M0.709961 3.14989C0.709961 3.14989 0.749966 3.17989 0.769966 3.18989C0.789966 3.19989 0.839962 3.19989 0.859962 3.19989C0.949962 3.19989 1.00997 3.17989 1.08997 3.15989C1.02997 3.20989 0.969963 3.21989 0.899963 3.21989C0.839963 3.21989 0.739961 3.21989 0.709961 3.13989V3.14989Z" fill="#3D3D3D"/>
<path d="M0.729787 3.01998C0.729787 2.93998 0.859782 2.94998 0.919782 2.92998C0.879782 2.91998 0.809788 2.92998 0.769788 2.92998C0.689788 2.92998 0.719782 2.95998 0.739782 3.00998L0.729787 3.01998Z" fill="#3D3D3D"/>
<path d="M0.739746 6.60997C0.739746 6.53997 0.849748 6.56997 0.889748 6.56997C0.929748 6.56997 0.929745 6.54997 0.949745 6.51997C0.959745 6.49997 0.979746 6.47997 0.989746 6.46997C0.949746 6.49997 0.959746 6.56997 0.919746 6.58997C0.869746 6.61997 0.789748 6.56997 0.749748 6.61997C0.749748 6.61997 0.749748 6.59997 0.749748 6.60997H0.739746Z" fill="#3D3D3D"/>
<path d="M0.729829 5.07006C0.729829 5.07006 0.729829 5.11006 0.729829 5.12006C0.729829 5.12006 0.759827 5.15006 0.759827 5.16006C0.759827 5.19006 0.719826 5.20006 0.719826 5.23006C0.719826 5.19006 0.699826 5.10006 0.719826 5.06006L0.729829 5.07006Z" fill="#3D3D3D"/>
<path d="M0.739723 5.25C0.739723 5.25 0.779728 5.27 0.799728 5.27C0.829728 5.27 0.829724 5.27 0.849724 5.29C0.889724 5.32 0.899728 5.27 0.939728 5.27C0.919728 5.29 0.899723 5.29 0.879723 5.3C0.849723 5.31 0.849727 5.3 0.829727 5.29C0.819727 5.29 0.779727 5.29 0.759727 5.29C0.739727 5.29 0.739723 5.34 0.739723 5.36C0.739723 5.39 0.769726 5.39 0.789726 5.4C0.779726 5.4 0.749725 5.4 0.749725 5.4C0.749725 5.4 0.749729 5.4 0.729729 5.4C0.729729 5.4 0.719727 5.37 0.719727 5.36C0.719727 5.32 0.719723 5.29 0.739723 5.26V5.25Z" fill="#3D3D3D"/>
<path d="M0.72998 6.46991C0.72998 6.46991 0.809981 6.46991 0.839981 6.42991C0.829981 6.42991 0.80998 6.42991 0.79998 6.42991C0.76998 6.42991 0.74998 6.41991 0.72998 6.40991C0.72998 6.42991 0.72998 6.44991 0.72998 6.45991H0.739975C0.739975 6.45991 0.739975 6.46991 0.739975 6.47991L0.72998 6.46991Z" fill="#3D3D3D"/>
<path d="M1.50977 2.68994C1.50977 2.68994 1.50977 2.68994 1.50977 2.69994C1.50977 2.69994 1.50977 2.69994 1.51977 2.68994H1.50977Z" fill="white"/>
<path d="M1.67014 1.08008H1.69014C1.74014 1.08008 1.79014 1.09008 1.83014 1.11008C1.89014 1.15008 1.92014 1.21008 1.92014 1.29008C1.92014 1.29008 1.92014 1.37008 1.90014 1.41008C1.90014 1.41008 1.88013 1.46008 1.88013 1.47008C1.88013 1.47008 1.89014 1.52008 1.92014 1.53008C1.92014 1.53008 1.88014 1.54008 1.86014 1.55008C1.84014 1.56008 1.83014 1.58008 1.82014 1.59008C1.75014 1.71008 1.68014 1.80008 1.61014 1.85008H1.71014C1.74014 1.85008 1.76014 1.85008 1.76014 1.85008C1.76014 1.85008 1.77014 1.84008 1.78014 1.81008C1.79014 1.79008 1.80013 1.77008 1.81013 1.75008H1.95013C1.94013 1.89008 1.93014 1.95008 1.93014 1.95008H1.39014V1.83008C1.39014 1.83008 1.40014 1.82008 1.42014 1.80008C1.46014 1.76008 1.49014 1.73008 1.52014 1.70008C1.56014 1.66008 1.59014 1.62008 1.62014 1.57008V1.55008C1.62014 1.55008 1.61014 1.50008 1.58014 1.49008C1.58014 1.49008 1.60014 1.49008 1.61014 1.49008C1.63014 1.49008 1.64014 1.47008 1.66014 1.46008C1.68014 1.44008 1.69014 1.42008 1.69014 1.41008C1.69014 1.38008 1.70013 1.34008 1.70013 1.32008C1.70013 1.26008 1.69014 1.23008 1.66014 1.22008C1.66014 1.22008 1.65014 1.22008 1.64014 1.22008C1.61014 1.22008 1.59014 1.25008 1.59014 1.30008C1.59014 1.34008 1.58014 1.37008 1.58014 1.39008H1.39014C1.39014 1.27008 1.41014 1.19008 1.46014 1.15008C1.46014 1.15008 1.48014 1.14008 1.49014 1.12008C1.51014 1.11008 1.54013 1.10008 1.56013 1.09008C1.59013 1.09008 1.62014 1.09008 1.65014 1.09008L1.67014 1.08008Z" fill="#3D3D3D"/>
<path d="M6.38986 9.28992H6.36987C6.31987 9.28992 6.26987 9.27992 6.22987 9.25992C6.16987 9.21992 6.13986 9.15992 6.13986 9.07992C6.13986 9.07992 6.13987 8.99992 6.15987 8.95992C6.15987 8.95992 6.17986 8.90992 6.17986 8.89992C6.17986 8.89992 6.16986 8.84992 6.13986 8.83992C6.13986 8.83992 6.17986 8.82992 6.19986 8.81992C6.21986 8.80992 6.22986 8.78992 6.23986 8.77992C6.30986 8.65992 6.37986 8.56992 6.44986 8.51992H6.34986C6.31986 8.51992 6.29987 8.51992 6.29987 8.51992C6.29987 8.51992 6.28986 8.52992 6.27986 8.55992C6.26986 8.57992 6.25986 8.59992 6.24986 8.61992H6.10986C6.11986 8.47992 6.12986 8.41992 6.12986 8.41992H6.66986V8.53992C6.66986 8.53992 6.65986 8.54992 6.63986 8.56992C6.59986 8.60992 6.56986 8.63992 6.53986 8.66992C6.49986 8.70992 6.46987 8.74992 6.43987 8.79992V8.81992C6.43987 8.81992 6.44987 8.86992 6.47987 8.87992C6.47987 8.87992 6.45986 8.87992 6.44986 8.87992C6.42986 8.87992 6.41986 8.89992 6.39986 8.90992C6.37986 8.92992 6.36987 8.94992 6.36987 8.95992C6.36987 8.98992 6.35986 9.02992 6.35986 9.04992C6.35986 9.10992 6.36986 9.13992 6.39986 9.14992C6.39986 9.14992 6.40986 9.14992 6.41986 9.14992C6.44986 9.14992 6.46986 9.11992 6.46986 9.06992C6.46986 9.02992 6.47987 8.99992 6.47987 8.97992H6.66986C6.66986 9.09992 6.64986 9.17992 6.59986 9.21992C6.59986 9.21992 6.57986 9.22992 6.56986 9.24992C6.54986 9.25992 6.51986 9.26992 6.49986 9.27992C6.46986 9.27992 6.43987 9.27992 6.40987 9.27992L6.38986 9.28992Z" fill="#3D3D3D"/>
<path d="M1.83981 2.3999C1.88981 2.2799 1.78981 2.1499 1.65981 2.1499C1.52981 2.1499 1.4398 2.2799 1.4798 2.3999C1.3798 2.3999 1.2998 2.4899 1.2998 2.5899C1.2998 2.6699 1.3498 2.7399 1.4198 2.7699C1.4998 2.7999 1.5898 2.7699 1.6398 2.6999C1.6098 2.7799 1.5798 2.8599 1.5098 2.9199C1.5498 2.8999 1.5998 2.8999 1.6498 2.8999C1.6998 2.8999 1.7498 2.8999 1.7898 2.9199C1.7298 2.8699 1.68981 2.7799 1.65981 2.6999C1.70981 2.7699 1.7998 2.7999 1.8798 2.7699C1.9498 2.7399 1.9998 2.6699 1.9998 2.5899C1.9998 2.4899 1.9198 2.4099 1.8198 2.3999H1.83981Z" fill="#3D3D3D"/>
<path d="M6.18979 7.95994C6.13979 8.07994 6.23979 8.20994 6.36979 8.20994C6.49979 8.20994 6.58979 8.07994 6.54979 7.95994C6.64979 7.95994 6.72979 7.86994 6.72979 7.76994C6.72979 7.68994 6.67979 7.61994 6.60979 7.58994C6.52979 7.55994 6.43979 7.58994 6.38979 7.65994C6.41979 7.57994 6.44979 7.49994 6.51979 7.43994C6.47979 7.45994 6.42978 7.45994 6.37978 7.45994C6.32978 7.45994 6.27978 7.45994 6.23978 7.43994C6.29978 7.48994 6.33979 7.57994 6.36979 7.65994C6.31979 7.58994 6.22979 7.55994 6.14979 7.58994C6.07979 7.61994 6.02979 7.68994 6.02979 7.76994C6.02979 7.86994 6.10979 7.94994 6.20979 7.95994H6.18979Z" fill="#3D3D3D"/>
<path d="M4.34971 1.77009C4.42971 1.57009 4.26971 1.34009 4.04971 1.34009C3.83971 1.34009 3.66971 1.56009 3.74971 1.77009C3.57971 1.77009 3.44971 1.92009 3.44971 2.09009C3.44971 2.22009 3.52971 2.34009 3.65971 2.39009C3.78971 2.44009 3.94971 2.39009 4.02971 2.28009C3.98971 2.41009 3.91971 2.55009 3.81971 2.64009C3.88971 2.61009 3.97971 2.60009 4.05971 2.60009C4.13971 2.60009 4.22971 2.61009 4.29971 2.64009C4.18971 2.55009 4.12971 2.41009 4.08971 2.28009C4.16971 2.40009 4.32971 2.44009 4.45971 2.39009C4.57971 2.34009 4.66971 2.22009 4.66971 2.09009C4.66971 1.92009 4.52971 1.78009 4.36971 1.77009H4.34971Z" fill="#3D3D3D"/>
<path d="M4.34971 8.57996C4.42971 8.77996 4.26971 9.00996 4.04971 9.00996C3.83971 9.00996 3.66971 8.78996 3.74971 8.57996C3.57971 8.57996 3.44971 8.42996 3.44971 8.25996C3.44971 8.12996 3.52971 8.00996 3.65971 7.95996C3.78971 7.90996 3.94971 7.95996 4.02971 8.06996C3.98971 7.93996 3.91971 7.79996 3.81971 7.70996C3.88971 7.73996 3.97971 7.74996 4.05971 7.74996C4.13971 7.74996 4.22971 7.73996 4.29971 7.70996C4.18971 7.79996 4.12971 7.93996 4.08971 8.06996C4.16971 7.94996 4.32971 7.90996 4.45971 7.95996C4.57971 8.00996 4.66971 8.12996 4.66971 8.25996C4.66971 8.42996 4.52971 8.56996 4.36971 8.57996H4.34971Z" fill="#3D3D3D"/>
</svg>
