<svg width="8" height="10" viewBox="0 0 8 10" fill="none" xmlns="http://www.w3.org/2000/svg">
<path d="M7.23988 9.87003H1.18988C1.01988 9.87003 0.879883 9.73003 0.879883 9.56003V0.840029C0.879883 0.670029 1.01988 0.530029 1.18988 0.530029H7.23988C7.40988 0.530029 7.54988 0.670029 7.54988 0.840029V9.56003C7.54988 9.73003 7.40988 9.87003 7.23988 9.87003ZM1.18988 0.540029C1.02988 0.540029 0.899883 0.670029 0.899883 0.830029V9.55003C0.899883 9.71003 1.02988 9.84003 1.18988 9.84003H7.23988C7.39988 9.84003 7.52988 9.71003 7.52988 9.55003V0.840029C7.52988 0.680029 7.39988 0.550029 7.23988 0.550029H1.18988V0.540029Z" fill="#3D3D3D"/>
<path d="M7.2401 9.89H1.1901C1.0001 9.89 0.850098 9.74 0.850098 9.55V0.84C0.850098 0.65 1.0001 0.5 1.1901 0.5H7.2401C7.4301 0.5 7.5801 0.65 7.5801 0.84V9.56C7.5801 9.75 7.4301 9.9 7.2401 9.9V9.89ZM1.1901 0.57C1.0401 0.57 0.930098 0.69 0.930098 0.83V9.55C0.930098 9.7 1.0501 9.81 1.1901 9.81H7.2401C7.3901 9.81 7.5001 9.69 7.5001 9.55V0.84C7.5001 0.69 7.3801 0.58 7.2401 0.58H1.1901V0.57Z" fill="#3D3D3D"/>
<path d="M7.06012 9.65H1.36012C1.23012 9.65 1.12012 9.54 1.12012 9.41V0.99C1.12012 0.86 1.23012 0.75 1.36012 0.75H7.06012C7.19012 0.75 7.30012 0.86 7.30012 0.99V9.41C7.30012 9.54 7.19012 9.65 7.06012 9.65ZM1.36012 0.8C1.25012 0.8 1.17012 0.89 1.17012 0.99V9.41C1.17012 9.52 1.26012 9.6 1.36012 9.6H7.06012C7.17012 9.6 7.25012 9.51 7.25012 9.41V0.99C7.25012 0.88 7.16012 0.8 7.06012 0.8H1.36012Z" fill="#3D3D3D"/>
<path d="M7.5401 4.15996C7.5401 4.15996 7.4701 4.14996 7.4501 4.15996C7.4401 4.15996 7.4301 4.16996 7.4201 4.17996C7.4001 4.18996 7.3801 4.19996 7.3501 4.19996C7.3701 4.19996 7.3901 4.19996 7.4001 4.19996C7.4201 4.19996 7.4301 4.17996 7.4501 4.17996C7.4701 4.17996 7.4901 4.17996 7.5001 4.18996C7.5001 4.18996 7.5001 4.20996 7.5201 4.18996C7.5201 4.18996 7.5201 4.16996 7.5201 4.15996H7.5401Z" fill="#3D3D3D"/>
<path d="M6.16992 0.52002C6.16992 0.52002 6.22992 0.57002 6.22992 0.62002C6.22992 0.67002 6.20992 0.71002 6.20992 0.76002C6.23992 0.69002 6.26992 0.63002 6.26992 0.55002C6.28992 0.55002 6.30992 0.54002 6.33992 0.54002C6.28992 0.54002 6.24992 0.52002 6.16992 0.52002Z" fill="#3D3D3D"/>
<path d="M6.47998 0.540039C6.47998 0.540039 6.47998 0.620039 6.47998 0.650039C6.48998 0.640039 6.50998 0.580039 6.50998 0.560039C6.50998 0.550039 6.49998 0.540039 6.47998 0.540039Z" fill="#3D3D3D"/>
<path d="M3.22998 0.530029C3.22998 0.530029 3.28998 0.560029 3.29998 0.580029C3.30998 0.600029 3.29998 0.630029 3.31998 0.650029C3.32998 0.680029 3.36998 0.670029 3.39998 0.680029C3.42998 0.680029 3.44998 0.700029 3.47998 0.710029C3.47998 0.690029 3.45998 0.680029 3.43998 0.670029C3.42998 0.670029 3.41998 0.670029 3.40998 0.670029H3.36998C3.36998 0.670029 3.34998 0.610029 3.34998 0.600029C3.34998 0.580029 3.36998 0.570029 3.38998 0.560029C3.37998 0.540029 3.27998 0.560029 3.24998 0.560029L3.22998 0.530029Z" fill="#3D3D3D"/>
<path d="M3.59033 0.540039C3.59033 0.540039 3.60033 0.580039 3.61033 0.600039C3.61033 0.620039 3.61033 0.630039 3.63033 0.640039C3.63033 0.620039 3.63033 0.590039 3.63033 0.560039C3.63033 0.540039 3.63033 0.540039 3.60033 0.540039H3.59033Z" fill="#3D3D3D"/>
<path d="M0.890187 0.989961C0.890187 0.989961 0.950187 0.989961 0.990187 0.999961C1.01019 0.999961 0.990188 0.999961 1.02019 0.999961C1.04019 0.999961 1.05019 0.999961 1.07019 0.999961C1.05019 0.999961 1.03019 0.999961 1.00019 0.999961C0.960187 0.999961 0.970186 0.999961 0.950186 0.979961C0.940186 0.979961 0.920187 0.979961 0.900187 0.979961C0.890187 0.979961 0.900187 0.969961 0.890187 0.959961C0.880187 0.959961 0.890187 0.989961 0.890187 0.999961V0.989961Z" fill="#3D3D3D"/>
<path d="M0.890187 9.15988C0.890187 9.15988 0.950187 9.15988 0.990187 9.16988C1.01019 9.16988 0.990188 9.16988 1.02019 9.16988C1.04019 9.16988 1.05019 9.16988 1.07019 9.16988C1.05019 9.16988 1.03019 9.16988 1.00019 9.16988C0.960187 9.16988 0.970186 9.16988 0.950186 9.14988C0.940186 9.14988 0.920187 9.14988 0.900187 9.14988C0.890187 9.14988 0.900187 9.13988 0.890187 9.12988C0.880187 9.12988 0.890187 9.15988 0.890187 9.16988V9.15988Z" fill="#3D3D3D"/>
<path d="M0.900137 0.750051H0.980137C0.990137 0.730051 0.930138 0.740051 0.930138 0.720051C0.930138 0.710051 0.950138 0.690051 0.940138 0.680051C0.940138 0.650051 0.890137 0.710051 0.890137 0.740051L0.900137 0.750051Z" fill="#3D3D3D"/>
<path d="M4.77 0.530029C4.77 0.530029 4.77 0.530029 4.78 0.550029C4.78 0.550029 4.78 0.570029 4.78 0.580029C4.78 0.600029 4.78 0.620029 4.78 0.640029C4.78 0.630029 4.78 0.620029 4.78 0.600029C4.78 0.590029 4.78 0.580029 4.79 0.570029C4.79 0.560029 4.79 0.560029 4.79 0.540029C4.79 0.540029 4.79 0.540029 4.77 0.540029C4.77 0.540029 4.76 0.540029 4.75 0.540029L4.77 0.530029Z" fill="#3D3D3D"/>
<path d="M5.02002 9.86988C5.02002 9.86988 5.08002 9.81988 5.08002 9.76988C5.08002 9.71988 5.06002 9.67988 5.06002 9.62988C5.09002 9.69988 5.12002 9.75988 5.12002 9.83988C5.14002 9.83988 5.16002 9.84988 5.19002 9.84988C5.14002 9.84988 5.10002 9.86988 5.02002 9.86988Z" fill="#3D3D3D"/>
<path d="M0.870117 8.62988C0.870117 8.62988 0.920118 8.68988 0.970118 8.68988C1.02012 8.68988 1.06012 8.66988 1.11012 8.66988C1.04012 8.69988 0.970118 8.72988 0.900118 8.72988C0.900118 8.74988 0.890118 8.76988 0.890118 8.79988C0.890118 8.74988 0.870117 8.70988 0.870117 8.62988Z" fill="#3D3D3D"/>
<path d="M5.33008 9.84999C5.33008 9.84999 5.33008 9.76999 5.33008 9.73999C5.34008 9.74999 5.36008 9.80999 5.36008 9.82999C5.36008 9.83999 5.35008 9.84999 5.33008 9.84999Z" fill="#3D3D3D"/>
<path d="M2.08008 9.84992C2.08008 9.84992 2.14008 9.81992 2.15008 9.79992C2.16008 9.77992 2.15008 9.74992 2.17008 9.72992C2.18008 9.69992 2.22008 9.70992 2.25008 9.69992C2.28008 9.69992 2.30008 9.67992 2.33008 9.66992C2.33008 9.68992 2.31008 9.69992 2.29008 9.70992C2.28008 9.70992 2.27008 9.70992 2.26008 9.70992H2.22008C2.22008 9.70992 2.20008 9.76992 2.20008 9.77992C2.20008 9.79992 2.22008 9.80992 2.24008 9.81992C2.23008 9.83992 2.13008 9.81992 2.10008 9.81992L2.08008 9.84992Z" fill="#3D3D3D"/>
<path d="M2.43994 9.85C2.43994 9.85 2.44994 9.81 2.45994 9.79C2.45994 9.77 2.45994 9.76 2.47994 9.75C2.47994 9.77 2.47994 9.8 2.47994 9.83C2.47994 9.85 2.47994 9.85 2.44994 9.85H2.43994Z" fill="#3D3D3D"/>
<path d="M3.6201 9.84999C3.6201 9.84999 3.6201 9.84999 3.6301 9.82999C3.6301 9.82999 3.6301 9.80999 3.6301 9.79999C3.6301 9.77999 3.6301 9.75999 3.6301 9.73999C3.6301 9.74999 3.6301 9.75999 3.6301 9.77999C3.6301 9.78999 3.6301 9.79999 3.6401 9.80999C3.6401 9.81999 3.6401 9.81999 3.6401 9.83999C3.6401 9.83999 3.6401 9.83999 3.6201 9.83999C3.6201 9.83999 3.6101 9.83999 3.6001 9.83999L3.6201 9.84999Z" fill="#3D3D3D"/>
<path d="M7.54021 2.12988C7.47021 2.12988 7.39022 2.12988 7.32022 2.12988C7.28022 2.12988 7.28022 2.12988 7.26022 2.15988C7.22022 2.20988 7.15021 2.20988 7.09021 2.21988C7.05021 2.22988 7.01021 2.23988 6.97021 2.23988C7.00021 2.26988 7.10022 2.23988 7.14022 2.22988C7.17022 2.22988 7.21022 2.20988 7.24022 2.19988C7.28022 2.16988 7.29021 2.15988 7.34021 2.15988C7.38021 2.15988 7.41022 2.15988 7.46022 2.15988C7.47022 2.15988 7.49022 2.15988 7.51022 2.15988C7.53022 2.15988 7.53022 2.16988 7.55022 2.17988C7.55022 2.16988 7.55022 2.15988 7.55022 2.13988L7.54021 2.12988Z" fill="#3D3D3D"/>
<path d="M7.52987 7.33008C7.45987 7.33008 7.37986 7.33008 7.30986 7.33008C7.26986 7.33008 7.25987 7.36008 7.22987 7.38008C7.19987 7.40008 7.14986 7.41008 7.10986 7.41008C7.14986 7.41008 7.18987 7.41008 7.22987 7.40008C7.26987 7.37008 7.27986 7.36008 7.32986 7.36008C7.39986 7.35008 7.44986 7.36008 7.48986 7.43008C7.50986 7.47008 7.51986 7.48008 7.51986 7.52008C7.51986 7.49008 7.52986 7.46008 7.53986 7.43008C7.53986 7.40008 7.53986 7.37008 7.53986 7.34008L7.52987 7.33008Z" fill="#3D3D3D"/>
<path d="M7.52988 2.37988C7.52988 2.37988 7.41988 2.37988 7.37988 2.38988C7.40988 2.38988 7.42988 2.38988 7.45988 2.38988C7.46988 2.38988 7.47988 2.39988 7.49988 2.40988C7.52988 2.40988 7.54988 2.40988 7.53988 2.37988H7.52988Z" fill="#3D3D3D"/>
<path d="M7.53012 1.93993C7.53012 1.93993 7.40012 2.01993 7.37012 2.00993C7.40012 1.97993 7.44012 1.97993 7.47012 1.95993C7.49012 1.94993 7.51012 1.92993 7.54012 1.92993H7.53012V1.93993Z" fill="#3D3D3D"/>
<path d="M0.870117 3.14989C0.870117 3.14989 0.910119 3.17989 0.930119 3.18989C0.950119 3.19989 1.00012 3.19989 1.02012 3.19989C1.11012 3.19989 1.17012 3.17989 1.25012 3.15989C1.19012 3.20989 1.13012 3.21989 1.06012 3.21989C1.00012 3.21989 0.900117 3.21989 0.870117 3.13989V3.14989Z" fill="#3D3D3D"/>
<path d="M0.889941 3.01998C0.889941 2.93998 1.01994 2.94998 1.07994 2.92998C1.03994 2.91998 0.969942 2.92998 0.929942 2.92998C0.849942 2.92998 0.879941 2.95998 0.899941 3.00998L0.889941 3.01998Z" fill="#3D3D3D"/>
<path d="M0.899902 6.60997C0.899902 6.53997 1.0099 6.56997 1.0499 6.56997C1.0899 6.56997 1.0899 6.54997 1.1099 6.51997C1.1199 6.49997 1.1399 6.47997 1.1499 6.46997C1.1099 6.49997 1.1199 6.56997 1.0799 6.58997C1.0299 6.61997 0.949903 6.56997 0.909903 6.61997C0.909903 6.61997 0.909903 6.59997 0.909903 6.60997H0.899902Z" fill="#3D3D3D"/>
<path d="M0.889983 5.07006C0.889983 5.07006 0.889983 5.11006 0.889983 5.12006C0.889983 5.12006 0.919984 5.15006 0.919984 5.16006C0.919984 5.19006 0.879983 5.20006 0.879983 5.23006C0.879983 5.19006 0.859983 5.10006 0.879983 5.06006L0.889983 5.07006Z" fill="#3D3D3D"/>
<path d="M0.899883 5.25C0.899883 5.25 0.939883 5.27 0.959883 5.27C0.989883 5.27 0.989884 5.27 1.00988 5.29C1.04988 5.32 1.05988 5.27 1.09988 5.27C1.07988 5.29 1.05988 5.29 1.03988 5.3C1.00988 5.31 1.00988 5.3 0.989883 5.29C0.979883 5.29 0.939884 5.29 0.919884 5.29C0.899884 5.29 0.899883 5.34 0.899883 5.36C0.899883 5.39 0.929883 5.39 0.949883 5.4C0.939883 5.4 0.909883 5.4 0.909883 5.4C0.909883 5.4 0.909883 5.4 0.889883 5.4C0.889883 5.4 0.879883 5.37 0.879883 5.36C0.879883 5.32 0.879883 5.29 0.899883 5.26V5.25Z" fill="#3D3D3D"/>
<path d="M0.889883 6.46991C0.889883 6.46991 0.969884 6.46991 0.999884 6.42991C0.989884 6.42991 0.969883 6.42991 0.949883 6.42991C0.919883 6.42991 0.899883 6.41991 0.879883 6.40991C0.879883 6.42991 0.879883 6.44991 0.879883 6.45991H0.889883C0.889883 6.45991 0.889883 6.46991 0.889883 6.47991V6.46991Z" fill="#3D3D3D"/>
<path d="M1.68018 2.68994C1.68018 2.68994 1.68018 2.68994 1.68018 2.69994C1.68018 2.69994 1.68018 2.69994 1.69018 2.68994H1.68018Z" fill="white"/>
<path d="M1.48988 1.1001H1.65988V1.4401C1.65988 1.4401 1.66988 1.4701 1.68988 1.4901C1.69988 1.4901 1.71989 1.5101 1.72989 1.5101C1.72989 1.5101 1.69988 1.5301 1.67988 1.5401C1.67988 1.5401 1.66988 1.5601 1.65988 1.5701V1.5901V1.8101C1.65988 1.8101 1.65988 1.8701 1.67988 1.8701C1.67988 1.8701 1.68988 1.8701 1.70988 1.8701H1.72989V1.9701H1.39988V1.8701H1.42988C1.42988 1.8701 1.45988 1.8701 1.45988 1.8601C1.45988 1.8601 1.45988 1.8301 1.45988 1.7901V1.6101C1.45988 1.6101 1.43988 1.5401 1.40988 1.5201C1.39988 1.5201 1.38988 1.5201 1.38988 1.5201C1.38988 1.5201 1.42988 1.5001 1.43988 1.4901C1.44988 1.4701 1.45988 1.4501 1.45988 1.4401V1.3601H1.37988V1.2501C1.37988 1.2501 1.42988 1.2101 1.43988 1.1901C1.45988 1.1701 1.46988 1.1501 1.48988 1.1201V1.1001Z" fill="#3D3D3D"/>
<path d="M2.05976 1.08008H2.07977C2.07977 1.08008 2.15977 1.09008 2.18977 1.11008C2.20977 1.13008 2.22976 1.14008 2.24976 1.16008C2.25976 1.18008 2.27976 1.19008 2.28976 1.21008C2.29976 1.23008 2.31977 1.26008 2.32977 1.30008C2.32977 1.32008 2.33977 1.35008 2.34977 1.40008C2.34977 1.40008 2.34977 1.46008 2.36977 1.48008C2.37977 1.50008 2.39977 1.51008 2.41977 1.52008H2.40976C2.38976 1.52008 2.37976 1.54008 2.35976 1.57008C2.35976 1.57008 2.35976 1.59008 2.35976 1.64008C2.35976 1.67008 2.35976 1.69008 2.35976 1.72008C2.35976 1.76008 2.33977 1.79008 2.32977 1.81008C2.31977 1.84008 2.30976 1.87008 2.28976 1.89008C2.23976 1.97008 2.16976 2.00008 2.08976 2.00008C2.00976 2.00008 1.93977 1.96008 1.88977 1.88008C1.86977 1.86008 1.85976 1.82008 1.83976 1.77008C1.83976 1.74008 1.81977 1.70008 1.81977 1.64008C1.81977 1.61008 1.81977 1.58008 1.81977 1.57008C1.81977 1.56008 1.81976 1.55008 1.80976 1.54008C1.79976 1.52008 1.77977 1.51008 1.75977 1.51008H1.77977C1.79977 1.51008 1.80977 1.49008 1.81977 1.47008C1.81977 1.47008 1.81977 1.44008 1.82977 1.41008C1.82977 1.36008 1.83977 1.32008 1.84977 1.30008C1.85977 1.26008 1.87977 1.23008 1.89977 1.20008C1.91977 1.18008 1.92977 1.16008 1.95977 1.14008C1.97977 1.13008 1.98977 1.12008 2.00977 1.11008C2.03977 1.10008 2.06977 1.09008 2.09977 1.09008L2.05976 1.08008ZM2.00977 1.47008V1.65008C2.00977 1.76008 2.00977 1.82008 2.02977 1.85008C2.02977 1.88008 2.04977 1.89008 2.06977 1.89008C2.08977 1.89008 2.10977 1.86008 2.11977 1.81008C2.11977 1.77008 2.12976 1.69008 2.12976 1.56008C2.12976 1.38008 2.12977 1.28008 2.11977 1.24008C2.11977 1.20008 2.09977 1.19008 2.07977 1.19008C2.05977 1.19008 2.03977 1.22008 2.02977 1.27008C2.02977 1.32008 2.01976 1.39008 2.01976 1.48008L2.00977 1.47008Z" fill="#3D3D3D"/>
<path d="M6.90016 9.2699H6.73016V8.9299C6.73016 8.9299 6.72016 8.8999 6.70016 8.8799C6.69016 8.8799 6.67016 8.8599 6.66016 8.8599C6.66016 8.8599 6.69016 8.8399 6.71016 8.8299C6.71016 8.8299 6.72016 8.8099 6.73016 8.7999V8.7799V8.5599C6.73016 8.5599 6.73016 8.4999 6.71016 8.4999C6.71016 8.4999 6.70016 8.4999 6.68016 8.4999H6.66016V8.3999H6.99016V8.4999H6.96016C6.96016 8.4999 6.93016 8.4999 6.93016 8.5099C6.93016 8.5099 6.93016 8.5399 6.93016 8.5799V8.7599C6.93016 8.7599 6.95016 8.8299 6.98016 8.8499C6.99016 8.8499 7.00016 8.8499 7.00016 8.8499C7.00016 8.8499 6.96016 8.8699 6.95016 8.8799C6.94016 8.8999 6.93016 8.9199 6.93016 8.9299V9.0099H7.01016V9.1199C7.01016 9.1199 6.96016 9.1599 6.95016 9.1799C6.93016 9.1999 6.92016 9.2199 6.90016 9.2499V9.2699Z" fill="#3D3D3D"/>
<path d="M6.33998 9.29988H6.31998C6.31998 9.29988 6.23998 9.28988 6.20998 9.26988C6.18998 9.24988 6.16998 9.23988 6.14998 9.21988C6.13998 9.19988 6.11998 9.18988 6.10998 9.16988C6.09998 9.14988 6.07998 9.11988 6.06998 9.07988C6.06998 9.05988 6.05998 9.02988 6.04998 8.97988C6.04998 8.97988 6.04998 8.91988 6.02998 8.89988C6.01998 8.87988 5.99998 8.86988 5.97998 8.85988H5.98998C6.00998 8.85988 6.01998 8.83988 6.03998 8.80988C6.03998 8.80988 6.03998 8.78988 6.03998 8.73988C6.03998 8.70988 6.03998 8.68988 6.03998 8.65988C6.03998 8.61988 6.05998 8.58988 6.06998 8.56988C6.07998 8.53988 6.08998 8.50988 6.10998 8.48988C6.15998 8.40988 6.22998 8.37988 6.30998 8.37988C6.38998 8.37988 6.45998 8.41988 6.50998 8.49988C6.52998 8.51988 6.53998 8.55988 6.55998 8.60988C6.55998 8.63988 6.57998 8.67988 6.57998 8.73988C6.57998 8.76988 6.57998 8.79988 6.57998 8.80988C6.57998 8.81988 6.57998 8.82988 6.58998 8.83988C6.59998 8.85988 6.61998 8.86988 6.63998 8.86988H6.61998C6.59998 8.86988 6.58998 8.88988 6.57998 8.90988C6.57998 8.90988 6.57998 8.93988 6.56998 8.96988C6.56998 9.01988 6.55998 9.05988 6.54998 9.07988C6.53998 9.11988 6.51998 9.14988 6.49998 9.17988C6.47998 9.19988 6.46998 9.21988 6.43998 9.23988C6.41998 9.24988 6.40998 9.25988 6.38998 9.26988C6.35998 9.27988 6.32998 9.28988 6.29998 9.28988L6.33998 9.29988ZM6.37998 8.89988V8.71988C6.37998 8.60988 6.37998 8.53988 6.35998 8.50988C6.35998 8.47988 6.33998 8.46988 6.31998 8.46988C6.29998 8.46988 6.27998 8.49988 6.26998 8.54988C6.26998 8.58988 6.25998 8.66988 6.25998 8.79988C6.25998 8.97988 6.25998 9.07988 6.26998 9.11988C6.26998 9.15988 6.28998 9.16988 6.30998 9.16988C6.32998 9.16988 6.34998 9.13988 6.35998 9.08988C6.35998 9.03988 6.36998 8.96988 6.36998 8.87988L6.37998 8.89988Z" fill="#3D3D3D"/>
<path d="M3.43027 1.87995C3.51027 1.67995 3.35027 1.44995 3.13027 1.44995C2.92027 1.44995 2.75027 1.66995 2.83027 1.87995C2.66027 1.87995 2.53027 2.02995 2.53027 2.19995C2.53027 2.32995 2.61027 2.44995 2.74027 2.49995C2.87027 2.54995 3.03027 2.49995 3.11027 2.38995C3.07027 2.51995 3.00027 2.65995 2.90027 2.74995C2.97027 2.71995 3.06027 2.70995 3.14027 2.70995C3.22027 2.70995 3.31027 2.71995 3.38027 2.74995C3.27027 2.65995 3.21027 2.51995 3.17027 2.38995C3.25027 2.50995 3.41027 2.54995 3.54027 2.49995C3.66027 2.44995 3.75027 2.32995 3.75027 2.19995C3.75027 2.02995 3.61027 1.88995 3.45027 1.87995H3.43027Z" fill="#3D3D3D"/>
<path d="M3.43027 8.69007C3.51027 8.89007 3.35027 9.12007 3.13027 9.12007C2.92027 9.12007 2.75027 8.90007 2.83027 8.69007C2.66027 8.69007 2.53027 8.54007 2.53027 8.37007C2.53027 8.24007 2.61027 8.12007 2.74027 8.07007C2.87027 8.02007 3.03027 8.07007 3.11027 8.18007C3.07027 8.05007 3.00027 7.91007 2.90027 7.82007C2.97027 7.85007 3.06027 7.86007 3.14027 7.86007C3.22027 7.86007 3.31027 7.85007 3.38027 7.82007C3.27027 7.91007 3.21027 8.05007 3.17027 8.18007C3.25027 8.06007 3.41027 8.02007 3.54027 8.07007C3.66027 8.12007 3.75027 8.24007 3.75027 8.37007C3.75027 8.54007 3.61027 8.68007 3.45027 8.69007H3.43027Z" fill="#3D3D3D"/>
<path d="M5.56992 1.87995C5.64992 1.67995 5.48992 1.44995 5.26992 1.44995C5.05992 1.44995 4.88992 1.66995 4.96992 1.87995C4.79992 1.87995 4.66992 2.02995 4.66992 2.19995C4.66992 2.32995 4.74992 2.44995 4.87992 2.49995C5.00992 2.54995 5.16992 2.49995 5.24992 2.38995C5.20992 2.51995 5.13992 2.65995 5.03992 2.74995C5.10992 2.71995 5.19992 2.70995 5.27992 2.70995C5.35992 2.70995 5.44992 2.71995 5.51992 2.74995C5.40992 2.65995 5.34992 2.51995 5.30992 2.38995C5.38992 2.50995 5.54992 2.54995 5.67992 2.49995C5.79992 2.44995 5.88992 2.32995 5.88992 2.19995C5.88992 2.02995 5.74992 1.88995 5.58992 1.87995H5.56992Z" fill="#3D3D3D"/>
<path d="M4.5001 2.98005C4.5801 2.78005 4.4201 2.55005 4.2001 2.55005C3.9901 2.55005 3.8201 2.77005 3.9001 2.98005C3.7301 2.98005 3.6001 3.13005 3.6001 3.30005C3.6001 3.43005 3.6801 3.55005 3.8101 3.60005C3.9401 3.65005 4.1001 3.60005 4.1801 3.49005C4.1401 3.62005 4.0701 3.76005 3.9701 3.85005C4.0401 3.82005 4.1301 3.81005 4.2101 3.81005C4.2901 3.81005 4.3801 3.82005 4.4501 3.85005C4.3401 3.76005 4.2801 3.62005 4.2401 3.49005C4.3201 3.61005 4.4801 3.65005 4.6101 3.60005C4.7301 3.55005 4.8201 3.43005 4.8201 3.30005C4.8201 3.13005 4.6801 2.99005 4.5201 2.98005H4.5001Z" fill="#3D3D3D"/>
<path d="M3.43027 4.00007C3.51027 3.80007 3.35027 3.57007 3.13027 3.57007C2.92027 3.57007 2.75027 3.79007 2.83027 4.00007C2.66027 4.00007 2.53027 4.15007 2.53027 4.32007C2.53027 4.45007 2.61027 4.57007 2.74027 4.62007C2.87027 4.67007 3.03027 4.62007 3.11027 4.51007C3.07027 4.64007 3.00027 4.78007 2.90027 4.87007C2.97027 4.84007 3.06027 4.83007 3.14027 4.83007C3.22027 4.83007 3.31027 4.84007 3.38027 4.87007C3.27027 4.78007 3.21027 4.64007 3.17027 4.51007C3.25027 4.63007 3.41027 4.67007 3.54027 4.62007C3.66027 4.57007 3.75027 4.45007 3.75027 4.32007C3.75027 4.15007 3.61027 4.01007 3.45027 4.00007H3.43027Z" fill="#3D3D3D"/>
<path d="M5.56992 4.00007C5.64992 3.80007 5.48992 3.57007 5.26992 3.57007C5.05992 3.57007 4.88992 3.79007 4.96992 4.00007C4.79992 4.00007 4.66992 4.15007 4.66992 4.32007C4.66992 4.45007 4.74992 4.57007 4.87992 4.62007C5.00992 4.67007 5.16992 4.62007 5.24992 4.51007C5.20992 4.64007 5.13992 4.78007 5.03992 4.87007C5.10992 4.84007 5.19992 4.83007 5.27992 4.83007C5.35992 4.83007 5.44992 4.84007 5.51992 4.87007C5.40992 4.78007 5.34992 4.64007 5.30992 4.51007C5.38992 4.63007 5.54992 4.67007 5.67992 4.62007C5.79992 4.57007 5.88992 4.45007 5.88992 4.32007C5.88992 4.15007 5.74992 4.01007 5.58992 4.00007H5.56992Z" fill="#3D3D3D"/>
<path d="M5.56992 8.69007C5.64992 8.89007 5.48992 9.12007 5.26992 9.12007C5.05992 9.12007 4.88992 8.90007 4.96992 8.69007C4.79992 8.69007 4.66992 8.54007 4.66992 8.37007C4.66992 8.24007 4.74992 8.12007 4.87992 8.07007C5.00992 8.02007 5.16992 8.07007 5.24992 8.18007C5.20992 8.05007 5.13992 7.91007 5.03992 7.82007C5.10992 7.85007 5.19992 7.86007 5.27992 7.86007C5.35992 7.86007 5.44992 7.85007 5.51992 7.82007C5.40992 7.91007 5.34992 8.05007 5.30992 8.18007C5.38992 8.06007 5.54992 8.02007 5.67992 8.07007C5.79992 8.12007 5.88992 8.24007 5.88992 8.37007C5.88992 8.54007 5.74992 8.68007 5.58992 8.69007H5.56992Z" fill="#3D3D3D"/>
<path d="M3.43027 6.55994C3.51027 6.75994 3.35027 6.98994 3.13027 6.98994C2.92027 6.98994 2.75027 6.76994 2.83027 6.55994C2.66027 6.55994 2.53027 6.40994 2.53027 6.23994C2.53027 6.10994 2.61027 5.98994 2.74027 5.93994C2.87027 5.88994 3.03027 5.93994 3.11027 6.04994C3.07027 5.91994 3.00027 5.77994 2.90027 5.68994C2.97027 5.71994 3.06027 5.72994 3.14027 5.72994C3.22027 5.72994 3.31027 5.71994 3.38027 5.68994C3.27027 5.77994 3.21027 5.91994 3.17027 6.04994C3.25027 5.92994 3.41027 5.88994 3.54027 5.93994C3.66027 5.98994 3.75027 6.10994 3.75027 6.23994C3.75027 6.40994 3.61027 6.54994 3.45027 6.55994H3.43027Z" fill="#3D3D3D"/>
<path d="M5.56992 6.55994C5.64992 6.75994 5.48992 6.98994 5.26992 6.98994C5.05992 6.98994 4.88992 6.76994 4.96992 6.55994C4.79992 6.55994 4.66992 6.40994 4.66992 6.23994C4.66992 6.10994 4.74992 5.98994 4.87992 5.93994C5.00992 5.88994 5.16992 5.93994 5.24992 6.04994C5.20992 5.91994 5.13992 5.77994 5.03992 5.68994C5.10992 5.71994 5.19992 5.72994 5.27992 5.72994C5.35992 5.72994 5.44992 5.71994 5.51992 5.68994C5.40992 5.77994 5.34992 5.91994 5.30992 6.04994C5.38992 5.92994 5.54992 5.88994 5.67992 5.93994C5.79992 5.98994 5.88992 6.10994 5.88992 6.23994C5.88992 6.40994 5.74992 6.54994 5.58992 6.55994H5.56992Z" fill="#3D3D3D"/>
<path d="M4.50986 7.63001C4.58986 7.83001 4.42987 8.06001 4.20987 8.06001C3.99987 8.06001 3.82986 7.84001 3.90986 7.63001C3.73986 7.63001 3.60986 7.48001 3.60986 7.31001C3.60986 7.18001 3.68987 7.06001 3.81987 7.01001C3.94987 6.96001 4.10987 7.01001 4.18987 7.12001C4.14987 6.99001 4.07987 6.85001 3.97987 6.76001C4.04987 6.79001 4.13986 6.80001 4.21986 6.80001C4.29986 6.80001 4.38987 6.79001 4.45987 6.76001C4.34987 6.85001 4.28986 6.99001 4.24986 7.12001C4.32986 7.00001 4.48987 6.96001 4.61987 7.01001C4.73987 7.06001 4.82986 7.18001 4.82986 7.31001C4.82986 7.48001 4.68987 7.62001 4.52987 7.63001H4.50986Z" fill="#3D3D3D"/>
<path d="M2.04 2.43994C2.09 2.31994 1.99 2.18994 1.86 2.18994C1.73 2.18994 1.64 2.31994 1.68 2.43994C1.58 2.43994 1.5 2.52994 1.5 2.62994C1.5 2.70994 1.55 2.77994 1.62 2.80994C1.7 2.83994 1.79 2.80994 1.84 2.73994C1.81 2.81994 1.78 2.89994 1.71 2.95994C1.75 2.93994 1.8 2.93994 1.85 2.93994C1.9 2.93994 1.95 2.93994 1.99 2.95994C1.93 2.90994 1.89 2.81994 1.86 2.73994C1.91 2.80994 2 2.83994 2.08 2.80994C2.15 2.77994 2.2 2.70994 2.2 2.62994C2.2 2.52994 2.12 2.44994 2.02 2.43994H2.04Z" fill="#3D3D3D"/>
<path d="M6.38998 7.99998C6.33998 8.11998 6.43998 8.24998 6.56998 8.24998C6.69998 8.24998 6.78998 8.11998 6.74998 7.99998C6.84998 7.99998 6.92998 7.90998 6.92998 7.80998C6.92998 7.72998 6.87998 7.65998 6.80998 7.62998C6.72998 7.59998 6.63998 7.62998 6.58998 7.69998C6.61998 7.61998 6.64998 7.53998 6.71998 7.47998C6.67998 7.49998 6.62998 7.49998 6.57998 7.49998C6.52998 7.49998 6.47998 7.49998 6.43998 7.47998C6.49998 7.52998 6.53998 7.61998 6.56998 7.69998C6.51998 7.62998 6.42998 7.59998 6.34998 7.62998C6.27998 7.65998 6.22998 7.72998 6.22998 7.80998C6.22998 7.90998 6.30998 7.98998 6.40998 7.99998H6.38998Z" fill="#3D3D3D"/>
</svg>
