<svg width="8" height="10" viewBox="0 0 8 10" fill="none" xmlns="http://www.w3.org/2000/svg">
<path d="M7.34975 9.87003H1.29975C1.12975 9.87003 0.989746 9.73003 0.989746 9.56003V0.840029C0.989746 0.670029 1.12975 0.530029 1.29975 0.530029H7.34975C7.51975 0.530029 7.65975 0.670029 7.65975 0.840029V9.56003C7.65975 9.73003 7.51975 9.87003 7.34975 9.87003ZM1.29975 0.540029C1.13975 0.540029 1.00975 0.670029 1.00975 0.830029V9.55003C1.00975 9.71003 1.13975 9.84003 1.29975 9.84003H7.34975C7.50975 9.84003 7.63975 9.71003 7.63975 9.55003V0.840029C7.63975 0.680029 7.50975 0.550029 7.34975 0.550029H1.29975V0.540029Z" fill="#3D3D3D"/>
<path d="M7.34996 9.89H1.29996C1.10996 9.89 0.959961 9.74 0.959961 9.55V0.84C0.959961 0.65 1.10996 0.5 1.29996 0.5H7.34996C7.53996 0.5 7.68996 0.65 7.68996 0.84V9.56C7.68996 9.75 7.53996 9.9 7.34996 9.9V9.89ZM1.29996 0.57C1.14996 0.57 1.03996 0.69 1.03996 0.83V9.55C1.03996 9.7 1.15996 9.81 1.29996 9.81H7.34996C7.49996 9.81 7.60996 9.69 7.60996 9.55V0.84C7.60996 0.69 7.48996 0.58 7.34996 0.58H1.29996V0.57Z" fill="#3D3D3D"/>
<path d="M7.16998 9.65H1.46998C1.33998 9.65 1.22998 9.54 1.22998 9.41V0.99C1.22998 0.86 1.33998 0.75 1.46998 0.75H7.16998C7.29998 0.75 7.40998 0.86 7.40998 0.99V9.41C7.40998 9.54 7.29998 9.65 7.16998 9.65ZM1.46998 0.8C1.35998 0.8 1.27998 0.89 1.27998 0.99V9.41C1.27998 9.52 1.36998 9.6 1.46998 9.6H7.16998C7.27998 9.6 7.35998 9.51 7.35998 9.41V0.99C7.35998 0.88 7.26998 0.8 7.16998 0.8H1.46998Z" fill="#3D3D3D"/>
<path d="M7.64996 4.15996C7.64996 4.15996 7.57996 4.14996 7.55996 4.15996C7.54996 4.15996 7.53996 4.16996 7.52996 4.17996C7.50996 4.18996 7.48996 4.19996 7.45996 4.19996C7.47996 4.19996 7.49996 4.19996 7.50996 4.19996C7.52996 4.19996 7.53996 4.17996 7.55996 4.17996C7.57996 4.17996 7.59996 4.17996 7.60996 4.18996C7.60996 4.18996 7.60997 4.20996 7.62997 4.18996C7.62997 4.18996 7.62997 4.16996 7.62997 4.15996H7.64996Z" fill="#3D3D3D"/>
<path d="M6.27979 0.52002C6.27979 0.52002 6.33979 0.57002 6.33979 0.62002C6.33979 0.67002 6.31979 0.71002 6.31979 0.76002C6.34979 0.69002 6.37979 0.63002 6.37979 0.55002C6.39979 0.55002 6.41979 0.54002 6.44979 0.54002C6.39979 0.54002 6.35979 0.52002 6.27979 0.52002Z" fill="#3D3D3D"/>
<path d="M6.58008 0.540039C6.58008 0.540039 6.58008 0.620039 6.58008 0.650039C6.59008 0.640039 6.61008 0.580039 6.61008 0.560039C6.61008 0.550039 6.60008 0.540039 6.58008 0.540039Z" fill="#3D3D3D"/>
<path d="M3.33984 0.530029C3.33984 0.530029 3.39984 0.560029 3.40984 0.580029C3.41984 0.600029 3.40984 0.630029 3.42984 0.650029C3.43984 0.680029 3.47984 0.670029 3.50984 0.680029C3.53984 0.680029 3.55984 0.700029 3.58984 0.710029C3.58984 0.690029 3.56984 0.680029 3.54984 0.670029C3.53984 0.670029 3.52984 0.670029 3.51984 0.670029H3.47984C3.47984 0.670029 3.45984 0.610029 3.45984 0.600029C3.45984 0.580029 3.47984 0.570029 3.49984 0.560029C3.48984 0.540029 3.38984 0.560029 3.35984 0.560029L3.33984 0.530029Z" fill="#3D3D3D"/>
<path d="M3.7002 0.540039C3.7002 0.540039 3.71019 0.580039 3.72019 0.600039C3.72019 0.620039 3.72019 0.630039 3.74019 0.640039C3.74019 0.620039 3.74019 0.590039 3.74019 0.560039C3.74019 0.540039 3.74019 0.540039 3.71019 0.540039H3.7002Z" fill="#3D3D3D"/>
<path d="M1.00005 0.989961C1.00005 0.989961 1.06005 0.989961 1.10005 0.999961C1.12005 0.999961 1.10005 0.999961 1.13005 0.999961C1.15005 0.999961 1.16005 0.999961 1.18005 0.999961C1.16005 0.999961 1.14005 0.999961 1.11005 0.999961C1.07005 0.999961 1.08005 0.999961 1.06005 0.979961C1.05005 0.979961 1.03005 0.979961 1.01005 0.979961C1.00005 0.979961 1.01005 0.969961 1.00005 0.959961C0.99005 0.959961 1.00005 0.989961 1.00005 0.999961V0.989961Z" fill="#3D3D3D"/>
<path d="M1.00005 9.15988C1.00005 9.15988 1.06005 9.15988 1.10005 9.16988C1.12005 9.16988 1.10005 9.16988 1.13005 9.16988C1.15005 9.16988 1.16005 9.16988 1.18005 9.16988C1.16005 9.16988 1.14005 9.16988 1.11005 9.16988C1.07005 9.16988 1.08005 9.16988 1.06005 9.14988C1.05005 9.14988 1.03005 9.14988 1.01005 9.14988C1.00005 9.14988 1.01005 9.13988 1.00005 9.12988C0.99005 9.12988 1.00005 9.15988 1.00005 9.16988V9.15988Z" fill="#3D3D3D"/>
<path d="M1.01015 0.750051H1.09015C1.10015 0.730051 1.04015 0.740051 1.04015 0.720051C1.04015 0.710051 1.06015 0.690051 1.05015 0.680051C1.05015 0.650051 0.990148 0.710051 1.00015 0.740051L1.01015 0.750051Z" fill="#3D3D3D"/>
<path d="M4.87987 0.530029C4.87987 0.530029 4.87986 0.530029 4.88986 0.550029C4.88986 0.550029 4.88986 0.570029 4.88986 0.580029C4.88986 0.600029 4.88986 0.620029 4.88986 0.640029C4.88986 0.630029 4.88986 0.620029 4.88986 0.600029C4.88986 0.590029 4.88986 0.580029 4.89986 0.570029C4.89986 0.560029 4.89986 0.560029 4.89986 0.540029C4.89986 0.540029 4.89987 0.540029 4.87987 0.540029C4.87987 0.540029 4.86986 0.540029 4.85986 0.540029L4.87987 0.530029Z" fill="#3D3D3D"/>
<path d="M5.12988 9.86988C5.12988 9.86988 5.18988 9.81988 5.18988 9.76988C5.18988 9.71988 5.16988 9.67988 5.16988 9.62988C5.19988 9.69988 5.22988 9.75988 5.22988 9.83988C5.24988 9.83988 5.26988 9.84988 5.29988 9.84988C5.24988 9.84988 5.20988 9.86988 5.12988 9.86988Z" fill="#3D3D3D"/>
<path d="M0.97998 8.62988C0.97998 8.62988 1.02998 8.68988 1.07998 8.68988C1.12998 8.68988 1.16998 8.66988 1.21998 8.66988C1.14998 8.69988 1.07998 8.72988 1.00998 8.72988C1.00998 8.74988 0.999977 8.76988 0.999977 8.79988C0.999977 8.74988 0.97998 8.70988 0.97998 8.62988Z" fill="#3D3D3D"/>
<path d="M5.43994 9.84999C5.43994 9.84999 5.43994 9.76999 5.43994 9.73999C5.44994 9.74999 5.46994 9.80999 5.46994 9.82999C5.46994 9.83999 5.45994 9.84999 5.43994 9.84999Z" fill="#3D3D3D"/>
<path d="M2.18994 9.84992C2.18994 9.84992 2.24994 9.81992 2.25994 9.79992C2.26994 9.77992 2.25994 9.74992 2.27994 9.72992C2.28994 9.69992 2.32994 9.70992 2.35994 9.69992C2.38994 9.69992 2.40994 9.67992 2.43994 9.66992C2.43994 9.68992 2.41994 9.69992 2.39994 9.70992C2.38994 9.70992 2.37994 9.70992 2.36994 9.70992H2.32994C2.32994 9.70992 2.30994 9.76992 2.30994 9.77992C2.30994 9.79992 2.32994 9.80992 2.34994 9.81992C2.33994 9.83992 2.23994 9.81992 2.20994 9.81992L2.18994 9.84992Z" fill="#3D3D3D"/>
<path d="M2.5498 9.85C2.5498 9.85 2.5598 9.81 2.5698 9.79C2.5698 9.77 2.56981 9.76 2.58981 9.75C2.58981 9.77 2.58981 9.8 2.58981 9.83C2.58981 9.85 2.5898 9.85 2.5598 9.85H2.5498Z" fill="#3D3D3D"/>
<path d="M3.72997 9.84999C3.72997 9.84999 3.72996 9.84999 3.73996 9.82999C3.73996 9.82999 3.73996 9.80999 3.73996 9.79999C3.73996 9.77999 3.73996 9.75999 3.73996 9.73999C3.73996 9.74999 3.73996 9.75999 3.73996 9.77999C3.73996 9.78999 3.73996 9.79999 3.74996 9.80999C3.74996 9.81999 3.74996 9.81999 3.74996 9.83999C3.74996 9.83999 3.74997 9.83999 3.72997 9.83999C3.72997 9.83999 3.71996 9.83999 3.70996 9.83999L3.72997 9.84999Z" fill="#3D3D3D"/>
<path d="M7.65008 2.12988C7.58008 2.12988 7.50008 2.12988 7.43008 2.12988C7.39008 2.12988 7.39008 2.12988 7.37008 2.15988C7.33008 2.20988 7.26008 2.20988 7.20008 2.21988C7.16008 2.22988 7.12008 2.23988 7.08008 2.23988C7.11008 2.26988 7.21008 2.23988 7.25008 2.22988C7.28008 2.22988 7.32007 2.20988 7.35007 2.19988C7.39007 2.16988 7.40008 2.15988 7.45008 2.15988C7.49008 2.15988 7.52008 2.15988 7.57008 2.15988C7.58008 2.15988 7.60008 2.15988 7.62008 2.15988C7.64008 2.15988 7.64008 2.16988 7.66008 2.17988C7.66008 2.16988 7.66008 2.15988 7.66008 2.13988L7.65008 2.12988Z" fill="#3D3D3D"/>
<path d="M7.63972 7.33008C7.56972 7.33008 7.48972 7.33008 7.41972 7.33008C7.37972 7.33008 7.36973 7.36008 7.33973 7.38008C7.30973 7.40008 7.25973 7.41008 7.21973 7.41008C7.25973 7.41008 7.29973 7.41008 7.33973 7.40008C7.37973 7.37008 7.38973 7.36008 7.43973 7.36008C7.50973 7.35008 7.55972 7.36008 7.59972 7.43008C7.61972 7.47008 7.62973 7.48008 7.62973 7.52008C7.62973 7.49008 7.63973 7.46008 7.64973 7.43008C7.64973 7.40008 7.64973 7.37008 7.64973 7.34008L7.63972 7.33008Z" fill="#3D3D3D"/>
<path d="M7.63975 2.37988C7.63975 2.37988 7.52975 2.37988 7.48975 2.38988C7.51975 2.38988 7.53975 2.38988 7.56975 2.38988C7.57975 2.38988 7.58975 2.39988 7.60975 2.40988C7.63975 2.40988 7.65975 2.40988 7.64975 2.37988H7.63975Z" fill="#3D3D3D"/>
<path d="M7.63998 1.93993C7.63998 1.93993 7.50998 2.01993 7.47998 2.00993C7.50998 1.97993 7.54998 1.97993 7.57998 1.95993C7.59998 1.94993 7.61998 1.92993 7.64998 1.92993H7.63998V1.93993Z" fill="#3D3D3D"/>
<path d="M0.97998 3.14989C0.97998 3.14989 1.01998 3.17989 1.03998 3.18989C1.05998 3.19989 1.10998 3.19989 1.12998 3.19989C1.21998 3.19989 1.27998 3.17989 1.35998 3.15989C1.29998 3.20989 1.23998 3.21989 1.16998 3.21989C1.10998 3.21989 1.00998 3.21989 0.97998 3.13989V3.14989Z" fill="#3D3D3D"/>
<path d="M0.999803 3.01998C0.999803 2.93998 1.12981 2.94998 1.18981 2.92998C1.14981 2.91998 1.0798 2.92998 1.0398 2.92998C0.959804 2.92998 0.989805 2.95998 1.00981 3.00998L0.999803 3.01998Z" fill="#3D3D3D"/>
<path d="M1.00977 6.60997C1.00977 6.53997 1.11977 6.56997 1.15977 6.56997C1.19977 6.56997 1.19976 6.54997 1.21976 6.51997C1.22976 6.49997 1.24977 6.47997 1.25977 6.46997C1.21977 6.49997 1.22977 6.56997 1.18977 6.58997C1.13977 6.61997 1.05977 6.56997 1.01977 6.61997C1.01977 6.61997 1.01977 6.59997 1.01977 6.60997H1.00977Z" fill="#3D3D3D"/>
<path d="M0.999848 5.07006C0.999848 5.07006 0.999848 5.11006 0.999848 5.12006C0.999848 5.12006 1.02985 5.15006 1.02985 5.16006C1.02985 5.19006 0.989846 5.20006 0.989846 5.23006C0.989846 5.19006 0.969846 5.10006 0.989846 5.06006L0.999848 5.07006Z" fill="#3D3D3D"/>
<path d="M1.00975 5.25C1.00975 5.25 1.04975 5.27 1.06975 5.27C1.09975 5.27 1.09975 5.27 1.11975 5.29C1.15975 5.32 1.16975 5.27 1.20975 5.27C1.18975 5.29 1.16975 5.29 1.14975 5.3C1.11975 5.31 1.11975 5.3 1.09975 5.29C1.08975 5.29 1.04975 5.29 1.02975 5.29C1.00975 5.29 1.00975 5.34 1.00975 5.36C1.00975 5.39 1.03975 5.39 1.05975 5.4C1.04975 5.4 1.01975 5.4 1.01975 5.4C1.01975 5.4 1.01975 5.4 0.999748 5.4C0.999748 5.4 0.989746 5.37 0.989746 5.36C0.989746 5.32 0.98975 5.29 1.00975 5.26V5.25Z" fill="#3D3D3D"/>
<path d="M0.999748 6.46991C0.999748 6.46991 1.07975 6.46991 1.10975 6.42991C1.09975 6.42991 1.07975 6.42991 1.05975 6.42991C1.02975 6.42991 1.00975 6.41991 0.989746 6.40991C0.989746 6.42991 0.989746 6.44991 0.989746 6.45991H0.999748C0.999748 6.45991 0.999748 6.46991 0.999748 6.47991V6.46991Z" fill="#3D3D3D"/>
<path d="M1.77979 2.68994C1.77979 2.68994 1.77979 2.68994 1.77979 2.69994C1.77979 2.69994 1.77979 2.69994 1.78979 2.68994H1.77979Z" fill="white"/>
<path d="M1.91988 1.08008C1.91988 1.08008 1.99988 1.08008 2.03988 1.11008C2.05988 1.12008 2.07988 1.13008 2.08988 1.14008C2.10988 1.16008 2.11988 1.17008 2.12988 1.18008C2.14988 1.21008 2.15988 1.23008 2.15988 1.26008V1.29008C2.15988 1.37008 2.13988 1.43008 2.09988 1.46008C2.07988 1.48008 2.05988 1.49008 2.02988 1.49008C2.02988 1.49008 2.02988 1.49008 2.04988 1.50008C2.05988 1.50008 2.07988 1.51008 2.09988 1.52008C2.11988 1.53008 2.12988 1.54008 2.13988 1.55008C2.16988 1.58008 2.17988 1.63008 2.17988 1.69008V1.71008C2.17988 1.77008 2.17988 1.81008 2.17988 1.81008C2.17988 1.82008 2.17988 1.84008 2.15988 1.85008C2.14988 1.87008 2.11988 1.90008 2.08988 1.92008C2.03988 1.95008 1.97988 1.97008 1.89988 1.97008C1.77988 1.97008 1.69988 1.94008 1.65988 1.88008C1.65988 1.88008 1.64988 1.86008 1.63988 1.84008C1.63988 1.82008 1.62988 1.78008 1.62988 1.72008H1.81988C1.81988 1.78008 1.82988 1.83008 1.84988 1.85008C1.85988 1.86008 1.86988 1.87008 1.88988 1.87008C1.88988 1.87008 1.93988 1.84008 1.94988 1.78008C1.94988 1.77008 1.94988 1.75008 1.94988 1.74008C1.94988 1.69008 1.94988 1.65008 1.92988 1.63008C1.92988 1.63008 1.91988 1.62008 1.90988 1.61008C1.89988 1.61008 1.87988 1.60008 1.86988 1.60008H1.82988V1.41008H1.88988C1.88988 1.41008 1.92988 1.41008 1.93988 1.39008C1.93988 1.39008 1.94988 1.37008 1.95988 1.36008C1.95988 1.34008 1.95988 1.32008 1.95988 1.30008C1.95988 1.24008 1.94988 1.22008 1.91988 1.21008C1.91988 1.21008 1.91988 1.21008 1.90988 1.21008C1.90988 1.21008 1.86988 1.23008 1.85988 1.27008C1.85988 1.29008 1.85988 1.30008 1.85988 1.33008H1.66988C1.66988 1.29008 1.66988 1.25008 1.68988 1.21008C1.70988 1.17008 1.73988 1.13008 1.77988 1.11008C1.81988 1.09008 1.86988 1.08008 1.91988 1.08008Z" fill="#3D3D3D"/>
<path d="M6.67992 9.2899C6.67992 9.2899 6.59992 9.2899 6.55992 9.2599C6.53992 9.2499 6.51993 9.2399 6.50993 9.2299C6.48993 9.2099 6.47992 9.1999 6.46992 9.1899C6.44992 9.1599 6.43993 9.1399 6.43993 9.1099V9.0799C6.43993 8.9999 6.45992 8.9399 6.49992 8.9099C6.51992 8.8899 6.53992 8.8799 6.56992 8.8799C6.56992 8.8799 6.56993 8.8799 6.54993 8.8699C6.53993 8.8699 6.51992 8.8599 6.49992 8.8499C6.47992 8.8399 6.46992 8.8299 6.45992 8.8199C6.42992 8.7899 6.41992 8.7399 6.41992 8.6799V8.6599C6.41992 8.5999 6.41992 8.5599 6.41992 8.5599C6.41992 8.5499 6.41993 8.5299 6.43993 8.5199C6.44993 8.4999 6.47993 8.4699 6.50993 8.4499C6.55993 8.4199 6.61993 8.3999 6.69993 8.3999C6.81993 8.3999 6.89993 8.4299 6.93993 8.4899C6.93993 8.4899 6.94992 8.5099 6.95992 8.5299C6.95992 8.5499 6.96992 8.5899 6.96992 8.6499H6.77992C6.77992 8.5899 6.76992 8.5399 6.74992 8.5199C6.73992 8.5099 6.72992 8.4999 6.70992 8.4999C6.70992 8.4999 6.65993 8.5299 6.64993 8.5899C6.64993 8.5999 6.64993 8.6199 6.64993 8.6299C6.64993 8.6799 6.64992 8.7199 6.66992 8.7399C6.66992 8.7399 6.67993 8.7499 6.68993 8.7599C6.69993 8.7599 6.71993 8.7699 6.72993 8.7699H6.76993V8.9599H6.70992C6.70992 8.9599 6.66993 8.9599 6.65993 8.9799C6.65993 8.9799 6.64992 8.9999 6.63992 9.0099C6.63992 9.0299 6.63992 9.0499 6.63992 9.0699C6.63992 9.1299 6.64992 9.1499 6.67992 9.1599C6.67992 9.1599 6.67993 9.1599 6.68993 9.1599C6.68993 9.1599 6.72992 9.1399 6.73992 9.0999C6.73992 9.0799 6.73992 9.0699 6.73992 9.0399H6.92992C6.92992 9.0799 6.92993 9.1199 6.90993 9.1599C6.88993 9.1999 6.85992 9.2399 6.81992 9.2599C6.77992 9.2799 6.72992 9.2899 6.67992 9.2899Z" fill="#3D3D3D"/>
<path d="M4.61973 1.81989C4.69973 1.61989 4.53973 1.38989 4.31973 1.38989C4.10973 1.38989 3.93973 1.60989 4.01973 1.81989C3.84973 1.81989 3.71973 1.96989 3.71973 2.13989C3.71973 2.26989 3.79973 2.38989 3.92973 2.43989C4.05973 2.48989 4.21973 2.43989 4.29973 2.32989C4.25973 2.45989 4.18973 2.59989 4.08973 2.68989C4.15973 2.65989 4.24973 2.64989 4.32973 2.64989C4.40973 2.64989 4.49973 2.65989 4.56973 2.68989C4.45973 2.59989 4.39973 2.45989 4.35973 2.32989C4.43973 2.44989 4.59973 2.48989 4.72973 2.43989C4.84973 2.38989 4.93973 2.26989 4.93973 2.13989C4.93973 1.96989 4.79972 1.82989 4.63972 1.81989H4.61973Z" fill="#3D3D3D"/>
<path d="M4.61973 5.09992C4.69973 4.89992 4.53973 4.66992 4.31973 4.66992C4.10973 4.66992 3.93973 4.88992 4.01973 5.09992C3.84973 5.09992 3.71973 5.24992 3.71973 5.41992C3.71973 5.54992 3.79973 5.66992 3.92973 5.71992C4.05973 5.76992 4.21973 5.71992 4.29973 5.60992C4.25973 5.73992 4.18973 5.87992 4.08973 5.96992C4.15973 5.93992 4.24973 5.92992 4.32973 5.92992C4.40973 5.92992 4.49973 5.93992 4.56973 5.96992C4.45973 5.87992 4.39973 5.73992 4.35973 5.60992C4.43973 5.72992 4.59973 5.76992 4.72973 5.71992C4.84973 5.66992 4.93973 5.54992 4.93973 5.41992C4.93973 5.24992 4.79972 5.10992 4.63972 5.09992H4.61973Z" fill="#3D3D3D"/>
<path d="M4.61973 8.62C4.69973 8.82 4.53973 9.05 4.31973 9.05C4.10973 9.05 3.93973 8.83 4.01973 8.62C3.84973 8.62 3.71973 8.47 3.71973 8.3C3.71973 8.17 3.79973 8.05 3.92973 8C4.05973 7.95 4.21973 8 4.29973 8.11C4.25973 7.98 4.18973 7.84 4.08973 7.75C4.15973 7.78 4.24973 7.79 4.32973 7.79C4.40973 7.79 4.49973 7.78 4.56973 7.75C4.45973 7.84 4.39973 7.98 4.35973 8.11C4.43973 7.99 4.59973 7.95 4.72973 8C4.84973 8.05 4.93973 8.17 4.93973 8.3C4.93973 8.47 4.79972 8.61 4.63972 8.62H4.61973Z" fill="#3D3D3D"/>
<path d="M2.14986 2.43994C2.19986 2.31994 2.09986 2.18994 1.96986 2.18994C1.83986 2.18994 1.74986 2.31994 1.78986 2.43994C1.68986 2.43994 1.60986 2.52994 1.60986 2.62994C1.60986 2.70994 1.65987 2.77994 1.72987 2.80994C1.80987 2.83994 1.89987 2.80994 1.94987 2.73994C1.91987 2.81994 1.88986 2.89994 1.81986 2.95994C1.85986 2.93994 1.90986 2.93994 1.95986 2.93994C2.00986 2.93994 2.05986 2.93994 2.09986 2.95994C2.03986 2.90994 1.99986 2.81994 1.96986 2.73994C2.01986 2.80994 2.10987 2.83994 2.18987 2.80994C2.25987 2.77994 2.30986 2.70994 2.30986 2.62994C2.30986 2.52994 2.22987 2.44994 2.12987 2.43994H2.14986Z" fill="#3D3D3D"/>
<path d="M6.49984 7.99998C6.44984 8.11998 6.54984 8.24998 6.67984 8.24998C6.80984 8.24998 6.89984 8.11998 6.85984 7.99998C6.95984 7.99998 7.03984 7.90998 7.03984 7.80998C7.03984 7.72998 6.98984 7.65998 6.91984 7.62998C6.83984 7.59998 6.74984 7.62998 6.69984 7.69998C6.72984 7.61998 6.75984 7.53998 6.82984 7.47998C6.78984 7.49998 6.73984 7.49998 6.68984 7.49998C6.63984 7.49998 6.58984 7.49998 6.54984 7.47998C6.60984 7.52998 6.64984 7.61998 6.67984 7.69998C6.62984 7.62998 6.53984 7.59998 6.45984 7.62998C6.38984 7.65998 6.33984 7.72998 6.33984 7.80998C6.33984 7.90998 6.41984 7.98998 6.51984 7.99998H6.49984Z" fill="#3D3D3D"/>
</svg>
