<svg width="8" height="10" viewBox="0 0 8 10" fill="none" xmlns="http://www.w3.org/2000/svg">
<path d="M7.31947 9.87003H1.26947C1.09947 9.87003 0.959473 9.73003 0.959473 9.56003V0.840029C0.959473 0.670029 1.09947 0.530029 1.26947 0.530029H7.31947C7.48947 0.530029 7.62947 0.670029 7.62947 0.840029V9.56003C7.62947 9.73003 7.48947 9.87003 7.31947 9.87003ZM1.26947 0.540029C1.10947 0.540029 0.969473 0.680029 0.969473 0.840029V9.56003C0.969473 9.72003 1.09947 9.85003 1.25947 9.85003H7.30947C7.46947 9.85003 7.59947 9.72003 7.59947 9.56003V0.840029C7.59947 0.680029 7.46947 0.550029 7.30947 0.550029H1.26947V0.540029Z" fill="#3D3D3D"/>
<path d="M7.31969 9.89H1.26969C1.07969 9.89 0.929688 9.74 0.929688 9.55V0.84C0.929688 0.65 1.07969 0.5 1.26969 0.5H7.31969C7.50969 0.5 7.65969 0.65 7.65969 0.84V9.56C7.65969 9.75 7.50969 9.9 7.31969 9.9V9.89ZM1.26969 0.57C1.11969 0.57 0.999688 0.69 0.999688 0.84V9.56C0.999688 9.71 1.11969 9.82 1.25969 9.82H7.30969C7.45969 9.82 7.56969 9.7 7.56969 9.56V0.84C7.56969 0.69 7.44969 0.58 7.30969 0.58H1.26969V0.57Z" fill="#3D3D3D"/>
<path d="M7.13971 9.65H1.43971C1.30971 9.65 1.19971 9.54 1.19971 9.41V0.99C1.19971 0.86 1.30971 0.75 1.43971 0.75H7.13971C7.26971 0.75 7.37971 0.86 7.37971 0.99V9.41C7.37971 9.54 7.26971 9.65 7.13971 9.65ZM1.43971 0.8C1.32971 0.8 1.24971 0.89 1.24971 0.99V9.41C1.24971 9.52 1.33971 9.6 1.43971 9.6H7.13971C7.24971 9.6 7.32971 9.51 7.32971 9.41V0.99C7.32971 0.88 7.23971 0.8 7.13971 0.8H1.43971Z" fill="#3D3D3D"/>
<path d="M7.61969 4.15996C7.61969 4.15996 7.54969 4.14996 7.52969 4.15996C7.51969 4.15996 7.50969 4.16996 7.49969 4.17996C7.47969 4.18996 7.45969 4.19996 7.42969 4.19996C7.44969 4.19996 7.46969 4.19996 7.47969 4.19996C7.49969 4.19996 7.50969 4.17996 7.52969 4.17996C7.54969 4.17996 7.56969 4.17996 7.57969 4.18996C7.57969 4.18996 7.57969 4.20996 7.59969 4.18996C7.59969 4.18996 7.59969 4.16996 7.59969 4.15996H7.61969Z" fill="#3D3D3D"/>
<path d="M6.24951 0.52002C6.24951 0.52002 6.30951 0.57002 6.30951 0.62002C6.30951 0.67002 6.28951 0.71002 6.28951 0.76002C6.31951 0.69002 6.34951 0.63002 6.34951 0.55002C6.36951 0.55002 6.38951 0.54002 6.41951 0.54002C6.36951 0.54002 6.32951 0.52002 6.24951 0.52002Z" fill="#3D3D3D"/>
<path d="M6.55957 0.540039C6.55957 0.540039 6.55957 0.620039 6.55957 0.650039C6.56957 0.640039 6.58957 0.580039 6.58957 0.560039C6.58957 0.550039 6.57957 0.540039 6.55957 0.540039Z" fill="#3D3D3D"/>
<path d="M3.30957 0.530029C3.30957 0.530029 3.36957 0.560029 3.37957 0.580029C3.38957 0.600029 3.37957 0.630029 3.39957 0.650029C3.40957 0.680029 3.44957 0.670029 3.47957 0.680029C3.50957 0.680029 3.52957 0.700029 3.55957 0.710029C3.55957 0.690029 3.53957 0.680029 3.51957 0.670029C3.50957 0.670029 3.49957 0.670029 3.48957 0.670029H3.44957C3.44957 0.670029 3.42957 0.610029 3.42957 0.600029C3.42957 0.580029 3.44957 0.570029 3.46957 0.560029C3.45957 0.540029 3.35957 0.560029 3.32957 0.560029L3.30957 0.530029Z" fill="#3D3D3D"/>
<path d="M3.66992 0.540039C3.66992 0.540039 3.67992 0.580039 3.68992 0.600039C3.68992 0.620039 3.68992 0.630039 3.70992 0.640039C3.70992 0.620039 3.70992 0.590039 3.70992 0.560039C3.70992 0.540039 3.70992 0.540039 3.67992 0.540039H3.66992Z" fill="#3D3D3D"/>
<path d="M0.969776 0.989961C0.969776 0.989961 1.02978 0.989961 1.06978 0.999961C1.08978 0.999961 1.06978 0.999961 1.09978 0.999961C1.11978 0.999961 1.12978 0.999961 1.14978 0.999961C1.12978 0.999961 1.10978 0.999961 1.07978 0.999961C1.03978 0.999961 1.04978 0.999961 1.02978 0.979961C1.01978 0.979961 0.999776 0.979961 0.979776 0.979961C0.969776 0.979961 0.979776 0.969961 0.969776 0.959961C0.959776 0.959961 0.969776 0.989961 0.969776 0.999961V0.989961Z" fill="#3D3D3D"/>
<path d="M0.969776 9.15988C0.969776 9.15988 1.02978 9.15988 1.06978 9.16988C1.08978 9.16988 1.06978 9.16988 1.09978 9.16988C1.11978 9.16988 1.12978 9.16988 1.14978 9.16988C1.12978 9.16988 1.10978 9.16988 1.07978 9.16988C1.03978 9.16988 1.04978 9.16988 1.02978 9.14988C1.01978 9.14988 0.999776 9.14988 0.979776 9.14988C0.969776 9.14988 0.979776 9.13988 0.969776 9.12988C0.959776 9.12988 0.969776 9.15988 0.969776 9.16988V9.15988Z" fill="#3D3D3D"/>
<path d="M0.979874 0.750051H1.05987C1.06987 0.730051 1.00987 0.740051 1.00987 0.720051C1.00987 0.710051 1.02987 0.690051 1.01987 0.680051C1.01987 0.650051 0.959874 0.710051 0.969874 0.740051H0.979874V0.750051Z" fill="#3D3D3D"/>
<path d="M4.84959 0.530029C4.84959 0.530029 4.84959 0.530029 4.85959 0.550029C4.85959 0.550029 4.85959 0.570029 4.85959 0.580029C4.85959 0.600029 4.85959 0.620029 4.85959 0.640029C4.85959 0.630029 4.85959 0.620029 4.85959 0.600029C4.85959 0.590029 4.85959 0.580029 4.86959 0.570029C4.86959 0.560029 4.86959 0.560029 4.86959 0.540029C4.86959 0.540029 4.86959 0.540029 4.84959 0.540029C4.84959 0.540029 4.83959 0.540029 4.82959 0.540029L4.84959 0.530029Z" fill="#3D3D3D"/>
<path d="M5.09961 9.86988C5.09961 9.86988 5.15961 9.81988 5.15961 9.76988C5.15961 9.71988 5.13961 9.67988 5.13961 9.62988C5.16961 9.69988 5.19961 9.75988 5.19961 9.83988C5.21961 9.83988 5.23961 9.84988 5.26961 9.84988C5.21961 9.84988 5.17961 9.86988 5.09961 9.86988Z" fill="#3D3D3D"/>
<path d="M0.949707 8.62988C0.949707 8.62988 0.999707 8.68988 1.04971 8.68988C1.09971 8.68988 1.13971 8.66988 1.18971 8.66988C1.11971 8.69988 1.04971 8.72988 0.979707 8.72988C0.979707 8.74988 0.969707 8.76988 0.969707 8.79988C0.969707 8.74988 0.949707 8.70988 0.949707 8.62988Z" fill="#3D3D3D"/>
<path d="M5.40967 9.84999C5.40967 9.84999 5.40967 9.76999 5.40967 9.73999C5.41967 9.74999 5.43967 9.80999 5.43967 9.82999C5.43967 9.83999 5.42967 9.84999 5.40967 9.84999Z" fill="#3D3D3D"/>
<path d="M2.15967 9.84992C2.15967 9.84992 2.21967 9.81992 2.22967 9.79992C2.23967 9.77992 2.22967 9.74992 2.24967 9.72992C2.25967 9.69992 2.29967 9.70992 2.32967 9.69992C2.35967 9.69992 2.37967 9.67992 2.40967 9.66992C2.40967 9.68992 2.38967 9.69992 2.36967 9.70992C2.35967 9.70992 2.34967 9.70992 2.33967 9.70992H2.29967C2.29967 9.70992 2.27967 9.76992 2.27967 9.77992C2.27967 9.79992 2.29967 9.80992 2.31967 9.81992C2.30967 9.83992 2.20967 9.81992 2.17967 9.81992L2.15967 9.84992Z" fill="#3D3D3D"/>
<path d="M2.51953 9.85C2.51953 9.85 2.52953 9.81 2.53953 9.79C2.53953 9.77 2.53953 9.76 2.55953 9.75C2.55953 9.77 2.55953 9.8 2.55953 9.83C2.55953 9.85 2.55953 9.85 2.52953 9.85H2.51953Z" fill="#3D3D3D"/>
<path d="M3.69969 9.84999C3.69969 9.84999 3.69969 9.84999 3.70969 9.82999C3.70969 9.82999 3.70969 9.80999 3.70969 9.79999C3.70969 9.77999 3.70969 9.75999 3.70969 9.73999C3.70969 9.74999 3.70969 9.75999 3.70969 9.77999C3.70969 9.78999 3.70969 9.79999 3.71969 9.80999C3.71969 9.81999 3.71969 9.81999 3.71969 9.83999C3.71969 9.83999 3.71969 9.83999 3.69969 9.83999C3.69969 9.83999 3.68969 9.83999 3.67969 9.83999L3.69969 9.84999Z" fill="#3D3D3D"/>
<path d="M7.6198 2.12988C7.5498 2.12988 7.4698 2.12988 7.3998 2.12988C7.3598 2.12988 7.3598 2.12988 7.3398 2.15988C7.2998 2.20988 7.2298 2.20988 7.1698 2.21988C7.1298 2.22988 7.0898 2.23988 7.0498 2.23988C7.0798 2.26988 7.1798 2.23988 7.2198 2.22988C7.2498 2.22988 7.2898 2.20988 7.3198 2.19988C7.3598 2.16988 7.3698 2.15988 7.4198 2.15988C7.4598 2.15988 7.4898 2.15988 7.5398 2.15988C7.5498 2.15988 7.5698 2.15988 7.5898 2.15988C7.6098 2.15988 7.6098 2.16988 7.6298 2.17988C7.6298 2.16988 7.6298 2.15988 7.6298 2.13988L7.6198 2.12988Z" fill="#3D3D3D"/>
<path d="M7.61971 7.33008C7.54971 7.33008 7.46971 7.33008 7.39971 7.33008C7.35971 7.33008 7.34971 7.36008 7.31971 7.38008C7.28971 7.40008 7.23971 7.41008 7.19971 7.41008C7.23971 7.41008 7.27971 7.41008 7.31971 7.40008C7.35971 7.37008 7.36971 7.36008 7.41971 7.36008C7.48971 7.35008 7.53971 7.36008 7.57971 7.43008C7.59971 7.47008 7.60971 7.48008 7.60971 7.52008C7.60971 7.49008 7.61971 7.46008 7.62971 7.43008C7.62971 7.40008 7.62971 7.37008 7.62971 7.34008L7.61971 7.33008Z" fill="#3D3D3D"/>
<path d="M7.60947 2.37988C7.60947 2.37988 7.49947 2.37988 7.45947 2.38988C7.48947 2.38988 7.50947 2.38988 7.53947 2.38988C7.54947 2.38988 7.55947 2.39988 7.57947 2.40988C7.60947 2.40988 7.62947 2.40988 7.61947 2.37988H7.60947Z" fill="#3D3D3D"/>
<path d="M7.60971 1.93993C7.60971 1.93993 7.47971 2.01993 7.44971 2.00993C7.47971 1.97993 7.51971 1.97993 7.54971 1.95993C7.56971 1.94993 7.58971 1.92993 7.61971 1.92993H7.60971V1.93993Z" fill="#3D3D3D"/>
<path d="M0.949707 3.14989C0.949707 3.14989 0.989707 3.17989 1.00971 3.18989C1.02971 3.19989 1.07971 3.19989 1.09971 3.19989C1.18971 3.19989 1.24971 3.17989 1.32971 3.15989C1.26971 3.20989 1.20971 3.21989 1.13971 3.21989C1.07971 3.21989 0.979707 3.21989 0.949707 3.13989V3.14989Z" fill="#3D3D3D"/>
<path d="M0.969531 3.01998C0.969531 2.93998 1.09953 2.94998 1.15953 2.92998C1.11953 2.91998 1.04953 2.92998 1.00953 2.92998C0.929531 2.92998 0.959531 2.95998 0.979531 3.00998L0.969531 3.01998Z" fill="#3D3D3D"/>
<path d="M0.979492 6.60997C0.979492 6.53997 1.08949 6.56997 1.12949 6.56997C1.16949 6.56997 1.16949 6.54997 1.18949 6.51997C1.19949 6.49997 1.21949 6.47997 1.22949 6.46997C1.18949 6.49997 1.19949 6.56997 1.15949 6.58997C1.10949 6.61997 1.02949 6.56997 0.989492 6.61997C0.989492 6.61997 0.989492 6.59997 0.989492 6.60997H0.979492Z" fill="#3D3D3D"/>
<path d="M0.979826 5.07006C0.979826 5.07006 0.979826 5.11006 0.979826 5.12006C0.979826 5.12006 1.00983 5.15006 1.00983 5.16006C1.00983 5.19006 0.969826 5.20006 0.969826 5.23006C0.969826 5.19006 0.949826 5.10006 0.969826 5.06006L0.979826 5.07006Z" fill="#3D3D3D"/>
<path d="M0.979473 5.25C0.979473 5.25 1.01947 5.27 1.03947 5.27C1.06947 5.27 1.06947 5.27 1.08947 5.29C1.12947 5.32 1.13947 5.27 1.17947 5.27C1.15947 5.29 1.13947 5.29 1.11947 5.3C1.08947 5.31 1.08947 5.3 1.06947 5.29C1.05947 5.29 1.01947 5.29 0.999473 5.29C0.979473 5.29 0.979473 5.34 0.979473 5.36C0.979473 5.39 1.00947 5.39 1.02947 5.4C1.01947 5.4 0.989473 5.4 0.989473 5.4C0.989473 5.4 0.989473 5.4 0.969473 5.4C0.969473 5.4 0.959473 5.37 0.959473 5.36C0.959473 5.32 0.959473 5.29 0.979473 5.26V5.25Z" fill="#3D3D3D"/>
<path d="M0.969727 6.46991C0.969727 6.46991 1.04973 6.46991 1.07973 6.42991C1.06973 6.42991 1.04973 6.42991 1.03973 6.42991C1.00973 6.42991 0.989727 6.41991 0.969727 6.40991C0.969727 6.42991 0.969727 6.44991 0.969727 6.45991H0.979727C0.979727 6.45991 0.979727 6.46991 0.979727 6.47991L0.969727 6.46991Z" fill="#3D3D3D"/>
<path d="M1.75977 2.68994C1.75977 2.68994 1.75977 2.68994 1.75977 2.69994C1.75977 2.69994 1.75977 2.69994 1.76977 2.68994H1.75977Z" fill="white"/>
<path d="M1.68982 1.1001H2.15982V1.2101H2.11982C2.11982 1.2101 2.09982 1.2101 2.09982 1.2301C2.11982 1.3601 2.13982 1.4301 2.13982 1.4401C2.13982 1.4601 2.15982 1.4801 2.16982 1.4901C2.16982 1.4901 2.17982 1.5001 2.19982 1.5101C2.20982 1.5101 2.21982 1.5101 2.22982 1.5101C2.22982 1.5101 2.20982 1.5201 2.19982 1.5301C2.18982 1.5501 2.17982 1.5601 2.17982 1.5801C2.17982 1.5801 2.17982 1.6001 2.17982 1.6201C2.19982 1.7401 2.20982 1.8101 2.21982 1.8301C2.21982 1.8501 2.21982 1.8601 2.22982 1.8601C2.22982 1.8601 2.24982 1.8601 2.25982 1.8601H2.26982V1.9601H1.95982V1.8601H1.96982C1.96982 1.8601 1.99982 1.8601 2.00982 1.8601C2.00982 1.8601 2.00982 1.8601 2.00982 1.8401C2.00982 1.8201 2.00982 1.8001 1.99982 1.7601H1.80982L1.79982 1.8201C1.79982 1.8201 1.79982 1.8601 1.81982 1.8601C1.81982 1.8601 1.81982 1.8601 1.83982 1.8601V1.9601H1.56982V1.8601H1.57982C1.57982 1.8601 1.60982 1.8601 1.61982 1.8401C1.61982 1.8201 1.63982 1.7801 1.64982 1.7101L1.66982 1.6001C1.66982 1.6001 1.66982 1.5501 1.64982 1.5301C1.64982 1.5301 1.63982 1.5201 1.62982 1.5101C1.62982 1.5101 1.62982 1.5101 1.63982 1.5101C1.65982 1.5101 1.66982 1.5001 1.67982 1.4901C1.68982 1.4801 1.69982 1.4601 1.71982 1.4201C1.73982 1.3001 1.75982 1.2401 1.75982 1.2301C1.75982 1.2101 1.75982 1.2101 1.73982 1.2101H1.69982V1.1001H1.68982ZM1.89982 1.2901C1.86982 1.4501 1.84982 1.5501 1.83982 1.5801C1.85982 1.5801 1.87982 1.5801 1.88982 1.5801H1.95982L1.90982 1.2901H1.89982Z" fill="#3D3D3D"/>
<path d="M6.86955 9.26991H6.39955V9.15991H6.43955C6.43955 9.15991 6.45955 9.15991 6.45955 9.13991C6.43955 9.00991 6.41955 8.93991 6.41955 8.92991C6.41955 8.90991 6.39955 8.88991 6.38955 8.87991C6.38955 8.87991 6.37955 8.86991 6.35955 8.85991C6.34955 8.85991 6.33955 8.85991 6.32955 8.85991C6.32955 8.85991 6.34955 8.84991 6.35955 8.83991C6.36955 8.81991 6.37955 8.80991 6.37955 8.78991C6.37955 8.78991 6.37955 8.76991 6.37955 8.74991C6.35955 8.62991 6.34955 8.55991 6.33955 8.53991C6.33955 8.51991 6.33955 8.50991 6.32955 8.50991C6.32955 8.50991 6.30955 8.50991 6.29955 8.50991H6.28955V8.40991H6.59955V8.50991H6.58955C6.58955 8.50991 6.55955 8.50991 6.54955 8.50991C6.54955 8.50991 6.54955 8.51991 6.54955 8.52991C6.54955 8.54991 6.54955 8.56991 6.55955 8.60991H6.74955L6.75955 8.54991C6.75955 8.54991 6.75955 8.50991 6.73955 8.50991C6.73955 8.50991 6.73955 8.50991 6.71955 8.50991V8.40991H6.98955V8.50991H6.97955C6.97955 8.50991 6.94955 8.50991 6.93955 8.52991C6.93955 8.54991 6.91955 8.58991 6.90955 8.65991L6.88955 8.76991C6.88955 8.76991 6.88955 8.81991 6.90955 8.83991C6.90955 8.83991 6.91955 8.84991 6.92955 8.85991C6.92955 8.85991 6.92955 8.85991 6.91955 8.85991C6.89955 8.85991 6.88955 8.86991 6.87955 8.87991C6.86955 8.88991 6.85955 8.90991 6.83955 8.94991C6.81955 9.06991 6.79955 9.12991 6.79955 9.13991C6.79955 9.15991 6.79955 9.15991 6.81955 9.15991H6.85955V9.26991H6.86955ZM6.65955 9.07991C6.68955 8.91991 6.70955 8.81991 6.71955 8.78991C6.69955 8.78991 6.67955 8.78991 6.66955 8.78991H6.59955L6.64955 9.07991H6.65955Z" fill="#3D3D3D"/>
<path d="M6.54979 4.73012L5.92979 4.28012L5.90979 4.26012L5.31979 3.99012L4.66979 3.87012H3.91979L3.28979 3.98012H3.27979L2.69979 4.24012L2.63979 4.27012L2.05979 4.70012L2.02979 4.74012V4.78012V4.82012H2.03979L4.21979 7.48012L4.22978 7.50012L4.24978 7.52012H4.33979L4.37979 7.48012L6.54979 4.84012L6.59979 4.78012V4.75012L6.57979 4.73012H6.56979H6.54979ZM5.85979 4.39012L5.77979 4.46012L5.91979 4.43012H5.92979L5.86979 4.50012L5.98979 4.48012H6.00979L5.95979 4.54012H6.05979H6.07979L6.04979 4.58012H6.12979L6.14979 4.60012V4.62012H6.19979L6.23979 4.65012L5.69979 4.45012L5.85979 4.38012V4.39012ZM2.83979 4.32012V4.34012L2.85979 4.31012L2.89979 4.29012L2.91979 4.36012L2.93979 4.27012H2.96979L2.98979 4.38012L3.00979 4.24012H3.02979L3.05979 4.40012L3.07979 4.21012H3.09979L3.12979 4.42012L3.14979 4.18012H3.16979L3.19979 4.45012L3.21979 4.15012H3.23979L3.26979 4.47012L3.28979 4.12012H3.30979L3.33979 4.49012V4.10012L3.94979 4.00012V4.02012L3.41979 4.16012L3.95979 4.08012V4.11012L3.51979 4.22012L3.95979 4.16012V4.19012L3.61979 4.28012L3.95979 4.24012V4.27012L3.71979 4.34012L3.95979 4.32012V4.35012L3.81979 4.40012H3.96979V4.44012L3.91979 4.47012L3.96979 4.50012V4.60012L3.98979 4.03012H4.04979L4.06979 4.52012L4.08979 4.03012H4.14979L4.16979 4.43012L4.18979 4.03012H4.24978L4.26978 4.34012L4.28978 4.03012H4.34979L4.36979 4.24012L4.38979 4.03012H4.45978V4.15012L4.48979 4.03012H4.55979V4.05012L4.57979 4.03012H4.63979L3.98979 4.66012L4.70978 4.00012H4.73979L4.15979 4.58012L4.79979 4.01012H4.82979L4.32979 4.52012L4.89979 4.02012H4.92979L4.49978 4.46012L4.98979 4.04012H5.01979L4.66979 4.40012L5.08979 4.05012H5.11979L4.83979 4.34012L5.17979 4.07012H5.20979L5.00979 4.29012L5.26979 4.09012H5.28979L5.16979 4.23012L5.31979 4.14012L4.85979 4.61012L5.32979 4.24012L4.98979 4.60012L5.33979 4.34012L5.11979 4.59012L5.33979 4.44012L5.24979 4.58012L5.35979 4.53012L5.37979 4.23012V4.14012L5.40979 4.51012L5.42979 4.16012L5.45979 4.49012L5.47979 4.19012L5.50979 4.47012L5.52979 4.21012L5.54979 4.44012L5.56979 4.23012L5.58979 4.42012L5.60979 4.26012H5.61979L5.63979 4.40012L5.65979 4.28012H5.67979L5.69979 4.38012L5.71979 4.31012H5.74979L5.75979 4.36012V4.33012L5.79979 4.34012L5.60979 4.43012L5.29979 4.58012L4.67979 4.69012H3.94979L3.32979 4.58012L2.82979 4.35012L2.86979 4.33012L2.83979 4.32012ZM5.43979 5.34012L5.39979 5.38012L5.34979 5.25012V5.41012L5.31979 5.45012L5.25979 5.26012L5.28979 5.48012L5.24979 5.52012L5.16979 5.27012L5.20979 5.56012L5.16979 5.60012L5.07979 5.29012L5.12979 5.64012L5.08979 5.68012L4.97979 5.31012L5.04979 5.72012L5.01979 5.76012L4.89979 5.33012L4.97979 5.80012L4.95979 5.82012L4.83979 5.32012L5.56979 5.19012L5.53979 5.22012H5.52979V5.24012L5.47979 5.29012L5.44979 5.22012V5.32012L5.43979 5.34012ZM3.52979 5.76012L3.47979 5.71012H3.61979L3.42979 5.66012L3.38979 5.62012L3.63979 5.64012L3.32979 5.57012L3.28979 5.53012L3.65979 5.56012L3.23979 5.47012L3.19979 5.43012L3.67979 5.48012L3.14979 5.37012L3.10979 5.33012L3.69979 5.40012L3.04979 5.27012L2.99979 5.22012L3.72979 5.35012L3.60979 5.85012L3.56979 5.81012H3.60979L3.53979 5.78012L3.52979 5.76012ZM3.24979 4.72012L3.40979 4.71012L3.28979 4.66012L3.47979 4.68012L3.02979 5.00012L3.06979 4.95012L3.09979 4.93012H3.08979L3.10979 4.89012L3.17979 4.87012L3.13979 4.84012L3.23979 4.81012L3.17979 4.77012L3.30979 4.75012L3.21979 4.71012L3.24979 4.72012ZM3.63979 5.25012H3.61979L3.45979 4.83012L3.56979 5.24012H3.54979L3.39979 4.87012L3.48979 5.23012H3.46979L3.33979 4.91012L3.40979 5.21012H3.38979L3.27979 4.94012L3.33979 5.19012H3.30979L3.21979 4.98012L3.25979 5.18012H3.22979L3.14979 5.02012L3.17979 5.17012H3.14979L3.08979 5.06012V5.16012H3.05979L3.02979 5.11012L3.55979 4.73012L3.70979 5.28012H3.68979L3.50979 4.81012L3.62979 5.27012L3.63979 5.25012ZM2.94979 5.01012L3.02979 4.53012L3.22979 4.62012L2.94979 5.01012ZM3.02979 5.10012V5.14012H2.97979L3.02979 5.11012V5.10012ZM3.63979 4.70012L3.86979 4.74012L3.76979 5.16012L3.63979 4.70012ZM3.84979 5.11012L3.87979 5.09012L3.85979 5.06012V5.04012L3.93979 5.02012L3.87979 4.99012V4.97012L3.99979 4.94012L3.89979 4.91012L4.05979 4.87012L3.91979 4.83012L4.11979 4.79012L3.92979 4.76012H4.18979L3.82979 5.17012L3.84979 5.10012V5.11012ZM4.27979 4.76012L4.30979 4.80012L4.25979 4.82012L4.34979 4.85012L4.36979 4.87012L4.18979 4.90012L4.41979 4.94012V4.96012L4.11979 4.99012L4.48979 5.03012H4.49978L4.04979 5.07012L4.55979 5.11012H4.56979L3.97979 5.15012L4.61979 5.19012H4.62979L3.90979 5.23012L4.68979 5.26012H3.81979L4.25979 4.76012H4.27979ZM4.35979 4.77012H4.61979L4.42979 4.80012L4.62979 4.83012L4.47978 4.87012L4.63979 4.90012L4.53978 4.95012L4.65979 4.98012L4.59979 5.03012L4.67979 5.05012V5.07012L4.65979 5.10012L4.69979 5.12012L4.71979 5.19012L4.35979 4.78012V4.77012ZM4.69979 4.74012L4.94979 4.70012L4.80979 5.17012L4.69979 4.74012ZM5.52979 5.14012V5.09012L5.49979 5.14012H5.45979L5.46979 5.05012L5.40979 5.15012H5.37979L5.40979 5.01012L5.32979 5.17012H5.29979L5.33979 4.97012L5.24979 5.18012H5.21979L5.27979 4.93012L5.16979 5.19012H5.14979L5.21979 4.89012L5.08979 5.20012H5.06979L5.15979 4.85012L5.00979 5.22012H4.98979L5.09979 4.82012L4.93979 5.24012H4.91979L5.03979 4.78012L4.85979 5.25012H4.84979L5.00979 4.70012L5.52979 5.08012L5.57979 5.12012H5.52979V5.14012ZM5.30979 4.72012L5.21979 4.77012H5.34979V4.79012L5.28979 4.83012L5.38979 4.85012L5.34979 4.89012L5.41979 4.91012L5.43979 4.93012H5.42979L5.45979 4.96012L5.48979 5.00012L5.06979 4.69012L5.24979 4.66012L5.12979 4.72012H5.28979H5.30979ZM5.33979 4.62012L5.56979 4.51012L5.62979 5.02012L5.33979 4.62012ZM2.36979 4.63012H2.42979L2.41979 4.60012L2.43979 4.58012H2.51979L2.48979 4.54012H2.50979H2.60979L2.56979 4.49012H2.58979H2.70979L2.64979 4.43012H2.65979L2.79979 4.45012L2.71979 4.38012L2.89979 4.46012L2.30979 4.66012L2.36979 4.62012V4.63012ZM2.21979 4.78012L2.83979 5.03012L2.28979 4.76012H2.31979L2.83979 4.96012L2.38979 4.73012H2.41979L2.84979 4.88012L2.48979 4.69012H2.52979L2.86979 4.80012L2.59979 4.65012H2.63979L2.87979 4.72012L2.69979 4.62012L2.74979 4.60012L2.88979 4.64012L2.79979 4.58012L2.86979 4.56012H2.90979H2.88979L2.95979 4.53012L2.86979 5.11012L2.19979 4.80012H2.22979L2.21979 4.78012ZM2.29979 4.92012L2.35979 4.99012V4.95012L2.39979 4.97012L2.49979 5.12012L2.47979 5.01012H2.50979L2.63979 5.25012L2.58979 5.06012H2.60979L2.77979 5.38012L2.69979 5.11012H2.71979L2.92979 5.51012L2.80979 5.16012L2.85979 5.18012L3.02979 5.68012L2.25979 4.90012L2.29979 4.92012ZM2.61979 5.37012L3.08979 5.84012L3.61979 6.58012L2.61979 5.37012ZM3.14979 5.80012L3.02979 5.46012L3.04979 5.50012L3.17979 5.84012L3.14979 5.67012V5.69012H3.15979L3.27979 5.98012L3.25979 5.85012L3.27979 5.88012L3.38979 6.13012V6.03012L3.39979 6.07012L3.48979 6.28012V6.21012L3.50979 6.26012L3.58979 6.42012V6.38012L3.62979 6.45012L3.68979 6.56012L3.13979 5.80012H3.14979ZM3.08979 5.41012L3.59979 5.93012L4.04979 6.99012L3.08979 5.41012ZM3.66979 5.91012L3.76979 5.47012V5.50012L3.69979 5.94012L3.79979 5.61012L3.81979 5.68012L3.74979 6.07012L3.83979 5.78012L3.85979 5.85012L3.79979 6.20012L3.87979 5.95012L3.89979 6.02012L3.84979 6.32012L3.91979 6.11012L3.93979 6.19012L3.89979 6.45012L3.95979 6.28012L3.97979 6.36012L3.94979 6.57012L3.99979 6.44012L4.01979 6.53012L3.99979 6.70012L4.02979 6.61012L4.04979 6.71012V6.83012L4.06979 6.78012L4.09979 6.90012V6.96012L4.10979 6.94012L4.12979 7.03012L3.64979 5.91012H3.66979ZM4.23979 7.14012L4.18979 6.94012L4.22978 6.96012L4.17979 6.89012L4.15979 6.80012L4.22978 6.85012L4.13979 6.73012L4.11979 6.65012L4.21979 6.74012L4.09979 6.58012L4.07979 6.51012L4.20978 6.64012L4.04979 6.43012L4.02979 6.37012L4.19979 6.54012L4.00979 6.28012V6.22012L4.19979 6.43012L3.97979 6.13012V6.08012L4.19979 6.33012L3.93979 5.98012V5.93012L4.19979 6.22012L3.90979 5.83012V5.78012L4.19979 6.11012L3.86979 5.67012V5.62012L4.18979 5.99012L3.82979 5.51012V5.46012L4.21979 5.98012V7.14012H4.23979ZM4.27979 5.90012L3.83979 5.33012H3.90979V5.36012L3.93979 5.33012H3.98979L3.93979 5.42012L4.02979 5.33012H4.06979L3.97979 5.48012L4.11979 5.33012H4.14979L4.01979 5.53012L4.20978 5.33012H4.23979L4.06979 5.59012L4.29979 5.33012H4.32979L4.11979 5.65012L4.39979 5.33012H4.42979L4.16979 5.71012L4.48979 5.33012H4.51978L4.21979 5.76012L4.57979 5.33012H4.60979L4.26978 5.82012L4.67979 5.33012H4.72978L4.28978 5.90012H4.27979ZM4.39979 6.81012L4.37979 6.90012L4.32979 6.97012L4.36979 6.95012L4.32979 7.15012V5.99012L4.72978 5.47012V5.52012L4.35979 6.00012L4.68979 5.63012V5.68012L4.34979 6.11012L4.64979 5.78012V5.83012L4.34979 6.22012L4.61979 5.93012V5.98012L4.34979 6.32012L4.57979 6.08012V6.14012L4.34979 6.44012L4.54979 6.24012V6.30012L4.34979 6.55012L4.50979 6.39012L4.48979 6.45012L4.33979 6.66012L4.46979 6.54012L4.44979 6.61012L4.32979 6.77012L4.42979 6.68012L4.40979 6.76012L4.32979 6.87012L4.39979 6.82012V6.81012ZM4.43979 6.94012V6.96012V6.90012L4.46979 6.78012L4.48979 6.83012V6.72012L4.50979 6.62012L4.53978 6.71012L4.51978 6.55012L4.53978 6.46012L4.58979 6.58012L4.56979 6.37012L4.58979 6.29012L4.64979 6.45012L4.61979 6.19012L4.63979 6.11012L4.70978 6.32012L4.65979 6.02012L4.67979 5.95012L4.75979 6.20012L4.69979 5.86012L4.71979 5.79012L4.80979 6.08012L4.73979 5.69012L4.75979 5.62012L4.85979 5.95012L4.77979 5.52012V5.49012L4.88979 5.93012L4.40979 7.05012L4.42979 6.96012L4.43979 6.94012ZM4.96979 5.93012L5.47979 5.41012L4.51978 6.99012L4.96979 5.93012ZM4.81979 6.64012L4.86979 6.56012L4.91979 6.47012L4.96979 6.39012V6.43012L5.03979 6.27012L5.06979 6.22012V6.29012L5.14979 6.09012L5.16979 6.05012V6.15012L5.25979 5.90012L5.27979 5.87012L5.25979 5.99012L5.37979 5.68012H5.38979L5.35979 5.85012L5.48979 5.52012L5.50979 5.48012L5.38979 5.82012L4.83979 6.59012L4.78978 6.66012L4.81979 6.64012ZM4.93979 6.59012L5.46979 5.85012L5.93979 5.38012L4.93979 6.59012ZM5.52979 5.68012L5.69979 5.18012L5.74979 5.16012L5.62979 5.51012L5.82979 5.12012H5.84979L5.76979 5.38012L5.93979 5.07012H5.95979L5.90979 5.25012L6.03979 5.02012H6.06979L6.04979 5.12012L6.14979 4.97012L6.18979 4.95012V4.99012L6.25979 4.93012L6.29979 4.91012L5.52979 5.69012V5.68012ZM5.69979 5.10012L5.62979 4.51012L5.68979 4.53012L5.65979 4.56012H5.72979H5.77979L5.66979 4.63012L5.83979 4.58012H5.87979L5.67979 4.71012L5.93979 4.62012H5.97979L5.68979 4.79012L6.03979 4.66012H6.06979L5.69979 4.87012L6.13979 4.70012H6.16979L5.70979 4.95012L6.23979 4.74012H6.26979L5.71979 5.03012L6.33979 4.78012H6.36979L5.69979 5.10012Z" fill="#3D3D3D"/>
<path d="M2.07955 2.3999C2.12955 2.2799 2.02955 2.1499 1.89955 2.1499C1.76955 2.1499 1.67955 2.2799 1.71955 2.3999C1.61955 2.3999 1.53955 2.4899 1.53955 2.5899C1.53955 2.6699 1.58955 2.7399 1.65955 2.7699C1.73955 2.7999 1.82955 2.7699 1.87955 2.6999C1.84955 2.7799 1.81955 2.8599 1.74955 2.9199C1.78955 2.8999 1.83955 2.8999 1.88955 2.8999C1.93955 2.8999 1.98955 2.8999 2.02955 2.9199C1.96955 2.8699 1.92955 2.7799 1.89955 2.6999C1.94955 2.7699 2.03955 2.7999 2.11955 2.7699C2.18955 2.7399 2.23955 2.6699 2.23955 2.5899C2.23955 2.4899 2.15955 2.4099 2.05955 2.3999H2.07955Z" fill="#3D3D3D"/>
<path d="M6.43979 7.95994C6.38979 8.07994 6.48979 8.20994 6.61979 8.20994C6.74979 8.20994 6.83979 8.07994 6.79979 7.95994C6.89979 7.95994 6.97979 7.86994 6.97979 7.76994C6.97979 7.68994 6.92979 7.61994 6.85979 7.58994C6.77979 7.55994 6.68979 7.58994 6.63979 7.65994C6.66979 7.57994 6.69979 7.49994 6.76979 7.43994C6.72979 7.45994 6.67979 7.45994 6.62979 7.45994C6.57979 7.45994 6.52979 7.45994 6.48979 7.43994C6.54979 7.48994 6.58979 7.57994 6.61979 7.65994C6.56979 7.58994 6.47979 7.55994 6.39979 7.58994C6.32979 7.61994 6.27979 7.68994 6.27979 7.76994C6.27979 7.86994 6.35979 7.94994 6.45979 7.95994H6.43979Z" fill="#3D3D3D"/>
</svg>
