<svg width="8" height="11" viewBox="0 0 8 11" fill="none" xmlns="http://www.w3.org/2000/svg">
<path d="M6.69984 10.0033H0.649845C0.479845 10.0033 0.339844 9.86333 0.339844 9.69333V0.97333C0.339844 0.80333 0.479845 0.66333 0.649845 0.66333H6.69984C6.86984 0.66333 7.00985 0.80333 7.00985 0.97333V9.69333C7.00985 9.86333 6.86984 10.0033 6.69984 10.0033ZM0.649845 0.67333C0.489845 0.67333 0.359844 0.80333 0.359844 0.96333V9.68333C0.359844 9.84333 0.489845 9.97333 0.649845 9.97333H6.69984C6.85984 9.97333 6.98985 9.84333 6.98985 9.68333V0.97333C6.98985 0.81333 6.85984 0.68333 6.69984 0.68333H0.649845V0.67333Z" fill="#3D3D3D"/>
<path d="M6.70006 10.0233H0.650059C0.460059 10.0233 0.310059 9.8733 0.310059 9.6833V0.973301C0.310059 0.783301 0.460059 0.633301 0.650059 0.633301H6.70006C6.89006 0.633301 7.04006 0.783301 7.04006 0.973301V9.6933C7.04006 9.8833 6.89006 10.0333 6.70006 10.0333V10.0233ZM0.650059 0.703301C0.500059 0.703301 0.390057 0.823301 0.390057 0.963301V9.6833C0.390057 9.8333 0.510059 9.9433 0.650059 9.9433H6.70006C6.85006 9.9433 6.96006 9.8233 6.96006 9.6833V0.973301C6.96006 0.823301 6.84006 0.713301 6.70006 0.713301H0.650059V0.703301Z" fill="#3D3D3D"/>
<path d="M6.52008 9.7833H0.820076C0.690076 9.7833 0.580078 9.6733 0.580078 9.5433V1.1233C0.580078 0.983301 0.690076 0.883301 0.820076 0.883301H6.52008C6.65008 0.883301 6.76008 0.993301 6.76008 1.1233V9.5433C6.76008 9.6733 6.65008 9.7833 6.52008 9.7833ZM0.820076 0.933301C0.710076 0.933301 0.630077 1.0233 0.630077 1.1233V9.5433C0.630077 9.6533 0.720076 9.7333 0.820076 9.7333H6.52008C6.63008 9.7333 6.71008 9.6433 6.71008 9.5433V1.1233C6.71008 1.0133 6.62008 0.933301 6.52008 0.933301H0.820076Z" fill="#3D3D3D"/>
<path d="M7.00006 4.29326C7.00006 4.29326 6.93006 4.28326 6.91006 4.29326C6.90006 4.29326 6.89006 4.31326 6.88006 4.31326C6.86006 4.32326 6.84006 4.33326 6.81006 4.33326C6.83006 4.33326 6.85006 4.33326 6.86006 4.33326C6.88006 4.33326 6.89006 4.31326 6.91006 4.31326C6.93006 4.31326 6.95006 4.31326 6.96006 4.32326C6.96006 4.32326 6.96006 4.34326 6.98006 4.32326C6.98006 4.32326 6.98006 4.30326 6.98006 4.29326H7.00006Z" fill="#3D3D3D"/>
<path d="M5.62988 0.65332C5.62988 0.65332 5.68988 0.70332 5.68988 0.75332C5.68988 0.80332 5.66988 0.84332 5.66988 0.89332C5.69988 0.82332 5.72988 0.76332 5.72988 0.68332C5.74988 0.68332 5.76988 0.67332 5.79988 0.67332C5.74988 0.67332 5.70988 0.65332 5.62988 0.65332Z" fill="#3D3D3D"/>
<path d="M5.93994 0.67334C5.93994 0.67334 5.93994 0.75334 5.93994 0.78334C5.94994 0.77334 5.96994 0.71334 5.96994 0.69334C5.96994 0.68334 5.95994 0.67334 5.93994 0.67334Z" fill="#3D3D3D"/>
<path d="M2.68994 0.66333C2.68994 0.66333 2.74994 0.69333 2.75994 0.71333C2.76994 0.73333 2.75994 0.76333 2.77994 0.78333C2.78994 0.81333 2.82994 0.80333 2.85994 0.81333C2.88994 0.81333 2.90994 0.83333 2.93994 0.84333C2.93994 0.82333 2.91994 0.81333 2.89994 0.80333C2.88994 0.80333 2.87994 0.80333 2.86994 0.80333H2.82994C2.82994 0.80333 2.80994 0.74333 2.80994 0.73333C2.80994 0.71333 2.82995 0.70333 2.84995 0.69333C2.83995 0.67333 2.73994 0.69333 2.70994 0.69333L2.68994 0.66333Z" fill="#3D3D3D"/>
<path d="M3.05029 0.67334C3.05029 0.67334 3.06029 0.71334 3.07029 0.73334C3.07029 0.75334 3.07029 0.76334 3.09029 0.77334C3.09029 0.75334 3.09029 0.72334 3.09029 0.69334C3.09029 0.67334 3.0903 0.67334 3.0603 0.67334H3.05029Z" fill="#3D3D3D"/>
<path d="M0.350148 1.12326C0.350148 1.12326 0.410146 1.12326 0.450146 1.13326C0.470146 1.13326 0.450145 1.13326 0.480145 1.13326C0.500145 1.13326 0.510144 1.13326 0.530144 1.13326C0.510144 1.13326 0.490144 1.13326 0.460144 1.13326C0.420144 1.13326 0.430145 1.13326 0.410145 1.11326C0.400145 1.11326 0.380146 1.11326 0.360146 1.11326C0.350146 1.11326 0.360148 1.10326 0.350148 1.09326C0.340148 1.09326 0.350148 1.12326 0.350148 1.13326V1.12326Z" fill="#3D3D3D"/>
<path d="M0.350148 9.29318C0.350148 9.29318 0.410146 9.29318 0.450146 9.30318C0.470146 9.30318 0.450145 9.30318 0.480145 9.30318C0.500145 9.30318 0.510144 9.30318 0.530144 9.30318C0.510144 9.30318 0.490144 9.30318 0.460144 9.30318C0.420144 9.30318 0.430145 9.30318 0.410145 9.28318C0.400145 9.28318 0.380146 9.28318 0.360146 9.28318C0.350146 9.28318 0.360148 9.27318 0.350148 9.26318C0.340148 9.26318 0.350148 9.29318 0.350148 9.30318V9.29318Z" fill="#3D3D3D"/>
<path d="M0.360096 0.883352H0.440094C0.450094 0.863352 0.390095 0.873352 0.390095 0.853352C0.390095 0.843352 0.410097 0.823352 0.400097 0.813352C0.400097 0.783352 0.350098 0.843352 0.350098 0.873352L0.360096 0.883352Z" fill="#3D3D3D"/>
<path d="M4.22996 0.66333C4.22996 0.66333 4.22996 0.66333 4.23996 0.68333C4.23996 0.68333 4.23996 0.70333 4.23996 0.71333C4.23996 0.73333 4.23996 0.75333 4.23996 0.77333C4.23996 0.76333 4.23996 0.75333 4.23996 0.73333C4.23996 0.72333 4.23996 0.71333 4.24996 0.70333C4.24996 0.69333 4.24996 0.69333 4.24996 0.67333C4.24996 0.67333 4.24996 0.67333 4.22996 0.67333C4.22996 0.67333 4.21996 0.67333 4.20996 0.67333L4.22996 0.66333Z" fill="#3D3D3D"/>
<path d="M4.47998 10.0032C4.47998 10.0032 4.53998 9.95318 4.53998 9.90318C4.53998 9.85318 4.51998 9.81318 4.51998 9.76318C4.54998 9.83318 4.57998 9.89318 4.57998 9.97318C4.59998 9.97318 4.61998 9.98318 4.64998 9.98318C4.59998 9.98318 4.55998 10.0032 4.47998 10.0032Z" fill="#3D3D3D"/>
<path d="M0.330078 8.76318C0.330078 8.76318 0.380075 8.82318 0.440075 8.82318C0.490075 8.82318 0.530078 8.80318 0.580078 8.80318C0.510078 8.83318 0.440075 8.86318 0.370075 8.86318C0.370075 8.88318 0.360077 8.90318 0.360077 8.93318C0.360077 8.88318 0.340076 8.84318 0.340076 8.76318H0.330078Z" fill="#3D3D3D"/>
<path d="M4.79004 9.98329C4.79004 9.98329 4.79004 9.90329 4.79004 9.87329C4.80004 9.88329 4.82004 9.94329 4.82004 9.96329C4.82004 9.97329 4.81004 9.98329 4.79004 9.98329Z" fill="#3D3D3D"/>
<path d="M1.54004 9.98322C1.54004 9.98322 1.60004 9.95322 1.61004 9.93322C1.62004 9.91322 1.61004 9.88322 1.63004 9.86322C1.64004 9.83322 1.68004 9.84322 1.71004 9.83322C1.74004 9.83322 1.76004 9.81322 1.79004 9.80322C1.79004 9.82322 1.77004 9.83322 1.75004 9.84322C1.74004 9.84322 1.73004 9.84322 1.72004 9.84322H1.68004C1.68004 9.84322 1.66004 9.90322 1.66004 9.91322C1.66004 9.93322 1.68004 9.94322 1.70004 9.95322C1.69004 9.97322 1.59004 9.95322 1.56004 9.95322L1.54004 9.98322Z" fill="#3D3D3D"/>
<path d="M1.8999 9.9833C1.8999 9.9833 1.9099 9.9433 1.9199 9.9233C1.9199 9.9033 1.9199 9.8933 1.9399 9.8833C1.9399 9.9033 1.9399 9.9333 1.9399 9.9633C1.9399 9.9833 1.9399 9.9833 1.9099 9.9833H1.8999Z" fill="#3D3D3D"/>
<path d="M3.08006 9.98329C3.08006 9.98329 3.08006 9.98329 3.09006 9.96329C3.09006 9.96329 3.09006 9.94329 3.09006 9.93329C3.09006 9.91329 3.09006 9.89329 3.09006 9.87329C3.09006 9.88329 3.09006 9.89329 3.09006 9.91329C3.09006 9.92329 3.09006 9.93329 3.10006 9.94329C3.10006 9.95329 3.10006 9.95329 3.10006 9.97329C3.10006 9.97329 3.10006 9.97329 3.08006 9.97329C3.08006 9.97329 3.07006 9.97329 3.06006 9.97329L3.08006 9.98329Z" fill="#3D3D3D"/>
<path d="M7.00018 2.26318C6.93018 2.26318 6.85017 2.26318 6.78017 2.26318C6.74017 2.26318 6.74018 2.26318 6.72018 2.29318C6.68018 2.34318 6.61017 2.34318 6.55017 2.35318C6.51017 2.36318 6.47018 2.37318 6.43018 2.37318C6.46018 2.40318 6.56018 2.37318 6.60018 2.36318C6.63018 2.36318 6.67018 2.34318 6.70018 2.32318C6.74018 2.29318 6.75017 2.28318 6.80017 2.28318C6.84017 2.28318 6.87018 2.28318 6.92018 2.28318C6.93018 2.28318 6.95018 2.28318 6.97018 2.28318C6.99018 2.28318 6.99018 2.29318 7.01018 2.30318C7.01018 2.29318 7.01018 2.28318 7.01018 2.26318H7.00018Z" fill="#3D3D3D"/>
<path d="M6.98983 7.46338C6.91983 7.46338 6.83982 7.46338 6.76982 7.46338C6.72982 7.46338 6.71982 7.49338 6.68982 7.51338C6.65982 7.53338 6.60982 7.54338 6.56982 7.54338C6.60982 7.54338 6.64982 7.54338 6.68982 7.53338C6.72982 7.50338 6.73983 7.49338 6.78983 7.49338C6.85983 7.48338 6.90983 7.49338 6.94983 7.56338C6.96983 7.60338 6.97982 7.61338 6.97982 7.65338C6.97982 7.62338 6.98982 7.59338 6.99982 7.56338C6.99982 7.53338 6.99982 7.50338 6.99982 7.47338L6.98983 7.46338Z" fill="#3D3D3D"/>
<path d="M6.98985 2.51318C6.98985 2.51318 6.87984 2.51318 6.83984 2.52318C6.86984 2.52318 6.88985 2.52318 6.91985 2.52318C6.92985 2.52318 6.93984 2.53318 6.95984 2.54318C6.98984 2.54318 7.00984 2.54318 6.99984 2.51318H6.98985Z" fill="#3D3D3D"/>
<path d="M6.99008 2.07323C6.99008 2.07323 6.86008 2.15323 6.83008 2.14323C6.86008 2.11323 6.90008 2.11323 6.93008 2.09323C6.95008 2.08323 6.97008 2.06323 7.00008 2.06323H6.99008V2.07323Z" fill="#3D3D3D"/>
<path d="M0.330078 3.28319C0.330078 3.28319 0.370076 3.31319 0.390076 3.32319C0.410076 3.33319 0.460076 3.33319 0.480076 3.33319C0.570076 3.33319 0.630075 3.31319 0.710075 3.29319C0.650075 3.34319 0.590077 3.35319 0.520077 3.35319C0.460077 3.35319 0.360078 3.35319 0.330078 3.27319V3.28319Z" fill="#3D3D3D"/>
<path d="M0.349905 3.15328C0.349905 3.07328 0.479903 3.08328 0.539903 3.06328C0.499903 3.05328 0.429902 3.06328 0.389902 3.06328C0.309902 3.06328 0.339903 3.09328 0.359903 3.14328L0.349905 3.15328Z" fill="#3D3D3D"/>
<path d="M0.359863 6.74327C0.359863 6.67327 0.469865 6.70327 0.509865 6.70327C0.549865 6.70327 0.549862 6.68327 0.569862 6.65327C0.579862 6.63327 0.599863 6.61327 0.609863 6.60327C0.569863 6.63327 0.579864 6.70327 0.539864 6.72327C0.489864 6.75327 0.409862 6.70327 0.369862 6.75327C0.369862 6.75327 0.369862 6.73327 0.369862 6.74327H0.359863Z" fill="#3D3D3D"/>
<path d="M0.349946 5.20336C0.349946 5.20336 0.349946 5.24336 0.349946 5.25336C0.349946 5.25336 0.379944 5.28336 0.379944 5.29336C0.379944 5.32336 0.339944 5.33336 0.339944 5.36336C0.339944 5.32336 0.319944 5.23336 0.339944 5.19336L0.349946 5.20336Z" fill="#3D3D3D"/>
<path d="M0.359844 5.3833C0.359844 5.3833 0.399846 5.4033 0.419846 5.4033C0.449846 5.4033 0.449845 5.4033 0.469845 5.4233C0.509845 5.4533 0.519845 5.4033 0.559845 5.4033C0.539845 5.4233 0.519844 5.4233 0.499844 5.4333C0.469844 5.4433 0.469844 5.4333 0.449844 5.4233C0.439844 5.4233 0.399845 5.4233 0.379845 5.4233C0.359845 5.4233 0.359844 5.4733 0.359844 5.4933C0.359844 5.5233 0.389843 5.5233 0.409843 5.5333C0.399843 5.5333 0.369843 5.5333 0.369843 5.5333C0.369843 5.5333 0.369846 5.5333 0.349846 5.5333C0.349846 5.5333 0.339844 5.5033 0.339844 5.4933C0.339844 5.4533 0.339844 5.4233 0.359844 5.3933V5.3833Z" fill="#3D3D3D"/>
<path d="M0.349846 6.60321C0.349846 6.60321 0.429843 6.60321 0.459843 6.56321C0.449843 6.56321 0.429843 6.56321 0.409843 6.56321C0.379843 6.56321 0.359844 6.55321 0.339844 6.54321C0.339844 6.56321 0.339844 6.58321 0.339844 6.59321H0.349846C0.349846 6.59321 0.349846 6.60321 0.349846 6.61321V6.60321Z" fill="#3D3D3D"/>
<path d="M1.14014 2.82324C1.14014 2.82324 1.14014 2.82324 1.14014 2.83324C1.14014 2.83324 1.14014 2.83324 1.15014 2.82324H1.14014Z" fill="white"/>
<path d="M1.28025 1.22339H1.30025C1.30025 1.22339 1.40025 1.23339 1.44025 1.25339C1.46025 1.26339 1.48025 1.27339 1.48025 1.28339C1.50025 1.29339 1.51025 1.31339 1.52025 1.32339C1.54025 1.36339 1.55025 1.39339 1.55025 1.43339C1.55025 1.49339 1.53025 1.54339 1.49025 1.59339C1.49025 1.60339 1.47025 1.61339 1.45025 1.62339C1.45025 1.62339 1.43025 1.63339 1.42025 1.64339C1.42025 1.64339 1.45025 1.66339 1.46025 1.66339C1.50025 1.68339 1.53025 1.72339 1.55025 1.77339C1.56025 1.80339 1.57025 1.82339 1.57025 1.84339V1.86339C1.57025 1.86339 1.56025 1.95339 1.53025 1.99339C1.48025 2.07339 1.39025 2.11339 1.29025 2.11339C1.19025 2.11339 1.11025 2.08339 1.06025 2.01339C1.03025 1.96339 1.01025 1.91339 1.01025 1.85339C1.01025 1.77339 1.04025 1.71339 1.10025 1.66339C1.12025 1.65339 1.13025 1.64339 1.14025 1.64339C1.14025 1.64339 1.10025 1.62339 1.08025 1.60339C1.03025 1.56339 1.01025 1.51339 1.01025 1.45339C1.01025 1.38339 1.03025 1.33339 1.08025 1.28339C1.08025 1.28339 1.10025 1.26339 1.12025 1.25339C1.15025 1.24339 1.17025 1.23339 1.20025 1.22339C1.22025 1.22339 1.24025 1.22339 1.26025 1.22339H1.28025ZM1.22025 1.84339C1.22025 1.89339 1.22025 1.94339 1.23025 1.98339C1.23025 2.01339 1.26025 2.02339 1.28025 2.02339C1.31025 2.02339 1.32025 2.01339 1.33025 1.99339C1.33025 1.99339 1.33025 1.95339 1.34025 1.88339V1.85339C1.34025 1.78339 1.33025 1.74339 1.30025 1.72339H1.28025C1.28025 1.72339 1.23025 1.75339 1.22025 1.81339C1.22025 1.81339 1.22025 1.83339 1.22025 1.86339V1.84339ZM1.22025 1.41339V1.46339C1.22025 1.51339 1.23025 1.55339 1.26025 1.56339H1.28025C1.32025 1.56339 1.34025 1.52339 1.34025 1.45339C1.34025 1.42339 1.34025 1.38339 1.32025 1.34339C1.32025 1.32339 1.29025 1.31339 1.27025 1.31339C1.25025 1.31339 1.23025 1.32339 1.22025 1.34339C1.22025 1.35339 1.22025 1.37339 1.22025 1.40339V1.41339Z" fill="#B41818"/>
<path d="M6.06002 9.41319H6.04002C6.04002 9.41319 5.94002 9.40319 5.90002 9.38319C5.88002 9.37319 5.86002 9.36319 5.86002 9.35319C5.84002 9.34319 5.83002 9.32319 5.82002 9.31319C5.80002 9.27319 5.79002 9.24319 5.79002 9.20319C5.79002 9.14319 5.81002 9.09319 5.85002 9.04319C5.85002 9.03319 5.87002 9.02319 5.89002 9.01319C5.89002 9.01319 5.91002 9.00319 5.92002 8.99319C5.92002 8.99319 5.89002 8.97319 5.88002 8.97319C5.84002 8.95319 5.81002 8.91319 5.79002 8.86319C5.78002 8.83319 5.77002 8.81319 5.77002 8.79319V8.77319C5.77002 8.77319 5.78002 8.68319 5.81002 8.64319C5.86002 8.56319 5.95002 8.52319 6.05002 8.52319C6.15002 8.52319 6.23002 8.55319 6.28002 8.62319C6.31002 8.67319 6.33002 8.72319 6.33002 8.78319C6.33002 8.86319 6.30002 8.92319 6.24002 8.97319C6.22002 8.98319 6.21002 8.99319 6.20002 8.99319C6.20002 8.99319 6.24002 9.01319 6.26002 9.03319C6.31002 9.07319 6.33002 9.12319 6.33002 9.18319C6.33002 9.25319 6.31002 9.30319 6.26002 9.35319C6.26002 9.35319 6.24002 9.37319 6.22002 9.38319C6.19002 9.39319 6.17002 9.40319 6.14002 9.41319C6.12002 9.41319 6.10002 9.41319 6.08002 9.41319H6.06002ZM6.11002 9.22319V9.17319C6.11002 9.12319 6.10002 9.08319 6.07002 9.07319H6.05002C6.01002 9.07319 5.99002 9.11319 5.99002 9.18319C5.99002 9.21319 5.99002 9.25319 6.01002 9.29319C6.01002 9.31319 6.04002 9.32319 6.06002 9.32319C6.08002 9.32319 6.10002 9.31319 6.11002 9.29319C6.11002 9.28319 6.11002 9.26319 6.11002 9.23319V9.22319ZM6.12002 8.79319C6.12002 8.74319 6.12002 8.69319 6.11002 8.65319C6.11002 8.62319 6.08002 8.61319 6.06002 8.61319C6.03002 8.61319 6.02002 8.62319 6.01002 8.64319C6.01002 8.64319 6.01002 8.68319 6.00002 8.75319V8.79319C6.00002 8.86319 6.01002 8.90319 6.04002 8.92319H6.06002C6.06002 8.92319 6.11002 8.89319 6.12002 8.83319C6.12002 8.83319 6.12002 8.81319 6.12002 8.78319V8.79319Z" fill="#B41818"/>
<path d="M2.6 1.47339C2.49 1.79339 2.25 2.04339 2 2.21339C2.25 2.38339 2.49 2.63339 2.6 2.95339C2.71 2.63339 2.95 2.38339 3.2 2.21339C2.95 2.04339 2.71 1.79339 2.6 1.47339Z" fill="#B41818"/>
<path d="M2.6 7.70337C2.49 8.02337 2.25 8.27337 2 8.44337C2.25 8.61337 2.49 8.86337 2.6 9.18337C2.71 8.86337 2.95 8.61337 3.2 8.44337C2.95 8.27337 2.71 8.02337 2.6 7.70337Z" fill="#B41818"/>
<path d="M4.74014 1.47339C4.63014 1.79339 4.39014 2.04339 4.14014 2.21339C4.39014 2.38339 4.63014 2.63339 4.74014 2.95339C4.85014 2.63339 5.09014 2.38339 5.34014 2.21339C5.09014 2.04339 4.85014 1.79339 4.74014 1.47339Z" fill="#B41818"/>
<path d="M2.6 3.55347C2.49 3.87347 2.25 4.12347 2 4.29347C2.25 4.46347 2.49 4.71347 2.6 5.03347C2.71 4.71347 2.95 4.46347 3.2 4.29347C2.95 4.12347 2.71 3.87347 2.6 3.55347Z" fill="#B41818"/>
<path d="M4.74014 3.55347C4.63014 3.87347 4.39014 4.12347 4.14014 4.29347C4.39014 4.46347 4.63014 4.71347 4.74014 5.03347C4.85014 4.71347 5.09014 4.46347 5.34014 4.29347C5.09014 4.12347 4.85014 3.87347 4.74014 3.55347Z" fill="#B41818"/>
<path d="M2.6 5.82349C2.49 6.14349 2.25 6.39349 2 6.56349C2.25 6.73349 2.49 6.98349 2.6 7.30349C2.71 6.98349 2.95 6.73349 3.2 6.56349C2.95 6.39349 2.71 6.14349 2.6 5.82349Z" fill="#B41818"/>
<path d="M4.74014 5.82349C4.63014 6.14349 4.39014 6.39349 4.14014 6.56349C4.39014 6.73349 4.63014 6.98349 4.74014 7.30349C4.85014 6.98349 5.09014 6.73349 5.34014 6.56349C5.09014 6.39349 4.85014 6.14349 4.74014 5.82349Z" fill="#B41818"/>
<path d="M4.74014 7.70337C4.63014 8.02337 4.39014 8.27337 4.14014 8.44337C4.39014 8.61337 4.63014 8.86337 4.74014 9.18337C4.85014 8.86337 5.09014 8.61337 5.34014 8.44337C5.09014 8.27337 4.85014 8.02337 4.74014 7.70337Z" fill="#B41818"/>
<path d="M1.31998 2.32324C1.25998 2.50324 1.11998 2.64324 0.97998 2.74324C1.11998 2.84324 1.25998 2.98324 1.31998 3.16324C1.38998 2.98324 1.51998 2.84324 1.65998 2.74324C1.51998 2.64324 1.37998 2.50324 1.31998 2.32324Z" fill="#B41818"/>
<path d="M6.02018 7.4834C5.96018 7.6634 5.82018 7.8034 5.68018 7.9034C5.82018 8.0034 5.96018 8.1434 6.02018 8.3234C6.08018 8.1434 6.22018 8.0034 6.36018 7.9034C6.22018 7.8034 6.08018 7.6634 6.02018 7.4834Z" fill="#B41818"/>
</svg>
