<svg width="8" height="11" viewBox="0 0 8 11" fill="none" xmlns="http://www.w3.org/2000/svg">
<path d="M7.07973 10.0033H1.02972C0.859724 10.0033 0.719727 9.86333 0.719727 9.69333V0.97333C0.719727 0.80333 0.859724 0.66333 1.02972 0.66333H7.07973C7.24973 0.66333 7.38972 0.80333 7.38972 0.97333V9.69333C7.38972 9.86333 7.24973 10.0033 7.07973 10.0033ZM1.02972 0.67333C0.869724 0.67333 0.739723 0.80333 0.739723 0.96333V9.68333C0.739723 9.84333 0.869724 9.97333 1.02972 9.97333H7.07973C7.23973 9.97333 7.36973 9.84333 7.36973 9.68333V0.97333C7.36973 0.81333 7.23973 0.68333 7.07973 0.68333H1.02972V0.67333Z" fill="#3D3D3D"/>
<path d="M7.07994 10.0233H1.02994C0.839938 10.0233 0.689941 9.8733 0.689941 9.6833V0.973301C0.689941 0.783301 0.839938 0.633301 1.02994 0.633301H7.07994C7.26994 0.633301 7.41994 0.783301 7.41994 0.973301V9.6933C7.41994 9.8833 7.26994 10.0333 7.07994 10.0333V10.0233ZM1.02994 0.703301C0.879938 0.703301 0.769943 0.823301 0.769943 0.963301V9.6833C0.769943 9.8333 0.889938 9.9433 1.02994 9.9433H7.07994C7.22994 9.9433 7.33994 9.8233 7.33994 9.6833V0.973301C7.33994 0.823301 7.21994 0.713301 7.07994 0.713301H1.02994V0.703301Z" fill="#3D3D3D"/>
<path d="M6.89996 9.7833H1.19996C1.06996 9.7833 0.959961 9.6733 0.959961 9.5433V1.1233C0.959961 0.983301 1.06996 0.883301 1.19996 0.883301H6.89996C7.02996 0.883301 7.13996 0.993301 7.13996 1.1233V9.5433C7.13996 9.6733 7.02996 9.7833 6.89996 9.7833ZM1.19996 0.933301C1.08996 0.933301 1.00996 1.0233 1.00996 1.1233V9.5433C1.00996 9.6533 1.09996 9.7333 1.19996 9.7333H6.89996C7.00996 9.7333 7.08997 9.6433 7.08997 9.5433V1.1233C7.08997 1.0133 6.99996 0.933301 6.89996 0.933301H1.19996Z" fill="#3D3D3D"/>
<path d="M7.37994 4.29326C7.37994 4.29326 7.30994 4.28326 7.28994 4.29326C7.27994 4.29326 7.26994 4.31326 7.25994 4.31326C7.23994 4.32326 7.21994 4.33326 7.18994 4.33326C7.20994 4.33326 7.22994 4.33326 7.23994 4.33326C7.25994 4.33326 7.26994 4.31326 7.28994 4.31326C7.30994 4.31326 7.32994 4.31326 7.33994 4.32326C7.33994 4.32326 7.33994 4.34326 7.35994 4.32326C7.35994 4.32326 7.35994 4.30326 7.35994 4.29326H7.37994Z" fill="#3D3D3D"/>
<path d="M6.00977 0.65332C6.00977 0.65332 6.06976 0.70332 6.06976 0.75332C6.06976 0.80332 6.04977 0.84332 6.04977 0.89332C6.07977 0.82332 6.10976 0.76332 6.10976 0.68332C6.12976 0.68332 6.14976 0.67332 6.17976 0.67332C6.12976 0.67332 6.08977 0.65332 6.00977 0.65332Z" fill="#3D3D3D"/>
<path d="M6.31006 0.67334C6.31006 0.67334 6.31006 0.75334 6.31006 0.78334C6.32006 0.77334 6.34007 0.71334 6.34007 0.69334C6.34007 0.68334 6.33006 0.67334 6.31006 0.67334Z" fill="#3D3D3D"/>
<path d="M3.06982 0.66333C3.06982 0.66333 3.12982 0.69333 3.13982 0.71333C3.14982 0.73333 3.13983 0.76333 3.15983 0.78333C3.16983 0.81333 3.20982 0.80333 3.23982 0.81333C3.26982 0.81333 3.28982 0.83333 3.31982 0.84333C3.31982 0.82333 3.29982 0.81333 3.27982 0.80333C3.26982 0.80333 3.25982 0.80333 3.24982 0.80333H3.20982C3.20982 0.80333 3.18983 0.74333 3.18983 0.73333C3.18983 0.71333 3.20983 0.70333 3.22983 0.69333C3.21983 0.67333 3.11983 0.69333 3.08983 0.69333L3.06982 0.66333Z" fill="#3D3D3D"/>
<path d="M3.43018 0.67334C3.43018 0.67334 3.44017 0.71334 3.45017 0.73334C3.45017 0.75334 3.45018 0.76334 3.47018 0.77334C3.47018 0.75334 3.47018 0.72334 3.47018 0.69334C3.47018 0.67334 3.47018 0.67334 3.44018 0.67334H3.43018Z" fill="#3D3D3D"/>
<path d="M0.73003 1.12326C0.73003 1.12326 0.790029 1.12326 0.830029 1.13326C0.850029 1.13326 0.830028 1.13326 0.860028 1.13326C0.880028 1.13326 0.890031 1.13326 0.910031 1.13326C0.890031 1.13326 0.870031 1.13326 0.840031 1.13326C0.800031 1.13326 0.810028 1.13326 0.790028 1.11326C0.780028 1.11326 0.760025 1.11326 0.740025 1.11326C0.730025 1.11326 0.74003 1.10326 0.73003 1.09326C0.72003 1.09326 0.73003 1.12326 0.73003 1.13326V1.12326Z" fill="#3D3D3D"/>
<path d="M0.73003 9.29318C0.73003 9.29318 0.790029 9.29318 0.830029 9.30318C0.850029 9.30318 0.830028 9.30318 0.860028 9.30318C0.880028 9.30318 0.890031 9.30318 0.910031 9.30318C0.890031 9.30318 0.870031 9.30318 0.840031 9.30318C0.800031 9.30318 0.810028 9.30318 0.790028 9.28318C0.780028 9.28318 0.760025 9.28318 0.740025 9.28318C0.730025 9.28318 0.74003 9.27318 0.73003 9.26318C0.72003 9.26318 0.73003 9.29318 0.73003 9.30318V9.29318Z" fill="#3D3D3D"/>
<path d="M0.739975 0.883352H0.819977C0.829977 0.863352 0.769981 0.873352 0.769981 0.853352C0.769981 0.843352 0.789976 0.823352 0.779976 0.813352C0.779976 0.783352 0.72998 0.843352 0.72998 0.873352L0.739975 0.883352Z" fill="#3D3D3D"/>
<path d="M4.60984 0.66333C4.60984 0.66333 4.60984 0.66333 4.61984 0.68333C4.61984 0.68333 4.61984 0.70333 4.61984 0.71333C4.61984 0.73333 4.61984 0.75333 4.61984 0.77333C4.61984 0.76333 4.61984 0.75333 4.61984 0.73333C4.61984 0.72333 4.61984 0.71333 4.62984 0.70333C4.62984 0.69333 4.62984 0.69333 4.62984 0.67333C4.62984 0.67333 4.62984 0.67333 4.60984 0.67333C4.60984 0.67333 4.59984 0.67333 4.58984 0.67333L4.60984 0.66333Z" fill="#3D3D3D"/>
<path d="M4.85986 10.0032C4.85986 10.0032 4.91986 9.95318 4.91986 9.90318C4.91986 9.85318 4.89986 9.81318 4.89986 9.76318C4.92986 9.83318 4.95986 9.89318 4.95986 9.97318C4.97986 9.97318 4.99986 9.98318 5.02986 9.98318C4.97986 9.98318 4.93986 10.0032 4.85986 10.0032Z" fill="#3D3D3D"/>
<path d="M0.709961 8.76318C0.709961 8.76318 0.759959 8.82318 0.809959 8.82318C0.859959 8.82318 0.899959 8.80318 0.949959 8.80318C0.879959 8.83318 0.80996 8.86318 0.73996 8.86318C0.73996 8.88318 0.729965 8.90318 0.729965 8.93318C0.729965 8.88318 0.709961 8.84318 0.709961 8.76318Z" fill="#3D3D3D"/>
<path d="M5.16992 9.98329C5.16992 9.98329 5.16992 9.90329 5.16992 9.87329C5.17992 9.88329 5.19992 9.94329 5.19992 9.96329C5.19992 9.97329 5.18992 9.98329 5.16992 9.98329Z" fill="#3D3D3D"/>
<path d="M1.91992 9.98322C1.91992 9.98322 1.97992 9.95322 1.98992 9.93322C1.99992 9.91322 1.98993 9.88322 2.00993 9.86322C2.01993 9.83322 2.05993 9.84322 2.08993 9.83322C2.11993 9.83322 2.13992 9.81322 2.16992 9.80322C2.16992 9.82322 2.14992 9.83322 2.12992 9.84322C2.11992 9.84322 2.10992 9.84322 2.09992 9.84322H2.05992C2.05992 9.84322 2.03992 9.90322 2.03992 9.91322C2.03992 9.93322 2.05993 9.94322 2.07993 9.95322C2.06993 9.97322 1.96993 9.95322 1.93993 9.95322L1.91992 9.98322Z" fill="#3D3D3D"/>
<path d="M2.27979 9.9833C2.27979 9.9833 2.28979 9.9433 2.29979 9.9233C2.29979 9.9033 2.29979 9.8933 2.31979 9.8833C2.31979 9.9033 2.31979 9.9333 2.31979 9.9633C2.31979 9.9833 2.31979 9.9833 2.28979 9.9833H2.27979Z" fill="#3D3D3D"/>
<path d="M3.45994 9.98329C3.45994 9.98329 3.45994 9.98329 3.46994 9.96329C3.46994 9.96329 3.46994 9.94329 3.46994 9.93329C3.46994 9.91329 3.46994 9.89329 3.46994 9.87329C3.46994 9.88329 3.46994 9.89329 3.46994 9.91329C3.46994 9.92329 3.46994 9.93329 3.47994 9.94329C3.47994 9.95329 3.47994 9.95329 3.47994 9.97329C3.47994 9.97329 3.47994 9.97329 3.45994 9.97329C3.45994 9.97329 3.44994 9.97329 3.43994 9.97329L3.45994 9.98329Z" fill="#3D3D3D"/>
<path d="M7.38006 2.26318C7.31006 2.26318 7.23006 2.26318 7.16006 2.26318C7.12006 2.26318 7.12006 2.26318 7.10006 2.29318C7.06006 2.34318 6.99006 2.34318 6.93006 2.35318C6.89006 2.36318 6.85006 2.37318 6.81006 2.37318C6.84006 2.40318 6.94006 2.37318 6.98006 2.36318C7.01006 2.36318 7.05006 2.34318 7.08006 2.32318C7.12006 2.29318 7.13006 2.28318 7.18006 2.28318C7.22006 2.28318 7.25006 2.28318 7.30006 2.28318C7.31006 2.28318 7.33006 2.28318 7.35006 2.28318C7.37006 2.28318 7.37006 2.29318 7.39006 2.30318C7.39006 2.29318 7.39006 2.28318 7.39006 2.26318H7.38006Z" fill="#3D3D3D"/>
<path d="M7.36971 7.46338C7.29971 7.46338 7.21971 7.46338 7.14971 7.46338C7.10971 7.46338 7.09971 7.49338 7.06971 7.51338C7.03971 7.53338 6.98971 7.54338 6.94971 7.54338C6.98971 7.54338 7.02971 7.54338 7.06971 7.53338C7.10971 7.50338 7.11971 7.49338 7.16971 7.49338C7.23971 7.48338 7.28971 7.49338 7.32971 7.56338C7.34971 7.60338 7.35971 7.61338 7.35971 7.65338C7.35971 7.62338 7.36971 7.59338 7.37971 7.56338C7.37971 7.53338 7.37971 7.50338 7.37971 7.47338L7.36971 7.46338Z" fill="#3D3D3D"/>
<path d="M7.36973 2.51318C7.36973 2.51318 7.25973 2.51318 7.21973 2.52318C7.24973 2.52318 7.26973 2.52318 7.29973 2.52318C7.30973 2.52318 7.31973 2.53318 7.33973 2.54318C7.36973 2.54318 7.38972 2.54318 7.37972 2.51318H7.36973Z" fill="#3D3D3D"/>
<path d="M7.36996 2.07323C7.36996 2.07323 7.23996 2.15323 7.20996 2.14323C7.23996 2.11323 7.27996 2.11323 7.30996 2.09323C7.32996 2.08323 7.34996 2.06323 7.37996 2.06323H7.36996V2.07323Z" fill="#3D3D3D"/>
<path d="M0.709961 3.28319C0.709961 3.28319 0.749966 3.31319 0.769966 3.32319C0.789966 3.33319 0.839962 3.33319 0.859962 3.33319C0.949962 3.33319 1.00997 3.31319 1.08997 3.29319C1.02997 3.34319 0.969963 3.35319 0.899963 3.35319C0.839963 3.35319 0.739961 3.35319 0.709961 3.27319V3.28319Z" fill="#3D3D3D"/>
<path d="M0.729787 3.15328C0.729787 3.07328 0.859782 3.08328 0.919782 3.06328C0.879782 3.05328 0.809788 3.06328 0.769788 3.06328C0.689788 3.06328 0.719782 3.09328 0.739782 3.14328L0.729787 3.15328Z" fill="#3D3D3D"/>
<path d="M0.739746 6.74327C0.739746 6.67327 0.849748 6.70327 0.889748 6.70327C0.929748 6.70327 0.929745 6.68327 0.949745 6.65327C0.959745 6.63327 0.979746 6.61327 0.989746 6.60327C0.949746 6.63327 0.959746 6.70327 0.919746 6.72327C0.869746 6.75327 0.789748 6.70327 0.749748 6.75327C0.749748 6.75327 0.749748 6.73327 0.749748 6.74327H0.739746Z" fill="#3D3D3D"/>
<path d="M0.729829 5.20336C0.729829 5.20336 0.729829 5.24336 0.729829 5.25336C0.729829 5.25336 0.759827 5.28336 0.759827 5.29336C0.759827 5.32336 0.719826 5.33336 0.719826 5.36336C0.719826 5.32336 0.699826 5.23336 0.719826 5.19336L0.729829 5.20336Z" fill="#3D3D3D"/>
<path d="M0.739723 5.3833C0.739723 5.3833 0.779728 5.4033 0.799728 5.4033C0.829728 5.4033 0.829724 5.4033 0.849724 5.4233C0.889724 5.4533 0.899728 5.4033 0.939728 5.4033C0.919728 5.4233 0.899723 5.4233 0.879723 5.4333C0.849723 5.4433 0.849727 5.4333 0.829727 5.4233C0.819727 5.4233 0.779727 5.4233 0.759727 5.4233C0.739727 5.4233 0.739723 5.4733 0.739723 5.4933C0.739723 5.5233 0.769726 5.5233 0.789726 5.5333C0.779726 5.5333 0.749725 5.5333 0.749725 5.5333C0.749725 5.5333 0.749729 5.5333 0.729729 5.5333C0.729729 5.5333 0.719727 5.5033 0.719727 5.4933C0.719727 5.4533 0.719723 5.4233 0.739723 5.3933V5.3833Z" fill="#3D3D3D"/>
<path d="M0.72998 6.60321C0.72998 6.60321 0.809981 6.60321 0.839981 6.56321C0.829981 6.56321 0.80998 6.56321 0.79998 6.56321C0.76998 6.56321 0.74998 6.55321 0.72998 6.54321C0.72998 6.56321 0.72998 6.58321 0.72998 6.59321H0.739975C0.739975 6.59321 0.739975 6.60321 0.739975 6.61321L0.72998 6.60321Z" fill="#3D3D3D"/>
<path d="M1.50977 2.82324C1.50977 2.82324 1.50977 2.82324 1.50977 2.83324C1.50977 2.83324 1.50977 2.83324 1.51977 2.82324H1.50977Z" fill="white"/>
<path d="M1.67014 1.21338H1.69014C1.74014 1.21338 1.79014 1.22338 1.83014 1.24338C1.89014 1.28338 1.92014 1.34338 1.92014 1.42338C1.92014 1.42338 1.92014 1.50338 1.90014 1.54338C1.90014 1.54338 1.88013 1.59338 1.88013 1.60338C1.88013 1.60338 1.89014 1.65338 1.92014 1.66338C1.92014 1.66338 1.88014 1.67338 1.86014 1.68338C1.84014 1.69338 1.83014 1.71338 1.82014 1.72338C1.75014 1.84338 1.68014 1.93338 1.61014 1.98338H1.71014C1.74014 1.98338 1.76014 1.98338 1.76014 1.98338C1.76014 1.98338 1.77014 1.97338 1.78014 1.94338C1.79014 1.92338 1.80013 1.90338 1.81013 1.88338H1.95013C1.94013 2.02338 1.93014 2.08338 1.93014 2.08338H1.39014V1.96338C1.39014 1.96338 1.40014 1.95338 1.42014 1.93338C1.46014 1.89338 1.49014 1.86338 1.52014 1.83338C1.56014 1.79338 1.59014 1.75338 1.62014 1.70338V1.68338C1.62014 1.68338 1.61014 1.63338 1.58014 1.62338C1.58014 1.62338 1.60014 1.62338 1.61014 1.62338C1.63014 1.62338 1.64014 1.60338 1.66014 1.59338C1.68014 1.57338 1.69014 1.55338 1.69014 1.54338C1.69014 1.51338 1.70013 1.47338 1.70013 1.45338C1.70013 1.39338 1.69014 1.36338 1.66014 1.35338C1.66014 1.35338 1.65014 1.35338 1.64014 1.35338C1.61014 1.35338 1.59014 1.38338 1.59014 1.43338C1.59014 1.47338 1.58014 1.50338 1.58014 1.52338H1.39014C1.39014 1.40338 1.41014 1.32338 1.46014 1.28338C1.46014 1.28338 1.48014 1.27338 1.49014 1.25338C1.51014 1.24338 1.54013 1.23338 1.56013 1.22338C1.59013 1.22338 1.62014 1.22338 1.65014 1.22338L1.67014 1.21338Z" fill="#B41818"/>
<path d="M6.38986 9.42322H6.36987C6.31987 9.42322 6.26987 9.41322 6.22987 9.39322C6.16987 9.35322 6.13986 9.29322 6.13986 9.21322C6.13986 9.21322 6.13987 9.13322 6.15987 9.09322C6.15987 9.09322 6.17986 9.04322 6.17986 9.03322C6.17986 9.03322 6.16986 8.98322 6.13986 8.97322C6.13986 8.97322 6.17986 8.96322 6.19986 8.95322C6.21986 8.94322 6.22986 8.92322 6.23986 8.91322C6.30986 8.79322 6.37986 8.70322 6.44986 8.65322H6.34986C6.31986 8.65322 6.29987 8.65322 6.29987 8.65322C6.29987 8.65322 6.28986 8.66322 6.27986 8.69322C6.26986 8.71322 6.25986 8.73322 6.24986 8.75322H6.10986C6.11986 8.61322 6.12986 8.55322 6.12986 8.55322H6.66986V8.67322C6.66986 8.67322 6.65986 8.68322 6.63986 8.70322C6.59986 8.74322 6.56986 8.77322 6.53986 8.80322C6.49986 8.84322 6.46987 8.88322 6.43987 8.93322V8.95322C6.43987 8.95322 6.44987 9.00322 6.47987 9.01322C6.47987 9.01322 6.45986 9.01322 6.44986 9.01322C6.42986 9.01322 6.41986 9.03322 6.39986 9.04322C6.37986 9.06322 6.36987 9.08322 6.36987 9.09322C6.36987 9.12322 6.35986 9.16322 6.35986 9.18322C6.35986 9.24322 6.36986 9.27322 6.39986 9.28322C6.39986 9.28322 6.40986 9.28322 6.41986 9.28322C6.44986 9.28322 6.46986 9.25322 6.46986 9.20322C6.46986 9.16322 6.47987 9.13322 6.47987 9.11322H6.66986C6.66986 9.23322 6.64986 9.31322 6.59986 9.35322C6.59986 9.35322 6.57986 9.36322 6.56986 9.38322C6.54986 9.39322 6.51986 9.40322 6.49986 9.41322C6.46986 9.41322 6.43987 9.41322 6.40987 9.41322L6.38986 9.42322Z" fill="#B41818"/>
<path d="M4.04971 1.46338C3.93971 1.78338 3.69971 2.03338 3.44971 2.20338C3.69971 2.37338 3.93971 2.62338 4.04971 2.94338C4.15971 2.62338 4.39971 2.37338 4.64971 2.20338C4.39971 2.03338 4.15971 1.78338 4.04971 1.46338Z" fill="#B41818"/>
<path d="M1.67007 2.32324C1.61007 2.50324 1.47008 2.64324 1.33008 2.74324C1.47008 2.84324 1.61007 2.98324 1.67007 3.16324C1.73007 2.98324 1.87008 2.84324 2.01008 2.74324C1.87008 2.64324 1.73007 2.50324 1.67007 2.32324Z" fill="#B41818"/>
<path d="M6.36002 7.4834C6.30002 7.6634 6.16002 7.8034 6.02002 7.9034C6.16002 8.0034 6.30002 8.1434 6.36002 8.3234C6.42002 8.1434 6.56001 8.0034 6.70001 7.9034C6.56001 7.8034 6.42002 7.6634 6.36002 7.4834Z" fill="#B41818"/>
<path d="M1.67007 2.32324C1.61007 2.50324 1.47008 2.64324 1.33008 2.74324C1.47008 2.84324 1.61007 2.98324 1.67007 3.16324C1.73007 2.98324 1.87008 2.84324 2.01008 2.74324C1.87008 2.64324 1.73007 2.50324 1.67007 2.32324Z" fill="#B41818"/>
<path d="M6.36002 7.4834C6.30002 7.6634 6.16002 7.8034 6.02002 7.9034C6.16002 8.0034 6.30002 8.1434 6.36002 8.3234C6.42002 8.1434 6.56001 8.0034 6.70001 7.9034C6.56001 7.8034 6.42002 7.6634 6.36002 7.4834Z" fill="#B41818"/>
<path d="M4.04971 7.69336C3.93971 8.01336 3.69971 8.26336 3.44971 8.43336C3.69971 8.60336 3.93971 8.85336 4.04971 9.17336C4.15971 8.85336 4.39971 8.60336 4.64971 8.43336C4.39971 8.26336 4.15971 8.01336 4.04971 7.69336Z" fill="#B41818"/>
</svg>
