<svg width="8" height="11" viewBox="0 0 8 11" fill="none" xmlns="http://www.w3.org/2000/svg">
<path d="M6.96986 10.0033H0.919865C0.749865 10.0033 0.609863 9.86333 0.609863 9.69333V0.97333C0.609863 0.80333 0.749865 0.66333 0.919865 0.66333H6.96986C7.13986 0.66333 7.27987 0.80333 7.27987 0.97333V9.69333C7.27987 9.86333 7.13986 10.0033 6.96986 10.0033ZM0.919865 0.67333C0.759865 0.67333 0.629864 0.80333 0.629864 0.96333V9.68333C0.629864 9.84333 0.759865 9.97333 0.919865 9.97333H6.96986C7.12986 9.97333 7.25986 9.84333 7.25986 9.68333V0.97333C7.25986 0.81333 7.12986 0.68333 6.96986 0.68333H0.919865V0.67333Z" fill="#3D3D3D"/>
<path d="M6.97008 10.0233H0.920078C0.730078 10.0233 0.580078 9.8733 0.580078 9.6833V0.973301C0.580078 0.783301 0.730078 0.633301 0.920078 0.633301H6.97008C7.16008 0.633301 7.31008 0.783301 7.31008 0.973301V9.6933C7.31008 9.8833 7.16008 10.0333 6.97008 10.0333V10.0233ZM0.920078 0.703301C0.770078 0.703301 0.660076 0.823301 0.660076 0.963301V9.6833C0.660076 9.8333 0.780078 9.9433 0.920078 9.9433H6.97008C7.12008 9.9433 7.23008 9.8233 7.23008 9.6833V0.973301C7.23008 0.823301 7.11008 0.713301 6.97008 0.713301H0.920078V0.703301Z" fill="#3D3D3D"/>
<path d="M6.7901 9.7833H1.0901C0.960096 9.7833 0.850098 9.6733 0.850098 9.5433V1.1233C0.850098 0.983301 0.960096 0.883301 1.0901 0.883301H6.7901C6.9201 0.883301 7.0301 0.993301 7.0301 1.1233V9.5433C7.0301 9.6733 6.9201 9.7833 6.7901 9.7833ZM1.0901 0.933301C0.980096 0.933301 0.900097 1.0233 0.900097 1.1233V9.5433C0.900097 9.6533 0.990096 9.7333 1.0901 9.7333H6.7901C6.9001 9.7333 6.98009 9.6433 6.98009 9.5433V1.1233C6.98009 1.0133 6.8901 0.933301 6.7901 0.933301H1.0901Z" fill="#3D3D3D"/>
<path d="M7.27008 4.29326C7.27008 4.29326 7.20008 4.28326 7.18008 4.29326C7.17008 4.29326 7.16008 4.31326 7.15008 4.31326C7.13008 4.32326 7.11008 4.33326 7.08008 4.33326C7.10008 4.33326 7.12008 4.33326 7.13008 4.33326C7.15008 4.33326 7.16008 4.31326 7.18008 4.31326C7.20008 4.31326 7.22008 4.31326 7.23008 4.32326C7.23008 4.32326 7.23008 4.34326 7.25008 4.32326C7.25008 4.32326 7.25008 4.30326 7.25008 4.29326H7.27008Z" fill="#3D3D3D"/>
<path d="M5.8999 0.65332C5.8999 0.65332 5.9599 0.70332 5.9599 0.75332C5.9599 0.80332 5.9399 0.84332 5.9399 0.89332C5.9699 0.82332 5.9999 0.76332 5.9999 0.68332C6.0199 0.68332 6.0399 0.67332 6.0699 0.67332C6.0199 0.67332 5.9799 0.65332 5.8999 0.65332Z" fill="#3D3D3D"/>
<path d="M6.20996 0.67334C6.20996 0.67334 6.20996 0.75334 6.20996 0.78334C6.21996 0.77334 6.23996 0.71334 6.23996 0.69334C6.23996 0.68334 6.22996 0.67334 6.20996 0.67334Z" fill="#3D3D3D"/>
<path d="M2.95996 0.66333C2.95996 0.66333 3.01996 0.69333 3.02996 0.71333C3.03996 0.73333 3.02996 0.76333 3.04996 0.78333C3.05996 0.81333 3.09996 0.80333 3.12996 0.81333C3.15996 0.81333 3.17996 0.83333 3.20996 0.84333C3.20996 0.82333 3.18996 0.81333 3.16996 0.80333C3.15996 0.80333 3.14996 0.80333 3.13996 0.80333H3.09996C3.09996 0.80333 3.07996 0.74333 3.07996 0.73333C3.07996 0.71333 3.09996 0.70333 3.11996 0.69333C3.10996 0.67333 3.00996 0.69333 2.97996 0.69333L2.95996 0.66333Z" fill="#3D3D3D"/>
<path d="M3.32031 0.67334C3.32031 0.67334 3.33031 0.71334 3.34031 0.73334C3.34031 0.75334 3.34031 0.76334 3.36031 0.77334C3.36031 0.75334 3.36031 0.72334 3.36031 0.69334C3.36031 0.67334 3.36031 0.67334 3.33031 0.67334H3.32031Z" fill="#3D3D3D"/>
<path d="M0.620167 1.12326C0.620167 1.12326 0.680166 1.12326 0.720166 1.13326C0.740166 1.13326 0.720164 1.13326 0.750164 1.13326C0.770164 1.13326 0.780164 1.13326 0.800164 1.13326C0.780164 1.13326 0.760164 1.13326 0.730164 1.13326C0.690164 1.13326 0.700165 1.13326 0.680165 1.11326C0.670165 1.11326 0.650165 1.11326 0.630165 1.11326C0.620165 1.11326 0.630167 1.10326 0.620167 1.09326C0.610167 1.09326 0.620167 1.12326 0.620167 1.13326V1.12326Z" fill="#3D3D3D"/>
<path d="M0.620167 9.29318C0.620167 9.29318 0.680166 9.29318 0.720166 9.30318C0.740166 9.30318 0.720164 9.30318 0.750164 9.30318C0.770164 9.30318 0.780164 9.30318 0.800164 9.30318C0.780164 9.30318 0.760164 9.30318 0.730164 9.30318C0.690164 9.30318 0.700165 9.30318 0.680165 9.28318C0.670165 9.28318 0.650165 9.28318 0.630165 9.28318C0.620165 9.28318 0.630167 9.27318 0.620167 9.26318C0.610167 9.26318 0.620167 9.29318 0.620167 9.30318V9.29318Z" fill="#3D3D3D"/>
<path d="M0.630116 0.883352H0.710117C0.720117 0.863352 0.660114 0.873352 0.660114 0.853352C0.660114 0.843352 0.680116 0.823352 0.670116 0.813352C0.670116 0.783352 0.620117 0.843352 0.620117 0.873352L0.630116 0.883352Z" fill="#3D3D3D"/>
<path d="M4.49998 0.66333C4.49998 0.66333 4.49998 0.66333 4.50998 0.68333C4.50998 0.68333 4.50998 0.70333 4.50998 0.71333C4.50998 0.73333 4.50998 0.75333 4.50998 0.77333C4.50998 0.76333 4.50998 0.75333 4.50998 0.73333C4.50998 0.72333 4.50998 0.71333 4.51998 0.70333C4.51998 0.69333 4.51998 0.69333 4.51998 0.67333C4.51998 0.67333 4.51998 0.67333 4.49998 0.67333C4.49998 0.67333 4.48998 0.67333 4.47998 0.67333L4.49998 0.66333Z" fill="#3D3D3D"/>
<path d="M4.75 10.0032C4.75 10.0032 4.81 9.95318 4.81 9.90318C4.81 9.85318 4.79 9.81318 4.79 9.76318C4.82 9.83318 4.85 9.89318 4.85 9.97318C4.87 9.97318 4.89 9.98318 4.92 9.98318C4.87 9.98318 4.83 10.0032 4.75 10.0032Z" fill="#3D3D3D"/>
<path d="M0.600098 8.76318C0.600098 8.76318 0.650096 8.82318 0.700096 8.82318C0.750096 8.82318 0.790096 8.80318 0.840096 8.80318C0.770096 8.83318 0.700096 8.86318 0.630096 8.86318C0.630096 8.88318 0.620098 8.90318 0.620098 8.93318C0.620098 8.88318 0.600098 8.84318 0.600098 8.76318Z" fill="#3D3D3D"/>
<path d="M5.06006 9.98329C5.06006 9.98329 5.06006 9.90329 5.06006 9.87329C5.07006 9.88329 5.09006 9.94329 5.09006 9.96329C5.09006 9.97329 5.08006 9.98329 5.06006 9.98329Z" fill="#3D3D3D"/>
<path d="M1.81006 9.98322C1.81006 9.98322 1.87006 9.95322 1.88006 9.93322C1.89006 9.91322 1.88006 9.88322 1.90006 9.86322C1.91006 9.83322 1.95006 9.84322 1.98006 9.83322C2.01006 9.83322 2.03006 9.81322 2.06006 9.80322C2.06006 9.82322 2.04006 9.83322 2.02006 9.84322C2.01006 9.84322 2.00006 9.84322 1.99006 9.84322H1.95006C1.95006 9.84322 1.93006 9.90322 1.93006 9.91322C1.93006 9.93322 1.95006 9.94322 1.97006 9.95322C1.96006 9.97322 1.86006 9.95322 1.83006 9.95322L1.81006 9.98322Z" fill="#3D3D3D"/>
<path d="M2.16992 9.9833C2.16992 9.9833 2.17992 9.9433 2.18992 9.9233C2.18992 9.9033 2.18992 9.8933 2.20992 9.8833C2.20992 9.9033 2.20992 9.9333 2.20992 9.9633C2.20992 9.9833 2.20992 9.9833 2.17992 9.9833H2.16992Z" fill="#3D3D3D"/>
<path d="M3.35008 9.98329C3.35008 9.98329 3.35008 9.98329 3.36008 9.96329C3.36008 9.96329 3.36008 9.94329 3.36008 9.93329C3.36008 9.91329 3.36008 9.89329 3.36008 9.87329C3.36008 9.88329 3.36008 9.89329 3.36008 9.91329C3.36008 9.92329 3.36008 9.93329 3.37008 9.94329C3.37008 9.95329 3.37008 9.95329 3.37008 9.97329C3.37008 9.97329 3.37008 9.97329 3.35008 9.97329C3.35008 9.97329 3.34008 9.97329 3.33008 9.97329L3.35008 9.98329Z" fill="#3D3D3D"/>
<path d="M7.2702 2.26318C7.2002 2.26318 7.12019 2.26318 7.05019 2.26318C7.01019 2.26318 7.0102 2.26318 6.9902 2.29318C6.9502 2.34318 6.88019 2.34318 6.82019 2.35318C6.78019 2.36318 6.7402 2.37318 6.7002 2.37318C6.7302 2.40318 6.8302 2.37318 6.8702 2.36318C6.9002 2.36318 6.9402 2.34318 6.9702 2.32318C7.0102 2.29318 7.02019 2.28318 7.07019 2.28318C7.11019 2.28318 7.1402 2.28318 7.1902 2.28318C7.2002 2.28318 7.2202 2.28318 7.2402 2.28318C7.2602 2.28318 7.2602 2.29318 7.2802 2.30318C7.2802 2.29318 7.2802 2.28318 7.2802 2.26318H7.2702Z" fill="#3D3D3D"/>
<path d="M7.25985 7.46338C7.18985 7.46338 7.10984 7.46338 7.03984 7.46338C6.99984 7.46338 6.98985 7.49338 6.95985 7.51338C6.92985 7.53338 6.87984 7.54338 6.83984 7.54338C6.87984 7.54338 6.91985 7.54338 6.95985 7.53338C6.99985 7.50338 7.00984 7.49338 7.05984 7.49338C7.12984 7.48338 7.17984 7.49338 7.21984 7.56338C7.23984 7.60338 7.24984 7.61338 7.24984 7.65338C7.24984 7.62338 7.25984 7.59338 7.26984 7.56338C7.27984 7.53338 7.26984 7.50338 7.26984 7.47338L7.25985 7.46338Z" fill="#3D3D3D"/>
<path d="M7.25986 2.51318C7.25986 2.51318 7.14986 2.51318 7.10986 2.52318C7.13986 2.52318 7.15987 2.52318 7.18987 2.52318C7.19987 2.52318 7.20986 2.53318 7.22986 2.54318C7.25986 2.54318 7.27986 2.54318 7.26986 2.51318H7.25986Z" fill="#3D3D3D"/>
<path d="M7.2601 2.07323C7.2601 2.07323 7.1301 2.15323 7.1001 2.14323C7.1301 2.11323 7.1701 2.11323 7.2001 2.09323C7.2201 2.08323 7.2401 2.06323 7.2701 2.06323H7.2601V2.07323Z" fill="#3D3D3D"/>
<path d="M0.600098 3.28319C0.600098 3.28319 0.640095 3.31319 0.660095 3.32319C0.680095 3.33319 0.730095 3.33319 0.750095 3.33319C0.840095 3.33319 0.900095 3.31319 0.980095 3.29319C0.920095 3.34319 0.860096 3.35319 0.790096 3.35319C0.730096 3.35319 0.630098 3.35319 0.600098 3.27319V3.28319Z" fill="#3D3D3D"/>
<path d="M0.619924 3.15328C0.619924 3.07328 0.749923 3.08328 0.809923 3.06328C0.769923 3.05328 0.699921 3.06328 0.659921 3.06328C0.579921 3.06328 0.609922 3.09328 0.629922 3.14328L0.619924 3.15328Z" fill="#3D3D3D"/>
<path d="M0.629883 6.74327C0.629883 6.67327 0.739884 6.70327 0.779884 6.70327C0.819884 6.70327 0.819882 6.68327 0.839882 6.65327C0.849882 6.63327 0.869883 6.61327 0.879883 6.60327C0.839883 6.63327 0.849883 6.70327 0.809883 6.72327C0.759883 6.75327 0.679881 6.70327 0.639881 6.75327C0.639881 6.75327 0.639881 6.73327 0.639881 6.74327H0.629883Z" fill="#3D3D3D"/>
<path d="M0.619965 5.20336C0.619965 5.20336 0.619965 5.24336 0.619965 5.25336C0.619965 5.25336 0.649964 5.28336 0.649964 5.29336C0.649964 5.32336 0.609963 5.33336 0.609963 5.36336C0.609963 5.32336 0.589963 5.23336 0.609963 5.19336L0.619965 5.20336Z" fill="#3D3D3D"/>
<path d="M0.629864 5.3833C0.629864 5.3833 0.669865 5.4033 0.689865 5.4033C0.719865 5.4033 0.719864 5.4033 0.739864 5.4233C0.779864 5.4533 0.789865 5.4033 0.829865 5.4033C0.809865 5.4233 0.789863 5.4233 0.769863 5.4333C0.739863 5.4433 0.739864 5.4333 0.719864 5.4233C0.709864 5.4233 0.669864 5.4233 0.649864 5.4233C0.629864 5.4233 0.629864 5.4733 0.629864 5.4933C0.629864 5.5233 0.659863 5.5233 0.679863 5.5333C0.669863 5.5333 0.639862 5.5333 0.639862 5.5333C0.639862 5.5333 0.639865 5.5333 0.619865 5.5333C0.619865 5.5333 0.609863 5.5033 0.609863 5.4933C0.609863 5.4533 0.609864 5.4233 0.629864 5.3933V5.3833Z" fill="#3D3D3D"/>
<path d="M0.619865 6.60321C0.619865 6.60321 0.699862 6.60321 0.729862 6.56321C0.719862 6.56321 0.699863 6.56321 0.679863 6.56321C0.649863 6.56321 0.629863 6.55321 0.609863 6.54321C0.609863 6.56321 0.609863 6.58321 0.609863 6.59321H0.619865C0.619865 6.59321 0.619865 6.60321 0.619865 6.61321V6.60321Z" fill="#3D3D3D"/>
<path d="M1.41016 2.82324C1.41016 2.82324 1.41016 2.82324 1.41016 2.83324C1.41016 2.83324 1.41016 2.83324 1.42016 2.82324H1.41016Z" fill="white"/>
<path d="M1.52002 1.22339H1.54002C1.54002 1.22339 1.63002 1.23339 1.67002 1.25339C1.69002 1.26339 1.70002 1.27339 1.71002 1.28339C1.72002 1.29339 1.73002 1.31339 1.74002 1.32339C1.77002 1.37339 1.78002 1.44339 1.78002 1.53339V1.56339C1.78002 1.56339 1.78002 1.60339 1.80002 1.61339C1.80002 1.62339 1.82002 1.63339 1.85002 1.64339C1.83002 1.64339 1.82002 1.65339 1.81002 1.66339C1.80002 1.68339 1.79002 1.69339 1.78002 1.71339C1.78002 1.86339 1.76002 1.94339 1.75002 1.96339C1.75002 1.98339 1.74002 2.00339 1.73002 2.01339C1.70002 2.07339 1.63002 2.11339 1.53002 2.11339C1.43002 2.11339 1.36002 2.08339 1.32002 2.03339C1.32002 2.02339 1.31002 2.00339 1.30002 1.99339C1.30002 1.96339 1.29002 1.93339 1.29002 1.91339V1.90339H1.46002C1.46002 1.90339 1.46002 1.90339 1.46002 1.93339C1.47002 1.98339 1.49002 2.00339 1.51002 2.00339C1.51002 2.00339 1.54002 1.98339 1.56002 1.93339C1.57002 1.88339 1.58002 1.83339 1.58002 1.78339C1.58002 1.75339 1.58002 1.73339 1.58002 1.72339H1.56002C1.56002 1.72339 1.50002 1.76339 1.47002 1.76339C1.43002 1.76339 1.39002 1.75339 1.35002 1.73339C1.33002 1.72339 1.32002 1.70339 1.31002 1.69339C1.31002 1.68339 1.29002 1.66339 1.29002 1.64339C1.28002 1.61339 1.27002 1.57339 1.27002 1.51339C1.27002 1.38339 1.31002 1.29339 1.40002 1.25339C1.43002 1.23339 1.47002 1.23339 1.51002 1.23339L1.52002 1.22339ZM1.47002 1.49339V1.51339C1.47002 1.51339 1.47002 1.58339 1.49002 1.61339C1.49002 1.62339 1.51002 1.63339 1.53002 1.63339C1.53002 1.63339 1.57002 1.61339 1.58002 1.58339C1.58002 1.57339 1.58002 1.56339 1.58002 1.55339V1.43339C1.58002 1.43339 1.58002 1.36339 1.55002 1.35339L1.53002 1.34339C1.50002 1.34339 1.49002 1.37339 1.48002 1.42339C1.48002 1.44339 1.48002 1.46339 1.48002 1.48339L1.47002 1.49339Z" fill="#B41818"/>
<path d="M6.32023 9.41319H6.30023C6.30023 9.41319 6.21023 9.40319 6.17023 9.38319C6.15023 9.37319 6.14023 9.36319 6.13023 9.35319C6.12023 9.34319 6.11023 9.32319 6.10023 9.31319C6.07023 9.26319 6.06023 9.19319 6.06023 9.10319V9.07319C6.06023 9.07319 6.06023 9.03319 6.04023 9.02319C6.04023 9.01319 6.02023 9.00319 5.99023 8.99319C6.01023 8.99319 6.02024 8.98319 6.03024 8.97319C6.04024 8.95319 6.05023 8.94319 6.06023 8.92319C6.06023 8.77319 6.08023 8.69319 6.09023 8.67319C6.09023 8.65319 6.10023 8.63319 6.11023 8.62319C6.14023 8.56319 6.21023 8.52319 6.31023 8.52319C6.41023 8.52319 6.48023 8.55319 6.52023 8.60319C6.52023 8.61319 6.53023 8.63319 6.54023 8.64319C6.54023 8.67319 6.55023 8.70319 6.55023 8.72319V8.73319H6.38023C6.38023 8.73319 6.38023 8.73319 6.38023 8.70319C6.37023 8.65319 6.35023 8.63319 6.33023 8.63319C6.33023 8.63319 6.30024 8.65319 6.28024 8.70319C6.27024 8.75319 6.26023 8.80319 6.26023 8.85319C6.26023 8.88319 6.26023 8.90319 6.26023 8.91319H6.28024C6.28024 8.91319 6.34024 8.87319 6.37024 8.87319C6.41024 8.87319 6.45023 8.88319 6.49023 8.90319C6.51023 8.91319 6.52024 8.93319 6.53024 8.94319C6.53024 8.95319 6.55023 8.97319 6.55023 8.99319C6.56023 9.02319 6.57023 9.07319 6.57023 9.12319C6.57023 9.25319 6.53024 9.34319 6.44024 9.38319C6.41024 9.40319 6.37023 9.40319 6.33023 9.40319L6.32023 9.41319ZM6.37024 9.14319V9.12319C6.37024 9.12319 6.37023 9.05319 6.35023 9.02319C6.35023 9.01319 6.33023 9.00319 6.31023 9.00319C6.31023 9.00319 6.27023 9.02319 6.26023 9.05319C6.26023 9.06319 6.26023 9.07319 6.26023 9.08319V9.19319C6.26023 9.19319 6.26023 9.26319 6.29023 9.27319L6.31023 9.28319C6.34023 9.28319 6.35023 9.25319 6.36023 9.20319C6.36023 9.18319 6.36023 9.16319 6.36023 9.14319H6.37024Z" fill="#B41818"/>
<path d="M2.87002 1.47339C2.76002 1.79339 2.52002 2.04339 2.27002 2.21339C2.52002 2.38339 2.76002 2.63339 2.87002 2.95339C2.98002 2.63339 3.22002 2.38339 3.47002 2.21339C3.22002 2.04339 2.98002 1.79339 2.87002 1.47339Z" fill="#B41818"/>
<path d="M2.87002 7.70337C2.76002 8.02337 2.52002 8.27337 2.27002 8.44337C2.52002 8.61337 2.76002 8.86337 2.87002 9.18337C2.98002 8.86337 3.22002 8.61337 3.47002 8.44337C3.22002 8.27337 2.98002 8.02337 2.87002 7.70337Z" fill="#B41818"/>
<path d="M5.01016 1.47339C4.90016 1.79339 4.66016 2.04339 4.41016 2.21339C4.66016 2.38339 4.90016 2.63339 5.01016 2.95339C5.12016 2.63339 5.36016 2.38339 5.61016 2.21339C5.36016 2.04339 5.12016 1.79339 5.01016 1.47339Z" fill="#B41818"/>
<path d="M2.87002 3.55347C2.76002 3.87347 2.52002 4.12347 2.27002 4.29347C2.52002 4.46347 2.76002 4.71347 2.87002 5.03347C2.98002 4.71347 3.22002 4.46347 3.47002 4.29347C3.22002 4.12347 2.98002 3.87347 2.87002 3.55347Z" fill="#B41818"/>
<path d="M5.01016 3.55347C4.90016 3.87347 4.66016 4.12347 4.41016 4.29347C4.66016 4.46347 4.90016 4.71347 5.01016 5.03347C5.12016 4.71347 5.36016 4.46347 5.61016 4.29347C5.36016 4.12347 5.12016 3.87347 5.01016 3.55347Z" fill="#B41818"/>
<path d="M3.97988 4.60327C3.86988 4.92327 3.62988 5.17327 3.37988 5.34327C3.62988 5.51327 3.86988 5.76327 3.97988 6.08327C4.08988 5.76327 4.32988 5.51327 4.57988 5.34327C4.32988 5.17327 4.08988 4.92327 3.97988 4.60327Z" fill="#B41818"/>
<path d="M2.87002 5.82349C2.76002 6.14349 2.52002 6.39349 2.27002 6.56349C2.52002 6.73349 2.76002 6.98349 2.87002 7.30349C2.98002 6.98349 3.22002 6.73349 3.47002 6.56349C3.22002 6.39349 2.98002 6.14349 2.87002 5.82349Z" fill="#B41818"/>
<path d="M5.01016 5.82349C4.90016 6.14349 4.66016 6.39349 4.41016 6.56349C4.66016 6.73349 4.90016 6.98349 5.01016 7.30349C5.12016 6.98349 5.36016 6.73349 5.61016 6.56349C5.36016 6.39349 5.12016 6.14349 5.01016 5.82349Z" fill="#B41818"/>
<path d="M5.01016 7.70337C4.90016 8.02337 4.66016 8.27337 4.41016 8.44337C4.66016 8.61337 4.90016 8.86337 5.01016 9.18337C5.12016 8.86337 5.36016 8.61337 5.61016 8.44337C5.36016 8.27337 5.12016 8.02337 5.01016 7.70337Z" fill="#B41818"/>
<path d="M1.59 2.32324C1.53 2.50324 1.39 2.64324 1.25 2.74324C1.39 2.84324 1.53 2.98324 1.59 3.16324C1.65 2.98324 1.79 2.84324 1.93 2.74324C1.79 2.64324 1.65 2.50324 1.59 2.32324Z" fill="#B41818"/>
<path d="M6.2902 7.4834C6.2202 7.6634 6.0902 7.8034 5.9502 7.9034C6.0902 8.0034 6.2302 8.1434 6.2902 8.3234C6.3502 8.1434 6.4902 8.0034 6.6302 7.9034C6.4902 7.8034 6.3502 7.6634 6.2902 7.4834Z" fill="#B41818"/>
</svg>
