<svg width="7" height="11" viewBox="0 0 7 11" fill="none" xmlns="http://www.w3.org/2000/svg">
<path d="M6.61977 10.0033H0.569763C0.399763 10.0033 0.259766 9.86333 0.259766 9.69333V0.97333C0.259766 0.80333 0.399763 0.66333 0.569763 0.66333H6.61977C6.78977 0.66333 6.92976 0.80333 6.92976 0.97333V9.69333C6.92976 9.86333 6.78977 10.0033 6.61977 10.0033ZM0.569763 0.67333C0.409763 0.67333 0.279762 0.80333 0.279762 0.96333V9.68333C0.279762 9.84333 0.409763 9.97333 0.569763 9.97333H6.61977C6.77977 9.97333 6.90977 9.84333 6.90977 9.68333V0.97333C6.90977 0.81333 6.77977 0.68333 6.61977 0.68333H0.569763V0.67333Z" fill="#3D3D3D"/>
<path d="M6.61998 10.0233H0.569977C0.379977 10.0233 0.22998 9.8733 0.22998 9.6833V0.973301C0.22998 0.783301 0.379977 0.633301 0.569977 0.633301H6.61998C6.80998 0.633301 6.95998 0.783301 6.95998 0.973301V9.6933C6.95998 9.8833 6.80998 10.0333 6.61998 10.0333V10.0233ZM0.569977 0.703301C0.419977 0.703301 0.309982 0.823301 0.309982 0.963301V9.6833C0.309982 9.8333 0.429977 9.9433 0.569977 9.9433H6.61998C6.76998 9.9433 6.87998 9.8233 6.87998 9.6833V0.973301C6.87998 0.823301 6.75998 0.713301 6.61998 0.713301H0.569977V0.703301Z" fill="#3D3D3D"/>
<path d="M6.44 9.7833H0.740005C0.610005 9.7833 0.5 9.6733 0.5 9.5433V1.1233C0.5 0.983301 0.610005 0.883301 0.740005 0.883301H6.44C6.57 0.883301 6.68 0.993301 6.68 1.1233V9.5433C6.68 9.6733 6.57 9.7833 6.44 9.7833ZM0.740005 0.933301C0.630005 0.933301 0.550003 1.0233 0.550003 1.1233V9.5433C0.550003 9.6533 0.640005 9.7333 0.740005 9.7333H6.44C6.55 9.7333 6.63 9.6433 6.63 9.5433V1.1233C6.63 1.0133 6.54 0.933301 6.44 0.933301H0.740005Z" fill="#3D3D3D"/>
<path d="M6.91998 4.29326C6.91998 4.29326 6.84998 4.28326 6.82998 4.29326C6.81998 4.29326 6.80998 4.31326 6.79998 4.31326C6.77998 4.32326 6.75998 4.33326 6.72998 4.33326C6.74998 4.33326 6.76998 4.33326 6.77998 4.33326C6.79998 4.33326 6.80998 4.31326 6.82998 4.31326C6.84998 4.31326 6.86998 4.31326 6.87998 4.32326C6.87998 4.32326 6.87998 4.34326 6.89998 4.32326C6.89998 4.32326 6.89998 4.30326 6.89998 4.29326H6.91998Z" fill="#3D3D3D"/>
<path d="M5.5498 0.65332C5.5498 0.65332 5.6098 0.70332 5.6098 0.75332C5.6098 0.80332 5.58981 0.84332 5.58981 0.89332C5.61981 0.82332 5.6498 0.76332 5.6498 0.68332C5.6698 0.68332 5.6898 0.67332 5.7198 0.67332C5.6698 0.67332 5.6298 0.65332 5.5498 0.65332Z" fill="#3D3D3D"/>
<path d="M5.8501 0.67334C5.8501 0.67334 5.8501 0.75334 5.8501 0.78334C5.8601 0.77334 5.8801 0.71334 5.8801 0.69334C5.8801 0.68334 5.8701 0.67334 5.8501 0.67334Z" fill="#3D3D3D"/>
<path d="M2.60986 0.66333C2.60986 0.66333 2.66986 0.69333 2.67986 0.71333C2.68986 0.73333 2.67987 0.76333 2.69987 0.78333C2.70987 0.81333 2.74986 0.80333 2.77986 0.81333C2.80986 0.81333 2.82986 0.83333 2.85986 0.84333C2.85986 0.82333 2.83986 0.81333 2.81986 0.80333C2.80986 0.80333 2.79986 0.80333 2.78986 0.80333H2.74986C2.74986 0.80333 2.72987 0.74333 2.72987 0.73333C2.72987 0.71333 2.74987 0.70333 2.76987 0.69333C2.75987 0.67333 2.65987 0.69333 2.62987 0.69333L2.60986 0.66333Z" fill="#3D3D3D"/>
<path d="M2.97021 0.67334C2.97021 0.67334 2.98022 0.71334 2.99022 0.73334C2.99022 0.75334 2.99022 0.76334 3.01022 0.77334C3.01022 0.75334 3.01022 0.72334 3.01022 0.69334C3.01022 0.67334 3.01022 0.67334 2.98022 0.67334H2.97021Z" fill="#3D3D3D"/>
<path d="M0.270069 1.12326C0.270069 1.12326 0.330068 1.12326 0.370068 1.13326C0.390068 1.13326 0.370067 1.13326 0.400067 1.13326C0.420067 1.13326 0.43007 1.13326 0.45007 1.13326C0.43007 1.13326 0.41007 1.13326 0.38007 1.13326C0.34007 1.13326 0.350067 1.13326 0.330067 1.11326C0.320067 1.11326 0.300064 1.11326 0.280064 1.11326C0.270064 1.11326 0.280069 1.10326 0.270069 1.09326C0.260069 1.09326 0.270069 1.12326 0.270069 1.13326V1.12326Z" fill="#3D3D3D"/>
<path d="M0.270069 9.29318C0.270069 9.29318 0.330068 9.29318 0.370068 9.30318C0.390068 9.30318 0.370067 9.30318 0.400067 9.30318C0.420067 9.30318 0.43007 9.30318 0.45007 9.30318C0.43007 9.30318 0.41007 9.30318 0.38007 9.30318C0.34007 9.30318 0.350067 9.30318 0.330067 9.28318C0.320067 9.28318 0.300064 9.28318 0.280064 9.28318C0.270064 9.28318 0.280069 9.27318 0.270069 9.26318C0.260069 9.26318 0.270069 9.29318 0.270069 9.30318V9.29318Z" fill="#3D3D3D"/>
<path d="M0.280162 0.883352H0.360164C0.370164 0.863352 0.310168 0.873352 0.310168 0.853352C0.310168 0.843352 0.330163 0.823352 0.320163 0.813352C0.320163 0.783352 0.260167 0.843352 0.270167 0.873352L0.280162 0.883352Z" fill="#3D3D3D"/>
<path d="M4.14988 0.66333C4.14988 0.66333 4.14988 0.66333 4.15988 0.68333C4.15988 0.68333 4.15988 0.70333 4.15988 0.71333C4.15988 0.73333 4.15988 0.75333 4.15988 0.77333C4.15988 0.76333 4.15988 0.75333 4.15988 0.73333C4.15988 0.72333 4.15988 0.71333 4.16988 0.70333C4.16988 0.69333 4.16988 0.69333 4.16988 0.67333C4.16988 0.67333 4.16988 0.67333 4.14988 0.67333C4.14988 0.67333 4.13988 0.67333 4.12988 0.67333L4.14988 0.66333Z" fill="#3D3D3D"/>
<path d="M4.3999 10.0032C4.3999 10.0032 4.4599 9.95318 4.4599 9.90318C4.4599 9.85318 4.4399 9.81318 4.4399 9.76318C4.4699 9.83318 4.4999 9.89318 4.4999 9.97318C4.5199 9.97318 4.5399 9.98318 4.5699 9.98318C4.5199 9.98318 4.4799 10.0032 4.3999 10.0032Z" fill="#3D3D3D"/>
<path d="M0.25 8.76318C0.25 8.76318 0.300001 8.82318 0.360001 8.82318C0.410001 8.82318 0.45 8.80318 0.5 8.80318C0.43 8.83318 0.360001 8.86318 0.290001 8.86318C0.290001 8.88318 0.279999 8.90318 0.279999 8.93318C0.279999 8.88318 0.260002 8.84318 0.260002 8.76318H0.25Z" fill="#3D3D3D"/>
<path d="M4.70996 9.98329C4.70996 9.98329 4.70996 9.90329 4.70996 9.87329C4.71996 9.88329 4.73997 9.94329 4.73997 9.96329C4.73997 9.97329 4.72996 9.98329 4.70996 9.98329Z" fill="#3D3D3D"/>
<path d="M1.45996 9.98322C1.45996 9.98322 1.51996 9.95322 1.52996 9.93322C1.53996 9.91322 1.52996 9.88322 1.54996 9.86322C1.55996 9.83322 1.59997 9.84322 1.62997 9.83322C1.65997 9.83322 1.67996 9.81322 1.70996 9.80322C1.70996 9.82322 1.68996 9.83322 1.66996 9.84322C1.65996 9.84322 1.64996 9.84322 1.63996 9.84322H1.59996C1.59996 9.84322 1.57996 9.90322 1.57996 9.91322C1.57996 9.93322 1.59996 9.94322 1.61996 9.95322C1.60996 9.97322 1.50997 9.95322 1.47997 9.95322L1.45996 9.98322Z" fill="#3D3D3D"/>
<path d="M1.81982 9.9833C1.81982 9.9833 1.82983 9.9433 1.83983 9.9233C1.83983 9.9033 1.83983 9.8933 1.85983 9.8833C1.85983 9.9033 1.85983 9.9333 1.85983 9.9633C1.85983 9.9833 1.85983 9.9833 1.82983 9.9833H1.81982Z" fill="#3D3D3D"/>
<path d="M2.99998 9.98329C2.99998 9.98329 2.99998 9.98329 3.00998 9.96329C3.00998 9.96329 3.00998 9.94329 3.00998 9.93329C3.00998 9.91329 3.00998 9.89329 3.00998 9.87329C3.00998 9.88329 3.00998 9.89329 3.00998 9.91329C3.00998 9.92329 3.00998 9.93329 3.01998 9.94329C3.01998 9.95329 3.01998 9.95329 3.01998 9.97329C3.01998 9.97329 3.01998 9.97329 2.99998 9.97329C2.99998 9.97329 2.98998 9.97329 2.97998 9.97329L2.99998 9.98329Z" fill="#3D3D3D"/>
<path d="M6.9201 2.26318C6.8501 2.26318 6.7701 2.26318 6.7001 2.26318C6.6601 2.26318 6.6601 2.26318 6.6401 2.29318C6.6001 2.34318 6.5301 2.34318 6.4701 2.35318C6.4301 2.36318 6.3901 2.37318 6.3501 2.37318C6.3801 2.40318 6.4801 2.37318 6.5201 2.36318C6.5501 2.36318 6.5901 2.34318 6.6201 2.32318C6.6601 2.29318 6.6701 2.28318 6.7201 2.28318C6.7601 2.28318 6.7901 2.28318 6.8401 2.28318C6.8501 2.28318 6.8701 2.28318 6.8901 2.28318C6.9101 2.28318 6.9101 2.29318 6.9301 2.30318C6.9301 2.29318 6.9301 2.28318 6.9301 2.26318H6.9201Z" fill="#3D3D3D"/>
<path d="M6.90974 7.46338C6.83974 7.46338 6.75974 7.46338 6.68974 7.46338C6.64974 7.46338 6.63974 7.49338 6.60974 7.51338C6.57974 7.53338 6.52975 7.54338 6.48975 7.54338C6.52975 7.54338 6.56974 7.54338 6.60974 7.53338C6.64974 7.50338 6.65974 7.49338 6.70974 7.49338C6.77974 7.48338 6.82974 7.49338 6.86974 7.56338C6.88974 7.60338 6.89974 7.61338 6.89974 7.65338C6.89974 7.62338 6.90974 7.59338 6.91974 7.56338C6.91974 7.53338 6.91974 7.50338 6.91974 7.47338L6.90974 7.46338Z" fill="#3D3D3D"/>
<path d="M6.90977 2.51318C6.90977 2.51318 6.79977 2.51318 6.75977 2.52318C6.78977 2.52318 6.80977 2.52318 6.83977 2.52318C6.84977 2.52318 6.85977 2.53318 6.87977 2.54318C6.90977 2.54318 6.92976 2.54318 6.91976 2.51318H6.90977Z" fill="#3D3D3D"/>
<path d="M6.91 2.07323C6.91 2.07323 6.78 2.15323 6.75 2.14323C6.78 2.11323 6.82 2.11323 6.85 2.09323C6.87 2.08323 6.89 2.06323 6.92 2.06323H6.91V2.07323Z" fill="#3D3D3D"/>
<path d="M0.25 3.28319C0.25 3.28319 0.290005 3.31319 0.310005 3.32319C0.330005 3.33319 0.380002 3.33319 0.400002 3.33319C0.490002 3.33319 0.550005 3.31319 0.630005 3.29319C0.570005 3.34319 0.510002 3.35319 0.440002 3.35319C0.380002 3.35319 0.28 3.35319 0.25 3.27319V3.28319Z" fill="#3D3D3D"/>
<path d="M0.269827 3.15328C0.269827 3.07328 0.399821 3.08328 0.459821 3.06328C0.419821 3.05328 0.349827 3.06328 0.309827 3.06328C0.229827 3.06328 0.259821 3.09328 0.279821 3.14328L0.269827 3.15328Z" fill="#3D3D3D"/>
<path d="M0.279785 6.74327C0.279785 6.67327 0.389787 6.70327 0.429787 6.70327C0.469787 6.70327 0.469792 6.68327 0.489792 6.65327C0.499792 6.63327 0.519785 6.61327 0.529785 6.60327C0.489785 6.63327 0.499785 6.70327 0.459785 6.72327C0.409785 6.75327 0.329787 6.70327 0.289787 6.75327C0.289787 6.75327 0.289787 6.73327 0.289787 6.74327H0.279785Z" fill="#3D3D3D"/>
<path d="M0.269868 5.20336C0.269868 5.20336 0.269868 5.24336 0.269868 5.25336C0.269868 5.25336 0.299866 5.28336 0.299866 5.29336C0.299866 5.32336 0.259865 5.33336 0.259865 5.36336C0.259865 5.32336 0.239865 5.23336 0.259865 5.19336L0.269868 5.20336Z" fill="#3D3D3D"/>
<path d="M0.279762 5.3833C0.279762 5.3833 0.319767 5.4033 0.339767 5.4033C0.369767 5.4033 0.369763 5.4033 0.389763 5.4233C0.429763 5.4533 0.439767 5.4033 0.479767 5.4033C0.459767 5.4233 0.439762 5.4233 0.419762 5.4333C0.389762 5.4433 0.389766 5.4333 0.369766 5.4233C0.359766 5.4233 0.319767 5.4233 0.299767 5.4233C0.279767 5.4233 0.279762 5.4733 0.279762 5.4933C0.279762 5.5233 0.309765 5.5233 0.329765 5.5333C0.319765 5.5333 0.289764 5.5333 0.289764 5.5333C0.289764 5.5333 0.289768 5.5333 0.269768 5.5333C0.269768 5.5333 0.259766 5.5033 0.259766 5.4933C0.259766 5.4533 0.259762 5.4233 0.279762 5.3933V5.3833Z" fill="#3D3D3D"/>
<path d="M0.269768 6.60321C0.269768 6.60321 0.349768 6.60321 0.379768 6.56321C0.369768 6.56321 0.349765 6.56321 0.329765 6.56321C0.299765 6.56321 0.279766 6.55321 0.259766 6.54321C0.259766 6.56321 0.259766 6.58321 0.259766 6.59321H0.269768C0.269768 6.59321 0.269768 6.60321 0.269768 6.61321V6.60321Z" fill="#3D3D3D"/>
<path d="M1.0498 2.82324C1.0498 2.82324 1.0498 2.82324 1.0498 2.83324C1.0498 2.83324 1.04981 2.83324 1.05981 2.82324H1.0498Z" fill="white"/>
<path d="M1.36988 1.2334V1.7334H1.43988V1.9134H1.36988C1.36988 1.9134 1.36988 1.9834 1.36988 1.9934C1.36988 1.9934 1.38988 2.0034 1.39988 2.0034H1.42988V2.1034H1.09988V2.0034H1.12988C1.12988 2.0034 1.15988 2.0034 1.15988 1.9734V1.9134H0.879883V1.7234C0.879883 1.7234 0.919878 1.6534 0.999878 1.5234C1.08988 1.3734 1.14988 1.2734 1.17988 1.2334H1.36988ZM1.17988 1.5234C1.17988 1.5234 1.12988 1.6034 1.04988 1.7434H1.18988V1.5334L1.17988 1.5234Z" fill="#B41818"/>
<path d="M5.79021 9.4032V8.9032H5.72021V8.7232H5.79021C5.79021 8.7232 5.79021 8.6532 5.79021 8.6432C5.79021 8.6432 5.77022 8.6332 5.76022 8.6332H5.73022V8.5332H6.06022V8.6332H6.03021C6.03021 8.6332 6.00021 8.6332 6.00021 8.6632V8.7232H6.28021V8.9132C6.28021 8.9132 6.24022 8.9832 6.16022 9.1132C6.07022 9.2632 6.01022 9.3632 5.98022 9.4032H5.79021ZM5.98022 9.1232C5.98022 9.1232 6.03021 9.0432 6.11021 8.9032H5.98022V9.1132V9.1232Z" fill="#B41818"/>
<path d="M2.51993 1.47339C2.40993 1.79339 2.16992 2.04339 1.91992 2.21339C2.16992 2.38339 2.40993 2.63339 2.51993 2.95339C2.62993 2.63339 2.86993 2.38339 3.11993 2.21339C2.86993 2.04339 2.62993 1.79339 2.51993 1.47339Z" fill="#B41818"/>
<path d="M2.51993 7.70337C2.40993 8.02337 2.16992 8.27337 1.91992 8.44337C2.16992 8.61337 2.40993 8.86337 2.51993 9.18337C2.62993 8.86337 2.86993 8.61337 3.11993 8.44337C2.86993 8.27337 2.62993 8.02337 2.51993 7.70337Z" fill="#B41818"/>
<path d="M4.66006 1.47339C4.55006 1.79339 4.31006 2.04339 4.06006 2.21339C4.31006 2.38339 4.55006 2.63339 4.66006 2.95339C4.77006 2.63339 5.01006 2.38339 5.26006 2.21339C5.01006 2.04339 4.77006 1.79339 4.66006 1.47339Z" fill="#B41818"/>
<path d="M4.66006 7.70337C4.55006 8.02337 4.31006 8.27337 4.06006 8.44337C4.31006 8.61337 4.55006 8.86337 4.66006 9.18337C4.77006 8.86337 5.01006 8.61337 5.26006 8.44337C5.01006 8.27337 4.77006 8.02337 4.66006 7.70337Z" fill="#B41818"/>
<path d="M1.23991 2.32324C1.17991 2.50324 1.0399 2.64324 0.899902 2.74324C1.0399 2.84324 1.17991 2.98324 1.23991 3.16324C1.30991 2.98324 1.4399 2.84324 1.5799 2.74324C1.4399 2.64324 1.29991 2.50324 1.23991 2.32324Z" fill="#B41818"/>
<path d="M5.9401 7.4834C5.8801 7.6634 5.7401 7.8034 5.6001 7.9034C5.7401 8.0034 5.8801 8.1434 5.9401 8.3234C6.0001 8.1434 6.1401 8.0034 6.2801 7.9034C6.1401 7.8034 6.0001 7.6634 5.9401 7.4834Z" fill="#B41818"/>
</svg>
