<svg width="7" height="11" viewBox="0 0 7 11" fill="none" xmlns="http://www.w3.org/2000/svg">
<path d="M6.42982 10.1466H0.379826C0.209826 10.1466 0.0698242 10.0066 0.0698242 9.83664V1.11664C0.0698242 0.946641 0.209826 0.806641 0.379826 0.806641H6.42982C6.59982 0.806641 6.73983 0.946641 6.73983 1.11664V9.83664C6.73983 10.0066 6.59982 10.1466 6.42982 10.1466ZM0.379826 0.826641C0.219826 0.826641 0.0898247 0.956641 0.0898247 1.11664V9.83664C0.0898247 9.99664 0.219826 10.1266 0.379826 10.1266H6.42982C6.58982 10.1266 6.71983 9.99664 6.71983 9.83664V1.11664C6.71983 0.956641 6.58982 0.826641 6.42982 0.826641H0.379826Z" fill="#3D3D3D"/>
<path d="M6.43004 10.1666H0.380039C0.190039 10.1666 0.0400391 10.0166 0.0400391 9.8266V1.1066C0.0400391 0.916602 0.190039 0.766602 0.380039 0.766602H6.43004C6.62004 0.766602 6.77004 0.916602 6.77004 1.1066V9.8266C6.77004 10.0166 6.62004 10.1666 6.43004 10.1666ZM0.380039 0.846602C0.230039 0.846602 0.120037 0.966602 0.120037 1.1066V9.8266C0.120037 9.9766 0.240039 10.0866 0.380039 10.0866H6.43004C6.58004 10.0866 6.69004 9.9666 6.69004 9.8266V1.1066C6.69004 0.956602 6.57004 0.846602 6.43004 0.846602H0.380039Z" fill="#3D3D3D"/>
<path d="M6.25006 9.92661H0.550056C0.420056 9.92661 0.310059 9.81661 0.310059 9.68661V1.26661C0.310059 1.13661 0.420056 1.02661 0.550056 1.02661H6.25006C6.38006 1.02661 6.49006 1.13661 6.49006 1.26661V9.68661C6.49006 9.81661 6.38006 9.92661 6.25006 9.92661ZM0.550056 1.07661C0.440056 1.07661 0.360058 1.16661 0.360058 1.26661V9.68661C0.360058 9.79661 0.450056 9.87661 0.550056 9.87661H6.25006C6.36006 9.87661 6.44006 9.78661 6.44006 9.68661V1.26661C6.44006 1.15661 6.35006 1.07661 6.25006 1.07661H0.550056Z" fill="#3D3D3D"/>
<path d="M6.73004 4.44658C6.73004 4.44658 6.66004 4.43658 6.64004 4.44658C6.63004 4.44658 6.62004 4.45658 6.61004 4.46658C6.59004 4.47658 6.57004 4.48658 6.54004 4.48658C6.56004 4.48658 6.58004 4.48658 6.59004 4.48658C6.61004 4.48658 6.62004 4.46658 6.64004 4.46658C6.66004 4.46658 6.68004 4.46658 6.69004 4.47658C6.69004 4.47658 6.69004 4.49658 6.71004 4.47658C6.71004 4.47658 6.71004 4.45658 6.71004 4.44658H6.73004Z" fill="#3D3D3D"/>
<path d="M5.35986 0.796631C5.35986 0.796631 5.41986 0.84663 5.41986 0.89663C5.41986 0.94663 5.39986 0.986631 5.39986 1.03663C5.42986 0.966631 5.45986 0.906631 5.45986 0.826631C5.47986 0.826631 5.49986 0.81663 5.52986 0.81663C5.47986 0.81663 5.43986 0.796631 5.35986 0.796631Z" fill="#3D3D3D"/>
<path d="M5.66992 0.81665C5.66992 0.81665 5.66992 0.896651 5.66992 0.926651C5.67992 0.916651 5.69992 0.856651 5.69992 0.836651C5.69992 0.826651 5.68992 0.81665 5.66992 0.81665Z" fill="#3D3D3D"/>
<path d="M2.41992 0.81665C2.41992 0.81665 2.47992 0.846651 2.48992 0.866651C2.49992 0.886651 2.48992 0.91665 2.50992 0.93665C2.51992 0.96665 2.55992 0.956651 2.58992 0.966651C2.61992 0.966651 2.63992 0.986651 2.66992 0.996651C2.66992 0.976651 2.64992 0.966651 2.62992 0.956651C2.61992 0.956651 2.60992 0.956651 2.59992 0.956651H2.55992C2.55992 0.956651 2.53992 0.896651 2.53992 0.886651C2.53992 0.866651 2.55992 0.856651 2.57992 0.846651C2.56992 0.826651 2.46992 0.846651 2.43992 0.846651L2.41992 0.81665Z" fill="#3D3D3D"/>
<path d="M2.78027 0.81665C2.78027 0.81665 2.79027 0.856651 2.80027 0.876651C2.80027 0.896651 2.80027 0.906651 2.82027 0.916651C2.82027 0.896651 2.82027 0.866651 2.82027 0.836651C2.82027 0.816651 2.82028 0.81665 2.79028 0.81665H2.78027Z" fill="#3D3D3D"/>
<path d="M0.080128 1.26657C0.080128 1.26657 0.140127 1.26657 0.180127 1.27657C0.200127 1.27657 0.180125 1.27657 0.210125 1.27657C0.230125 1.27657 0.240125 1.27657 0.260125 1.27657C0.240125 1.27657 0.220125 1.27657 0.190125 1.27657C0.150125 1.27657 0.160126 1.27657 0.140126 1.25657C0.130126 1.25657 0.110126 1.25657 0.0901264 1.25657C0.0801264 1.25657 0.090128 1.24657 0.080128 1.23657C0.070128 1.23657 0.080128 1.26657 0.080128 1.27657V1.26657Z" fill="#3D3D3D"/>
<path d="M0.080128 9.43649C0.080128 9.43649 0.140127 9.4365 0.180127 9.4465C0.200127 9.4465 0.180125 9.4465 0.210125 9.4465C0.230125 9.4465 0.240125 9.4465 0.260125 9.4465C0.240125 9.4465 0.220125 9.4465 0.190125 9.4465C0.150125 9.4465 0.160126 9.44649 0.140126 9.42649C0.130126 9.42649 0.110126 9.42649 0.0901264 9.42649C0.0801264 9.42649 0.090128 9.41649 0.080128 9.40649C0.070128 9.40649 0.080128 9.4365 0.080128 9.4465V9.43649Z" fill="#3D3D3D"/>
<path d="M0.0902242 1.02666H0.170226C0.180226 1.00666 0.120223 1.01666 0.120223 0.996663C0.120223 0.986663 0.140225 0.966663 0.130225 0.956663C0.130225 0.926663 0.0702258 0.986662 0.0802258 1.01666L0.0902242 1.02666Z" fill="#3D3D3D"/>
<path d="M3.95994 0.81665C3.95994 0.81665 3.95994 0.816651 3.96994 0.836651C3.96994 0.836651 3.96994 0.856651 3.96994 0.866651C3.96994 0.886651 3.96994 0.906651 3.96994 0.926651C3.96994 0.916651 3.96994 0.906651 3.96994 0.886651C3.96994 0.876651 3.96994 0.86665 3.97994 0.85665C3.97994 0.84665 3.97994 0.836651 3.97994 0.826651C3.97994 0.826651 3.97994 0.826651 3.95994 0.826651C3.95994 0.826651 3.94994 0.826651 3.93994 0.826651L3.95994 0.81665Z" fill="#3D3D3D"/>
<path d="M4.20996 10.1465C4.20996 10.1465 4.26996 10.0965 4.26996 10.0465C4.26996 9.99649 4.24996 9.95649 4.24996 9.90649C4.27996 9.97649 4.30996 10.0365 4.30996 10.1165C4.32996 10.1165 4.34996 10.1265 4.37996 10.1265C4.32996 10.1265 4.28996 10.1465 4.20996 10.1465Z" fill="#3D3D3D"/>
<path d="M0.0600586 8.90649C0.0600586 8.90649 0.110057 8.96649 0.160057 8.96649C0.210057 8.96649 0.250056 8.9465 0.300056 8.9465C0.230056 8.9765 0.160057 9.00649 0.0900574 9.00649C0.0900574 9.02649 0.0800591 9.04649 0.0800591 9.07649C0.0800591 9.02649 0.0600586 8.98649 0.0600586 8.90649Z" fill="#3D3D3D"/>
<path d="M4.52002 10.1266C4.52002 10.1266 4.52002 10.0466 4.52002 10.0166C4.53002 10.0266 4.55002 10.0866 4.55002 10.1066C4.55002 10.1166 4.54002 10.1266 4.52002 10.1266Z" fill="#3D3D3D"/>
<path d="M1.27002 10.1265C1.27002 10.1265 1.33002 10.0965 1.34002 10.0765C1.35002 10.0565 1.34002 10.0265 1.36002 10.0065C1.37002 9.97653 1.41002 9.98653 1.44002 9.97653C1.47002 9.97653 1.49002 9.95653 1.52002 9.94653C1.52002 9.96653 1.50002 9.97653 1.48002 9.98653C1.47002 9.98653 1.46002 9.98653 1.45002 9.98653H1.41002C1.41002 9.98653 1.39002 10.0465 1.39002 10.0565C1.39002 10.0765 1.41002 10.0865 1.43002 10.0965C1.42002 10.1165 1.32002 10.0965 1.29002 10.0965L1.27002 10.1265Z" fill="#3D3D3D"/>
<path d="M1.62988 10.1266C1.62988 10.1266 1.63988 10.0866 1.64988 10.0666C1.64988 10.0466 1.64988 10.0366 1.66988 10.0266C1.66988 10.0466 1.66988 10.0766 1.66988 10.1066C1.66988 10.1266 1.66988 10.1266 1.63988 10.1266H1.62988Z" fill="#3D3D3D"/>
<path d="M2.81004 10.1266C2.81004 10.1266 2.81004 10.1266 2.82004 10.1066C2.82004 10.1066 2.82004 10.0866 2.82004 10.0766C2.82004 10.0566 2.82004 10.0366 2.82004 10.0166C2.82004 10.0266 2.82004 10.0366 2.82004 10.0566C2.82004 10.0666 2.82004 10.0766 2.83004 10.0866C2.83004 10.0966 2.83004 10.0966 2.83004 10.1166C2.83004 10.1166 2.83004 10.1166 2.81004 10.1166C2.81004 10.1166 2.80004 10.1166 2.79004 10.1166L2.81004 10.1266Z" fill="#3D3D3D"/>
<path d="M6.73016 2.40649C6.66016 2.40649 6.58015 2.40649 6.51015 2.40649C6.47015 2.40649 6.47016 2.40649 6.45016 2.43649C6.41016 2.48649 6.34016 2.48649 6.28016 2.49649C6.24016 2.50649 6.20016 2.51649 6.16016 2.51649C6.19016 2.54649 6.29016 2.51649 6.33016 2.50649C6.36016 2.50649 6.40016 2.48649 6.43016 2.47649C6.47016 2.44649 6.48016 2.43649 6.53016 2.43649C6.57016 2.43649 6.60016 2.43649 6.65016 2.43649C6.66016 2.43649 6.68016 2.43649 6.70016 2.43649C6.72016 2.43649 6.72016 2.44649 6.74016 2.45649C6.74016 2.44649 6.74016 2.43649 6.74016 2.41649L6.73016 2.40649Z" fill="#3D3D3D"/>
<path d="M6.71981 7.60669C6.64981 7.60669 6.56981 7.60669 6.49981 7.60669C6.45981 7.60669 6.44981 7.63669 6.41981 7.65669C6.38981 7.67669 6.3398 7.68669 6.2998 7.68669C6.3398 7.68669 6.37981 7.68669 6.41981 7.67669C6.45981 7.64669 6.46981 7.63669 6.51981 7.63669C6.58981 7.62669 6.63981 7.63669 6.67981 7.70669C6.69981 7.74669 6.7098 7.75669 6.7098 7.79669C6.7098 7.76669 6.7198 7.73669 6.7298 7.70669C6.7298 7.67669 6.7298 7.64669 6.7298 7.61669L6.71981 7.60669Z" fill="#3D3D3D"/>
<path d="M6.71983 2.65649C6.71983 2.65649 6.60982 2.65649 6.56982 2.66649C6.59982 2.66649 6.61983 2.66649 6.64983 2.66649C6.65983 2.66649 6.66982 2.67649 6.68982 2.68649C6.71982 2.68649 6.73982 2.68649 6.72982 2.65649H6.71983Z" fill="#3D3D3D"/>
<path d="M6.72006 2.21654C6.72006 2.21654 6.59006 2.29654 6.56006 2.28654C6.59006 2.25654 6.63006 2.25654 6.66006 2.23654C6.68006 2.22654 6.70006 2.20654 6.73006 2.20654H6.72006V2.21654Z" fill="#3D3D3D"/>
<path d="M0.0600586 3.4265C0.0600586 3.4265 0.100056 3.4565 0.120056 3.4665C0.140056 3.4765 0.190056 3.4765 0.210056 3.4765C0.300056 3.4765 0.360056 3.4565 0.440056 3.4365C0.380056 3.4865 0.320057 3.4965 0.250057 3.4965C0.190057 3.4965 0.0900586 3.4965 0.0600586 3.4165V3.4265Z" fill="#3D3D3D"/>
<path d="M0.0798851 3.29659C0.0798851 3.21659 0.209884 3.22659 0.269884 3.20659C0.229884 3.19659 0.159882 3.20659 0.119882 3.20659C0.0398822 3.20659 0.0698834 3.23659 0.0898834 3.28659L0.0798851 3.29659Z" fill="#3D3D3D"/>
<path d="M0.0898438 6.88658C0.0898438 6.81658 0.199845 6.84658 0.239845 6.84658C0.279845 6.84658 0.279843 6.82658 0.299843 6.79658C0.309843 6.77658 0.329844 6.75658 0.339844 6.74658C0.299844 6.77658 0.309844 6.84658 0.269844 6.86658C0.219844 6.89658 0.139842 6.84658 0.0998421 6.89658C0.0998421 6.89658 0.0998421 6.87658 0.0998421 6.88658H0.0898438Z" fill="#3D3D3D"/>
<path d="M0.0901763 5.34667C0.0901763 5.34667 0.0901763 5.38667 0.0901763 5.39667C0.0901763 5.39667 0.120175 5.42667 0.120175 5.43667C0.120175 5.46667 0.080178 5.47667 0.080178 5.50667C0.080178 5.46667 0.060178 5.37667 0.080178 5.33667L0.0901763 5.34667Z" fill="#3D3D3D"/>
<path d="M0.0898247 5.52661C0.0898247 5.52661 0.129826 5.54661 0.149826 5.54661C0.179826 5.54661 0.179825 5.54661 0.199825 5.56661C0.239825 5.59661 0.249825 5.54661 0.289825 5.54661C0.269825 5.56661 0.249824 5.56661 0.229824 5.57661C0.199824 5.58661 0.199825 5.57661 0.179825 5.56661C0.169825 5.56661 0.129825 5.56661 0.109825 5.56661C0.0898251 5.56661 0.0898247 5.61661 0.0898247 5.63661C0.0898247 5.66661 0.119824 5.66661 0.139824 5.67661C0.129824 5.67661 0.099823 5.67661 0.099823 5.67661C0.099823 5.67661 0.0998264 5.67661 0.0798264 5.67661C0.0798264 5.67661 0.0698242 5.64661 0.0698242 5.63661C0.0698242 5.59661 0.0698247 5.56661 0.0898247 5.53661V5.52661Z" fill="#3D3D3D"/>
<path d="M0.0798264 6.74652C0.0798264 6.74652 0.159823 6.74652 0.189823 6.70652C0.179823 6.70652 0.159824 6.70652 0.139824 6.70652C0.109824 6.70652 0.0898242 6.69652 0.0698242 6.68652C0.0698242 6.70652 0.0698242 6.72652 0.0698242 6.73652H0.0798264C0.0798264 6.73652 0.0798264 6.74652 0.0798264 6.75652V6.74652Z" fill="#3D3D3D"/>
<path d="M0.870117 2.96655C0.870117 2.96655 0.870117 2.96655 0.870117 2.97655C0.870117 2.97655 0.870119 2.97655 0.880119 2.96655H0.870117Z" fill="white"/>
<path d="M0.780273 1.38672H1.27028V1.52672C1.27028 1.52672 1.24028 1.58672 1.20028 1.70672C1.20028 1.72672 1.19027 1.73672 1.19027 1.73672C1.19027 1.73672 1.21028 1.79672 1.24028 1.80672C1.24028 1.80672 1.21028 1.80672 1.20028 1.81672C1.18028 1.81672 1.17028 1.83672 1.17028 1.84672C1.17028 1.84672 1.15028 1.86672 1.15028 1.87672C1.15028 1.87672 1.15028 1.88672 1.15028 1.89672C1.15028 1.89672 1.15027 1.91672 1.14027 1.94672C1.13027 1.99672 1.11027 2.06672 1.10027 2.15672C1.10027 2.20672 1.10027 2.23672 1.10027 2.24672H0.860275C0.860275 2.19672 0.870276 2.14672 0.880276 2.10672C0.900276 2.00672 0.930275 1.92672 0.950275 1.85672C0.950275 1.83672 0.940275 1.81672 0.910275 1.79672C0.910275 1.79672 0.910276 1.79672 0.900276 1.79672C0.900276 1.79672 0.930273 1.79672 0.940273 1.78672C0.960273 1.78672 0.970276 1.76672 0.970276 1.76672C0.980276 1.74672 0.990276 1.73672 0.990276 1.73672C1.03028 1.65672 1.07028 1.57672 1.11028 1.50672H1.00027C1.00027 1.50672 0.950273 1.52672 0.940273 1.55672C0.930273 1.60672 0.920277 1.63672 0.920277 1.65672H0.790276V1.39672L0.780273 1.38672Z" fill="#B41818"/>
<path d="M6.00026 9.54652H5.51025V9.40652C5.51025 9.40652 5.54026 9.34652 5.58026 9.22652C5.58026 9.20652 5.59026 9.19652 5.59026 9.19652C5.59026 9.19652 5.57026 9.13652 5.54026 9.12652C5.54026 9.12652 5.57026 9.12652 5.58026 9.11652C5.60026 9.11652 5.61026 9.09652 5.61026 9.08652C5.61026 9.08652 5.63026 9.06652 5.63026 9.05652C5.63026 9.05652 5.63026 9.04652 5.63026 9.03652C5.63026 9.03652 5.63025 9.01652 5.64025 8.98652C5.65025 8.93652 5.67026 8.86652 5.68026 8.77652C5.68026 8.72652 5.68026 8.69652 5.68026 8.68652H5.92026C5.92026 8.73652 5.91026 8.78652 5.90026 8.82652C5.88026 8.92652 5.85026 9.00652 5.83026 9.07652C5.83026 9.09652 5.84025 9.11652 5.87025 9.13652C5.87025 9.13652 5.87026 9.13652 5.88026 9.13652C5.88026 9.13652 5.85026 9.13652 5.84026 9.14652C5.82026 9.14652 5.81026 9.16652 5.81026 9.16652C5.80026 9.18652 5.79026 9.19652 5.79026 9.19652C5.75026 9.27652 5.71026 9.35652 5.67026 9.42652H5.78025C5.78025 9.42652 5.83026 9.40652 5.84026 9.37652C5.85026 9.32652 5.86026 9.29652 5.86026 9.27652H5.99026V9.53652L6.00026 9.54652Z" fill="#B41818"/>
<path d="M1.0501 2.60655C1.0501 2.60655 1.0501 2.61655 1.0301 2.62655C1.0301 2.61655 1.0101 2.60655 1.0101 2.60655C0.860101 2.41655 0.550104 2.62655 0.700104 2.83655C0.790104 2.95655 0.970102 2.96655 1.0301 3.17655C1.0901 2.97655 1.2701 2.96655 1.3601 2.83655C1.5101 2.62655 1.2001 2.41655 1.0501 2.60655Z" fill="#B41818"/>
<path d="M5.76997 8.31658C5.76997 8.31658 5.76997 8.30658 5.74997 8.29658C5.74997 8.30658 5.72997 8.31658 5.72997 8.31658C5.58997 8.50658 5.26997 8.29658 5.41997 8.08658C5.50997 7.96658 5.68997 7.95658 5.74997 7.74658C5.80997 7.94658 5.98997 7.95658 6.07997 8.08658C6.22997 8.29658 5.91997 8.50658 5.76997 8.31658Z" fill="#B41818"/>
<path d="M2.34995 5.06667C2.34995 5.06667 2.33995 5.08667 2.31995 5.10667C2.30995 5.08667 2.28995 5.06667 2.28995 5.06667C2.04995 4.74667 1.53995 5.10667 1.77995 5.44667C1.91995 5.64667 2.21995 5.66667 2.31995 5.99667C2.41995 5.66667 2.70995 5.64667 2.85995 5.44667C3.09995 5.10667 2.58995 4.74667 2.34995 5.06667Z" fill="#B41818"/>
<path d="M2.34995 1.95656C2.34995 1.95656 2.33995 1.97656 2.31995 1.99656C2.30995 1.97656 2.28995 1.95656 2.28995 1.95656C2.04995 1.63656 1.53995 1.99656 1.77995 2.33656C1.91995 2.53656 2.21995 2.55656 2.31995 2.88656C2.41995 2.55656 2.70995 2.53656 2.85995 2.33656C3.09995 1.99656 2.58995 1.63656 2.34995 1.95656Z" fill="#B41818"/>
<path d="M2.34995 8.98664C2.34995 8.98664 2.33995 8.96664 2.31995 8.94664C2.30995 8.96664 2.28995 8.98664 2.28995 8.98664C2.04995 9.30664 1.53995 8.94664 1.77995 8.60664C1.91995 8.40664 2.21995 8.38664 2.31995 8.05664C2.41995 8.38664 2.70995 8.40664 2.85995 8.60664C3.09995 8.94664 2.58995 9.30664 2.34995 8.98664Z" fill="#B41818"/>
<path d="M4.49008 5.06667C4.49008 5.06667 4.48008 5.08667 4.46008 5.10667C4.45008 5.08667 4.43008 5.06667 4.43008 5.06667C4.19008 4.74667 3.68008 5.10667 3.92008 5.44667C4.06008 5.64667 4.36008 5.66667 4.46008 5.99667C4.56008 5.66667 4.85008 5.64667 5.00008 5.44667C5.24008 5.10667 4.73008 4.74667 4.49008 5.06667Z" fill="#B41818"/>
<path d="M4.49008 1.95656C4.49008 1.95656 4.48008 1.97656 4.46008 1.99656C4.45008 1.97656 4.43008 1.95656 4.43008 1.95656C4.19008 1.63656 3.68008 1.99656 3.92008 2.33656C4.06008 2.53656 4.36008 2.55656 4.46008 2.88656C4.56008 2.55656 4.85008 2.53656 5.00008 2.33656C5.24008 1.99656 4.73008 1.63656 4.49008 1.95656Z" fill="#B41818"/>
<path d="M4.49008 8.98664C4.49008 8.98664 4.48008 8.96664 4.46008 8.94664C4.45008 8.96664 4.43008 8.98664 4.43008 8.98664C4.19008 9.30664 3.68008 8.94664 3.92008 8.60664C4.06008 8.40664 4.36008 8.38664 4.46008 8.05664C4.56008 8.38664 4.85008 8.40664 5.00008 8.60664C5.24008 8.94664 4.73008 9.30664 4.49008 8.98664Z" fill="#B41818"/>
<path d="M3.42026 3.48659C3.42026 3.48659 3.41026 3.50659 3.39026 3.52659C3.38026 3.50659 3.36026 3.48659 3.36026 3.48659C3.12026 3.16659 2.61026 3.52659 2.85026 3.86659C2.99026 4.06659 3.29026 4.08659 3.39026 4.41659C3.49026 4.08659 3.78026 4.06659 3.93026 3.86659C4.17026 3.52659 3.66026 3.16659 3.42026 3.48659Z" fill="#B41818"/>
</svg>
