<svg width="8" height="11" viewBox="0 0 8 11" fill="none" xmlns="http://www.w3.org/2000/svg">
<path d="M7.07973 10.1466H1.02972C0.859724 10.1466 0.719727 10.0066 0.719727 9.83664V1.11664C0.719727 0.946641 0.859724 0.806641 1.02972 0.806641H7.07973C7.24973 0.806641 7.38972 0.946641 7.38972 1.11664V9.83664C7.38972 10.0066 7.24973 10.1466 7.07973 10.1466ZM1.02972 0.826641C0.869724 0.826641 0.739723 0.956641 0.739723 1.11664V9.83664C0.739723 9.99664 0.869724 10.1266 1.02972 10.1266H7.07973C7.23973 10.1266 7.36973 9.99664 7.36973 9.83664V1.11664C7.36973 0.956641 7.23973 0.826641 7.07973 0.826641H1.02972Z" fill="#3D3D3D"/>
<path d="M7.07994 10.1666H1.02994C0.839938 10.1666 0.689941 10.0166 0.689941 9.8266V1.1066C0.689941 0.916602 0.839938 0.766602 1.02994 0.766602H7.07994C7.26994 0.766602 7.41994 0.916602 7.41994 1.1066V9.8266C7.41994 10.0166 7.26994 10.1666 7.07994 10.1666ZM1.02994 0.846602C0.879938 0.846602 0.769943 0.966602 0.769943 1.1066V9.8266C0.769943 9.9766 0.889938 10.0866 1.02994 10.0866H7.07994C7.22994 10.0866 7.33994 9.9666 7.33994 9.8266V1.1066C7.33994 0.956602 7.21994 0.846602 7.07994 0.846602H1.02994Z" fill="#3D3D3D"/>
<path d="M6.89996 9.92661H1.19997C1.06997 9.92661 0.959961 9.81661 0.959961 9.68661V1.26661C0.959961 1.13661 1.06997 1.02661 1.19997 1.02661H6.89996C7.02996 1.02661 7.13996 1.13661 7.13996 1.26661V9.68661C7.13996 9.81661 7.02996 9.92661 6.89996 9.92661ZM1.19997 1.07661C1.08997 1.07661 1.00996 1.16661 1.00996 1.26661V9.68661C1.00996 9.79661 1.09997 9.87661 1.19997 9.87661H6.89996C7.00996 9.87661 7.08997 9.78661 7.08997 9.68661V1.26661C7.08997 1.15661 6.99996 1.07661 6.89996 1.07661H1.19997Z" fill="#3D3D3D"/>
<path d="M7.37994 4.44658C7.37994 4.44658 7.30994 4.43658 7.28994 4.44658C7.27994 4.44658 7.26994 4.45658 7.25994 4.46658C7.23994 4.47658 7.21994 4.48658 7.18994 4.48658C7.20994 4.48658 7.22994 4.48658 7.23994 4.48658C7.25994 4.48658 7.26994 4.46658 7.28994 4.46658C7.30994 4.46658 7.32994 4.46658 7.33994 4.47658C7.33994 4.47658 7.33994 4.49658 7.35994 4.47658C7.35994 4.47658 7.35994 4.45658 7.35994 4.44658H7.37994Z" fill="#3D3D3D"/>
<path d="M6.00977 0.796631C6.00977 0.796631 6.06976 0.84663 6.06976 0.89663C6.06976 0.94663 6.04977 0.986631 6.04977 1.03663C6.07977 0.966631 6.10976 0.906631 6.10976 0.826631C6.12976 0.826631 6.14976 0.81663 6.17976 0.81663C6.12976 0.81663 6.08977 0.796631 6.00977 0.796631Z" fill="#3D3D3D"/>
<path d="M6.31982 0.81665C6.31982 0.81665 6.31982 0.896651 6.31982 0.926651C6.32982 0.916651 6.34982 0.856651 6.34982 0.836651C6.34982 0.826651 6.33982 0.81665 6.31982 0.81665Z" fill="#3D3D3D"/>
<path d="M3.06982 0.81665C3.06982 0.81665 3.12982 0.846651 3.13982 0.866651C3.14982 0.886651 3.13983 0.91665 3.15983 0.93665C3.16983 0.96665 3.20982 0.956651 3.23982 0.966651C3.26982 0.966651 3.28982 0.986651 3.31982 0.996651C3.31982 0.976651 3.29982 0.966651 3.27982 0.956651C3.26982 0.956651 3.25982 0.956651 3.24982 0.956651H3.20982C3.20982 0.956651 3.18983 0.896651 3.18983 0.886651C3.18983 0.866651 3.20983 0.856651 3.22983 0.846651C3.21983 0.826651 3.11983 0.846651 3.08983 0.846651L3.06982 0.81665Z" fill="#3D3D3D"/>
<path d="M3.43018 0.81665C3.43018 0.81665 3.44018 0.856651 3.45018 0.876651C3.45018 0.896651 3.45018 0.906651 3.47018 0.916651C3.47018 0.896651 3.47018 0.866651 3.47018 0.836651C3.47018 0.816651 3.47018 0.81665 3.44018 0.81665H3.43018Z" fill="#3D3D3D"/>
<path d="M0.73003 1.26657C0.73003 1.26657 0.790029 1.26657 0.830029 1.27657C0.850029 1.27657 0.830028 1.27657 0.860028 1.27657C0.880028 1.27657 0.890031 1.27657 0.910031 1.27657C0.890031 1.27657 0.870031 1.27657 0.840031 1.27657C0.800031 1.27657 0.810028 1.27657 0.790028 1.25657C0.780028 1.25657 0.760025 1.25657 0.740025 1.25657C0.730025 1.25657 0.74003 1.24657 0.73003 1.23657C0.72003 1.23657 0.73003 1.26657 0.73003 1.27657V1.26657Z" fill="#3D3D3D"/>
<path d="M0.73003 9.43649C0.73003 9.43649 0.790029 9.4365 0.830029 9.4465C0.850029 9.4465 0.830028 9.4465 0.860028 9.4465C0.880028 9.4465 0.890031 9.4465 0.910031 9.4465C0.890031 9.4465 0.870031 9.4465 0.840031 9.4465C0.800031 9.4465 0.810028 9.44649 0.790028 9.42649C0.780028 9.42649 0.760025 9.42649 0.740025 9.42649C0.730025 9.42649 0.74003 9.41649 0.73003 9.40649C0.72003 9.40649 0.73003 9.4365 0.73003 9.4465V9.43649Z" fill="#3D3D3D"/>
<path d="M0.739975 1.02666H0.819977C0.829977 1.00666 0.769981 1.01666 0.769981 0.996663C0.769981 0.986663 0.789976 0.966663 0.779976 0.956663C0.779976 0.926663 0.72998 0.986662 0.72998 1.01666L0.739975 1.02666Z" fill="#3D3D3D"/>
<path d="M4.60984 0.81665C4.60984 0.81665 4.60984 0.816651 4.61984 0.836651C4.61984 0.836651 4.61984 0.856651 4.61984 0.866651C4.61984 0.886651 4.61984 0.906651 4.61984 0.926651C4.61984 0.916651 4.61984 0.906651 4.61984 0.886651C4.61984 0.876651 4.61984 0.86665 4.62984 0.85665C4.62984 0.84665 4.62984 0.836651 4.62984 0.826651C4.62984 0.826651 4.62984 0.826651 4.60984 0.826651C4.60984 0.826651 4.59984 0.826651 4.58984 0.826651L4.60984 0.81665Z" fill="#3D3D3D"/>
<path d="M4.85986 10.1465C4.85986 10.1465 4.91986 10.0965 4.91986 10.0465C4.91986 9.99649 4.89986 9.95649 4.89986 9.90649C4.92986 9.97649 4.95986 10.0365 4.95986 10.1165C4.97986 10.1165 4.99986 10.1265 5.02986 10.1265C4.97986 10.1265 4.93986 10.1465 4.85986 10.1465Z" fill="#3D3D3D"/>
<path d="M0.709961 8.90649C0.709961 8.90649 0.759959 8.96649 0.809959 8.96649C0.859959 8.96649 0.899966 8.9465 0.949966 8.9465C0.879966 8.9765 0.80996 9.00649 0.73996 9.00649C0.73996 9.02649 0.729965 9.04649 0.729965 9.07649C0.729965 9.02649 0.709961 8.98649 0.709961 8.90649Z" fill="#3D3D3D"/>
<path d="M5.16992 10.1266C5.16992 10.1266 5.16992 10.0466 5.16992 10.0166C5.17992 10.0266 5.19993 10.0866 5.19993 10.1066C5.19993 10.1166 5.18992 10.1266 5.16992 10.1266Z" fill="#3D3D3D"/>
<path d="M1.91992 10.1265C1.91992 10.1265 1.97992 10.0965 1.98992 10.0765C1.99992 10.0565 1.98993 10.0265 2.00993 10.0065C2.01993 9.97653 2.05993 9.98653 2.08993 9.97653C2.11993 9.97653 2.13992 9.95653 2.16992 9.94653C2.16992 9.96653 2.14992 9.97653 2.12992 9.98653C2.11992 9.98653 2.10992 9.98653 2.09992 9.98653H2.05992C2.05992 9.98653 2.03992 10.0465 2.03992 10.0565C2.03992 10.0765 2.05993 10.0865 2.07993 10.0965C2.06993 10.1165 1.96993 10.0965 1.93993 10.0965L1.91992 10.1265Z" fill="#3D3D3D"/>
<path d="M2.27979 10.1266C2.27979 10.1266 2.28979 10.0866 2.29979 10.0666C2.29979 10.0466 2.29979 10.0366 2.31979 10.0266C2.31979 10.0466 2.31979 10.0766 2.31979 10.1066C2.31979 10.1266 2.31979 10.1266 2.28979 10.1266H2.27979Z" fill="#3D3D3D"/>
<path d="M3.45994 10.1266C3.45994 10.1266 3.45994 10.1266 3.46994 10.1066C3.46994 10.1066 3.46994 10.0866 3.46994 10.0766C3.46994 10.0566 3.46994 10.0366 3.46994 10.0166C3.46994 10.0266 3.46994 10.0366 3.46994 10.0566C3.46994 10.0666 3.46994 10.0766 3.47994 10.0866C3.47994 10.0966 3.47994 10.0966 3.47994 10.1166C3.47994 10.1166 3.47994 10.1166 3.45994 10.1166C3.45994 10.1166 3.44994 10.1166 3.43994 10.1166L3.45994 10.1266Z" fill="#3D3D3D"/>
<path d="M7.38006 2.40649C7.31006 2.40649 7.23006 2.40649 7.16006 2.40649C7.12006 2.40649 7.12006 2.40649 7.10006 2.43649C7.06006 2.48649 6.99006 2.48649 6.93006 2.49649C6.89006 2.50649 6.85006 2.51649 6.81006 2.51649C6.84006 2.54649 6.94006 2.51649 6.98006 2.50649C7.01006 2.50649 7.05006 2.48649 7.08006 2.47649C7.12006 2.44649 7.13006 2.43649 7.18006 2.43649C7.22006 2.43649 7.25006 2.43649 7.30006 2.43649C7.31006 2.43649 7.33006 2.43649 7.35006 2.43649C7.37006 2.43649 7.37006 2.44649 7.39006 2.45649C7.39006 2.44649 7.39006 2.43649 7.39006 2.41649L7.38006 2.40649Z" fill="#3D3D3D"/>
<path d="M7.36971 7.60669C7.29971 7.60669 7.2197 7.60669 7.1497 7.60669C7.1097 7.60669 7.0997 7.63669 7.0697 7.65669C7.0397 7.67669 6.98971 7.68669 6.94971 7.68669C6.98971 7.68669 7.0297 7.68669 7.0697 7.67669C7.1097 7.64669 7.1197 7.63669 7.1697 7.63669C7.2397 7.62669 7.2897 7.63669 7.3297 7.70669C7.3497 7.74669 7.3597 7.75669 7.3597 7.79669C7.3597 7.76669 7.3697 7.73669 7.3797 7.70669C7.3797 7.67669 7.3797 7.64669 7.3797 7.61669L7.36971 7.60669Z" fill="#3D3D3D"/>
<path d="M7.36973 2.65649C7.36973 2.65649 7.25973 2.65649 7.21973 2.66649C7.24973 2.66649 7.26973 2.66649 7.29973 2.66649C7.30973 2.66649 7.31973 2.67649 7.33973 2.68649C7.36973 2.68649 7.38972 2.68649 7.37972 2.65649H7.36973Z" fill="#3D3D3D"/>
<path d="M7.36996 2.21654C7.36996 2.21654 7.23996 2.29654 7.20996 2.28654C7.23996 2.25654 7.27996 2.25654 7.30996 2.23654C7.32996 2.22654 7.34996 2.20654 7.37996 2.20654H7.36996V2.21654Z" fill="#3D3D3D"/>
<path d="M0.709961 3.4265C0.709961 3.4265 0.749966 3.4565 0.769966 3.4665C0.789966 3.4765 0.839962 3.4765 0.859962 3.4765C0.949962 3.4765 1.00997 3.4565 1.08997 3.4365C1.02997 3.4865 0.969963 3.4965 0.899963 3.4965C0.839963 3.4965 0.739961 3.4965 0.709961 3.4165V3.4265Z" fill="#3D3D3D"/>
<path d="M0.729787 3.29659C0.729787 3.21659 0.859782 3.22659 0.919782 3.20659C0.879782 3.19659 0.809788 3.20659 0.769788 3.20659C0.689788 3.20659 0.719782 3.23659 0.739782 3.28659L0.729787 3.29659Z" fill="#3D3D3D"/>
<path d="M0.739746 6.88658C0.739746 6.81658 0.849748 6.84658 0.889748 6.84658C0.929748 6.84658 0.929753 6.82658 0.949753 6.79658C0.959753 6.77658 0.979746 6.75658 0.989746 6.74658C0.949746 6.77658 0.959746 6.84658 0.919746 6.86658C0.869746 6.89658 0.789748 6.84658 0.749748 6.89658C0.749748 6.89658 0.749748 6.87658 0.749748 6.88658H0.739746Z" fill="#3D3D3D"/>
<path d="M0.729829 5.34667C0.729829 5.34667 0.729829 5.38667 0.729829 5.39667C0.729829 5.39667 0.759827 5.42667 0.759827 5.43667C0.759827 5.46667 0.719826 5.47667 0.719826 5.50667C0.719826 5.46667 0.699826 5.37667 0.719826 5.33667L0.729829 5.34667Z" fill="#3D3D3D"/>
<path d="M0.739723 5.52661C0.739723 5.52661 0.779728 5.54661 0.799728 5.54661C0.829728 5.54661 0.829724 5.54661 0.849724 5.56661C0.889724 5.59661 0.899728 5.54661 0.939728 5.54661C0.919728 5.56661 0.899723 5.56661 0.879723 5.57661C0.849723 5.58661 0.849727 5.57661 0.829727 5.56661C0.819727 5.56661 0.779727 5.56661 0.759727 5.56661C0.739727 5.56661 0.739723 5.61661 0.739723 5.63661C0.739723 5.66661 0.769726 5.66661 0.789726 5.67661C0.779726 5.67661 0.749725 5.67661 0.749725 5.67661C0.749725 5.67661 0.749729 5.67661 0.729729 5.67661C0.729729 5.67661 0.719727 5.64661 0.719727 5.63661C0.719727 5.59661 0.719723 5.56661 0.739723 5.53661V5.52661Z" fill="#3D3D3D"/>
<path d="M0.72998 6.74652C0.72998 6.74652 0.809981 6.74652 0.839981 6.70652C0.829981 6.70652 0.80998 6.70652 0.79998 6.70652C0.76998 6.70652 0.74998 6.69652 0.72998 6.68652C0.72998 6.70652 0.72998 6.72652 0.72998 6.73652H0.739975C0.739975 6.73652 0.739975 6.74652 0.739975 6.75652L0.72998 6.74652Z" fill="#3D3D3D"/>
<path d="M1.52002 2.96655C1.52002 2.96655 1.52002 2.96655 1.52002 2.97655C1.52002 2.97655 1.52001 2.97655 1.53001 2.96655H1.52002Z" fill="white"/>
<path d="M1.67014 1.3667H1.69014C1.74014 1.3667 1.79014 1.3767 1.83014 1.3967C1.89014 1.4367 1.92014 1.4967 1.92014 1.5767C1.92014 1.5767 1.92014 1.6567 1.90014 1.6967C1.90014 1.6967 1.88013 1.7467 1.88013 1.7567C1.88013 1.7567 1.89014 1.8067 1.92014 1.8167C1.92014 1.8167 1.88014 1.8267 1.86014 1.8367C1.84014 1.8467 1.83014 1.8667 1.82014 1.8767C1.75014 1.9967 1.68014 2.0867 1.61014 2.1367H1.71014C1.74014 2.1367 1.76014 2.1367 1.76014 2.1367C1.76014 2.1367 1.77014 2.1267 1.78014 2.0967C1.79014 2.0767 1.80013 2.0567 1.81013 2.0367H1.95014C1.94014 2.1767 1.93014 2.2367 1.93014 2.2367H1.39014V2.1167C1.39014 2.1167 1.40014 2.1067 1.42014 2.0867C1.46014 2.0467 1.49014 2.0167 1.52014 1.9867C1.56014 1.9467 1.59014 1.9067 1.62014 1.8567V1.8367C1.62014 1.8367 1.61014 1.7867 1.58014 1.7767C1.58014 1.7767 1.60014 1.7767 1.61014 1.7767C1.63014 1.7767 1.64014 1.7567 1.66014 1.7467C1.68014 1.7267 1.69014 1.7067 1.69014 1.6967C1.69014 1.6667 1.70014 1.6267 1.70014 1.6067C1.70014 1.5467 1.69014 1.5167 1.66014 1.5067C1.66014 1.5067 1.65014 1.5067 1.64014 1.5067C1.61014 1.5067 1.59014 1.5367 1.59014 1.5867C1.59014 1.6267 1.58014 1.6567 1.58014 1.6767H1.39014C1.39014 1.5567 1.41014 1.4767 1.46014 1.4367C1.46014 1.4367 1.48014 1.4267 1.49014 1.4067C1.51014 1.3967 1.54013 1.3867 1.56013 1.3767C1.59013 1.3767 1.62014 1.3767 1.65014 1.3767L1.67014 1.3667Z" fill="#B41818"/>
<path d="M6.38986 9.56653H6.36987C6.31987 9.56653 6.26987 9.55653 6.22987 9.53653C6.16987 9.49653 6.13986 9.43653 6.13986 9.35653C6.13986 9.35653 6.13987 9.27653 6.15987 9.23653C6.15987 9.23653 6.17986 9.18653 6.17986 9.17653C6.17986 9.17653 6.16986 9.12653 6.13986 9.11653C6.13986 9.11653 6.17987 9.10653 6.19987 9.09653C6.21987 9.08653 6.22986 9.06653 6.23986 9.05653C6.30986 8.93653 6.37987 8.84653 6.44987 8.79653H6.34986C6.31986 8.79653 6.29987 8.79653 6.29987 8.79653C6.29987 8.79653 6.28986 8.80653 6.27986 8.83653C6.26986 8.85653 6.25986 8.87653 6.24986 8.89653H6.10986C6.11986 8.75653 6.12986 8.69653 6.12986 8.69653H6.66986V8.81653C6.66986 8.81653 6.65986 8.82653 6.63986 8.84653C6.59986 8.88653 6.56986 8.91653 6.53986 8.94653C6.49986 8.98653 6.46987 9.02653 6.43987 9.07653V9.09653C6.43987 9.09653 6.44987 9.14653 6.47987 9.15653C6.47987 9.15653 6.45987 9.15653 6.44987 9.15653C6.42987 9.15653 6.41986 9.17653 6.39986 9.18653C6.37986 9.20653 6.36987 9.22653 6.36987 9.23653C6.36987 9.26653 6.35986 9.30653 6.35986 9.32653C6.35986 9.38653 6.36986 9.41653 6.39986 9.42653C6.39986 9.42653 6.40986 9.42653 6.41986 9.42653C6.44986 9.42653 6.46986 9.39653 6.46986 9.34653C6.46986 9.30653 6.47987 9.27653 6.47987 9.25653H6.66986C6.66986 9.37653 6.64986 9.45653 6.59986 9.49653C6.59986 9.49653 6.57986 9.50653 6.56986 9.52653C6.54986 9.53653 6.51986 9.54653 6.49986 9.55653C6.46986 9.55653 6.43987 9.55653 6.40987 9.55653L6.38986 9.56653Z" fill="#B41818"/>
<path d="M1.70015 2.60655C1.70015 2.60655 1.70015 2.61655 1.68015 2.62655C1.68015 2.61655 1.66015 2.60655 1.66015 2.60655C1.52015 2.41655 1.20015 2.62655 1.35015 2.83655C1.44015 2.95655 1.62015 2.96655 1.68015 3.17655C1.74015 2.97655 1.92015 2.96655 2.01015 2.83655C2.16015 2.62655 1.85015 2.41655 1.70015 2.60655Z" fill="#B41818"/>
<path d="M6.41987 8.31658C6.41987 8.31658 6.41988 8.30658 6.39988 8.29658C6.39988 8.30658 6.37987 8.31658 6.37987 8.31658C6.23987 8.50658 5.91988 8.29658 6.06988 8.08658C6.15988 7.96658 6.33988 7.95658 6.39988 7.74658C6.45988 7.94658 6.63988 7.95658 6.72988 8.08658C6.87988 8.29658 6.56987 8.50658 6.41987 8.31658Z" fill="#B41818"/>
<path d="M4.07993 1.96657C4.07993 1.96657 4.06993 1.98657 4.04993 2.00657C4.03993 1.98657 4.01993 1.96657 4.01993 1.96657C3.77993 1.64657 3.26993 2.00657 3.50993 2.34657C3.64993 2.54657 3.94993 2.56657 4.04993 2.89657C4.14993 2.56657 4.43993 2.54657 4.58993 2.34657C4.82993 2.00657 4.31993 1.64657 4.07993 1.96657Z" fill="#B41818"/>
<path d="M4.07993 8.98664C4.07993 8.98664 4.06993 8.96664 4.04993 8.94664C4.03993 8.96664 4.01993 8.98664 4.01993 8.98664C3.77993 9.30664 3.26993 8.94664 3.50993 8.60664C3.64993 8.40664 3.94993 8.38664 4.04993 8.05664C4.14993 8.38664 4.43993 8.40664 4.58993 8.60664C4.82993 8.94664 4.31993 9.30664 4.07993 8.98664Z" fill="#B41818"/>
</svg>
