<svg width="8" height="11" viewBox="0 0 8 11" fill="none" xmlns="http://www.w3.org/2000/svg">
<path d="M7.15981 10.2699H1.10981C0.939806 10.2699 0.799805 10.1299 0.799805 9.95993V1.23993C0.799805 1.06993 0.939806 0.929932 1.10981 0.929932H7.15981C7.32981 0.929932 7.4698 1.06993 7.4698 1.23993V9.95993C7.4698 10.1299 7.32981 10.2699 7.15981 10.2699ZM1.10981 0.949932C0.949806 0.949932 0.819805 1.07993 0.819805 1.23993V9.95993C0.819805 10.1199 0.949806 10.2499 1.10981 10.2499H7.15981C7.31981 10.2499 7.44981 10.1199 7.44981 9.95993V1.23993C7.44981 1.07993 7.31981 0.949932 7.15981 0.949932H1.10981Z" fill="#3D3D3D"/>
<path d="M7.16002 10.2999H1.11002C0.92002 10.2999 0.77002 10.1499 0.77002 9.9599V1.2399C0.77002 1.0499 0.92002 0.899902 1.11002 0.899902H7.16002C7.35002 0.899902 7.50002 1.0499 7.50002 1.2399V9.9599C7.50002 10.1499 7.35002 10.2999 7.16002 10.2999ZM1.11002 0.969902C0.96002 0.969902 0.850018 1.0899 0.850018 1.2299V9.9499C0.850018 10.0999 0.97002 10.2099 1.11002 10.2099H7.16002C7.31002 10.2099 7.42002 10.0899 7.42002 9.9499V1.2299C7.42002 1.0799 7.30002 0.969902 7.16002 0.969902H1.11002Z" fill="#3D3D3D"/>
<path d="M6.98004 10.0499H1.28004C1.15004 10.0499 1.04004 9.9399 1.04004 9.8099V1.3899C1.04004 1.2599 1.15004 1.1499 1.28004 1.1499H6.98004C7.11004 1.1499 7.22004 1.2599 7.22004 1.3899V9.8099C7.22004 9.9399 7.11004 10.0499 6.98004 10.0499ZM1.28004 1.1999C1.17004 1.1999 1.09004 1.2899 1.09004 1.3899V9.8099C1.09004 9.9199 1.18004 9.9999 1.28004 9.9999H6.98004C7.09004 9.9999 7.17004 9.9099 7.17004 9.8099V1.3899C7.17004 1.2799 7.08004 1.1999 6.98004 1.1999H1.28004Z" fill="#3D3D3D"/>
<path d="M7.46002 4.56987C7.46002 4.56987 7.39002 4.55987 7.37002 4.56987C7.36002 4.56987 7.35002 4.57987 7.34002 4.58987C7.32002 4.59987 7.30002 4.60988 7.27002 4.60988C7.29002 4.60988 7.31001 4.60988 7.32001 4.60988C7.34001 4.60988 7.35002 4.58987 7.37002 4.58987C7.39002 4.58987 7.41002 4.58987 7.42002 4.59987C7.42002 4.59987 7.42002 4.61987 7.44002 4.59987C7.44002 4.59987 7.44002 4.57987 7.44002 4.56987H7.46002Z" fill="#3D3D3D"/>
<path d="M6.08984 0.919922C6.08984 0.919922 6.14984 0.969922 6.14984 1.01992C6.14984 1.06992 6.12984 1.10992 6.12984 1.15992C6.15984 1.08992 6.18984 1.02992 6.18984 0.949923C6.20984 0.949923 6.22984 0.939922 6.25984 0.939922C6.20984 0.939922 6.16984 0.919922 6.08984 0.919922Z" fill="#3D3D3D"/>
<path d="M6.3999 0.939941C6.3999 0.939941 6.3999 1.01994 6.3999 1.04994C6.4099 1.03994 6.4299 0.97994 6.4299 0.95994C6.4299 0.94994 6.4199 0.939941 6.3999 0.939941Z" fill="#3D3D3D"/>
<path d="M3.1499 0.939941C3.1499 0.939941 3.2099 0.969941 3.2199 0.989941C3.2299 1.00994 3.21991 1.03994 3.23991 1.05994C3.24991 1.08994 3.2899 1.07994 3.3199 1.08994C3.3499 1.08994 3.3699 1.10994 3.3999 1.11994C3.3999 1.09994 3.3799 1.08994 3.3599 1.07994C3.3499 1.07994 3.3399 1.07994 3.3299 1.07994H3.2899C3.2899 1.07994 3.26991 1.01994 3.26991 1.00994C3.26991 0.989941 3.28991 0.97994 3.30991 0.96994C3.29991 0.94994 3.19991 0.96994 3.16991 0.96994L3.1499 0.939941Z" fill="#3D3D3D"/>
<path d="M3.51025 0.939941C3.51025 0.939941 3.52026 0.979941 3.53026 0.999941C3.53026 1.01994 3.53025 1.02994 3.55025 1.03994C3.55025 1.01994 3.55025 0.98994 3.55025 0.95994C3.55025 0.93994 3.55026 0.939941 3.52026 0.939941H3.51025Z" fill="#3D3D3D"/>
<path d="M0.810109 1.38986C0.810109 1.38986 0.870107 1.38986 0.910107 1.39986C0.930107 1.39986 0.910106 1.39986 0.940106 1.39986C0.960106 1.39986 0.970105 1.39986 0.990105 1.39986C0.970105 1.39986 0.950105 1.39986 0.920105 1.39986C0.880105 1.39986 0.890106 1.39986 0.870106 1.37986C0.860106 1.37986 0.840107 1.37986 0.820107 1.37986C0.810107 1.37986 0.820109 1.36986 0.810109 1.35986C0.800109 1.35986 0.810109 1.38986 0.810109 1.39986V1.38986Z" fill="#3D3D3D"/>
<path d="M0.810109 9.55978C0.810109 9.55978 0.870107 9.55978 0.910107 9.56978C0.930107 9.56978 0.910106 9.56978 0.940106 9.56978C0.960106 9.56978 0.970105 9.56978 0.990105 9.56978C0.970105 9.56978 0.950105 9.56978 0.920105 9.56978C0.880105 9.56978 0.890106 9.56978 0.870106 9.54978C0.860106 9.54978 0.840107 9.54978 0.820107 9.54978C0.810107 9.54978 0.820109 9.53979 0.810109 9.52979C0.800109 9.52979 0.810109 9.55978 0.810109 9.56978V9.55978Z" fill="#3D3D3D"/>
<path d="M0.820205 1.14995H0.900203C0.910203 1.12995 0.850203 1.13995 0.850203 1.11995C0.850203 1.10995 0.870206 1.08995 0.860206 1.07995C0.860206 1.04995 0.800206 1.10995 0.810206 1.13995L0.820205 1.14995Z" fill="#3D3D3D"/>
<path d="M4.68992 0.939941C4.68992 0.939941 4.68992 0.93994 4.69992 0.95994C4.69992 0.95994 4.69992 0.979941 4.69992 0.989941C4.69992 1.00994 4.69992 1.02994 4.69992 1.04994C4.69992 1.03994 4.69992 1.02994 4.69992 1.00994C4.69992 0.999941 4.69992 0.98994 4.70992 0.97994C4.70992 0.96994 4.70992 0.969942 4.70992 0.949942C4.70992 0.949942 4.70992 0.949942 4.68992 0.949942C4.68992 0.949942 4.67992 0.949942 4.66992 0.949942L4.68992 0.939941Z" fill="#3D3D3D"/>
<path d="M4.93994 10.2698C4.93994 10.2698 4.99994 10.2198 4.99994 10.1698C4.99994 10.1198 4.97994 10.0798 4.97994 10.0298C5.00994 10.0998 5.03994 10.1598 5.03994 10.2398C5.05994 10.2398 5.07994 10.2498 5.10994 10.2498C5.05994 10.2498 5.01994 10.2698 4.93994 10.2698Z" fill="#3D3D3D"/>
<path d="M0.790039 9.02979C0.790039 9.02979 0.840038 9.08978 0.890038 9.08978C0.940038 9.08978 0.980037 9.06978 1.03004 9.06978C0.960037 9.09978 0.890038 9.12978 0.820038 9.12978C0.820038 9.14978 0.81004 9.16979 0.81004 9.19979C0.81004 9.14979 0.790039 9.10979 0.790039 9.02979Z" fill="#3D3D3D"/>
<path d="M5.25 10.2499C5.25 10.2499 5.25 10.1699 5.25 10.1399C5.26 10.1499 5.28001 10.2099 5.28001 10.2299C5.28001 10.2399 5.27 10.2499 5.25 10.2499Z" fill="#3D3D3D"/>
<path d="M2 10.2498C2 10.2498 2.06 10.2198 2.07 10.1998C2.08 10.1798 2.07 10.1498 2.09 10.1298C2.1 10.0998 2.14001 10.1098 2.17001 10.0998C2.20001 10.0998 2.22 10.0798 2.25 10.0698C2.25 10.0898 2.23001 10.0998 2.21001 10.1098C2.20001 10.1098 2.19 10.1098 2.18 10.1098H2.14001C2.14001 10.1098 2.12 10.1698 2.12 10.1798C2.12 10.1998 2.14 10.2098 2.16 10.2198C2.15 10.2398 2.05 10.2198 2.02 10.2198L2 10.2498Z" fill="#3D3D3D"/>
<path d="M2.35986 10.2499C2.35986 10.2499 2.36987 10.2099 2.37987 10.1899C2.37987 10.1699 2.37986 10.1599 2.39986 10.1499C2.39986 10.1699 2.39986 10.1999 2.39986 10.2299C2.39986 10.2499 2.39987 10.2499 2.36987 10.2499H2.35986Z" fill="#3D3D3D"/>
<path d="M3.54002 10.2499C3.54002 10.2499 3.54002 10.2499 3.55002 10.2299C3.55002 10.2299 3.55002 10.2099 3.55002 10.1999C3.55002 10.1799 3.55002 10.1599 3.55002 10.1399C3.55002 10.1499 3.55002 10.1599 3.55002 10.1799C3.55002 10.1899 3.55002 10.1999 3.56002 10.2099C3.56002 10.2199 3.56002 10.2199 3.56002 10.2399C3.56002 10.2399 3.56002 10.2399 3.54002 10.2399C3.54002 10.2399 3.53002 10.2399 3.52002 10.2399L3.54002 10.2499Z" fill="#3D3D3D"/>
<path d="M7.46014 2.52979C7.39014 2.52979 7.31014 2.52979 7.24014 2.52979C7.20014 2.52979 7.20013 2.52978 7.18013 2.55978C7.14013 2.60978 7.07013 2.60979 7.01013 2.61979C6.97013 2.62979 6.93014 2.63978 6.89014 2.63978C6.92014 2.66978 7.02013 2.63978 7.06013 2.62978C7.09013 2.62978 7.13013 2.60978 7.16013 2.59978C7.20013 2.56978 7.21013 2.55978 7.26013 2.55978C7.30013 2.55978 7.33013 2.55978 7.38013 2.55978C7.39013 2.55978 7.41013 2.55978 7.43013 2.55978C7.45013 2.55978 7.45013 2.56978 7.47013 2.57978C7.47013 2.56978 7.47013 2.55979 7.47013 2.53979L7.46014 2.52979Z" fill="#3D3D3D"/>
<path d="M7.44978 7.72998C7.37978 7.72998 7.29978 7.72998 7.22978 7.72998C7.18978 7.72998 7.17978 7.75998 7.14978 7.77998C7.11978 7.79998 7.06979 7.80998 7.02979 7.80998C7.06979 7.80998 7.10978 7.80998 7.14978 7.79998C7.18978 7.76998 7.19978 7.75998 7.24978 7.75998C7.31978 7.74998 7.36978 7.75998 7.40978 7.82998C7.42978 7.86998 7.43978 7.87998 7.43978 7.91998C7.43978 7.88998 7.44979 7.85998 7.45979 7.82998C7.45979 7.79998 7.45979 7.76998 7.45979 7.73998L7.44978 7.72998Z" fill="#3D3D3D"/>
<path d="M7.44981 2.77979C7.44981 2.77979 7.3398 2.77979 7.2998 2.78979C7.3298 2.78979 7.34981 2.78979 7.37981 2.78979C7.38981 2.78979 7.39981 2.79978 7.41981 2.80978C7.44981 2.80978 7.46981 2.80979 7.45981 2.77979H7.44981Z" fill="#3D3D3D"/>
<path d="M7.45004 2.33983C7.45004 2.33983 7.32004 2.41983 7.29004 2.40983C7.32004 2.37983 7.36005 2.37983 7.39005 2.35983C7.41005 2.34983 7.43004 2.32983 7.46004 2.32983H7.45004V2.33983Z" fill="#3D3D3D"/>
<path d="M0.790039 3.54979C0.790039 3.54979 0.830037 3.57979 0.850037 3.58979C0.870037 3.59979 0.920037 3.59979 0.940037 3.59979C1.03004 3.59979 1.09004 3.57979 1.17004 3.55979C1.11004 3.60979 1.05004 3.61979 0.980038 3.61979C0.920038 3.61979 0.820039 3.61979 0.790039 3.53979V3.54979Z" fill="#3D3D3D"/>
<path d="M0.809866 3.41988C0.809866 3.33988 0.939864 3.34988 0.999864 3.32988C0.959864 3.31988 0.889863 3.32988 0.849863 3.32988C0.769863 3.32988 0.799864 3.35988 0.819864 3.40988L0.809866 3.41988Z" fill="#3D3D3D"/>
<path d="M0.819824 7.00987C0.819824 6.93987 0.929826 6.96987 0.969826 6.96987C1.00983 6.96987 1.00982 6.94987 1.02982 6.91987C1.03982 6.89987 1.05982 6.87987 1.06982 6.86987C1.02982 6.89987 1.03982 6.96987 0.999825 6.98987C0.949825 7.01987 0.869823 6.96987 0.829823 7.01987C0.829823 7.01987 0.829823 6.99987 0.829823 7.00987H0.819824Z" fill="#3D3D3D"/>
<path d="M0.820157 5.46996C0.820157 5.46996 0.820157 5.50996 0.820157 5.51996C0.820157 5.51996 0.850156 5.54996 0.850156 5.55996C0.850156 5.58996 0.810158 5.59996 0.810158 5.62996C0.810158 5.58996 0.790158 5.49996 0.810158 5.45996L0.820157 5.46996Z" fill="#3D3D3D"/>
<path d="M0.819863 5.6499C0.819863 5.6499 0.859864 5.6699 0.879864 5.6699C0.909864 5.6699 0.909863 5.6699 0.929863 5.6899C0.969863 5.7199 0.979863 5.6699 1.01986 5.6699C0.999863 5.6899 0.979862 5.6899 0.959862 5.7099C0.929862 5.7199 0.929863 5.7099 0.909863 5.6999C0.899863 5.6999 0.859863 5.6999 0.839863 5.6999C0.819863 5.6999 0.819863 5.7499 0.819863 5.7699C0.819863 5.7999 0.849862 5.7999 0.869862 5.8099C0.859862 5.8099 0.829861 5.8099 0.829861 5.8099C0.829861 5.8099 0.829864 5.8099 0.809864 5.8099C0.789864 5.8099 0.799862 5.7799 0.799862 5.7699C0.799862 5.7299 0.799863 5.6999 0.819863 5.6699V5.6499Z" fill="#3D3D3D"/>
<path d="M0.809807 6.86982C0.809807 6.86982 0.889804 6.86981 0.919804 6.82981C0.909804 6.82981 0.889804 6.82981 0.869804 6.82981C0.839804 6.82981 0.819805 6.81981 0.799805 6.80981C0.799805 6.82981 0.799805 6.84982 0.799805 6.85982H0.809807C0.809807 6.85982 0.809807 6.86981 0.809807 6.87981V6.86982Z" fill="#3D3D3D"/>
<path d="M1.6001 3.08984C1.6001 3.08984 1.6001 3.08984 1.6001 3.09984C1.6001 3.09984 1.6001 3.09984 1.6101 3.08984H1.6001Z" fill="white"/>
<path d="M1.76017 1.48999H1.78017C1.78017 1.48999 1.85017 1.48999 1.89017 1.51999C1.91017 1.52999 1.93017 1.54999 1.94017 1.55999C1.96017 1.57999 1.97018 1.58999 1.98018 1.60999C1.99018 1.62999 2.00017 1.64999 2.01017 1.66999C2.01017 1.68999 2.01017 1.70999 2.01017 1.71999H1.83017C1.83017 1.71999 1.83017 1.71999 1.83017 1.69999C1.83017 1.64999 1.80017 1.62999 1.78017 1.62999C1.78017 1.62999 1.74018 1.64999 1.73018 1.68999C1.72018 1.72999 1.71017 1.77999 1.71017 1.85999C1.71017 1.85999 1.78017 1.81999 1.83017 1.81999C1.89017 1.81999 1.94018 1.84999 1.98018 1.91999C1.99018 1.93999 2.00017 1.95999 2.01017 1.99999C2.02017 2.04999 2.03018 2.08999 2.03018 2.12999V2.15999C2.03018 2.22999 2.01018 2.28999 1.98018 2.32999C1.94018 2.37999 1.87017 2.39999 1.78017 2.39999C1.64017 2.39999 1.56018 2.32999 1.52018 2.19999C1.51018 2.15999 1.50018 2.08999 1.50018 2.00999C1.50018 2.00999 1.50018 1.97999 1.48018 1.95999C1.48018 1.95999 1.46018 1.93999 1.45018 1.93999C1.45018 1.93999 1.44018 1.93999 1.43018 1.93999C1.43018 1.93999 1.47018 1.91999 1.48018 1.90999C1.50018 1.88999 1.50018 1.86999 1.50018 1.82999C1.50018 1.74999 1.52018 1.68999 1.52018 1.66999C1.52018 1.63999 1.54017 1.61999 1.55017 1.59999C1.56017 1.57999 1.58017 1.55999 1.60017 1.54999C1.63017 1.52999 1.66017 1.50999 1.71017 1.49999C1.73017 1.49999 1.75017 1.49999 1.76017 1.49999V1.48999ZM1.71017 2.08999C1.71017 2.17999 1.71017 2.21999 1.71017 2.22999C1.71017 2.26999 1.74017 2.27999 1.76017 2.27999C1.78017 2.27999 1.80018 2.26999 1.81018 2.23999C1.81018 2.20999 1.82018 2.15999 1.82018 2.08999C1.82018 2.02999 1.82017 1.98999 1.80017 1.96999C1.80017 1.96999 1.78018 1.95999 1.77018 1.95999C1.77018 1.95999 1.73018 1.96999 1.72018 1.99999C1.72018 2.01999 1.72018 2.04999 1.72018 2.08999H1.71017Z" fill="#3D3D3D"/>
<path d="M6.45995 9.68979H6.43994C6.43994 9.68979 6.36994 9.68978 6.32994 9.65978C6.30994 9.64978 6.28995 9.62979 6.27995 9.61979C6.25995 9.59979 6.24994 9.58978 6.23994 9.56978C6.22994 9.54978 6.21995 9.52978 6.20995 9.50978C6.20995 9.48978 6.20995 9.46978 6.20995 9.45978H6.38995C6.38995 9.45978 6.38995 9.45978 6.38995 9.47978C6.38995 9.52978 6.41994 9.54978 6.43994 9.54978C6.43994 9.54978 6.47994 9.52978 6.48994 9.48978C6.49994 9.44978 6.50994 9.39978 6.50994 9.31978C6.50994 9.31978 6.43995 9.35979 6.38995 9.35979C6.32995 9.35979 6.27994 9.32978 6.23994 9.25978C6.22994 9.23978 6.21995 9.21978 6.20995 9.17978C6.19995 9.12978 6.18994 9.08978 6.18994 9.04978V9.01978C6.18994 8.94978 6.20994 8.88978 6.23994 8.84978C6.27994 8.79978 6.34994 8.77979 6.43994 8.77979C6.57994 8.77979 6.65994 8.84978 6.69994 8.97978C6.70994 9.01978 6.71994 9.08978 6.71994 9.16978C6.71994 9.16978 6.71994 9.19978 6.73994 9.21978C6.73994 9.21978 6.75994 9.23978 6.76994 9.23978C6.76994 9.23978 6.77994 9.23978 6.78994 9.23978C6.78994 9.23978 6.74994 9.25978 6.73994 9.26978C6.71994 9.28978 6.71994 9.30978 6.71994 9.34978C6.71994 9.42978 6.69994 9.48978 6.69994 9.50978C6.69994 9.53978 6.67994 9.55978 6.66994 9.57978C6.65994 9.59978 6.63994 9.61978 6.61994 9.62978C6.58994 9.64978 6.55994 9.66978 6.50994 9.67978C6.48994 9.67978 6.46995 9.67978 6.45995 9.67978V9.68979ZM6.51994 9.08978C6.51994 8.99978 6.51994 8.95979 6.51994 8.94979C6.51994 8.90979 6.48994 8.89978 6.46994 8.89978C6.44994 8.89978 6.42994 8.90979 6.41994 8.93979C6.41994 8.96979 6.40994 9.01978 6.40994 9.08978C6.40994 9.14978 6.40994 9.18978 6.42994 9.20978C6.42994 9.20978 6.44995 9.21978 6.45995 9.21978C6.45995 9.21978 6.49994 9.20978 6.50994 9.17978C6.50994 9.15978 6.50994 9.12978 6.50994 9.08978H6.51994Z" fill="#3D3D3D"/>
<path d="M3.65996 2.58986C3.65996 2.58986 3.65996 2.57986 3.65996 2.56986C3.65996 2.48986 3.61996 2.41986 3.55996 2.36986C3.41996 2.22986 3.14996 2.16986 3.05996 1.85986C2.96996 2.16986 2.69996 2.22986 2.55996 2.36986C2.49996 2.41986 2.46996 2.48986 2.45996 2.56986C2.45996 2.56986 2.45996 2.57986 2.45996 2.58986C2.45996 2.58986 2.45996 2.58986 2.45996 2.59986C2.45996 2.76986 2.60996 2.90986 2.77996 2.90986C2.79996 2.90986 2.81996 2.90986 2.84996 2.90986C2.90996 2.89986 2.97996 2.86986 3.02996 2.79986C3.02996 2.79986 3.02996 2.79986 3.02996 2.78986C2.98996 2.90986 2.90995 3.06986 2.81995 3.14986C2.88995 3.11986 2.96996 3.10986 3.05996 3.10986C3.13996 3.10986 3.21996 3.10986 3.29996 3.14986C3.19996 3.06986 3.12996 2.90986 3.08996 2.78986C3.08996 2.78986 3.08996 2.78986 3.08996 2.79986C3.13996 2.85986 3.19996 2.88986 3.26996 2.90986C3.28996 2.90986 3.30996 2.90986 3.33996 2.90986C3.50996 2.90986 3.64996 2.76986 3.65996 2.59986C3.65996 2.59986 3.65996 2.59986 3.65996 2.58986Z" fill="#3D3D3D"/>
<path d="M3.65996 8.67987C3.65996 8.67987 3.65996 8.68987 3.65996 8.69987C3.65996 8.77987 3.61996 8.84987 3.55996 8.89987C3.41996 9.03987 3.14996 9.09987 3.05996 9.40987C2.96996 9.09987 2.69996 9.03987 2.55996 8.89987C2.49996 8.84987 2.46996 8.77987 2.45996 8.69987C2.45996 8.69987 2.45996 8.68987 2.45996 8.67987C2.45996 8.67987 2.45996 8.67987 2.45996 8.66987C2.45996 8.49987 2.60996 8.35987 2.77996 8.35987C2.79996 8.35987 2.81996 8.35987 2.84996 8.35987C2.90996 8.36987 2.97996 8.39987 3.02996 8.46987C3.02996 8.46987 3.02996 8.46987 3.02996 8.47987C2.98996 8.35987 2.90995 8.19987 2.81995 8.11987C2.88995 8.14987 2.96996 8.15987 3.05996 8.15987C3.13996 8.15987 3.21996 8.15987 3.29996 8.11987C3.19996 8.19987 3.12996 8.35987 3.08996 8.47987C3.08996 8.47987 3.08996 8.47987 3.08996 8.46987C3.13996 8.40987 3.19996 8.37987 3.26996 8.35987C3.28996 8.35987 3.30996 8.35987 3.33996 8.35987C3.50996 8.35987 3.64996 8.49987 3.65996 8.66987C3.65996 8.66987 3.65996 8.66987 3.65996 8.67987Z" fill="#3D3D3D"/>
<path d="M5.80009 2.58986C5.80009 2.58986 5.80009 2.57986 5.80009 2.56986C5.80009 2.48986 5.7601 2.41986 5.7001 2.36986C5.5601 2.22986 5.2901 2.16986 5.2001 1.85986C5.1101 2.16986 4.8401 2.22986 4.7001 2.36986C4.6401 2.41986 4.6101 2.48986 4.6001 2.56986C4.6001 2.56986 4.6001 2.57986 4.6001 2.58986C4.6001 2.58986 4.6001 2.58986 4.6001 2.59986C4.6001 2.76986 4.7501 2.90986 4.9201 2.90986C4.9401 2.90986 4.9601 2.90986 4.9901 2.90986C5.0501 2.89986 5.1201 2.86986 5.1701 2.79986C5.1701 2.79986 5.1701 2.79986 5.1701 2.78986C5.1301 2.90986 5.0501 3.06986 4.9601 3.14986C5.0301 3.11986 5.1101 3.10986 5.2001 3.10986C5.2801 3.10986 5.36009 3.10986 5.44009 3.14986C5.34009 3.06986 5.27009 2.90986 5.23009 2.78986C5.23009 2.78986 5.23009 2.78986 5.23009 2.79986C5.28009 2.85986 5.3401 2.88986 5.4101 2.90986C5.4301 2.90986 5.45009 2.90986 5.48009 2.90986C5.65009 2.90986 5.79009 2.76986 5.80009 2.59986C5.80009 2.59986 5.80009 2.59986 5.80009 2.58986Z" fill="#3D3D3D"/>
<path d="M3.65996 5.71999C3.65996 5.71999 3.65996 5.70999 3.65996 5.69999C3.65996 5.61999 3.61996 5.54999 3.55996 5.49999C3.41996 5.35999 3.14996 5.29999 3.05996 4.98999C2.96996 5.29999 2.69996 5.35999 2.55996 5.49999C2.49996 5.54999 2.46996 5.61999 2.45996 5.69999C2.45996 5.69999 2.45996 5.70999 2.45996 5.71999C2.45996 5.71999 2.45996 5.71999 2.45996 5.72999C2.45996 5.89999 2.60996 6.03999 2.77996 6.03999C2.79996 6.03999 2.81996 6.03999 2.84996 6.03999C2.90996 6.02999 2.97996 5.99999 3.02996 5.92999C3.02996 5.92999 3.02996 5.92999 3.02996 5.91999C2.98996 6.03999 2.90995 6.19999 2.81995 6.27999C2.88995 6.24999 2.96996 6.23999 3.05996 6.23999C3.13996 6.23999 3.21996 6.23999 3.29996 6.27999C3.19996 6.19999 3.12996 6.03999 3.08996 5.91999C3.08996 5.91999 3.08996 5.91999 3.08996 5.92999C3.13996 5.98999 3.19996 6.01999 3.26996 6.03999C3.28996 6.03999 3.30996 6.03999 3.33996 6.03999C3.50996 6.03999 3.64996 5.89999 3.65996 5.72999C3.65996 5.72999 3.65996 5.72999 3.65996 5.71999Z" fill="#3D3D3D"/>
<path d="M5.80009 5.71999C5.80009 5.71999 5.80009 5.70999 5.80009 5.69999C5.80009 5.61999 5.7601 5.54999 5.7001 5.49999C5.5601 5.35999 5.2901 5.29999 5.2001 4.98999C5.1101 5.29999 4.8401 5.35999 4.7001 5.49999C4.6401 5.54999 4.6101 5.61999 4.6001 5.69999C4.6001 5.69999 4.6001 5.70999 4.6001 5.71999C4.6001 5.71999 4.6001 5.71999 4.6001 5.72999C4.6001 5.89999 4.7501 6.03999 4.9201 6.03999C4.9401 6.03999 4.9601 6.03999 4.9901 6.03999C5.0501 6.02999 5.1201 5.99999 5.1701 5.92999C5.1701 5.92999 5.1701 5.92999 5.1701 5.91999C5.1301 6.03999 5.0501 6.19999 4.9601 6.27999C5.0301 6.24999 5.1101 6.23999 5.2001 6.23999C5.2801 6.23999 5.36009 6.23999 5.44009 6.27999C5.34009 6.19999 5.27009 6.03999 5.23009 5.91999C5.23009 5.91999 5.23009 5.91999 5.23009 5.92999C5.28009 5.98999 5.3401 6.01999 5.4101 6.03999C5.4301 6.03999 5.45009 6.03999 5.48009 6.03999C5.65009 6.03999 5.79009 5.89999 5.80009 5.72999C5.80009 5.72999 5.80009 5.72999 5.80009 5.71999Z" fill="#3D3D3D"/>
<path d="M5.80009 8.67987C5.80009 8.67987 5.80009 8.68987 5.80009 8.69987C5.80009 8.77987 5.7601 8.84987 5.7001 8.89987C5.5601 9.03987 5.2901 9.09987 5.2001 9.40987C5.1101 9.09987 4.8401 9.03987 4.7001 8.89987C4.6401 8.84987 4.6101 8.77987 4.6001 8.69987C4.6001 8.69987 4.6001 8.68987 4.6001 8.67987C4.6001 8.67987 4.6001 8.67987 4.6001 8.66987C4.6001 8.49987 4.7501 8.35987 4.9201 8.35987C4.9401 8.35987 4.9601 8.35987 4.9901 8.35987C5.0501 8.36987 5.1201 8.39987 5.1701 8.46987C5.1701 8.46987 5.1701 8.46987 5.1701 8.47987C5.1301 8.35987 5.0501 8.19987 4.9601 8.11987C5.0301 8.14987 5.1101 8.15987 5.2001 8.15987C5.2801 8.15987 5.36009 8.15987 5.44009 8.11987C5.34009 8.19987 5.27009 8.35987 5.23009 8.47987C5.23009 8.47987 5.23009 8.47987 5.23009 8.46987C5.28009 8.40987 5.3401 8.37987 5.4101 8.35987C5.4301 8.35987 5.45009 8.35987 5.48009 8.35987C5.65009 8.35987 5.79009 8.49987 5.80009 8.66987C5.80009 8.66987 5.80009 8.66987 5.80009 8.67987Z" fill="#3D3D3D"/>
<path d="M2.13993 2.95979C2.13993 2.90979 2.10992 2.86979 2.07992 2.83979C1.99992 2.75979 1.82992 2.71979 1.77992 2.53979C1.72992 2.71979 1.55992 2.75979 1.47992 2.83979C1.44992 2.86979 1.41992 2.90979 1.41992 2.95979C1.41992 3.05979 1.50992 3.13979 1.60992 3.13979C1.61992 3.13979 1.63992 3.13979 1.64992 3.13979C1.68992 3.13979 1.71992 3.10979 1.75992 3.07979C1.73992 3.14979 1.68992 3.24979 1.62992 3.29979C1.66992 3.27979 1.71992 3.27979 1.76992 3.27979C1.76992 3.27979 1.86992 3.27979 1.90992 3.29979C1.84992 3.24979 1.80992 3.15979 1.77992 3.07979C1.80992 3.11979 1.84992 3.13979 1.88992 3.13979C1.89992 3.13979 1.91992 3.13979 1.92992 3.13979C2.02992 3.13979 2.11992 3.05979 2.11992 2.95979V2.94979L2.13993 2.95979Z" fill="#3D3D3D"/>
<path d="M6.82986 8.15982C6.82986 8.20982 6.79987 8.24983 6.76987 8.27983C6.68987 8.35983 6.51986 8.39982 6.46986 8.57982C6.41986 8.39982 6.24987 8.35983 6.16987 8.27983C6.13987 8.24983 6.11986 8.20982 6.10986 8.15982C6.10986 8.05982 6.19987 7.97982 6.29987 7.97982C6.30987 7.97982 6.32987 7.97982 6.33987 7.97982C6.37987 7.97982 6.40987 8.00983 6.44987 8.03983C6.41987 7.96983 6.37986 7.86982 6.31986 7.81982C6.35986 7.83982 6.40987 7.83982 6.45987 7.83982C6.45987 7.83982 6.55987 7.83982 6.59987 7.81982C6.53987 7.86982 6.49986 7.95983 6.46986 8.03983C6.49986 7.99983 6.53986 7.97982 6.57986 7.97982C6.58986 7.97982 6.60987 7.97982 6.61987 7.97982C6.71987 7.97982 6.80987 8.05982 6.80987 8.15982H6.82986Z" fill="#3D3D3D"/>
</svg>
