<svg width="8" height="11" viewBox="0 0 8 11" fill="none" xmlns="http://www.w3.org/2000/svg">
<path d="M7.07973 10.2699H1.02972C0.859724 10.2699 0.719727 10.1299 0.719727 9.95993V1.23993C0.719727 1.06993 0.859724 0.929932 1.02972 0.929932H7.07973C7.24973 0.929932 7.38972 1.06993 7.38972 1.23993V9.95993C7.38972 10.1299 7.24973 10.2699 7.07973 10.2699ZM1.02972 0.949932C0.869724 0.949932 0.739723 1.07993 0.739723 1.23993V9.95993C0.739723 10.1199 0.869724 10.2499 1.02972 10.2499H7.07973C7.23973 10.2499 7.36973 10.1199 7.36973 9.95993V1.23993C7.36973 1.07993 7.23973 0.949932 7.07973 0.949932H1.02972Z" fill="#3D3D3D"/>
<path d="M7.07994 10.2999H1.02994C0.839938 10.2999 0.689941 10.1499 0.689941 9.9599V1.2399C0.689941 1.0499 0.839938 0.899902 1.02994 0.899902H7.07994C7.26994 0.899902 7.41994 1.0499 7.41994 1.2399V9.9599C7.41994 10.1499 7.26994 10.2999 7.07994 10.2999ZM1.02994 0.969902C0.879938 0.969902 0.769943 1.0899 0.769943 1.2299V9.9499C0.769943 10.0999 0.889938 10.2099 1.02994 10.2099H7.07994C7.22994 10.2099 7.33994 10.0899 7.33994 9.9499V1.2299C7.33994 1.0799 7.21994 0.969902 7.07994 0.969902H1.02994Z" fill="#3D3D3D"/>
<path d="M6.89996 10.0499H1.19997C1.06997 10.0499 0.959961 9.9399 0.959961 9.8099V1.3899C0.959961 1.2599 1.06997 1.1499 1.19997 1.1499H6.89996C7.02996 1.1499 7.13996 1.2599 7.13996 1.3899V9.8099C7.13996 9.9399 7.02996 10.0499 6.89996 10.0499ZM1.19997 1.1999C1.08997 1.1999 1.00996 1.2899 1.00996 1.3899V9.8099C1.00996 9.9199 1.09997 9.9999 1.19997 9.9999H6.89996C7.00996 9.9999 7.08997 9.9099 7.08997 9.8099V1.3899C7.08997 1.2799 6.99996 1.1999 6.89996 1.1999H1.19997Z" fill="#3D3D3D"/>
<path d="M7.37994 4.56987C7.37994 4.56987 7.30994 4.55987 7.28994 4.56987C7.27994 4.56987 7.26994 4.57987 7.25994 4.58987C7.23994 4.59987 7.21994 4.60988 7.18994 4.60988C7.20994 4.60988 7.22994 4.60988 7.23994 4.60988C7.25994 4.60988 7.26994 4.58987 7.28994 4.58987C7.30994 4.58987 7.32994 4.58987 7.33994 4.59987C7.33994 4.59987 7.33994 4.61987 7.35994 4.59987C7.35994 4.59987 7.35994 4.57987 7.35994 4.56987H7.37994Z" fill="#3D3D3D"/>
<path d="M6.00977 0.919922C6.00977 0.919922 6.06976 0.969922 6.06976 1.01992C6.06976 1.06992 6.04977 1.10992 6.04977 1.15992C6.07977 1.08992 6.10976 1.02992 6.10976 0.949923C6.12976 0.949923 6.14976 0.939922 6.17976 0.939922C6.12976 0.939922 6.08977 0.919922 6.00977 0.919922Z" fill="#3D3D3D"/>
<path d="M6.31982 0.939941C6.31982 0.939941 6.31982 1.01994 6.31982 1.04994C6.32982 1.03994 6.34982 0.97994 6.34982 0.95994C6.34982 0.94994 6.33982 0.939941 6.31982 0.939941Z" fill="#3D3D3D"/>
<path d="M3.06982 0.939941C3.06982 0.939941 3.12982 0.969941 3.13982 0.989941C3.14982 1.00994 3.13983 1.03994 3.15983 1.05994C3.16983 1.08994 3.20982 1.07994 3.23982 1.08994C3.26982 1.08994 3.28982 1.10994 3.31982 1.11994C3.31982 1.09994 3.29982 1.08994 3.27982 1.07994C3.26982 1.07994 3.25982 1.07994 3.24982 1.07994H3.20982C3.20982 1.07994 3.18983 1.01994 3.18983 1.00994C3.18983 0.989941 3.20983 0.97994 3.22983 0.96994C3.21983 0.94994 3.11983 0.96994 3.08983 0.96994L3.06982 0.939941Z" fill="#3D3D3D"/>
<path d="M3.43018 0.939941C3.43018 0.939941 3.44018 0.979941 3.45018 0.999941C3.45018 1.01994 3.45018 1.02994 3.47018 1.03994C3.47018 1.01994 3.47018 0.98994 3.47018 0.95994C3.47018 0.93994 3.47018 0.939941 3.44018 0.939941H3.43018Z" fill="#3D3D3D"/>
<path d="M0.73003 1.38986C0.73003 1.38986 0.790029 1.38986 0.830029 1.39986C0.850029 1.39986 0.830028 1.39986 0.860028 1.39986C0.880028 1.39986 0.890031 1.39986 0.910031 1.39986C0.890031 1.39986 0.870031 1.39986 0.840031 1.39986C0.800031 1.39986 0.810028 1.39986 0.790028 1.37986C0.780028 1.37986 0.760025 1.37986 0.740025 1.37986C0.730025 1.37986 0.74003 1.36986 0.73003 1.35986C0.72003 1.35986 0.73003 1.38986 0.73003 1.39986V1.38986Z" fill="#3D3D3D"/>
<path d="M0.73003 9.55978C0.73003 9.55978 0.790029 9.55978 0.830029 9.56978C0.850029 9.56978 0.830028 9.56978 0.860028 9.56978C0.880028 9.56978 0.890031 9.56978 0.910031 9.56978C0.890031 9.56978 0.870031 9.56978 0.840031 9.56978C0.800031 9.56978 0.810028 9.56978 0.790028 9.54978C0.780028 9.54978 0.760025 9.54978 0.740025 9.54978C0.730025 9.54978 0.74003 9.53979 0.73003 9.52979C0.72003 9.52979 0.73003 9.55978 0.73003 9.56978V9.55978Z" fill="#3D3D3D"/>
<path d="M0.739975 1.14995H0.819977C0.829977 1.12995 0.769981 1.13995 0.769981 1.11995C0.769981 1.10995 0.789976 1.08995 0.779976 1.07995C0.779976 1.04995 0.72998 1.10995 0.72998 1.13995L0.739975 1.14995Z" fill="#3D3D3D"/>
<path d="M4.60984 0.939941C4.60984 0.939941 4.60984 0.93994 4.61984 0.95994C4.61984 0.95994 4.61984 0.979941 4.61984 0.989941C4.61984 1.00994 4.61984 1.02994 4.61984 1.04994C4.61984 1.03994 4.61984 1.02994 4.61984 1.00994C4.61984 0.999941 4.61984 0.98994 4.62984 0.97994C4.62984 0.96994 4.62984 0.969942 4.62984 0.949942C4.62984 0.949942 4.62984 0.949942 4.60984 0.949942C4.60984 0.949942 4.59984 0.949942 4.58984 0.949942L4.60984 0.939941Z" fill="#3D3D3D"/>
<path d="M4.85986 10.2698C4.85986 10.2698 4.91986 10.2198 4.91986 10.1698C4.91986 10.1198 4.89986 10.0798 4.89986 10.0298C4.92986 10.0998 4.95986 10.1598 4.95986 10.2398C4.97986 10.2398 4.99986 10.2498 5.02986 10.2498C4.97986 10.2498 4.93986 10.2698 4.85986 10.2698Z" fill="#3D3D3D"/>
<path d="M0.709961 9.02979C0.709961 9.02979 0.759959 9.08978 0.809959 9.08978C0.859959 9.08978 0.899966 9.06978 0.949966 9.06978C0.879966 9.09978 0.80996 9.12978 0.73996 9.12978C0.73996 9.14978 0.729965 9.16979 0.729965 9.19979C0.729965 9.14979 0.709961 9.10979 0.709961 9.02979Z" fill="#3D3D3D"/>
<path d="M5.16992 10.2499C5.16992 10.2499 5.16992 10.1699 5.16992 10.1399C5.17992 10.1499 5.19993 10.2099 5.19993 10.2299C5.19993 10.2399 5.18992 10.2499 5.16992 10.2499Z" fill="#3D3D3D"/>
<path d="M1.91992 10.2498C1.91992 10.2498 1.97992 10.2198 1.98992 10.1998C1.99992 10.1798 1.98993 10.1498 2.00993 10.1298C2.01993 10.0998 2.05993 10.1098 2.08993 10.0998C2.11993 10.0998 2.13992 10.0798 2.16992 10.0698C2.16992 10.0898 2.14992 10.0998 2.12992 10.1098C2.11992 10.1098 2.10992 10.1098 2.09992 10.1098H2.05992C2.05992 10.1098 2.03992 10.1698 2.03992 10.1798C2.03992 10.1998 2.05993 10.2098 2.07993 10.2198C2.06993 10.2398 1.96993 10.2198 1.93993 10.2198L1.91992 10.2498Z" fill="#3D3D3D"/>
<path d="M2.27979 10.2499C2.27979 10.2499 2.28979 10.2099 2.29979 10.1899C2.29979 10.1699 2.29979 10.1599 2.31979 10.1499C2.31979 10.1699 2.31979 10.1999 2.31979 10.2299C2.31979 10.2499 2.31979 10.2499 2.28979 10.2499H2.27979Z" fill="#3D3D3D"/>
<path d="M3.45994 10.2499C3.45994 10.2499 3.45994 10.2499 3.46994 10.2299C3.46994 10.2299 3.46994 10.2099 3.46994 10.1999C3.46994 10.1799 3.46994 10.1599 3.46994 10.1399C3.46994 10.1499 3.46994 10.1599 3.46994 10.1799C3.46994 10.1899 3.46994 10.1999 3.47994 10.2099C3.47994 10.2199 3.47994 10.2199 3.47994 10.2399C3.47994 10.2399 3.47994 10.2399 3.45994 10.2399C3.45994 10.2399 3.44994 10.2399 3.43994 10.2399L3.45994 10.2499Z" fill="#3D3D3D"/>
<path d="M7.38006 2.52979C7.31006 2.52979 7.23006 2.52979 7.16006 2.52979C7.12006 2.52979 7.12006 2.52978 7.10006 2.55978C7.06006 2.60978 6.99006 2.60979 6.93006 2.61979C6.89006 2.62979 6.85006 2.63978 6.81006 2.63978C6.84006 2.66978 6.94006 2.63978 6.98006 2.62978C7.01006 2.62978 7.05006 2.60978 7.08006 2.59978C7.12006 2.56978 7.13006 2.55978 7.18006 2.55978C7.22006 2.55978 7.25006 2.55978 7.30006 2.55978C7.31006 2.55978 7.33006 2.55978 7.35006 2.55978C7.37006 2.55978 7.37006 2.56978 7.39006 2.57978C7.39006 2.56978 7.39006 2.55979 7.39006 2.53979L7.38006 2.52979Z" fill="#3D3D3D"/>
<path d="M7.36971 7.72998C7.29971 7.72998 7.2197 7.72998 7.1497 7.72998C7.1097 7.72998 7.0997 7.75998 7.0697 7.77998C7.0397 7.79998 6.98971 7.80998 6.94971 7.80998C6.98971 7.80998 7.0297 7.80998 7.0697 7.79998C7.1097 7.76998 7.1197 7.75998 7.1697 7.75998C7.2397 7.74998 7.2897 7.75998 7.3297 7.82998C7.3497 7.86998 7.3597 7.87998 7.3597 7.91998C7.3597 7.88998 7.3697 7.85998 7.3797 7.82998C7.3797 7.79998 7.3797 7.76998 7.3797 7.73998L7.36971 7.72998Z" fill="#3D3D3D"/>
<path d="M7.36973 2.77979C7.36973 2.77979 7.25973 2.77979 7.21973 2.78979C7.24973 2.78979 7.26973 2.78979 7.29973 2.78979C7.30973 2.78979 7.31973 2.79978 7.33973 2.80978C7.36973 2.80978 7.38972 2.80979 7.37972 2.77979H7.36973Z" fill="#3D3D3D"/>
<path d="M7.36996 2.33983C7.36996 2.33983 7.23996 2.41983 7.20996 2.40983C7.23996 2.37983 7.27996 2.37983 7.30996 2.35983C7.32996 2.34983 7.34996 2.32983 7.37996 2.32983H7.36996V2.33983Z" fill="#3D3D3D"/>
<path d="M0.709961 3.54979C0.709961 3.54979 0.749966 3.57979 0.769966 3.58979C0.789966 3.59979 0.839962 3.59979 0.859962 3.59979C0.949962 3.59979 1.00997 3.57979 1.08997 3.55979C1.02997 3.60979 0.969963 3.61979 0.899963 3.61979C0.839963 3.61979 0.739961 3.61979 0.709961 3.53979V3.54979Z" fill="#3D3D3D"/>
<path d="M0.729787 3.41988C0.729787 3.33988 0.859782 3.34988 0.919782 3.32988C0.879782 3.31988 0.809788 3.32988 0.769788 3.32988C0.689788 3.32988 0.719782 3.35988 0.739782 3.40988L0.729787 3.41988Z" fill="#3D3D3D"/>
<path d="M0.739746 7.00987C0.739746 6.93987 0.849748 6.96987 0.889748 6.96987C0.929748 6.96987 0.929753 6.94987 0.949753 6.91987C0.959753 6.89987 0.979746 6.87987 0.989746 6.86987C0.949746 6.89987 0.959746 6.96987 0.919746 6.98987C0.869746 7.01987 0.789748 6.96987 0.749748 7.01987C0.749748 7.01987 0.749748 6.99987 0.749748 7.00987H0.739746Z" fill="#3D3D3D"/>
<path d="M0.729829 5.46996C0.729829 5.46996 0.729829 5.50996 0.729829 5.51996C0.729829 5.51996 0.759827 5.54996 0.759827 5.55996C0.759827 5.58996 0.719826 5.59996 0.719826 5.62996C0.719826 5.58996 0.699826 5.49996 0.719826 5.45996L0.729829 5.46996Z" fill="#3D3D3D"/>
<path d="M0.739781 5.6499C0.739781 5.6499 0.779786 5.6699 0.799786 5.6699C0.829786 5.6699 0.829781 5.6699 0.849781 5.6899C0.889781 5.7199 0.899785 5.6699 0.939785 5.6699C0.919785 5.6899 0.89978 5.6899 0.87978 5.7099C0.84978 5.7199 0.849785 5.7099 0.829785 5.6999C0.819785 5.6999 0.779785 5.6999 0.759785 5.6999C0.739785 5.6999 0.739781 5.7499 0.739781 5.7699C0.739781 5.7999 0.769784 5.7999 0.789784 5.8099C0.779784 5.8099 0.749783 5.8099 0.749783 5.8099C0.749783 5.8099 0.749786 5.8099 0.729786 5.8099C0.709786 5.8099 0.719784 5.7799 0.719784 5.7699C0.719784 5.7299 0.719781 5.6999 0.739781 5.6699V5.6499Z" fill="#3D3D3D"/>
<path d="M0.72998 6.86982C0.72998 6.86982 0.809981 6.86981 0.839981 6.82981C0.829981 6.82981 0.80998 6.82981 0.79998 6.82981C0.76998 6.82981 0.74998 6.81981 0.72998 6.80981C0.72998 6.82981 0.72998 6.84982 0.72998 6.85982H0.739975C0.739975 6.85982 0.739975 6.86981 0.739975 6.87981L0.72998 6.86982Z" fill="#3D3D3D"/>
<path d="M1.52002 3.08984C1.52002 3.08984 1.52002 3.08984 1.52002 3.09984C1.52002 3.09984 1.52001 3.09984 1.53001 3.08984H1.52002Z" fill="white"/>
<path d="M1.65012 1.48999H1.67011C1.72011 1.48999 1.77011 1.49999 1.81011 1.51999C1.87011 1.55999 1.90012 1.61999 1.90012 1.69999C1.90012 1.69999 1.90011 1.77999 1.88011 1.81999C1.88011 1.81999 1.86012 1.86999 1.86012 1.87999C1.86012 1.87999 1.87012 1.92999 1.90012 1.93999C1.90012 1.93999 1.86012 1.94999 1.84012 1.95999C1.82012 1.96999 1.81012 1.98999 1.80012 1.99999C1.73012 2.11999 1.66012 2.20999 1.59012 2.25999H1.69012C1.72012 2.25999 1.74011 2.25999 1.74011 2.25999C1.74011 2.25999 1.75012 2.24999 1.76012 2.21999C1.77012 2.19999 1.78012 2.17999 1.79012 2.15999H1.93011C1.92011 2.29999 1.91012 2.35999 1.91012 2.35999H1.37012V2.23999C1.37012 2.23999 1.38012 2.22999 1.40012 2.20999C1.44012 2.16999 1.47011 2.13999 1.50011 2.10999C1.54011 2.06999 1.57011 2.02999 1.60011 1.97999V1.95999C1.60011 1.95999 1.59011 1.90999 1.56011 1.89999C1.56011 1.89999 1.58012 1.89999 1.59012 1.89999C1.61012 1.89999 1.62011 1.87999 1.64011 1.86999C1.66011 1.84999 1.67011 1.82999 1.67011 1.81999C1.67011 1.78999 1.68011 1.74999 1.68011 1.72999C1.68011 1.66999 1.67011 1.63999 1.64011 1.62999C1.64011 1.62999 1.63012 1.62999 1.62012 1.62999C1.59012 1.62999 1.57011 1.65999 1.57011 1.70999C1.57011 1.74999 1.56011 1.77999 1.56011 1.79999H1.37012C1.37012 1.67999 1.39012 1.59999 1.44012 1.55999C1.44012 1.55999 1.46012 1.54999 1.47012 1.52999C1.49012 1.51999 1.52012 1.50999 1.54012 1.49999C1.57012 1.49999 1.60011 1.49999 1.63011 1.49999L1.65012 1.48999Z" fill="#3D3D3D"/>
<path d="M6.36008 9.68983H6.34008C6.29008 9.68983 6.24008 9.67982 6.20008 9.65982C6.14008 9.61982 6.11008 9.55982 6.11008 9.47982C6.11008 9.47982 6.11007 9.39983 6.13007 9.35983C6.13007 9.35983 6.15008 9.30982 6.15008 9.29982C6.15008 9.29982 6.14008 9.24982 6.11008 9.23982C6.11008 9.23982 6.15007 9.22982 6.17007 9.21982C6.19007 9.20982 6.20008 9.18982 6.21008 9.17982C6.28008 9.05982 6.35007 8.96982 6.42007 8.91982H6.32008C6.29008 8.91982 6.27008 8.91982 6.27008 8.91982C6.27008 8.91982 6.26008 8.92982 6.25008 8.95982C6.24008 8.97982 6.23008 8.99982 6.22008 9.01982H6.08008C6.09008 8.87982 6.10007 8.81982 6.10007 8.81982H6.64008V8.93983C6.64008 8.93983 6.63008 8.94982 6.61008 8.96982C6.57008 9.00982 6.54008 9.03982 6.51008 9.06982C6.47008 9.10982 6.44008 9.14983 6.41008 9.19983V9.21982C6.41008 9.21982 6.42008 9.26983 6.45008 9.27983C6.45008 9.27983 6.43007 9.27983 6.42007 9.27983C6.40007 9.27983 6.39008 9.29982 6.37008 9.30982C6.35008 9.32982 6.34008 9.34983 6.34008 9.35983C6.34008 9.39983 6.33008 9.42983 6.33008 9.44983C6.33008 9.50983 6.34008 9.53982 6.37008 9.54982C6.37008 9.54982 6.38008 9.54982 6.39008 9.54982C6.42008 9.54982 6.44008 9.51982 6.44008 9.46982C6.44008 9.42982 6.45008 9.39982 6.45008 9.37982H6.64008C6.64008 9.49982 6.62008 9.57983 6.57008 9.61983C6.57008 9.61983 6.55008 9.62982 6.54008 9.64982C6.52008 9.65982 6.49008 9.66982 6.47008 9.67982C6.44008 9.67982 6.41007 9.67982 6.38007 9.67982L6.36008 9.68983Z" fill="#3D3D3D"/>
<path d="M2.03006 2.95979C2.03006 2.90979 2.00006 2.86979 1.97006 2.83979C1.89006 2.75979 1.73006 2.71979 1.67006 2.53979C1.62006 2.71979 1.45006 2.75979 1.37006 2.83979C1.34006 2.86979 1.32006 2.90979 1.31006 2.95979C1.31006 3.05979 1.40006 3.13979 1.50006 3.13979C1.51006 3.13979 1.53006 3.13979 1.54006 3.13979C1.58006 3.13979 1.61006 3.10979 1.65006 3.07979C1.62006 3.14979 1.58007 3.24979 1.52007 3.29979C1.56007 3.27979 1.61006 3.27979 1.66006 3.27979C1.66006 3.27979 1.76006 3.27979 1.80006 3.29979C1.74006 3.24979 1.70006 3.15979 1.67006 3.07979C1.70006 3.11979 1.74006 3.13979 1.78006 3.13979C1.79006 3.13979 1.81006 3.13979 1.82006 3.13979C1.92006 3.13979 2.01006 3.05979 2.01006 2.95979H2.03006Z" fill="#3D3D3D"/>
<path d="M6.72 8.15982C6.72 8.20982 6.69 8.24983 6.66 8.27983C6.58 8.35983 6.41 8.39982 6.36 8.57982C6.31 8.39982 6.14 8.35983 6.06 8.27983C6.03 8.24983 6.01 8.20982 6 8.15982C6 8.05982 6.09 7.97982 6.19 7.97982C6.2 7.97982 6.22 7.97982 6.23 7.97982C6.27 7.97982 6.3 8.00983 6.34 8.03983C6.31 7.96983 6.27 7.86982 6.21 7.81982C6.25 7.83982 6.3 7.83982 6.35 7.83982C6.35 7.83982 6.45 7.83982 6.49 7.81982C6.43 7.86982 6.39 7.95983 6.36 8.03983C6.39 7.99983 6.43 7.97982 6.47 7.97982C6.48 7.97982 6.5 7.97982 6.51 7.97982C6.61 7.97982 6.7 8.05982 6.7 8.15982H6.72Z" fill="#3D3D3D"/>
<path d="M2.03006 2.95979C2.03006 2.90979 2.00006 2.86979 1.97006 2.83979C1.89006 2.75979 1.73006 2.71979 1.67006 2.53979C1.62006 2.71979 1.45006 2.75979 1.37006 2.83979C1.34006 2.86979 1.32006 2.90979 1.31006 2.95979C1.31006 3.05979 1.40006 3.13979 1.50006 3.13979C1.51006 3.13979 1.53006 3.13979 1.54006 3.13979C1.58006 3.13979 1.61006 3.10979 1.65006 3.07979C1.62006 3.14979 1.58007 3.24979 1.52007 3.29979C1.56007 3.27979 1.61006 3.27979 1.66006 3.27979C1.66006 3.27979 1.76006 3.27979 1.80006 3.29979C1.74006 3.24979 1.70006 3.15979 1.67006 3.07979C1.70006 3.11979 1.74006 3.13979 1.78006 3.13979C1.79006 3.13979 1.81006 3.13979 1.82006 3.13979C1.92006 3.13979 2.01006 3.05979 2.01006 2.95979H2.03006Z" fill="#3D3D3D"/>
<path d="M6.72 8.15982C6.72 8.20982 6.69 8.24983 6.66 8.27983C6.58 8.35983 6.41 8.39982 6.36 8.57982C6.31 8.39982 6.14 8.35983 6.06 8.27983C6.03 8.24983 6.01 8.20982 6 8.15982C6 8.05982 6.09 7.97982 6.19 7.97982C6.2 7.97982 6.22 7.97982 6.23 7.97982C6.27 7.97982 6.3 8.00983 6.34 8.03983C6.31 7.96983 6.27 7.86982 6.21 7.81982C6.25 7.83982 6.3 7.83982 6.35 7.83982C6.35 7.83982 6.45 7.83982 6.49 7.81982C6.43 7.86982 6.39 7.95983 6.36 8.03983C6.39 7.99983 6.43 7.97982 6.47 7.97982C6.48 7.97982 6.5 7.97982 6.51 7.97982C6.61 7.97982 6.7 8.05982 6.7 8.15982H6.72Z" fill="#3D3D3D"/>
<path d="M4.6497 2.58986C4.6497 2.58986 4.6497 2.57986 4.6497 2.56986C4.6497 2.48986 4.60971 2.41986 4.54971 2.36986C4.40971 2.22986 4.13971 2.16986 4.04971 1.85986C3.95971 2.16986 3.68971 2.22986 3.54971 2.36986C3.48971 2.41986 3.45971 2.48986 3.44971 2.56986C3.44971 2.56986 3.44971 2.57986 3.44971 2.58986C3.44971 2.58986 3.44971 2.58986 3.44971 2.59986C3.44971 2.76986 3.59971 2.90986 3.76971 2.90986C3.78971 2.90986 3.80971 2.90986 3.83971 2.90986C3.89971 2.89986 3.96971 2.86986 4.01971 2.79986C4.01971 2.79986 4.01971 2.79986 4.01971 2.78986C3.97971 2.90986 3.8997 3.06986 3.8097 3.14986C3.8797 3.11986 3.95971 3.10986 4.04971 3.10986C4.12971 3.10986 4.2097 3.10986 4.2897 3.14986C4.1897 3.06986 4.1197 2.90986 4.0797 2.78986C4.0797 2.78986 4.0797 2.78986 4.0797 2.79986C4.1297 2.85986 4.1897 2.88986 4.2597 2.90986C4.2797 2.90986 4.2997 2.90986 4.3297 2.90986C4.4997 2.90986 4.6397 2.76986 4.6497 2.59986C4.6497 2.59986 4.6497 2.59986 4.6497 2.58986Z" fill="#3D3D3D"/>
<path d="M4.6497 8.67987C4.6497 8.67987 4.6497 8.68987 4.6497 8.69987C4.6497 8.77987 4.60971 8.84987 4.54971 8.89987C4.40971 9.03987 4.13971 9.09987 4.04971 9.40987C3.95971 9.09987 3.68971 9.03987 3.54971 8.89987C3.48971 8.84987 3.45971 8.77987 3.44971 8.69987C3.44971 8.69987 3.44971 8.68987 3.44971 8.67987C3.44971 8.67987 3.44971 8.67987 3.44971 8.66987C3.44971 8.49987 3.59971 8.35987 3.76971 8.35987C3.78971 8.35987 3.80971 8.35987 3.83971 8.35987C3.89971 8.36987 3.96971 8.39987 4.01971 8.46987C4.01971 8.46987 4.01971 8.46987 4.01971 8.47987C3.97971 8.35987 3.8997 8.19987 3.8097 8.11987C3.8797 8.14987 3.95971 8.15987 4.04971 8.15987C4.12971 8.15987 4.2097 8.15987 4.2897 8.11987C4.1897 8.19987 4.1197 8.35987 4.0797 8.47987C4.0797 8.47987 4.0797 8.47987 4.0797 8.46987C4.1297 8.40987 4.1897 8.37987 4.2597 8.35987C4.2797 8.35987 4.2997 8.35987 4.3297 8.35987C4.4997 8.35987 4.6397 8.49987 4.6497 8.66987C4.6497 8.66987 4.6497 8.66987 4.6497 8.67987Z" fill="#3D3D3D"/>
</svg>
