<svg width="7" height="11" viewBox="0 0 7 11" fill="none" xmlns="http://www.w3.org/2000/svg">
<path d="M6.42982 10.2699H0.379826C0.209826 10.2699 0.0698242 10.1299 0.0698242 9.95993V1.23993C0.0698242 1.06993 0.209826 0.929932 0.379826 0.929932H6.42982C6.59982 0.929932 6.73983 1.06993 6.73983 1.23993V9.95993C6.73983 10.1299 6.59982 10.2699 6.42982 10.2699ZM0.379826 0.949932C0.219826 0.949932 0.0898247 1.07993 0.0898247 1.23993V9.95993C0.0898247 10.1199 0.219826 10.2499 0.379826 10.2499H6.42982C6.58982 10.2499 6.71983 10.1199 6.71983 9.95993V1.23993C6.71983 1.07993 6.58982 0.949932 6.42982 0.949932H0.379826Z" fill="#3D3D3D"/>
<path d="M6.43004 10.2999H0.380039C0.190039 10.2999 0.0400391 10.1499 0.0400391 9.9599V1.2399C0.0400391 1.0499 0.190039 0.899902 0.380039 0.899902H6.43004C6.62004 0.899902 6.77004 1.0499 6.77004 1.2399V9.9599C6.77004 10.1499 6.62004 10.2999 6.43004 10.2999ZM0.380039 0.969902C0.230039 0.969902 0.120037 1.0899 0.120037 1.2299V9.9499C0.120037 10.0999 0.240039 10.2099 0.380039 10.2099H6.43004C6.58004 10.2099 6.69004 10.0899 6.69004 9.9499V1.2299C6.69004 1.0799 6.57004 0.969902 6.43004 0.969902H0.380039Z" fill="#3D3D3D"/>
<path d="M6.25006 10.0499H0.550056C0.420056 10.0499 0.310059 9.9399 0.310059 9.8099V1.3899C0.310059 1.2599 0.420056 1.1499 0.550056 1.1499H6.25006C6.38006 1.1499 6.49006 1.2599 6.49006 1.3899V9.8099C6.49006 9.9399 6.38006 10.0499 6.25006 10.0499ZM0.550056 1.1999C0.440056 1.1999 0.360058 1.2899 0.360058 1.3899V9.8099C0.360058 9.9199 0.450056 9.9999 0.550056 9.9999H6.25006C6.36006 9.9999 6.44006 9.9099 6.44006 9.8099V1.3899C6.44006 1.2799 6.35006 1.1999 6.25006 1.1999H0.550056Z" fill="#3D3D3D"/>
<path d="M6.73004 4.56987C6.73004 4.56987 6.66004 4.55987 6.64004 4.56987C6.63004 4.56987 6.62004 4.57987 6.61004 4.58987C6.59004 4.59987 6.57004 4.60988 6.54004 4.60988C6.56004 4.60988 6.58004 4.60988 6.59004 4.60988C6.61004 4.60988 6.62004 4.58987 6.64004 4.58987C6.66004 4.58987 6.68004 4.58987 6.69004 4.59987C6.69004 4.59987 6.69004 4.61987 6.71004 4.59987C6.71004 4.59987 6.71004 4.57987 6.71004 4.56987H6.73004Z" fill="#3D3D3D"/>
<path d="M5.35986 0.919922C5.35986 0.919922 5.41986 0.969922 5.41986 1.01992C5.41986 1.06992 5.39986 1.10992 5.39986 1.15992C5.42986 1.08992 5.45986 1.02992 5.45986 0.949923C5.47986 0.949923 5.49986 0.939922 5.52986 0.939922C5.47986 0.939922 5.43986 0.919922 5.35986 0.919922Z" fill="#3D3D3D"/>
<path d="M5.66992 0.939941C5.66992 0.939941 5.66992 1.01994 5.66992 1.04994C5.67992 1.03994 5.69992 0.97994 5.69992 0.95994C5.69992 0.94994 5.68992 0.939941 5.66992 0.939941Z" fill="#3D3D3D"/>
<path d="M2.41992 0.939941C2.41992 0.939941 2.47992 0.969941 2.48992 0.989941C2.49992 1.00994 2.48992 1.03994 2.50992 1.05994C2.51992 1.08994 2.55992 1.07994 2.58992 1.08994C2.61992 1.08994 2.63992 1.10994 2.66992 1.11994C2.66992 1.09994 2.64992 1.08994 2.62992 1.07994C2.61992 1.07994 2.60992 1.07994 2.59992 1.07994H2.55992C2.55992 1.07994 2.53992 1.01994 2.53992 1.00994C2.53992 0.989941 2.55992 0.97994 2.57992 0.96994C2.56992 0.94994 2.46992 0.96994 2.43992 0.96994L2.41992 0.939941Z" fill="#3D3D3D"/>
<path d="M2.78027 0.939941C2.78027 0.939941 2.79027 0.979941 2.80027 0.999941C2.80027 1.01994 2.80027 1.02994 2.82027 1.03994C2.82027 1.01994 2.82027 0.98994 2.82027 0.95994C2.82027 0.93994 2.82028 0.939941 2.79028 0.939941H2.78027Z" fill="#3D3D3D"/>
<path d="M0.080128 1.38986C0.080128 1.38986 0.140127 1.38986 0.180127 1.39986C0.200127 1.39986 0.180125 1.39986 0.210125 1.39986C0.230125 1.39986 0.240125 1.39986 0.260125 1.39986C0.240125 1.39986 0.220125 1.39986 0.190125 1.39986C0.150125 1.39986 0.160126 1.39986 0.140126 1.37986C0.130126 1.37986 0.110126 1.37986 0.0901264 1.37986C0.0801264 1.37986 0.090128 1.36986 0.080128 1.35986C0.070128 1.35986 0.080128 1.38986 0.080128 1.39986V1.38986Z" fill="#3D3D3D"/>
<path d="M0.080128 9.55978C0.080128 9.55978 0.140127 9.55978 0.180127 9.56978C0.200127 9.56978 0.180125 9.56978 0.210125 9.56978C0.230125 9.56978 0.240125 9.56978 0.260125 9.56978C0.240125 9.56978 0.220125 9.56978 0.190125 9.56978C0.150125 9.56978 0.160126 9.56978 0.140126 9.54978C0.130126 9.54978 0.110126 9.54978 0.0901264 9.54978C0.0801264 9.54978 0.090128 9.53979 0.080128 9.52979C0.070128 9.52979 0.080128 9.55978 0.080128 9.56978V9.55978Z" fill="#3D3D3D"/>
<path d="M0.0902242 1.14995H0.170226C0.180226 1.12995 0.120223 1.13995 0.120223 1.11995C0.120223 1.10995 0.140225 1.08995 0.130225 1.07995C0.130225 1.04995 0.0702258 1.10995 0.0802258 1.13995L0.0902242 1.14995Z" fill="#3D3D3D"/>
<path d="M3.95994 0.939941C3.95994 0.939941 3.95994 0.93994 3.96994 0.95994C3.96994 0.95994 3.96994 0.979941 3.96994 0.989941C3.96994 1.00994 3.96994 1.02994 3.96994 1.04994C3.96994 1.03994 3.96994 1.02994 3.96994 1.00994C3.96994 0.999941 3.96994 0.98994 3.97994 0.97994C3.97994 0.96994 3.97994 0.969942 3.97994 0.949942C3.97994 0.949942 3.97994 0.949942 3.95994 0.949942C3.95994 0.949942 3.94994 0.949942 3.93994 0.949942L3.95994 0.939941Z" fill="#3D3D3D"/>
<path d="M4.20996 10.2698C4.20996 10.2698 4.26996 10.2198 4.26996 10.1698C4.26996 10.1198 4.24996 10.0798 4.24996 10.0298C4.27996 10.0998 4.30996 10.1598 4.30996 10.2398C4.32996 10.2398 4.34996 10.2498 4.37996 10.2498C4.32996 10.2498 4.28996 10.2698 4.20996 10.2698Z" fill="#3D3D3D"/>
<path d="M0.0600586 9.02979C0.0600586 9.02979 0.110057 9.08978 0.160057 9.08978C0.210057 9.08978 0.250056 9.06978 0.300056 9.06978C0.230056 9.09978 0.160057 9.12978 0.0900574 9.12978C0.0900574 9.14978 0.0800591 9.16979 0.0800591 9.19979C0.0800591 9.14979 0.0600586 9.10979 0.0600586 9.02979Z" fill="#3D3D3D"/>
<path d="M4.52002 10.2499C4.52002 10.2499 4.52002 10.1699 4.52002 10.1399C4.53002 10.1499 4.55002 10.2099 4.55002 10.2299C4.55002 10.2399 4.54002 10.2499 4.52002 10.2499Z" fill="#3D3D3D"/>
<path d="M1.27002 10.2498C1.27002 10.2498 1.33002 10.2198 1.34002 10.1998C1.35002 10.1798 1.34002 10.1498 1.36002 10.1298C1.37002 10.0998 1.41002 10.1098 1.44002 10.0998C1.47002 10.0998 1.49002 10.0798 1.52002 10.0698C1.52002 10.0898 1.50002 10.0998 1.48002 10.1098C1.47002 10.1098 1.46002 10.1098 1.45002 10.1098H1.41002C1.41002 10.1098 1.39002 10.1698 1.39002 10.1798C1.39002 10.1998 1.41002 10.2098 1.43002 10.2198C1.42002 10.2398 1.32002 10.2198 1.29002 10.2198L1.27002 10.2498Z" fill="#3D3D3D"/>
<path d="M1.62988 10.2499C1.62988 10.2499 1.63988 10.2099 1.64988 10.1899C1.64988 10.1699 1.64988 10.1599 1.66988 10.1499C1.66988 10.1699 1.66988 10.1999 1.66988 10.2299C1.66988 10.2499 1.66988 10.2499 1.63988 10.2499H1.62988Z" fill="#3D3D3D"/>
<path d="M2.81004 10.2499C2.81004 10.2499 2.81004 10.2499 2.82004 10.2299C2.82004 10.2299 2.82004 10.2099 2.82004 10.1999C2.82004 10.1799 2.82004 10.1599 2.82004 10.1399C2.82004 10.1499 2.82004 10.1599 2.82004 10.1799C2.82004 10.1899 2.82004 10.1999 2.83004 10.2099C2.83004 10.2199 2.83004 10.2199 2.83004 10.2399C2.83004 10.2399 2.83004 10.2399 2.81004 10.2399C2.81004 10.2399 2.80004 10.2399 2.79004 10.2399L2.81004 10.2499Z" fill="#3D3D3D"/>
<path d="M6.73016 2.52979C6.66016 2.52979 6.58015 2.52979 6.51015 2.52979C6.47015 2.52979 6.47016 2.52978 6.45016 2.55978C6.41016 2.60978 6.34016 2.60979 6.28016 2.61979C6.24016 2.62979 6.20016 2.63978 6.16016 2.63978C6.19016 2.66978 6.29016 2.63978 6.33016 2.62978C6.36016 2.62978 6.40016 2.60978 6.43016 2.59978C6.47016 2.56978 6.48016 2.55978 6.53016 2.55978C6.57016 2.55978 6.60016 2.55978 6.65016 2.55978C6.66016 2.55978 6.68016 2.55978 6.70016 2.55978C6.72016 2.55978 6.72016 2.56978 6.74016 2.57978C6.74016 2.56978 6.74016 2.55979 6.74016 2.53979L6.73016 2.52979Z" fill="#3D3D3D"/>
<path d="M6.71981 7.72998C6.64981 7.72998 6.56981 7.72998 6.49981 7.72998C6.45981 7.72998 6.44981 7.75998 6.41981 7.77998C6.38981 7.79998 6.3398 7.80998 6.2998 7.80998C6.3398 7.80998 6.37981 7.80998 6.41981 7.79998C6.45981 7.76998 6.46981 7.75998 6.51981 7.75998C6.58981 7.74998 6.63981 7.75998 6.67981 7.82998C6.69981 7.86998 6.7098 7.87998 6.7098 7.91998C6.7098 7.88998 6.7198 7.85998 6.7298 7.82998C6.7298 7.79998 6.7298 7.76998 6.7298 7.73998L6.71981 7.72998Z" fill="#3D3D3D"/>
<path d="M6.71983 2.77979C6.71983 2.77979 6.60982 2.77979 6.56982 2.78979C6.59982 2.78979 6.61983 2.78979 6.64983 2.78979C6.65983 2.78979 6.66982 2.79978 6.68982 2.80978C6.71982 2.80978 6.73982 2.80979 6.72982 2.77979H6.71983Z" fill="#3D3D3D"/>
<path d="M6.72006 2.33983C6.72006 2.33983 6.59006 2.41983 6.56006 2.40983C6.59006 2.37983 6.63006 2.37983 6.66006 2.35983C6.68006 2.34983 6.70006 2.32983 6.73006 2.32983H6.72006V2.33983Z" fill="#3D3D3D"/>
<path d="M0.0600586 3.54979C0.0600586 3.54979 0.100056 3.57979 0.120056 3.58979C0.140056 3.59979 0.190056 3.59979 0.210056 3.59979C0.300056 3.59979 0.360056 3.57979 0.440056 3.55979C0.380056 3.60979 0.320057 3.61979 0.250057 3.61979C0.190057 3.61979 0.0900586 3.61979 0.0600586 3.53979V3.54979Z" fill="#3D3D3D"/>
<path d="M0.0798851 3.41988C0.0798851 3.33988 0.209884 3.34988 0.269884 3.32988C0.229884 3.31988 0.159882 3.32988 0.119882 3.32988C0.0398822 3.32988 0.0698834 3.35988 0.0898834 3.40988L0.0798851 3.41988Z" fill="#3D3D3D"/>
<path d="M0.0898438 7.00987C0.0898438 6.93987 0.199845 6.96987 0.239845 6.96987C0.279845 6.96987 0.279843 6.94987 0.299843 6.91987C0.309843 6.89987 0.329844 6.87987 0.339844 6.86987C0.299844 6.89987 0.309844 6.96987 0.269844 6.98987C0.219844 7.01987 0.139842 6.96987 0.0998421 7.01987C0.0998421 7.01987 0.0998421 6.99987 0.0998421 7.00987H0.0898438Z" fill="#3D3D3D"/>
<path d="M0.0901763 5.46996C0.0901763 5.46996 0.0901763 5.50996 0.0901763 5.51996C0.0901763 5.51996 0.120175 5.54996 0.120175 5.55996C0.120175 5.58996 0.080178 5.59996 0.080178 5.62996C0.080178 5.58996 0.060178 5.49996 0.080178 5.45996L0.0901763 5.46996Z" fill="#3D3D3D"/>
<path d="M0.0898247 5.6499C0.0898247 5.6499 0.129826 5.6699 0.149826 5.6699C0.179826 5.6699 0.179825 5.6699 0.199825 5.6899C0.239825 5.7199 0.249825 5.6699 0.289825 5.6699C0.269825 5.6899 0.249824 5.6899 0.229824 5.7099C0.199824 5.7199 0.199825 5.7099 0.179825 5.6999C0.169825 5.6999 0.129825 5.6999 0.109825 5.6999C0.0898251 5.6999 0.0898247 5.7499 0.0898247 5.7699C0.0898247 5.7999 0.119824 5.7999 0.139824 5.8099C0.129824 5.8099 0.099823 5.8099 0.099823 5.8099C0.099823 5.8099 0.0998264 5.8099 0.0798264 5.8099C0.0798264 5.8099 0.0698242 5.7799 0.0698242 5.7699C0.0698242 5.7299 0.0698247 5.6999 0.0898247 5.6699V5.6499Z" fill="#3D3D3D"/>
<path d="M0.0798264 6.86982C0.0798264 6.86982 0.159823 6.86981 0.189823 6.82981C0.179823 6.82981 0.159824 6.82981 0.139824 6.82981C0.109824 6.82981 0.0898242 6.81981 0.0698242 6.80981C0.0698242 6.82981 0.0698242 6.84982 0.0698242 6.85982H0.0798264C0.0798264 6.85982 0.0798264 6.86981 0.0798264 6.87981V6.86982Z" fill="#3D3D3D"/>
<path d="M0.870117 3.08984C0.870117 3.08984 0.870117 3.08984 0.870117 3.09984C0.870117 3.09984 0.870119 3.09984 0.880119 3.08984H0.870117Z" fill="white"/>
<path d="M0.780273 1.51001H1.27028V1.65001C1.27028 1.65001 1.24028 1.72001 1.20028 1.83001C1.20028 1.85001 1.19027 1.86001 1.19027 1.86001C1.19027 1.86001 1.21028 1.92001 1.24028 1.93001C1.24028 1.93001 1.21028 1.93001 1.20028 1.94001C1.18028 1.94001 1.17028 1.96001 1.17028 1.97001C1.17028 1.97001 1.15028 1.99001 1.15028 2.00001C1.15028 2.00001 1.15028 2.01001 1.15028 2.02001C1.15028 2.02001 1.15027 2.04001 1.14027 2.07001C1.13027 2.12001 1.11027 2.19001 1.10027 2.28001C1.10027 2.33001 1.10027 2.36001 1.10027 2.37001H0.860275C0.860275 2.32001 0.870276 2.27001 0.880276 2.23001C0.900276 2.13001 0.930275 2.05001 0.950275 1.98001C0.950275 1.96001 0.940275 1.94001 0.910275 1.92001C0.910275 1.92001 0.910276 1.92001 0.900276 1.92001C0.900276 1.92001 0.930273 1.92001 0.940273 1.91001C0.960273 1.91001 0.970276 1.89001 0.970276 1.89001C0.980276 1.87001 0.990276 1.86001 0.990276 1.86001C1.03028 1.78001 1.07028 1.70001 1.11028 1.63001H1.00027C1.00027 1.63001 0.950273 1.65001 0.940273 1.68001C0.930273 1.73001 0.920277 1.76001 0.920277 1.78001H0.790276V1.52001L0.780273 1.51001Z" fill="#3D3D3D"/>
<path d="M6.00026 9.66982H5.51025V9.52982C5.51025 9.52982 5.54026 9.46982 5.58026 9.34982C5.58026 9.32982 5.59026 9.31981 5.59026 9.31981C5.59026 9.31981 5.57026 9.25981 5.54026 9.24981C5.54026 9.24981 5.57026 9.24981 5.58026 9.23981C5.60026 9.23981 5.61026 9.21981 5.61026 9.20981C5.61026 9.20981 5.63026 9.18982 5.63026 9.17982C5.63026 9.17982 5.63026 9.16981 5.63026 9.15981C5.63026 9.15981 5.63025 9.13982 5.64025 9.10982C5.65025 9.05982 5.67026 8.98981 5.68026 8.89981C5.68026 8.84981 5.68026 8.81981 5.68026 8.80981H5.92026C5.92026 8.85981 5.91026 8.90982 5.90026 8.94982C5.88026 9.04982 5.85026 9.12982 5.83026 9.19982C5.83026 9.21982 5.84025 9.23982 5.87025 9.25982C5.87025 9.25982 5.87026 9.25982 5.88026 9.25982C5.88026 9.25982 5.85026 9.25982 5.84026 9.26982C5.82026 9.26982 5.81026 9.28982 5.81026 9.28982C5.80026 9.30982 5.79026 9.31981 5.79026 9.31981C5.75026 9.39981 5.71026 9.47981 5.67026 9.54981H5.78025C5.78025 9.54981 5.83026 9.52981 5.84026 9.49981C5.85026 9.44981 5.86026 9.41981 5.86026 9.39981H5.99026V9.65981L6.00026 9.66982Z" fill="#3D3D3D"/>
<path d="M2.95 2.58986C2.95 2.58986 2.95 2.57986 2.95 2.56986C2.95 2.48986 2.91 2.41986 2.85 2.36986C2.71 2.22986 2.44 2.16986 2.35 1.85986C2.26 2.16986 1.99 2.22986 1.85 2.36986C1.79 2.41986 1.76 2.48986 1.75 2.56986C1.75 2.56986 1.75 2.57986 1.75 2.58986C1.75 2.58986 1.75 2.58986 1.75 2.59986C1.75 2.76986 1.9 2.90986 2.07 2.90986C2.09 2.90986 2.11 2.90986 2.14 2.90986C2.2 2.89986 2.27 2.86986 2.32 2.79986C2.32 2.79986 2.32 2.79986 2.32 2.78986C2.28 2.90986 2.2 3.06986 2.11 3.14986C2.18 3.11986 2.26 3.10986 2.35 3.10986C2.43 3.10986 2.51 3.10986 2.59 3.14986C2.49 3.06986 2.42 2.90986 2.38 2.78986C2.38 2.78986 2.38 2.78986 2.38 2.79986C2.43 2.85986 2.49 2.88986 2.56 2.90986C2.58 2.90986 2.6 2.90986 2.63 2.90986C2.8 2.90986 2.94 2.76986 2.95 2.59986C2.95 2.59986 2.95 2.59986 2.95 2.58986Z" fill="#3D3D3D"/>
<path d="M2.95 8.67987C2.95 8.67987 2.95 8.68987 2.95 8.69987C2.95 8.77987 2.91 8.84987 2.85 8.89987C2.71 9.03987 2.44 9.09987 2.35 9.40987C2.26 9.09987 1.99 9.03987 1.85 8.89987C1.79 8.84987 1.76 8.77987 1.75 8.69987C1.75 8.69987 1.75 8.68987 1.75 8.67987C1.75 8.67987 1.75 8.67987 1.75 8.66987C1.75 8.49987 1.9 8.35987 2.07 8.35987C2.09 8.35987 2.11 8.35987 2.14 8.35987C2.2 8.36987 2.27 8.39987 2.32 8.46987C2.32 8.46987 2.32 8.46987 2.32 8.47987C2.28 8.35987 2.2 8.19987 2.11 8.11987C2.18 8.14987 2.26 8.15987 2.35 8.15987C2.43 8.15987 2.51 8.15987 2.59 8.11987C2.49 8.19987 2.42 8.35987 2.38 8.47987C2.38 8.47987 2.38 8.47987 2.38 8.46987C2.43 8.40987 2.49 8.37987 2.56 8.35987C2.58 8.35987 2.6 8.35987 2.63 8.35987C2.8 8.35987 2.94 8.49987 2.95 8.66987C2.95 8.66987 2.95 8.66987 2.95 8.67987Z" fill="#3D3D3D"/>
<path d="M5.07988 2.58986C5.07988 2.58986 5.07988 2.57986 5.07988 2.56986C5.07988 2.48986 5.03988 2.41986 4.97988 2.36986C4.83988 2.22986 4.56988 2.16986 4.47988 1.85986C4.38988 2.16986 4.11988 2.22986 3.97988 2.36986C3.91988 2.41986 3.88988 2.48986 3.87988 2.56986C3.87988 2.56986 3.87988 2.57986 3.87988 2.58986C3.87988 2.58986 3.87988 2.58986 3.87988 2.59986C3.87988 2.76986 4.02988 2.90986 4.19988 2.90986C4.21988 2.90986 4.23988 2.90986 4.26988 2.90986C4.32988 2.89986 4.39988 2.86986 4.44988 2.79986C4.44988 2.79986 4.44988 2.79986 4.44988 2.78986C4.40988 2.90986 4.32988 3.06986 4.23988 3.14986C4.30988 3.11986 4.38988 3.10986 4.47988 3.10986C4.55988 3.10986 4.63988 3.10986 4.71988 3.14986C4.61988 3.06986 4.54988 2.90986 4.50988 2.78986C4.50988 2.78986 4.50988 2.78986 4.50988 2.79986C4.55988 2.85986 4.61988 2.88986 4.68988 2.90986C4.70988 2.90986 4.72988 2.90986 4.75988 2.90986C4.92988 2.90986 5.06988 2.76986 5.07988 2.59986C5.07988 2.59986 5.07988 2.59986 5.07988 2.58986Z" fill="#3D3D3D"/>
<path d="M4.01006 4.15993C4.01006 4.15993 4.01006 4.14993 4.01006 4.13993C4.01006 4.05993 3.97006 3.98993 3.91006 3.93993C3.77006 3.79993 3.50006 3.73993 3.41006 3.42993C3.32006 3.73993 3.05006 3.79993 2.91006 3.93993C2.85006 3.98993 2.82006 4.05993 2.81006 4.13993C2.81006 4.13993 2.81006 4.14993 2.81006 4.15993C2.81006 4.15993 2.81006 4.15993 2.81006 4.16993C2.81006 4.33993 2.96006 4.47993 3.13006 4.47993C3.15006 4.47993 3.17006 4.47993 3.20006 4.47993C3.26006 4.46993 3.33006 4.43993 3.38006 4.36993C3.38006 4.36993 3.38006 4.36993 3.38006 4.35993C3.34006 4.47993 3.26006 4.63993 3.17006 4.71993C3.24006 4.68993 3.32006 4.67993 3.41006 4.67993C3.49006 4.67993 3.57006 4.67993 3.65006 4.71993C3.55006 4.63993 3.48006 4.47993 3.44006 4.35993C3.44006 4.35993 3.44006 4.35993 3.44006 4.36993C3.49006 4.42993 3.55006 4.45993 3.62006 4.47993C3.64006 4.47993 3.66006 4.47993 3.69006 4.47993C3.86006 4.47993 4.00006 4.33993 4.01006 4.16993C4.01006 4.16993 4.01006 4.16993 4.01006 4.15993Z" fill="#3D3D3D"/>
<path d="M2.95 5.71999C2.95 5.71999 2.95 5.70999 2.95 5.69999C2.95 5.61999 2.91 5.54999 2.85 5.49999C2.71 5.35999 2.44 5.29999 2.35 4.98999C2.26 5.29999 1.99 5.35999 1.85 5.49999C1.79 5.54999 1.76 5.61999 1.75 5.69999C1.75 5.69999 1.75 5.70999 1.75 5.71999C1.75 5.71999 1.75 5.71999 1.75 5.72999C1.75 5.89999 1.9 6.03999 2.07 6.03999C2.09 6.03999 2.11 6.03999 2.14 6.03999C2.2 6.02999 2.27 5.99999 2.32 5.92999C2.32 5.92999 2.32 5.92999 2.32 5.91999C2.28 6.03999 2.2 6.19999 2.11 6.27999C2.18 6.24999 2.26 6.23999 2.35 6.23999C2.43 6.23999 2.51 6.23999 2.59 6.27999C2.49 6.19999 2.42 6.03999 2.38 5.91999C2.38 5.91999 2.38 5.91999 2.38 5.92999C2.43 5.98999 2.49 6.01999 2.56 6.03999C2.58 6.03999 2.6 6.03999 2.63 6.03999C2.8 6.03999 2.94 5.89999 2.95 5.72999C2.95 5.72999 2.95 5.72999 2.95 5.71999Z" fill="#3D3D3D"/>
<path d="M5.07988 5.71999C5.07988 5.71999 5.07988 5.70999 5.07988 5.69999C5.07988 5.61999 5.03988 5.54999 4.97988 5.49999C4.83988 5.35999 4.56988 5.29999 4.47988 4.98999C4.38988 5.29999 4.11988 5.35999 3.97988 5.49999C3.91988 5.54999 3.88988 5.61999 3.87988 5.69999C3.87988 5.69999 3.87988 5.70999 3.87988 5.71999C3.87988 5.71999 3.87988 5.71999 3.87988 5.72999C3.87988 5.89999 4.02988 6.03999 4.19988 6.03999C4.21988 6.03999 4.23988 6.03999 4.26988 6.03999C4.32988 6.02999 4.39988 5.99999 4.44988 5.92999C4.44988 5.92999 4.44988 5.92999 4.44988 5.91999C4.40988 6.03999 4.32988 6.19999 4.23988 6.27999C4.30988 6.24999 4.38988 6.23999 4.47988 6.23999C4.55988 6.23999 4.63988 6.23999 4.71988 6.27999C4.61988 6.19999 4.54988 6.03999 4.50988 5.91999C4.50988 5.91999 4.50988 5.91999 4.50988 5.92999C4.55988 5.98999 4.61988 6.01999 4.68988 6.03999C4.70988 6.03999 4.72988 6.03999 4.75988 6.03999C4.92988 6.03999 5.06988 5.89999 5.07988 5.72999C5.07988 5.72999 5.07988 5.72999 5.07988 5.71999Z" fill="#3D3D3D"/>
<path d="M5.07988 8.67987C5.07988 8.67987 5.07988 8.68987 5.07988 8.69987C5.07988 8.77987 5.03988 8.84987 4.97988 8.89987C4.83988 9.03987 4.56988 9.09987 4.47988 9.40987C4.38988 9.09987 4.11988 9.03987 3.97988 8.89987C3.91988 8.84987 3.88988 8.77987 3.87988 8.69987C3.87988 8.69987 3.87988 8.68987 3.87988 8.67987C3.87988 8.67987 3.87988 8.67987 3.87988 8.66987C3.87988 8.49987 4.02988 8.35987 4.19988 8.35987C4.21988 8.35987 4.23988 8.35987 4.26988 8.35987C4.32988 8.36987 4.39988 8.39987 4.44988 8.46987C4.44988 8.46987 4.44988 8.46987 4.44988 8.47987C4.40988 8.35987 4.32988 8.19987 4.23988 8.11987C4.30988 8.14987 4.38988 8.15987 4.47988 8.15987C4.55988 8.15987 4.63988 8.15987 4.71988 8.11987C4.61988 8.19987 4.54988 8.35987 4.50988 8.47987C4.50988 8.47987 4.50988 8.47987 4.50988 8.46987C4.55988 8.40987 4.61988 8.37987 4.68988 8.35987C4.70988 8.35987 4.72988 8.35987 4.75988 8.35987C4.92988 8.35987 5.06988 8.49987 5.07988 8.66987C5.07988 8.66987 5.07988 8.66987 5.07988 8.67987Z" fill="#3D3D3D"/>
<path d="M1.4202 2.95979C1.4202 2.90979 1.3902 2.86979 1.3602 2.83979C1.2802 2.75979 1.1102 2.71979 1.0602 2.53979C1.0102 2.71979 0.840193 2.75979 0.760193 2.83979C0.730193 2.86979 0.710195 2.90979 0.700195 2.95979C0.700195 3.05979 0.790194 3.13979 0.890194 3.13979C0.900194 3.13979 0.920195 3.13979 0.930195 3.13979C0.970195 3.13979 1.0002 3.10979 1.0402 3.07979C1.0102 3.14979 0.970194 3.24979 0.910194 3.29979C0.950194 3.27979 1.00019 3.27979 1.05019 3.27979C1.05019 3.27979 1.15019 3.27979 1.19019 3.29979C1.13019 3.24979 1.0902 3.15979 1.0602 3.07979C1.0902 3.11979 1.1302 3.13979 1.1702 3.13979C1.1802 3.13979 1.20019 3.13979 1.21019 3.13979C1.31019 3.13979 1.4002 3.05979 1.4002 2.95979H1.4202Z" fill="#3D3D3D"/>
<path d="M6.1199 8.15982C6.1199 8.20982 6.0899 8.24983 6.0599 8.27983C5.9799 8.35983 5.8099 8.39982 5.7599 8.57982C5.7099 8.39982 5.5399 8.35983 5.4599 8.27983C5.4299 8.24983 5.3999 8.20982 5.3999 8.15982C5.3999 8.05982 5.4899 7.97982 5.5899 7.97982C5.5999 7.97982 5.6199 7.97982 5.6299 7.97982C5.6699 7.97982 5.6999 8.00983 5.7399 8.03983C5.7099 7.96983 5.6699 7.86982 5.6099 7.81982C5.6499 7.83982 5.6999 7.83982 5.7499 7.83982C5.7499 7.83982 5.8499 7.83982 5.8899 7.81982C5.8299 7.86982 5.7899 7.95983 5.7599 8.03983C5.7899 7.99983 5.8299 7.97982 5.8699 7.97982C5.8799 7.97982 5.8999 7.97982 5.9099 7.97982C6.0099 7.97982 6.0999 8.05982 6.0999 8.15982H6.1199Z" fill="#3D3D3D"/>
</svg>
