<svg width="8" height="11" viewBox="0 0 8 11" fill="none" xmlns="http://www.w3.org/2000/svg">
<path d="M7.31947 10.2699H1.26947C1.09947 10.2699 0.959473 10.1299 0.959473 9.95993V1.23993C0.959473 1.06993 1.09947 0.929932 1.26947 0.929932H7.31947C7.48947 0.929932 7.62947 1.06993 7.62947 1.23993V9.95993C7.62947 10.1299 7.48947 10.2699 7.31947 10.2699ZM1.26947 0.949932C1.10947 0.949932 0.979473 1.07993 0.979473 1.23993V9.95993C0.979473 10.1199 1.10947 10.2499 1.26947 10.2499H7.31947C7.47947 10.2499 7.60947 10.1199 7.60947 9.95993V1.23993C7.60947 1.07993 7.47947 0.949932 7.31947 0.949932H1.26947Z" fill="#3D3D3D"/>
<path d="M7.31969 10.2999H1.26969C1.07969 10.2999 0.929688 10.1499 0.929688 9.9599V1.2399C0.929688 1.0499 1.07969 0.899902 1.26969 0.899902H7.31969C7.50969 0.899902 7.65969 1.0499 7.65969 1.2399V9.9599C7.65969 10.1499 7.50969 10.2999 7.31969 10.2999ZM1.26969 0.969902C1.11969 0.969902 1.00969 1.0899 1.00969 1.2299V9.9499C1.00969 10.0999 1.12969 10.2099 1.26969 10.2099H7.31969C7.46969 10.2099 7.57969 10.0899 7.57969 9.9499V1.2299C7.57969 1.0799 7.45969 0.969902 7.31969 0.969902H1.26969Z" fill="#3D3D3D"/>
<path d="M7.13971 10.0499H1.43971C1.30971 10.0499 1.19971 9.9399 1.19971 9.8099V1.3899C1.19971 1.2599 1.30971 1.1499 1.43971 1.1499H7.13971C7.26971 1.1499 7.37971 1.2599 7.37971 1.3899V9.8099C7.37971 9.9399 7.26971 10.0499 7.13971 10.0499ZM1.43971 1.1999C1.32971 1.1999 1.24971 1.2899 1.24971 1.3899V9.8099C1.24971 9.9199 1.33971 9.9999 1.43971 9.9999H7.13971C7.24971 9.9999 7.32971 9.9099 7.32971 9.8099V1.3899C7.32971 1.2799 7.23971 1.1999 7.13971 1.1999H1.43971Z" fill="#3D3D3D"/>
<path d="M7.61969 4.56987C7.61969 4.56987 7.54969 4.55987 7.52969 4.56987C7.51969 4.56987 7.50969 4.57987 7.49969 4.58987C7.47969 4.59987 7.45969 4.60988 7.42969 4.60988C7.44969 4.60988 7.46969 4.60988 7.47969 4.60988C7.49969 4.60988 7.50969 4.58987 7.52969 4.58987C7.54969 4.58987 7.56969 4.58987 7.57969 4.59987C7.57969 4.59987 7.57969 4.61987 7.59969 4.59987C7.59969 4.59987 7.59969 4.57987 7.59969 4.56987H7.61969Z" fill="#3D3D3D"/>
<path d="M6.24951 0.919922C6.24951 0.919922 6.30951 0.969922 6.30951 1.01992C6.30951 1.06992 6.28951 1.10992 6.28951 1.15992C6.31951 1.08992 6.34951 1.02992 6.34951 0.949923C6.36951 0.949923 6.38951 0.939922 6.41951 0.939922C6.36951 0.939922 6.32951 0.919922 6.24951 0.919922Z" fill="#3D3D3D"/>
<path d="M6.55957 0.939941C6.55957 0.939941 6.55957 1.01994 6.55957 1.04994C6.56957 1.03994 6.58957 0.97994 6.58957 0.95994C6.58957 0.94994 6.57957 0.939941 6.55957 0.939941Z" fill="#3D3D3D"/>
<path d="M3.30957 0.939941C3.30957 0.939941 3.36957 0.969941 3.37957 0.989941C3.38957 1.00994 3.37957 1.03994 3.39957 1.05994C3.40957 1.08994 3.44957 1.07994 3.47957 1.08994C3.50957 1.08994 3.52957 1.10994 3.55957 1.11994C3.55957 1.09994 3.53957 1.08994 3.51957 1.07994C3.50957 1.07994 3.49957 1.07994 3.48957 1.07994H3.44957C3.44957 1.07994 3.42957 1.01994 3.42957 1.00994C3.42957 0.989941 3.44957 0.97994 3.46957 0.96994C3.45957 0.94994 3.35957 0.96994 3.32957 0.96994L3.30957 0.939941Z" fill="#3D3D3D"/>
<path d="M3.66992 0.939941C3.66992 0.939941 3.67992 0.979941 3.68992 0.999941C3.68992 1.01994 3.68992 1.02994 3.70992 1.03994C3.70992 1.01994 3.70992 0.98994 3.70992 0.95994C3.70992 0.93994 3.70992 0.939941 3.67992 0.939941H3.66992Z" fill="#3D3D3D"/>
<path d="M0.969776 1.38986C0.969776 1.38986 1.02978 1.38986 1.06978 1.39986C1.08978 1.39986 1.06978 1.39986 1.09978 1.39986C1.11978 1.39986 1.12978 1.39986 1.14978 1.39986C1.12978 1.39986 1.10978 1.39986 1.07978 1.39986C1.03978 1.39986 1.04978 1.39986 1.02978 1.37986C1.01978 1.37986 0.999776 1.37986 0.979776 1.37986C0.969776 1.37986 0.979776 1.36986 0.969776 1.35986C0.959776 1.35986 0.969776 1.38986 0.969776 1.39986V1.38986Z" fill="#3D3D3D"/>
<path d="M0.969776 9.55978C0.969776 9.55978 1.02978 9.55978 1.06978 9.56978C1.08978 9.56978 1.06978 9.56978 1.09978 9.56978C1.11978 9.56978 1.12978 9.56978 1.14978 9.56978C1.12978 9.56978 1.10978 9.56978 1.07978 9.56978C1.03978 9.56978 1.04978 9.56978 1.02978 9.54978C1.01978 9.54978 0.999776 9.54978 0.979776 9.54978C0.969776 9.54978 0.979776 9.53979 0.969776 9.52979C0.959776 9.52979 0.969776 9.55978 0.969776 9.56978V9.55978Z" fill="#3D3D3D"/>
<path d="M0.979874 1.14995H1.05987C1.06987 1.12995 1.00987 1.13995 1.00987 1.11995C1.00987 1.10995 1.02987 1.08995 1.01987 1.07995C1.01987 1.04995 0.959874 1.10995 0.969874 1.13995H0.979874V1.14995Z" fill="#3D3D3D"/>
<path d="M4.84959 0.939941C4.84959 0.939941 4.84959 0.93994 4.85959 0.95994C4.85959 0.95994 4.85959 0.979941 4.85959 0.989941C4.85959 1.00994 4.85959 1.02994 4.85959 1.04994C4.85959 1.03994 4.85959 1.02994 4.85959 1.00994C4.85959 0.999941 4.85959 0.98994 4.86959 0.97994C4.86959 0.96994 4.86959 0.969942 4.86959 0.949942C4.86959 0.949942 4.86959 0.949942 4.84959 0.949942C4.84959 0.949942 4.83959 0.949942 4.82959 0.949942L4.84959 0.939941Z" fill="#3D3D3D"/>
<path d="M5.09961 10.2698C5.09961 10.2698 5.15961 10.2198 5.15961 10.1698C5.15961 10.1198 5.13961 10.0798 5.13961 10.0298C5.16961 10.0998 5.19961 10.1598 5.19961 10.2398C5.21961 10.2398 5.23961 10.2498 5.26961 10.2498C5.21961 10.2498 5.17961 10.2698 5.09961 10.2698Z" fill="#3D3D3D"/>
<path d="M0.949707 9.02979C0.949707 9.02979 0.999707 9.08978 1.04971 9.08978C1.09971 9.08978 1.13971 9.06978 1.18971 9.06978C1.11971 9.09978 1.04971 9.12978 0.979707 9.12978C0.979707 9.14978 0.969707 9.16979 0.969707 9.19979C0.969707 9.14979 0.949707 9.10979 0.949707 9.02979Z" fill="#3D3D3D"/>
<path d="M5.40967 10.2499C5.40967 10.2499 5.40967 10.1699 5.40967 10.1399C5.41967 10.1499 5.43967 10.2099 5.43967 10.2299C5.43967 10.2399 5.42967 10.2499 5.40967 10.2499Z" fill="#3D3D3D"/>
<path d="M2.15967 10.2498C2.15967 10.2498 2.21967 10.2198 2.22967 10.1998C2.23967 10.1798 2.22967 10.1498 2.24967 10.1298C2.25967 10.0998 2.29967 10.1098 2.32967 10.0998C2.35967 10.0998 2.37967 10.0798 2.40967 10.0698C2.40967 10.0898 2.38967 10.0998 2.36967 10.1098C2.35967 10.1098 2.34967 10.1098 2.33967 10.1098H2.29967C2.29967 10.1098 2.27967 10.1698 2.27967 10.1798C2.27967 10.1998 2.29967 10.2098 2.31967 10.2198C2.30967 10.2398 2.20967 10.2198 2.17967 10.2198L2.15967 10.2498Z" fill="#3D3D3D"/>
<path d="M2.51953 10.2499C2.51953 10.2499 2.52953 10.2099 2.53953 10.1899C2.53953 10.1699 2.53953 10.1599 2.55953 10.1499C2.55953 10.1699 2.55953 10.1999 2.55953 10.2299C2.55953 10.2499 2.55953 10.2499 2.52953 10.2499H2.51953Z" fill="#3D3D3D"/>
<path d="M3.69969 10.2499C3.69969 10.2499 3.69969 10.2499 3.70969 10.2299C3.70969 10.2299 3.70969 10.2099 3.70969 10.1999C3.70969 10.1799 3.70969 10.1599 3.70969 10.1399C3.70969 10.1499 3.70969 10.1599 3.70969 10.1799C3.70969 10.1899 3.70969 10.1999 3.71969 10.2099C3.71969 10.2199 3.71969 10.2199 3.71969 10.2399C3.71969 10.2399 3.71969 10.2399 3.69969 10.2399C3.69969 10.2399 3.68969 10.2399 3.67969 10.2399L3.69969 10.2499Z" fill="#3D3D3D"/>
<path d="M7.6198 2.52979C7.5498 2.52979 7.4698 2.52979 7.3998 2.52979C7.3598 2.52979 7.3598 2.52978 7.3398 2.55978C7.2998 2.60978 7.2298 2.60979 7.1698 2.61979C7.1298 2.62979 7.0898 2.63978 7.0498 2.63978C7.0798 2.66978 7.1798 2.63978 7.2198 2.62978C7.2498 2.62978 7.2898 2.60978 7.3198 2.59978C7.3598 2.56978 7.3698 2.55978 7.4198 2.55978C7.4598 2.55978 7.4898 2.55978 7.5398 2.55978C7.5498 2.55978 7.5698 2.55978 7.5898 2.55978C7.6098 2.55978 7.6098 2.56978 7.6298 2.57978C7.6298 2.56978 7.6298 2.55979 7.6298 2.53979L7.6198 2.52979Z" fill="#3D3D3D"/>
<path d="M7.61971 7.72998C7.54971 7.72998 7.46971 7.72998 7.39971 7.72998C7.35971 7.72998 7.34971 7.75998 7.31971 7.77998C7.28971 7.79998 7.23971 7.80998 7.19971 7.80998C7.23971 7.80998 7.27971 7.80998 7.31971 7.79998C7.35971 7.76998 7.36971 7.75998 7.41971 7.75998C7.48971 7.74998 7.53971 7.75998 7.57971 7.82998C7.59971 7.86998 7.60971 7.87998 7.60971 7.91998C7.60971 7.88998 7.61971 7.85998 7.62971 7.82998C7.62971 7.79998 7.62971 7.76998 7.62971 7.73998L7.61971 7.72998Z" fill="#3D3D3D"/>
<path d="M7.60947 2.77979C7.60947 2.77979 7.49947 2.77979 7.45947 2.78979C7.48947 2.78979 7.50947 2.78979 7.53947 2.78979C7.54947 2.78979 7.55947 2.79978 7.57947 2.80978C7.60947 2.80978 7.62947 2.80979 7.61947 2.77979H7.60947Z" fill="#3D3D3D"/>
<path d="M7.61947 2.33983C7.61947 2.33983 7.48947 2.41983 7.45947 2.40983C7.48947 2.37983 7.52947 2.37983 7.55947 2.35983C7.57947 2.34983 7.59947 2.32983 7.62947 2.32983H7.61947V2.33983Z" fill="#3D3D3D"/>
<path d="M0.949707 3.54979C0.949707 3.54979 0.989707 3.57979 1.00971 3.58979C1.02971 3.59979 1.07971 3.59979 1.09971 3.59979C1.18971 3.59979 1.24971 3.57979 1.32971 3.55979C1.26971 3.60979 1.20971 3.61979 1.13971 3.61979C1.07971 3.61979 0.979707 3.61979 0.949707 3.53979V3.54979Z" fill="#3D3D3D"/>
<path d="M0.969531 3.41988C0.969531 3.33988 1.09953 3.34988 1.15953 3.32988C1.11953 3.31988 1.04953 3.32988 1.00953 3.32988C0.929531 3.32988 0.959531 3.35988 0.979531 3.40988L0.969531 3.41988Z" fill="#3D3D3D"/>
<path d="M0.979492 7.00987C0.979492 6.93987 1.08949 6.96987 1.12949 6.96987C1.16949 6.96987 1.16949 6.94987 1.18949 6.91987C1.19949 6.89987 1.21949 6.87987 1.22949 6.86987C1.18949 6.89987 1.19949 6.96987 1.15949 6.98987C1.10949 7.01987 1.02949 6.96987 0.989492 7.01987C0.989492 7.01987 0.989492 6.99987 0.989492 7.00987H0.979492Z" fill="#3D3D3D"/>
<path d="M0.979826 5.46996C0.979826 5.46996 0.979826 5.50996 0.979826 5.51996C0.979826 5.51996 1.00983 5.54996 1.00983 5.55996C1.00983 5.58996 0.969826 5.59996 0.969826 5.62996C0.969826 5.58996 0.949826 5.49996 0.969826 5.45996L0.979826 5.46996Z" fill="#3D3D3D"/>
<path d="M0.979473 5.6499C0.979473 5.6499 1.01947 5.6699 1.03947 5.6699C1.06947 5.6699 1.06947 5.6699 1.08947 5.6899C1.12947 5.7199 1.13947 5.6699 1.17947 5.6699C1.15947 5.6899 1.13947 5.6899 1.11947 5.7099C1.08947 5.7199 1.08947 5.7099 1.06947 5.6999C1.05947 5.6999 1.01947 5.6999 0.999473 5.6999C0.979473 5.6999 0.979473 5.7499 0.979473 5.7699C0.979473 5.7999 1.00947 5.7999 1.02947 5.8099C1.01947 5.8099 0.989473 5.8099 0.989473 5.8099C0.989473 5.8099 0.989473 5.8099 0.969473 5.8099C0.969473 5.8099 0.959473 5.7799 0.959473 5.7699C0.959473 5.7299 0.959473 5.6999 0.979473 5.6699V5.6499Z" fill="#3D3D3D"/>
<path d="M0.969727 6.86982C0.969727 6.86982 1.04973 6.86981 1.07973 6.82981C1.06973 6.82981 1.04973 6.82981 1.03973 6.82981C1.00973 6.82981 0.989727 6.81981 0.969727 6.80981C0.969727 6.82981 0.969727 6.84982 0.969727 6.85982H0.979727C0.979727 6.85982 0.979727 6.86981 0.979727 6.87981L0.969727 6.86982Z" fill="#3D3D3D"/>
<path d="M1.75977 3.08984C1.75977 3.08984 1.75977 3.08984 1.75977 3.09984C1.75977 3.09984 1.75977 3.09984 1.76977 3.08984H1.75977Z" fill="white"/>
<path d="M1.68982 1.5H2.15982V1.61H2.11982C2.11982 1.61 2.09982 1.61 2.09982 1.63C2.11982 1.76 2.13982 1.83 2.13982 1.84C2.13982 1.86 2.15982 1.88 2.16982 1.89C2.16982 1.89 2.17982 1.9 2.19982 1.91C2.20982 1.91 2.21982 1.91 2.22982 1.91C2.22982 1.91 2.20982 1.92 2.19982 1.93C2.18982 1.95 2.17982 1.96 2.17982 1.98C2.17982 1.98 2.17982 2 2.17982 2.02C2.19982 2.14 2.20982 2.21 2.21982 2.23C2.21982 2.25 2.21982 2.26 2.22982 2.26C2.22982 2.26 2.24982 2.26 2.25982 2.26H2.26982V2.36H1.95982V2.26H1.96982C1.96982 2.26 1.99982 2.26 2.00982 2.26C2.00982 2.26 2.00982 2.25 2.00982 2.24C2.00982 2.22 2.00982 2.19 1.99982 2.16H1.80982L1.79982 2.22C1.79982 2.22 1.79982 2.26 1.81982 2.26C1.81982 2.26 1.81982 2.26 1.83982 2.26V2.36H1.56982V2.26H1.57982C1.57982 2.26 1.60982 2.26 1.61982 2.24C1.61982 2.22 1.63982 2.18 1.64982 2.11L1.66982 2C1.66982 2 1.66982 1.95 1.64982 1.93C1.64982 1.93 1.63982 1.92 1.62982 1.91C1.62982 1.91 1.62982 1.91 1.63982 1.91C1.65982 1.91 1.66982 1.9 1.67982 1.89C1.68982 1.88 1.69982 1.86 1.71982 1.82C1.73982 1.7 1.75982 1.64 1.75982 1.63C1.75982 1.61 1.75982 1.61 1.73982 1.61H1.69982V1.5H1.68982ZM1.89982 1.69C1.86982 1.85 1.84982 1.95 1.83982 1.98C1.85982 1.98 1.87982 1.98 1.88982 1.98H1.95982L1.90982 1.69H1.89982Z" fill="#3D3D3D"/>
<path d="M6.86955 9.66982H6.39955V9.55981H6.43955C6.43955 9.55981 6.45955 9.55982 6.45955 9.53982C6.43955 9.40982 6.41955 9.33981 6.41955 9.32981C6.41955 9.30981 6.39955 9.28982 6.38955 9.27982C6.38955 9.27982 6.37955 9.26982 6.35955 9.25982C6.34955 9.25982 6.33955 9.25982 6.32955 9.25982C6.32955 9.25982 6.34955 9.24981 6.35955 9.23981C6.36955 9.21981 6.37955 9.20982 6.37955 9.18982C6.37955 9.18982 6.37955 9.16981 6.37955 9.14981C6.35955 9.02981 6.34955 8.95982 6.33955 8.93982C6.33955 8.91982 6.33955 8.90981 6.32955 8.90981C6.32955 8.90981 6.30955 8.90981 6.29955 8.90981H6.28955V8.80981H6.59955V8.90981H6.58955C6.58955 8.90981 6.55955 8.90981 6.54955 8.90981C6.54955 8.90981 6.54955 8.91982 6.54955 8.92982C6.54955 8.94982 6.54955 8.96982 6.55955 9.00982H6.74955L6.75955 8.94982C6.75955 8.94982 6.75955 8.90981 6.73955 8.90981C6.73955 8.90981 6.73955 8.90981 6.71955 8.90981V8.80981H6.98955V8.90981H6.97955C6.97955 8.90981 6.94955 8.90982 6.93955 8.92982C6.93955 8.94982 6.91955 8.98981 6.90955 9.05981L6.88955 9.16982C6.88955 9.16982 6.88955 9.21981 6.90955 9.23981C6.90955 9.23981 6.91955 9.24982 6.92955 9.25982C6.92955 9.25982 6.92955 9.25982 6.91955 9.25982C6.89955 9.25982 6.88955 9.26982 6.87955 9.27982C6.86955 9.28982 6.85955 9.30982 6.83955 9.34982C6.81955 9.46982 6.79955 9.52982 6.79955 9.53982C6.79955 9.55982 6.79955 9.55981 6.81955 9.55981H6.85955V9.66982H6.86955ZM6.65955 9.47981C6.68955 9.31981 6.70955 9.21982 6.71955 9.18982C6.69955 9.18982 6.67955 9.18982 6.66955 9.18982H6.59955L6.64955 9.47981H6.65955Z" fill="#3D3D3D"/>
<path d="M2.2698 2.95979C2.2698 2.90979 2.2398 2.86979 2.2098 2.83979C2.1298 2.75979 1.9598 2.71979 1.9098 2.53979C1.8598 2.71979 1.6898 2.75979 1.6098 2.83979C1.5798 2.86979 1.5498 2.90979 1.5498 2.95979C1.5498 3.05979 1.6398 3.13979 1.7398 3.13979C1.7498 3.13979 1.7698 3.13979 1.7798 3.13979C1.8198 3.13979 1.8498 3.10979 1.8898 3.07979C1.8698 3.14979 1.8198 3.24979 1.7598 3.29979C1.7998 3.27979 1.8498 3.27979 1.8998 3.27979C1.8998 3.27979 1.9998 3.27979 2.0398 3.29979C1.9798 3.24979 1.9398 3.15979 1.9098 3.07979C1.9398 3.11979 1.9798 3.13979 2.0198 3.13979C2.0298 3.13979 2.0498 3.13979 2.0598 3.13979C2.1598 3.13979 2.2498 3.05979 2.2498 2.95979H2.2698Z" fill="#3D3D3D"/>
<path d="M6.95975 8.15982C6.95975 8.20982 6.92975 8.24983 6.89975 8.27983C6.81975 8.35983 6.65975 8.39982 6.59975 8.57982C6.54975 8.39982 6.37975 8.35983 6.29975 8.27983C6.26975 8.24983 6.23975 8.20982 6.23975 8.15982C6.23975 8.05982 6.32975 7.97982 6.42975 7.97982C6.43975 7.97982 6.45975 7.97982 6.46975 7.97982C6.50975 7.97982 6.53975 8.00983 6.57975 8.03983C6.54975 7.96983 6.50975 7.86982 6.44975 7.81982C6.48975 7.83982 6.53975 7.83982 6.58975 7.83982C6.58975 7.83982 6.68975 7.83982 6.72975 7.81982C6.66975 7.86982 6.62975 7.95983 6.59975 8.03983C6.62975 7.99983 6.66975 7.97982 6.70975 7.97982C6.71975 7.97982 6.73975 7.97982 6.74975 7.97982C6.84975 7.97982 6.93975 8.05982 6.93975 8.15982H6.95975Z" fill="#3D3D3D"/>
<path d="M5.47949 6.38994C5.57949 6.37994 5.71949 6.38994 5.81949 6.38994C5.65949 6.30994 5.57949 6.34994 5.47949 6.38994Z" fill="#3D3D3D"/>
<path d="M3.61939 4.54004C3.61939 4.54004 3.59939 4.55004 3.58939 4.56004C3.55939 4.60004 3.52939 4.65004 3.52939 4.71004C3.52939 4.70004 3.50939 4.65004 3.49939 4.62004C3.48939 4.62004 3.46939 4.64004 3.45939 4.65004C3.43939 4.69004 3.40939 4.73004 3.37939 4.75004C3.60939 4.75004 3.68939 5.15004 3.68939 5.15004V4.94004C3.68939 4.94004 3.71939 4.97004 3.79939 4.96004C3.56939 4.84004 3.58939 4.64004 3.60939 4.55004L3.61939 4.54004Z" fill="#3D3D3D"/>
<path d="M4.01971 4.44995C4.01971 4.44995 3.97971 4.44995 3.94971 4.44995C4.02971 4.47995 4.05971 4.53995 4.12971 4.53995C4.19971 4.53995 4.23971 4.46995 4.27971 4.44995C4.24971 4.44995 4.20971 4.44995 4.16971 4.44995C4.12971 4.44995 4.06971 4.44995 4.01971 4.44995Z" fill="#3D3D3D"/>
<path d="M2.74963 5.10994C2.74963 5.04994 2.75963 4.97994 2.76963 4.93994C2.72963 4.99994 2.69963 5.04994 2.67963 5.08994C2.67963 5.10994 2.65963 5.12994 2.64963 5.13994C2.64963 5.13994 2.64963 5.14994 2.64963 5.15994C2.64963 5.20994 2.66963 5.21994 2.66963 5.27994C2.66963 5.33994 2.61963 5.62994 2.61963 5.65994C2.61963 5.69994 2.64963 5.69994 2.64963 5.73994C2.64963 5.77994 2.69963 6.22994 2.79963 6.38994C2.73963 6.08994 2.66963 5.62994 2.72963 5.38994C2.74963 5.42994 2.80963 5.46994 2.85963 5.46994C2.81963 5.44994 2.77963 5.34994 2.77963 5.30994C2.79963 5.34994 2.86963 5.35994 2.91963 5.33994C2.82963 5.31994 2.75963 5.19994 2.75963 5.09994L2.74963 5.10994Z" fill="#3D3D3D"/>
<path d="M6.21961 5.90992C6.21961 5.77992 6.19961 5.63992 6.18961 5.54992C6.18961 5.48992 6.16961 5.42992 6.17961 5.40992C6.17961 5.36992 6.19961 4.97992 6.10961 4.85992C6.04961 4.77992 5.98961 4.71992 5.96961 4.68992C5.96961 4.62992 5.91961 4.43992 5.77961 4.37992C5.68961 4.33992 5.58961 4.37992 5.49961 4.39992C5.42961 4.41992 5.36961 4.43992 5.30961 4.42992C5.24961 4.41992 5.15961 4.35992 5.06961 4.29992C4.97961 4.23992 4.88961 4.17992 4.81961 4.16992C4.74961 4.16992 4.64961 4.19992 4.53961 4.24992C4.44961 4.28992 4.35961 4.31992 4.27961 4.32992C4.20961 4.32992 4.11961 4.32992 4.01961 4.32992C3.87961 4.32992 3.73961 4.32992 3.66961 4.34992C3.61961 4.36992 3.54961 4.42992 3.46961 4.48992C3.37961 4.55992 3.27961 4.63992 3.20961 4.66992C3.14961 4.69992 3.06961 4.69992 2.98961 4.70992C2.87961 4.70992 2.78961 4.71992 2.72961 4.76992C2.60961 4.87992 2.57961 4.96992 2.54961 5.04992C2.53961 5.07992 2.52961 5.10992 2.50961 5.13992C2.49961 5.15992 2.47961 5.17992 2.45961 5.20992C2.39961 5.28992 2.34961 5.36992 2.34961 5.44992C2.34961 5.52992 2.41961 5.65992 2.43961 5.69992C2.43961 5.72992 2.42961 5.80992 2.45961 5.88992C2.46961 5.91992 2.48961 5.94992 2.49961 5.96992C2.51961 6.00992 2.53961 6.03992 2.55961 6.11992C2.55961 6.14992 2.56961 6.18992 2.57961 6.21992C2.60961 6.35992 2.63961 6.50992 2.69961 6.56992C2.73961 6.60992 2.78961 6.61992 2.82961 6.62992C2.86961 6.63992 2.89961 6.64992 2.91961 6.67992C2.98961 6.74992 3.07961 6.81992 3.26961 6.79992H3.30961C3.42961 6.77992 3.51961 6.76992 3.56961 6.70992C3.65961 6.78992 3.75961 6.86992 3.91961 6.86992C3.91961 6.86992 3.93961 6.86992 3.94961 6.86992C4.11961 6.86992 4.27961 6.79992 4.34961 6.69992C4.37961 6.71992 4.40961 6.73992 4.43961 6.75992C4.33961 6.83992 4.24961 6.93992 4.24961 7.12992C4.24961 7.28992 4.35961 7.38992 4.56961 7.43992C4.66961 7.45992 4.77961 7.43992 4.86961 7.43992C4.91961 7.43992 4.96961 7.41992 4.99961 7.42992C5.10961 7.44992 5.35961 7.49992 5.49961 7.49992C5.52961 7.49992 5.54961 7.49992 5.56961 7.49992C5.74961 7.45992 5.84961 7.30992 5.84961 7.05992C5.84961 6.87992 5.81961 6.78992 5.75961 6.75992C5.78961 6.73992 5.82961 6.73992 5.84961 6.70992C6.04961 6.50992 6.19961 6.15992 6.18961 5.90992H6.21961ZM4.15961 6.65992C4.15961 6.65992 4.10961 6.66992 4.07961 6.67992C4.04961 6.67992 4.01961 6.67992 3.99961 6.66992L3.92961 6.63992C3.92961 6.63992 3.87961 6.61992 3.85961 6.61992C3.80961 6.60992 3.76961 6.60992 3.70961 6.61992C3.75961 6.59992 3.80961 6.58992 3.85961 6.58992C3.90961 6.58992 3.95961 6.60992 4.00961 6.62992C4.02961 6.62992 4.04961 6.63992 4.07961 6.63992C4.09961 6.63992 4.12961 6.63992 4.14961 6.63992C4.19961 6.62992 4.23961 6.60992 4.28961 6.58992C4.25961 6.62992 4.20961 6.65992 4.15961 6.66992V6.65992ZM4.49961 7.18992C4.49961 7.18992 4.49961 7.16992 4.49961 7.15992C4.53961 7.15992 4.57961 7.15992 4.61961 7.15992C4.66961 7.15992 4.72961 7.15992 4.77961 7.15992C4.72961 7.15992 4.66961 7.14992 4.61961 7.13992C4.57961 7.13992 4.54961 7.11992 4.50961 7.11992C4.53961 7.05992 4.56961 6.99992 4.60961 6.95992C4.60961 6.95992 4.62961 6.93992 4.64961 6.93992C4.64961 6.93992 4.64961 6.93992 4.65961 6.93992C4.71961 6.95992 4.83961 6.98992 4.90961 7.02992C4.92961 7.03992 4.94961 7.05992 4.94961 7.08992C4.94961 7.10992 4.94961 7.13992 4.94961 7.15992C4.78961 7.19992 4.57961 7.19992 4.48961 7.19992L4.49961 7.18992ZM5.79961 6.88992V6.90992C5.78961 6.88992 5.76961 6.86992 5.75961 6.85992C5.78961 6.90992 5.79961 6.95992 5.78961 6.98992C5.74961 6.93992 5.71961 6.92992 5.71961 6.92992C5.76961 7.05992 5.75961 7.19992 5.71961 7.26992C5.71961 7.21992 5.67961 7.11992 5.65961 7.08992C5.68961 7.18992 5.66961 7.29992 5.62961 7.35992C5.62961 7.32992 5.62961 7.28992 5.62961 7.28992C5.55961 7.28992 5.46961 7.25992 5.44961 7.21992C5.41961 7.24992 5.06961 7.28992 5.06961 7.28992L5.04961 7.18992C5.04961 7.27992 4.97961 7.33992 4.92961 7.34992C4.92961 7.34992 4.92961 7.34992 4.91961 7.34992C4.89961 7.34992 4.88961 7.34992 4.86961 7.34992C4.81961 7.34992 4.75961 7.34992 4.69961 7.34992C4.69961 7.34992 4.69961 7.34992 4.70961 7.34992C4.72961 7.34992 4.73961 7.34992 4.74961 7.34992C4.76961 7.34992 4.93961 7.31992 4.97961 7.25992C4.99961 7.22992 5.02961 7.13992 5.00961 7.04992C4.99961 6.99992 4.96961 6.96992 4.92961 6.94992C4.84961 6.90992 4.72961 6.86992 4.66961 6.85992C4.62961 6.84992 4.58961 6.85992 4.55961 6.88992C4.50961 6.93992 4.46961 7.00992 4.43961 7.08992C4.43961 6.97992 4.48961 6.86992 4.58961 6.80992C4.83961 6.91992 5.07961 6.84992 5.16961 6.80992C5.25961 6.77992 5.44961 6.80992 5.44961 6.80992C5.44961 6.80992 5.41961 6.82992 5.40961 6.87992C5.42961 6.84992 5.47961 6.82992 5.54961 6.80992C5.51961 6.83992 5.48961 6.90992 5.48961 6.90992C5.48961 6.90992 5.61961 6.79992 5.69961 6.80992C5.76961 6.80992 5.78961 6.85992 5.79961 6.86992V6.88992ZM4.52961 6.50992C4.52961 6.50992 4.56961 6.52992 4.58961 6.53992C4.60961 6.53992 4.62961 6.53992 4.64961 6.53992C4.66961 6.53992 4.68961 6.53992 4.71961 6.52992C4.73961 6.52992 4.76961 6.52992 4.79961 6.52992H4.81961L4.83961 6.53992C4.84961 6.53992 4.85961 6.53992 4.86961 6.54992C4.88961 6.54992 4.90961 6.56992 4.92961 6.56992C4.94961 6.56992 4.96961 6.57992 4.98961 6.56992C5.00961 6.56992 5.03961 6.56992 5.05961 6.55992C5.03961 6.57992 5.01961 6.58992 4.98961 6.58992C4.96961 6.58992 4.93961 6.58992 4.90961 6.58992C4.87961 6.58992 4.85961 6.57992 4.83961 6.56992H4.80961L4.78961 6.54992H4.77961C4.77961 6.54992 4.68961 6.54992 4.63961 6.54992C4.61961 6.54992 4.58961 6.54992 4.56961 6.52992C4.54961 6.51992 4.52961 6.49992 4.51961 6.47992L4.52961 6.50992ZM5.46961 6.73992C5.34961 6.71992 5.25961 6.66992 5.24961 6.63992C5.24961 6.61992 5.25961 6.59992 5.26961 6.56992C5.27961 6.58992 5.30961 6.59992 5.32961 6.61992C5.37961 6.64992 5.45961 6.68992 5.56961 6.68992C5.57961 6.68992 5.59961 6.68992 5.60961 6.68992C5.67961 6.68992 5.72961 6.66992 5.77961 6.62992C5.78961 6.62992 5.79961 6.60992 5.80961 6.59992C5.81961 6.57992 5.82961 6.55992 5.83961 6.54992C5.68961 6.64992 5.47961 6.67992 5.35961 6.51992C5.49961 6.59992 5.66961 6.61992 5.78961 6.51992C5.63961 6.54992 5.50961 6.57992 5.32961 6.40992C5.32961 6.38992 5.32961 6.36992 5.32961 6.34992C5.32961 6.30992 5.32961 6.26992 5.33961 6.23992C5.34961 6.08992 5.34961 5.93992 5.33961 5.77992C5.33961 5.69992 5.33961 5.62992 5.31961 5.54992C5.31961 5.50992 5.31961 5.47992 5.30961 5.43992C5.30961 5.41992 5.30961 5.39992 5.29961 5.37992C5.31961 5.26992 5.33961 5.06992 5.31961 4.99992C5.30961 5.21992 5.25961 5.22992 5.24961 5.18992C5.24961 5.15992 5.22961 5.13992 5.22961 5.10992C5.20961 5.03992 5.19961 4.95992 5.19961 4.88992C5.19961 4.92992 5.18961 4.96992 5.18961 4.99992C5.18961 5.03992 5.18961 5.07992 5.19961 5.10992C5.20961 5.18992 5.22961 5.25992 5.24961 5.32992C5.24961 5.36992 5.26961 5.39992 5.26961 5.43992C5.26961 5.47992 5.26961 5.50992 5.26961 5.54992C5.26961 5.61992 5.26961 5.69992 5.27961 5.76992C5.27961 5.83992 5.27961 5.91992 5.27961 5.98992C5.27961 6.05992 5.27961 6.13992 5.26961 6.20992C5.26961 6.27992 5.24961 6.34992 5.23961 6.41992C5.21961 6.46992 5.20961 6.52992 5.17961 6.57992C5.14961 6.63992 5.09961 6.69992 5.04961 6.73992C5.09961 6.68992 5.12961 6.62992 5.14961 6.56992C5.16961 6.50992 5.17961 6.43992 5.18961 6.36992C5.18961 6.36992 5.18961 6.36992 5.18961 6.35992C5.12961 6.43992 5.02961 6.50992 4.90961 6.48992C4.65961 6.44992 4.63961 6.38992 4.60961 6.35992C4.57961 6.32992 4.56961 6.26992 4.55961 6.18992C4.48961 6.32992 4.55961 6.39992 4.55961 6.39992C4.55961 6.39992 4.48961 6.36992 4.47961 6.29992C4.47961 6.24992 4.47961 6.06992 4.42961 5.99992C4.42961 6.02992 4.42961 6.04992 4.42961 6.07992C4.42961 6.13992 4.41961 6.18992 4.40961 6.24992C4.40961 6.30992 4.39961 6.35992 4.38961 6.41992C4.38961 6.44992 4.38961 6.47992 4.37961 6.50992C4.37961 6.39992 4.37961 6.28992 4.37961 6.17992C4.37961 6.09992 4.37961 6.01992 4.37961 5.94992C4.37961 5.86992 4.36961 5.78992 4.35961 5.71992C4.34961 5.64992 4.35961 5.56992 4.35961 5.49992C4.35961 5.41992 4.37961 5.34992 4.37961 5.26992C4.37961 5.18992 4.39961 5.11992 4.39961 5.03992C4.39961 4.95992 4.39961 4.87992 4.38961 4.80992C4.38961 4.88992 4.38961 4.95992 4.37961 5.03992C4.37961 5.11992 4.35961 5.18992 4.34961 5.26992C4.33961 5.34992 4.32961 5.41992 4.31961 5.49992C4.31961 5.57992 4.30961 5.65992 4.31961 5.73992C4.33961 5.88992 4.33961 6.03992 4.33961 6.19992V6.35992C4.33961 6.40992 4.28961 6.47992 4.18961 6.48992C4.23961 6.51992 4.29961 6.49992 4.29961 6.49992C4.29961 6.49992 4.26961 6.53992 4.17961 6.55992C4.08961 6.57992 4.03961 6.53992 3.96961 6.52992C3.89961 6.51992 3.81961 6.52992 3.81961 6.52992C3.81961 6.52992 3.88961 6.46992 3.99961 6.46992C3.87961 6.43992 3.78961 6.46992 3.71961 6.45992C3.64961 6.44992 3.60961 6.35992 3.58961 6.27992C3.56961 6.42992 3.59961 6.56992 3.63961 6.64992C3.63961 6.64992 3.63961 6.64992 3.62961 6.64992C3.59961 6.58992 3.57961 6.51992 3.55961 6.44992C3.53961 6.37992 3.52961 6.29992 3.51961 6.22992C3.50961 6.15992 3.50961 6.07992 3.48961 5.99992C3.47961 5.92992 3.45961 5.84992 3.44961 5.77992C3.42961 5.62992 3.41961 5.47992 3.40961 5.32992C3.40961 5.24992 3.40961 5.17992 3.40961 5.09992C3.40961 5.02992 3.41961 4.94992 3.44961 4.87992C3.42961 4.90992 3.41961 4.94992 3.40961 4.98992C3.39961 5.02992 3.38961 5.05992 3.38961 5.09992C3.38961 5.15992 3.38961 5.20992 3.37961 5.26992C3.35961 5.19992 3.33961 5.07992 3.33961 4.98992C3.25961 5.22992 3.33961 5.40992 3.37961 5.46992C3.37961 5.57992 3.37961 5.67992 3.39961 5.78992C3.39961 5.86992 3.41961 5.93992 3.42961 6.01992C3.43961 6.08992 3.43961 6.16992 3.44961 6.24992C3.44961 6.30992 3.47961 6.35992 3.48961 6.40992L3.46961 6.38992C3.46961 6.38992 3.45961 6.42992 3.44961 6.43992C3.44961 6.43992 3.44961 6.45992 3.43961 6.46992C3.43961 6.48992 3.41961 6.50992 3.40961 6.52992C3.39961 6.54992 3.37961 6.56992 3.36961 6.57992C3.34961 6.59992 3.33961 6.60992 3.31961 6.61992C3.33961 6.61992 3.36961 6.61992 3.38961 6.59992C3.40961 6.59992 3.43961 6.57992 3.45961 6.56992C3.45961 6.56992 3.45961 6.56992 3.46961 6.55992C3.45961 6.57992 3.44961 6.58992 3.42961 6.60992C3.40961 6.61992 3.39961 6.63992 3.37961 6.63992C3.35961 6.63992 3.33961 6.65992 3.31961 6.65992C3.33961 6.65992 3.36961 6.65992 3.38961 6.65992C3.40961 6.65992 3.43961 6.65992 3.45961 6.64992C3.48961 6.64992 3.50961 6.61992 3.53961 6.59992C3.50961 6.66992 3.46961 6.69992 3.31961 6.70992C3.20961 6.70992 3.18961 6.72992 3.11961 6.70992C3.15961 6.70992 3.20961 6.68992 3.24961 6.66992C3.20961 6.66992 3.15961 6.66992 3.11961 6.65992C3.07961 6.65992 3.03961 6.65992 2.99961 6.63992C2.97961 6.63992 2.96961 6.62992 2.94961 6.61992C2.92961 6.60992 2.91961 6.58992 2.90961 6.57992C2.87961 6.54992 2.85961 6.51992 2.82961 6.47992C2.82961 6.50992 2.83961 6.54992 2.85961 6.57992C2.82961 6.57992 2.80961 6.55992 2.78961 6.53992C2.73961 6.49992 2.70961 6.33992 2.68961 6.22992C2.68961 6.18992 2.67961 6.15992 2.66961 6.11992C2.65961 6.01992 2.63961 5.91992 2.61961 5.80992C2.61961 5.85992 2.61961 5.90992 2.60961 5.95992C2.60961 5.95992 2.60961 5.94992 2.60961 5.93992C2.59961 5.91992 2.57961 5.89992 2.56961 5.86992C2.53961 5.79992 2.55961 5.70992 2.55961 5.70992V5.68992C2.55961 5.65992 2.57961 5.62992 2.57961 5.59992C2.58961 5.55992 2.59961 5.52992 2.60961 5.48992C2.62961 5.41992 2.63961 5.33992 2.63961 5.26992C2.62961 5.33992 2.60961 5.41992 2.57961 5.47992C2.57961 5.48992 2.56961 5.50992 2.55961 5.51992C2.55961 5.49992 2.54961 5.48992 2.54961 5.46992C2.54961 5.41992 2.54961 5.36992 2.56961 5.31992C2.54961 5.36992 2.52961 5.40992 2.51961 5.45992C2.51961 5.49992 2.51961 5.54992 2.51961 5.58992C2.49961 5.52992 2.46961 5.46992 2.46961 5.42992C2.46961 5.37992 2.51961 5.30992 2.56961 5.23992C2.58961 5.21992 2.59961 5.18992 2.61961 5.16992C2.63961 5.13992 2.65961 5.09992 2.66961 5.06992C2.69961 4.99992 2.72961 4.91992 2.82961 4.81992C2.86961 4.78992 2.95961 4.77992 3.03961 4.77992C3.12961 4.77992 3.21961 4.76992 3.28961 4.73992C3.36961 4.69992 3.46961 4.62992 3.55961 4.54992C3.62961 4.48992 3.69961 4.43992 3.74961 4.41992C3.79961 4.39992 3.93961 4.39992 4.06961 4.39992C4.16961 4.39992 4.26961 4.39992 4.33961 4.39992C4.41961 4.38992 4.51961 4.34992 4.60961 4.30992C4.69961 4.26992 4.79961 4.22992 4.84961 4.23992C4.89961 4.23992 4.97961 4.29992 5.06961 4.34992C5.15961 4.40992 5.24961 4.46992 5.32961 4.48992C5.40961 4.50992 5.47961 4.48992 5.54961 4.45992C5.62961 4.43992 5.70961 4.40992 5.77961 4.43992C5.90961 4.48992 5.92961 4.69992 5.92961 4.70992V4.71992L5.96961 5.08992L5.99961 4.77992C5.99961 4.77992 6.05961 4.83992 6.08961 4.88992C6.14961 4.96992 6.14961 5.30992 6.13961 5.38992C6.13961 5.41992 6.13961 5.46992 6.15961 5.54992C6.16961 5.64992 6.18961 5.77992 6.18961 5.89992C6.18961 6.09992 6.06961 6.43992 5.86961 6.63992C5.75961 6.74992 5.59961 6.73992 5.50961 6.71992L5.46961 6.73992Z" fill="#3D3D3D"/>
<path d="M3.86963 4.46997C3.95963 4.51997 4.05963 4.67997 3.98963 4.90997C4.06963 4.80997 4.11963 4.74997 4.10963 4.61997C4.07963 4.67997 4.06963 4.70997 4.06963 4.70997C4.06963 4.70997 4.07963 4.53997 3.86963 4.47997V4.46997Z" fill="#3D3D3D"/>
<path d="M3.67941 4.77983C3.67941 4.77983 3.70941 4.81982 3.73941 4.81982C3.73941 4.78982 3.71941 4.77982 3.70941 4.75982C3.69941 4.73982 3.68941 4.71983 3.68941 4.69983C3.68941 4.67983 3.67941 4.65982 3.66941 4.63982C3.66941 4.61982 3.66941 4.59982 3.65941 4.56982C3.65941 4.58982 3.64941 4.61982 3.64941 4.63982C3.64941 4.65982 3.64941 4.68982 3.64941 4.70982C3.64941 4.72982 3.65941 4.75983 3.66941 4.77983H3.67941Z" fill="#3D3D3D"/>
<path d="M4.66961 4.72986V4.70986C4.66961 4.70986 4.64961 4.67986 4.63961 4.65986C4.62961 4.62986 4.61961 4.59986 4.60961 4.55986C4.58961 4.48986 4.58961 4.42986 4.58961 4.35986C4.55961 4.42986 4.54961 4.49986 4.55961 4.56986C4.55961 4.56986 4.54961 4.54986 4.54961 4.53986C4.54961 4.51986 4.52961 4.49986 4.52961 4.48986C4.51961 4.44986 4.51961 4.40986 4.51961 4.36986C4.49961 4.40986 4.48961 4.44986 4.48961 4.49986C4.48961 4.50986 4.48961 4.51986 4.48961 4.52986C4.48961 4.52986 4.47961 4.51986 4.46961 4.50986C4.45961 4.49986 4.44961 4.47986 4.43961 4.46986C4.43961 4.44986 4.42961 4.42986 4.41961 4.40986C4.41961 4.42986 4.40961 4.44986 4.40961 4.47986C4.40961 4.49986 4.40961 4.50986 4.42961 4.51986C4.42961 4.51986 4.40961 4.50986 4.39961 4.49986C4.39961 4.49986 4.37961 4.47986 4.37961 4.46986C4.37961 4.45986 4.36961 4.43986 4.35961 4.42986C4.35961 4.44986 4.34961 4.45986 4.34961 4.47986C4.34961 4.47986 4.34961 4.49986 4.34961 4.50986C4.34961 4.50986 4.34961 4.52986 4.35961 4.53986C4.36961 4.55986 4.37961 4.56986 4.39961 4.57986C4.40961 4.58986 4.41961 4.59986 4.43961 4.60986C4.45961 4.61986 4.46961 4.64986 4.47961 4.66986C4.47961 4.69986 4.47961 4.72986 4.47961 4.75986C4.49961 4.73986 4.49961 4.70986 4.50961 4.67986C4.51961 4.70986 4.52961 4.72986 4.54961 4.75986C4.56961 4.79986 4.57961 4.83986 4.58961 4.87986C4.59961 4.83986 4.59961 4.78986 4.59961 4.74986C4.59961 4.72986 4.59961 4.71986 4.59961 4.69986C4.59961 4.70986 4.59961 4.71986 4.61961 4.73986V4.75986L4.63961 4.77986C4.65961 4.83986 4.67961 4.90986 4.68961 4.97986C4.69961 5.04986 4.70961 5.11986 4.70961 5.18986C4.71961 5.11986 4.72961 5.04986 4.72961 4.97986C4.72961 4.90986 4.71961 4.83986 4.68961 4.76986V4.73986L4.66961 4.72986Z" fill="#3D3D3D"/>
<path d="M5.59977 4.99004C5.49977 4.85004 5.45977 4.68004 5.51977 4.54004C5.45977 4.58004 5.43977 4.63004 5.43977 4.69004C5.40977 4.65004 5.40977 4.57004 5.41977 4.55004C5.37977 4.60004 5.35977 4.68004 5.35977 4.68004C5.35977 4.68004 5.32977 4.62004 5.33977 4.56004C5.30977 4.62004 5.28977 4.74004 5.37977 4.83004C5.37977 4.78004 5.37977 4.76004 5.37977 4.76004C5.37977 4.76004 5.42977 4.93004 5.59977 5.00004V4.99004Z" fill="#3D3D3D"/>
<path d="M5.26967 4.71981C5.24967 4.65981 5.24967 4.55981 5.24967 4.55981C5.21967 4.60981 5.19967 4.66981 5.26967 4.71981Z" fill="#3D3D3D"/>
<path d="M5.5698 4.86992C5.5698 4.86992 5.6098 4.90992 5.6398 4.90992C5.6398 4.87992 5.6298 4.85992 5.6198 4.84992C5.6198 4.82992 5.5998 4.80992 5.5998 4.78992L5.5798 4.72992C5.5798 4.72992 5.5698 4.68992 5.5598 4.66992C5.5598 4.68992 5.5498 4.71992 5.5498 4.73992C5.5498 4.75992 5.5498 4.78992 5.5498 4.80992C5.5498 4.82992 5.5598 4.85992 5.5698 4.87992V4.86992Z" fill="#3D3D3D"/>
<path d="M2.8898 5.27C2.8898 5.27 2.8698 5.22 2.8598 5.2C2.8598 5.18 2.8398 5.16 2.8398 5.14C2.8398 5.12 2.8398 5.09 2.8298 5.07C2.8298 5.05 2.8298 5.02 2.8198 5C2.8198 5.02 2.8098 5.05 2.7998 5.07C2.7998 5.1 2.7998 5.12 2.7998 5.15C2.7998 5.18 2.8098 5.2 2.8198 5.23C2.8298 5.25 2.8598 5.27 2.8898 5.28V5.27Z" fill="#3D3D3D"/>
<path d="M5.00949 4.42992C5.00949 4.42992 5.00949 4.47992 5.00949 4.50992C5.00949 4.53992 5.00949 4.55992 5.00949 4.57992V4.64992C5.00949 4.64992 5.00949 4.69992 5.00949 4.72992C5.01949 4.70992 5.02949 4.67992 5.03949 4.64992C5.03949 4.61992 5.03949 4.59992 5.03949 4.56992C5.03949 4.53992 5.03949 4.51992 5.01949 4.48992C5.01949 4.45992 4.99949 4.43992 4.97949 4.41992L5.00949 4.42992Z" fill="#3D3D3D"/>
<path d="M4.70941 4.56994C4.70941 4.56994 4.69941 4.52994 4.68941 4.50994C4.68941 4.48994 4.67941 4.46994 4.66941 4.43994C4.65941 4.45994 4.64941 4.48994 4.64941 4.50994C4.64941 4.52994 4.64941 4.55994 4.64941 4.57994C4.64941 4.59994 4.66941 4.62994 4.68941 4.64994C4.70941 4.66994 4.72941 4.67994 4.74941 4.68994C4.74941 4.66994 4.72941 4.64994 4.71941 4.61994C4.71941 4.59994 4.69941 4.57994 4.68941 4.55994L4.70941 4.56994Z" fill="#3D3D3D"/>
<path d="M3.14945 6.47996C3.14945 6.47996 3.06945 6.49996 3.03945 6.49996C3.01945 6.49996 3.00945 6.49996 2.98945 6.49996C2.96945 6.49996 2.95945 6.49996 2.93945 6.48996C2.94945 6.50996 2.96945 6.51996 2.98945 6.52996C3.00945 6.52996 3.02945 6.53996 3.04945 6.53996C3.08945 6.53996 3.11945 6.53996 3.15945 6.52996C3.18945 6.52996 3.22945 6.52996 3.26945 6.52996C3.28945 6.52996 3.30945 6.51996 3.32945 6.50996C3.34945 6.49996 3.35945 6.47996 3.35945 6.45996C3.33945 6.46996 3.32945 6.47996 3.30945 6.48996C3.28945 6.48996 3.27945 6.48996 3.25945 6.48996C3.22945 6.48996 3.18945 6.48996 3.14945 6.48996V6.47996Z" fill="#3D3D3D"/>
</svg>
